<?xml version="1.0" encoding="utf-8"?>
<!-- Generator: Adobe Illustrator 25.0.1, SVG Export Plug-In . SVG Version: 6.00 Build 0)  -->
<svg version="1.1" id="Слой_1" xmlns="http://www.w3.org/2000/svg" xmlns:xlink="http://www.w3.org/1999/xlink" x="0px" y="0px"
	 width="36.07px" height="18.07px" viewBox="0 0 36.07 18.07" style="enable-background:new 0 0 36.07 18.07;" xml:space="preserve"
	>
<style type="text/css">
	.st0{fill:#333333;}
</style>
<path class="st0" d="M19.49,2.28c-1.4-0.76-0.15-2.88,1.24-2.12c4.63,2.5,8.29,6.4,13.19,8.4c0.11-0.07,0.22-0.13,0.33-0.2
	c1.08-0.65,2.05,0.54,1.76,1.47c0.2,0.6-0.07,1.34-0.81,1.6c-1.47,0.51-2.88,1.13-4.26,1.79c-2.58,1.55-5.17,3.1-7.75,4.65
	c-1.39,0.83-2.49-1.21-1.24-2.12c2.44-1.79,5.01-3.32,7.7-4.62c0.58-0.35,1.16-0.7,1.75-1.05C27.16,7.9,23.72,4.57,19.49,2.28
	 M13.75,13.28c-1.23,0.63-0.36,2.75,0.95,2.25c0.1-0.04,0.19-0.09,0.29-0.13l0,0.01c0.02-0.01,0.03-0.02,0.05-0.03
	c0.97-0.41,1.87-0.92,2.73-1.5c1.84-1.07,3.64-2.21,5.42-3.39c1.24-0.82,0.22-2.75-1-2.25c-1.73-1.16-3.43-2.36-5.16-3.51
	c-1.13-0.75-2.58-2.01-3.97-2.23c-1.55-0.25-2.22,2.13-0.65,2.37c1.28,0.2,2.77,1.57,3.83,2.28c1.14,0.77,2.28,1.55,3.41,2.32
	c-0.83,0.65-1.65,1.31-2.5,1.93C16.02,12.06,14.9,12.7,13.75,13.28 M11.71,9.18C8.55,6.81,5.38,4.44,1.86,2.62
	C0.46,1.89-0.79,4.02,0.62,4.74c2.95,1.53,5.65,3.45,8.31,5.42c-0.61,0.38-1.23,0.75-1.85,1.09c-1.65,0.54-3.31,1.09-4.82,2.03
	c-1.18,0.73-0.42,2.62,0.95,2.25c1.81-0.5,3.47-1.25,5.07-2.14c1.16-0.38,2.31-0.76,3.42-1.27c0.67-0.31,0.74-0.92,0.5-1.43
	C12.41,10.18,12.23,9.57,11.71,9.18"/>
</svg>
