<?xml version="1.0" encoding="utf-8"?>
<!-- Generator: Adobe Illustrator 25.0.1, SVG Export Plug-In . SVG Version: 6.00 Build 0)  -->
<svg version="1.1" id="Слой_1" xmlns="http://www.w3.org/2000/svg" xmlns:xlink="http://www.w3.org/1999/xlink" x="0px" y="0px"
	 width="36.07px" height="18.07px" viewBox="0 0 36.07 18.07" style="enable-background:new 0 0 36.07 18.07;" xml:space="preserve"
	>
<style type="text/css">
	.st0{fill:#333333;}
</style>
<path class="st0" d="M16.59,2.28c-4.23,2.28-7.68,5.61-11.9,7.79c0.58,0.35,1.16,0.7,1.75,1.05c2.69,1.3,5.26,2.82,7.7,4.62
	c1.25,0.92,0.15,2.96-1.24,2.12c-2.58-1.55-5.17-3.1-7.75-4.65c-1.38-0.66-2.79-1.28-4.26-1.79c-0.74-0.26-1.01-1-0.81-1.6
	c-0.3-0.93,0.68-2.12,1.76-1.47c0.11,0.07,0.22,0.13,0.33,0.2c4.9-2,8.56-5.9,13.19-8.4C16.74-0.6,17.98,1.53,16.59,2.28
	 M22.33,13.28c-1.15-0.59-2.28-1.22-3.39-1.88c-0.85-0.62-1.68-1.28-2.5-1.93c1.14-0.77,2.27-1.56,3.41-2.32
	c1.05-0.71,2.54-2.08,3.83-2.28c1.57-0.25,0.9-2.62-0.65-2.37c-1.39,0.22-2.84,1.49-3.97,2.23c-1.74,1.15-3.44,2.35-5.16,3.51
	c-1.23-0.5-2.24,1.43-1,2.25c1.78,1.19,3.57,2.33,5.42,3.39c0.86,0.58,1.76,1.09,2.73,1.5c0.02,0.01,0.03,0.02,0.05,0.03l0-0.01
	c0.1,0.04,0.19,0.09,0.29,0.13C22.69,16.03,23.56,13.91,22.33,13.28 M24.37,9.18c-0.52,0.39-0.7,0.99-0.5,1.51
	c-0.24,0.51-0.16,1.13,0.5,1.43c1.11,0.51,2.27,0.89,3.42,1.27c1.6,0.88,3.26,1.64,5.07,2.14c1.37,0.38,2.13-1.52,0.95-2.25
	c-1.51-0.94-3.17-1.49-4.82-2.03c-0.62-0.34-1.24-0.71-1.85-1.09c2.66-1.98,5.36-3.9,8.31-5.42c1.41-0.73,0.16-2.85-1.24-2.12
	C30.69,4.44,27.53,6.81,24.37,9.18"/>
</svg>
