<?xml version="1.0" encoding="utf-8"?>
<!-- Generator: Adobe Illustrator 25.0.1, SVG Export Plug-In . SVG Version: 6.00 Build 0)  -->
<svg version="1.1" id="Layer_1" xmlns="http://www.w3.org/2000/svg" xmlns:xlink="http://www.w3.org/1999/xlink" x="0px" y="0px"
	 width="99.62px" height="66.42px" viewBox="0 0 99.62 66.42" style="enable-background:new 0 0 99.62 66.42;" xml:space="preserve"
	>
<style type="text/css">
	.st0{opacity:0.5;}
	.st1{fill:#00AEEF;}
</style>
<g class="st0">
	<path class="st1" d="M45.54,1.71c-9.86-0.74-15.26,1.25-19.31,9.66c-8.55,17.79-22.58,15.77-16.3,31.5
		c6.41,16.05,3.99,15.3,22.59,19.05c12.01,2.42,26.98,7.35,36.14,0c6.6-5.3,9.97-7.86,13.12-15.17
		c5.97-13.84,15.74-18.48,5.96-28.82C81.11,10.92,77.04,5.86,66.92,4.32C57.74,2.94,54.68,0.17,45.54,1.71"/>
</g>
<g>
	<g>
		<path d="M22.26,38.35c4.68-7.3,8.85-14.91,13.53-22.22c0.63-0.98-2.22-0.61-2.66,0.08c-4.68,7.3-8.85,14.91-13.53,22.22
			C18.97,39.4,21.82,39.04,22.26,38.35L22.26,38.35z"/>
	</g>
</g>
<g>
	<g>
		<path d="M21.86,39.94c3.67-1.08,7.47-0.97,11.2-0.23c1.84,0.37,3.65,0.9,5.43,1.51c0.94,0.33,1.87,0.68,2.8,1.05
			c0.39,0.16,0.78,0.32,1.17,0.49c0.32,0.14,1.31,0.38,1.47,0.72c0.61,1.31,3.48,0.48,2.9-0.78c-0.41-0.89-1.06-1.24-1.94-1.62
			c-1.1-0.49-2.21-0.94-3.34-1.36c-2.18-0.82-4.41-1.5-6.68-2.01c-4.47-1-9.15-1.14-13.57,0.16C19.53,38.39,20.06,40.47,21.86,39.94
			L21.86,39.94z"/>
	</g>
</g>
<g>
	<g>
		<path d="M19.41,39.94c5.23,4.21,11.44,9.46,18.52,9.55c2.63,0.04,5.63-0.59,7.76-2.23c0.89-0.68,1.72-1.73,1.9-2.87
			c0.27-1.8-1.53-1.42-2.65-1.05c-0.27,0.09-1.12,0.36-0.89,0.74c0.21,0.33,1.63-0.14,1.85-0.21c0.07-0.02,0.15-0.05,0.22-0.07
			c-0.62,0.07-1.24,0.14-1.85,0.21c1.01,0.41,0.14,2.03-0.27,2.6c-0.51,0.72-1.27,1.31-2.12,1.58c-1.96,0.61-4.26,0.05-6.13-0.6
			c-5.12-1.78-9.43-5.24-13.6-8.6C21.57,38.52,19.09,39.68,19.41,39.94L19.41,39.94z"/>
	</g>
</g>
<g>
	<g>
		<path d="M49.35,44.56c3.82-2.31,7.96-4.17,12.27-5.35c1.58-0.43,3.24-0.72,4.89-0.61c0.84,0.06,1.69,0.22,2.47,0.57
			c0.37,0.17,0.74,0.38,1.06,0.63c0.18,0.14,0.35,0.29,0.51,0.45c0.35,0.53,0.8,0.38,1.34-0.45c-0.69-0.14-1.55,0.01-2.05,0.55
			c-0.4,0.44-0.34,1.06,0.32,1.2c1.09,0.22,2.78,0.14,3.43-0.95c0.6-0.99-0.54-1.79-1.27-2.33c-2.06-1.5-4.82-1.7-7.27-1.48
			c-2.92,0.27-5.75,1.22-8.47,2.25c-3.16,1.19-6.19,2.7-9.08,4.45c-0.49,0.3-0.75,0.92-0.21,1.3
			C47.87,45.19,48.82,44.88,49.35,44.56L49.35,44.56z"/>
	</g>
</g>
<g>
	<g>
		<path d="M45.1,46.63c3.46,5.49,9.93,7.87,16.19,6.45c6.23-1.41,12.13-6.61,11.54-13.47c-0.06-0.73-2.98-0.16-2.9,0.78
			c0.46,5.39-3.7,10.49-8.94,11.53c-5.07,1.01-10.31-1.8-12.99-6.07C47.48,45.03,44.76,46.08,45.1,46.63L45.1,46.63z"/>
	</g>
</g>
<g>
	<g>
		<path d="M72.65,40.95c3.62-6.49,7.24-12.98,10.86-19.47c-0.75,0.25-1.49,0.51-2.24,0.76c0.31,0.05,0.24,0.45,0.17,0.65
			c-0.24,0.63,0.93,0.68,1.26,0.64c0.62-0.07,1.41-0.37,1.64-1c0.36-0.95-0.39-1.74-1.3-1.89c-0.67-0.11-1.86,0.08-2.24,0.76
			c-3.62,6.49-7.24,12.98-10.86,19.47C69.27,42.08,72.17,41.81,72.65,40.95L72.65,40.95z"/>
	</g>
</g>
<g>
	<g>
		<path d="M15.39,20.49c-0.01,0-0.02,0.01-0.03,0.01c0.13-0.04,0.25-0.09,0.38-0.13c-0.02,0.01-0.04,0.01-0.07,0.02
			c0.13-0.03,0.26-0.05,0.39-0.08c-0.03,0.01-0.07,0.01-0.1,0.01c0.12-0.01,0.24-0.01,0.37-0.02c-0.04,0-0.07,0-0.1,0
			c0.11,0.01,0.22,0.02,0.32,0.03c-0.05-0.01-0.09-0.01-0.14-0.03c0.09,0.03,0.18,0.05,0.26,0.08c-0.06-0.02-0.12-0.05-0.17-0.08
			c0.06,0.04,0.13,0.09,0.19,0.13c-0.02-0.01-0.04-0.03-0.06-0.04c0,0.19,0,0.39,0,0.58c0.05-0.08,0.09-0.17,0.13-0.25
			c0.01-0.02,0.02-0.04,0.02-0.07c0.02-0.1,0.02-0.22,0-0.32c-0.01-0.04-0.02-0.08-0.04-0.12c-0.05-0.09-0.1-0.2-0.18-0.27
			c-0.18-0.18-0.42-0.28-0.66-0.33c-0.01,0-0.02,0-0.03-0.01c-0.1-0.02-0.23-0.03-0.34-0.03c-0.01,0-0.02,0-0.03,0
			c-0.11,0-0.27,0.01-0.38,0.02c-0.01,0-0.02,0-0.04,0.01c-0.13,0.02-0.28,0.05-0.41,0.08c-0.15,0.04-0.3,0.08-0.43,0.15
			c-0.17,0.06-0.32,0.15-0.46,0.26c-0.13,0.08-0.23,0.18-0.32,0.3c-0.08,0.09-0.12,0.19-0.1,0.31c-0.02,0.1,0.02,0.2,0.1,0.27
			c0.06,0.04,0.13,0.09,0.19,0.13c0.19,0.08,0.38,0.11,0.59,0.11c0.12-0.01,0.24-0.01,0.37-0.02c0.27-0.04,0.52-0.1,0.77-0.21
			c0.01-0.01,0.02-0.01,0.04-0.02c-0.13,0.04-0.25,0.09-0.38,0.13c0.01,0,0.02-0.01,0.04-0.01c-0.13,0.03-0.26,0.05-0.39,0.08
			c0.01,0,0.02,0,0.04-0.01c-0.12,0.01-0.24,0.01-0.37,0.02c0.02,0,0.03,0,0.05,0c-0.11-0.01-0.22-0.02-0.32-0.03
			c0.02,0,0.04,0.01,0.06,0.01c-0.09-0.03-0.18-0.05-0.26-0.08c0.04,0.01,0.08,0.03,0.11,0.06c-0.06-0.04-0.13-0.09-0.19-0.13
			c0.06,0.04,0.11,0.09,0.14,0.15c-0.03-0.06-0.07-0.12-0.1-0.17c0.04,0.06,0.06,0.13,0.06,0.21c0-0.07,0-0.13,0-0.2
			c0,0.04-0.01,0.08-0.03,0.12c0.03-0.07,0.07-0.14,0.1-0.21c-0.01,0.01-0.01,0.02-0.02,0.03c-0.08,0.09-0.12,0.19-0.1,0.31
			c-0.02,0.1,0.02,0.2,0.1,0.27c0.23,0.19,0.5,0.32,0.79,0.36c0.3,0.04,0.55,0.04,0.85,0.01c0.33-0.03,0.64-0.13,0.94-0.25
			c0.17-0.06,0.32-0.15,0.46-0.26c0.13-0.08,0.23-0.18,0.32-0.3c0.08-0.09,0.12-0.19,0.1-0.31c0.02-0.1-0.02-0.2-0.1-0.27
			c-0.06-0.04-0.13-0.09-0.19-0.13c-0.19-0.08-0.38-0.11-0.59-0.11c-0.12,0.01-0.24,0.01-0.37,0.02
			C15.9,20.32,15.64,20.39,15.39,20.49L15.39,20.49z"/>
	</g>
</g>
<g>
	<g>
		<path d="M87.81,15.71c-0.02,0.05-0.03,0.1-0.04,0.14c-0.01,0.02-0.03,0.09-0.04,0.14c0,0,0,0.01,0,0.01c0,0,0,0.01,0,0.01
			c0,0,0,0,0,0c0,0,0.02,0.27,0.02,0.27c0,0,0,0,0,0.01c0,0.01,0,0.01,0.01,0.02c0,0,0.12,0.24,0.12,0.25c0,0,0,0,0,0c0,0,0,0,0,0
			c0,0,0,0.01,0.01,0.01c0.19,0.21,0.25,0.24,0.52,0.35c0.01,0,0.01,0,0.02,0.01c0,0,0,0,0,0c0.02,0,0.31,0.07,0.33,0.07
			c0,0,0,0,0.01,0c0,0,0.01,0,0.01,0c0,0,0.01,0,0.01,0c0,0,0,0,0.01,0c0,0,0,0,0,0c0.07,0,0.31,0.01,0.37,0.01
			c0.01,0,0.02,0,0.02,0c0,0,0.01,0,0.01,0c0,0,0,0,0.01,0c0.03-0.01,0.36-0.06,0.4-0.07c0,0,0,0,0,0c0.01,0,0.01,0,0.02-0.01
			c0,0,0,0,0,0c0,0,0,0,0,0c0.02-0.01,0.35-0.13,0.38-0.14c0,0,0.01,0,0.01,0c0,0,0.01,0,0.01,0c0,0,0,0,0,0c0,0,0,0,0,0
			c0.03-0.02,0.29-0.17,0.32-0.19c0.01,0,0.01-0.01,0.02-0.01c0.07-0.06,0.19-0.15,0.26-0.24c0,0,0,0,0,0
			c0.01-0.01,0.17-0.25,0.17-0.26c0,0,0,0,0,0c0,0,0-0.01,0-0.01c0,0,0,0,0,0c0.01-0.05,0.03-0.09,0.04-0.14
			c-0.06,0.18,0.03-0.09,0.04-0.14c0,0,0,0,0,0c0,0,0-0.01,0-0.01c0,0,0,0,0,0c0-0.01-0.02-0.26-0.02-0.28c0,0,0,0,0-0.01
			c0,0,0-0.01,0-0.01c-0.03-0.09-0.08-0.18-0.13-0.27c-0.09-0.12-0.21-0.21-0.35-0.26c-0.14-0.08-0.3-0.13-0.47-0.14
			c-0.19-0.03-0.38-0.02-0.57,0.03c-0.2,0.02-0.39,0.08-0.57,0.17c-0.11,0.06-0.21,0.13-0.32,0.19c-0.18,0.13-0.32,0.29-0.43,0.49
			c-0.03,0.09-0.06,0.18-0.08,0.27c-0.02,0.19,0.02,0.37,0.14,0.52c0,0,0,0.01,0.01,0.01c-0.04-0.08-0.08-0.16-0.12-0.25
			c0,0.01,0.01,0.02,0.01,0.03c-0.01-0.09-0.01-0.18-0.02-0.27c0,0.01,0,0.01,0,0.02c0.03-0.09,0.06-0.18,0.08-0.27
			c0,0.01,0,0.01-0.01,0.02c0.06-0.09,0.12-0.17,0.17-0.26c0,0.01-0.01,0.01-0.01,0.01c0.08-0.08,0.17-0.15,0.25-0.23
			c-0.01,0.01-0.01,0.01-0.02,0.01c0.11-0.06,0.21-0.13,0.32-0.19c-0.01,0-0.02,0.01-0.03,0.01c0.13-0.05,0.25-0.09,0.38-0.14
			c-0.01,0-0.02,0.01-0.03,0.01c0.13-0.02,0.26-0.05,0.39-0.07c-0.01,0-0.03,0-0.04,0c0.12,0,0.25,0,0.37,0.01
			c-0.01,0-0.02,0-0.04,0c0.11,0.02,0.22,0.05,0.33,0.07c-0.01,0-0.02-0.01-0.03-0.01c0.09,0.05,0.19,0.09,0.28,0.14
			c-0.01,0-0.01-0.01-0.02-0.01c0.07,0.06,0.14,0.13,0.21,0.19c-0.01,0-0.01-0.01-0.01-0.02c0.04,0.08,0.08,0.16,0.12,0.25
			c0-0.01-0.01-0.01-0.01-0.02c0.01,0.09,0.01,0.18,0.02,0.27c0-0.01,0-0.02,0-0.03c-0.03,0.09-0.06,0.18-0.08,0.27c0,0,0,0,0-0.01
			c0.08-0.13,0.1-0.27,0.07-0.41c0.01-0.14-0.04-0.27-0.13-0.38c-0.09-0.12-0.21-0.21-0.35-0.26c-0.14-0.08-0.3-0.13-0.47-0.14
			c-0.12,0-0.25,0-0.37-0.01c-0.27,0.02-0.53,0.09-0.77,0.21c-0.11,0.06-0.21,0.13-0.32,0.19C88.05,15.35,87.91,15.51,87.81,15.71
			L87.81,15.71z"/>
	</g>
</g>
<g>
	<g>
		<path d="M88.87,40.34c-0.18-0.15-0.28-0.24-0.53-0.3c-0.01,0-0.01,0-0.02-0.01c-0.07-0.02-0.27-0.05-0.34-0.05
			c-0.01,0-0.01,0-0.02,0c-0.12,0-0.25,0.01-0.37,0.01c-0.01,0-0.01,0-0.02,0c-0.07,0.01-0.33,0.06-0.4,0.07c-0.01,0-0.01,0-0.02,0
			c-0.06,0.02-0.33,0.11-0.39,0.14c-0.01,0-0.01,0.01-0.02,0.01c-0.07,0.03-0.27,0.14-0.33,0.18c-0.01,0-0.01,0.01-0.02,0.01
			c-0.05,0.03-0.11,0.09-0.14,0.12c-0.03,0.02-0.1,0.08-0.14,0.12c-0.19,0.19-0.28,0.36-0.36,0.61c-0.01,0.03-0.01,0.05-0.01,0.08
			c0,0.07,0,0.18,0.01,0.25c0,0.01,0,0.01,0,0.02c0,0.02,0.01,0.03,0.01,0.05c0.04,0.09,0.08,0.2,0.16,0.27
			c0.01,0.01,0.02,0.01,0.02,0.02c0.06,0.05,0.14,0.12,0.21,0.17c0.02,0.01,0.04,0.02,0.05,0.03c0.11,0.05,0.23,0.11,0.36,0.13
			c0.09,0.02,0.25,0.05,0.37,0.06c0.07,0,0.16,0,0.2,0c0.07,0,0.14,0,0.21-0.01c0.08-0.01,0.18-0.03,0.25-0.04
			c0.08-0.01,0.17-0.03,0.25-0.05c0.14-0.04,0.28-0.09,0.42-0.15c0.02-0.01,0.04-0.02,0.06-0.03c0.27-0.14,0.54-0.29,0.75-0.52
			c0.14-0.15,0.26-0.31,0.36-0.49c0.06-0.1,0.11-0.19,0.18-0.28c0.08-0.11,0.11-0.23,0.09-0.36c0.01-0.12-0.03-0.23-0.12-0.33
			c-0.09-0.07-0.17-0.16-0.27-0.21c-0.11-0.07-0.24-0.11-0.36-0.15c-0.08-0.03-0.17-0.03-0.25-0.05c-0.09-0.01-0.18-0.03-0.27-0.03
			c-0.13,0-0.27,0-0.41,0.01c-0.02,0-0.03,0-0.05,0.01c-0.14,0.02-0.29,0.05-0.43,0.08c-0.02,0-0.04,0.01-0.06,0.02
			c-0.3,0.1-0.6,0.2-0.86,0.39c-0.1,0.07-0.2,0.15-0.29,0.23c-0.01,0.01-0.02,0.02-0.04,0.04c-0.07,0.08-0.14,0.17-0.21,0.26
			c-0.01,0.01-0.01,0.01-0.02,0.02c-0.03,0.04-0.05,0.08-0.05,0.13c-0.06,0.11-0.07,0.23-0.04,0.36c0,0.07,0.02,0.14,0.05,0.2
			c0.06,0.13,0.12,0.27,0.23,0.36c0.11,0.1,0.23,0.21,0.37,0.27c0.26,0.12,0.51,0.2,0.8,0.21c0.13,0,0.28,0,0.41-0.01
			c0.02,0,0.04,0,0.06-0.01c0.33-0.05,0.56-0.11,0.87-0.24c0.17-0.07,0.32-0.16,0.45-0.28c0.13-0.09,0.23-0.2,0.31-0.33
			c0.08-0.11,0.11-0.23,0.09-0.36c0.01-0.12-0.03-0.23-0.12-0.33c-0.07-0.05-0.13-0.11-0.2-0.16c-0.19-0.1-0.39-0.15-0.6-0.16
			c-0.12,0-0.25,0.01-0.37,0.01c-0.27,0.03-0.52,0.1-0.77,0.21c-0.01,0-0.02,0.01-0.02,0.01c0.13-0.04,0.25-0.09,0.38-0.13
			c-0.02,0.01-0.05,0.01-0.07,0.02c0.13-0.02,0.26-0.05,0.39-0.07c-0.02,0-0.05,0.01-0.07,0.01c0.12,0,0.25-0.01,0.37-0.01
			c-0.03,0-0.06,0-0.09-0.01c0.11,0.02,0.22,0.03,0.33,0.05c-0.04-0.01-0.08-0.02-0.12-0.03c0.09,0.04,0.18,0.07,0.27,0.11
			c-0.06-0.02-0.11-0.05-0.15-0.09c0.07,0.05,0.13,0.11,0.2,0.16c-0.06-0.05-0.11-0.11-0.15-0.17c0.04,0.07,0.07,0.14,0.11,0.21
			c-0.03-0.06-0.05-0.13-0.06-0.21c-0.03,0.16-0.06,0.32-0.08,0.48c0.01-0.01,0.01-0.02,0.02-0.03c-0.06,0.08-0.12,0.15-0.18,0.23
			c0.02-0.03,0.05-0.06,0.08-0.08c-0.09,0.07-0.17,0.14-0.26,0.21c0.02-0.02,0.05-0.03,0.07-0.05c-0.11,0.06-0.22,0.12-0.32,0.18
			c0.03-0.01,0.05-0.03,0.08-0.04c-0.13,0.04-0.25,0.09-0.38,0.13c0.03-0.01,0.06-0.02,0.1-0.03c-0.13,0.02-0.26,0.05-0.39,0.07
			c0.03-0.01,0.06-0.01,0.09-0.01c-0.12,0-0.25,0.01-0.37,0.01c0.04,0,0.08,0,0.11,0.01c-0.11-0.02-0.22-0.03-0.33-0.05
			c0.04,0.01,0.07,0.02,0.11,0.03c-0.09-0.04-0.18-0.07-0.27-0.11c0.05,0.02,0.09,0.04,0.13,0.08c-0.07-0.05-0.13-0.11-0.2-0.16
			c0,0,0.01,0.01,0.01,0.01c-0.01-0.23-0.02-0.46-0.03-0.68c-0.11,0.15-0.19,0.33-0.3,0.48c0.06-0.08,0.12-0.15,0.18-0.23
			c-0.04,0.05-0.07,0.09-0.12,0.12c0.09-0.07,0.17-0.14,0.26-0.21c-0.03,0.02-0.06,0.04-0.09,0.06c0.11-0.06,0.22-0.12,0.32-0.18
			c-0.03,0.01-0.06,0.03-0.09,0.04c0.13-0.04,0.25-0.09,0.38-0.13c-0.03,0.01-0.05,0.02-0.08,0.02c0.13-0.02,0.26-0.05,0.39-0.07
			c-0.03,0-0.05,0.01-0.08,0.01c0.12,0,0.25-0.01,0.37-0.01c-0.02,0-0.04,0-0.06,0c0.11,0.02,0.22,0.03,0.33,0.05
			c-0.03,0-0.05-0.01-0.07-0.02c0.09,0.04,0.18,0.07,0.27,0.11c-0.03-0.01-0.05-0.03-0.08-0.04c0.07,0.05,0.13,0.11,0.2,0.16
			c-0.02-0.02-0.05-0.04-0.06-0.07c0.04,0.07,0.07,0.14,0.11,0.21c-0.01-0.03-0.02-0.06-0.02-0.09c0,0.08,0.01,0.16,0.01,0.24
			c0-0.04,0.01-0.07,0.02-0.11c-0.03,0.08-0.06,0.16-0.09,0.24c0.01-0.03,0.03-0.06,0.05-0.08c-0.06,0.08-0.12,0.15-0.18,0.23
			c0.01-0.02,0.03-0.04,0.05-0.05c-0.09,0.07-0.17,0.14-0.26,0.21c0.01-0.01,0.02-0.01,0.03-0.02c-0.11,0.06-0.22,0.12-0.32,0.18
			c0.01-0.01,0.02-0.01,0.03-0.01c-0.13,0.04-0.25,0.09-0.38,0.13c0.01,0,0.02,0,0.03-0.01c-0.13,0.02-0.26,0.05-0.39,0.07
			c0.01,0,0.01,0,0.02,0c-0.12,0-0.25,0.01-0.37,0.01c0.01,0,0.02,0,0.03,0c-0.11-0.02-0.22-0.03-0.33-0.05c0.01,0,0.02,0,0.03,0.01
			c-0.09-0.04-0.18-0.07-0.27-0.11c0.02,0.01,0.03,0.01,0.04,0.02c-0.07-0.05-0.13-0.11-0.2-0.16c0,0,0.01,0,0.01,0.01
			c0.09,0.11,0.2,0.18,0.34,0.21c0.15,0.07,0.3,0.11,0.46,0.11c0.19,0.02,0.38,0,0.57-0.05c0.2-0.03,0.39-0.08,0.57-0.17
			c0.11-0.06,0.22-0.12,0.32-0.18c0.18-0.11,0.33-0.26,0.44-0.44c0.03-0.08,0.06-0.16,0.09-0.24
			C89.02,40.62,88.98,40.47,88.87,40.34L88.87,40.34z"/>
	</g>
</g>
<g>
	<g>
		<path d="M80.67,53.19c3.2,3.58,8.56,3.05,12.84,2.48c0.49-0.07,1.55-0.34,1.66-0.93c0.12-0.61-0.88-0.57-1.23-0.53
			c-3.64,0.49-7.86,0.92-10.58-2.11C82.76,51.41,80,52.44,80.67,53.19L80.67,53.19z"/>
	</g>
</g>
<g>
	<g>
		<path d="M78.22,57.81c1.72,2.63,4.65,3.72,7.6,4.34c3.84,0.82,7.84,1.06,11.76,1c0.59-0.01,1.57-0.21,1.93-0.74
			c0.37-0.54-0.32-0.67-0.74-0.66c-3.55,0.06-7.11-0.2-10.6-0.86c-2.64-0.51-5.51-1.48-7.06-3.85
			C80.58,56.21,77.87,57.27,78.22,57.81L78.22,57.81z"/>
	</g>
</g>
<g>
	<g>
		<path d="M10.63,25.74c-1.08-2.82-1.62-5.82-1.57-8.84c0.01-0.39-2.89-0.02-2.9,0.78c-0.04,3.02,0.49,6.02,1.57,8.84
			c0.16,0.41,1.28,0.1,1.56,0.02C9.49,26.48,10.78,26.12,10.63,25.74L10.63,25.74z"/>
	</g>
</g>
<g>
	<g>
		<path d="M4.46,27.35c-0.5-0.17-0.77-0.9-0.91-1.41c-0.23-0.86-0.3-1.77-0.38-2.65c-0.21-2.13-0.29-4.26-0.24-6.4
			c0.02-0.68-0.74-0.85-1.3-0.79c-0.5,0.05-1.6,0.41-1.62,1.08c-0.06,2.44,0.04,4.89,0.3,7.32c0.2,1.81,0.42,3.95,2.42,4.61
			c0.66,0.22,1.58-0.05,2.05-0.55C5.25,28.09,5.07,27.55,4.46,27.35L4.46,27.35z"/>
	</g>
</g>
<g>
	<g>
		<path d="M34.84,1.3c0.52,0,1.64-0.22,1.93-0.72C37.08,0.04,36.51,0,36.06,0c-0.52,0-1.64,0.22-1.93,0.72
			C33.82,1.26,34.4,1.3,34.84,1.3L34.84,1.3z"/>
	</g>
</g>
<g>
	<g>
		<path d="M13.21,61.16c0.51,0,1.66-0.22,1.93-0.71c0.3-0.53-0.26-0.55-0.71-0.55c-0.51,0-1.66,0.22-1.93,0.71
			C12.21,61.14,12.77,61.16,13.21,61.16L13.21,61.16z"/>
	</g>
</g>
<g>
	<g>
		<path d="M23.21,64.95c1.68,0,2.21-2.18,0.24-2.18C21.78,62.77,21.25,64.95,23.21,64.95L23.21,64.95z"/>
	</g>
</g>
<g>
	<g>
		<path d="M28.59,66.1c0.24,0.08,0.47,0.17,0.71,0.25c0.14,0.04,0.27,0.06,0.42,0.06c0.17,0.01,0.35,0,0.52-0.03
			c0.2-0.03,0.39-0.08,0.58-0.14c0.18-0.05,0.35-0.12,0.52-0.21c0.09-0.06,0.18-0.11,0.27-0.17c0.14-0.09,0.24-0.21,0.31-0.35
			c0-0.05,0.01-0.11,0.01-0.16c-0.05-0.12-0.14-0.2-0.27-0.23c-0.24-0.08-0.47-0.17-0.71-0.25c-0.14-0.04-0.27-0.06-0.42-0.06
			c-0.17-0.01-0.35,0-0.52,0.03c-0.2,0.03-0.39,0.08-0.58,0.14c-0.18,0.05-0.35,0.12-0.52,0.21c-0.09,0.06-0.18,0.11-0.27,0.17
			c-0.14,0.09-0.24,0.21-0.31,0.35c0,0.05-0.01,0.11-0.01,0.16C28.37,65.99,28.46,66.07,28.59,66.1L28.59,66.1z"/>
	</g>
</g>
</svg>
