<svg xmlns="http://www.w3.org/2000/svg" width="405.16" height="170.03"><path d="M21.27 15.02c.66.32.37.41.93 1.14.39-.43.06-.74-.17-1.06.47-.22.94-.2 1.41-.06.8.23 1.6.8 2.38 1.07-.01.01-.01.01-.02.01-1.05.86-2.1-.79-3.15.17.56.15 1.12.31 1.67.84-.59.55-1.21-.46-1.79 1.14-.32-.52.23-1.2-.33-1.68-.25.46-.5.28-.75.78-.4-.29-.09-.71.13-1.11-.31-.37-.6.42-.92-.27-.12 1.27-1.13.7-1.18 1.95-.84-.56-.02-1.44-.67-2.05-.6.79-2.03.25-2.17-.46-.92.98-.97-.42-1.85.41-.4-.69.47-.38.58-1.03-.92-.68-1.75.51-2.67.07-.3.76-.35 1.01-.36 2.06-.53-.07-1.49.61-1.46 1.72-.71-.24.33-.96-.39-1.2-.48-.13-.89.8-1.41.18-.54.72-.11 1.12-.69 1.29-.56-.57.61-1.63.47-2.31.32-.74.82 1.2 1.1-.09-.21-.96-1.44-.47-2.03.36-.6-.27-.25-.8-.72-1.1-.7 1.01-2.21 2.49-2.56 1.62-.29-.12-.25.47-.1.7-.56.37-1.1.86-1.77.01-.29.94-.7.54-.98 1.48.6-.96 1.49.95 2.04-.55.56.89-.05 1.55 1.12 1.78-.75 1.77-1.16.32-1.4.31-.5 1.27.69.53.77 1.47.24-.79.55-.91.91-.34.33-.96.74-.55.67-1.35-.55-.29-.92.44-.86-.78.32-.52.79.62 1.09-.19.34.72-.32 1.26.58 1.32-.44-1.33.68-.24 1.22-.42.09.18.07 1.02-.16 1.2.5.11 1.39.87 1.97.24.7 1.68 1.55.21 2.11 1.81.74-.6.59-1.5 1.42-1.7.18.31-.21.78-.39 1.2.72 1.19 1.32.18 2 .55.2-.63.04-.81-.34-.78.36-1.18 1.06-.29 1-1.36.06.19.26 1.3.64.72.34.77-.03.55-.4 1.19.82.57 1.57-.59 2.42.82.19-2.32 1.13.84 1.74-1.19-.11 1.38.64.42.78 1.38-.53.26-1.06.64-1.63-.35-.42 1.89-1.85.69-2.83-.13-.02.65-.05 1.31-.65 2.13 1.34-2.44 4.31 2.23 5.55-1.95.93.05 1.86-.44 2.8.15.22-.6.07-.82-.3-.82l.87-1.41c.29-.18.59 0 .88.34-.43.74-.88.03-1.31 1.22.44.53.88.42 1.32.95l.58-.92c.24-.07.49.02.73.14.3.47-.05 1.02-.43 1.56 1.08.28.57-2.16 1.74-1.47.12-.37.12-.73-.14-1.07.3-.4.59-.64.88-.52-.58 1.96 1.66 2.25 2.42 3.03-.85.61-2.96-.49-2.88 1.14-.86.11-1.72-.55-2.59-.18-.08 1.24 1.05.26 1.44.73-.68.65-.68.17-1.15 1.41-.37-1.85-.84-.13-1.16-2.05-.71.87-.37 1.62-.12 2.39-.54.44-.58-.92-.87-1.19-.33.57-.67.38-.99 1.26-.53-.34-.18-.83-.6-1.2-.62 1.18-.37.11-1.02-.04-.66.79-1.35.37-2 1.23-.61-.39.04-1.02-.19-1.48.7-.49 2.04.29 1.86-1.43-.39-.06-.76.83-1.14 1.08-.05-.28-.1-.56-.32-.81-.6 1.07-.73 1.17-1.31.46-.8.95.16 1.56-.64 2.51-.14.16-.29.05-.43.3-.55-.48-.09-1.14-.07-1.72-.43-.97-.78.07-1.21-.59-.29.37-.13.62.04.86-.84.76-1.83-1.02-2.6 1.14-1.64-.3-2.77.98-4.18-.15-.41 1.19-.96.6-1.43.93-.08 1.1.14 1.24-.27 2.08.76.68.75.4 1.3 1.28.23-1.16-.01-.81.44-1.9.61-.47 1.29.11 1.84-1.17.43.68-.51 1.74-.56 2.55.39.46 1.41-.59 1.37.71.97.07 1.84-1.75 2.89-.35-.53.82-1.13.58-1.66 1.32.39.09.76-.26 1.19.55.1-.95.23-.98.56-.15 1.01-1.82 2.21.15 3.26-.57.59.33-.03.88-.23 1.35.4.71.75-.15 1.14.23-.27-.73-.31-1.52-1.08-2.19-.05-.35.01-.73.1-1.1.33-.14.67.02 1 .04.18.4-.29.92.33 1.24.34-.42.25-.77.39-1.15.18-.21.39.21.57-.11.38.86-.29.56-.25 1.35-.4.64-.87-.6-1.26.44 2.2.1 4.39-.16 6.55-.12 2.16.08 4.32.24 6.45.8.31-1.8 1.68-.9 1.91.4.31-.95-.11-1.88.21-2.82.81-.46.69 1.29 1.5.62.13.29-.16.58-.3.87.68.24 1.41-.78 2.07-.25-.91 2.39 1.6 1.22 2.6 3.06.56-.4-.02-.87-.21-1.31 1.09.15.6.36 1.58.96.18-.35-.32-.74-.08-1.09.28-.13.54.09.79.48.07-.43.23-.86.61-1.27.64-.65.35 1.16 1.09.06.18.45.02.87-.35 1.29 1.58.75 1.29 1.34 3.32.88.08.37.05.73-.21 1.07 1.33-1.12 2.48.26 3.79-.42.04.3.08.59-.07.87.48.11 1.03-.54 1.59-1.34.39.48.35.91-.11 1.3 1.65-.36 2.98 2.39 4.79.32.45.59-.21.99.24 1.58-.3.38-.49-.41-.83.29 1.26-.13 2.94-1.18 4.38.13.3-.91-.95-.88-.07-1.78.59 1.05 1.06 1.9 1.67 1.7.54-1.28-.53-.22-.84-.85.58-.85 1-.19 1.51-.33-.07.72-.27 1.41-.51 2.09 1.34-.03 2.48-1.41 3.89-.24.07.31-.24.54-.1.86.16.46.41.29.57.79.57-.71.33-.8.93-1.09-.01.44.07.91.35 1.42.7-.28 1.31.15 1.95.29.23.63-.49.65-.57.29.32 1.44 1.6.18 2.12-.99.59.75-.08 1.16-.49 1.65.89.24 2.03-1.31 2.83-.36.22.36-.37.97-.53.56.1.77.5 1.18 1.05 1.38-.2.01-.8.06-.37.78-.29.17-.44-.65-.82.21.31.9.85.23 1.21.8-.09-.62.4-1.6.78-.88.19-.37-.19-.25-.29-.75.56-.25 1.08-.2 1.77-1.26.52.75-.44 1.06.01 1.79.47-.58 1.12-.4 1.26-1.41 1.04.59 2.2 1.53 2.98 1.35.08-.49.01-1.04.6-1.37.23 1.36-.59 1.77.44 2.38-.46.76-.71.04-1.07.1-.11 1.12 1.19.2 1.6.74.1-.34-.05-.76.29-1.03.34.58.66.35.81 1.61.55-.35.3-.95.86-1.29.39-.02.45 2.12 1.35.66.29.54-.09.86.31 1.44-.38.48-.64.15-.91-.07 1.56 2.7 4.83 1.68 7.03 3.02-.07.58-.37 1.07-.77 1.54.41.42.98-.11 1.34.68.41-.38.36-.92.36-1.44 1.1.35 2.82 3.08 4.37.64.22 1.09-.55.61-.61 1.36.79.33.98.32 1.58.78.18-.31.09-.72.3-1.02.88-.13 1.88 2.8 2.58 1.13.21.6-.01 1.05.38 1.71.42-.12.95-1 1.15.18.93-2.03 2.05 1.25 3.28.03-.17.39.32 1.01.04 1.36.7-.25 1.45-.82 1.83.87.34-.47.62-.61.88-.59-.01.29-.02.59.11.94.22-.64.9-.4.5.18.49-.48 1.12-.11 1.74.61-.01-.97.33-.93.8-.84.08.32-.22.52-.39.76.57.55 1.26.34 1.83.89-.65.85-.61-.44-1.04.74.34.35.65.81 1.08.62.07.4-.33.63-.55.92-.45-.18-.68-1.73-1.33-.71.59-.08.08 1.55.69 1.38 0 1.01-.49.93-.95 1-.14-.58.25-.96.37-1.44-.39-.75-.73.27-1.04.75-.41-.16-.89.07-1.17-.86.89.53.9-1.12 1.54-.58.36-.7-.73-.65.21-1.28.59-.52-.32 1.29.27.77.8-.67.16-.47-.04-1.36.18-.03.36-.08.5.18-.41-.98-2.23-.3-3.07-1.31.06 1.32-.51.08-.71 1.1.59.15 1.19.22 1.88-.24-.16 2.94-2.05 1.34-2.81 1.93-.75-1.38.3-2.14-.1-3.41-.26 1.39-.76-.67-1.38.42.42-.08 1.44.79.88 1.88-.47-1.64-.77.52-1.58-.78-.4-.82.34-1.23-.06-2.04l-.8.84c.14.35.28.7.11.94-1.33.65-2.43-.16-3.69.05.21 1.14.71.5 1.02 1.03-.81.48-2.15.61-2.17-1.21.31.27.67.19 1.13-.5.27-.76-.56-.47-.2-1.2-.82-.05-1.75 1.42-1.99-.7-.43.77-.64.14-.91-.09-.05.36-.38.61-.29 1.02-.8-1.05-2.61-.08-2.85-1.9-.55-.09-1.15.09-1.72.07.03-.36.15-.69.29-1.02-.4-.61-.45.69-.79.85-.39-.88.01-1.49.34-2.13-.51-.56-1.29-.33-1.29-1.78-.3.8.05 1.81-.65 2.47.68.9.58-1.76 1.38-.43.03.9-.24 1.34-.77 1.54-1.02.08-1.65-2.32-2.7-2.03-.18-1.3.52-.57.95-1.03-.32-.75-.85-.19-1.31 0-.01.3-.01.59.12.94-.37.13-.38-.64-.57.26-.57-1.1-1.62.89-2.02-1.35-.23.95-1.3.76-1.25-.4-.69 1.71-1.85 1.24-2.54.31-.28.21-.18.54-.38.77-.54-.92-1.37-.52-1.15-1.93l-1.1 1.21c-.75-.97.46-1.35.07-2.21-.68.72-1.19.38-1.67-.27-.18.69-.8 1.25-1.06 1.91-.23-.96.85-1.53.37-2.57-.3 2.09-1.89 1.5-2.54.36-.7.23-.8 1.54-1.43.91.13-.75.73-1.49-.08-1.36-.04-.68.39-1.22.89-1.74-.05-.25-.15-.17-.25-.07l-.19-.5c-.48.45-.26 1.1-.74 1.57-.73.47-.41-1.24-1.03-2.05-.58.72-.88-.61-1.42-.15.35 1.34.89 1.18 1.47.83-.06.5.17 1.08.43 1.67-.52-.36-.58.62-1.11-.52-.62.28.2.94-.42 1.22-.41-1.2-1.63-1.25-2.51-1.77-.22.52.66.88.96.7-.04 1.72-1.25 1.18-1.78.64-.25-1.13.89.16.62-.72-.5-1.28-.59.63-1.17-.09 1-1.9-1.98-.17-2.59-2.37-.4.82-1.41 1.11-2.18 1.94.28-1.89-1.97-.67-2.33-.08-.16-.33-.32-.64-.16-.91-.28.63-.73-.22-1.37.64-.25-1.65-.89-.18-1.83.11-.14-.54.23-.98-.23-1.58-1.7.89-2.46-.35-4.18.19-.14-.58.23-1.06-.29-1.13-.17 1.74-.95.62-1.25-.59.16 1.35-.75 2.2-1.43 1.57-.14-1.11.81.09.73-1-.18-.44-.42-.25-.6-.73-.23.54.05 1.09-.47 1.04-.13-.38.39-.68.21-1.07-.78-.66-1.09-.05-1.1.74-.67.3.1-1.37-.57-1.16.01 1.08-.57 1.35-1.16 1.62-.15-1.3-.4-.05-.84-1.14-.06.94-.71.81-1.07.37-.02-.52.29-.25.2-1.07-.28 1.35-2.23-.27-2.06 1.84-.44-.64-1.02 1.27-1.46.56-.33-.98.46-.64.87-1.69-.46-.38-.96.07-1.42-.3-.33 2.69-2.05 1.41-2.56 1.93.07-.82.72-1.16.97-1.53.26.29.12.58-.04.87.55.5.43-.67 1.08-.86-.86-.3-1.08.02-1.76-1.73-.56.51.03 1.01-.19 1.52-.73-1.58-3.84.15-4.97-.37-.17.13-1.1.94-.68 1.56-.69 1.03-1.29-.8-1.32.99-.39-.54.05-1.16.02-1.74.22-.25.43.33.65.6.42-.9-.3-1.35.55-1.79-.68.04-.77.67-1.59 1.44-.04-.28-.07-.57-.26-.84-.44.78.28.51.12 1.51-.39.44-.79-.31-1.18.76 2 .87 3.98.76 5.97.96.56.43-.34.87.22 1.3.49-.01.35-.52.67-1.09.5.86-.37 1.74-.84 2.61-1.08-.03-2.29-2.05-3.71-.51-.38.08-.77-.77-1.15-.55.36.94.25.81-.52.48-.45.48-.01.87-.26 1.33-.97-1.57-1.19-.28-2.05-.25-.37-.4-.05-.86-.53-1.25.07.94-.33 1.61-.89 1.16-.37-.4.65-.92-.02-1.3-.17.47-.34.3-.52.09-.01.36-.14.74-.37 1.14-1.12-.3-1.67-.38-2.63-1.28-.16 1.88-.88-.29-1.4.89-.3-.77.48-.35.61-1.19-.48.14-.94.42-1.44.03-.25.24-.46 1.46-.75.99.22 1.11.05.98-.55 2.07.97-.47 1.45.86 2.2-.19.51.9-.28.82.19 1.49.49-.73.5-1.39.31-2 .29-.37.6-.18.88-.8.08 1.41.88.56 1.3.21.36.88-.53.91-.59 2.06.49.1.5-.29.74-1 .17.32.57 1.11 1.3 1.08-.02-.58.4-1.23.74-1.86.17.71-.01 1.45.54 2.12.33-.67.68.01 1.02-.09-.13.52.18 1 .14 1.5 1.35-.53 2.7-.26 4.03.09.77-1.47 1.5.44 2.27-.53 1.27 2.24 3.27-1.37 4.1 1.49.28-.8.51-.26.79-.88.3.82.63.87.94 1.33-.53.49-.91-.38-1.17 1.06.26-1.17-.28-.55-.71-.86-.34.93.14.68.46.86-.62 1.05-1.17.46-1.75.45-.21-.43.58-.72.76-.44-.17-1.13-1.49.07-2.11-.2.27.83.59-.18.85.65-1.14-.26-1.59.82-2.63 1.1-.36-.5.83-1.02.16-1.52l-.51.87c-1.08-.85-2.36.05-3.1.88.71-1.27-.47-.81-1.11-.99-.07.57-.38 1.11.13 1.07-.84 1.71-1-.79-1.72.57-.36-.62-.19-1.28-.15-1.94-.35-.3-.87 1.2-.85 1.59-.49.61-1.51-1.16-1.59.49-.22.03-1.06-.42-.89-.93-.45 1.11-1.79 1.6-2.96.93.63-.6.57-.39 1.06-1.7-.43-.42-.86-.66-1.3-1.08-.36.32.45 1.46-.08 1.1-.18 1.16.56-.12.75-.13.16 1.41-1.24 2.57-1.95 1.23-.83.13-1.48 3.15-2.39 1.94l-.43.98c-.44-.32-.04-.86-.09-1.28-.52-.23-.89 1.59-1.45.81-.32-.74.43-.68.54-1.23-1.35.93-2.56 2.12-3.6.84-.4.21-.83.18-1.14 1.3.32.25.43.58.23 1.01-.6-.86-1.76 1-2.77.12.22-.65.45-1.27.79-.94-.33-.64-1.64-.18-2.31-.05-.44 1.25.43-.15.74.83-.33.85-.82.32-1.11 1.33.14.31.18.66.01 1.1.39.45.45-.13.58.62-.15.13-.3.27-.42.64-.82-1.31-.93-.8-1.8-1.16.26-1.22.88.23 1.15-.98-.38-.66-.59.01-.98-.65.36.72-.65 1.92-1.13 2.08-.16-.22.04-.61.12-.94-.47-.85-.65.23-1.09-.38-.14.51.46.67.42 1.13-.73 1.13-1.74.47-2.5 1.39.18 1.09.58-.46 1.03-.03.11.17.07.41.22.57-.68-.12-.71.76-1.3 1.49.23 1.15.74.51.8-.6.64.29-.32 1.5.44 1.13-.26.81-1.04 1.4-.29 2.13.34-.16.38-.71-.05-1.08.12-.28.35.06.54.2.37-.69.15-1.11.36-1.73.72-.3 1.48-.26 2.07-1.41 1.16 1.71 1.77-.57 2.71-.38.17 1.71-1.24 1.23-1.13 2.76 1.2-1.31 2.17-.11 3.43-2.26.46.8.78 1.51 1.23 0 .42.81.36 1.92-.1 2.45.26.52.38-.24.6 0-.31-.63.37-1.6-.22-2.12.93.8 1.6-1.07 2.45-1.1-1 1.3-1.58 2.46-1.81 2.63.51 1.42 1.64-1.26 2.36-1.94.15 1.09.94.57 1.36.31.08-.31-.2-.53-.07-.85.11-.16.24-.06.34-.31.07.34-.1.75.2 1.04.98-.22 1.91-1.36 2.89-1.83.09.19.03.42.16.61-1.02.73-1.32 1.57-2.24 2.32.89.76 1.65-.31 2.5.01.23-.85-.37-.16-.52-.74.16-.59.37-.52.55-.8.58.49.26 1.68.8 1.54.2-.42.06-.75.29-1.17-.13-.18-.23.15-.34.3-.3-.43-.33-2.15-.52-.74-.76-.98.04-1.71.51-1.66-.55.82.72.58.32 1.66.33.33.58-1.24.91-1.02.39.76-.43 1.48-.76 1.64-.26.64.35 1.08.09 1.72.46.47.84-.58 1.3 0 .02.95-.44.74-.62 1.83.48 1.16.83-.57 1.3.44.18-.82-.54-.29-.75-1.18.35-.03.69-.25 1.05.05-.56-.79-.3-1.34-.21-2.35.11-.15.23-.04.34-.27.54.35-.26.91.28 1.26.46-1.49 3.24-.92 3.06.8.29-.85.7-.49.68-1.4.63.6.23 1.28.61 1.9-.59-.2-1.15.78-1.73.44.37.86 1.71.81 2.44.38.23.41-.16.88.24 1.28.48-.71.99-1.49 1.73-.35.06-1.12.55-1.01.23-2.19.34.91.78-.54 1.39.32-.33-1.55.96-.73.95-1.81.84.63-.51 1.32.09 1.95.36-.88.72-.93 1.07-.65.04.51-.09 1.01-.14 1.52-1.21.52-2.34-.1-3.24 1.05.27.81.54-.52.8.59 1.51-2.66 2.97 1.26 4.51-.77.71 1.09 1.74 1.05 2.68 1.03.94-.01 1.8.09 2.09 1.26.46.2.92.24 1.37.53.33-1.64 1.06-.4 1.67-.76.02.37-.19.72.05 1.09.11-1.13.94-1.12.82-.16 1.36-1.19 2.52.91 3.85.26-.32-.66.36-.97.57-1.24.17.53-.56.95-.47 1.47 1 1.22 2.19-.1 3.3.03-.17 1.62 1.13 1.95 1.47.93.16.83.44.34.62.99.82-2.25 2.87 1.47 4.44-.22.78 2.63 3.12-.87 3.67 1.73-.32-.32-.72-.06-1.08-.03.13 1.25 1.49-.17 2.35.55.35.3 1.54 1.98 1.75.69.3-.44.39.79.6 1.05.94-.63 1.67.35 2.62-.4.86 1.06 3.02 1.46 4.56 2.01 5.03 2.12 10.05 4.24 15.07 6.36 5.13 2.14 10.29 4.17 15.46 6.08 10.33 3.91 20.73 7.38 31.15 10.81 20.85 6.75 41.87 12.75 62.88 19.16.27.64-.12 1.01-.4 1.43-2.85-2.59-6.45-1.12-9.34-3.5-.38.79-.52.61-1.05.69-.05-.46.24-.1.48-.48-.4-.7-1.18.69-1.46-.62-.47.41-.13 1.16-.56 1.59-.97-2.56-3.18-2.65-5.12-2.13-1.33-.83-2.61-1.97-4.22-1.29-.12-.28-.11-.49-.01-.68-2.39.46-5.19-2.19-6.9-1.02-.24-.7.1-.8-.33-1.04-.18.23.02.61.09.94-2.55-2.38-5.21-.48-7.81-3.17-.49 1.31-1.68-.48-2.36-.72-1.14-.38-2.18.76-2.52-.55-1.15.57-2.14.29-2.93-1.16-.62.2.15.96-.47 1.17-.2.45-.66-.96-.34-1.04-.85.87-1.33-.35-2.11.07-.2-.39-.04-.62.15-.85-1.06.81-1.78-.26-2.75.04.18-1.63-.04-.19-.58-1.14-.1.55-.48.94-.8.82.05-.36-.02-.77-.18-1.2-.85 1.39-1.69-1.21-3.16.12-.16-.43-.1-.79.06-1.1-1.53.01-4.83-1.59-5.36-.7-.78-.02-1.27-1.68-2.28-.42-.52-1.24-1.65-2.25-2.13-1.27-4.51-2.36-8.94-2.6-13.63-4.92-.28.2-.19.53-.39.76-.28-.75-.45-.56-.93-1.47-2.78.52-5.98-3.16-9.29-2.08-.18-.44.01-.75-.19-1.19-1.19-.17-2.43.03-3.51-.82-.05.63-.05 2.56-1.22 2.72-.2-.96.16-1.37-.46-1.96-.08-.72.89-1.3.96-.34.61-.88-.59-1.75-.67-.68-1.3-2.12-3.24-.3-4.53-2.5-.57 1.36-1.55.55-2.05-.95-.3.19-.23.52-.14.85-1.28-1.18-2.77-1.09-4.04-2.32-.17.31-.09.72-.29 1.02-1.89-1.38-4.91-.81-6.08-3.25-.15.17-.01.44.02.68-2.12-1.08-4.46-1.1-6.42-3.06-1.67.5-4.11-1.23-5.99-1.92-.52.36-.04 1.03-.57 1.39-.17.05-.34.1-.47-.14.78-2.23-1.32-1.52-1.89-2.36-.38 1.1.51.37.59 1.08.09.97-.63.5-.83.64-.42-3-2.25-1.76-3.25-3.17-.51.38-.04 1.03-.55 1.4-.18.14-.27-.36-.47-.12-.08-.39.29-.67.49-.98-.28-.66-.64-.73-1.09-.07-.07.42.29.97-.17 1.28.18.49.51-.18.65.62-.5.77-.74-.52-1.28.54-.23-1.37-.7-.86-1.06-1.18.03-1.09.74.44 1.13-.35-.58-1.64.39-.47.72-.91-.95-1.84-1.05-.05-2.01-1.43-.25.38.22.94.07 1.35-.14.17-.22-.16-.33-.31-.25.52-.16.77.13.92-.74 1.06-1.27.42-1.99 1.48-.3-.52-.5-.6-.31-1.39-.5-.1-1.21 1.57-1.63.72-.22-.49.46-.78.61-1.18-.32-.68-.76.34-.7.94-.42.58-.6-1.04-1.02-.46-.08-.46.36-.8-.09-1.35-.71 1.53-2.52 1.52-2.36-.11-.51.04-.93-.81-1.55.38-.46-1.85-1.58.03-1.71-1.64-.83 2.5-2.02-1.79-3.15.1-.9-.69-1.9-.13-2.79-1.03-.27-.65.59.01.06-.86-1.67 1.82-3-1.18-4.57-.05.16.43.37.22.53.69.08.3-.18.57-.05.87-.66-.24-1.28-1.33-1.95-1.45-.14.53.17.44.3.68.16.8-.5-.21-.72.82-.01-.58-.11-.81-.41-.9-.68 2.43-1.76-.99-2.72.75-.38-.58-.36-1.16.06-1.74-.27-.78-.59.01-.88-.43-.13.36.17.72.3 1.08-.33.92-.61.68-.92.87-.16-.43-.04-.87.26-1.3-.8.84-1.56.09-2.35.21-.12-.43.27-.87-.2-1.3-.49 2.19-2.81.85-3.56 1.93-.25-1.05-1.13-.7-.45-1.7-.48-.19-.51.4-.55 1.13-.46.18-.61-2.03-1.23-.99.23.73.45-.03.67.38-.14.23-.17.45-.1.66-1.11-.04-2.24-1.13-3.28.82-.01-1.2-.09-1.04-.5-2.09-.32.7.15 1.28.39 1.89-.52 1.86-1.2-.86-1.72.71-.7-.68.21-1.62-.2-2.35-.37.85-.12 1.6-.23 2.41-.38.84-.47-.76-.67-.33-.13-.34.15-.74.28-1.13-.4-.24-.97.48-.72 1.19-.85-1.34-.75-.01-1.4-1.45-.66 1.04-.74.72-1.52.39-.06.59.38 1.07-.1 1.77l.61.94c.39-.07.11-1.17.64-.16.2-.34.08-.6-.05-.86.65-.17 2.74-.98 2.46 1.23.24.47.4-.73.61-.96.41.82.14 1.58-.24 1.98.24.24 1.32-.06.83-.99.46-.41.95.47 1.38-.87.21.47-.41 1.08-.27 1.56.4.81 1.44-1.05 1.2.89.28.46.36-.73.19-.9.39-.1.78-.13 1.19.48.1-.37-.03-.72.09-1.09.25-.39.51.12.76-.27.03.36-.02.72-.09 1.09.93-.96 1.88-.93 2.81-.63.25.59-.34.1-.43.9.32.59.65-.4.97.58.7-1.26.69 1.81 1.39.55-.21-.2-.43-.19-.64-.39.3-1.16.57.21.87-.91.28.37.04.73-.12 1.08.18.08.37-.27.54.22.2-1.48 2.08-.61 2.94-.2.03.16.03.24.02.3 1.26-.22 2.52-.2 3.78.49.1.37-.22.71-.38 1.06.42 1.12.83-.36.82-1.03.67-.21-.06 1.28.57 1.78.63-.46-.38-1.04-.03-1.53.91.14 1.9-1.13 2.73.42.42-1.51.8-.73 1.42-1.13.38.49.07.88.36 1.36.77-.83 1.46-.51 2.16-.36.1.84-.62.47-.83.54.4.95 1.28.44 1.94-.39.39.56-.17 1 .21 1.56-.36.68-.8.05-.86.98 1.38.23 2.36-.16 3.72-1.13.57.76-.52 1.22-.07 1.96 1.2.1 2.43.05 3.49 1.53.74-1.29 1.05 0 1.36.32.27-.38-.07-.9.37-1.24.73 1.63 3.04-.23 2.94 1.79 1.43.04 3.29 1.92 4.49.95.57 1.41 1.47.3 1.99 2.1.66-1.09 1.01.13 1.71-1.07.37.56.02.9.29 1.43 2.71.86 5.51 1.13 8.09 3.42.12-.43.38-.77.23-.98 2.11 1.44 4.28 2.73 6.7 2.62.65-.35.97 1.41 1.56 1.43.15-.25-.07-.62.13-.85.65.67 1.5 1.54 2.68.94l.53 1.53c2.68-.28 5.04 1.39 7.44 2.85.11-.19.07-.42.23-.6 4.18 2.43 8.67 2.93 12.9 5.07.87-1.1 3.65 1.18 5.54 1.82 1.02.35 1.95-.18 2.53 1.16l.63-.67c.24 1.74 1.68-.01 2.3 1.75 2.3-.79 4.98 2.09 7.63 1.75l.35 1.03c3.4-.35 6.23 2.6 9.65 2.13 1.16 1.82 2.91.23 4.07 2.02 1.03-.95 1.58.87 2.59.11 2.13 1.73 4.5 2.08 6.9 2.3 4.99 2.29 10.35 2.47 15.33 4.81l.64-.65c.25-.13.16.45.01.68 2.81.28 4.75 1.11 7.61 1.32l.33 1.04c.53.06.46-1.48 1.13-.44.05.46-.24.1-.48.48.29.39.86.38.97-.28 19.99 7.03 40.08 9.84 60.27 15.79l.49-.47c2.59 1.62 5.71.55 8.18 2.78.52-.08 1.19-1.34 1.05.02.49-.47 1.68-.48 2.27.57l.65-.62c.93.44 1.81 1.11 2.92.63 4.35 2.73 9.46 1.69 13.6 5.53l.65-.61c.56 1.31 1.95 1.51 2.51.7.16.46-.03.75.15 1.22.62-1.45.85-.31 1.13.29 1.42-.86 2.8.03 4.38.64.14.45.08.8-.09 1.11.34.35.7-1.33 1.22-.12.16-.16.03-.45.01-.69.44-.23.65.7 1.22-.12.2.39.02.62-.17.83.53-.39 1.46-.69 2.19-.35.14 1.21-.52.4-.98.92 1.68-.41 3.25-.3 4.88-.48l.4 1.33c-.3.91.44-.37-.07-.95.68-.62 1.19-.44 1.88-.52.2-.02.4-.06.64-.14 0 .21.05.36.11.5.22.5.68.59.13.99.36.5.64-1.07 1.21.56.72-.62-.15-.79-.31-1.05l-.01-.01c1.08-.75 1.73.62 2.85-.28.06.34-.23.5-.41.72.19.35.58-.25.64.76 0-1.26.52-.29 1.15-1.07 1.83 2.46 5.05-1.01 6.48 2.11.26-.6.58-.88.93-1 .65-.23 1.38.11 1.93.06-.1.49-.28.61-.5.59-.37-.02-.85-.43-1.21-.03.12.49.37.37.48.91-.81.28-1.76 1.22-2.53 1.32.47-2.17-1.84-.75-2.27-.6l.03.03c.7.9 1.8 1.34 2.91 1.31.85-.02 1.7-.3 2.42-.88.06.41-.34.6-.58.87.81.04 2.39.66 2.78-1.21.55-.22.15.95.39 1.34 1.33-.63 2.17-.53 3.41-.95.31-.1.63-.23 1-.42 1.88.78 3.78 1.49 6.1.13 1.04.74 3.01.46 3.99-.64 2.23 1.83 7.35-1.87 9.9 2.42-.27-2.99 2.12-.76 2.4-3.22.62.47 1.78-1.72 2.12.09 3.07-1.31 5.7-.46 7.87 2.61.46-.54.96-1.07.92-1.86.46-.08.8.43 1.04 1.42.57-.81.84-.2 1.22-.1.39-1.09.7-.78 1.16-1.74-.13-.66-.56.14-.73-.35 1.91-.81 4.57.26 6.15 3.18.53-1.44 1.3-1.5 2.05-.85 2.13-2.51 4.45-3.39 6.65-3.71l.47 1.61c.05-1.45 1.29-.58 1.97-1.12 0 .31 0 .61-.17.83 1.54.1 2.96.34 4.4-.28.33-.14.66-.32.99-.57 1.95.3 4.58.64 6.54-1.21 1.23.73 4.03-.82 5.24-1.38 2.03-.95 3.8-1.62 5.51-3.32-.47-.21-.34-.93-.47-1.6.47-.51.69.14 1.15-.37-.53-.66-.94.02-1.13-1-.88 1.21-1.54-1.28-2.04.17-.37.3-.4-1.07-.63-1.45-.85-.01-1.65-.2-2.44-.49.91-.74 1.25-.66 2.56-1.99-3.03-.64-7.09-1.9-11-.48-.38.11-.65-.31-.88-.88-.1.33-.11.71-.1 1.1-.37-.15-.81.02-1.22.1-.17-2.14-2.18.38-3.12 1.48-.22-.87.44-1.32.92-1.85-.39.11-.8-.7-.63-1.45.78-.66.75.19 1.4-.93-.15-.76-.85 1.09-.89-.2-.53.2-.32.77-.75 1.02-.18.01-.36.03-.49-.24.14-.7.8-1.15.92-1.85.15-.07.24.12.41-.03-.53 1.16.71.61 1.21.58.16.46-.03.75.15 1.22 1.2-.19 1.82-2.28 2.88-2.29-.05.82-1.12 1.15-1.57 1.77.44.22 1.46.16 1.4-.93 1.04 1.22 2.6-.07 4-.6-.6-.97-1.68.36-2.53.62.83-1.84 2.43-1.84 3.02-.38 1.17-.72 2.32-1.29 3.1-.11 3.5-1.61 6.24.44 9.63-.64-.44-1.29-1.25-.84-1.6-2.61-.78.12-1.47-.24-1.94-1.62-.29.17-.21.51-.42.72-.24-1.64-1.05-.54-1.45-1.39-.15-.61.25-.95.67-1.29-.48-1.13-1.34-.4-1.95-.94-.4-.73.44-.86.19-1.52-.83-1.04-1.66.34-2.86.23-.09-1.29 1.35-1.64 1.9-2.06-.2-.12-.35-.45-.48-.92-.16.15-.03.44-.01.68-.6.32-.7-.7-1.15.37-.16-.46.04-.75-.15-1.22-.97.37-1.74-.2-2.52-.76-.41.41-.53.97-.35 1.67-.36.44-.65.54-.91.49-.09-.97-.02-1.85.04-2.74 1.04.17 2.84-.85 3.46-2.47 1.61.17 3.26.19 4.63 1.54-.06-1.85.97-.81 1.56-.4 0 .97-.63-.33-.98.22.46 1.2 1.5-.33 2.21-.32.35.77-.49.91.15 1.22.43-1.37 2.12-.69 2.94.04.99-1.01 1.72-.04 2.85-.23.37-1.39-.83-.68-1.13-1 1.01-.48 3.4-1.2 4.64.86 1.37-1.31 4.58 1.9 5.57-1.68.81.88 1.51-.85 2.12.1-.13.73-.58.29-.67 1.29 2.25-.63 4.61-1.98 5.28-4.8-.34-.85-1.03-1.85-.61-2.82-.87-1.42-2.59-1.81-2.38-4.6-.72.96-1.53.1-1.9 1.38.12.29.37-.05.57-.18.08.91-.16.52-.58.87-.16-.95-.44-1.3-.8-1.3-.26-.66-.03-1.09.42-1.4-.29-.28-.62-.22-.74.33-.48-1.84-2.47-1.22-3.82-.93-.99-2.5-2.95-.39-4.65.51l-.16-.54c1.01-2 2.4-1.53 3.38-2.73-.12-.71-.47-.31-.56-1.19-2.56 1.45-3.69.07-6.04.76-.03-.25.09-.42.01-.69.8.05 2.12-.51 2.71-1.45-.2-.78-.68-.17-.89-.88-.02.95-.39 1.02-.74.33 0 .61-.12 1.17-.35 1.67-.62-.8-2.38-.69-2.38 1.14-.43.54.12-1.37-.48-.92.01-.46.57-.22.5-1.14-.47-.36-1.22 1.08-1.17 1.74-.39.16-.06-1.22-.3-1.76-.77.32-.48 1.15-1 1.59-.41.34-.29-.85-.07-.95-.44-.62-.58.76-.75 1.02-.14-.15-.53-.91-.47-1.6.45-.65.68-.27 1.07-.64-.58-1.06-1.21.32-1.32 1.2-.91-.16-1.71-.42-2.63 1.03-.52-.86.29-1.08.1-1.79.56-.12 1.09-.06 1.63-.13-.3-1.06-.13-1.9.52-2.5-.23-.58-.62-.21-.74.33.13-1.04-.57-.33-.47-1.6-.9.84-1.52.54-2.45.2-.06-.69.87-.8.9.2.15-.08.12-.25.09-.42l.33-.3c-.33-.97-.98-.43-1.55-.29-.07-.95.36-1.67.28-2.62-.43.77-.37.36-.99.9-.36-.71-.12-1.13-.3-1.75-.38.21-.38.58-.58.87-.26-.58.13-.86-.23-1.49-.84.16-1.55-.29-2.28-.64-.14-1.08.39-.4.91-1.17-.25-.73-.88.38-1.05-.74-.06.35-.41.57-.34.99-1.63-1.58-3.85-.37-5.53-1.74-.18.22 0 .61.07.95-.4.41-.78.76-1.07.64.18-3.53-2.58-.16-3.5-1.22.9-2.86 2.06-1.46 3.3-2.33-.4-.9-1.32.33-1.21-1.27l-.99.9c-.23-.49-.09-.81-.15-1.22.32.18.84-.62 1.06.05 0-1.01.41-.4.67-1.29-.23-1.89-1.58 1.6-1.79-.4-.78.92-1.59 1.84-2.32 2.79-.38-.79-.01-1.23.35-1.67-.19-1.25-.76-.65-1.13-1-.03.6-.25 1.11-.84 1.44.19.35.59-.25.65.77-.51.32-.92.12-1.22-.58l-1.49 1.36c.05-1.33.43-.89-.39-1.34-.47-.83.5-.99.1-1.79-.57 1.97-1.13 1.04-2.24 2.37-.67-.67-1.4-1-2.02-1.89-.96 1.75-1.75 1.82-2.81 2.56-.44-.83.63-.92.59-1.55-1.16-.32-2.83 2.04-3.63 3.31 1.06.99 1.95-1.66 2.8-1.88.14.45.08.8-.09 1.1.24.53.98-.57.75-1.02.71 2.11 3.68-2.06 4.64.85-1.33 2.09-3.24 1.41-4.42.64-1.34 2.58-3.04 1.6-4.67 1.21.69-1.09 1.12-1.93 1.51-3.41-.51.74-.75.18-1.24.79-.66-2.75-1.76.58-2.43-1.84-1.35.51-.92.39-2.13.59.26.51-.2.67-.09 1.1-.39.16-.67-.23-1.15.37-.41-1.03.38-1.23.75-1.02.07-1.01-1.58-.4-1.72.56-.47-.3-1.14.33-1.38-1.12-.67-.42-1.81 1.44-2.37.48-.22-1.41.75-2.25 1.34-3.27-.92-.23-1.63 1.35-2.79.51-.28-1.01-.01-1.09-.56-1.18-.56.6.71.62.15 1.22.35.24.69.53 1.14.31-.03 1.16-.12 1.01.56 1.19.07.34-.23.5-.42.72-.41.23-.42-1.41-.8-1.3-.07.35-.41.57-.34.99-.48.15-.8-.46-1.22-.58-.07-.64.09-.8.41-.72.28-.11.04.4.23.8.18-.6.49-1.14.27-1.94-2.32 2.61-3.95 1.81-5.91 2.7-.13-.37-.25-.73-.07-.96-.26.61-1.77 1.26-2.63 1.06.1-1.13 1.54-1.12 1.57-1.78.17 1.07.57.7.17-.15-1.58.42-2.93.4-4.01-.06-.13-1.6 1.47-.39 1.74-1.94-.49-.15-.56-.66-.98.22-1.41-1.79-4.94.27-6.71.05-.25-.73 1.17-.67.59-1.56-.45 1.1-1.13 1.18-1.73 1.25.32.38.62.88 1.06.73.03.24-.09.41-.01.68-.89.44-1.32-1.4-2.37-.2-.16-.46.04-.75-.15-1.22-.78.73-1.21-.19-1.88.03-.14-.45-.08-.8.09-1.1-.22-.45-.7.38-.81-.61-.31.16-.25.5-.17.84-2.24-1.15-3.85-1.39-6.2-1.76-.1-.51.1-.87.5-1.14-.35-.26-.82.07-1.15-.31-.7.29.04 1.24-.58 1.56-.4-1.1-1.05-.99-1.8-.38-.26-.58.12-.86-.24-1.49-.31.39-.11 1.02-.42 1.41-.46-1.49-.59-.12-1.55-.26-.26-.58.13-.86-.23-1.48-.17.3-.24.65-.09 1.11-.89.29-2.31-1.82-2.02-3.24-1.31.31.7 1.65-.26 2.63-.42-.2-.18-.72-.64-1.44-.73.57-1.27-.51-1.81.99-.54-.21-1.18-.32-1.13-1.68l-.82.76c.24 1.32.33-.82.57.5-.63 1.43-2.23-.45-3.52.19.33-.77.36-1.53.99-1.6-.64-1.52-1.3 1.2-2.21 1.03-.31-1.58-1.12-.64-1.8-.36-.46-1.47-1.27-1.21-2.04-1.17 0-.99.71-.06 1.07-.66-.13-.74.58-1.11.5-1.83-.91.98-1.93.79-2.8 1.92-.12-.48-.49-.25-.89-.87-.04-1.35 1.52.38.83-1.45.54-.69.69.56 1.23-.12-.18-1.15-1.54.15-1.22-1.25-.54.58-.93.08-1.72.58.35-1.71-.71-.32-1.14-1.67-.99.93-1.66.25-2.54.66-.17.86.33 1.75.81 1.29-.34 1.43-1.27.14-1.72-.1.01-.7.46-1.24.66-1.3.04-.72-.31-.89-.16-1.9-.39 1.88-.82.21-1.73 1.27.07 1.23.61.09.73 1.02-.43-.07-.99.51-1.23-.56-.05-.46.24-.09.49-.46-.1-.49-.49-.43-.24-.8-.34-.84-.42 1.3-.65-.07 0 .76.11 1.57-.42 2.09-.59-.25.1-.72-.24-1.48-.43.34-.39.89-.42 1.41-.22-.02-.36-.45-.65-.07-.47-1.21.72-1.65.42-2.78-.24.5-.56.96-.58 1.56-.6.76-.64-1.28-1.31-.14-.36-.7-.13-1.13-.32-1.75-.71.62-1.13-.14-1.64-.52-.57 1.33-1.41.55-2.05.22-.26-.58.79-.55.25-1.26-.79 1.08-1.29.16-2.13-.05-.6.26.04 1.09-.41 1.41-.76-.07.1-1.31-.4-2.01-.34-.08-.51.08-.66.62-.77-2.85-2.71.2-3.68-1.66-.68 1.24-.91.9-1.89 1.44-.23-.06-.22-.98-.74-1.02.06-1.12.84-.26 1.23-.81-.64-.98-1.37-.35-2.05.21-.55-.62-.17-1-.41-2.01-.55.09-.72-.64-1.15.39l-.33-1.06c.01 1.23-1.39 1.14-1.64-.51-.67 1.38-.9.58-1.48.02-.64.54.01.27.08.95-.4.43-.58-.22-.9-.18-.29-1.21.04-1.07.33-1.68-.53-.23-1.02-.71-1.31-2.19.17-.22.31-.21.41-.04.07-.83-1.16-.89-1.64-1.18 1.19 1.15.71 2.43 1.88 3.35-1.49 1.32-1.1-1.81-2.05-1.83-.13.93.62 2.25.33 3.11-.19-.95-1.06-1.14-1.15-2.33-.51.76-.68 1.67-1.15 2.46.42-1.45-.22-1.61-.57-2.54-.14-.67.73-.89.33-1.68-.34.59-.46.55-.57 1.57-.33-.09-.65-1.06-.58.2-.37-.17-.62-.91-.9-1.54.1-.66 1.14.4 1.15-1.09-.8.48-4.11 1.1-3.12-1.15-.36-.23-.92.62-1.15-.28-.89 1.79-1.92-.32-3.2 1.32.03-1.49-.89-.9-.41-2.01-.36-.5-.52.97-1.15 1.09-.93-.5-1.76-1.49-2.95-.62.11-1.22-.77-1.21-.98-.44-.15-1.27-.67-.7-.91-1.54-.01.74.18.83.17 1.9-.5-.07-.9-1.14-.99-1.81-.62-.47-.56 1.11-1.23-.53-.11.33.02.77-.33.99.59-.06 1.06.48 1.48 1.32-.9-.4-1.78-.91-2.71-1.17-.04-.24.08-.42 0-.68.49-.23 1.11.96 1.4-.31-.53-.92-1.4.54-2.05-1.12-.23.25-.45.49-.57.21-.17.31-.23.66-.08 1.11-.68.51-1.07-.49-1.72-.07-.37-.61.02-.9-.25-1.47-.57.34.08 1.16-.57.89-.37-.75.47-.92-.17-1.21-.41.2-.07.73-.32.99-1.47-3.31-4.25-1.71-5.6-3.56-.13-.51.5-.69.49-1.15-.62-.71-1.69.92-2.06-1.12-.16.31-.23.66-.08 1.11-.39.66-.54.03-.9.52-.25-.49.07-.73.32-1-.26-.71-.76-.21-1.07-.69-.18.22.01.61.09.95-.38.62-.49-.21-.82.1.02-.37.29-.63.08-1.1l-.65.63c-.27-.57.12-.86-.25-1.48-1.26-.16-2.52-.31-3.7-.89l.25.79c-.32-.16-.84.66-1.07 0-.26-.49.07-.73.32-1-.64-.8-2.14-.22-2.55.06-.04-.96-.3-1.28-.91-.84.49 1.08-.08.87-.49 1.16 1.21.04 1.48 1.45 2.8 1.41.2-.34-.09-.21-.17-.53.43-.84.39.73.82-.11.2 1.2.26.93.67 2.1-1.29-1.47-3.58-.46-4.37-2.3-.12.18-.08.43-.24.58-.55.24.25-.76-.17-1.21-1.07 1.42-1.62.08-2.31-.52-.42 1.08-.92.79-1.39.32.33-.77.92-1.43.72-2.42.41-.12.98.46 1.15-.42-.5-.05-.48-.25-.58-1.16-.37.87-.66.53-.9 1.21-.47.16-.74-.81-1.32-.1-.23-1.74-1.48-1.34-2.47-1.04.2-1.3-.26-1.37-1.08-.68-.03-.39.04-.75.32-1-.72-.93-1.81.16-2.55-.62-.3.33.17.98-.23 1.26-.36.48-.29-1.28-.74-.31-.15-.44-.1-.8.07-1.11-.36-.35-.18 1.18-.74.38-.24-.55-.28-1.02-.01-1.37-.74.37-1.67-1.21-2.14.03-.27-.57.11-.86-.26-1.47-.23 1.31-.69-.05-.66-.05-.91-.16-1.48 1.41-2.23-.23-.38 1.18-1.31.18-1.89.13.02-.37.29-.63.07-1.11-.63 1.23-1-.34-1.88.81-.35.81.44 1.38.75.99.19.27-.74.75-.9.54-.41.92.52.47.67.72.07.41-.34.62-.57.9-.22.04-.48-1.6-1.24-.51-.24-.63-.45-1.24-.1-1.63-.32-.93-.98.01-1.25-1.19-.21.52-.2 1.3-.73 1.06.55-1.46 1.68-2.21 2.76-2.72-.39-.31-.72-.94-1.09-1.35-.26.35-.46 1.19-.74.38-.19.3-.11.71-.32 1-.65.35-.23-.63-.68-1.41-.21 1.82-2.45 1.2-2.4-.75-.18 1.05-.53-.21-1.06.7.28.92.89.01 1.16.93-.15.79-1.08-.39-1.49-.61-.12.41-.32.77-.73 1.06-.38.37-.18-.78.15-.85-.38-.5-.65.92-.39 1.43.35-.19.54.46.98-.28.05.47-.02.9.02 1.37-.69.38-1.04-1.14-1.73-.71.01-.87 1.27-2.03.46-2.53-.05 1.21-.28.52-.81.8.14-1.29.52-.4-.27-1.47-.19.8-.28 1.06-.89 1.22.07-1.69-1.03.21-1.34-1.43 1.55.34 2.94-.52 4.46 1.12-.37-1.68 1.25-.2 1.29-1.97-.13-.49-.38-.36-.5-.89-.47 1.3-1.34-.13-1.41-1.03.15 1.36-.77.88-.54 2.27-.32-.2-.78.36-1-.4-.13-.78.99.47.32-1 .42-.84.4.73.82-.12-.17-.45.02-.75-.18-1.21-.97 1.12-.99-.06-1.01-1.09-.32 1.77-1.71 0-2.56.12-.4.7-.05.57.18 1.21-1.08 1.11-2.23-.74-2.88.44-.42-.69.24-.96.14-1.53.67.21 1.39.17 1.99.79.33-.47.43-1.04.3-1.69-.24.37-.37.1-.5-.2-.11.26-.22.52-.16.85-.48-1.55-2.57-.97-3.22.08.67-2.03-.73-1.38-.79-3.03-.28.29-.49.23-.66-.03-.43 1.06.53.43.6 1.14.07.96-.76 1.27-1.61 2.3-.38-1.39.73-1.01.88-1.92-.49-1.06-.51-.08-1.23.19.13.58-.09 1.02-.14 1.53-.35.21-.46-.88-.91-.13.39 1.06 1.24-.5 1.51 1.27.78-.64 1.54-1.14 2.13-.74.13.61-.63.13-.82.13-.31.56.26.89.44.5-.65 3.63-3.68-.97-5.8-.36.14.36.27.71.1.94.18.74.7-.42.83.56-.03.63-1.15 1.03-1.32-.08.09 1.1-1.19 2.04-1.47.78-.11-.29.9-.63 1.07-.03.04-1.32.48-1.14.79-2.18-.46-.7-.25-.94-.77-1.66.97-.13 1.35.93 2.72-.28-.36-1.21.21-.99-.45-1.99-.1.72.25 1.61-.62 2.02-.84-.3-1.59-1.07-2.49-.99.24.55.29 1.02.02 1.37.34.35.71.51 1.08.65-.13.59-.67.78-.97.98-.2-.38-.04-.62.15-.85-.62-.85-.39 1.15-1.15.45.06-.66.47-1.17.46-1.86-1.15 1.26-2.57-.97-3.79.31-.1-.57.31-.94-.11-1.63-.54.31-.9-.44-1.56.53.26.55.31 1.02.28 1.46-.67.28-1.19-.33-1.9.17-.15-.95.83-2.3 1.22-.89-.18-.75.4-1.2.21-1.95-.76 1.31-1.24.5-2.46 1.09.14.98.65-.18.84.55-.2 1.03-.76-.11-1.31.63-.18-.44.01-.75-.19-1.2-.66 2.2-1.45-.61-2.3.25-.09-1.7 1.15-.77 1.37-1.73-.09-.24-.27 0-.41.07-.48-.64.45-.73-.03-1.37-.55.48-1.11-.47-1.06.73-.58.78-.76-.74-1.25-.48-.01-.6.35-1.32.65-.66.15-1.5-1.81.59-1.6-1.51l-.97.98c.25.47.12.8.19 1.2-.57.33-.45-.48-.6-1.14-1.05 1.41-1.53-.48-2.76-1.73-.93.92-2.28-1.42-3.57-.91-.18 1 .49.44.77.97-.36 1.06-1.56.34-2.14.09-.04-1.14.79.29.81-.82-.31-.63-.57-1.05-.53-1.55-.37.32-1.13 1.4-1.68 2.06-.62.1-.26-1.27-.62-1.81-.28-.25-1.43.7-1.09-.62-1.16.81-2.07.15-2.99-.42-.47-.85.67-1.1.2-1.95-.83.37 0 1.35-.7 1.77-.66.43-.43-1.3-.72-2.07-.41.31-.64-.42-1-.37.19-.53.17-1.14-.21-1.88-.07.31-.3.86-.49.5-.39.49.38.22.36 1.03-.46.64-.68-.18-1-.37-.36.46.35.94.52.87-.04.52-.25.96-.38 1.44-.49-.12-.38-.91-.82.15-.39-1.16.25-.71.37-1.44-.43-.77-.54.33-.8.83-.64.14-1.14-.6-1.76-.65.07-.65.58-1.14.7-1.77-.51-.52-.76-2.39-1.54-1.91-.29-1.48-.29-2.22-1.4-2.77.26.55.69.74.54 1.55-.48.47-.8.03-1.16-.21-.32.34.04.92-.46 1.18.5.08 1.24 1.57 1.5.55-.01.52.04 1.07-.37 1.44-.45-.04-.11-1.3-.91-.11-.49-.63.45-.73-.04-1.36-.11 1.32-.79 1.03-1.24.22-.44.69 0 1.06.36 1.03-.28.33-.45.04-.73.41-.06-.55-.72-1.32-.38-1.72-.2-.2-1.26.79-.84-.53-.35-.54-.94 1.66-1.46.81-.07-.4.33-.63.55-.92-.6-.37-1.57-1.95-2.01-.73-.21.11-1.04-.57-.36-1.02-1.13-.21-2.79.65-3.56 3.02-.3-.03-.56-.36-.91-.1-.39-.88.67-1.26.1-2.21.73-.64.64-.07 1 .35.7-.5.94-1.17.6-2.03-.15.17-.01.44.02.68-.44.26-.91.64-1.17-.19-.2-.7.4.06.64-.67-.19-1-.77.36-.94-.78-.55 1.99-1.71.06-2.45-1.31-.53.62-1.1 1.97-.26 2.38-.03-1.17.43-.61.82-.16.07.42-.27.32-.41.08.06 1.04 1.46.78 2.03 1.38-2.26.79-5.17-1.41-7.75-1.37-.08-.33.21-.52.39-.76-.28-.43-.59-.71-1.07.07.01-1.44-.48-.36-.87-1.21-.29-.62.98-.7.36-1.44-.67 1.24-.81.33-1.67-.36-.55.95-1.13 1.5-1.58-.1-.58.83-.88 0-1.46.83-.89-3.4-3.68-1.98-5.8-4.19-.08.96-.79 1.55-.84.17-.6.33-.53.87-.62 1.37-.19.04-.38.08-.52-.17.16-.62.1-1.31.69-1.79-.63-1.07-.46 1.72-1.11.1-.43 1.45-.58.85-1.34.69-.19-.58.2-.98.62-1.37-1.42.76-3.19-.83-4.47 1.49-.68.28-.59-.42-.99-.75-.27-.75.53-1.19.15-1.96-.57.43-.55 1.03-.52 1.63-.62-.42-.55.32-1.19.54-.23-1.25.83-2.46 1.44-2.25-.23-.4-.05-.68.06-.43-.73-1.49-1.84-3.19-3.58-1.27-.41-.71.78-.96.24-1.71-.64 1.07-1.77-.68-2.68-.78-.31.29-.22.68-.56.96 0-.37.27-.67.01-1.11-.51-.14-.2.17-.66.63-.08-.31.26-.53.12-.86-.48-1.04-1.18-.43-1.22.58-.1-.32-.23-.41-.38-.32-.1-.32.21-.54.39-.79-1.27-.37-3.08-2.46-4.12-1.06-1.1-1.5-.98.17-1.62-.82-.92 1.54-1.33 1.16-2.4 1.91.26.64.61.47.9.86-.51.67-.79-.56-1.28-.06-.11-.31.2-.55.38-.8-.88-.29-1.66-1.36-2.54-1.65-.11-.32.2-.55.38-.8-.4-.19-.79-.59-1.28-.06-.68 2.24-3.24-1.49-4.81-.18 1.64.64 3.32 1.05 4.9 1.96-.62.43-1.13-.15-1.7-.33-.34.99.72.36.92.82l-1 1.14c-.23-.4-.05-.74-.31-1.15-1.26.36-1.4 2.37-2.75 1.29-.05-.78 1.03-.75 1.44-1.29.01-.51-.29-1.07.02-1.54-.32.27-1.3 2.81-2.35 1.58-.17-.47.01-.88.42-1.25-.52-.87-1.3 1.67-2.13.96-.54-.68.51-1.09-.12-1.78-.16.12-.11.27-.04.43-.02.59-.78-.02-.7 1.2-.24-.23-1.2-.62-1.08.53-.32-.22-.72.28-1-.33.03-.8 1.12-1.47.95-2.3-.39.22-.94.51-1.42.93-.38-.48.02-.87-.48-1.37-.91.2-1.77-.21-2.65-.29-.27-.55.58-.21.83-1.01-1.09-.78-1.55 2.18-2.56.38-.31.16-.7 1.34-.96.81-.39.59.46.1.54.9l-.5.62c-.84-.87-1.8-.06-2.64-1 .03-1.11 1.28-1.19 1.67-.13.44-.51.87-.87 1.27-.81-.49.05-1.57-1.61-2.42-.13-.57-.68.25-1.29-.33-1.97-.67 1.52-2.46 1.32-3.88 1.34-.31-.81.48-.24.65-.84-.67.01-.33-.72-.86-1.32-.84.59-1.65.06-2.51.88-1.09-1.32-1.14.32-2.85 1.8.67-.15 1.36-.68 2.01-.26.33-.3.2-.58.04-.87.43-.33.84-.34 1.24-.02.35.37-.51.59-.64.44.18.7 1.63 2.62 2.4 1.29.43 1.31 2.11 1.28 3.13.79.32.64.11 1.17.74.25 1.45 1.52 2.99 1.84 4.55 1.38-.05 1.49 1.58.5 1.04 1.86.27-.43.75-.31 1.37-.51-.21-.44-.47-.24-.68-.73.31-.17.6-.16.91-.34.09.38.05.74-.23 1.07.33.74.76.27 1.09 1 .3-.26.16-.56.37-.83.29.67.58 1.23 1 .34.21.35.4.98.67.73.36.48-.82.78-.12 1.3.73-1.66 3.12-.48 3.55.76.47.59.23-.64.65-.77.15-.11.28.05.45-.15.49.59.07 1.04.55 1.63 1.05-1.2 2.79.25 4.06.95.42-.74.71-.42 1.09-.86-.59-1.1-.63.66-1.27-.06.41-.61.29-.44.03-1.54 1.05-1.21 1.77-.29 1.9.85-.46.7-.63-1.15-1.11-.24.62.16.77 1.46.2 2.03.88.18 1.68.99 2.55 1.22-.39 1.13-.21.68.4 1.41-.49.19-.91-.25-1.28-1.16-.29.38.26.93-.15 1.29.54-.2.97.55 1.49.55.41-.5-.05-1.19-.34-1.84.82-.13 1.51.7 2.42-.13.18-.55-.04-1.19.22-1.72.86-.14-.12 1.12.49 1.67.09.45-.25.12-.49.54.62 1.67 2.52 1.18 3.24 3.04 1.26-1.1 2.22.11 3.29.41.22 1.2-.86.76-1.1 1.93.7 1.07 1.2-1.17 1.12.96.34-.65.44-1.36.3-2.14 1-.26 1.89.24 2.74 1.02.51-1.57 1.34-.68 1.97-.32.09.33-.21.53-.39.78-.25.16-.39-.49-.57-.84a.58.58 0 00-.23.6l-.32.35c.41.68 1.07-.44 1.36 1.07-.39.48-.62-.14-.95-.06-.32 1.11.7.77.93 1.17-1.11 1.55.97.62 1.55 1.57.04-.68.39-1.87.94-1.72-.51.98.18 1.19.04 2.47.17-.24.31-.24.42-.09-.07-1.26.78-.84 1.1-1.89.33.28 1.24 1.85 2.17.91.38.72-.13 1.15-.26 1.71.64.77 1.31 1.06 1.61 1.85l.65-.69-.38-1.02c-.66 1.06-.92-.49-1.39-.67.74-.73 1.14.81 1.87.15-.4 2.59 1.23 1.56 2.06 3.14-.33-.41-.81.08-1.11-.6-.2 1.06.9 1.01 1.3 1.11.2-.54.24-1.11.52-1.62.74-.09.18 1.23.4 1.71.24-.39.38-.13.51.17.22-1.33.82-1.13 1.27.43-.17-1.54.26-.41 1.03-1.45.54 1.43-1.07.73-.34 2.13.46-1.5.88-.91 1.35-1.78.47 1.21-.88.77-.78 1.53.62.22.75.25 1.31-.67.43 1.11-.5.36-.45 1.19.86 1.89 1.47.23 2.64.03.22.6 0 1.04.39 1.71.7-.8 1.09.33 1.73-.06.07.62-.28 1.1-.27 1.7-.02.03-.04.03-.06.06-.2.22-.32.01-.51.19-.03-.05-.04-.09-.06-.13-.21-.49.22-.75.27-1.15-.79-.05-1.14.63-1.98-.02.49.53.91 1.47 1.53 1.21 0 .01 0 .01.01.02.3.71-.7-.17-.39.75a1.66 1.66 0 00-.35-.31c-.35-.25-.73-.37-1.09-.58-.08-.05-.17-.09-.25-.15-.15.25.07.63-.13.85-.54.28-.04-.84-.45-1.27 0 0-.01-.01-.01-.02-.01.01-.02.01-.03.02-.22.22-.39.22-.55.06-.03-.03-.06-.05-.09-.09-.01.04-.01.06-.02.1-.34 1.78-.79.35-1.37.03-.12-.06-.24-.08-.36-.02-.1.05-.2.14-.31.3a.836.836 0 01-.1-.33c-.08-.55.31-.96-.21-1.12-.22.33-.27.71-.31 1.09-.04.48-.06.97-.35 1.38.02.08.05.13.08.18.03.05.05.08.08.11.25.24.58-.07.78.48.17-.24-.03-.61-.12-.94.54-.6.87.11 1.26.43-.04.8-.46.23-.71 1.1-.41-.02-.77-.32-1.18-.25-.13.02-.26.06-.4.17-.25-.48-.03-.88-.04-1.15-.01-.13-.06-.23-.26-.29-.06.14-.13.26-.2.37-.29.48-.63.72-1 .79-1.29.24-2.93-1.56-4.16-1.82 0-.59.68-.98.52-1.63.75.41 1.49.92 2.22 1.37.24.15.48.29.72.41.24.13.48.24.73.34-.16-.51-.41-.71-.46-.94-.03-.17.03-.35.31-.67-.45.03-.9.09-1.33-.01-.02-.6.53-1.01.01-1.78-.58 1.09-.65.65-1.24.25-.41-.66.26-.96-.15-1.61-.85-.66-2.11-.2-2.77.46.06-.35-.17-.8.03-1.11.45-.48-.12 1.1.51.17-.65-1.08-1.53-.58-2.19-1.59l-1.13 1.21c-.17-.65-.11-1.23-.52-1.96-.73 1.28.13 1.51.2 2.3-.58.61-.73-1.77-1.39-.65-.49-1.04.77-1.56.12-2.64-.16.17-.01.45.04.68-1.11.46-2.02-.52-2.98-1.1-.66.77.05 1.95.54 1.94-.54.26-1.31 2.16-1.65 1.07-.12-.87.57-.09.54-.95-.12-1.03-.6.38-.72-.65-.41.74-.1 1.13-.86 1.3-.25-.52-.19-.95.18-1.28-.6-1.08-.87 1.53-1.43.47-.11-.7.89-1.08.4-1.88-.56.36-.48.91-.87 1.32-.19.05-.38.1-.53-.14.06-.7.8-.52.76-1.58-.69-.08-.44-.72-.99-1.81-1.15-1.11-2.61-.34-3.52-.47.95-1.35-2.02-1.46-2.9-2.26.19-1.13 1.25.43 1.9-.66-.96-1.35-2.22.72-2.83-.87-.17.26.07.6.17.92-.49.95-.74-.08-1.19.62-.78-2.35-2.36-.64-2.8-2.38-1.35.71-2-.58-3.18.72.5.16.13.32.46.96-1.67 1.14-1.87-1.36-1.79-3.16-.44.8-.23 1.72-.54 2.54-.58-.36-1.19-.33-1.74-.96-.15-.57.64-.42 1-.82-.38 0-2.02-1.19-2.39-.95-.31-.25-.2-1.43.08-.87.08-1.05-.56-.1-.85-.11-.17.27.09.59.2.9-1.16-.05-2.77-2.86-4.45-1.82l-.63-1.16c-.32.4-.55-.38-.89.34-1.07-2.47-2.52-.18-3.64-2.43-1.39 1.06-2.66.15-3.92-1.28.85-.66.91-1.13 1.58-1.67-1.49-.01-3.05 1.43-3.75.11-.03 1.85-1.14 2.73-.81 4.79-.73-.22-1.46-.78-2.2-1.04.01 1.93 2.71.64 2.56 2.99-.32.51-.56-.66-.85-.85-.1.89-.59.67-1.08.75-.26.04-.53.16-.74.59.09-.55.16-1.09-.12-1.63-.09-.18-.22-.35-.4-.53.01.47-.08.77-.24 1.03-.2.32-.49.57-.85.95l-.03-.06c-.45-.81-1.24-1.8-1.29-.56-.24-.26-.31-.56-.38-.8-.05-.19-.11-.34-.23-.41-.06-.04-.14-.06-.26-.05-.3-.79.07-.59.47-1.11-.65-.16-1.31-.28-1.98.38-.52-.67.57-1.5.03-2.17-.28.36-.5 2.13-1.08 1.19-.09.52-.48 1.06.14 1.51-.74.49-.74.42-.95 1.18-.03.13-.07.27-.12.44-.14.35-.27.15-.41-.09-.16-.3-.33-.68-.5-.25-.33.43-.25.63-.07.78.21.16.55.25.67.47-.31.18-.63-.13-.94-.04-.09.02-.17.06-.26.16-.31-.54.63-1.22 0-1.73-.18.96-1.07.52-.76-.14-.8 1.57-2.11 1.25-3.36.27a8.08 8.08 0 01-.47-.39c-.1.48-.46 1.06-.5 1.57zM9.38 19.11c.14-.4.03-.74.39-1.2.29.38.53.09.81.43-.37.77-.74 1.42-1.2.77zm4.01-.68c-.33-1.42-.62.29-1.25-.09-.18-1.37 2.19-1.42 1.25.09zm4.04 1.21c-.51-.51-.01-1.54-.81-1.36.99-1.74 1.26.87 2.16.89-.42 1.06-.94-.82-1.35.47zm5.17 2.53c-.04-1.12-.6-.3-.88.59-.56-1.13.91-2.95 1.61-2.25.01.83-.4 1.49-.73 1.66zm-8.01 7.71c-.25-.59-1.12.62-.92-.62.41.1 1.27-.76.92.62zm.98-.92c.32 1.17.47.14 1.05.38-.22.4.35.66.19 1.05-.71.04-.56-.79-1.15.29l-.47-.53c.13-.4.03-.73.38-1.19zm-.78 4.79c.96-.1 1.88-1.09 2.85-.7-.84 1.23-2.38 1.41-2.85.7zM17 31.44c.44-1.15.93-.95 1.43-.26-.47.2-.91 1.08-1.43.26zm5.31-.75l-.44-.57c.32-.94.66-.47 1-.4l-.56.97zM110 63.39c.48.78-.43 1.85-.7 1.1.42-.3.18-.84.7-1.1zM34 47.82c-.23-.57.63-1.4.81-.88 0 .32-.49 1.86-.81.88zM4.2 70.74c-.55-1.16-.61 1.04-1.16-.13.24-1.31 1.33-1.39 1.43-.67-.29-.15-.08.39-.27.8zm16.58-.52c.46-1.21.88-.23.95-.15-.31.12-.6.88-.95.15zm14.26-8.74c.36-.63 1.34-1.11 1.24-.01-.42-.04-.85.69-1.24.01zm1.72 14.32c.42-.88.79-.37 1.16-.01-.07.85-.8.86-1.16.01zM47.6 49.08c-.38-.18-1.46.01-1.37-.83.39.02 1.48-.26 1.37.83zm-11.63-1.5l.49.86c-.28.56-.55.77-.8.44.6-.43-.29-.86.31-1.3zm-.43 5.21c-.19-1.01.75-1.04.31-1.74.27-.38.53-.59.79-.44-.6.72-.28 2.79-1.1 2.18zm4.56.93c-.41-1.8-.47.17-.7-1.35-.66.26-2.01 1.27-2.19.19.11.14.81-.07.53-.44-.44.26-.86.14-1.27-.42.37-.78.69-.24 1.01.42.42-.66 1.15-.35 1.22-1.53.79.98 1.89-1.05 2.27 1.01.13-1.3 1.02-1.22 1.45-.57-1.25.22-1.11 1.78-2.32 2.69zm-.17 21.53c.44.61.95-.23 1.36.96-.43.53-1.4.09-1.36-.96zm5.7-20.3c-.33-.11-.45-.35-.45-.92-.95 1-1.75-.6-2.7.49-.38-.55.14-1.91-.6-.69-.41-.66-.34-2.41.35-1.72-.16.28-.29.56-.05.87.23-2.46 1.69-1.61 2.58-2.24l.57 1.12c.52-.05 1.12-1.26 1.56-.25-.33 1.35-1.51 1.42-2.13 1.08.11.31-.09.37-.28.42.42.1.78 1.03 1.21.97.72-1.16 1.43-2.02 1.98-.84-1.02-.15-.82.85-1.25 1.37.06-1.12-.48-.46-.79.34zm.1 23.19c.49-.84.86.13 1.27.38-.48.64-.87.19-1.27-.38zm3.46-24.71c-.26-.95-.6-1-1.01-.13l-.33-.69c.7-.69 1.3-.16 1.93.02l-.59.8zm.18 24.96c.09-.88.78-1.04 1.11-.51-.11 1.08-.76.71-1.11.51zm1.24-25.01c.47-.46.83.31 1.23.59-.49.61-.89.36-1.23-.59zm3.86 1.27c-.42-.92-.98-.54-1.51-.27.13.75.12 1.49-.45 2.12-.35-.38-.72-.53-1.03-1.26.44-.69.77-.03 1.23-.9-.13-.92-1.14-.6-1.15-1.5.2.21.41.21.66-.13l.53 1.19c.95-.88 1.08.07 2.1-.5-.3.39.09.9-.38 1.25zm1.66.08c-.5-.58-.56.81-1.16.02.39-.84 1.39-1.19 1.16-.02zm.47 25.37c.33.3.78-.45 1.04.46-.44 1.41-1.5-.79-1.04-.46zm2.3-24.86c.6-.03 1.15.49 1.71.83-.63.8-2.16.74-1.71-.83zm1.8 1.08c.43-.34.81-.3 1.2-.39-.29.83-.74.98-1.2.39zm3.18-5.03c-.33-.84-.94.58-1.27-.29.43-.65 1.47-.8 1.27.29zm-1.02 5.29c.27.59.6.41.25 1.16-.2-.48-.53.2-.7-.6l.45-.56zm-1.37 26.21c.38-1.36 1.35-.2 1.89.46-.7.41-1.21-.7-1.89-.46zm1.57-26.83c.24-.24.52-.77.7-.5-.09.13-.16.26-.05.43.26-.34.47-.29.66-.08-.5.6-.94.7-1.31.15zm6.48-3.02c.98-.5 1.84-.06 2.62.92-1.17-.22-1.67-.4-2.62-.92zm2.7 8.74c.43-.46.15-.78.62-.71.48.83-.38 1.82-.62.71zm5.4-5.07c-.36-.28-.33-1.44-.97-1.41.48-.93.68.12 1.13-.56.38.79.48 1.48-.16 1.97zm9.33 1.44c.58-.36 1.08-.19 1.5.5-.59.36-1.09.19-1.5-.5zm1.98 9.86l-.18-.51c-.1.09-.2.16-.25-.09.36-.93 1.08-1.36 1.53-.6-.49.83-.96.25-1.1 1.2zM49.03 92.13c.5-1.1.89-.7 1.25-.02-.14.96-.92.8-1.25.02zm11.66 4.4c.3-.25.72-1.48.88-.45.09.69-.79 1.38-.88.45zm6.02-5.94c.41-.69.71-.44.99-.17-.38.44-.76.89-.99.17zm5.07 2.39c.1-.83.67-1 .86.03-.32.24-.67.68-.86-.03zm4.44 3.62c-.62-1.93-.8-1.83-1.6-2.76.62-.6 1.45-1.29 2.26-.83.03.53-.76.8-.34 1.46.74-.43.52-1.18.88-1.73.13.51.37.36.5.84-.59 1.49-1.12 1.7-1.7 3.02zm3.84-.54c-.77.37-1.4-.16-2-.88.46-.78.45-.18.98-1.47.16.35.27.99.5.84.2-.24-.01-.6.13-.85.38.52.99-.47 1.23 1.07-.53.83-1.23-.23-.84 1.29zm3.86.64c.44-.66.77-.55.97.33-.44.65-.66-.16-.97-.33zm5.48 2.79c.6-.37 1.63-.43 1.56.78-.57.08-1.15.2-1.56-.78zm12.35 3.91c-.47.77-.95-.32-.51-.86.27.43.65 0 .51.86zm40.15 14.33c-.11-.36-.26-.49-.42-.61.09-.57.63-1.13.96-.99.34.74-.07 1.18-.54 1.6zm8.52 1.34c-.35-.49-.98.63-1.22-.49.39-.21 1.47-.49 1.22.49zm33.23 9.66c-.23-.65-.79-.02-.89.53-.16-.44-.22-.85-.17-1.2.38-.31 1.37-.36 1.06.67zm2.04 2.46c-.32-.96 0-1.67.07-2.47-.57.86-1.34.95-1.14-.25.73-.14 2.17-.37 2.12 1.34-.76-1-.57.91-1.05 1.38zm2.75-1.34c-.29-.32-.73.16-.98-.41.17-1.35 1.62-.44.98.41zm183.52 25.02c.25.73-.27 1.09-.35 1.67-.22-.45-.61-.05-.72-1.03.39-.36.62.01 1.07-.64zm24.31-24.81c-.16.77-.88.98-1.23.78.11-.56 1-1.55 1.23-.78zm-20.24-17.8c.18.82.31.88.49.23.41.95-.85 1.31-.9.49.23-.2.32-.46.41-.72zm-.93 2.54c.86-.16.99-.34 1.9-1.39.09 1.04.49.67.89.2.22 1.08.29 1.17.3 2.44.8-.53.53-1.59.52-2.5.91.92.43 2.89-.37 3.72-.54-1.93-1.98.51-2.69-.61-.26-1.1.57-.27.51-1.13-.49.33-1.22.09-1.06-.73zm.3 1.75c-.41.26-.82.53-.97-.47.43-.35.76-.19.97.47zm-4.03 21.27c.55-.44.61-1.35.98-.22-.11.62-.78 1.04-.98.22zm1.69-22.86c-.75.38-1.49.7-1.96-.25.63.21 1.5-.74 1.96.25zm-2.56 20.6c.29.41.82-.96 1.08-1.32.44.67-.07.89-.02 1.37.15-.05.26.05.32.39-.65-.06-1.14-.49-1.15 1.05-.3-.13-.36-.95-.23-1.49zm-.85-22.24c-.16-.75-.7.37-.81-.62.41-.81 1.16-.09.81.62zm-6.59 36.8c-1.27.64-2.27.64-3.13 2.17l-.31-1.07c.82-.12 2.21-2.51 3.44-1.1zm-4.08.34c.12.52.15.99-.02 1.37-.86-.17-1.82.19-2.6-.33.9-.49 1.71-.56 2.62-1.04zm-3.06-49.01c.28-.28.53-.4.74-.33.43 1.28-.8 1.76-.12 3.16-.48-.03-1.13.73-1.38-.43.78.39 1.29-.93.76-2.4zm-3.63 49.01c.81-.77 2.26-1.13 3.36-1.37.25.88-.17 1.45-.68 1.97-.69.29-1.53-.16-2.61.36-.07-.34-.25-.74-.07-.96zM346 104.05c-.26.78-1.35 1.23-1.73.56.73-.89 1.19-.54 1.73-.56zm-23.15-5.95l-.66.61-.24-.8c.46-.72.64-.07.9.19zm-1.07.64c-.6-.36-1.31-.12-1.79-1.07.78-.56 1.4-.31 1.79 1.07zm-2.04-.5c-.31-.87-1.03.26-1.38-.43.6-.94 1.63-.63 1.38.43zm-13.08 68.36c-.23.46-.42.77-.66.61.18-.22.05-.59-.07-.95.35-.38.59-.27.73.34zm-2.09.84c.44-.7.53-.63 1.04-1.56.2.86-.15 1.45-.19 2.2-.08-.2-.2-.19-.33-.14-.25.09-.54.36-.64-.31.05-.08.08-.13.12-.19zm-.82-2.21c-.8.55-.34.78-.09 1.16.13.19.2.41.05.73-.08.18-.23.38-.48.62-.01-.03-.01-.04-.01-.07-.18-.86-.15-1.03-.46-1.26-.05-.04-.09-.07-.16-.12.22-.54.71-1.95 1.15-1.06zm-2.75 1.39c-.01-.06 0-.11-.03-.18.69.1.97-1.69 1.64-1.52-.01.55.01 1.12-.16 1.6-.09.24-.21.47-.43.64-.06-.16-.12-.37-.18-.51-.06-.12-.12-.2-.22-.14-.03.04-.05.1-.07.16-.2.52-.29 1.76-.75 1.29 0-.48.29-.82.2-1.34zm-3.94-74.66c-.6.54-.86-.61-1.39-.42.61-.6 1.04-.29 1.39.42zm-14.46-3.94c-.52-.68-.64.79-1.06-.03-.03-.53 1.49-1.3 1.06.03zm-2.45-1.81c.49-.43.8.04 1.14.3-.13.73-.62.28-1.15 1.07-.34-.61.17-.84.01-1.37zm-13.32-4.95c.2.63 1.23.48.9 1.55-.34-1.26-1.4.2-.9-1.55zm-2.95-1.33c.27.47.64.38.82 1.28-.68.74-1.2.65-1.72.6l-.24-.79c.78-.17.63-.03 1.14-1.09zM257 77.51c.16 1.1 1.19.71.57 1.86-.07-.83-.94-.99-.57-1.86zM228.22 66.8c.29.33.77-.3.91.85-.39.54-1.23-.04-.91-.85zm-12.11 68.55c.41 1.04 1.21.13 1.7.74-.56.44-1.01.93-.97 1.62-.26-.7-.75-.2-1.05-.68.95-1.08-.2-.97.32-1.68zm-1.62.88c-.4.49-.73.58-.89-.16.4-.48.72-.58.89.16zm-.89-1.52c-.27.41-.23.96-.65 1.31-.18-.71.18-2.19.65-1.31zm-2.44-1.06c.22.43.55.32.73 1-.23.17-.16 1.55-.57.9.35-.45.16-1.08-.24-.79.03.47-.05.89-.24 1.27-.16-.52-.54.09-.65-.74.73-.38.24-1.28.97-1.64zm1.03-73.09c.2.45.22-.41.41-.06-.4.47.37.24.33 1.05-.34.58-1.05-.45-.74-.99zm-7.03 74.13l-.33-1.05c.56-.82 1.02.65.33 1.05zm-1.87-2.64c-.19.3-.19.68-.56.89-.12-.97-.51-.56-.73-1 .52-.44 1.01-.75 1.29.11zm1.42-71.47c.06.41-.07.73.17 1.21-.68.56-1.3.76-1.65-.46.66.17 1.36-.19 1.48-.75zm-7.59 69.3c.43.76 1.96-.63 1.79.98-.56-.35-1.91.7-1.79-.98zm5.01-73.34c-.51 1.37-1.26.85-1.81.37.72-.71 1.38-1.16 1.81-.37zm-.8 2.16c-.85.76-1.49.37-2.06-.41.83-.66 1.32.55 2.06.41zm-2.39-.09c-.16-.34-.41-.19-.58-.48.21-.21 0-.6.16-.84.1.17.24.17.41-.06.24.56.28 1.04.01 1.38zm-.09-1.63c-.33-.62-.89.01-1.16-.94.44-.43 1.42-.06 1.16.94zm-1.42-2.42c-.52.87-.7-.04-1.07 0 .03.24.16.52.01.69-.12-.36-.11-.65-.09-.95.4-.01.87-.36 1.15.26zm-4.19.28c.51-.36.82.39 1.24.52-.61.88-1.43.74-1.24-.52zm-1.19-3.66c.2.46 0 .76.18 1.21.16-.16.12-.4.24-.58.45.72.05 1.08-.4 1.43-.13-.28-.21-.77-.42-.62.07.33-.16.54-.4.74l-.25-.8c.83-.66.67-.43 1.05-1.38zm-1.29 1.96c-.21.29 0 .76-.07 1.1-.87.62-1.54.15-2.15-.65.5-.4.31-1.08.81-1.48.43.56.99.41 1.41 1.03zm-1.34-2.13c-.11.18-.12.41.01.68.21-.16.41-.3.5.21-.71-.04-1.43.04-1.98-.82.73.06.95-.28 1.47-.07zm-1.23.85c.44 1.17.22 2.06-.13 2.89-.11-.37-.26-.5-.42-.62.42-.66-.21-1.75.55-2.27zm-2.41-2.12c.47.64 1.81.31 1.75 1.4-.32-.46-.78-.1-1.15-.25.12.53.37.4.5.89-.41.24-1 .3-1.14 1.12-.1-1.1-.07-2.15.04-3.16zm-4.1.59c.43-.2.84-.2 1.08.67-.5.56-.85.26-1.15-.24.08-.12.17-.24.07-.43zm-3.08-2.17c-.16.39.46.69.5.89.21-.29.14-.7.32-1.01.69.09.7 1.33.03 2.05-.63-.46-1.34-.48-1.91-1.23.57-.27.84-.78 1.06-.7zm-4.54-1.4c.14.92.67-.24.75.98-.43.33-1.27-.27-.75-.98zm-.16-5.04c.24.55.29 1.02.02 1.37-.13-.28-.22-.77-.42-.62-.15.07-.32.31-.41.06l.81-.81zm-1.78 1.78c.1.42.38.91.18 1.21-.5-.9-.81-.79-1.23.19-.18-1.36.52-1.19 1.05-1.4zm-2.4-.04c-.76.51-1.36.16-1.98-.11.74-.38 1.49-.84 1.98.11zm-1.12 1.81c.62-1.52.6.19.99.39-.12-1.24.63-1.79.95-2.34.45 1.16-1.06 1.54-.62 2.7.19-.3.19-.68.56-.91.19.06.84 1.1.52 1.57-.58-1-3.9 1.89-2.74-1.09-.5-.21-1.82.29-1.67-1.11.45-.71 1.91-.39 2.01.79zm-2.47.38c-.51.35-.92.19-1.24-.5.59-.79.91-.13 1.24.5zm-3.99 17.88c.44.76.63-.71 1.3-.61.5 1.53-1.67 2.37-1.3.61zm-5.98.11c-.44.25-.9.61-1.15-.23.5-.59.87-.47 1.15.23zm-2.24-6.09c.48 1.02-.28 1.55-.78 2.18-.15-.4-.48.21-.58-.46.69-1.23.79-.28 1.36-1.72zm-1.62.94c.47 1.53-1.2 1.85-1.46.79.21-.3.13-.7.31-1.01.83.16.3 1.75 1.15.22zm-2.5-1.63c.57-.54 1.22.95 1.55-.54l.35 1.04c-.46.68-.66.02-.81.82-.62-.81-.99-.96-1.39.37-.46-.63.04-.89-.03-1.37l-.81.82c-.41-1.45.32-1.85-.62-2.5.63.03 1.77.14 1.76 1.36zm-1.91 3.33c.23.43.69-.43.83.55-.38.84-1.16.19-.83-.55zm-13.41 13.38c.88-.62.85-.7 1.1-1.83.13.77.38.87.74.28.28 1.48-1.26 2.53-1.84 1.55zm1.03-20.6c.1-.63.82-.88 1.07-.05-.41.3-.79.44-1.07.05zm4.14-13.32c.46-.22.27-1.82.88-1.24-.28.34.2.98.03 1.37-.4.5-.73.61-.91-.13zm-.18 17.99c.11-.67.78-.63 1.07-.04-.47.64-.77.35-1.07.04zm1.74-1.35c-.12-.05-.24-.11-.37-.19-.47-.3-.95-.76-1.35-.93.42-.29.19-.83.71-1.08.39 2.06 1.35.85 1.93 1.87-.23.44-.56.47-.92.33zm3.55-.91c-.52.72-.91.62-1.23.21.15-.78 1.03-1.44 1.23-.21zm-2.27-17.58c-.4.5-.73.61-.91-.12.4-.5.73-.6.91.12zm-.16 15.52c-.8.47-.43.39-.88 1.25-.38-.08-1.42-.18-.85-1.23.54 1.42 1.08-1.3 1.73-.02zm-1.16-19.41c-.11.32-.72.84-.7 1.77.37-.32.57.3.77.97-.72.34-1.57 1.38-2.05.34 1.11-.67.97-4.51 1.98-3.08zm-3.04.65c.24.66.78-.43.92.81-.36.55-1.22.01-.92-.81zm1.03 1.74c-.61.97-.91.16-1.32-.05.46-.06.99-.61 1.32.05zm-4.49 12.28c.6 1.39 2.27.66 2.43 2.06-.69-.76-2.85.14-2.43-2.06zm-3.24-1.21c.51 1.15 1.5-.52 2 .73-.59-.24-2.55 1.19-2-.73zM39.68 2.59c-.68-.25-.57.38-1.54.01.24-.69.54-1.24.99-1.32-.32.94.61.41.47-.21.38.52.19 1.02.08 1.52zm8.53 1.12c.54.14 1.89-.22 1.86.86-.64-.03-1.28-.04-1.86-.86zm3.97 2.19c-.28-.37-1.31-.59-1.06-1.43.33-.33 1.3.68 1.06 1.43zm8.47 4.13c.6-.65 1.25-1.72 1.68-.8-.6.65-1.19 1.2-1.68.8zm2.78-1.66c-.11-1.13-.5-.72-.97-1.53.98-.01 1.99-2.21 2.34-.38-.85.17-.89 1.09-1.37 1.91zm1.69-2.28c.53.7.2 1.22.64 1.9-.44.45-.79.2-1.17.19.35-.66.09-1.45.53-2.09zm-.43 4.98c.25-.4 1.14-.24.99-1.11-.19-.94-1.32.03-1.01-1.1.51.09 1.06-.1 1.45.98-.31.3-.27.67.01 1.11-.54.44-1.01.47-1.44.12zm2.36-1.92c-.43 0-.82-.31-1.18-.92.48-1.07 1.35.58 1.18.92zm4.68 3.33c-.55-.34-.43-1.61-1.3-.78-.15.72.74.74.22 1.61-.54-.12-.81-.59-.92-1.57.88-1.03 2.4-1.19 2.5.2-.26-.35-.19.29-.5.54zm2.11.99c-.26-.14-.5-.43-.7-1.07.43-.42.8-.33 1.09.28-.23.24-.31.51-.39.79zm.91 1.57c.46-.63.69.45 1.02.71-.51 1.02-.73-.06-1.02-.71zm-.48-6.79c.74-.29 1.47-.35 2.02.75-.74.21-1.35-.49-2.02-.75zm4.31 9.19c.04-.25.53-1.42.81-.87-.13.55-.33 1.62-.81.87zm-.89-4.49c.3-.88.97-.27 1.47-1.58.67.72-.67.85-.35 1.46.29.54.84-.68 1.06.31-.84.79-1.49.16-2.18-.19zm4.15 3.88c-.51-.95-.03-2.35.48-2.3.18.87.05 1.64-.48 2.3zm1.63 4.74c-.13-.31-.34-.13-.45-.59l.81-.86c.3.62-.09 1.01-.36 1.45zm.34-5.03c-.01-1.41-.61-.45-1.03-1.42.7-.64 1.11.57 1.8-.12.16.46.34.76.56.85-.71.31-.71-.61-1.33.69zm2.87 2.69c-.18-.29-.42-.24-.55-.85.62-.13.49-.92 1.01-.35-.33.36.05.92-.46 1.2zm1.23-.94c-.6-1.74-2.41-.26-2.57-1.94.75.34 3.02-.34 2.57 1.94zm3.55 1.6c.21-.31.12-.71.3-1.02.17.91.62.02.8.94-.42.3-.81.47-1.1.08zm5.4 3.16l.96-1.01c.18 1.35.81-.11 1.03 1.03-.75.5-1.36.19-1.99-.02zm3.88 12.15c.09-.49.03-1.04.62-1.35.54.81-.26 2.14-.62 1.35zm.26-2.39l-.28-.77c.43-.76.64-.13.91.1l-.63.67zm2.34 5.07c-.1-.21-.16-.43-.13-.69.51-.53.56-.06.68.47.08.33.18.67.43.82-.33.14-.77-.15-.98-.6zm.86 2.39c-.02-.01-.05-.02-.07-.03-.16-.1-.24-.34-.11-.74.25.61.57-.5.64-.68l.36 1.03c-.21.36-.58.51-.82.42zm2.38 4.61l-.27-.77c.09-.12.17-.21.26-.28.23-.2.42-.16.57.17.03.07.06.11.09.2l-.65.68zm6.07-6.4c.07-.48.71-.87 1.05-.75-.34.59.54.37.61 1.11-.66.56-1.14-.02-1.66-.36zm4.21 27.19c.24.63.58.49.2 1.2-.55-.19-.17-1.02-.62-1.8-.72.88-.98-.95-1.72.05.3.31.67.19.85 1.21-.35.51-.51-.11-.89.58-.4-.48.37-1.62-.28-1.46-.44.36.22 1.13-.37 1.44-.27.05-.49-.24-.67-.7.13-.63.74-1.08.69-1.77-.31.03-.52-.59-.76-.96 1.78.36 3.56.76 5.14 2.34-.77 1.37-.88-1.12-1.57-.13zm-.56-26.78c.1.41.39.89.2 1.2-.52-.61-1.31.42-1.68-1.07.75-.43.95.63 1.48-.13zm.04-9.89c.33-.14.83-1.29 1.05-.74-.08.56-.8 1.44-1.05.74zm.82 14.25c.15.46.31.77.52.87l-.32.34c.05.16.08.33-.07.42-.53-1.22-.32.85-.71 1.09a.41.41 0 00-.14-.15c-.23-.15-.5-.01-.63-.8.7-.5.82-1.2 1.35-1.77zm1.65 24.93c-.52-.82.6-2.03.87-1.26-.25.93-.77-.11-.87 1.26zm.99.37l-.26-.78c.57-.53 1.19-1.37 1.54-.56-.16.94-.74.43-1.28 1.34zm3.91-23.34c-.39.11-1.35.2-.77-.96.06 1.09 1.17-.18.77.96zm2.85 25.38c.51-.73.89-1.34.2-1.95.49-.29.87.05 1.17.88-.51.63-.81 2.23-1.37 1.07zm3.89-22.9c-.04.03-.06.08-.09.11-.18.19-.3.39-.38.61-.02.07-.06.13-.08.19l-.08-.23-.1-.28c.12-.27.16-.5.17-.7.03-.52-.22-.89-.63-1.27.87-.72.83.39 1.19 1.57zm-1.78 1.15c.51 1.17 1.31.6 1.85 1.58-.88.72-2.15-.31-2.33-1.08.17.35.4-.19.48-.5zm.46 4.08c.06.15.09.33.06.61-.38-.2-1.18-.26-1.48-.82-.09-.17-.14-.39-.12-.67.34.58 1.29.21 1.54.88zm-1.16-7.42c.1.08.2.15.29.26-.21.09-.45.12-.7.13-.38.01-.79-.06-1.2-.14-.42-.08-.84-.18-1.24-.24.04.21.09.43.12.64.05.34.04.67-.24.89.05-.61.01-.87-.08-1.01-.14-.23-.43-.08-.74-.42-.07-.08-.14-.17-.21-.31.29-.32.52-.46.7-.69.06-.08.11-.17.15-.27.1-.24.16-.58.17-1.14.39 2.42 1.92 1.46 2.98 2.3zm-2.12-16.17c-.11.41-.31.79-.71 1.09-.16-1.14-.65-.33-.86-1.22l.32-.33c.24.97.66.03 1.25.46zm-2.51-4.07c.63.5 1.45-.2 1.93 1.16-.69-.04-.71 1.43-1.29 1.33-.61-.7.34-1.95-.22-1.88-.27.43-.03 1.04-.62 1.35-.25-.77.04-1.34.2-1.96zm.76 3.43c-.56.7-.96.46-1.32-.03.45-.08.98-.62 1.32.03zm-2.28 13.58c-.45.31-.86.4-1.23.22.28-.25-.99-.52-.29-1.46.48.58 1.03.8 1.52 1.24zm0-15.09c-.26.27.16.81-.05 1.1-.26-.56-.73.1-.93-.79.39-.44.76-.85.98-.31zm-.18 8.26c-.55.13-1.03-.19-1.57-.13.13-.57 1.7-.93 1.57.13zm-2.66-9.53c.53.79 1.24.54 1.77 1.33-.84.23-1.5-.59-2.26-.82l.49-.51zm1.03 16.14c-.25.51-.19 1.13-.03 1.79.2-.9.25-.96.8-.83.22.45-.04.73-.05 1.1.45-1.05.33-.27.82-.15-.22-1.01.59-.92.82-.15-.11.73-.62.33-1.12 1.16-.83-.55-.78-1.2-1.32-.04-.48-.15-.47-.92-.29-1.46-.94.62-2.22-.15-2.6-1.63a3.39 3.39 0 01-.1-.48c.11.17.24.32.36.44.87.88 1.97.72 2.71.25zm-1.7-16.16c-.22.22-.31.49-.39.76-.23-.53-1.21-.64-.95-1.48.36.79 1.04-.36 1.34.72zm-3.03-1.77c.63-.43 1.37-1.4 2.06-.39-.42.7-.62.04-1.05.74.25.62.59.49.2 1.19-.34-.4-1.44-.31-1.21-1.54zm-.45 16.29c.01-.01.01-.02.02-.03.04.03.08.03.12.05.29.13.59.14.87.32-.53.59-.67 1.39-1.21.9.3-.33-.14-.93.2-1.24zm-1.4-17.16c.52 1.11 1.33-.76 1.72-.75.36 1.28-.4.86-.85 1.95-.11-.94-.52-.08-.83.16-.25-.54-.3-1-.04-1.36zm-4.42 12.38c.34.37.82-.13 1.09.61-.33.06-1.39.52-1.09-.61zm-.21-6.82c-.4.52-.72.64-.91-.09.39-.51.72-.63.91.09zm-3.13 5.42c.32.48.77.13 1.09.61-.1.12-.23.21-.38.26-.26.09-.53.05-.67-.17-.1-.15-.13-.37-.04-.7zm.86 3.22c.4-.37.75-.79 1.09-1.41.28 1.19.94 1.24 1.65 1.07.58-.14 1.2-.42 1.68-.35-.18.39-.93.57-.71 1.1.56-.45.98-.05 1.55-.58-.13-.28-.49-.28-.27-.77.35.88 1.69-.13 1.52 1.21-.42-.64-1.28.1-1.4 1.08-.03.23-.02.46.05.69.1-.5.34-.66.6-.65.43.02.94.52 1.1.97.04.11.05.21.05.29l-.06-.03c-.18-.09-.43-.27-.7-.39-.45-.22-.89-.24-.88.68 0 .03-.01.04 0 .08a.38.38 0 01.17-.04h.02c.16.01.3.14.41.47-.49.36-.76-.03-.96-.6-.13-.37-.23-.82-.32-1.2-.08-.34-.17-.63-.28-.77l-.61.64-.18.19-.01.01s0-.01-.01-.01c-.75-1.6-1.75-1.7-2.77-1.64-.2.73-.51 1.29-.8 1.6-.11.12-.21.21-.3.26.2-1.67-.56.41-.93-.78.48-.43.91-.75 1.3-1.12zm-2.05-4.09c-.21-.33-.58.31-.68-.69.36-1.04 1 .22.68.69zm-.8.85c.1.35.22.56.36.7.4.4.9.12 1.26.77-.47.75-.14 1.61-.94 1.69-.51-.78.04-1.18.03-1.79-.42.13-.75-.28-1.23.24-.14-.28-.14-.51-.09-.73.08-.34.32-.62.61-.88zm-.13-9.03c-.1.63-.82.89-1.07.07.46-.65.77-.37 1.07-.07zm-4.34-1.07c.47-.2 1.08-1.24 1.39-.41-.52.54-1.09 1.29-1.39.41zm1.33.01c.67-.07 1.28.3 1.85.87-.66.22-1.85.39-1.85-.87zm.16 9.71c-.2.53.02 1.21-.03 1.79-.39.53-.6-.1-.84-.52.4-.26.59-1.71.87-1.27zm-1.2 2.25c.02-.12.05-.23.11-.39.23 1.04 1.45.22 1.27 1.12-.31-.03-1.06.19-1.32-.17-.09-.11-.11-.29-.06-.56zm-11.52 1.01c-.26-.97-.12-1.37-1.11-2.37 1.04-1.05 1.63 1.2 1.11 2.37zm.06-6.47c-.78.79-.43-.35-.9-1.18.53-.86 1 .54.9 1.18zm-1.54 1.3c.2.73.81-1.2.93.07l-.8.86c-.09-.32-.31-.68-.13-.93zm-.59 17.7c.5.47 1.23-.58 1.6.76-.59.69-.99.18-1.54.6-.27-.53-.32-.99-.06-1.36zm.33-17.78c-.98.57-1.82.18-2.63-.39.42-1.98 1.86-.57 2.63.39zm-2.37-3.89c.85-.24 1.09.7 1.51 1.6-.09.14-.13.3-.19.46-.07.18-.15.35-.36.49-.18-.27-.22-.49-.21-.69.01-.31.12-.59.05-.92-.36.31-.61.48-.81.67-.24.23-.4.51-.54 1.14-.42-.12-.26-.69-.31-1.26 0-.06 0-.12-.01-.18.46-.66.76-.31 1.15-.52-.13-.3-.5-.29-.28-.79zm-1 2.15c-.47.75-.72.04-1.09.09.15-.99.83-.97 1.09-.09zm.23 2.97c.55-.67.98-.53 1.28.41-.65.88-.64-.42-1.06.78-.18-.43-.26-.83-.22-1.19-.61 1.09-1.62.17-1.47-.91.38 1.06 1.15-.53 1.47.91zm-4.57 12.88c.78-.78 1.39-.41 1.99-.06-.76.69-1.38.41-1.99.06zm2.66-17.27c-.4-.04-.99 1.21-1.27.3.49-.55.92-.67 1.27-.3zm-2.54-1.2c.25.15.48.45.66 1.08-.5.9-1.13-.53-.66-1.08zm-3.01 1.13c.22 1.01.6.87.92 1.16-.62.27-.37.37-.96 1.05-.12-.89-.25-1.28-.88-.48-.19-.42-.28-.81-.24-1.17.46-.7.77-.34 1.16-.56zm-2.06-3.9c-.3-.53-.76.16-1.01-.71.37-.62 1.25.12 1.01.71zm-1.26-1.88c.53.53.13 1.92-.33 1.47.45-.4-.29-1.11.33-1.47zm-1.27 5.16c.12-.24.28-.48.53-.68.59 1.04 1.45.03 2.12.55-.14.32-.29.51-.44.63-.15.06-.29.11-.44.18-.39.03-.82-.2-1.32-.3-.06-.01-.12-.03-.19-.04-.18.28-.17.76-.42.11.04-.15.09-.3.16-.45zm.49 3.74c-.39.55-.67.25-.89-.46.39-.55.67-.24.89.46zm-2.91-9.19c-.57.54-1.12.84-1.51-.12.58-.53 1.03-.08 1.51.12zm-2.57 18.41c.68-.79 1.87-.13 1.85 1.13-.4-1.35-1.13-.12-1.7-.22.3-.54-.35-.14-.15-.91zm-2.08-1.57c-.38.56-.66.27-.89-.42.38-.56.66-.26.89.42zm-1.16-19.46c.33 1.19.84.8 1.21 1.59-.59.68-.94-.65-1.61.75-.21-.67-.53-.19-.72-1.04.7-.6.54-.42 1.12-1.3zm-4.01-.53c.58 1.21 1.44-.29 2.01 1.01-.15.95-2.58.29-2.01-1.01zm-2.92 17.94c.62 1.14-.67 1.58-1.03.92.38-.76.64-.15 1.03-.92zm-9.6-7.19c.48-.79 1.54.11 1.45.82-.47-.35-1 .02-1.45-.82zm1.56-5.58l-.52.67c-.16-.29-.37-.06-.52-.5-.02-.31.09-.6.27-.83.38-.5 1.07-.74 1.49-.28l-.72.94zm-1.35-1.74c.3-.89.32-1.84-.38-2.29.04-.79.52-.52.91-.8.16 1.32 1.02.5 1.62 1.06-.74 1.22.61.07.74 1.39-.64.41-1.17-.63-1.8-.43-.29.28-.5.65-.67 1.03-.52 1.16-.65 2.43-1.51 1.84.4-.32.84-1.04 1.09-1.8zm-.3 12.55c.22.39.34.77.33 1.13-.6.15-1.22.71-1.74-.35.52-.97.89.24 1.41-.78zm-16.4-13.8c.15-.31-.07-.57-.28-.84.74-.59 1.46.68 2.2.02-.63.97-1.04.81-1.92.82zm1.81-2.76c.34.31.68.06 1.01.63-.43.78-1.46.34-1.01-.63zm1.09 3.43c-.42-.46-.87 0-1.29-.61.37-.8 1.44-.35 1.29.61zm-6.4 8.77c.42-.11.85-1.54 1.28-.77-.43.71-.85 1.64-1.28.77zm2.26-.21l-.42-.61.43-.69c.26-.46-.37-.84.01-1.3.28.94.58-.59.85.35-.44.76-.32 1.47-.87 2.25zm3.3-2.68c-.42-.16-.84-.68-1.27-.98.62-.2 1.26-.9 1.88-1.2-.28.37-.21.73.12 1.08l-.73 1.1zm3.07.81c-.19-1.56-.93-.05-1.53-.62.41-1.97 1.99-1.06 1.53.62zm-1.01-9.31l.61-.88c.3.35.14.72.4 1.08-.35.64-.69.42-1.01-.2zm.52 2.16c0-.57.53-1.33.91-1.32.63.42-.38.88.25 1.3-.41.53-.79.54-1.16.02zm2.67 8.85c-.35.57-.69 1.1-1 .66.16-.29.31-.58.03-.87-.53.44-.2.87-.6 1.31-.62-.78.34-1.6.5-2.39.51.19.12 1.37.53.86.26-.51-.07-1.02.2-1.53l.53.86c-.22.38-.54.74-.19 1.1zm.81 4.12c.62-.67 1.21-.41 1.77.25-.63.85-1.22.81-1.77-.25zm3.18-8.6c-.28-.85-.66.14-.95-.7l.61-.84c.14.51.46 1.03.34 1.54zm2.8.15c-.52.11-1.06.48-1.55.14.57-1.03 1.05-.38 1.55-.14zm-.58-11.57c.29-.01.82.96.34 1.54-.35-.53-.67-1.05-.34-1.54zM39 10.41c-.29.44.35.86-.06 1.3-.72.28-.64-1.65.06-1.3zm.08 1.51c.32.36.06.72.1 1.09.26-.35.46.49.72.25-.25-.37-.39-.74-.39-1.1.57-.67.92.1.79-1.05.35.03.7-.2 1 .69-.22.46-.61.21-.48.63.49 0 .97.22 1.44.51-.63.77.05.26.24.88-.39.87-.66-.45-1.03.17.42 1.22.93.76 1.38 1.38.1.39.55 1.88-.23 1.51.35-.81-.54-.3-.66-1.12-.65 1.27-1.15-.27-1.76.35-.38-1.06-.66-1.36-1.39-1.34-.26.37.29.72.1 1.08-1.27-1.18-.5-2.1.17-3.93zm-2.14 8.72c.74.82 1.56-.39 2.29.41-.76-.2-1.6 1.43-2.33.46.2-.29-.1-.57.04-.87zm.06 5.65c-.26 1.1-.53 1.71-1.31 1.11.94.02.37-1.27 1.31-1.11zm-.7-8.02c.21-.59-.92-1.14-.23-1.73.73-.03-.03.92.67 1.51l-.77 1.1c-.15-.51-1.02-.25-.69-1.07.35-.25.68.28 1.02.19zm-6.72-1.88c-.09-.5.28-1.04.47-1.56.41-.23.81-.26 1.2-.12.15.64-.09 1.31-.19 1.97.31-.69.61-.99.9-1.13.37-.18.74-.12 1.11-.22.03-.01.06-.01.09-.02.59 1.51 1.18 1.25 2.15 1.9-.48 1.14-2.02.3-2.94.06.25.36.25.72.12 1.08-.88.03-1.12-.34-.71-1.07-.69.28-2.81 1.29-3.41-.78.74.53.55-.25 1.21-.11zm-2.27 4.77c.29-.68.17-1.31.16-1.96.3.4.6-.37.88.35-1.19 1.65 1.06.64.72 1.88-.59-.58-1.95.98-2.05-.67l.29.4zm-1.18.55c.3.27.32-1.07.88-.09l-.59.93c-.14-.28-.43-.53-.29-.84z" fill="#bce4e5"/></svg>