<svg version="1.1" id="Слой_1" xmlns="http://www.w3.org/2000/svg" xmlns:xlink="http://www.w3.org/1999/xlink" x="0" y="0" width="41.64" height="50.98" xml:space="preserve"><style>.st0{clip-path:url(#SVGID_2_)}</style><defs><path id="SVGID_1_" d="M0 0h41.64v50.98H0z"/></defs><clipPath id="SVGID_2_"><use xlink:href="#SVGID_1_" overflow="visible"/></clipPath><path class="st0" d="M3.82 25.22c5.33-.44 10.67-.87 16-1.33 2.62-.23 5.23-.48 7.84-.82 2.67-.35 5.33-.85 8.02-1.04 1.26-.09 3.07-.38 3.84-1.53.72-1.07-.62-1.56-1.51-1.5-5.63.4-11.2 1.43-16.83 1.92-5.49.48-10.99.92-16.49 1.38-.97.08-3.1.71-3.32 1.86-.25 1.25 1.76 1.11 2.45 1.06"/><path class="st0" d="M0 25.79c.15 3.1.36 6.2.63 9.29.21 2.3.45 4.63 1.14 6.84.73 2.31 1.97 4.43 3.89 5.94 2.06 1.61 4.58 2.51 7.15 2.9 6.12.93 11.76-1.39 17.36-3.55 2.63-1.01 5.37-1.96 7.83-3.34 2.32-1.3 3.78-3.17 3.62-5.89-.19-3.19-1.11-6.3-1.61-9.45-.49-3.08-.03-6.38-1.1-9.34-.79-2.18-6.55-.52-5.8 1.55.83 2.28.62 4.68.82 7.06.21 2.52.81 4.99 1.28 7.47.22 1.13.41 2.26.53 3.41.09.89.21 1.92-.48 2.61-.53.52-1.28.76-1.96 1.04-1.24.52-2.48 1.02-3.73 1.52-2.22.88-4.45 1.74-6.7 2.53-2.08.72-4.12 1.22-6.33 1.03-4.43-.38-7.76-2.99-9.04-7.23-.68-2.24-.91-4.59-1.11-6.91-.27-3.01-.47-6.03-.61-9.05-.06-1.28-2.6-1.01-3.32-.82-1.12.33-2.52 1.06-2.46 2.39"/><path class="st0" d="M23.83 29.07c-.14-.68-.85-1.06-1.46-1.22-.48-.13-1.1-.15-1.59-.09-.6.08-1.21.23-1.77.47-.68.3-1.33.73-1.92 1.18-.5.38-.92.7-1.27 1.23-.08.12-.12.23-.17.37-.05.12-.11.24-.14.37-.06.25-.03.54 0 .79s.13.49.21.73l.26.8c.17.51.66.79 1.16.92.34.09.68.12 1.02.09.39.01.78-.05 1.15-.16.68-.2 1.43-.49 1.92-1.02.33-.35.71-.85.54-1.38-.09-.28-.18-.56-.27-.83-.09-.27-.19-.54-.2-.82l.01.46c0-.12.02-.23.07-.35-.06.16-.13.31-.19.47.03-.06.07-.12.11-.18-.12.15-.24.3-.37.45.08-.1.17-.18.27-.26-.17.14-.35.27-.52.41.39-.31.81-.6 1.25-.84-.22.12-.43.23-.65.35.05-.03.11-.05.16-.07-.25.09-.5.18-.75.26l.11-.03c-.26.05-.52.1-.79.15.04-.01.08-.01.12-.01-.25.01-.49.01-.74.02.03 0 .06 0 .09.01l-.65-.1c.03.01.06.01.09.02l-.54-.21c.04.02.08.04.12.07-.13-.1-.26-.21-.4-.31.04.03.06.06.09.1-.07-.14-.15-.27-.22-.4.02.04.03.08.05.12.06.25.2.43.42.56.21.19.45.31.74.36.34.09.68.12 1.02.09.39.01.78-.05 1.16-.16.68-.2 1.43-.49 1.92-1.02.37-.4.67-.83.55-1.39"/><path class="st0" d="M21.94 27.82c-.06 0-.11.01-.17.01-.28.03-.6.08-.88.16-.63.17-1.09.41-1.63.76-.26.17-.49.4-.71.62-.15.15-.26.32-.38.5-.11.17-.24.34-.32.53-.12.27-.2.58-.28.86-.1.39-.05.8-.01 1.2.04.43.22.79.42 1.17.05.1.11.19.19.28.19.22.41.44.65.6 1.45.95 3.31.74 4.83.1.34-.14.65-.35.95-.54.14-.08.26-.18.39-.28.37-.32.74-.66 1.07-1.03.09-.1.17-.21.25-.33.19-.27.39-.55.54-.84.14-.28.22-.6.3-.9.03-.12.05-.24.05-.36 0-.28-.01-.57-.07-.84-.04-.2-.14-.38-.23-.56-.1-.19-.17-.36-.32-.51-.15-.16-.32-.32-.5-.46-.14-.11-.31-.18-.46-.25-.42-.21-.77-.3-1.24-.39-.37-.07-.75-.05-1.12-.06-.16 0-.31.01-.46.03-.39.05-.8.11-1.18.22-.77.23-1.5.55-2.14 1.02l-.15.12c-.21.18-.43.37-.62.59-.17.2-.31.43-.45.65-.03.05-.06.11-.09.17-.09.22-.17.47-.22.7-.01.07-.02.13-.02.19-.01.27 0 .6.1.86.28.75.87 1.35 1.66 1.57.74.2 1.46.23 2.2.03.39-.09.75-.25 1.07-.47.32-.16.59-.38.82-.66.34-.44.67-1.04.48-1.62a1.83 1.83 0 00-1.22-1.17c-.05-.01-.09-.03-.13-.05.19.09.37.19.56.28-.04-.02-.08-.05-.12-.08l.42.39a.98.98 0 01-.17-.23c.08.16.16.33.24.5a.94.94 0 01-.08-.33c.01.18.02.37.04.55 0-.08.01-.16.03-.24-.06.18-.11.37-.17.55.03-.11.08-.2.14-.3-.12.17-.23.35-.35.52.06-.09.14-.17.22-.25l-.5.47c.1-.09.2-.16.32-.23-.21.13-.43.26-.64.39.13-.08.26-.14.4-.19-.25.09-.5.18-.75.28.17-.06.34-.11.51-.14-.26.05-.53.09-.79.14.18-.03.35-.04.53-.04-.25 0-.5-.01-.75-.01.13.01.25.02.38.04l-.67-.15c.1.02.2.06.3.1-.19-.09-.37-.19-.56-.28.09.05.17.1.24.16l-.42-.39c.09.09.15.18.21.28-.08-.17-.16-.33-.24-.5.08.16.12.32.13.5-.01-.18-.02-.37-.04-.55.01.18-.01.35-.06.53.06-.18.11-.37.17-.55-.06.2-.16.39-.27.56l.35-.52c-.2.3-.45.57-.71.81.17-.16.34-.31.5-.47-.17.16-.35.31-.56.43.21-.13.43-.26.64-.39-.11.06-.22.12-.34.16.25-.09.5-.19.75-.28-.1.03-.19.06-.3.08.26-.05.53-.09.79-.14-.1.02-.2.02-.31.02.25 0 .5.01.75.01-.1 0-.2-.02-.3-.04l.67.15c-.08-.02-.15-.05-.23-.08.19.09.37.19.56.28-.1-.05-.19-.11-.27-.19l.42.39c-.11-.11-.2-.24-.28-.38.08.17.16.33.24.5-.11-.23-.17-.47-.18-.73.01.18.02.37.04.55-.01-.23.01-.45.08-.67-.06.18-.11.37-.17.55.06-.18.13-.35.24-.51-.12.17-.23.35-.35.52.07-.09.14-.18.22-.26l-.5.47c.06-.05.12-.1.19-.14-.21.13-.43.26-.64.39.06-.03.11-.06.17-.08-.25.09-.5.18-.75.28.05-.02.09-.03.14-.04-.26.05-.53.09-.79.13.07-.01.13-.01.19-.01.41-.02.8-.11 1.17-.27.37-.11.71-.28 1.01-.52.29-.19.51-.43.68-.73.19-.23.3-.5.34-.81.03-.58-.19-1.12-.7-1.44-.19-.09-.37-.18-.56-.28a4.3 4.3 0 00-1.43-.14"/><path class="st0" d="M18.18 34.3c-.05.92.16 1.71.39 2.58.2.76.31 1.53.33 2.31 0-.15-.01-.29-.01-.44.01.44-.02.87-.07 1.31-.15 1.31 1.6 1.51 2.54 1.38.76-.1 1.56-.32 2.19-.76.43-.3 1.02-.73 1.08-1.29.12-1.06.1-2.16-.08-3.21-.16-.93-.57-1.82-.58-2.77 0 .15 0 .29.01.44 0-.07 0-.14.01-.21.03-.52-.14-.86-.61-1.13-.53-.3-1.34-.33-1.92-.25-.76.1-1.55.32-2.19.76l-.52.4c-.29.24-.48.53-.57.88M9.64 21.94C7.8 17.5 9.28 12.9 11.23 8.77c.89-1.88 1.85-3.88 3.44-5.28 1.09-.95 1.73-1.14 3.13-.84 2.13.46 3.89 1.96 5.41 3.44 1.49 1.44 2.86 3.01 3.95 4.78 1.05 1.7 1.85 3.57 2.2 5.54.3 1.69-.13 3.8 1.38 5 .9.72 2.82.1 3.75-.25.41-.16 2.55-1.09 1.69-1.78-1.19-.95-.79-3.17-1.03-4.52-.33-1.84-1.05-3.59-1.99-5.2-1.89-3.2-4.74-6.54-8.04-8.33-3.7-2.02-8.2-1.54-11.97.09-3.95 1.71-6.1 4.93-7.86 8.72C3.37 14.28 2 19.07 3.83 23.49c.64 1.51 6.32-.33 5.81-1.55"/></svg>