<svg xmlns="http://www.w3.org/2000/svg" width="36.07" height="18.07"><path d="M16.59 2.28c-4.23 2.28-7.68 5.61-11.9 7.79.58.35 1.16.7 1.75 1.05 2.69 1.3 5.26 2.82 7.7 4.62 1.25.92.15 2.96-1.24 2.12-2.58-1.55-5.17-3.1-7.75-4.65-1.38-.66-2.79-1.28-4.26-1.79-.74-.26-1.01-1-.81-1.6-.3-.93.68-2.12 1.76-1.47.11.07.22.13.33.2 4.9-2 8.56-5.9 13.19-8.4 1.38-.75 2.62 1.38 1.23 2.13m5.74 11c-1.15-.59-2.28-1.22-3.39-1.88-.85-.62-1.68-1.28-2.5-1.93 1.14-.77 2.27-1.56 3.41-2.32 1.05-.71 2.54-2.08 3.83-2.28 1.57-.25.9-2.62-.65-2.37-1.39.22-2.84 1.49-3.97 2.23-1.74 1.15-3.44 2.35-5.16 3.51-1.23-.5-2.24 1.43-1 2.25 1.78 1.19 3.57 2.33 5.42 3.39.86.58 1.76 1.09 2.73 1.5.02.01.03.02.05.03v-.01c.1.04.19.09.29.13 1.3.5 2.17-1.62.94-2.25m2.04-4.1c-.52.39-.7.99-.5 1.51-.24.51-.16 1.13.5 1.43 1.11.51 2.27.89 3.42 1.27 1.6.88 3.26 1.64 5.07 2.14 1.37.38 2.13-1.52.95-2.25-1.51-.94-3.17-1.49-4.82-2.03-.62-.34-1.24-.71-1.85-1.09 2.66-1.98 5.36-3.9 8.31-5.42 1.41-.73.16-2.85-1.24-2.12-3.52 1.82-6.68 4.19-9.84 6.56" fill="#333"/></svg>