<svg xmlns="http://www.w3.org/2000/svg" width="36.07" height="18.07"><path d="M19.49 2.28c-1.4-.76-.15-2.88 1.24-2.12 4.63 2.5 8.29 6.4 13.19 8.4.11-.07.22-.13.33-.2 1.08-.65 2.05.54 1.76 1.47.2.6-.07 1.34-.81 1.6-1.47.51-2.88 1.13-4.26 1.79-2.58 1.55-5.17 3.1-7.75 4.65-1.39.83-2.49-1.21-1.24-2.12 2.44-1.79 5.01-3.32 7.7-4.62.58-.35 1.16-.7 1.75-1.05-4.24-2.18-7.68-5.51-11.91-7.8m-5.74 11c-1.23.63-.36 2.75.95 2.25.1-.04.19-.09.29-.13v.01c.02-.01.03-.02.05-.03.97-.41 1.87-.92 2.73-1.5 1.84-1.07 3.64-2.21 5.42-3.39 1.24-.82.22-2.75-1-2.25-1.73-1.16-3.43-2.36-5.16-3.51-1.13-.75-2.58-2.01-3.97-2.23-1.55-.25-2.22 2.13-.65 2.37 1.28.2 2.77 1.57 3.83 2.28 1.14.77 2.28 1.55 3.41 2.32-.83.65-1.65 1.31-2.5 1.93-1.13.66-2.25 1.3-3.4 1.88m-2.04-4.1C8.55 6.81 5.38 4.44 1.86 2.62.46 1.89-.79 4.02.62 4.74c2.95 1.53 5.65 3.45 8.31 5.42-.61.38-1.23.75-1.85 1.09-1.65.54-3.31 1.09-4.82 2.03-1.18.73-.42 2.62.95 2.25 1.81-.5 3.47-1.25 5.07-2.14 1.16-.38 2.31-.76 3.42-1.27.67-.31.74-.92.5-1.43.21-.51.03-1.12-.49-1.51" fill="#333"/></svg>