<?xml version="1.0" encoding="utf-8"?>
<!-- Generator: Adobe Illustrator 25.0.1, SVG Export Plug-In . SVG Version: 6.00 Build 0)  -->
<svg version="1.1" id="Layer_1" xmlns="http://www.w3.org/2000/svg" xmlns:xlink="http://www.w3.org/1999/xlink" x="0px" y="0px"
	 width="115.32px" height="95.04px" viewBox="0 0 115.32 95.04" style="enable-background:new 0 0 115.32 95.04;"
	 xml:space="preserve">
<style type="text/css">
	.st0{fill:#333333;}
	.st1{opacity:0.5;}
	.st2{fill:#FBB040;}
	.st3{fill:#231F20;}
</style>
<path class="st0" d="M102.62,24.24h-0.85c-1.29,0-1.29,2,0,2h0.85C103.91,26.24,103.91,24.24,102.62,24.24z"/>
<g>
	<g>
		<path d="M22.1,21.65c-2.14-4.44-4.91-9.32-10.23-10.16c-0.65-0.1-1.58,0.25-1.9,0.85c-0.34,0.66,0.3,1,0.85,1.08
			c0.28,0.04-0.06-0.03,0.19,0.04c0.15,0.04,0.3,0.07,0.44,0.11c0.27,0.08,0.53,0.17,0.79,0.28c-0.15-0.06,0.2,0.1,0.19,0.09
			c0.11,0.06,0.23,0.11,0.34,0.18c0.22,0.12,0.44,0.26,0.65,0.4c0.88,0.59,1.61,1.32,2.29,2.14c1.44,1.74,2.51,3.75,3.48,5.78
			c0.3,0.62,1.09,0.68,1.69,0.5C21.29,22.81,22.4,22.27,22.1,21.65L22.1,21.65z"/>
	</g>
</g>
<g>
	<g>
		<path d="M88.89,5.8c-3.49,0.75-6.68,3.4-7.49,6.96c-0.13,0.58,0.89,0.52,1.21,0.47c0.38-0.06,0.77-0.17,1.1-0.36
			c0.2-0.12,0.51-0.29,0.57-0.54c0.33-1.46,0.99-2.63,2.02-3.68c0.06-0.06,0.13-0.13,0.19-0.19c-0.16,0.16,0.05-0.04,0.07-0.06
			c0.13-0.12,0.27-0.23,0.41-0.34c0.14-0.11,0.29-0.21,0.44-0.31c0.23-0.16-0.19,0.11,0.03-0.02c0.08-0.05,0.15-0.09,0.23-0.14
			c0.06-0.04,0.46-0.2,0.47-0.25c-0.2,0.09-0.22,0.1-0.09,0.04c0.03-0.01,0.05-0.02,0.08-0.04c0.08-0.04,0.16-0.07,0.25-0.1
			c0.1-0.04,0.2-0.07,0.29-0.11c0.15-0.05-0.37,0.11-0.04,0.02c0.19-0.05,0.37-0.1,0.56-0.14c0.32-0.07,0.72-0.24,0.98-0.45
			c0.14-0.11,0.37-0.33,0.31-0.54C90.35,5.47,89.21,5.73,88.89,5.8L88.89,5.8z"/>
	</g>
</g>
<g>
	<g>
		<path d="M17.33,25.59C14.07,20.36,8.11,17,1.97,16.81C1.28,16.79,0.39,17,0.08,17.69c-0.28,0.62,0.25,1.17,0.88,1.19
			c5.6,0.17,10.77,3.23,13.72,7.98C15.34,27.94,18.11,26.86,17.33,25.59L17.33,25.59z"/>
	</g>
</g>
<g>
	<g>
		<path d="M102.85,75.23c0.54,0,1.64-0.21,1.93-0.74c0.3-0.55-0.26-0.64-0.73-0.64c-0.54,0-1.64,0.21-1.93,0.74
			C101.81,75.14,102.38,75.23,102.85,75.23L102.85,75.23z"/>
	</g>
</g>
<g class="st1">
	<path class="st2" d="M52.06,11.45c-9.86-0.74-12.62,3.15-19.31,9.66c-12.63,12.31-22.58,15.77-16.3,31.5
		c6.41,16.05,17.18,25.27,35.77,29.01c12.01,2.42,26.98,7.35,36.14,0c6.6-5.3,9.97-7.86,13.12-15.17
		c5.97-13.84,2.55-28.45-7.22-38.78c-6.63-7.01-10.71-12.08-20.83-13.61C64.26,12.68,61.21,9.91,52.06,11.45"/>
</g>
<g>
	<g>
		<path class="st3" d="M12.66,31.31c5.36,9.93,2.34,21.88,6.54,32.17c0.4,0.98,3.26,0.1,2.9-0.78c-4.21-10.29-1.18-22.24-6.54-32.17
			C15.04,29.58,12.24,30.53,12.66,31.31L12.66,31.31z"/>
	</g>
</g>
<g>
	<g>
		<path class="st3" d="M14.32,31.71c12.48-3.32,25.3-4.85,38.06-6.69c9.62-1.39,19.22-2.85,28.83-4.27
			c3.79-0.56,7.57-1.14,11.36-1.64c0.53-0.07,1.56-0.37,1.63-1.03c0.08-0.66-0.81-0.77-1.27-0.71c-8.35,1.1-16.66,2.43-24.99,3.67
			C58.76,22.4,49.57,23.65,40.38,25c-8.89,1.3-17.8,2.81-26.49,5.13c-0.46,0.12-1.4,0.55-1.24,1.18
			C12.83,31.94,13.88,31.83,14.32,31.71L14.32,31.71z"/>
	</g>
</g>
<g>
	<g>
		<path class="st3" d="M20.85,63.98c3.12-0.47,6.24-0.96,9.34-1.55c1.21-0.23,2.44-0.46,3.63-0.81c0.23-0.07,0.47-0.13,0.69-0.22
			c0.26-0.11,1.2-0.45,0.86-0.85c-0.31-0.36-1.56,0.01-1.87,0.15c-0.34,0.14,0.4-0.11,0.13-0.04c-0.32,0.08-0.64,0.17-0.96,0.25
			c-0.12,0.03-0.24,0.07-0.37,0.08c0.48-0.06,0.04-0.01-0.16,0.03c-0.4,0.09-0.8,0.17-1.21,0.24c-1.15,0.22-2.31,0.43-3.47,0.63
			c-2.03,0.34-4.06,0.66-6.09,0.97c-0.41,0.06-1.58,0.31-1.69,0.81C19.56,64.19,20.63,64.01,20.85,63.98L20.85,63.98z"/>
	</g>
</g>
<g>
	<g>
		<path class="st3" d="M55.62,30.75c-3.12,0.66-6.04,2.42-8.08,4.86c-0.97,1.16-1.78,2.47-2.31,3.89c-0.27,0.71-0.5,1.45-0.72,2.17
			c-0.21,0.71-0.08,1.37,0.19,2.04c0.26,0.65,1.11,0.67,1.69,0.52c0.45-0.12,1.46-0.65,1.21-1.3c-0.22-0.57-0.33-0.95-0.16-1.53
			c0.17-0.58,0.36-1.18,0.57-1.74c0.46-1.2,1.1-2.34,1.93-3.32c1.67-2,3.79-3.28,6.18-3.78c0.53-0.11,1.38-0.64,1.21-1.3
			C57.13,30.58,56.14,30.64,55.62,30.75L55.62,30.75z"/>
	</g>
</g>
<g>
	<g>
		<path class="st3" d="M44.57,40.8c2.46-0.54,4.92-1.08,7.38-1.62c0.38-0.08,0.75-0.18,1.11-0.34c0.14-0.06,0.54-0.24,0.6-0.42
			c0.16-0.46-1.01-0.26-1.15-0.23c-2.46,0.54-4.92,1.08-7.38,1.62c-0.38,0.08-0.75,0.18-1.11,0.34c-0.14,0.06-0.54,0.24-0.6,0.42
			C43.26,41.03,44.44,40.83,44.57,40.8L44.57,40.8z"/>
	</g>
</g>
<g>
	<g>
		<path class="st3" d="M46.35,43.87c0.1-0.08,0.19-0.17,0.29-0.25c-0.15,0.12,0.14-0.11,0.17-0.14c0.2-0.16,0.4-0.31,0.6-0.45
			c0.2-0.14,0.41-0.28,0.62-0.42c0.1-0.07,0.21-0.14,0.31-0.19c-0.28,0.15,0.03-0.01,0.09-0.05c0.2-0.11,0.4-0.22,0.6-0.32
			c0.11-0.05,0.22-0.1,0.33-0.15c0.14-0.06,0.11-0.05-0.09,0.04c0.05-0.02,0.11-0.05,0.16-0.07c0.22-0.09,0.44-0.18,0.66-0.25
			c0.06-0.02,0.11-0.04,0.17-0.06c-0.24,0.08-0.28,0.09-0.13,0.04c0.11-0.03,0.22-0.07,0.34-0.1c0.33-0.09,0.7-0.22,0.98-0.43
			c0.12-0.09,0.38-0.29,0.33-0.48c-0.13-0.48-1.33-0.21-1.59-0.13c-2.42,0.68-4.61,1.89-6.49,3.55c-0.14,0.12-0.18,0.31-0.04,0.44
			c0.17,0.15,0.56,0.15,0.75,0.13C45.1,44.54,45.83,44.33,46.35,43.87L46.35,43.87z"/>
	</g>
</g>
<g>
	<g>
		<path class="st3" d="M91.31,18.63c0.52,2.84,0.85,5.72,1.39,8.56c0.57,2.94,1.51,5.76,2.72,8.5c0.35,0.79,3.18-0.15,2.9-0.78
			c-1.21-2.74-2.16-5.56-2.72-8.5c-0.55-2.84-0.88-5.72-1.39-8.56C94.07,17.13,91.16,17.8,91.31,18.63L91.31,18.63z"/>
	</g>
</g>
<g>
	<g>
		<path class="st3" d="M32.11,48.38c8.08-1.97,16.14-4.04,24.32-5.57c4.42-0.83,8.88-1.39,13.34-2.04
			c9.36-1.36,18.72-2.78,28.08-4.16c3.61-0.53,7.23-1.09,10.85-1.57c-0.37-0.03-0.74-0.07-1.11-0.1c0.41,0.39,0.65,0.56,0.79,1.1
			c0.21,0.83,0.28,1.71,0.39,2.56c0.19,1.49,0.3,2.98,0.39,4.48c0.17,2.9,0.29,5.89,0.98,8.73c0.44,1.83,1.28,3.67,1.45,5.55
			c0.04,0.5,0.06,1.01,0.12,1.52c0.11,0.91,0,1.55-0.11,2.45c-0.22,1.72,0.45,3.34,0.84,4.99c0.11-0.16,0.22-0.33,0.32-0.49
			c-0.59,0.43-1.18,0.86-1.76,1.29c-0.47,0.35-0.3,0.27-0.95,0.48c-1.3,0.42-3.34,0.69-4.92,0.89c-4.47,0.57-8.98,0.81-13.48,1.13
			c-1.77,0.13-3.54,0.24-5.29,0.46c-2.68,0.33-5.32,1.09-7.96,1.66c-7.88,1.67-15.79,3.23-23.72,4.67
			c-4.53,0.82-9.07,1.6-13.61,2.35c-1.88,0.31-3.7,0.28-5.61,0.28c0.28,0.09,0.56,0.18,0.84,0.27c-4.15-10.27,2.49-21.89-2.85-31.86
			c-0.43-0.79-3.2,0.22-2.9,0.78c5.34,9.96-1.3,21.59,2.85,31.86c0.12,0.3,0.59,0.27,0.84,0.27c1.39,0,2.82,0.1,4.2-0.02
			c2.09-0.18,4.2-0.67,6.26-1.02c2.11-0.36,4.21-0.72,6.32-1.09c8.26-1.46,16.49-3.06,24.7-4.78c3.22-0.67,6.45-1.59,9.71-2.06
			c1.58-0.23,3.32-0.32,5-0.44c4.74-0.34,9.49-0.61,14.2-1.21c2.17-0.28,4.39-0.59,6.46-1.31c1.5-0.52,2.65-1.46,3.92-2.39
			c0.13-0.09,0.37-0.29,0.32-0.49c-0.29-1.2-0.74-2.39-0.86-3.63c-0.11-1.19,0.3-2.29,0.17-3.48c-0.15-1.45-0.31-2.76-0.7-4.18
			c-0.41-1.47-0.88-2.91-1.14-4.41c-0.37-2.23-0.58-4.48-0.71-6.74c-0.13-2.18-0.28-4.34-0.6-6.5c-0.14-0.95-0.13-1.75-0.87-2.4
			c-0.55-0.47-0.97-0.46-1.7-0.36c-1.99,0.25-3.97,0.56-5.96,0.85c-12.23,1.79-24.44,3.7-36.68,5.41
			c-11.66,1.63-23.03,4.41-34.45,7.2c-0.31,0.08-1.44,0.43-1.31,0.92C30.66,48.73,31.84,48.44,32.11,48.38L32.11,48.38z"/>
	</g>
</g>
<g>
	<g>
		<path class="st3" d="M75.81,46.94c-4.68,1-8.87,4.45-10.48,9c-0.9,2.55-0.97,5.4,1.19,7.32c1.86,1.66,4.45,2.24,6.89,2.11
			c2.91-0.15,5.74-1.43,7.78-3.51c0.46-0.48,0.25-1.08-0.34-1.28c-0.68-0.23-1.56,0.05-2.05,0.55c-1.61,1.64-3.86,2.48-6.15,2.25
			c-2.44-0.25-4.89-1.79-5.01-4.46c-0.1-2.46,1.22-5.01,2.84-6.79c1.56-1.72,3.56-2.9,5.83-3.39c0.54-0.12,1.37-0.64,1.21-1.3
			C77.33,46.76,76.31,46.83,75.81,46.94L75.81,46.94z"/>
	</g>
</g>
<g>
	<g>
		<path class="st3" d="M64.76,56.99c2.46-0.54,4.92-1.08,7.38-1.62c0.38-0.08,0.75-0.18,1.11-0.34c0.14-0.06,0.54-0.24,0.6-0.42
			c0.16-0.46-1.01-0.26-1.15-0.23c-2.46,0.54-4.92,1.08-7.38,1.62c-0.38,0.08-0.75,0.18-1.11,0.34c-0.14,0.06-0.54,0.24-0.6,0.42
			C63.45,57.22,64.62,57.02,64.76,56.99L64.76,56.99z"/>
	</g>
</g>
<g>
	<g>
		<path class="st3" d="M66.53,60.43c0.1-0.08,0.19-0.17,0.29-0.25c-0.15,0.12,0.14-0.11,0.17-0.14c0.2-0.16,0.4-0.31,0.6-0.45
			c0.2-0.14,0.41-0.28,0.62-0.42c0.1-0.07,0.21-0.14,0.31-0.19c-0.28,0.15,0.03-0.01,0.09-0.05c0.2-0.11,0.4-0.22,0.6-0.32
			c0.11-0.05,0.22-0.1,0.33-0.15c0.14-0.06,0.11-0.05-0.09,0.04c0.05-0.02,0.11-0.05,0.16-0.07c0.22-0.09,0.44-0.18,0.66-0.25
			c0.06-0.02,0.11-0.04,0.17-0.06c-0.24,0.08-0.28,0.09-0.13,0.04c0.11-0.03,0.22-0.07,0.34-0.1c0.33-0.09,0.7-0.22,0.98-0.43
			c0.12-0.09,0.38-0.29,0.33-0.48c-0.13-0.48-1.33-0.21-1.59-0.13c-2.42,0.68-4.61,1.89-6.49,3.55c-0.14,0.12-0.18,0.31-0.04,0.44
			c0.17,0.15,0.56,0.15,0.75,0.13C65.28,61.1,66.01,60.89,66.53,60.43L66.53,60.43z"/>
	</g>
</g>
<g>
	<g>
		<path d="M75.09,9.16c1.05-1.97,2.46-3.7,4.16-5.14c0.8-0.68,1.68-1.29,2.6-1.8c0.45-0.25,0.92-0.48,1.4-0.69
			c0.11-0.05,0.37-0.15,0.57-0.23c0.13-0.05,0.26-0.09,0.38-0.14c0.04-0.01,0.46-0.15,0.24-0.08c0.29-0.09,1.42-0.38,1.32-0.85
			c-0.09-0.44-1.38-0.14-1.57-0.08c-5.05,1.56-9.45,4.8-11.97,9.51c-0.25,0.47,1.02,0.32,1.16,0.3C73.9,9.88,74.81,9.68,75.09,9.16
			L75.09,9.16z"/>
	</g>
</g>
<g>
	<g>
		<path d="M39.17,86.24c-3.28,3.14-7.62,4.99-12.17,5.07c-0.59,0.01-1.57,0.21-1.93,0.74c-0.36,0.54,0.31,0.68,0.74,0.67
			c5.93-0.11,11.73-2.45,16.02-6.56c0.5-0.48-0.43-0.68-0.74-0.67C40.4,85.51,39.67,85.75,39.17,86.24L39.17,86.24z"/>
	</g>
</g>
<g>
	<g>
		<path d="M37.3,94.63c4.21-2.81,8.41-5.63,12.62-8.44c0.38-0.26,0.87-0.77,0.26-1.09c-0.56-0.3-1.56-0.05-2.05,0.28
			c-4.21,2.81-8.41,5.63-12.62,8.44c-0.38,0.26-0.87,0.77-0.26,1.09C35.81,95.21,36.81,94.96,37.3,94.63L37.3,94.63z"/>
	</g>
</g>
<g>
	<g>
		<path d="M96.28,80.55c4.49,1.47,9.2,2.23,13.92,2.23c0.69,0,1.48-0.13,2.05-0.55c0.41-0.3,0.43-0.7-0.19-0.7
			c-4.57-0.01-9.08-0.73-13.42-2.15c-0.62-0.2-1.48,0.07-2.03,0.35C96.32,79.87,95.66,80.34,96.28,80.55L96.28,80.55z"/>
	</g>
</g>
<g>
	<g>
		<path d="M90.81,82.57c3.3,2.77,7.6,4.32,11.91,4.35c0.68,0.01,1.55-0.19,1.9-0.86c0.31-0.6-0.27-1.1-0.85-1.1
			c-3.94-0.03-7.68-1.45-10.69-3.98C92.17,80.23,89.59,81.54,90.81,82.57L90.81,82.57z"/>
	</g>
</g>
<g>
	<g>
		<path d="M24.77,72.36c0.57,0,1.63-0.2,1.92-0.77c0.29-0.57-0.25-0.79-0.77-0.79c-0.57,0-1.63,0.2-1.92,0.77
			C23.72,72.14,24.25,72.36,24.77,72.36L24.77,72.36z"/>
	</g>
</g>
<g>
	<g>
		<path d="M19.43,70.02c1.67,0,2.21-2.15,0.25-2.15C18.02,67.87,17.47,70.02,19.43,70.02L19.43,70.02z"/>
	</g>
</g>
<g>
	<g>
		<path d="M31.02,18.98c1.67,0,2.21-2.18,0.24-2.18C29.58,16.81,29.05,18.98,31.02,18.98L31.02,18.98z"/>
	</g>
</g>
<g>
	<g>
		<path d="M77.9,11.72c0.53,0,1.64-0.22,1.93-0.73c0.31-0.54-0.26-0.6-0.72-0.6c-0.53,0-1.64,0.22-1.93,0.73
			C76.87,11.66,77.44,11.72,77.9,11.72L77.9,11.72z"/>
	</g>
</g>
<g>
	<g>
		<path d="M58.49,89.85c0.61,0,1.61-0.18,1.9-0.83c0.27-0.59-0.23-0.98-0.82-0.98c-0.61,0-1.61,0.18-1.9,0.83
			C57.4,89.46,57.9,89.85,58.49,89.85L58.49,89.85z"/>
	</g>
</g>
<g>
	<g>
		<path d="M87.91,84.9c0.54,0,1.64-0.21,1.93-0.74c0.3-0.55-0.26-0.65-0.73-0.65c-0.54,0-1.64,0.21-1.93,0.74
			C86.87,84.81,87.44,84.9,87.91,84.9L87.91,84.9z"/>
	</g>
</g>
</svg>
