<?xml version="1.0" encoding="utf-8"?>
<!-- Generator: Adobe Illustrator 23.1.0, SVG Export Plug-In . SVG Version: 6.00 Build 0)  -->
<svg version="1.1" id="Layer_2" xmlns="http://www.w3.org/2000/svg" xmlns:xlink="http://www.w3.org/1999/xlink" x="0px" y="0px"
	 width="877.3px" height="173.1px" viewBox="0 0 877.3 173.1" style="enable-background:new 0 0 877.3 173.1;" xml:space="preserve"
	>
<style type="text/css">
	.st0{fill:#231F20;}
</style>
<symbol  id="New_Symbol" viewBox="-330.7 -207 661.5 414">
	<rect id="XMLID_41_" x="-330.7" y="153" class="st0" width="661.5" height="54"/>
	<rect id="XMLID_40_" x="-330.7" y="63" class="st0" width="661.5" height="54"/>
	<rect id="XMLID_33_" x="-330.7" y="-27" class="st0" width="661.5" height="54"/>
	<rect id="XMLID_32_" x="-330.7" y="-117" class="st0" width="661.5" height="54"/>
	<rect id="XMLID_31_" x="-330.7" y="-207" class="st0" width="661.5" height="54"/>
</symbol>
<g id="XMLID_917_">
	<g id="XMLID_977_">
		<path id="XMLID_996_" class="st0" d="M0,86.8v-0.4v-7.9c0-1.4,1.1-2.6,2.6-2.6h0c1.4,0,2.6,1.1,2.6,2.6v7.9v0.4v7.9
			c0,1.4-1.1,2.6-2.6,2.6h0c-1.4,0-2.6-1.1-2.6-2.6V86.8z"/>
		<path id="XMLID_995_" class="st0" d="M12.2,86.8v-0.4V62.1c0-1.4,1.1-2.6,2.6-2.6l0,0c1.4,0,2.6,1.1,2.6,2.6v24.2v0.4v24.2
			c0,1.4-1.1,2.6-2.6,2.6l0,0c-1.4,0-2.6-1.1-2.6-2.6V86.8z"/>
		<path id="XMLID_994_" class="st0" d="M24.4,86.8v-0.4V35.6c0-1.4,1.1-2.6,2.6-2.6h0c1.4,0,2.6,1.1,2.6,2.6v50.7v0.4v50.7
			c0,1.4-1.1,2.6-2.6,2.6h0c-1.4,0-2.6-1.1-2.6-2.6V86.8z"/>
		<path id="XMLID_993_" class="st0" d="M36.6,86.8v-0.4V2.6c0-1.4,1.1-2.6,2.6-2.6h2.6v86.3v0.4v83.8c0,1.4-1.1,2.6-2.6,2.6l0,0
			c-1.4,0-2.6-1.1-2.6-2.6V86.8z"/>
		<path id="XMLID_992_" class="st0" d="M48.7,86.8v-0.4v-32c0-1.4,1.1-2.6,2.6-2.6h0c1.4,0,2.6,1.1,2.6,2.6v32v0.4v32
			c0,1.4-1.1,2.6-2.6,2.6h0c-1.4,0-2.6-1.1-2.6-2.6V86.8z"/>
		<path id="XMLID_991_" class="st0" d="M60.9,86.8v-0.4V66.7c0-1.4,1.1-2.6,2.6-2.6l0,0c1.4,0,2.6,1.1,2.6,2.6v19.6v0.4v19.6
			c0,1.4-1.1,2.6-2.6,2.6l0,0c-1.4,0-2.6-1.1-2.6-2.6V86.8z"/>
		<path id="XMLID_990_" class="st0" d="M73.1,86.8v-0.4V32.9c0-1.4,1.1-2.6,2.6-2.6h0c1.4,0,2.6,1.1,2.6,2.6v53.4v0.4v53.4
			c0,1.4-1.1,2.6-2.6,2.6h0c-1.4,0-2.6-1.1-2.6-2.6V86.8z"/>
		<path id="XMLID_989_" class="st0" d="M85.3,86.8v-0.4v-32c0-1.4,1.1-2.6,2.6-2.6l0,0c1.4,0,2.6,1.1,2.6,2.6v32v0.4v32
			c0,1.4-1.1,2.6-2.6,2.6l0,0c-1.4,0-2.6-1.1-2.6-2.6V86.8z"/>
		<path id="XMLID_988_" class="st0" d="M99.7,162.3c-1.4,0-2.6-1.1-2.6-2.6v-73v-0.4v-73c0-1.4,1.1-2.6,2.6-2.6l0,0
			c1.4,0,2.6,1.1,2.6,2.6v73v0.4v73C102.3,161.2,101.1,162.3,99.7,162.3L99.7,162.3z"/>
		<path id="XMLID_987_" class="st0" d="M213.6,86.8v-0.4v-7.9c0-1.4-1.1-2.6-2.6-2.6h0c-1.4,0-2.6,1.1-2.6,2.6v7.9v0.4v7.9
			c0,1.4,1.1,2.6,2.6,2.6h0c1.4,0,2.6-1.1,2.6-2.6V86.8z"/>
		<path id="XMLID_985_" class="st0" d="M201.4,86.8v-0.4V62.1c0-1.4-1.1-2.6-2.6-2.6l0,0c-1.4,0-2.6,1.1-2.6,2.6v24.2v0.4v24.2
			c0,1.4,1.1,2.6,2.6,2.6l0,0c1.4,0,2.6-1.1,2.6-2.6V86.8z"/>
		<path id="XMLID_984_" class="st0" d="M189.2,86.8v-0.4V35.6c0-1.4-1.1-2.6-2.6-2.6h0c-1.4,0-2.6,1.1-2.6,2.6v50.7v0.4v50.7
			c0,1.4,1.1,2.6,2.6,2.6h0c1.4,0,2.6-1.1,2.6-2.6V86.8z"/>
		<path id="XMLID_983_" class="st0" d="M177,86.8v-0.4V2.6c0-1.4-1.1-2.6-2.6-2.6h-2.6v86.3v0.4v83.8c0,1.4,1.1,2.6,2.6,2.6l0,0
			c1.4,0,2.6-1.1,2.6-2.6V86.8z"/>
		<path id="XMLID_982_" class="st0" d="M164.9,86.8v-0.4v-32c0-1.4-1.1-2.6-2.6-2.6h0c-1.4,0-2.6,1.1-2.6,2.6v32v0.4v32
			c0,1.4,1.1,2.6,2.6,2.6h0c1.4,0,2.6-1.1,2.6-2.6V86.8z"/>
		<path id="XMLID_981_" class="st0" d="M152.7,86.8v-0.4V66.7c0-1.4-1.1-2.6-2.6-2.6l0,0c-1.4,0-2.6,1.1-2.6,2.6v19.6v0.4v19.6
			c0,1.4,1.1,2.6,2.6,2.6l0,0c1.4,0,2.6-1.1,2.6-2.6V86.8z"/>
		<path id="XMLID_980_" class="st0" d="M140.5,86.8v-0.4V32.9c0-1.4-1.1-2.6-2.6-2.6h0c-1.4,0-2.6,1.1-2.6,2.6v53.4v0.4v53.4
			c0,1.4,1.1,2.6,2.6,2.6h0c1.4,0,2.6-1.1,2.6-2.6V86.8z"/>
		<path id="XMLID_979_" class="st0" d="M128.3,86.8v-0.4v-32c0-1.4-1.1-2.6-2.6-2.6l0,0c-1.4,0-2.6,1.1-2.6,2.6v32v0.4v32
			c0,1.4,1.1,2.6,2.6,2.6l0,0c1.4,0,2.6-1.1,2.6-2.6V86.8z"/>
		<path id="XMLID_978_" class="st0" d="M113.9,162.3c1.4,0,2.6-1.1,2.6-2.6v-73v-0.4v-73c0-1.4-1.1-2.6-2.6-2.6l0,0
			c-1.4,0-2.6,1.1-2.6,2.6v73v0.4v73C111.3,161.2,112.5,162.3,113.9,162.3L113.9,162.3z"/>
	</g>
	<g id="XMLID_957_">
		<path id="XMLID_975_" class="st0" d="M219.5,86.8v-0.4v-7.9c0-1.4,1.1-2.6,2.6-2.6h0c1.4,0,2.6,1.1,2.6,2.6v7.9v0.4v7.9
			c0,1.4-1.1,2.6-2.6,2.6h0c-1.4,0-2.6-1.1-2.6-2.6V86.8z"/>
		<path id="XMLID_974_" class="st0" d="M231.7,86.8v-0.4V62.1c0-1.4,1.1-2.6,2.6-2.6l0,0c1.4,0,2.6,1.1,2.6,2.6v24.2v0.4v24.2
			c0,1.4-1.1,2.6-2.6,2.6l0,0c-1.4,0-2.6-1.1-2.6-2.6V86.8z"/>
		<path id="XMLID_973_" class="st0" d="M243.9,86.8v-0.4V35.6c0-1.4,1.1-2.6,2.6-2.6h0c1.4,0,2.6,1.1,2.6,2.6v50.7v0.4v50.7
			c0,1.4-1.1,2.6-2.6,2.6h0c-1.4,0-2.6-1.1-2.6-2.6V86.8z"/>
		<path id="XMLID_972_" class="st0" d="M256.1,86.8v-0.4V2.6c0-1.4,1.1-2.6,2.6-2.6h2.6v86.3v0.4v83.8c0,1.4-1.1,2.6-2.6,2.6l0,0
			c-1.4,0-2.6-1.1-2.6-2.6V86.8z"/>
		<path id="XMLID_971_" class="st0" d="M268.2,86.8v-0.4v-32c0-1.4,1.1-2.6,2.6-2.6h0c1.4,0,2.6,1.1,2.6,2.6v32v0.4v32
			c0,1.4-1.1,2.6-2.6,2.6h0c-1.4,0-2.6-1.1-2.6-2.6V86.8z"/>
		<path id="XMLID_970_" class="st0" d="M280.4,86.8v-0.4V66.7c0-1.4,1.1-2.6,2.6-2.6l0,0c1.4,0,2.6,1.1,2.6,2.6v19.6v0.4v19.6
			c0,1.4-1.1,2.6-2.6,2.6l0,0c-1.4,0-2.6-1.1-2.6-2.6V86.8z"/>
		<path id="XMLID_969_" class="st0" d="M292.6,86.8v-0.4V32.9c0-1.4,1.1-2.6,2.6-2.6h0c1.4,0,2.6,1.1,2.6,2.6v53.4v0.4v53.4
			c0,1.4-1.1,2.6-2.6,2.6h0c-1.4,0-2.6-1.1-2.6-2.6V86.8z"/>
		<path id="XMLID_968_" class="st0" d="M304.8,86.8v-0.4v-32c0-1.4,1.1-2.6,2.6-2.6l0,0c1.4,0,2.6,1.1,2.6,2.6v32v0.4v32
			c0,1.4-1.1,2.6-2.6,2.6l0,0c-1.4,0-2.6-1.1-2.6-2.6V86.8z"/>
		<path id="XMLID_967_" class="st0" d="M319.2,162.3c-1.4,0-2.6-1.1-2.6-2.6v-73v-0.4v-73c0-1.4,1.1-2.6,2.6-2.6l0,0
			c1.4,0,2.6,1.1,2.6,2.6v73v0.4v73C321.8,161.2,320.6,162.3,319.2,162.3L319.2,162.3z"/>
		<path id="XMLID_966_" class="st0" d="M433.1,86.8v-0.4v-7.9c0-1.4-1.1-2.6-2.6-2.6h0c-1.4,0-2.6,1.1-2.6,2.6v7.9v0.4v7.9
			c0,1.4,1.1,2.6,2.6,2.6h0c1.4,0,2.6-1.1,2.6-2.6V86.8z"/>
		<path id="XMLID_965_" class="st0" d="M420.9,86.8v-0.4V62.1c0-1.4-1.1-2.6-2.6-2.6l0,0c-1.4,0-2.6,1.1-2.6,2.6v24.2v0.4v24.2
			c0,1.4,1.1,2.6,2.6,2.6l0,0c1.4,0,2.6-1.1,2.6-2.6V86.8z"/>
		<path id="XMLID_964_" class="st0" d="M408.7,86.8v-0.4V35.6c0-1.4-1.1-2.6-2.6-2.6h0c-1.4,0-2.6,1.1-2.6,2.6v50.7v0.4v50.7
			c0,1.4,1.1,2.6,2.6,2.6h0c1.4,0,2.6-1.1,2.6-2.6V86.8z"/>
		<path id="XMLID_963_" class="st0" d="M396.5,86.8v-0.4V2.6c0-1.4-1.1-2.6-2.6-2.6h-2.6v86.3v0.4v83.8c0,1.4,1.1,2.6,2.6,2.6l0,0
			c1.4,0,2.6-1.1,2.6-2.6V86.8z"/>
		<path id="XMLID_962_" class="st0" d="M384.4,86.8v-0.4v-32c0-1.4-1.1-2.6-2.6-2.6h0c-1.4,0-2.6,1.1-2.6,2.6v32v0.4v32
			c0,1.4,1.1,2.6,2.6,2.6h0c1.4,0,2.6-1.1,2.6-2.6V86.8z"/>
		<path id="XMLID_961_" class="st0" d="M372.2,86.8v-0.4V66.7c0-1.4-1.1-2.6-2.6-2.6l0,0c-1.4,0-2.6,1.1-2.6,2.6v19.6v0.4v19.6
			c0,1.4,1.1,2.6,2.6,2.6l0,0c1.4,0,2.6-1.1,2.6-2.6V86.8z"/>
		<path id="XMLID_960_" class="st0" d="M360,86.8v-0.4V32.9c0-1.4-1.1-2.6-2.6-2.6h0c-1.4,0-2.6,1.1-2.6,2.6v53.4v0.4v53.4
			c0,1.4,1.1,2.6,2.6,2.6h0c1.4,0,2.6-1.1,2.6-2.6V86.8z"/>
		<path id="XMLID_959_" class="st0" d="M347.8,86.8v-0.4v-32c0-1.4-1.1-2.6-2.6-2.6l0,0c-1.4,0-2.6,1.1-2.6,2.6v32v0.4v32
			c0,1.4,1.1,2.6,2.6,2.6l0,0c1.4,0,2.6-1.1,2.6-2.6V86.8z"/>
		<path id="XMLID_958_" class="st0" d="M333.4,162.3c1.4,0,2.6-1.1,2.6-2.6v-73v-0.4v-73c0-1.4-1.1-2.6-2.6-2.6l0,0
			c-1.4,0-2.6,1.1-2.6,2.6v73v0.4v73C330.8,161.2,332,162.3,333.4,162.3L333.4,162.3z"/>
	</g>
	<g id="XMLID_938_">
		<path id="XMLID_956_" class="st0" d="M441.6,86.8v-0.4v-7.9c0-1.4,1.1-2.6,2.6-2.6h0c1.4,0,2.6,1.1,2.6,2.6v7.9v0.4v7.9
			c0,1.4-1.1,2.6-2.6,2.6h0c-1.4,0-2.6-1.1-2.6-2.6V86.8z"/>
		<path id="XMLID_955_" class="st0" d="M453.8,86.8v-0.4V62.1c0-1.4,1.1-2.6,2.6-2.6l0,0c1.4,0,2.6,1.1,2.6,2.6v24.2v0.4v24.2
			c0,1.4-1.1,2.6-2.6,2.6l0,0c-1.4,0-2.6-1.1-2.6-2.6V86.8z"/>
		<path id="XMLID_954_" class="st0" d="M466,86.8v-0.4V35.6c0-1.4,1.1-2.6,2.6-2.6h0c1.4,0,2.6,1.1,2.6,2.6v50.7v0.4v50.7
			c0,1.4-1.1,2.6-2.6,2.6h0c-1.4,0-2.6-1.1-2.6-2.6V86.8z"/>
		<path id="XMLID_953_" class="st0" d="M478.1,86.8v-0.4V2.6c0-1.4,1.1-2.6,2.6-2.6h2.6v86.3v0.4v83.8c0,1.4-1.1,2.6-2.6,2.6l0,0
			c-1.4,0-2.6-1.1-2.6-2.6V86.8z"/>
		<path id="XMLID_952_" class="st0" d="M490.3,86.8v-0.4v-32c0-1.4,1.1-2.6,2.6-2.6h0c1.4,0,2.6,1.1,2.6,2.6v32v0.4v32
			c0,1.4-1.1,2.6-2.6,2.6h0c-1.4,0-2.6-1.1-2.6-2.6V86.8z"/>
		<path id="XMLID_951_" class="st0" d="M502.5,86.8v-0.4V66.7c0-1.4,1.1-2.6,2.6-2.6l0,0c1.4,0,2.6,1.1,2.6,2.6v19.6v0.4v19.6
			c0,1.4-1.1,2.6-2.6,2.6l0,0c-1.4,0-2.6-1.1-2.6-2.6V86.8z"/>
		<path id="XMLID_950_" class="st0" d="M514.7,86.8v-0.4V32.9c0-1.4,1.1-2.6,2.6-2.6h0c1.4,0,2.6,1.1,2.6,2.6v53.4v0.4v53.4
			c0,1.4-1.1,2.6-2.6,2.6h0c-1.4,0-2.6-1.1-2.6-2.6V86.8z"/>
		<path id="XMLID_949_" class="st0" d="M526.9,86.8v-0.4v-32c0-1.4,1.1-2.6,2.6-2.6l0,0c1.4,0,2.6,1.1,2.6,2.6v32v0.4v32
			c0,1.4-1.1,2.6-2.6,2.6l0,0c-1.4,0-2.6-1.1-2.6-2.6V86.8z"/>
		<path id="XMLID_948_" class="st0" d="M541.3,162.3c-1.4,0-2.6-1.1-2.6-2.6v-73v-0.4v-73c0-1.4,1.1-2.6,2.6-2.6l0,0
			c1.4,0,2.6,1.1,2.6,2.6v73v0.4v73C543.9,161.2,542.7,162.3,541.3,162.3L541.3,162.3z"/>
		<path id="XMLID_947_" class="st0" d="M655.2,86.8v-0.4v-7.9c0-1.4-1.1-2.6-2.6-2.6h0c-1.4,0-2.6,1.1-2.6,2.6v7.9v0.4v7.9
			c0,1.4,1.1,2.6,2.6,2.6h0c1.4,0,2.6-1.1,2.6-2.6V86.8z"/>
		<path id="XMLID_946_" class="st0" d="M643,86.8v-0.4V62.1c0-1.4-1.1-2.6-2.6-2.6l0,0c-1.4,0-2.6,1.1-2.6,2.6v24.2v0.4v24.2
			c0,1.4,1.1,2.6,2.6,2.6l0,0c1.4,0,2.6-1.1,2.6-2.6V86.8z"/>
		<path id="XMLID_945_" class="st0" d="M630.8,86.8v-0.4V35.6c0-1.4-1.1-2.6-2.6-2.6h0c-1.4,0-2.6,1.1-2.6,2.6v50.7v0.4v50.7
			c0,1.4,1.1,2.6,2.6,2.6h0c1.4,0,2.6-1.1,2.6-2.6V86.8z"/>
		<path id="XMLID_944_" class="st0" d="M618.6,86.8v-0.4V2.6c0-1.4-1.1-2.6-2.6-2.6h-2.6v86.3v0.4v83.8c0,1.4,1.1,2.6,2.6,2.6l0,0
			c1.4,0,2.6-1.1,2.6-2.6V86.8z"/>
		<path id="XMLID_943_" class="st0" d="M606.4,86.8v-0.4v-32c0-1.4-1.1-2.6-2.6-2.6h0c-1.4,0-2.6,1.1-2.6,2.6v32v0.4v32
			c0,1.4,1.1,2.6,2.6,2.6h0c1.4,0,2.6-1.1,2.6-2.6V86.8z"/>
		<path id="XMLID_942_" class="st0" d="M594.2,86.8v-0.4V66.7c0-1.4-1.1-2.6-2.6-2.6l0,0c-1.4,0-2.6,1.1-2.6,2.6v19.6v0.4v19.6
			c0,1.4,1.1,2.6,2.6,2.6l0,0c1.4,0,2.6-1.1,2.6-2.6V86.8z"/>
		<path id="XMLID_941_" class="st0" d="M582.1,86.8v-0.4V32.9c0-1.4-1.1-2.6-2.6-2.6h0c-1.4,0-2.6,1.1-2.6,2.6v53.4v0.4v53.4
			c0,1.4,1.1,2.6,2.6,2.6h0c1.4,0,2.6-1.1,2.6-2.6V86.8z"/>
		<path id="XMLID_940_" class="st0" d="M569.9,86.8v-0.4v-32c0-1.4-1.1-2.6-2.6-2.6h0c-1.4,0-2.6,1.1-2.6,2.6v32v0.4v32
			c0,1.4,1.1,2.6,2.6,2.6h0c1.4,0,2.6-1.1,2.6-2.6V86.8z"/>
		<path id="XMLID_939_" class="st0" d="M555.5,162.3c1.4,0,2.6-1.1,2.6-2.6v-73v-0.4v-73c0-1.4-1.1-2.6-2.6-2.6l0,0
			c-1.4,0-2.6,1.1-2.6,2.6v73v0.4v73C552.9,161.2,554,162.3,555.5,162.3L555.5,162.3z"/>
	</g>
	<g id="XMLID_918_">
		<path id="XMLID_937_" class="st0" d="M663.7,86.8v-0.4v-7.9c0-1.4,1.1-2.6,2.6-2.6h0c1.4,0,2.6,1.1,2.6,2.6v7.9v0.4v7.9
			c0,1.4-1.1,2.6-2.6,2.6h0c-1.4,0-2.6-1.1-2.6-2.6V86.8z"/>
		<path id="XMLID_936_" class="st0" d="M675.8,86.8v-0.4V62.1c0-1.4,1.1-2.6,2.6-2.6l0,0c1.4,0,2.6,1.1,2.6,2.6v24.2v0.4v24.2
			c0,1.4-1.1,2.6-2.6,2.6l0,0c-1.4,0-2.6-1.1-2.6-2.6V86.8z"/>
		<path id="XMLID_935_" class="st0" d="M688,86.8v-0.4V35.6c0-1.4,1.1-2.6,2.6-2.6h0c1.4,0,2.6,1.1,2.6,2.6v50.7v0.4v50.7
			c0,1.4-1.1,2.6-2.6,2.6h0c-1.4,0-2.6-1.1-2.6-2.6V86.8z"/>
		<path id="XMLID_934_" class="st0" d="M700.2,86.8v-0.4V2.6c0-1.4,1.1-2.6,2.6-2.6h2.6v86.3v0.4v83.8c0,1.4-1.1,2.6-2.6,2.6l0,0
			c-1.4,0-2.6-1.1-2.6-2.6V86.8z"/>
		<path id="XMLID_933_" class="st0" d="M712.4,86.8v-0.4v-32c0-1.4,1.1-2.6,2.6-2.6h0c1.4,0,2.6,1.1,2.6,2.6v32v0.4v32
			c0,1.4-1.1,2.6-2.6,2.6h0c-1.4,0-2.6-1.1-2.6-2.6V86.8z"/>
		<path id="XMLID_932_" class="st0" d="M724.6,86.8v-0.4V66.7c0-1.4,1.1-2.6,2.6-2.6l0,0c1.4,0,2.6,1.1,2.6,2.6v19.6v0.4v19.6
			c0,1.4-1.1,2.6-2.6,2.6l0,0c-1.4,0-2.6-1.1-2.6-2.6V86.8z"/>
		<path id="XMLID_931_" class="st0" d="M736.8,86.8v-0.4V32.9c0-1.4,1.1-2.6,2.6-2.6h0c1.4,0,2.6,1.1,2.6,2.6v53.4v0.4v53.4
			c0,1.4-1.1,2.6-2.6,2.6h0c-1.4,0-2.6-1.1-2.6-2.6V86.8z"/>
		<path id="XMLID_929_" class="st0" d="M749,86.8v-0.4v-32c0-1.4,1.1-2.6,2.6-2.6l0,0c1.4,0,2.6,1.1,2.6,2.6v32v0.4v32
			c0,1.4-1.1,2.6-2.6,2.6l0,0c-1.4,0-2.6-1.1-2.6-2.6V86.8z"/>
		<path id="XMLID_928_" class="st0" d="M763.4,162.3c-1.4,0-2.6-1.1-2.6-2.6v-73v-0.4v-73c0-1.4,1.1-2.6,2.6-2.6l0,0
			c1.4,0,2.6,1.1,2.6,2.6v73v0.4v73C765.9,161.2,764.8,162.3,763.4,162.3L763.4,162.3z"/>
		<path id="XMLID_927_" class="st0" d="M877.3,86.8v-0.4v-7.9c0-1.4-1.1-2.6-2.6-2.6h0c-1.4,0-2.6,1.1-2.6,2.6v7.9v0.4v7.9
			c0,1.4,1.1,2.6,2.6,2.6h0c1.4,0,2.6-1.1,2.6-2.6V86.8z"/>
		<path id="XMLID_926_" class="st0" d="M865.1,86.8v-0.4V62.1c0-1.4-1.1-2.6-2.6-2.6l0,0c-1.4,0-2.6,1.1-2.6,2.6v24.2v0.4v24.2
			c0,1.4,1.1,2.6,2.6,2.6l0,0c1.4,0,2.6-1.1,2.6-2.6V86.8z"/>
		<path id="XMLID_925_" class="st0" d="M852.9,86.8v-0.4V35.6c0-1.4-1.1-2.6-2.6-2.6h0c-1.4,0-2.6,1.1-2.6,2.6v50.7v0.4v50.7
			c0,1.4,1.1,2.6,2.6,2.6h0c1.4,0,2.6-1.1,2.6-2.6V86.8z"/>
		<path id="XMLID_924_" class="st0" d="M840.7,86.8v-0.4V2.6c0-1.4-1.1-2.6-2.6-2.6h-2.6v86.3v0.4v83.8c0,1.4,1.1,2.6,2.6,2.6l0,0
			c1.4,0,2.6-1.1,2.6-2.6V86.8z"/>
		<path id="XMLID_923_" class="st0" d="M828.5,86.8v-0.4v-32c0-1.4-1.1-2.6-2.6-2.6h0c-1.4,0-2.6,1.1-2.6,2.6v32v0.4v32
			c0,1.4,1.1,2.6,2.6,2.6h0c1.4,0,2.6-1.1,2.6-2.6V86.8z"/>
		<path id="XMLID_922_" class="st0" d="M816.3,86.8v-0.4V66.7c0-1.4-1.1-2.6-2.6-2.6l0,0c-1.4,0-2.6,1.1-2.6,2.6v19.6v0.4v19.6
			c0,1.4,1.1,2.6,2.6,2.6l0,0c1.4,0,2.6-1.1,2.6-2.6V86.8z"/>
		<path id="XMLID_921_" class="st0" d="M804.1,86.8v-0.4V32.9c0-1.4-1.1-2.6-2.6-2.6h0c-1.4,0-2.6,1.1-2.6,2.6v53.4v0.4v53.4
			c0,1.4,1.1,2.6,2.6,2.6h0c1.4,0,2.6-1.1,2.6-2.6V86.8z"/>
		<path id="XMLID_920_" class="st0" d="M791.9,86.8v-0.4v-32c0-1.4-1.1-2.6-2.6-2.6l0,0c-1.4,0-2.6,1.1-2.6,2.6v32v0.4v32
			c0,1.4,1.1,2.6,2.6,2.6l0,0c1.4,0,2.6-1.1,2.6-2.6V86.8z"/>
		<path id="XMLID_919_" class="st0" d="M777.5,162.3c1.4,0,2.6-1.1,2.6-2.6v-73v-0.4v-73c0-1.4-1.1-2.6-2.6-2.6l0,0
			c-1.4,0-2.6,1.1-2.6,2.6v73v0.4v73C775,161.2,776.1,162.3,777.5,162.3L777.5,162.3z"/>
	</g>
</g>
</svg>
