<svg version="1.1" id="Layer_1" xmlns="http://www.w3.org/2000/svg" x="0" y="0" width="27.68" height="19.02" xml:space="preserve"><style>.st0{fill:#333}</style><path class="st0" d="M21.78 8.3c-2.15-2.14-4.33-4.27-7.02-5.73-1.39-.76-2.64 1.37-1.24 2.12 1.78.97 3.3 2.25 4.75 3.62-5.38 1-11.41 1.07-16.72.29C0 8.37-.67 10.75.89 10.97c5.11.75 10.7.8 15.96.06-1.65 1.51-3.24 3.08-4.82 4.66-1.12 1.12.62 2.86 1.74 1.74 2.48-2.48 4.97-5.04 7.75-7.19.62-.48.87-1.32.26-1.94z"/><path class="st0" d="M27.63 10.08C26.17 6.13 23.77 3 20.55.31c-1.21-1.01-2.96.72-1.74 1.74 2.4 2 4.35 4.23 5.79 7.03 1 1.93-5.09 6.53-6.4 7.84-1.12 1.12.62 2.86 1.74 1.74l7.38-7.38c.28-.3.46-.8.31-1.2z"/></svg>