<svg xmlns="http://www.w3.org/2000/svg" width="297.15" height="85.48"><path d="M282.9 77.22c-.49-.16-.28-.21-.71-.59-.28.23-.03.39.15.56-.34.13-.68.12-1.03.06-.59-.11-1.18-.4-1.76-.53 0 0 .01 0 .01-.01.74-.48 1.55.39 2.3-.14-.41-.07-.82-.15-1.24-.42.42-.3.89.22 1.28-.63.24.27-.14.64.28.88.17-.25.36-.16.53-.43.3.14.08.37-.07.59.23.19.43-.23.68.13.06-.67.81-.39.82-1.05.63.28.05.76.53 1.07.42-.43 1.48-.16 1.6.21.65-.54.72.2 1.34-.24.3.36-.33.21-.4.55.69.35 1.27-.3 1.94-.08.2-.41.24-.54.22-1.1.39.03 1.07-.35 1.03-.93.53.11-.22.52.31.63.35.06.63-.44 1.02-.12.38-.39.06-.59.48-.69.42.29-.41.87-.29 1.23-.22.4-.62-.62-.8.07.18.5 1.06.23 1.48-.22.44.13.2.42.55.57.51-.54 1.58-1.35 1.86-.89.22.06.18-.25.06-.37.4-.21.78-.47 1.29-.03.19-.5.5-.3.68-.8-.42.52-1.11-.48-1.47.33-.43-.46 0-.82-.86-.92.5-.95.84-.19 1.02-.19.34-.68-.51-.27-.6-.76-.16.42-.38.49-.66.19-.22.51-.52.3-.46.73.41.14.66-.25.64.4-.23.28-.59-.32-.79.12-.26-.38.2-.67-.46-.69.35.7-.49.14-.88.24-.07-.1-.07-.54.09-.64-.37-.05-1.03-.44-1.44-.1-.55-.88-1.13-.08-1.58-.92-.53.33-.4.8-1 .92-.14-.16.14-.42.26-.64-.55-.62-.97-.07-1.47-.26-.13.34-.01.43.27.41-.24.63-.77.17-.7.74-.05-.1-.22-.68-.48-.37-.26-.4.01-.29.27-.63-.61-.29-1.14.34-1.78-.4-.09 1.23-.84-.43-1.25.66.05-.73-.48-.21-.6-.72.38-.15.76-.35 1.2.16.26-1.01 1.34-.4 2.07.02 0-.35.01-.7.43-1.14-.93 1.32-3.2-1.11-4.01 1.13-.68-.01-1.35.26-2.04-.03-.14.32-.04.44.24.43l-.6.76c-.21.1-.43.01-.65-.17.3-.4.64-.03.93-.67-.33-.27-.65-.21-.98-.48l-.4.5c-.17.04-.35 0-.53-.06-.23-.25.02-.54.28-.83-.79-.13-.37 1.15-1.24.81-.08.2-.07.39.13.57-.21.22-.42.35-.63.29.38-1.05-1.27-1.17-1.83-1.56.61-.34 2.17.21 2.08-.65.63-.07 1.27.27 1.89.06.03-.66-.77-.12-1.07-.36.48-.36.5-.1.81-.77.31.97.61.06.89 1.07.5-.47.23-.86.04-1.27.39-.24.44.48.67.61.23-.31.48-.21.7-.68.4.17.15.44.46.62.42-.64.27-.07.74 0 .46-.43.98-.22 1.43-.69.45.2-.01.54.17.78-.5.27-1.49-.12-1.33.79.29.03.54-.45.81-.59.04.15.09.3.25.43.42-.58.51-.63.94-.26.56-.51-.15-.82.41-1.34.1-.09.21-.03.31-.17.41.24.09.6.09.91.34.51.57-.05.89.29.2-.2.08-.33-.05-.46.6-.42 1.36.51 1.87-.65 1.2.13 2-.56 3.06.01.27-.64.68-.33 1.02-.52.03-.58-.13-.66.15-1.11-.57-.35-.55-.2-.98-.66-.14.62.03.43-.28 1.01-.44.26-.95-.04-1.32.65-.33-.35.33-.93.35-1.36-.29-.24-1.02.33-1.02-.35-.71-.02-1.31.96-2.1.23.37-.44.81-.32 1.18-.73-.29-.04-.55.15-.88-.27-.05.5-.15.52-.41.09-.7.98-1.62-.05-2.37.36-.44-.17 0-.46.13-.72-.31-.37-.54.09-.84-.1.22.38.26.8.84 1.14.04.19.01.38-.05.59-.24.08-.49 0-.73 0-.14-.21.19-.49-.27-.65-.24.23-.17.41-.26.62-.13.12-.29-.11-.41.07-.29-.45.2-.3.15-.72.28-.35.65.31.91-.26-1.61-.02-3.2.16-4.78.17-1.58-.01-3.16-.06-4.73-.32-.18.96-1.2.5-1.4-.18-.2.51.12.99-.09 1.5-.58.26-.54-.67-1.11-.31-.1-.15.1-.31.2-.47-.5-.12-1.01.44-1.51.16.61-1.28-1.19-.62-1.96-1.58-.4.22.03.46.18.69-.8-.06-.44-.18-1.17-.48-.13.19.25.39.08.58-.2.08-.4-.04-.59-.24-.04.23-.15.46-.42.68-.45.36-.28-.61-.8-.01-.14-.23-.04-.46.23-.69-1.17-.37-.97-.69-2.45-.41-.07-.2-.06-.39.13-.57-.95.62-1.82-.09-2.76.29-.03-.16-.07-.31.03-.46-.36-.05-.74.3-1.13.74-.29-.25-.28-.48.05-.69-1.2.22-2.23-1.22-3.51-.09-.34-.3.13-.53-.21-.83.21-.21.37.21.6-.17-.91.09-2.12.67-3.2 0-.2.48.72.45.09.94-.45-.54-.82-.99-1.26-.87-.37.69.39.11.63.44-.41.46-.73.12-1.09.2.03-.38.17-.75.32-1.12-.98.04-1.78.79-2.83.19-.06-.16.16-.29.06-.46-.13-.24-.3-.14-.43-.41-.4.39-.22.43-.66.59 0-.23-.07-.48-.29-.75-.5.16-.96-.06-1.43-.12-.18-.33.35-.35.41-.16-.27-.76-1.17-.07-1.53.56-.45-.39.03-.62.32-.88-.66-.11-1.46.73-2.06.23-.17-.19.25-.52.37-.3-.09-.4-.39-.62-.8-.71.15-.01.58-.05.25-.42.21-.09.34.33.59-.12-.25-.47-.62-.11-.9-.4.08.33-.26.85-.55.48-.13.2.14.13.23.39-.41.14-.79.12-1.26.7-.4-.39.3-.57-.05-.95-.33.32-.81.23-.89.77-.77-.3-1.64-.77-2.21-.66-.05.26.01.55-.41.74-.2-.72.39-.94-.37-1.25.32-.41.52-.04.78-.07.06-.59-.88-.08-1.19-.37-.07.18.06.4-.19.55-.26-.3-.49-.17-.63-.84-.4.19-.2.51-.6.7-.29.02-.38-1.11-1-.33-.22-.28.04-.46-.26-.76.27-.26.46-.09.67.02-1.2-1.41-3.57-.81-5.2-1.48.03-.31.25-.57.53-.83-.31-.22-.71.08-.99-.34-.29.21-.24.49-.23.77-.81-.16-2.13-1.59-3.2-.27-.18-.58.39-.33.41-.73-.59-.16-.72-.15-1.17-.39-.12.17-.05.38-.19.55-.64.08-1.43-1.45-1.91-.56-.17-.31-.02-.56-.32-.9-.3.07-.67.54-.85-.08-.63 1.09-1.53-.63-2.4.04.11-.21-.26-.53-.06-.72-.5.14-1.04.46-1.36-.43-.24.26-.44.33-.63.33 0-.16 0-.31-.1-.49-.15.34-.65.23-.37-.09-.35.26-.81.08-1.28-.3.03.51-.22.5-.56.46-.07-.17.15-.28.27-.41-.43-.28-.93-.16-1.35-.44.46-.46.46.22.75-.41-.25-.18-.5-.42-.8-.31-.06-.21.22-.34.38-.5.33.09.53.91.99.35-.43.05-.09-.82-.54-.72-.02-.54.34-.5.67-.55.11.3-.16.51-.24.77.3.39.53-.16.74-.42.31.08.65-.05.88.44-.66-.26-.63.61-1.11.33-.25.37.55.33-.12.68-.42.29.2-.69-.21-.4-.57.37-.11.25.06.72-.13.02-.26.05-.37-.09.32.51 1.63.12 2.27.64-.07-.7.37-.05.49-.59-.43-.07-.88-.1-1.37.16.05-1.56 1.47-.74 2.01-1.07.58.72-.17 1.14.15 1.8.16-.74.57.34 1-.24-.3.05-1.07-.39-.68-.98.38.86.55-.29 1.17.39.31.43-.22.66.09 1.08l.56-.46c-.11-.18-.22-.36-.1-.49.96-.37 1.78.05 2.69-.09-.18-.6-.53-.25-.76-.53.58-.27 1.55-.36 1.61.61-.23-.14-.49-.09-.81.28-.18.41.42.24.17.63.6.02 1.24-.78 1.47.34.3-.41.46-.08.66.03.03-.19.26-.33.19-.54.61.54 1.91 0 2.12.96.41.04.84-.07 1.25-.06-.02.19-.09.37-.19.54.31.31.32-.38.56-.46.31.46.02.79-.2 1.13.39.29.95.15.99.92.2-.43-.08-.96.42-1.32-.52-.47-.38.94-1 .25-.04-.48.15-.72.53-.83.74-.06 1.26 1.2 2.02 1.03.16.69-.37.31-.67.56.25.39.62.09.96-.02 0-.16 0-.31-.11-.49.27-.08.29.33.41-.15.44.57 1.17-.5 1.51.68.14-.5.93-.42.92.19.46-.92 1.32-.69 1.84-.2.2-.11.12-.29.26-.41.42.48 1.01.25.88 1.01l.77-.66c.57.5-.31.72 0 1.17.48-.39.86-.22 1.22.12.12-.37.56-.67.73-1.03.19.5-.58.82-.21 1.36.17-1.11 1.35-.82 1.85-.23.51-.13.55-.83 1.03-.51-.08.4-.5.8.09.72.05.36-.26.65-.61.93.04.13.11.09.19.04l.15.26c.34-.25.16-.59.51-.84.53-.26.33.65.8 1.07.41-.39.66.31 1.04.06-.28-.71-.68-.61-1.09-.42.04-.27-.15-.57-.35-.88.39.18.41-.34.82.26.45-.16-.16-.5.28-.65.33.63 1.22.63 1.88.9.15-.28-.5-.46-.71-.35-.01-.91.89-.64 1.28-.37.21.59-.66-.07-.43.39.4.67.42-.35.85.03-.68 1.02 1.45.06 1.94 1.21.27-.44 1-.61 1.55-1.06-.16 1 1.45.32 1.71.01.13.17.25.34.14.48.19-.34.54.1.99-.36.22.87.65.08 1.33-.09.11.28-.15.52.21.83 1.22-.5 1.81.14 3.05-.17.12.31-.14.56.24.59.08-.92.68-.34.93.29-.15-.71.5-1.18 1.01-.86.13.58-.59-.04-.51.54.14.23.31.12.45.38.16-.29-.06-.58.32-.56.1.2-.27.37-.13.57.59.34.8.01.79-.41.48-.17-.04.73.44.61-.03-.57.39-.73.81-.88.14.69.29.02.64.59.02-.5.5-.44.77-.21.02.27-.2.13-.12.57.18-.72 1.64.1 1.47-1.01.34.33.72-.69 1.05-.32.26.51-.32.35-.59.91.34.19.7-.05 1.05.14.18-1.43 1.46-.78 1.82-1.06-.03.44-.5.63-.68.83-.19-.15-.1-.3.01-.46-.41-.25-.3.36-.77.47.63.14.79-.03 1.33.89.39-.28-.04-.53.1-.81.57.82 2.8-.14 3.64.12.12-.07.78-.52.46-.84.48-.55.96.4.94-.54.29.28-.01.62.03.92-.16.13-.32-.17-.49-.31-.29.48.25.71-.36.96.49-.03.55-.37 1.13-.79.03.15.07.3.21.44.3-.42-.21-.27-.12-.8.28-.24.58.15.85-.42-1.48-.43-2.93-.34-4.38-.41-.42-.22.23-.47-.19-.68-.36.01-.25.28-.47.59-.38-.45.23-.93.56-1.4.79 0 1.72 1.05 2.72.21.28-.05.58.4.86.27-.28-.49-.2-.43.37-.26.32-.26-.02-.46.16-.71.74.82.88.13 1.51.1.28.21.06.45.41.66-.07-.5.2-.86.62-.63.28.21-.45.5.04.69.11-.25.24-.16.38-.05 0-.19.09-.4.24-.61.83.14 1.23.17 1.95.64.07-1 .65.14 1-.5.24.4-.35.19-.42.64.35-.08.68-.24 1.05-.04.18-.13.31-.78.52-.54-.19-.58-.06-.52.36-1.11-.7.26-1.08-.43-1.6.14-.4-.47.19-.44-.17-.79-.34.4-.34.74-.18 1.07-.2.2-.43.11-.63.44-.09-.75-.65-.28-.95-.09-.28-.46.36-.49.38-1.1-.36-.04-.36.16-.52.54-.13-.17-.44-.58-.98-.55.03.3-.27.66-.5 1-.14-.37-.03-.77-.44-1.11-.23.36-.5.01-.74.06.09-.28-.15-.53-.13-.79-.97.3-1.96.18-2.94.02-.53.79-1.11-.21-1.65.32-.98-1.17-2.36.78-3.02-.72-.19.43-.37.15-.55.48-.24-.43-.48-.45-.72-.69.38-.27.67.19.83-.58-.16.62.22.28.54.44.23-.5-.12-.36-.36-.45.43-.57.85-.26 1.27-.27.17.22-.41.39-.54.24.15.59 1.09-.06 1.54.07-.22-.43-.42.1-.64-.33.84.12 1.14-.46 1.9-.63.27.26-.59.55-.08.81l.36-.47c.8.43 1.72-.07 2.24-.52-.49.69.36.42.84.5.04-.3.25-.59-.12-.57.58-.92.75.4 1.25-.33.28.32.17.68.15 1.02.26.15.61-.65.59-.85.35-.33 1.13.59 1.15-.28.16-.02.79.21.67.48.3-.6 1.27-.88 2.14-.54-.45.33-.4.22-.73.91.33.22.65.34.98.55.25-.17-.36-.77.03-.58.1-.62-.41.07-.55.08-.15-.74.85-1.38 1.4-.68.61-.08 1.01-1.69 1.7-1.06l.29-.53c.33.16.05.45.09.68.38.11.61-.86 1.04-.45.25.39-.3.37-.37.66.97-.51 1.82-1.16 2.61-.5.29-.12.6-.11.8-.7-.24-.13-.32-.3-.19-.53.46.45 1.26-.56 2.02-.11-.15.35-.3.68-.55.51.25.33 1.2.07 1.69-.01.29-.67-.31.09-.56-.43.22-.46.59-.18.78-.72a.523.523 0 01-.03-.58c-.3-.23-.32.08-.44-.32.11-.07.21-.15.29-.35.62.68.7.41 1.34.58-.16.65-.65-.11-.81.54.3.34.43-.01.73.33-.28-.38.43-1.02.78-1.12.12.11-.01.32-.07.5.36.44.47-.13.8.18.09-.27-.35-.35-.34-.59.51-.61 1.26-.28 1.8-.78-.15-.58-.42.25-.75.03-.08-.09-.06-.22-.17-.3.5.05.5-.41.92-.81-.19-.6-.55-.26-.57.33-.47-.14.2-.8-.34-.59.17-.43.73-.76.16-1.13-.25.09-.26.38.06.57-.08.15-.25-.02-.4-.1-.25.37-.09.59-.23.92-.52.17-1.07.16-1.48.78-.89-.89-1.28.33-1.97.25-.16-.9.88-.67.76-1.48-.85.72-1.58.09-2.45 1.25-.36-.41-.6-.78-.9.02-.32-.42-.31-1.01.02-1.3-.2-.27-.27.13-.44.01.24.33-.24.85.21 1.12-.7-.41-1.14.59-1.77.62.7-.7 1.1-1.33 1.26-1.42-.4-.74-1.17.69-1.68 1.07-.14-.57-.7-.29-1-.14-.05.17.16.28.07.45-.08.09-.17.04-.24.17-.06-.18.05-.4-.17-.54-.71.14-1.36.75-2.07 1.02-.07-.1-.03-.22-.13-.32.73-.4.93-.85 1.59-1.27-.67-.39-1.2.19-1.82.04-.15.46.28.08.39.38-.11.32-.26.28-.38.43-.43-.25-.22-.89-.62-.8-.14.23-.03.4-.19.62.1.09.16-.08.24-.17.23.22.29 1.13.39.38.58.51.01.91-.34.89.39-.44-.54-.3-.27-.87-.25-.17-.39.67-.64.55-.3-.4.28-.79.52-.88.18-.34-.28-.57-.1-.91-.34-.24-.6.32-.95.02-.04-.5.3-.4.41-.98-.38-.61-.6.31-.96-.21-.11.44.4.14.57.61-.25.02-.5.14-.77-.01.42.41.25.7.2 1.24-.08.08-.17.02-.24.15-.4-.17.17-.48-.23-.66-.3.8-2.35.54-2.25-.37-.19.46-.5.27-.46.75-.47-.31-.2-.67-.49-1 .44.09.82-.43 1.26-.26-.29-.45-1.26-.4-1.79-.16-.18-.21.1-.47-.21-.67-.34.38-.69.81-1.25.21-.02.59-.38.54-.12 1.16-.27-.48-.56.3-1.02-.15.28.82-.68.4-.65.98-.63-.32.34-.71-.11-1.03-.25.47-.5.5-.76.36-.04-.27.05-.54.07-.81.87-.3 1.71.01 2.34-.61-.21-.42-.38.29-.6-.3-1.05 1.43-2.2-.62-3.28.48-.54-.56-1.29-.53-1.98-.5-.69.02-1.32-.02-1.56-.63-.34-.1-.67-.11-1.01-.26-.2.87-.77.23-1.2.43-.02-.19.12-.38-.06-.58-.05.6-.66.61-.6.1-.97.65-1.86-.44-2.82-.08.25.34-.24.52-.39.67-.14-.28.39-.51.31-.79-.76-.63-1.59.09-2.41.04.09-.86-.87-1.01-1.09-.47-.13-.44-.33-.17-.47-.52-.55 1.2-2.13-.73-3.24.19-.63-1.38-2.26.51-2.72-.86.24.17.52.02.79 0-.12-.66-1.09.11-1.73-.25-.27-.16-1.17-1.02-1.29-.34-.21.24-.3-.41-.46-.55-.67.35-1.23-.16-1.91.25-.65-.55-2.24-.72-3.37-.99l-11.15-3.12c-3.8-1.05-7.61-2.04-11.43-2.96-7.63-1.9-15.3-3.57-22.99-5.22-15.38-3.23-30.86-6.07-46.34-9.12-.21-.33.07-.54.26-.76 2.14 1.32 4.74.49 6.9 1.7.26-.42.37-.33.75-.38.05.24-.17.06-.34.26.31.36.85-.38 1.08.3.33-.22.07-.62.37-.85.76 1.34 2.39 1.35 3.79 1.05.99.42 1.95 1 3.11.61.1.14.09.26.02.36 1.74-.28 3.84 1.07 5.06.43.19.37-.06.42.27.55.12-.13-.03-.32-.09-.5 1.91 1.22 3.82.17 5.78 1.55.33-.7 1.24.23 1.74.34.84.18 1.58-.44 1.85.25.83-.32 1.56-.19 2.17.57.45-.12-.13-.51.32-.63.13-.24.5.5.27.54.6-.48.98.17 1.54-.07.16.2.04.33-.09.45.75-.45 1.31.11 2.01-.06-.09.87.03.1.45.59.06-.29.33-.5.56-.44-.03.19.03.41.16.63.59-.75 1.26.61 2.3-.12.12.23.09.42-.02.58 1.11-.03 3.57.77 3.93.28.57 0 .97.87 1.67.19.4.65 1.25 1.16 1.58.64 3.35 1.17 6.58 1.23 10.06 2.38.2-.11.13-.28.27-.41.22.39.34.29.71.76 2.02-.32 4.44 1.58 6.83.95.14.23.01.4.17.63.87.07 1.78-.06 2.58.38.02-.33-.02-1.35.83-1.46.16.5-.09.73.38 1.03.07.38-.62.7-.7.19-.43.48.47.92.5.35 1 1.1 2.37.11 3.36 1.25.39-.73 1.12-.31 1.52.47.22-.11.15-.28.08-.45.96.6 2.05.53 3 1.16.12-.17.05-.38.19-.54 1.41.7 3.6.35 4.52 1.62.1-.09 0-.23-.03-.36 1.57.54 3.28.51 4.75 1.51 1.21-.29 3.03.59 4.42.92.37-.2.01-.54.38-.74.13-.03.25-.06.35.07-.52 1.19 1 .78 1.44 1.22.25-.59-.38-.19-.46-.56-.09-.51.45-.27.59-.35.38 1.58 1.68.89 2.45 1.63.37-.21 0-.54.37-.75.13-.08.21.19.34.06.07.21-.2.36-.34.53.22.34.48.38.79.02.04-.23-.23-.51.09-.68-.14-.26-.37.11-.49-.32.35-.42.55.26.92-.31.2.72.53.45.8.61 0 .58-.55-.22-.82.21.46.86-.28.25-.51.5.73.96.77.01 1.5.73.18-.2-.18-.5-.08-.72.1-.09.17.08.24.16.17-.28.1-.41-.12-.49.51-.57.92-.24 1.42-.82.23.27.38.31.26.73.37.05.85-.85 1.17-.41.17.26-.32.42-.42.64.25.36.55-.19.49-.51.3-.31.46.54.75.23.07.24-.25.43.09.71.48-.82 1.8-.84 1.73.02.37-.03.7.41 1.13-.22.38.97 1.15-.04 1.29.84.55-1.34 1.51.92 2.3-.1.67.35 1.39.04 2.06.5.21.34-.43.01-.03.46 1.18-.99 2.21.58 3.34-.05-.13-.22-.27-.11-.4-.36-.06-.16.12-.31.02-.46.49.12.96.69 1.46.73.09-.29-.13-.23-.24-.35-.14-.42.37.1.5-.45.02.31.1.43.32.47.44-1.3 1.31.5 1.97-.44.29.3.29.61 0 .92.21.41.43-.02.65.21.08-.19-.14-.38-.25-.57.22-.49.43-.37.65-.47.12.23.05.46-.16.69.57-.46 1.14-.07 1.71-.15.1.23-.18.46.18.69.31-1.17 2.03-.5 2.56-1.08.21.55.84.35.36.9.35.09.37-.22.37-.61.33-.1.49 1.06.92.51-.19-.38-.32.02-.5-.19.1-.12.11-.24.06-.35.81 0 1.66.56 2.38-.49.03.64.09.55.41 1.1.22-.38-.14-.67-.32-.99.34-.99.89.44 1.24-.4.53.35-.12.86.2 1.24.25-.45.05-.85.12-1.28.26-.45.36.4.5.16.1.18-.09.4-.18.6.3.12.7-.27.5-.64.65.69.55-.01 1.05.75.46-.56.53-.39 1.1-.23.03-.31-.3-.56.04-.94l-.46-.49c-.28.04-.06.62-.46.1-.14.18-.05.32.06.45-.47.1-1.98.57-1.82-.61-.18-.24-.28.39-.42.52-.32-.43-.14-.83.13-1.05-.18-.12-.96.05-.58.54-.32.23-.7-.23-.99.48-.17-.25.28-.58.17-.83-.31-.42-1.03.58-.9-.45-.22-.24-.25.39-.12.48-.28.06-.57.08-.88-.24-.06.2.04.38-.04.58-.17.21-.38-.06-.55.15-.03-.19 0-.38.04-.58-.66.52-1.35.52-2.04.38-.2-.31.24-.06.3-.48-.25-.31-.46.22-.72-.29-.48.68-.55-.95-1.03-.27.16.1.32.1.47.19-.19.62-.42-.1-.62.5-.21-.19-.05-.38.07-.57-.13-.04-.26.15-.4-.11-.11.79-1.5.36-2.14.15-.02-.08-.03-.13-.02-.16-.92.14-1.84.15-2.77-.2-.08-.19.14-.38.25-.57-.33-.59-.6.2-.57.56-.48.12.01-.68-.46-.94-.45.25.3.55.06.81-.67-.06-1.37.63-2-.18-.27.81-.57.4-1.01.62-.29-.25-.07-.47-.29-.72-.54.45-1.06.29-1.57.23-.09-.44.44-.26.59-.3-.31-.5-.95-.21-1.41.24-.29-.29.1-.53-.19-.82.25-.37.58-.04.61-.53-1.01-.1-1.72.13-2.69.66-.43-.4.35-.65.01-1.04-.88-.03-1.78.01-2.59-.75-.51.69-.76.02-1-.15-.19.21.07.48-.24.66-.57-.85-2.22.17-2.19-.9-1.04 0-2.45-.96-3.3-.43-.45-.74-1.08-.13-1.5-1.08-.46.59-.74-.05-1.22.59-.28-.29-.03-.48-.25-.75-2-.41-4.05-.51-5.99-1.68-.08.23-.26.42-.14.52-1.57-.73-3.19-1.37-4.95-1.28-.46.2-.74-.73-1.17-.73-.1.13.07.33-.08.45-.49-.35-1.13-.79-1.98-.45l-.42-.8c-1.95.19-3.71-.65-5.49-1.39-.08.1-.04.23-.15.32-3.11-1.22-6.4-1.41-9.54-2.48-.61.6-2.69-.56-4.08-.87-.75-.17-1.42.13-1.87-.57l-.45.36c-.22-.92-1.23.03-1.72-.89-1.66.46-3.68-1.03-5.61-.8l-.28-.54c-2.47.24-4.61-1.28-7.09-.97-.89-.95-2.13-.07-3.02-1-.73.52-1.18-.43-1.89-.02-1.59-.88-3.34-1.03-5.09-1.1-3.69-1.13-7.61-1.14-11.3-2.3l-.45.35c-.18.07-.13-.23-.02-.36-2.06-.1-3.49-.51-5.59-.57l-.32-.55c-.39-.02-.31.79-.81.25-.05-.24.17-.06.34-.26-.22-.2-.63-.19-.7.16-14.76-3.4-29.49-4.56-44.37-7.38l-.35.26c-1.93-.82-4.18-.2-6.04-1.34-.38.05-.84.73-.77.01-.35.26-1.22.28-1.67-.27l-.46.34c-.69-.22-1.35-.56-2.15-.29-3.24-1.37-6.95-.74-10.05-2.71l-.46.33c-.44-.68-1.46-.77-1.85-.33-.13-.24.01-.4-.14-.64-.42.78-.62.18-.83-.14-1.02.48-2.04.03-3.21-.27-.12-.24-.08-.42.04-.59-.25-.18-.48.72-.89.09-.11.09-.01.24.01.36-.32.13-.49-.36-.89.09-.15-.21-.03-.33.11-.44-.38.22-1.05.39-1.59.22-.13-.64.37-.22.7-.5-1.22.25-2.37.21-3.55.33l-.32-.7c.2-.48-.31.21.08.5-.49.34-.86.25-1.36.3-.14.01-.29.04-.46.08 0-.11-.04-.19-.09-.26-.17-.26-.51-.3-.11-.52-.27-.26-.44.58-.9-.28-.51.34.13.42.25.55h.01c-.77.42-1.28-.3-2.07.19-.05-.18.16-.27.28-.39-.15-.18-.42.14-.49-.39.03.67-.37.16-.81.59-1.39-1.27-3.66.62-4.78-1.01-.18.32-.41.48-.66.55-.47.13-1.01-.04-1.41 0 .06-.26.19-.33.35-.32.27.01.63.21.89-.01-.1-.26-.28-.19-.37-.48.59-.16 1.26-.67 1.82-.74-.3 1.16 1.36.36 1.67.28-.01-.01-.02-.01-.02-.02-.53-.47-1.34-.68-2.16-.65-.64.06-1.26.22-1.76.54-.05-.22.24-.32.4-.47-.59-.01-1.76-.31-2 .69-.39.12-.13-.5-.32-.7-.96.35-1.57.31-2.47.56-.22.06-.45.13-.72.24C69.5.45 68.1.1 66.44.86c-.78-.38-2.21-.19-2.9.4-1.67-.93-5.32 1.11-7.28-1.12.26 1.58-1.53.44-1.68 1.75-.46-.24-1.26.94-1.55-.01-2.21.74-4.15.33-5.8-1.25-.33.29-.67.58-.63 1-.33.05-.59-.22-.79-.73-.4.44-.61.12-.89.07-.26.58-.49.43-.81.94.11.35.41-.08.54.17-1.37.46-3.35-.06-4.56-1.58-.36.77-.92.82-1.47.49-1.5 1.36-3.17 1.87-4.77 2.07l-.39-.86c0 .77-.93.33-1.41.62 0-.16-.01-.32.11-.44-1.12-.03-2.17-.13-3.21.22-.24.08-.47.18-.71.32-1.43-.13-3.36-.26-4.75.75-.91-.37-2.93.5-3.79.82-1.46.53-2.74.92-3.95 1.85.35.1.27.49.38.84-.33.28-.5-.06-.83.21.4.34.69-.03.85.51.62-.66 1.15.65 1.49-.12.26-.16.31.56.49.76.62-.01 1.21.08 1.79.22-.65.41-.9.37-1.82 1.09 2.23.29 5.22.89 8.04.07.27-.07.48.16.67.45.06-.18.06-.38.05-.58.27.08.59-.02.89-.07.17 1.13 1.58-.24 2.24-.84.18.46-.29.7-.63.99.28-.07.6.36.49.76-.56.36-.55-.09-1 .52.13.4.6-.59.66.09.38-.12.22-.41.52-.55.13-.01.26-.02.36.12-.09.37-.56.62-.63 1-.11.04-.18-.06-.3.02.36-.63-.53-.31-.9-.29-.13-.24.01-.4-.14-.64-.88.12-1.28 1.24-2.05 1.26.02-.44.79-.63 1.11-.96-.32-.11-1.07-.06-1 .52-.79-.63-1.9.08-2.91.38.46.5 1.22-.22 1.84-.37-.57.99-1.73 1.02-2.2.25-.84.4-1.67.72-2.26.11-2.52.91-4.57-.13-7.02.5.35.68.93.42 1.22 1.35.57-.07 1.08.1 1.45.83.21-.09.14-.27.29-.39.21.86.78.27 1.09.71.12.32-.16.51-.46.69.37.59.99.19 1.44.46.31.38-.3.46-.1.81.63.54 1.21-.21 2.08-.17.1.68-.95.89-1.34 1.12.15.06.27.23.37.48.11-.08.01-.23-.01-.36.43-.18.53.36.83-.21.13.24-.01.4.13.64.7-.21 1.28.08 1.86.36.29-.23.36-.52.22-.89.25-.24.46-.29.65-.27.09.51.05.98.03 1.45-.76-.07-2.05.49-2.47 1.36-1.18-.06-2.39-.05-3.42-.74.08.98-.69.44-1.13.24-.02-.51.47.16.71-.13-.36-.63-1.08.2-1.6.2-.28-.4.34-.49-.13-.64-.28.73-1.53.4-2.15.03-.7.55-1.26.05-2.08.17-.24.74.62.35.84.51-.73.27-2.45.69-3.41-.38-.97.72-3.39-.93-4.03.98-.61-.45-1.08.47-1.55-.02.07-.39.42-.16.46-.69-1.6.38-3.29 1.13-3.72 2.64.27.44.8.96.51 1.49.67.74 1.93.92 1.84 2.4.5-.52 1.11-.08 1.35-.76-.09-.15-.27.03-.42.11-.08-.48.11-.28.41-.47.14.5.35.68.61.68.2.34.04.58-.28.75.22.15.46.1.53-.19.39.97 1.83.61 2.81.43.78 1.31 2.16.16 3.39-.35l.13.28c-.69 1.08-1.72.85-2.41 1.5.11.37.35.15.43.62 1.83-.81 2.69-.1 4.4-.5.03.13-.05.22.01.36-.58-.01-1.53.31-1.95.81.16.41.5.08.67.45 0-.5.27-.55.53-.19-.01-.32.06-.62.22-.89.47.41 1.75.33 1.71-.65.3-.29-.06.73.37.48.01.24-.41.13-.34.61.35.18.87-.59.81-.94.28-.09.07.65.26.92.56-.18.32-.62.69-.86.29-.19.23.44.07.5.33.32.4-.41.52-.55.1.08.41.47.38.84-.31.35-.49.16-.77.35.45.55.87-.19.94-.66.67.07 1.26.19 1.89-.59.4.45-.19.58-.04.95-.41.08-.79.05-1.19.1.24.56.13 1-.33 1.33.18.3.46.1.53-.19-.08.55.42.16.38.84.64-.46 1.1-.31 1.79-.15.06.36-.61.44-.66-.09-.11.04-.08.13-.06.22l-.23.16c.26.51.73.21 1.14.13.08.5-.23.89-.15 1.39.3-.42.26-.2.7-.49.28.37.11.6.26.92.27-.11.27-.32.4-.47.2.3-.08.46.2.78.61-.1 1.14.13 1.68.3.13.57-.28.22-.64.63.2.38.64-.21.78.37.04-.19.28-.31.22-.53 1.23.81 2.82.13 4.08.83.13-.12-.02-.33-.07-.5.28-.22.56-.42.77-.36-.05 1.87 1.89.04 2.58.59-.59 1.53-1.47.81-2.36 1.29.31.47.95-.19.91.65l.7-.49c.18.26.09.43.14.64-.24-.09-.6.34-.78-.01.02.54-.29.22-.46.69.21 1 1.12-.87 1.32.18.55-.5 1.12-1 1.63-1.52.29.41.03.65-.22.89.17.66.57.33.85.51.01-.32.16-.59.58-.78-.15-.18-.42.14-.49-.4.37-.18.67-.08.9.29l1.06-.74c0 .7-.29.48.32.7.36.43-.34.53-.04.95.38-1.05.8-.57 1.58-1.29.5.34 1.05.51 1.52.97.66-.94 1.23-.99 1.99-1.4.34.43-.44.5-.4.83.85.15 2.02-1.13 2.58-1.81-.8-.51-1.38.91-2 1.04-.12-.24-.08-.42.04-.58-.19-.28-.7.32-.52.55-.57-1.1-2.64 1.15-3.41-.37.92-1.13 2.33-.8 3.21-.41.92-1.39 2.18-.9 3.38-.72-.48.59-.78 1.04-1.03 1.83.36-.4.54-.11.89-.44.54 1.44 1.27-.34 1.82.94.97-.29.66-.22 1.54-.35-.2-.27.13-.36.04-.59.28-.09.49.11.83-.22.32.54-.25.66-.52.55-.03.53 1.16.19 1.24-.32.35.15.82-.19 1.03.57.5.21 1.29-.79 1.72-.29.19.74-.5 1.2-.91 1.75.68.11 1.16-.74 2.02-.32.23.53.03.58.44.62.39-.33-.53-.32-.14-.64-.26-.12-.52-.27-.84-.15-.01-.61.06-.53-.44-.62-.06-.18.16-.27.29-.39.29-.13.34.74.62.67.04-.19.28-.31.22-.53.35-.09.6.23.9.29.07.34-.05.43-.29.39-.2.06-.04-.21-.19-.42-.12.32-.33.61-.15 1.03 1.64-1.42 2.84-1.02 4.26-1.52.1.19.2.38.07.5.18-.33 1.26-.7 1.89-.6-.05.6-1.1.62-1.11.97-.15-.57-.43-.36-.12.08 1.14-.25 2.13-.26 2.93-.03.13.84-1.07.23-1.22 1.05.36.07.42.34.71-.13 1.07.92 3.6-.23 4.9-.14.2.38-.84.37-.39.84.3-.59.8-.64 1.24-.69-.25-.19-.48-.45-.79-.37-.03-.13.05-.22-.01-.36.64-.25 1 .72 1.73.07.13.24-.01.4.14.64.55-.4.89.08 1.37-.05.11.23.08.42-.04.59.17.23.5-.21.61.31.22-.09.17-.27.11-.45 1.66.57 2.84.67 4.57.83.08.27-.05.46-.34.61.26.13.6-.05.84.14.5-.16-.06-.66.39-.84.32.58.79.51 1.32.17.2.31-.07.46.21.78.22-.21.05-.54.27-.75.37.78.43.06 1.14.11.2.3-.07.46.2.78.11-.16.16-.35.04-.59.65-.17 1.73.93 1.55 1.68.95-.18-.55-.86.13-1.4.31.1.15.38.5.75.52-.32.94.25 1.3-.55.4.1.87.15.87.87l.58-.42c-.2-.69-.22.44-.43-.25.43-.77 1.64.2 2.56-.16-.23.41-.23.81-.69.86.5.8.93-.65 1.59-.58.26.83.83.32 1.32.16.37.77.96.62 1.52.58.02.52-.52.04-.76.36.11.39-.4.6-.33.98.64-.53 1.39-.45 2-1.06.1.25.36.12.67.44.06.71-1.12-.18-.57.78-.38.37-.52-.29-.9.09.16.61 1.12-.1.92.64.38-.32.67-.06 1.25-.33-.22.91.52.16.87.86.7-.51 1.2-.16 1.84-.39.11-.46-.28-.92-.62-.67.22-.77.93-.1 1.26.03.01.37-.31.66-.45.7-.01.38.25.47.16 1 .24-1 .59-.12 1.23-.7-.08-.65-.45-.04-.56-.53.32.03.71-.29.91.28.04.24-.18.05-.35.25.08.26.37.22.19.42.27.44.28-.7.48.03-.01-.4-.11-.83.26-1.12.44.12-.05.39.21.78.3-.19.27-.48.27-.75.16.01.27.23.48.03.37.63-.49.89-.24 1.48.16-.27.39-.52.39-.84.42-.41.49.67.96.05.28.37.12.59.27.92.5-.34.83.06 1.21.25.39-.72 1.02-.31 1.49-.15.2.3-.57.31-.15.67.55-.58.94-.11 1.56-.01.43-.15-.06-.57.27-.76.56.02-.04.69.34 1.06.25.04.37-.05.47-.34.63 1.5 1.98-.15 2.73.82.47-.67.65-.49 1.35-.79.17.03.19.52.56.53-.02.59-.61.15-.88.45.49.51 1.01.16 1.49-.15.41.32.15.53.34 1.06.4-.06.54.33.83-.23l.26.55c-.03-.65.99-.63 1.21.24.46-.74.64-.32 1.08-.03.46-.3-.01-.14-.08-.5.28-.23.43.11.66.08.24.63 0 .57-.2.89.39.11.76.36 1 1.14-.12.12-.22.12-.3.03-.03.44.86.45 1.22.6-.89-.59-.57-1.27-1.45-1.74 1.06-.72.84.94 1.54.93.08-.5-.5-1.18-.31-1.64.16.5.8.59.89 1.22.35-.41.46-.9.78-1.32-.27.78.2.85.48 1.33.12.35-.51.48-.2.9.23-.32.32-.3.38-.84.25.04.5.55.42-.12.27.08.48.47.69.8-.06.35-.84-.19-.81.6.57-.27 2.98-.65 2.3.56.27.12.66-.34.84.13.61-.96 1.41.14 2.31-.75.01.79.67.46.34 1.06.28.26.36-.52.81-.6.69.25 1.32.76 2.17.28-.05.65.59.63.73.22.14.67.5.36.7.8-.01-.39-.15-.43-.17-1 .37.03.68.59.76.94.46.24.38-.6.91.26.08-.18-.03-.4.22-.53-.43.04-.79-.24-1.11-.68.67.2 1.32.45 2.01.58.03.13-.05.22.02.36-.35.13-.83-.49-1.01.19.41.48 1.01-.31 1.53.56.16-.13.32-.26.41-.12.12-.17.15-.35.03-.59.48-.28.79.24 1.26.01.28.32.01.48.22.78.41-.19-.08-.62.4-.48.28.39-.33.5.15.64.29-.11.04-.39.21-.53 1.15 1.73 3.14.84 4.17 1.79.11.27-.35.37-.33.62.47.36 1.21-.52 1.53.56a.54.54 0 00.03-.59c.27-.35.39-.03.64-.29.2.25-.04.39-.21.53.21.37.56.1.8.35.12-.12-.02-.32-.09-.5.27-.33.37.1.6-.07-.01.2-.2.34-.03.59l.46-.34c.21.3-.07.46.22.78.92.06 1.85.12 2.72.41l-.2-.41c.24.08.6-.36.78-.02.2.25-.04.39-.21.54.48.41 1.57.08 1.86-.08.05.51.25.67.68.43-.38-.56.04-.46.33-.62-.88 0-1.11-.74-2.08-.7-.14.19.07.11.13.28-.29.45-.3-.38-.6.07-.18-.63-.21-.49-.54-1.1.97.76 2.62.19 3.24 1.15.08-.1.05-.23.16-.31.4-.14-.17.41.15.64.75-.77 1.18-.07 1.7.24.28-.58.65-.43 1.01-.19-.22.42-.64.77-.47 1.29-.3.07-.73-.23-.83.24.37.02.36.12.45.6.25-.47.47-.29.63-.66.34-.09.56.42.96.03.2.92 1.11.69 1.83.51-.12.69.22.72.8.34.03.21-.01.4-.21.54.54.48 1.32-.12 1.88.29.21-.18-.14-.52.14-.67.25-.26.24.67.55.15.12.23.09.42-.03.59.27.18.1-.63.53-.21.19.29.23.54.04.72.53-.21 1.25.61 1.56-.05.21.29-.06.46.23.77.14-.7.5.02.48.01.67.07 1.05-.77 1.63.09.25-.63.95-.12 1.38-.1-.01.2-.19.34-.03.59.43-.66.74.16 1.36-.46.24-.44-.36-.72-.57-.51-.15-.14.52-.41.64-.3.28-.49-.39-.24-.5-.37-.06-.21.23-.33.39-.49.16-.02.39.84.92.25.19.33.35.65.11.86.25.49.71-.02.94.61.14-.28.12-.69.51-.58-.37.78-1.18 1.2-1.96 1.49.29.16.54.49.82.7.18-.19.31-.64.53-.21.13-.16.06-.38.21-.54.47-.2.18.33.52.74.11-.97 1.76-.67 1.77.36.11-.56.39.1.76-.39-.22-.48-.65.01-.87-.48.09-.42.8.19 1.1.3.08-.22.22-.42.51-.58.27-.2.15.41-.09.45.29.26.45-.5.25-.76-.25.11-.4-.23-.71.16-.04-.25-.01-.48-.05-.73.5-.21.78.59 1.28.35.01.46-.88 1.1-.28 1.35.01-.64.19-.28.58-.44-.07.68-.37.22.23.77.12-.43.18-.57.62-.66-.01.9.75-.13 1.01.74-1.14-.15-2.14.33-3.28-.52.31.88-.91.13-.9 1.06.11.26.28.18.39.46.31-.69.98.05 1.06.52-.14-.72.54-.48.35-1.21.24.1.56-.2.74.2.12.41-.73-.23-.21.54-.29.45-.31-.38-.6.07.14.24 0 .4.16.64.68-.61.72.02.76.56.19-.94 1.25-.03 1.86-.1.28-.38.03-.3-.16-.64.76-.61 1.64.36 2.09-.28.32.36-.15.51-.07.81-.5-.1-1.02-.07-1.47-.39-.23.26-.29.56-.18.9.17-.2.27-.06.37.1.07-.14.15-.28.09-.45.38.81 1.9.47 2.35-.1-.45 1.09.56.72.65 1.59.19-.16.35-.13.48.01.29-.57-.39-.22-.46-.59-.07-.51.52-.69 1.12-1.24.31.73-.51.55-.6 1.03.38.55.37.04.9-.12-.11-.3.05-.54.07-.81.25-.12.36.46.67.06-.31-.56-.9.29-1.13-.65-.55.35-1.1.63-1.54.43-.11-.32.45-.08.6-.08.21-.3-.21-.47-.33-.26.39-1.94 2.71.45 4.24.09-.11-.19-.21-.37-.09-.5-.15-.39-.5.24-.62-.28.01-.33.82-.56.97.02-.09-.58.83-1.1 1.05-.44.09.15-.64.35-.78.03 0 .7-.32.61-.53 1.17.35.36.2.49.6.87-.71.08-1.01-.47-1.98.19.29.63-.13.53.37 1.05.06-.38-.22-.85.41-1.08.62.15 1.18.54 1.84.48-.19-.29-.23-.53-.05-.72-.25-.18-.53-.26-.8-.33.08-.31.47-.43.69-.53.16.2.04.33-.09.45.47.44.26-.61.83-.26-.03.35-.32.63-.3.99.81-.69 1.9.47 2.76-.23.08.3-.2.5.12.86.39-.17.67.22 1.13-.3-.2-.29-.25-.53-.24-.77.48-.16.87.16 1.38-.12.13.5-.55 1.23-.87.49.15.39-.27.64-.11 1.04.53-.71.89-.29 1.77-.62-.12-.52-.47.11-.62-.28.12-.55.56.04.94-.35.14.23.01.4.17.63.43-1.17 1.07.3 1.68-.17.11.9-.82.43-.96.94.07.13.2 0 .3-.04.37.33-.32.39.05.72.39-.27.82.23.76-.4.41-.42.57.38.92.23.02.32-.23.7-.46.36-.07.8 1.31-.34 1.2.78l.68-.54c-.2-.25-.11-.42-.17-.63.41-.18.34.25.47.59.73-.76 1.13.23 2.06.87.66-.5 1.7.72 2.63.42.11-.53-.37-.22-.58-.5.24-.57 1.13-.21 1.56-.08.05.6-.58-.14-.57.45.24.33.44.55.42.81.26-.17.79-.76 1.18-1.12.45-.06.22.67.5.95.21.13 1.03-.39.81.31.83-.45 1.51-.11 2.19.18.36.44-.47.59-.1 1.04.59-.21-.03-.72.47-.95.48-.24.35.68.57 1.08.29-.17.47.21.74.18-.13.29-.1.61.2.99.04-.17.2-.46.34-.27.28-.27-.28-.11-.28-.54.32-.35.5.08.74.18.25-.25-.28-.49-.4-.45.02-.27.16-.51.24-.77.36.06.3.48.6-.09.31.61-.17.38-.24.77.33.4.39-.18.57-.45.47-.08.85.3 1.3.31-.03.35-.39.61-.47.95.38.27.61 1.25 1.17.99.24.78.26 1.17 1.09 1.44-.2-.29-.52-.38-.43-.81.34-.26.59-.03.86.09.22-.18-.05-.48.31-.63-.37-.03-.94-.81-1.11-.27-.01-.28-.06-.57.24-.77.33.02.11.69.67.04.37.32-.31.4.06.72.05-.7.55-.56.9-.14.31-.37-.03-.56-.29-.54.2-.18.33-.03.53-.23.06.29.56.69.32.9.15.1.9-.44.63.27.27.28.65-.9 1.05-.45.06.21-.23.34-.38.5.45.18 1.19 1.01 1.48.35.15-.06.77.28.29.53.83.09 2.02-.39 2.53-1.66.22.01.42.18.67.04.3.46-.46.68-.02 1.17-.52.35-.47.04-.74-.17-.5.28-.66.63-.39 1.09.11-.09 0-.23-.03-.36.32-.15.65-.36.86.08.16.37-.29-.03-.45.37.16.53.55-.2.7.4.36-1.06 1.25-.06 1.82.65.37-.34.76-1.06.13-1.27.05.62-.3.33-.6.1-.06-.22.19-.17.3-.05-.06-.55-1.09-.39-1.52-.7 1.63-.45 3.81.66 5.69.6.07.17-.14.28-.27.41.22.22.45.37.78-.06.03.76.36.18.66.62.23.32-.7.39-.23.77.46-.67.58-.19 1.23.17.38-.51.79-.81 1.15.03.4-.45.65-.01 1.05-.46.73 1.78 2.73.99 4.33 2.12.04-.51.54-.84.61-.1.43-.18.37-.47.42-.73.14-.02.27-.05.38.08-.1.33-.04.7-.46.96.48.56.3-.92.81-.07.28-.78.41-.46.96-.39.15.31-.12.52-.42.73 1.02-.43 2.35.39 3.23-.86.49-.16.44.21.74.38.22.39-.36.64-.07 1.04.4-.24.38-.55.34-.87.46.21.39-.18.86-.31.2.66-.55 1.31-1 1.22.18.21.05.36-.04.23.57.78 1.41 1.66 2.64.61.31.37-.55.52-.14.91.44-.58 1.31.33 1.98.37.22-.16.14-.37.39-.52.01.2-.18.36.01.59.37.02.14-.14.47-.39.06.16-.18.28-.07.46.37.54.87.21.87-.32.08.17.17.21.29.16.08.17-.14.29-.27.42.94.18 2.31 1.25 3.03.49.84.77.71-.11 1.2.41.64-.83.95-.64 1.71-1.05-.2-.33-.46-.24-.68-.44.36-.36.59.28.94.01.09.17-.14.29-.26.43.65.14 1.24.69 1.89.83.09.17-.14.29-.26.43.3.09.6.3.95.01.45-1.19 2.4.73 3.51.02-1.21-.32-2.45-.5-3.62-.96.44-.24.83.06 1.25.14.22-.53-.54-.18-.7-.42l.7-.62c.18.21.05.39.25.6.91-.21.97-1.28 1.98-.73.05.41-.74.42-1.02.71.01.27.24.56.02.81.23-.15.88-1.51 1.68-.88.14.25.01.47-.28.67.4.45.91-.91 1.54-.54.41.35-.35.58.13.94.12-.07.07-.15.02-.23 0-.31.57 0 .48-.65.18.12.89.31.78-.3.24.11.52-.16.74.16-.01.42-.79.8-.64 1.23.28-.12.67-.28 1.01-.52.29.25 0 .46.38.72.66-.12 1.29.08 1.94.11.21.29-.42.12-.58.55.82.4 1.08-1.18 1.86-.24.22-.09.48-.72.69-.44.27-.32-.34-.04-.41-.47l.35-.34c.63.45 1.32 0 1.95.49.01.59-.91.65-1.21.1-.31.28-.61.48-.91.45.36-.03 1.19.83 1.77.03.43.35-.15.69.28 1.04.46-.82 1.76-.74 2.8-.78.25.42-.35.13-.46.46.47-.01.25.39.65.7.6-.33 1.2-.06 1.81-.5.83.68.83-.19 2.04-1-.49.09-.98.38-1.46.17-.24.16-.13.31-.01.46-.3.18-.61.19-.9.03-.26-.19.36-.32.46-.25-.15-.37-1.25-1.36-1.78-.64-.35-.69-1.57-.65-2.3-.37-.25-.34-.11-.62-.54-.12-1.1-.78-2.23-.93-3.35-.66 0-.79-1.16-.24-.8-.97-.19.23-.54.18-.99.29.16.23.35.12.51.38-.22.1-.44.09-.66.19-.07-.2-.06-.39.15-.57-.26-.39-.56-.13-.82-.51-.21.14-.11.3-.25.45-.22-.35-.45-.64-.74-.16-.16-.18-.32-.51-.51-.38-.28-.25.58-.43.06-.69-.49.89-2.27.3-2.61-.35-.35-.3-.16.34-.46.42-.11.06-.21-.02-.32.09-.37-.31-.08-.55-.44-.86-.74.65-2.04-.08-2.98-.44-.29.4-.51.24-.78.47.46.57.45-.36.93.01-.29.33-.21.24.01.81-.74.66-1.28.18-1.4-.42.32-.38.48.6.82.11-.46-.07-.6-.76-.19-1.07-.64-.08-1.25-.5-1.89-.6.26-.61.14-.36-.32-.74.36-.11.67.12.96.59.21-.2-.21-.49.08-.69-.39.12-.72-.28-1.1-.27-.29.27.06.63.29.97-.59.08-1.12-.34-1.77.11-.12.29.05.63-.12.91-.63.09.06-.59-.4-.87-.08-.24.18-.07.34-.3-.49-.87-1.86-.58-2.43-1.56-.9.6-1.62-.02-2.41-.17-.19-.63.61-.42.76-1.04-.54-.55-.85.64-.84-.49-.23.35-.29.73-.17 1.14-.72.15-1.39-.1-2.03-.5-.34.84-.96.38-1.43.2-.07-.17.14-.29.27-.42.18-.09.3.25.43.43.15-.09.19-.2.15-.32l.23-.19c-.31-.36-.77.25-1.01-.54.27-.26.46.07.7.02.21-.59-.53-.4-.71-.6.78-.84-.72-.31-1.17-.81-.02.36-.24 1-.64.93.35-.53-.16-.63-.09-1.31-.12.13-.22.13-.3.05.08.67-.55.46-.76 1.02-.25-.14-.95-.96-1.6-.45-.29-.38.07-.61.15-.91-.49-.4-.98-.54-1.22-.95l-.46.37.3.53c.46-.57.68.25 1.03.33-.53.4-.85-.41-1.37-.05.24-1.38-.94-.8-1.58-1.63.25.21.59-.05.82.3.12-.56-.68-.52-.97-.57-.14.29-.15.59-.34.87-.54.06-.16-.65-.33-.9-.17.21-.27.07-.38-.08-.13.71-.58.61-.94-.21.16.81-.18.22-.72.78-.43-.75.76-.41.2-1.13-.3.8-.62.5-.95.97-.37-.63.63-.42.54-.82-.45-.11-.55-.12-.94.38-.34-.58.35-.2.31-.64-.67-.98-1.08-.1-1.93.03-.17-.31-.02-.55-.32-.9-.5.43-.81-.16-1.26.06-.07-.33.18-.59.16-.9.01-.02.03-.02.04-.03.14-.12.23-.01.37-.11.02.02.03.05.05.07.16.25-.14.4-.17.61.58.01.82-.35 1.45-.02-.37-.27-.7-.77-1.14-.61v-.01c-.24-.37.51.08.27-.4.08.07.17.12.26.16.26.13.54.18.81.29.06.02.12.04.18.08.11-.13-.07-.33.08-.45.39-.16.05.44.36.66 0 0 0 .01.01.01.01-.01.01-.01.02-.01.15-.12.28-.12.4-.04.02.02.04.03.06.05 0-.02.01-.03.01-.05.21-.95.57-.2 1-.04.09.03.18.04.27 0 .07-.03.14-.08.22-.17.05.06.07.12.08.17.07.29-.2.52.18.59.15-.18.18-.38.2-.58.02-.26.02-.52.22-.74a.349.349 0 00-.06-.09l-.06-.06c-.19-.12-.42.05-.58-.24-.12.13.04.32.11.49-.38.33-.64-.05-.93-.21.01-.42.33-.13.49-.6.3 0 .57.16.87.12.09-.01.19-.04.29-.1.19.25.04.47.06.61.01.07.05.12.2.15.04-.08.09-.14.14-.2.2-.26.45-.39.71-.43.94-.15 2.17.78 3.08.9.01.31-.47.53-.34.87-.56-.21-1.11-.46-1.65-.69-.18-.07-.35-.14-.53-.21-.18-.06-.36-.12-.54-.17.13.27.32.37.36.49.03.09-.02.19-.21.36.33-.02.66-.06.97-.02.03.32-.36.55.03.94.4-.59.46-.35.9-.15.32.34-.17.51.15.85.63.33 1.55.07 2.01-.29-.04.19.14.42 0 .59-.32.26.06-.59-.38-.08.5.56 1.13.28 1.63.81l.79-.66c.14.34.11.65.42 1.03.51-.69-.13-.8-.2-1.21.41-.33.57.92 1.03.32.38.54-.53.84-.03 1.4.11-.1-.01-.24-.04-.36.8-.26 1.48.24 2.2.53.46-.42-.08-1.03-.44-1.02.39-.15.91-1.17 1.18-.59.11.46-.42.06-.38.51.11.54.43-.21.54.33.28-.4.05-.6.6-.7.19.27.16.5-.1.68.47.56.6-.83 1.03-.27.1.37-.62.58-.25 1 .4-.2.33-.49.6-.71.14-.03.27-.06.39.06-.03.37-.58.29-.52.85.5.03.34.37.77.94.86.57 1.91.14 2.58.19-.66.73 1.51.74 2.17 1.15-.12.6-.92-.21-1.37.38.73.7 1.6-.42 2.09.41.12-.14-.06-.32-.14-.48.34-.51.54.03.86-.35.62 1.23 1.74.3 2.1 1.21.97-.4 1.48.27 2.31-.43-.37-.07-.1-.17-.36-.5 1.19-.63 1.39.69 1.38 1.64.3-.43.13-.91.34-1.36.43.18.88.16 1.29.48.12.3-.46.23-.71.45.28-.01 1.5.6 1.77.47.23.13.18.75-.04.46-.03.56.41.05.62.05.12-.15-.08-.31-.17-.47.85.01 2.09 1.47 3.29.89l.49.61c.22-.21.41.19.65-.19.84 1.29 1.84.06 2.71 1.23.99-.58 1.94-.12 2.89.61-.6.36-.64.61-1.11.91 1.09-.02 2.2-.81 2.73-.12-.02-.98.77-1.47.48-2.55.54.11 1.08.39 1.63.51-.05-1.02-1.99-.3-1.94-1.54.22-.28.43.34.64.44.06-.47.41-.37.77-.42.19-.03.38-.09.53-.32-.05.29-.09.58.12.86.07.09.17.18.31.27-.02-.25.04-.41.16-.55.14-.17.35-.31.6-.52.01.01.02.02.02.03.34.42.95.93.95.28.18.13.24.29.29.42.04.1.08.18.18.21.05.02.11.03.19.02.23.41-.04.31-.32.6.47.08.96.13 1.43-.24.39.35-.38.8.03 1.15.19-.2.32-1.14.76-.65.06-.27.32-.57-.13-.8.53-.27.53-.23.67-.64.02-.07.05-.14.08-.24.09-.19.2-.09.3.04.13.16.26.35.37.13.23-.23.17-.34.03-.41-.15-.08-.41-.12-.5-.24.23-.1.46.06.69.01.06-.01.12-.03.19-.09.24.28-.43.66.04.92.11-.51.77-.29.56.06.55-.84 1.51-.7 2.44-.2.12.06.23.13.35.2.04-.12.29-.43.3-.71zm8.6-2.36c-.09.21 0 .39-.26.64-.22-.2-.39-.04-.6-.21.25-.41.5-.76.86-.43zm-2.92.43c.27.75.44-.16.91.03.17.72-1.56.79-.91-.03zm-2.98-.58c.38.26.04.81.62.71-.68.94-.94-.44-1.6-.44.29-.56.71.42.98-.27zm-3.83-1.25c.06.59.45.15.63-.33.43.59-.6 1.57-1.12 1.22-.03-.44.26-.79.49-.89zm5.68-4.22c.2.31.8-.35.69.31-.31-.04-.92.43-.69-.31zm-.7.51c-.26-.61-.34-.06-.77-.18.15-.22-.27-.34-.16-.55.52-.03.43.41.83-.17l.35.27c-.08.2 0 .38-.25.63zm.46-2.55c-.7.07-1.35.61-2.07.42.59-.67 1.71-.79 2.07-.42zm-1.56 1.26c-.29.62-.66.52-1.04.16.34-.11.65-.59 1.04-.16zm-3.85.48l.33.29c-.21.5-.47.26-.72.23l.39-.52zm-64.78-15.88c-.37-.4.27-.99.49-.59-.3.16-.11.44-.49.59zm55.85 7c.18.3-.43.75-.57.48-.01-.17.32-.99.57-.48zm21.24-12.62c.42.61.42-.56.85.05-.15.7-.94.76-1.03.38.22.07.06-.21.18-.43zm-12.09.54c-.31.65-.64.13-.69.1.22-.07.42-.48.69-.1zm-10.21 4.87c-.25.34-.96.61-.9.02.29.02.59-.38.9-.02zm-1.58-7.56c-.28.47-.57.21-.84.02.02-.45.56-.46.84-.02zm-7.31 14.33c.28.09 1.07-.03 1.02.42-.29-.01-1.08.15-1.02-.42zm8.52.6l-.38-.45c.19-.3.38-.42.57-.25-.42.25.24.46-.19.7zm.19-2.77c.16.53-.53.56-.19.93-.19.2-.38.32-.56.25.42-.39.14-1.48.75-1.18zm-3.35-.41c.34.94.34-.1.54.7.48-.15 1.44-.71 1.59-.14-.08-.07-.59.05-.38.24.32-.15.62-.09.94.2-.25.42-.5.14-.75-.21-.29.35-.83.2-.86.83-.6-.5-1.36.59-1.68-.5-.07.69-.72.66-1.04.32.92-.12.78-.94 1.64-1.44zm-.35-11.41c-.33-.31-.69.14-1.02-.49.3-.28 1.02-.06 1.02.49zm-3.71 10.84c.24.06.33.18.35.48.67-.55 1.29.29 1.96-.3.29.29-.06 1.01.45.36.31.34.3 1.27-.22.92.11-.15.2-.3.02-.46-.11 1.31-1.19.88-1.83 1.23l-.44-.59c-.38.04-.79.69-1.14.16.21-.72 1.07-.78 1.53-.61-.09-.17.05-.2.2-.23-.31-.05-.6-.53-.91-.49-.5.63-1 1.09-1.43.48.75.06.58-.46.88-.75-.01.59.37.24.58-.2zm-.6-12.27c-.34.46-.63-.06-.93-.18.33-.35.63-.12.93.18zm-1.97 13.14c.21.5.46.52.74.05l.26.36c-.49.38-.94.1-1.41.02l.41-.43zm-.69-13.21c-.04.47-.55.56-.8.29.06-.58.54-.4.8-.29zm-.34 13.26c-.33.25-.61-.15-.91-.29.34-.34.64-.21.91.29zm-2.85-.61c.33.48.73.27 1.11.12-.12-.4-.12-.79.28-1.13.26.2.53.27.78.65-.31.37-.56.03-.88.5.12.48.85.3.87.77-.15-.11-.3-.1-.48.08l-.42-.62c-.67.48-.79-.02-1.52.3.22-.22-.08-.48.26-.67zm-1.21-.02c.38.3.39-.44.84-.03-.26.45-.99.66-.84.03zm-.92-13.42c-.25-.15-.56.25-.77-.23.29-.75 1.12.39.77.23zm-1.12 13.2c-.44.03-.85-.24-1.26-.41.44-.44 1.55-.43 1.26.41zm-1.34-.54c-.3.19-.58.17-.87.23.2-.45.52-.54.87-.23zm-2.21 2.71c.26.44.67-.32.93.13-.29.36-1.05.45-.93-.13zm.63-2.82c-.21-.31-.45-.21-.21-.61.16.25.39-.12.52.31l-.31.3zm.41-13.9c-.25.73-.98.13-1.39-.22.5-.22.9.36 1.39.22zm-.54 14.23c-.17.13-.36.42-.5.28.06-.07.11-.14.03-.23-.18.18-.33.16-.48.05.35-.32.67-.38.95-.1zm-4.66 1.71c-.7.28-1.34.06-1.93-.44.85.09 1.22.18 1.93.44zm-2.18-4.59c-.3.25-.09.41-.44.39-.36-.43.24-.97.44-.39zm-3.82 2.78c.27.14.27.76.74.73-.33.5-.5-.05-.81.31-.3-.4-.39-.77.07-1.04zm-6.85-.61c-.42.2-.78.12-1.1-.24.42-.2.78-.12 1.1.24zm-1.67-5.19l.14.27c.07-.05.14-.09.18.04-.25.5-.76.74-1.1.34.34-.44.7-.15.78-.65zm28.61-13.48c-.34.59-.63.39-.91.03.08-.51.65-.43.91-.03zm-8.61-2.14c-.21.13-.49.79-.63.25-.09-.36.54-.74.63-.25zm-4.27 3.24c-.29.37-.51.24-.72.11.27-.23.54-.48.72-.11zm-3.75-1.17c-.06.44-.46.54-.63 0 .23-.14.47-.38.63 0zm-3.33-1.85c.5 1.01.62.96 1.23 1.44-.44.33-1.03.71-1.63.48-.03-.28.54-.43.22-.78-.53.24-.36.63-.61.93-.11-.27-.28-.19-.39-.43.41-.81.79-.93 1.18-1.64zm-2.79.35c.55-.21 1.02.06 1.48.43-.32.42-.33.1-.68.8-.12-.18-.22-.52-.38-.43-.14.13.02.32-.08.45-.29-.27-.71.27-.92-.55.36-.45.9.1.58-.7zm-2.83-.28c-.31.35-.55.3-.72-.16.31-.35.49.08.72.16zm-4.07-1.39c-.43.21-1.18.26-1.16-.39.42-.05.85-.12 1.16.39zm-9.1-1.86c.33-.41.7.15.39.45-.2-.23-.47 0-.39-.45zm-29.64-6.94c.09.19.2.26.32.32-.05.3-.44.61-.68.54-.27-.39.02-.63.36-.86zm-6.25-.57c.26.26.7-.35.9.24-.28.12-1.06.29-.9-.24zm-24.49-4.57c.18.34.58 0 .64-.3.12.23.18.45.15.64-.27.17-.99.21-.79-.34zm-1.54-1.27c.25.51.04.88.01 1.31.4-.47.96-.52.84.11-.53.09-1.57.23-1.58-.68.57.52.39-.49.73-.74zm-1.98.75c.22.16.53-.09.72.2-.09.72-1.17.27-.72-.2zM23.68 8.89c-.2-.38.17-.58.21-.89.17.23.45.02.55.54-.27.19-.45 0-.76.35zM6.49 22.42c.1-.41.62-.54.88-.43-.07.3-.7.84-.88.43zm15.18 9.1c-.15-.43-.25-.46-.36-.12-.32-.49.59-.71.65-.27-.17.11-.23.25-.29.39zm.62-1.36c-.63.1-.72.2-1.35.77-.09-.55-.37-.34-.66-.09-.18-.57-.23-.62-.27-1.29-.57.3-.35.85-.32 1.33-.69-.47-.38-1.52.19-1.98.43 1.01 1.43-.3 1.98.28.21.58-.41.15-.34.61.33-.18.86-.06.77.37zm-.26-.92c.29-.14.59-.29.72.23-.31.19-.55.11-.72-.23zm2.46-11.33c-.39.24-.42.72-.71.13.07-.33.55-.56.71-.13zm-.71 12.13c.54-.21 1.07-.4 1.43.1-.46-.1-1.07.42-1.43-.1zm1.4-10.95c-.22-.21-.58.52-.76.72-.33-.35.03-.47-.02-.73-.11.03-.19-.02-.24-.2.48.02.84.24.82-.58.22.07.29.5.2.79zm1.12 11.76c.13.39.5-.21.6.31-.28.45-.84.08-.6-.31zm3.99-19.59c.92-.36 1.65-.38 2.23-1.2l.25.56c-.59.08-1.56 1.37-2.48.64zm2.97-.24c-.1-.27-.13-.52-.02-.73.63.07 1.33-.13 1.91.13-.65.27-1.24.32-1.89.6zm3.34 25.9c-.2.15-.38.22-.53.19-.34-.67.54-.95.02-1.67.35.01.81-.41 1.02.21-.59-.21-.94.5-.51 1.27zm1.54-26.02c-.57.42-1.63.64-2.42.78-.2-.46.09-.77.45-1.05.5-.16 1.12.06 1.9-.23.06.18.2.38.07.5zm5.64 24.48c.17-.42.96-.67 1.25-.32-.51.47-.86.3-1.25.32zm17.04 2.77l.47-.33.19.42c-.32.39-.47.04-.66-.09zm.76-.36c.44.18.96.04 1.33.54-.55.31-1.01.19-1.33-.54zm1.51.24c.25.46.75-.15 1.02.2-.42.51-1.18.36-1.02-.2zM71.1 1.61c.16-.25.29-.41.47-.33-.12.12-.03.31.07.5-.25.21-.43.15-.54-.17zm1.5-.48c-.31.38-.37.34-.73.84-.17-.45.08-.77.09-1.17.06.1.15.1.24.07.18-.05.39-.2.47.16a.36.36 0 01-.07.1zm.65 1.16c.58-.3.23-.42.04-.62-.1-.1-.15-.22-.05-.39.06-.09.16-.2.34-.33.01.02.01.02.01.04.15.45.13.54.37.66.04.02.07.04.12.06-.16.29-.48 1.04-.83.58zm1.98-.78c.01.03.01.06.02.1-.51-.04-.67.91-1.16.83-.01-.29-.03-.59.08-.85.06-.13.14-.25.3-.35.05.08.09.19.15.27.04.06.09.1.16.07.02-.02.04-.05.05-.08.13-.28.17-.94.52-.7.01.25-.2.43-.12.71zm4.56 39.47c.43-.3.64.31 1.02.2-.43.33-.75.17-1.02-.2zm10.65 1.85c.4.35.45-.43.78 0 .03.28-1.07.71-.78 0zm1.83.92c-.35.23-.58-.01-.84-.14.08-.39.45-.16.82-.59.25.32-.11.45.02.73zm9.84 2.4c-.16-.33-.91-.23-.69-.81.27.67 1.01-.12.69.81zm2.18.66c-.2-.24-.48-.19-.62-.67.48-.4.86-.37 1.24-.34l.19.42c-.57.1-.46.02-.81.59zm5.07 1.17c-.14-.58-.89-.36-.46-.97.08.43.72.5.46.97zm21.26 5.2c-.22-.17-.56.17-.68-.44.27-.29.9.01.68.44zm7.3-36.5c-.33-.55-.88-.05-1.26-.36.4-.24.72-.51.67-.88.2.37.55.1.78.34-.66.59.17.52-.19.9zm1.17-.49c.28-.26.52-.32.66.07-.29.26-.53.32-.66-.07zm.68.79c.19-.22.15-.51.44-.7.15.37-.07 1.16-.44.7zm1.81.52c-.17-.23-.41-.16-.56-.52.16-.1.08-.82.39-.48-.25.24-.09.57.2.42-.03-.25.02-.47.15-.67.13.27.4-.06.49.38-.53.2-.15.67-.67.87zm.89 38.73c-.16-.24-.15.22-.3.04.28-.26-.27-.12-.27-.55.24-.32.78.21.57.51zm3.46-39.38l.26.55c-.38.44-.75-.32-.26-.55zm1.43 1.37c.13-.16.13-.36.39-.48.11.51.38.29.56.52-.37.24-.73.41-.95-.04zm.57 37.87c-.05-.21.04-.39-.15-.64.49-.31.93-.42 1.21.22-.48-.08-.99.12-1.06.42zm3.99-36.82c-.33-.4-1.41.37-1.33-.49.41.18 1.37-.4 1.33.49zm-2.02 38.92c.34-.73.9-.47 1.31-.23-.5.39-.97.64-1.31.23zm.54-1.16c.61-.42 1.08-.22 1.51.18-.59.37-.97-.27-1.51-.18zm1.75.01c.12.18.3.09.43.24-.15.11.01.32-.09.45-.08-.09-.18-.09-.3.04-.19-.29-.23-.54-.04-.73zm.1.86c.25.32.65-.02.87.48-.32.23-1.04.05-.87-.48zm1.09 1.26c.36-.47.52.01.78-.02-.03-.13-.13-.27-.02-.36.1.19.09.34.09.5-.29.01-.63.2-.85-.12zm3.05-.22c-.36.2-.6-.19-.92-.26.43-.47 1.04-.41.92.26zm.95 1.92c-.15-.24-.02-.4-.16-.64-.12.09-.08.22-.16.31-.34-.37-.06-.57.26-.76.1.15.17.4.32.32-.06-.17.11-.29.28-.4l.2.41c-.59.38-.48.25-.74.76zm.91-1.06c.15-.16-.02-.4.03-.59.62-.34 1.12-.1 1.58.31-.36.22-.2.58-.56.8-.33-.28-.74-.19-1.05-.52zm1.02 1.11c.07-.1.08-.22-.02-.36-.15.09-.29.17-.37-.1.52.01 1.04-.04 1.47.4-.54-.02-.69.16-1.08.06zm.88-.47c-.35-.61-.21-1.09.03-1.53.09.19.2.26.32.32-.29.35.19.92-.35 1.21zm1.81 1.08c-.35-.33-1.33-.13-1.31-.71.24.24.57.04.85.11-.1-.28-.28-.21-.39-.46.3-.13.72-.17.81-.61.09.58.1 1.13.04 1.67zm2.98-.38c-.31.11-.61.12-.8-.34.35-.31.61-.15.85.11-.07.07-.13.14-.05.23zm2.29 1.1c.1-.21-.35-.36-.39-.46-.15.16-.08.37-.21.54-.5-.04-.54-.69-.07-1.09.47.23.99.23 1.42.62-.4.16-.58.43-.75.39zm3.35.67c-.12-.48-.48.14-.57-.51.31-.18.94.12.57.51zm.23 2.67c-.19-.29-.23-.53-.04-.72.1.15.18.41.32.32.11-.04.23-.17.3-.04l-.58.44zm1.26-.97c-.08-.22-.29-.47-.16-.64.39.47.61.4.9-.12.16.71-.36.63-.74.76zm1.75-.02c.54-.28.99-.11 1.45.02-.53.21-1.06.47-1.45-.02zm.78-.98c-.42.82-.44-.09-.74-.19.12.66-.42.96-.64 1.25-.35-.61.74-.83.39-1.44-.13.16-.12.36-.39.49-.14-.03-.64-.57-.41-.82.45.52 2.8-1.06 2.02.53.37.1 1.32-.18 1.24.56-.3.39-1.37.24-1.47-.38zm1.8-.24c.36-.19.67-.11.92.24-.42.43-.67.08-.92-.24zm2.51-9.53c-.34-.4-.44.39-.94.34-.4-.8 1.17-1.28.94-.34zm4.36-.16c.32-.14.65-.34.85.1-.35.32-.63.27-.85-.1zm1.77 3.19c-.37-.53.17-.82.52-1.17.12.21.34-.12.44.23-.48.67-.57.16-.96.94zm1.17-.53c-.38-.8.83-1 1.05-.44-.15.16-.08.37-.2.54-.62-.07-.27-.92-.85-.1zm1.86.82c-.4.29-.92-.48-1.12.31l-.28-.54c.32-.37.48-.02.57-.45.47.42.74.49 1.01-.22.35.32-.01.47.05.72l.57-.45c.33.76-.19.99.51 1.31-.45.01-1.29-.03-1.31-.68zm1.32-1.79c-.18-.23-.5.24-.62-.28.26-.45.84-.12.62.28zm9.49-7.3c-.63.34-.61.38-.77.99-.11-.41-.3-.45-.55-.14-.22-.78.88-1.36 1.32-.85zm-.29 10.92c-.06.34-.58.48-.78.04.29-.16.57-.24.78-.04zm-2.72 7.12c-.33.12-.16.97-.61.67.2-.19-.17-.51-.05-.72.27-.27.51-.33.66.05zm-.27-9.53c-.07.36-.56.35-.78.04.32-.34.55-.19.78-.04zm-1.25.75c.09.02.18.06.27.1.35.15.71.39 1.01.47-.3.16-.12.44-.5.58-.33-1.09-1.01-.43-1.45-.96.17-.24.41-.26.67-.19zm-2.57.54c.37-.39.65-.35.89-.13-.08.41-.71.78-.89.13zm2.05 9.27c.28-.27.52-.34.67.05-.28.27-.52.33-.67-.05zm-.23-8.22c.57-.26.31-.21.61-.67.28.04 1.04.07.65.64-.42-.75-.75.69-1.26.03zm1.29 10.26c.08-.17.51-.46.47-.95-.26.18-.42-.15-.58-.5.52-.19 1.11-.76 1.49-.22-.8.38-.61 2.41-1.38 1.67zm2.2-.39c-.19-.34-.56.24-.69-.41.26-.31.89-.03.69.41zm-.79-.91c.42-.53.66-.1.97.01-.33.04-.71.33-.97-.01zm3-6.58c-.47-.72-1.67-.31-1.82-1.05.52.39 2.08-.12 1.82 1.05zm2.4.59c-.4-.6-1.09.3-1.48-.35.43.11 1.83-.67 1.48.35zm68.01 22.22c.5.12.4-.21 1.12-.03-.16.37-.37.67-.69.72.22-.5-.46-.21-.34.12-.29-.28-.17-.55-.09-.81zm-6.26-.46c-.4-.06-1.37.15-1.38-.43.47.02.94.01 1.38.43zm-2.95-1.09c.21.19.97.29.81.74-.24.18-.97-.34-.81-.74zm-6.28-2.05c-.42.35-.88.93-1.21.45.43-.35.85-.66 1.21-.45zm-1.99.92c.1.6.38.37.74.8-.71.02-1.41 1.21-1.7.24.62-.11.63-.59.96-1.04zm-1.19 1.24c-.4-.36-.17-.64-.51-.99.31-.24.57-.12.85-.12-.24.35-.03.76-.34 1.11zm.21-2.65c-.18.21-.83.14-.69.61.16.5.96-.04.76.57-.38-.04-.77.07-1.08-.49.22-.16.18-.36-.03-.59.37-.25.72-.28 1.04-.1zm-1.68 1.06c.31-.01.61.15.88.47-.33.57-1-.29-.88-.47zm-3.5-1.69c.41.17.35.85.97.39.09-.39-.56-.38-.19-.85.4.05.61.3.71.82-.62.56-1.73.67-1.83-.07.19.19.13-.15.34-.29zm-1.56-.49c.19.07.38.22.53.56-.31.23-.57.19-.8-.13.17-.13.22-.28.27-.43zm-.7-.81c-.32.34-.51-.23-.76-.36.35-.55.54.02.76.36zm.51 3.58c-.54.16-1.06.21-1.49-.36.53-.12.99.23 1.49.36zM241 76.88c-.02.13-.36.76-.57.48.08-.3.2-.87.57-.48zm.75 2.36c-.2.47-.71.16-1.04.86-.5-.37.47-.46.22-.78-.22-.28-.6.37-.78-.15.6-.43 1.09-.1 1.6.07zm-3.11-1.99c.4.49.08 1.24-.3 1.23-.15-.46-.08-.87.3-1.23zm-1.3-2.48c.1.16.25.06.35.31l-.57.47c-.24-.33.03-.54.22-.78zm-.14 2.67c.04.75.45.23.78.74-.5.35-.82-.29-1.31.09-.13-.24-.27-.4-.43-.44.52-.18.54.31.96-.39zm-2.15-1.38c.14.15.31.12.42.44-.45.08-.34.5-.73.2.23-.19-.06-.48.31-.64zm-.88.52c.48.91 1.77.1 1.92.98-.55-.16-2.2.24-1.92-.98zm-2.62-.79c-.15.17-.07.38-.19.54-.15-.48-.46 0-.6-.48.28-.17.56-.26.79-.06zm-4.02-1.59l-.68.55c-.16-.71-.59.07-.78-.53.54-.27.99-.12 1.46-.02zm-3.11-6.36c-.05.26 0 .55-.42.73-.42-.43.14-1.15.42-.73zm-.13 1.26l.22.4c-.3.41-.46.08-.67-.04l.45-.36zm-1.83-2.64c.08.11.13.23.11.37-.36.29-.4.04-.51-.24-.06-.17-.15-.35-.34-.43.25-.08.58.06.74.3zm-.68-1.25c.02 0 .03.01.05.02.12.05.19.18.1.39-.2-.32-.4.27-.45.37l-.29-.54c.15-.2.41-.29.59-.24zm-1.84-2.41l.22.4c-.06.06-.12.11-.18.15-.16.11-.31.09-.42-.08-.02-.03-.05-.06-.07-.1l.45-.37zm-4.29 3.49c-.04.25-.5.47-.75.42.23-.32-.4-.19-.47-.58.47-.31.83-.01 1.22.16zm-3.69-14.33c-.19-.33-.44-.25-.17-.63.41.09.15.54.49.95.5-.48.74.49 1.25-.05-.23-.16-.49-.09-.65-.63.24-.28.37.05.63-.32.3.25-.24.87.24.77.32-.2-.19-.6.24-.77.2-.03.36.12.51.36-.08.34-.52.58-.46.95.23-.02.39.31.58.49-1.31-.16-2.61-.35-3.8-1.16.52-.74.66.58 1.14.04zm1.02 14.17c-.09-.22-.3-.46-.17-.63.39.31.94-.24 1.25.54-.54.24-.72-.32-1.08.09zm.19 5.24c-.24.08-.58.7-.75.41.05-.3.55-.78.75-.41zm-.92-7.53c-.12-.24-.25-.4-.4-.45l.23-.18c-.04-.09-.07-.17.04-.22.42.64.22-.46.49-.59.03.04.07.06.1.08.17.08.37 0 .48.41-.5.27-.57.64-.94.95zm-1.77-13.18c.4.43-.39 1.08-.6.68.16-.49.56.05.6-.68zm-.73-.17l.21.41c-.41.29-.84.74-1.11.32.09-.51.53-.25.9-.73zm-2.33 12.42c.28-.06.98-.13.58.49-.06-.57-.84.12-.58-.49zm-2.65-13.39c-.36.39-.62.73-.1 1.04-.35.16-.64-.01-.87-.45.35-.35.53-1.2.97-.59zm-2.32 12.18c.03-.02.04-.04.07-.06.12-.1.21-.21.27-.33.02-.04.04-.07.05-.1l.06.12.08.15c-.08.15-.11.27-.11.38-.01.28.18.47.49.66-.63.39-.63-.19-.91-.82zm1.27-.63c-.4-.61-.97-.3-1.39-.81.62-.4 1.58.13 1.73.53-.14-.18-.29.11-.34.28zm-.43-2.16a.57.57 0 01-.06-.32c.28.1.86.12 1.1.41.07.09.11.2.1.35-.26-.3-.94-.09-1.14-.44zm1.02 3.91c-.07-.04-.15-.07-.22-.13.15-.05.33-.07.51-.08.28-.01.58.02.88.06.31.04.62.08.91.1-.03-.11-.07-.23-.1-.34-.04-.18-.04-.35.16-.48-.02.32.01.46.08.53.11.12.32.04.55.21.05.04.11.09.16.16-.2.18-.37.25-.49.38a.56.56 0 00-.1.15c-.06.13-.1.31-.1.61-.36-1.27-1.45-.74-2.24-1.17zm1.91 8.53c.07-.22.21-.42.5-.59.15.6.48.16.66.63l-.23.18c-.2-.51-.49 0-.93-.22zm1.92 2.12c-.47-.25-1.06.13-1.44-.58.5.01.48-.77.91-.72.46.36-.2 1.04.2.99.19-.23 0-.55.42-.72.21.39.02.7-.09 1.03zm-.63-1.81c.39-.38.69-.26.97 0-.33.05-.71.34-.97 0zm1.36-7.22c.32-.17.62-.23.89-.14-.2.14.73.26.24.77-.36-.31-.76-.41-1.13-.63zm.34 7.98c.19-.15-.14-.42.01-.58.2.29.53-.07.7.4-.27.25-.54.47-.71.18zm-.06-4.37c.4-.08.76.08 1.15.04-.08.3-1.22.52-1.15-.04zm2.16 5c-.41-.41-.92-.26-1.33-.67.61-.13 1.11.29 1.67.4l-.34.27zm-1.11-8.53c.17-.27.11-.6-.02-.95-.12.48-.16.51-.57.45-.17-.24.01-.39.01-.58-.3.56-.24.15-.6.09.18.53-.41.5-.59.09.06-.39.44-.18.79-.64.62.28.6.62.96 0 .35.07.37.48.24.77.68-.35 1.63.04 1.93.82.03.08.06.16.08.25-.09-.09-.18-.16-.27-.23-.64-.43-1.43-.33-1.96-.07zm1.6 8.53c.16-.12.22-.26.27-.41.18.28.9.32.73.77-.28-.41-.75.21-1-.36zm2.25.89c-.45.24-.97.76-1.49.24.29-.38.45-.03.75-.41-.2-.32-.44-.25-.18-.63.26.21 1.07.15.92.8zm-.04-8.64c-.01 0-.01.01-.02.01-.03-.01-.06-.01-.09-.02-.21-.07-.44-.06-.64-.16.37-.32.46-.75.86-.5-.2.19.14.5-.11.67zm1.41 9.07c-.4-.58-.95.43-1.24.42-.29-.67.27-.46.58-1.05.1.5.38.03.6-.1.2.29.24.53.06.73zm2.95-6.63c-.25-.19-.59.08-.81-.31.24-.03 1.01-.29.81.31zm.31 3.61c.28-.28.51-.35.67.03-.28.28-.52.35-.67-.03zm2.17-2.92c-.24-.25-.57-.05-.81-.3a.54.54 0 01.27-.14c.19-.05.39-.03.49.08.07.07.1.18.05.36zm-.71-1.69c-.28.2-.53.43-.77.77-.23-.63-.71-.64-1.23-.54-.42.08-.87.24-1.22.21.13-.21.67-.32.49-.59-.4.25-.71.04-1.12.33.1.14.37.14.22.4-.27-.46-1.23.1-1.14-.61.32.33.94-.08 1-.59.01-.12.01-.24-.05-.37-.06.27-.23.36-.43.36-.32 0-.7-.26-.83-.5a.343.343 0 01-.04-.16c.01 0 .03.01.04.02.13.05.32.14.52.2.34.11.66.11.63-.37v-.04c-.04.02-.08.02-.12.02h-.01c-.12 0-.22-.07-.31-.24.35-.2.55 0 .71.3.1.2.18.43.26.63.07.18.14.33.22.4l.43-.35.13-.1.01-.01c.59.83 1.31.87 2.06.82.13-.39.35-.69.54-.86a.69.69 0 01.21-.14c-.11.89.4-.23.7.4-.32.23-.62.41-.9.61zm1.59 2.13c.16.17.42-.17.51.35-.24.56-.73-.1-.51-.35zm.56-.46c-.08-.18-.17-.29-.28-.36-.3-.2-.66-.05-.94-.39.32-.4.07-.86.65-.91.39.4-.01.63.02.95.3-.07.55.14.89-.15.11.15.11.27.08.38-.04.18-.21.33-.42.48zm.3 4.78c.06-.34.58-.49.78-.06-.31.35-.55.21-.78.06zm3.2.49c-.34.11-.76.67-1.01.24.37-.29.77-.7 1.01-.24zm-.97.02c-.49.05-.94-.14-1.37-.43.48-.13 1.34-.24 1.37.43zm-.34-5.14c.13-.28-.04-.64-.02-.95.27-.28.44.04.63.26-.29.15-.39.91-.61.69zm.83-1.21a.85.85 0 01-.07.21c-.19-.55-1.07-.09-.96-.57.23.01.77-.12.97.07.07.05.09.14.06.29zm8.39-.73c.21.51.12.72.86 1.24-.74.58-1.22-.61-.86-1.24zm.1 3.43c.55-.43.32.18.68.61-.37.47-.74-.26-.68-.61zm1.1-.71c-.16-.38-.57.65-.68-.02l.57-.47c.06.17.23.36.11.49zm.03-9.39c-.38-.24-.89.33-1.18-.38.41-.37.72-.11 1.11-.34.2.28.25.53.07.72zm.15 9.43c.71-.32 1.32-.13 1.93.17-.25 1.05-1.34.32-1.93-.17zm1.83 2.02c-.62.14-.81-.35-1.14-.82.06-.08.09-.16.13-.24.05-.1.11-.19.25-.26.14.14.17.25.17.36 0 .16-.08.31-.02.49.26-.17.44-.26.58-.37.17-.13.28-.27.37-.61.31.06.21.36.25.66 0 .03 0 .06.01.1-.32.36-.55.18-.83.3.1.13.37.12.23.39zm.67-1.16c.33-.41.53-.03.79-.07-.08.53-.58.54-.79.07zm-.23-1.57c-.39.36-.7.3-.95-.2.46-.48.47.21.75-.43.15.23.22.44.2.63.42-.59 1.18-.12 1.09.46-.29-.55-.82.3-1.09-.46zm3.05-6.89c-.55.43-1 .24-1.46.06.54-.38 1-.23 1.46-.06zm-1.56 9.19c.29.02.7-.66.92-.18-.34.3-.65.37-.92.18zm1.89.59c-.19-.07-.36-.23-.5-.56.33-.48.83.26.5.56zm2.17-.64c-.18-.53-.46-.45-.7-.6.44-.15.26-.2.68-.57.11.47.21.67.65.24.15.22.22.43.2.62-.32.37-.55.18-.83.31zm1.59 2.02c.23.28.55-.1.75.36-.26.34-.92-.04-.75-.36zm.97.98c-.4-.27-.14-1.02.21-.78-.33.22.22.58-.21.78zm.8-2.75c-.08.13-.19.26-.37.37-.46-.54-1.06.01-1.56-.26.1-.17.2-.27.31-.34.11-.03.21-.07.31-.1.28-.02.61.09.97.14.05.01.09.01.14.02.12-.15.1-.4.31-.07-.02.08-.06.16-.11.24zm-.44-1.97c.27-.3.48-.14.66.23-.27.29-.48.13-.66-.23zm2.33 4.81c.41-.29.8-.46 1.11.04-.41.29-.76.06-1.11-.04zm1.46-9.79c-.48.43-1.37.1-1.38-.57.32.71.83.04 1.25.09-.2.3.26.07.13.48zm1.56.8c.26-.31.47-.16.66.21-.27.3-.48.15-.66-.21zm1.28 10.29c-.27-.62-.63-.41-.92-.82.41-.37.7.33 1.16-.42.16.35.39.09.55.54-.49.32-.38.22-.79.7zm2.95.21c-.45-.63-1.05.18-1.49-.5.08-.51 1.87-.2 1.49.5zm1.72-9.55c-.48-.59.46-.85.73-.5-.26.41-.46.09-.73.5zm7.17 3.66c-.33.42-1.13-.03-1.08-.41.36.17.74-.03 1.08.41zm-1.01 2.97l.36-.36c.13.15.27.03.39.25.02.16-.06.32-.18.44-.27.27-.77.41-1.08.17l.51-.5zm1.02.9c-.2.48-.19.98.33 1.21-.01.42-.37.29-.65.44-.15-.69-.75-.25-1.21-.53.51-.66-.44-.03-.57-.73.46-.23.87.31 1.32.2.21-.16.35-.35.47-.56.35-.62.42-1.3 1.06-1-.27.18-.58.57-.75.97zm-.06-6.64c-.17-.2-.26-.4-.26-.59.43-.09.87-.39 1.28.16-.36.51-.66-.12-1.02.43zm12.29 7.03c-.1.17.06.3.22.44-.53.33-1.08-.34-1.61.02.44-.52.74-.44 1.39-.46zm-1.26 1.5c-.25-.16-.5-.02-.75-.32.29-.42 1.06-.21.75.32zm-.87-1.81c.32.24.63-.02.96.3-.26.44-1.05.22-.96-.3zm4.47-4.74c-.31.07-.59.83-.91.43.29-.39.58-.88.91-.43zm-1.65.15l.32.32-.3.37c-.18.25.29.44.02.69-.22-.5-.41.32-.63-.17.31-.42.21-.79.59-1.21zm-2.34 1.47c.31.08.63.34.95.5-.45.12-.9.5-1.34.67.2-.2.13-.39-.11-.57l.5-.6zm-2.27-.38c.17.82.68.01 1.13.3-.25 1.05-1.42.6-1.13-.3zm.95 4.92l-.42.48c-.22-.18-.12-.38-.32-.56.25-.36.49-.25.74.08zm-.42-1.14c.01.3-.35.71-.63.71-.47-.21.26-.47-.21-.68.28-.29.56-.3.84-.03zm-2.15-4.65c.24-.31.48-.59.71-.37-.11.16-.21.31 0 .46.37-.24.12-.46.41-.7.47.41-.21.85-.31 1.28-.37-.09-.12-.72-.41-.45-.18.28.07.54-.11.81l-.41-.45c.16-.19.38-.39.12-.58zm-.68-2.16c-.44.37-.87.24-1.3-.1.44-.46.87-.45 1.3.1zm-2.13 4.6c.23.44.48-.09.71.36l-.42.46c-.13-.28-.37-.55-.29-.82zm-2.05-.03c.38-.07.76-.27 1.13-.1-.4.55-.76.22-1.13.1zm.68 6.12c-.21.01-.62-.5-.28-.81.26.27.51.54.28.81zm3.26 2.22c.2-.24-.27-.45.02-.69.51-.17.49.86-.02.69zm-.1-.81c-.24-.18-.06-.38-.1-.57-.18.19-.35-.25-.53-.12.19.19.3.39.31.58-.4.36-.68-.04-.55.57-.25-.01-.51.12-.74-.35.15-.25.44-.12.33-.34-.36.01-.71-.1-1.06-.24.44-.42-.04-.13-.2-.46.27-.47.49.23.75-.11-.34-.64-.7-.39-1.04-.71-.08-.21-.45-.99.14-.81-.23.43.4.15.51.58.45-.69.84.12 1.28-.21.3.56.51.71 1.05.69.18-.2-.23-.38-.1-.57.94.6.4 1.1-.05 2.07zm1.37-4.65c-.56-.42-1.13.23-1.68-.18.56.09 1.14-.78 1.69-.28-.14.16.08.3-.01.46zm-.18-2.99c.17-.59.35-.91.93-.61-.68.01-.23.68-.93.61zm.7 4.24c-.14.31.7.59.21.91-.53.03 0-.49-.53-.79l.54-.59c.12.27.75.11.53.56-.26.13-.5-.14-.75-.09zm4.95.88c.08.26-.18.56-.31.84-.29.13-.58.15-.88.08-.13-.33.04-.7.09-1.05-.21.37-.42.53-.63.62-.27.1-.53.08-.8.14-.02.01-.04.01-.07.01-.46-.79-.89-.64-1.61-.97.32-.61 1.47-.19 2.14-.08a.457.457 0 01-.11-.57c.64-.03.83.16.54.55.49-.16 2.03-.73 2.51.36-.54-.27-.39.14-.87.07zm1.55-2.56c-.2.36-.1.7-.07 1.04-.22-.21-.43.21-.65-.17.83-.89-.79-.32-.57-.98.44.3 1.4-.55 1.51.32l-.22-.21zm.84-.31c-.22-.14-.21.57-.64.06l.41-.5c.11.14.33.27.23.44z" fill="#fd7c97"/></svg>