<svg xmlns="http://www.w3.org/2000/svg" width="410.54" height="93.59"><path class="st0" d="M392.95 50.49c-.7-.03-.44-.17-1.15-.51-.28.41.11.53.4.68-.4.29-.86.41-1.33.46-.82.08-1.7-.08-2.52-.04l.01-.01c.8-.9 2.18-.07 2.97-1.04-.57.06-1.14.11-1.79-.09.44-.55 1.26-.04 1.46-1.31.42.27.05.89.69 1.06.13-.39.42-.34.54-.76.45.08.24.46.13.8.38.17.48-.47.94-.08-.17-.91.92-.82.68-1.69.93.14.35.99 1.1 1.22.39-.72 1.89-.76 2.18-.32.65-.94 1.02 0 1.67-.82.53.36-.36.4-.32.88 1.03.2 1.56-.86 2.53-.83.11-.61.11-.8-.12-1.53.52-.11 1.28-.86 1.01-1.61.74-.05-.09.76.64.71.49-.05.67-.81 1.3-.53.36-.66-.15-.8.37-1.09.66.22-.22 1.3.08 1.73-.14.6-1.05-.58-1.03.39.42.6 1.48-.09 1.86-.84.63.01.42.48.94.55.47-.91 1.58-2.37 2.12-1.87.31 0 .14-.4-.06-.51.45-.42.85-.91 1.69-.52.06-.73.55-.58.61-1.31-.36.84-1.63-.22-1.82.98-.73-.45-.31-1.09-1.47-.9.31-1.44 1.03-.56 1.27-.62.19-1.02-.78-.17-1.07-.78-.05.62-.32.79-.8.5-.1.76-.58.59-.34 1.13.59.04.78-.57 1 .28-.19.45-.9-.2-1 .45-.49-.4.02-.97-.86-.74.72.79-.6.36-1.07.65-.13-.1-.3-.68-.12-.88-.51.07-1.52-.19-1.94.41-1.05-.95-1.52.31-2.43-.63-.57.63-.23 1.21-.98 1.59-.24-.16.02-.6.1-.94-.96-.61-1.31.26-2.03.21-.05.49.14.58.5.44-.08.92-.95.51-.64 1.23-.1-.12-.55-.82-.77-.31-.49-.43-.1-.39.11-.93-.92-.15-1.37.87-2.5.14.35 1.66-1.27-.25-1.4 1.33-.21-.98-.71-.1-1.05-.72.45-.34.87-.75 1.64-.24-.03-1.43 1.61-1.02 2.73-.74-.13-.46-.25-.92.14-1.66-.73 2.08-4.62-.28-4.86 2.97-.91.24-1.68.85-2.71.71-.07.47.11.59.47.47l-.51 1.23c-.24.21-.56.17-.92.02.25-.64.84-.28.97-1.22-.54-.24-.93-.03-1.47-.27l-.34.81c-.22.12-.47.13-.73.11-.39-.24-.18-.72.06-1.2-1.1.12-.06 1.65-1.33 1.52-.03.29.05.54.38.7-.19.36-.42.61-.72.62.11-1.52-2.1-1.07-3-1.38.67-.67 2.94-.53 2.5-1.63.8-.33 1.77-.12 2.52-.63-.21-.88-1.06.13-1.54-.08.5-.65.62-.32.78-1.31.77 1.17.83-.15 1.57 1.07.48-.81-.02-1.23-.42-1.68.42-.47.76.47 1.11.56.18-.49.55-.46.66-1.16.59.08.37.52.84.65.32-.99.33-.19.98-.27.45-.74 1.21-.65 1.63-1.43.67.09.19.72.52.97-.56.54-2.01.39-1.46 1.53.39-.07.54-.79.85-1.08.11.18.22.36.49.47.34-.91.44-1.02 1.15-.7.55-.89-.5-1.03.04-1.91.1-.15.27-.12.34-.33.63.17.35.76.46 1.17.63.54.73-.28 1.29.06.19-.34-.01-.47-.23-.58.63-.77 1.98.17 2.23-1.55 1.63-.27 2.43-1.48 4.03-1.12.12-.94.78-.69 1.16-1.06-.17-.78-.42-.81-.21-1.51-.88-.25-.8-.06-1.53-.5.04.86.2.55.01 1.44-.48.5-1.26.3-1.5 1.35-.56-.35.09-1.35-.05-1.92-.47-.2-1.22.82-1.47-.09-.95.23-1.36 1.74-2.68 1.09.32-.72.95-.73 1.29-1.4-.39.05-.67.4-1.26-.03.12.68 0 .75-.51.27-.55 1.55-2.15.54-2.99 1.35-.63-.06-.17-.61-.09-.99-.54-.37-.68.32-1.14.18.43.42.64.95 1.53 1.19.12.23.15.5.16.79-.29.19-.65.18-.97.27-.26-.22.07-.72-.59-.76-.23.39-.07.6-.11.91-.12.2-.42-.03-.52.24-.55-.49.15-.47-.07-1 .24-.56.97.16 1.1-.67-2.13.57-4.16 1.39-6.24 2-2.09.58-4.19 1.1-6.35 1.34.11 1.33-1.4 1.11-1.92.28-.08.74.53 1.26.44 2.01-.67.56-.95-.69-1.58.01-.19-.16.02-.45.09-.69-.71.03-1.17.95-1.93.78.33-1.91-1.8-.37-3.17-1.35-.45.44.22.6.5.85-1.08.22-.65-.07-1.72-.2-.1.3.47.42.32.73-.23.17-.53.1-.86-.1.03.32-.03.66-.3 1.06-.46.64-.6-.7-1.05.28-.27-.26-.22-.59.04-.99-1.68-.05-1.53-.55-3.38.37-.16-.23-.22-.49-.04-.8-1.02 1.16-2.43.55-3.53 1.4-.1-.19-.21-.39-.13-.62-.49.07-.86.67-1.22 1.39-.48-.22-.54-.53-.19-.93-1.5.74-3.39-.77-4.65 1.18-.56-.27-.02-.74-.59-1.02.2-.35.56.14.73-.44-1.17.46-2.54 1.67-4.22 1.19-.08.71 1.11.33.47 1.21-.8-.55-1.44-1-1.98-.68-.23 1.04.56 0 .99.34-.37.76-.91.43-1.37.67-.1-.52-.06-1.05.01-1.59-1.28.41-2.05 1.7-3.66 1.3-.14-.19.11-.44-.1-.62-.26-.27-.45-.08-.72-.38-.39.66-.14.65-.65 1.03-.09-.31-.27-.6-.66-.88-.6.4-1.28.28-1.93.37-.36-.37.32-.59.48-.37-.64-.9-1.57.34-1.8 1.31-.73-.34-.19-.83.09-1.28-.91.1-1.65 1.5-2.63 1.08-.29-.18.13-.78.38-.54-.27-.5-.75-.67-1.32-.64.19-.07.75-.28.18-.65.24-.2.57.32.74-.38-.5-.53-.86.09-1.33-.2.22.4-.02 1.22-.55.84-.1.31.23.12.45.44-.48.34-.99.45-1.4 1.39-.67-.37.18-.86-.41-1.23-.32.54-.98.6-.89 1.34-1.13-.1-2.45-.41-3.15-.06.03.36.22.72-.26 1.12-.53-.87.16-1.39-.96-1.51.27-.66.67-.24 1-.38-.14-.8-1.19.21-1.7-.04-.02.27.22.51-.04.79-.45-.3-.71-.05-1.14-.87-.45.4-.08.74-.53 1.14-.37.13-.91-1.33-1.44-.06-.4-.29-.11-.62-.62-.9.26-.44.58-.29.89-.22-2.11-1.41-5 .26-7.41-.02-.07-.42.11-.85.39-1.28-.49-.17-.91.37-1.43-.07-.31.38-.13.74-.02 1.1-1.13.08-3.39-1.3-4.32.84-.46-.69.39-.58.28-1.11-.83.01-1.01.06-1.69-.08-.1.27.08.52-.05.79-.81.35-2.42-1.38-2.72-.02-.34-.35-.23-.72-.75-1.06-.37.2-.68.97-1.14.21-.43 1.67-2.25-.26-3.14.94.07-.32-.54-.6-.35-.93-.61.38-1.2.99-1.95-.06-.22.43-.46.6-.71.66-.05-.21-.11-.41-.32-.61-.07.51-.77.54-.52.03-.36.47-1.04.4-1.8.09.23.67-.11.74-.57.81-.15-.2.09-.42.2-.64-.67-.21-1.28.14-1.95-.08.43-.78.68.13.83-.82-.4-.14-.81-.37-1.18-.11-.16-.26.17-.53.32-.8.47-.01 1.04 1 1.43.1-.55.23-.43-1.05-.97-.75-.23-.7.25-.79.68-.97.26.36-.02.74-.03 1.1.54.4.64-.4.83-.82.43-.01.83-.31 1.32.25-.97-.1-.61 1.03-1.34.85-.18.58.85.23.09.94-.45.53.01-.98-.43-.45-.61.7-.05.38.35.93-.17.08-.33.16-.52.02.61.55 2.2-.45 3.23 0-.36-.89.47-.21.43-.97-.6.07-1.19.2-1.74.71-.51-2.07 1.66-1.53 2.25-2.15 1.03.73.2 1.56.87 2.32-.06-1.03.88.24 1.23-.69-.38.18-1.55-.12-1.26-1.04.82.99.62-.58 1.69.08.57.45-.05.95.52 1.39l.57-.82c-.21-.2-.43-.4-.32-.61 1.13-.84 2.36-.6 3.51-1.11-.46-.72-.79-.14-1.2-.41.67-.57 1.92-1.05 2.35.2-.35-.1-.68.06-.97.67-.09.6.64.16.46.76.79-.2 1.35-1.49 2.06-.1.24-.66.58-.28.89-.2-.03-.26.22-.53.05-.79 1 .49 2.51-.71 3.15.48.55-.1 1.08-.4 1.63-.55.05.26.01.52-.05.79.52.3.28-.61.56-.82.57.49.32 1.03.16 1.57.62.24 1.31-.15 1.64.85.1-.64-.46-1.24.06-1.89-.86-.42-.15 1.38-1.22.7-.23-.61-.07-1 .39-1.28.96-.35 2.1 1.12 3.04.61.46.84-.37.54-.67.99.48.42.85-.12 1.26-.39-.06-.21-.12-.41-.33-.61.32-.2.51.33.48-.34.8.59 1.35-1.09 2.24.34 0-.72 1.07-.9 1.29-.09.27-1.38 1.49-1.4 2.35-.95.22-.22.05-.42.19-.64.73.48 1.42-.05 1.54 1l.78-1.16c.94.45-.14 1.07.44 1.55.48-.7 1.05-.61 1.65-.3.02-.53.49-1.1.58-1.63.43.59-.46 1.3.23 1.88-.18-1.53 1.47-1.59 2.35-.99.62-.36.41-1.3 1.16-1.05.04.56-.36 1.24.38.92.2.46-.1.96-.46 1.46.11.15.18.07.26-.02l.3.29c.36-.45 0-.84.35-1.3.6-.54.68.73 1.45 1.11.39-.67.98.16 1.4-.31-.64-.83-1.12-.55-1.59-.14-.05-.36-.4-.7-.79-1.03.58.1.41-.6 1.18.03.53-.38-.4-.59.13-.96.66.71 1.84.38 2.81.49.1-.42-.83-.42-1.07-.2-.35-1.2.93-1.18 1.56-.96.49.71-.89.15-.42.68.77.73.42-.61 1.13-.28-.52 1.6 1.93-.46 3.01.88.19-.68 1.1-1.18 1.65-1.98.16 1.38 2.03-.11 2.25-.63.23.18.45.35.36.58.12-.52.75-.06 1.16-.84.61 1.07.89-.14 1.72-.62.25.33 0 .74.58 1.02 1.43-1.11 2.43-.48 3.96-1.35.27.36.02.8.54.69-.23-1.25.77-.7 1.33.04-.46-.89.22-1.74 1.01-1.5.39.72-.8.17-.47.91.27.25.45.05.74.33.1-.44-.3-.74.21-.85.21.22-.22.58.04.8.9.23 1.06-.29.88-.83.57-.4.21.97.81.63-.26-.74.24-1.1.74-1.45.43.86.39-.08 1.06.54-.15-.66.5-.77.94-.57.13.35-.22.25.06.8-.04-1.01 2.2-.47 1.56-1.87.57.31.69-1.17 1.26-.82.54.58-.29.58-.45 1.42.52.12.9-.33 1.43-.21-.29-1.95 1.64-1.57 2.01-2.08.12.59-.42 1.01-.58 1.34-.31-.12-.25-.36-.16-.61-.64-.18-.26.58-.84.91.89-.05 1.03-.33 2.08.68.42-.51-.26-.69-.16-1.1 1.06.87 3.64-1.23 4.84-1.2.14-.14.84-.97.3-1.28.42-.91 1.41.17 1.04-1.07.49.26.22.81.38 1.2-.16.24-.49-.1-.76-.22-.2.74.59.84-.12 1.39.64-.22.59-.69 1.2-1.46.1.18.2.37.44.51.24-.67-.38-.27-.46-1 .28-.42.82-.02.96-.87-2.11-.01-3.98.64-5.92 1.09-.64-.13.13-.7-.51-.83-.46.15-.22.46-.4.95-.67-.45-.04-1.31.21-2.05 1.04-.29 2.65.74 3.66-.73.35-.17.91.31 1.23.04-.56-.54-.43-.49.38-.48.32-.46-.19-.6-.05-.99 1.28.8 1.2-.15 2.02-.43.44.17.24.58.79.71-.27-.63-.05-1.21.59-1.06.44.17-.41.83.31.89.05-.37.26-.3.48-.21-.07-.25-.03-.55.09-.9 1.14-.12 1.68-.23 2.8.11-.27-1.34.9-.05 1.14-1.03.46.44-.38.38-.31 1 .42-.24.81-.57 1.37-.45.19-.24.11-1.14.49-.9-.46-.7-.27-.66.06-1.59-.82.61-1.58-.17-2.06.77-.69-.47.08-.65-.51-.97-.3.65-.17 1.1.16 1.47-.19.34-.53.3-.66.81-.4-.95-.96-.13-1.29.24-.54-.5.3-.78.1-1.59-.5.08-.42.34-.49.9-.24-.17-.8-.6-1.49-.36.15.39-.11.96-.28 1.5-.33-.44-.32-1-1-1.3-.17.56-.65.19-.95.36.01-.4-.4-.64-.47-1-1.17.76-2.52.97-3.87 1.12-.4 1.24-1.53.14-2.05 1.03-1.72-1.17-2.82 1.9-4.25.17-.08.63-.43.33-.55.83-.47-.48-.8-.41-1.2-.64.4-.49.96 0 .88-1.07.02.88.39.29.88.39.12-.74-.29-.42-.64-.46.35-.9 1.02-.66 1.57-.82.3.23-.4.67-.63.52.42.73 1.41-.48 2.06-.48-.44-.49-.52.3-.96-.19 1.15-.15 1.33-1.03 2.26-1.53.46.24-.57.94.2 1.09l.29-.75c1.22.27 2.25-.73 2.76-1.51-.39 1.09.63.42 1.29.35-.06-.41.11-.87-.36-.7.42-1.43 1.13.25 1.52-.9.49.32.48.83.58 1.29.4.1.56-1.08.46-1.34.33-.57 1.7.36 1.41-.8.2-.08 1.11-.02 1.06.38.17-.9 1.35-1.63 2.61-1.51-.47.59-.45.44-.63 1.48.51.16.98.21 1.49.37.27-.32-.76-.88-.17-.78-.1-.85-.51.25-.69.31-.48-.92.6-2.13 1.59-1.42.77-.33.71-2.61 1.84-2.03l.19-.8c.49.09.23.58.37.86.55 0 .49-1.36 1.2-.98.47.42-.26.6-.24 1 1.08-1.03 1.97-2.21 3.25-1.63.34-.26.75-.37.8-1.23-.36-.08-.54-.27-.45-.63.76.42 1.46-1.21 2.62-.89-.06.51-.15 1.01-.54.88.46.34 1.61-.36 2.22-.64.14-.99-.38.23-.9-.35.12-.68.71-.46.76-1.24-.2-.17-.32-.4-.26-.76-.48-.19-.4.22-.7-.26.11-.14.23-.27.26-.56 1.08.66 1.07.28 1.98.27.03.92-.9.1-.87 1.01.52.34.57-.18 1.09.16-.51-.39.19-1.51.6-1.76.2.1.1.43.1.69.64.45.57-.35 1.13-.06.02-.39-.59-.33-.66-.66.44-.99 1.55-.83 2.08-1.69-.41-.7-.45.49-.98.32-.14-.09-.16-.27-.34-.33.67-.12.51-.73.91-1.41-.48-.72-.82-.13-.63.65-.68-.01-.03-1.13-.67-.65.07-.63.68-1.27-.2-1.55-.29.21-.21.6.29.73-.06.23-.35.06-.56.02-.19.58.1.81.04 1.29-.62.42-1.35.61-1.67 1.58-1.5-.84-1.56.91-2.51 1.06-.55-1.13.9-1.21.46-2.23-.85 1.26-2.05.71-2.76 2.56-.62-.41-1.09-.81-1.18.36-.58-.44-.78-1.21-.45-1.72-.36-.28-.31.28-.58.17.43.34 0 1.21.69 1.39-1.07-.28-1.29 1.21-2.1 1.48.66-1.18.95-2.16 1.14-2.34-.8-.83-1.28 1.35-1.81 2.03-.39-.7-1.03-.11-1.37.19 0 .24.31.31.26.57-.07.14-.22.11-.26.31-.15-.22-.08-.54-.43-.65-.89.44-1.52 1.5-2.35 2.1-.13-.1-.12-.28-.29-.37.82-.8.9-1.47 1.62-2.26-1.02-.26-1.5.7-2.39.72-.02.65.39 0 .66.35-.02.46-.23.47-.34.71-.66-.17-.63-1.08-1.11-.83-.1.35.11.53-.02.89.16.08.18-.17.25-.31.38.21.8 1.38.66.36.95.45.35 1.19-.11 1.29.35-.73-.82-.19-.68-1.05-.39-.13-.27 1.02-.64.97-.54-.41.08-1.14.36-1.35.1-.52-.57-.64-.47-1.16-.54-.19-.67.65-1.24.38-.24-.65.25-.64.18-1.44-.72-.66-.67.63-1.35.08.02.61.58.04.98.59-.33.12-.61.37-1.02.28.71.38.59.83.73 1.56-.07.14-.22.1-.27.29-.6-.08.04-.7-.55-.78-.1 1.16-2.89 1.58-3.1.35-.08.67-.56.54-.33 1.16-.74-.23-.51-.82-1.02-1.13.61-.04.92-.88 1.56-.81-.55-.49-1.81-.06-2.42.46-.31-.22-.04-.65-.52-.81-.3.63-.61 1.32-1.57.75.19.79-.3.86.27 1.58-.54-.53-.63.6-1.4.18.67.97-.75.79-.5 1.53-.95-.18.19-1.06-.53-1.32-.15.72-.48.85-.87.76-.15-.34-.14-.73-.21-1.09 1.04-.72 2.26-.62 2.86-1.68-.44-.48-.4.52-.9-.17-.85 2.27-3.13 0-4.14 1.85-.92-.54-1.9-.21-2.79.08-.9.28-1.74.46-2.29-.26-.48 0-.93.1-1.43.04.06 1.23-.93.58-1.42 1.01-.1-.25.02-.55-.3-.74.15.81-.64 1.05-.75.35-1.03 1.22-2.61.11-3.74.94.46.36-.12.77-.26 1.02-.28-.32.32-.82.12-1.15-1.24-.55-2.07.71-3.16.94-.21-1.17-1.52-1.01-1.61-.21-.34-.53-.5-.11-.82-.5-.27 1.79-3.07-.17-4.19 1.45-1.34-1.59-2.79 1.51-3.9-.12.38.13.7-.17 1.04-.3-.41-.82-1.39.56-2.37.31-.41-.11-1.92-.91-1.83.03-.19.39-.55-.43-.81-.55-.75.71-1.67.25-2.42 1.04-1.07-.48-3.22-.12-4.81-.05l-15.85.03c-5.39.02-10.78.14-16.15.34-10.76.33-21.49.98-32.23 1.66-21.46 1.45-42.91 3.47-64.44 5.2-.4-.36-.11-.73.06-1.1 3.31.95 6.42-1.12 9.72-.32.18-.65.36-.58.85-.78.15.3-.21.14-.35.47.54.37.97-.82 1.54 0 .36-.42-.14-.84.17-1.26 1.5 1.48 3.65.9 5.38-.03 1.46.18 2.94.59 4.33-.35.18.15.22.31.16.47 2.18-1.02 5.46-.01 6.82-1.32.39.41.08.58.56.62.12-.21-.16-.42-.3-.62 2.97.89 5.09-1.19 8.19-.1.17-1.04 1.71-.16 2.42-.2 1.18-.07 1.92-1.16 2.53-.36.97-.73 1.99-.82 3.07-.06.55-.32-.36-.62.19-.94.09-.37.85.47.56.62.62-.85 1.35-.15 2-.66.28.21.17.42.05.63.83-.87 1.76-.34 2.62-.83.2 1.17.08.12.82.61-.03-.41.25-.79.58-.79.04.26.19.52.44.78.49-1.21 1.89.34 2.99-1.01.25.25.28.51.19.78 1.46-.45 4.98-.32 5.28-1.08.75-.21 1.6.79 2.27-.38.77.71 2.09 1.07 2.32.25 4.85.3 9.13-.82 14.14-.6.22-.22.06-.42.2-.63.44.43.55.26 1.22.74 2.54-1.17 6.43.43 9.35-1.29.27.25.16.52.45.76 1.17-.23 2.32-.73 3.54-.46-.1-.45-.53-1.78.55-2.23.4.6.15.99.88 1.22.24.47-.56 1.15-.85.51-.39.79.96 1.04.79.28 1.72 1.08 3.17-.74 4.9.39.24-1.11 1.36-.83 2.18.06.24-.22.1-.43-.06-.63 1.49.44 2.89-.06 4.39.42.1-.27-.08-.52.05-.79 2.12.4 4.88-.88 6.55.46.1-.16-.09-.31-.17-.46 2.27.13 4.51-.55 6.82.23 1.48-.83 4.2-.35 6.17-.43.42-.4-.19-.72.23-1.12.16-.08.31-.17.49-.04-.24 1.77 1.6.66 2.34 1.07.11-.87-.57-.11-.81-.57-.3-.65.49-.53.65-.68 1.08 1.95 2.55.55 3.83 1.23.41-.41-.2-.72.21-1.13.14-.15.34.17.48-.05.16.25-.13.54-.25.82.41.37.77.32 1.05-.27-.03-.31-.49-.58-.13-.93-.28-.29-.45.28-.76-.24.31-.68.83.14 1.1-.75.53.88.86.39 1.28.5.22.76-.81-.08-1 .58.93.96-.27.43-.49.84 1.32.99 1.02-.27 2.24.4.16-.33-.42-.59-.38-.91.1-.16.25.05.38.12.12-.43-.02-.58-.33-.6.46-.94 1.12-.66 1.56-1.6.41.27.61.26.61.87.51-.08.8-1.44 1.39-.98.32.28-.26.67-.32.99.46.38.65-.46.46-.85.27-.52.8.54 1.07.02.19.29-.16.66.39.9.33-1.26 2.06-1.78 2.28-.62.48-.18 1.08.29 1.4-.72.86 1.14 1.5-.48 2.01.63.23-1.96 2.33.65 2.99-.99 1.02.22 1.85-.46 2.9-.11.41.37-.56.17.13.61 1.18-1.74 3.13-.06 4.38-1.3-.25-.25-.4-.04-.66-.32-.14-.18.04-.45-.15-.62.69-.03 1.52.55 2.2.43.02-.41-.26-.26-.44-.38-.34-.5.52 0 .5-.77.14.39.29.52.59.5.1-1.88 1.91.17 2.43-1.31.49.29.61.69.34 1.21.44.46.57-.18.94.04.04-.28-.32-.45-.54-.66.1-.73.43-.65.68-.87.25.25.23.59.05.97.58-.81 1.47-.52 2.2-.83.21.26-.07.68.49.84-.03-1.65 2.5-1.41 2.97-2.37.48.65 1.24.15.81 1.04.5-.01.4-.43.27-.94.4-.26 1.04 1.22 1.4.32-.39-.43-.42.15-.73-.06.09-.2.06-.36-.05-.49 1.07-.3 2.4.12 2.95-1.53.28.83.32.69.95 1.29.14-.58-.44-.84-.8-1.19.08-1.43 1.34.24 1.49-.99.82.27.17 1.18.72 1.56.16-.69-.25-1.14-.32-1.73.17-.69.62.39.72.03.2.2.02.56-.01.86.44.05.82-.62.42-1.03 1.11.67.72-.21 1.66.59.4-.91.55-.71 1.37-.71-.08-.42-.6-.63-.3-1.25l-.88-.58c-.36.16.15.84-.58.3-.12.3.06.44.24.58-.59.31-2.39 1.48-2.63-.13-.33-.25-.22.62-.37.84-.58-.44-.49-1.05-.22-1.44-.28-.09-1.25.43-.57.92-.34.42-1.01-.05-1.12 1-.31-.26.15-.86-.09-1.16-.56-.44-1.14 1.14-1.35-.26-.38-.24-.18.61.02.68-.35.19-.71.32-1.25.01-.01.28.2.49.16.78-.15.34-.52.06-.67.41-.1-.24-.14-.51-.15-.78-.67.93-1.58 1.19-2.55 1.26-.37-.34.3-.17.21-.75-.44-.31-.53.46-1.05-.12-.38 1.08-1.07-1.04-1.45.03.25.08.45.01.7.08-.02.89-.59.02-.63.89-.35-.17-.2-.49-.13-.78-.19 0-.29.3-.57.01.15 1.08-1.85 1.03-2.77 1a.718.718 0 01-.09-.2c-1.15.52-2.37.88-3.72.77-.18-.23.05-.55.12-.84-.65-.65-.72.49-.55.95-.59.34-.23-.9-.95-1.06-.5.5.6.61.38 1.04-.9.17-1.57 1.34-2.7.51-.06 1.17-.6.74-1.1 1.19-.47-.22-.27-.59-.65-.83-.55.8-1.28.78-1.99.88-.29-.55.49-.51.67-.62-.6-.54-1.32.07-1.77.84-.49-.27-.06-.74-.55-1.01.19-.57.75-.26.6-.93-1.37.24-2.22.8-3.3 1.87-.72-.36.22-.99-.38-1.37-1.18.28-2.34.68-3.69-.03-.42 1.1-1 .31-1.37.18-.17.34.27.6-.07.96-1.07-.91-2.86 1.05-3.22-.38-1.37.39-3.58-.36-4.51.66-.87-.8-1.48.23-2.38-.86-.38.94-1 .21-1.39 1.24-.48-.28-.22-.61-.6-.9-2.79.21-5.52.83-8.51.01-.02.33-.19.65.01.74-2.34-.37-4.71-.63-7 .15-.54.43-1.24-.69-1.81-.53-.08.21.21.41.07.63-.77-.28-1.79-.62-2.78.14l-.86-.9c-2.49.97-5.13.52-7.75.21-.06.16.03.31-.08.48-4.55-.45-8.95.52-13.48.28-.59 1.01-3.76.26-5.71.37-1.05.06-1.82.7-2.68-.06l-.45.65c-.63-1.13-1.61.5-2.59-.54-2.02 1.22-5.23.01-7.69 1.03l-.57-.61c-3.17 1.24-6.54.03-9.71 1.36-1.52-.92-2.83.7-4.35-.2-.77.96-1.71-.13-2.5.68-2.43-.57-4.78-.12-7.11.44-5.29-.11-10.45 1.33-15.75 1.17l-.47.63c-.21.17-.25-.26-.16-.47-2.75.63-4.79.63-7.58 1.32l-.55-.62c-.52.11-.11 1.15-.98.63-.16-.3.2-.14.35-.47-.36-.18-.9-.01-.86.48-20.7 1.01-40.54 4.95-61.19 6.76l-.36.47c-2.84-.36-5.58 1.29-8.45.48-.48.21-.84 1.27-1.01.29-.36.47-1.5.83-2.3.27l-.48.62c-.99-.03-1.98-.23-2.93.42-4.78-.6-9.43 1.61-14.25.17l-.49.61c-.84-.74-2.21-.47-2.56.25-.26-.27-.14-.52-.42-.79-.26 1.18-.75.46-1.15.13-1.16 1.01-2.68.8-4.33.84-.24-.27-.26-.53-.17-.79-.4-.14-.37 1.12-1.14.44-.11.16.07.32.15.47-.37.29-.78-.29-1.14.44-.28-.21-.16-.42-.03-.63-.42.42-1.24.9-2.02.88-.41-.8.4-.42.73-.92-1.51.78-3.04 1.15-4.55 1.76l-.68-.8c.08-.71-.34.39.29.63-.52.63-1.04.65-1.68.91-.18.07-.37.16-.58.28a.736.736 0 00-.21-.31c-.32-.28-.79-.2-.35-.64-.45-.24-.37.93-1.29-.03-.55.64.33.5.53.63h.01c-.86.83-1.8.08-2.66 1.02-.14-.21.11-.42.23-.62-.26-.19-.5.34-.79-.34.29.87-.43.35-.85 1.07-2.31-1.16-4.6 2.17-6.68.44-.11.49-.36.78-.66.96-.57.35-1.34.33-1.86.52-.01-.37.14-.5.34-.56.36-.09.9.05 1.17-.34-.23-.31-.43-.15-.66-.49.71-.43 1.4-1.36 2.12-1.65.04 1.64 1.93-.02 2.31-.25-.01-.01-.02-.01-.04-.01-.88-.42-2.02-.4-3.08-.05-.8.26-1.56.7-2.11 1.31-.15-.27.19-.51.35-.77-.79.21-2.44.24-2.38 1.65-.47.31-.36-.61-.68-.81-1.13.82-1.96 1-3.04 1.65-.27.16-.55.34-.86.58-1.97.02-3.95.08-5.86 1.7-1.17-.21-2.98.56-3.67 1.61-2.55-.61-6.6 3.44-10.01 1.23.93 1.98-1.85 1.15-1.56 2.92-.69-.14-1.31 1.71-2.04.56-2.64 1.8-5.34 1.98-8.11.51-.32.51-.67 1.02-.46 1.55-.42.19-.86-.07-1.31-.67-.36.73-.76.39-1.15.43-.12.86-.49.74-.72 1.54.27.42.51-.26.78.03-1.64 1.12-4.43 1.16-6.6-.39-.18 1.15-.91 1.42-1.76 1.19-1.47 2.35-3.49 3.64-5.52 4.5l-.81-.97c.28 1.01-1.1.78-1.63 1.35-.07-.21-.14-.42-.02-.62-1.49.38-2.91.63-4.14 1.48-.28.19-.56.41-.82.68-1.93.36-4.52.9-5.97 2.75-1.34-.14-3.67 1.75-4.69 2.49-1.72 1.25-3.27 2.23-4.51 3.9.49.01.53.55.81.97-.33.49-.69.1-1.01.59.65.3.89-.29 1.31.36.57-1.09 1.76.43 1.91-.71.29-.31.62.62.93.82.81-.24 1.63-.35 2.44-.38-.7.78-1.05.82-1.99 2.12 3.04-.45 7.21-.77 10.63-2.89.34-.19.69.03 1.04.35.02-.26-.06-.52-.16-.79.39 0 .77-.25 1.15-.43.65 1.43 2-.9 2.64-1.93.4.53-.12 1.04-.46 1.54.35-.19.93.25.93.82-.6.68-.76.09-1.12 1.05.32.48.57-1 .9-.13.46-.29.13-.62.48-.92.17-.06.34-.13.52.02.02.52-.51 1.03-.46 1.55-.13.1-.26-.01-.38.14.24-.96-.82-.21-1.29-.05-.26-.27-.14-.53-.42-.8-1.11.49-1.23 2.1-2.24 2.42-.14-.58.81-1.12 1.1-1.68-.47-.02-1.43.31-1.12 1.05-1.27-.53-2.47.81-3.69 1.59.79.49 1.52-.74 2.28-1.17-.38 1.51-1.91 1.98-2.8 1.15-.96.84-1.93 1.57-2.94.98-2.98 2.14-6.07 1.52-9.06 3.26.72.76 1.39.21 2.12 1.33.72-.31 1.45-.26 2.22.55.24-.2.08-.41.24-.62.6 1.06 1.12.07 1.7.53.28.38-.02.73-.35 1.08.71.64 1.38-.12 2.07.08.54.39-.22.72.17 1.1 1.03.47 1.51-.72 2.68-.99.38.86-.92 1.52-1.35 1.98.22.03.44.2.67.5.12-.15-.07-.31-.15-.47.5-.39.83.27 1.01-.59.26.27.13.53.42.8.84-.54 1.71-.37 2.58-.22.3-.4.28-.82-.05-1.25.24-.4.5-.56.76-.6.3.64.44 1.27.58 1.9-1.03.19-2.52 1.41-2.75 2.71-1.58.36-3.16.82-4.77.29.47 1.26-.74.84-1.4.73-.22-.67.68.04.89-.44-.71-.69-1.35.67-2.04.86-.51-.43.26-.77-.42-.8-.1 1.07-1.87 1.1-2.82.83-.71.99-1.64.54-2.68 1-.04 1.07.95.23 1.3.36-.85.63-2.97 1.82-4.63.76-1.01 1.3-4.81.03-4.94 2.79-.94-.36-1.21 1.03-2.02.55-.05-.54.49-.37.35-1.08C1.95 80.02.01 81.64 0 83.78c.51.49 1.41.97 1.23 1.77 1.15.72 2.89.49 3.32 2.47.47-.87 1.44-.52 1.5-1.51-.18-.16-.34.14-.51.29-.29-.6.03-.41.36-.77.37.61.72.77 1.06.67.39.38.27.74-.09 1.09.34.11.64-.03.63-.44.87 1.13 2.64.12 3.86-.48 1.52 1.43 2.91-.6 4.33-1.71l.27.33c-.51 1.67-1.95 1.75-2.62 2.87.28.45.52.07.8.66 2.11-1.75 3.51-1.13 5.61-2.29.09.16.01.32.15.48-.77.2-1.91.97-2.27 1.79.36.48.69-.08 1.05.35-.19-.66.15-.82.63-.44-.14-.42-.15-.84-.05-1.26.77.37 2.43-.22 2.02-1.49.29-.5.19.98.66.49.1.32-.49.32-.22.93.53.11.92-1.1.72-1.54.34-.22.33.83.69 1.12.67-.45.2-.93.6-1.39.32-.36.47.5.28.64.56.3.38-.7.48-.92.16.06.71.47.81.97-.28.58-.59.39-.88.75.8.56 1.08-.57.99-1.22.91-.15 1.73-.21 2.28-1.48.69.44-.04.83.3 1.26-.51.25-1.02.36-1.53.57.53.65.55 1.27.07 1.88.35.33.64-.03.63-.44.11.76.62.06.81.97.67-.84 1.33-.81 2.3-.86.21.46-.65.81-.9.12-.13.1-.06.21.01.31l-.25.3c.54.57 1.04.01 1.54-.25.29.64.03 1.25.33 1.89.24-.66.27-.36.74-.91.5.38.37.74.69 1.12.31-.25.23-.51.36-.77.38.33.07.63.55.96.76-.36 1.54-.25 2.32-.23.38.7-.29.39-.61 1.07.4.43.76-.52 1.17.2-.02-.26.26-.51.1-.78 1.92.61 3.77-.87 5.68-.42.12-.2-.14-.42-.28-.64.29-.4.58-.76.88-.75.63 2.49 2.5-.65 3.62-.18-.21 2.23-1.64 1.61-2.63 2.57.58.5 1.19-.61 1.44.52l.74-.91c.33.27.27.53.42.8-.35-.03-.67.67-1.03.28.23.7-.3.39-.35 1.08.65 1.24 1.15-1.56 1.8-.25.54-.87 1.1-1.73 1.59-2.6.54.44.29.85.05 1.25.46.8.87.23 1.31.36-.11-.42-.01-.84.47-1.24-.27-.19-.51.34-.79-.34.42-.37.85-.36 1.3.05l1.11-1.37c.25.93-.21.74.68.81.64.44-.25.83.3 1.26.1-1.52.85-1.05 1.6-2.29.79.26 1.57.28 2.36.71.52-1.48 1.26-1.76 2.1-2.59.61.44-.4.82-.21 1.24 1.18-.12 2.25-2.24 2.72-3.35-1.24-.37-1.49 1.71-2.25 2.11-.24-.27-.26-.53-.16-.79-.35-.3-.81.68-.48.92-1.16-1.24-3.05 2.49-4.63.77.8-1.83 2.77-1.92 4.08-1.73.7-2.17 2.54-1.99 4.19-2.2-.42.96-.64 1.66-.67 2.79.32-.66.68-.35 1-.91 1.25 1.7 1.55-.91 2.74.56 1.17-.75.79-.54 1.9-1.03-.37-.28.04-.52-.16-.79.34-.23.69-.04 1.01-.59.62.59-.08.95-.48.92.16.72 1.6-.18 1.52-.89.52.07 1.01-.56 1.57.37.74.09 1.41-1.52 2.16-1.03.53.91-.21 1.77-.55 2.65.93-.11 1.26-1.41 2.55-1.17.5.61.25.75.8.65.4-.58-.82-.22-.42-.8-.39-.06-.78-.16-1.16.12-.24-.81-.12-.73-.8-.65-.14-.21.11-.41.24-.62.34-.28.72.85 1.06.66-.02-.26.26-.51.1-.78.42-.25.87.08 1.3.04.21.42.1.58-.23.62-.24.16-.13-.26-.4-.48-.04.47-.21.93.18 1.41 1.63-2.48 3.36-2.4 5.04-3.59.2.22.41.43.29.64.11-.5 1.4-1.39 2.27-1.5.16.81-1.22 1.22-1.1 1.69-.4-.69-.71-.32-.13.15 1.41-.75 2.71-1.14 3.84-1.13.49 1.06-1.32.7-1.22 1.84.5-.04.68.29.89-.44 1.76.82 4.66-1.64 6.4-2 .41.43-.97.81-.21 1.25.18-.89.82-1.15 1.37-1.37-.39-.16-.79-.42-1.18-.19-.08-.16-.01-.31-.15-.47.75-.56 1.58.58 2.31-.55.26.27.14.52.42.79.58-.73 1.2-.22 1.79-.57.24.27.26.53.16.79.31.25.58-.46.91.19.26-.2.13-.42-.03-.63 2.41.14 4-.17 6.33-.6.21.32.1.63-.22.93.39.08.77-.29 1.16-.12.6-.4-.32-.84.21-1.25.63.64 1.22.37 1.8-.27.38.33.08.63.56.96.21-.36-.13-.73.08-1.09.77.9.59-.09 1.54-.27.38.32.07.63.56.95.09-.26.08-.52-.16-.79.79-.46 2.62.58 2.67 1.64 1.18-.6-1.04-.93-.34-1.89.45.02.34.44.94.81.57-.61 1.33-.02 1.5-1.21.57-.01 1.21-.12 1.46.82l.61-.77c-.53-.84-.13.66-.65-.18.28-1.17 2.24-.34 3.32-1.16-.14.63 0 1.16-.59 1.39.95.86.98-1.2 1.88-1.36.65 1 1.22.11 1.8-.28.77.88 1.49.46 2.21.21.23.68-.66.25-.87.76.29.48-.3.93-.07 1.41.65-.94 1.67-1.11 2.24-2.14.23.3.53.03 1.05.33.34.92-1.54.18-.46 1.24-.36.63-.79-.19-1.15.44.43.74 1.44-.55 1.45.5.39-.56.87-.32 1.52-.9.05 1.28.75.01 1.46.81.74-.93 1.53-.66 2.28-1.2-.03-.64-.71-1.11-1.07-.65 0-1.09 1.18-.47 1.67-.43.15.49-.16.99-.34 1.09.13.51.5.53.58 1.26-.05-1.41.74-.38 1.36-1.38-.34-.83-.6.12-.93-.49.43-.08.83-.65 1.3.03.15.3-.21.14-.37.46.21.31.56.15.41.48.51.48.11-1.02.64-.14-.17-.53-.46-1.05-.07-1.57.62 0 .07.53.56.95.33-.36.17-.73.08-1.09.21-.05.44.21.64-.14.72.69-.31 1.35.23 2.04.12-.42.32-.83.2-1.25.4-.7.9.69 1.28-.28.51.38.37.74.7 1.11.53-.64 1.12-.23 1.68-.12.25-1.09 1.23-.79 1.91-.75.38.32-.63.61.05.94.51-.97 1.19-.49 2.05-.59.51-.36-.29-.74.08-1.1.74-.18.2.93.84 1.27.34-.04.47-.21.49-.62 1.38 1.74 2.55-.93 3.9.07.37-1.06.67-.89 1.48-1.54.23-.03.44.61.93.49.2.79-.74.42-.99.92.83.49 1.39-.16 1.91-.75.67.27.39.64.84 1.27.5-.22.83.23 1.01-.61l.55.63c-.28-.85 1.07-1.2 1.68-.13.33-1.15.73-.66 1.41-.44.49-.56-.07-.18-.29-.63.28-.41.6-.02.9-.14.55.75.21.75.06 1.25.56 0 1.14.19 1.75 1.13-.12.2-.25.24-.38.15.12.6 1.31.28 1.84.33-1.39-.44-1.23-1.46-2.56-1.75 1.13-1.34 1.46.93 2.37.66-.08-.68-1.1-1.37-1.02-2.05.39.6 1.27.48 1.62 1.27.31-.67.28-1.35.54-2.03-.07 1.12.58 1.05 1.12 1.58.28.42-.49.83.07 1.26.19-.51.31-.51.19-1.25.34-.04.86.54.5-.31.39.01.8.45 1.21.8.05.49-1.18.06-.85 1.09.66-.57 3.68-1.96 3.24-.12.39.06.74-.7 1.16-.14.44-1.5 1.91-.34 2.76-1.84.31 1.04 1.06.36.85 1.26.46.24.28-.82.85-1.09 1 .08 2.02.51 2.97-.44.17.87 1.01.61 1.04.01.43.83.8.29 1.21.79-.16-.51-.35-.52-.59-1.26.5-.1 1.12.52 1.35.96.7.14.29-.93 1.3 0 .04-.26-.19-.52.09-.78-.55.21-1.13-.02-1.71-.48.95.01 1.91.1 2.86.01.09.16.02.31.16.47-.42.3-1.28-.34-1.26.62.72.48 1.22-.78 2.22.17.16-.24.32-.47.5-.31.09-.26.07-.52-.17-.79.53-.55 1.13.03 1.66-.46.49.32.19.63.57.94.47-.4-.33-.78.35-.78.52.41-.24.78.43.78.35-.26-.09-.52.08-.78 2.16 1.85 4.45-.06 6.15.82.24.31-.32.62-.2.94.75.3 1.4-1.13 2.22.17.09-.26.07-.52-.18-.78.22-.57.51-.18.74-.62.35.26.09.52-.08.78.41.41.78-.08 1.18.16.12-.21-.15-.42-.3-.63.23-.54.52 0 .76-.31.06.26-.13.52.18.78l.48-.62c.39.32.08.63.58.94 1.24-.26 2.48-.53 3.74-.47l-.42-.47c.35.02.65-.7 1.02-.32.35.26.1.52-.08.78.79.36 2.09-.48 2.42-.79.25.65.57.8 1.06.31-.71-.6-.12-.62.2-.94-1.17.33-1.74-.56-3-.15-.12.29.13.12.28.31-.22.7-.54-.39-.76.31-.47-.77-.46-.56-1.12-1.25 1.57.64 3.52-.73 4.7.31.07-.16-.02-.32.1-.47.47-.33-.07.6.44.78.7-1.29 1.53-.53 2.32-.32.15-.87.7-.81 1.26-.63-.14.63-.55 1.26-.14 1.88-.37.2-1.04-.03-1 .63.49-.11.52.03.82.63.16-.71.51-.56.58-1.1.42-.25.89.34 1.28-.32.61 1.14 1.72.49 2.6-.01.1.95.56.87 1.18.16.12.26.13.52-.08.78.9.43 1.69-.64 2.58-.32.21-.31-.38-.63-.06-.94.23-.44.57.8.78 0 .25.26.27.53.18.79.43.13-.1-.86.62-.47.35.31.5.62.32.94.62-.47 1.87.34 2.04-.65.39.31.08.63.58.93-.07-.97.67-.17.64-.16.9-.15 1.1-1.41 2.18-.49.1-.93 1.21-.51 1.78-.65.06.26-.13.52.18.78.32-1.03 1.03-.06 1.62-1.11.15-.66-.74-.82-.94-.46-.24-.13.54-.73.74-.64.18-.75-.6-.17-.8-.3-.15-.26.18-.53.34-.79.2-.09.82.97 1.3-.01.37.36.71.72.47 1.09.52.55.93-.29 1.46.46.09-.42-.1-.95.45-.94-.19 1.17-1.1 2.01-2.02 2.68.44.1.9.44 1.34.62.17-.31.17-.95.62-.48.11-.26-.06-.52.08-.78.55-.43.36.36.96.77-.21-1.31 2.07-1.54 2.46-.18-.06-.78.55-.01.85-.79-.47-.56-.85.25-1.32-.3-.04-.59 1.12-.05 1.56-.01.02-.31.14-.63.46-.95.28-.37.34.48.04.63.48.23.41-.82.05-1.1-.29.24-.62-.16-.88.48-.15-.31-.18-.63-.33-.94.57-.47 1.25.49 1.82-.02.19.6-.75 1.77.14 1.88-.23-.85.15-.44.6-.79.15.93-.41.42.59.94 0-.61.03-.81.57-1.1.32 1.18.94-.44 1.6.59-1.55.22-2.69 1.22-4.52.53.74 1.05-1.15.5-.79 1.73.24.3.44.14.68.46.16-1.03 1.32-.3 1.59.3-.45-.89.54-.83.01-1.72.35.04.66-.48 1.04-.01.31.5-1.05-.04-.08.78-.21.7-.55-.38-.76.32.27.26.15.52.45.78.67-1.06.96-.25 1.21.46-.1-1.31 1.64-.5 2.42-.83.22-.6-.08-.41-.45-.78.78-1.08 2.3-.14 2.65-1.15.56.36-.01.73.21 1.1-.69.05-1.37.29-2.08.04-.21.42-.17.84.09 1.25.15-.33.33-.18.52-.01.04-.21.09-.42-.04-.63.81.93 2.68-.08 3.06-1-.19 1.6 1.01.74 1.44 1.86.2-.28.41-.3.64-.17.17-.85-.6-.14-.83-.61-.28-.65.43-1.1 1.02-2.06.68.85-.47.91-.4 1.58.7.58.51-.09 1.14-.49-.25-.36-.14-.73-.21-1.09.29-.25.64.47.9-.18-.61-.62-1.07.71-1.73-.44-.6.67-1.21 1.24-1.87 1.13-.26-.38.57-.27.76-.33.17-.48-.45-.54-.54-.21-.2-2.7 3.74-.41 5.62-1.45-.21-.21-.42-.41-.31-.62-.34-.45-.57.5-.92-.14-.11-.44.87-1.04 1.28-.33-.34-.74.68-1.76 1.23-.97.17.17-.71.7-1.01.33.26.92-.2.92-.26 1.73.6.35.45.58 1.12.92-.9.37-1.5-.24-2.53.99.62.73.02.75.88 1.24-.07-.52-.6-1.04.14-1.57.87-.03 1.76.27 2.6-.05-.36-.31-.51-.62-.33-.94-.4-.14-.79-.14-1.18-.13-.01-.44.46-.74.71-.96.28.2.18.42.05.63.78.4.11-.9.99-.65.09.47-.19.95-.02 1.42.81-1.2 2.68-.09 3.55-1.32.22.36-.08.74.48 1.09.45-.37.96.04 1.37-.82-.37-.3-.53-.61-.6-.93.58-.39 1.21-.12 1.77-.67.35.61-.27 1.83-.97.97.34.46-.11.94.24 1.41.43-1.13 1.07-.71 2.1-1.47-.36-.64-.58.31-.92-.13-.05-.77.76-.15 1.11-.82.27.25.16.52.45.77.13-1.71 1.53-.01 2.15-.84.48 1.15-.92.87-.92 1.6.14.14.26-.08.38-.17.61.3-.27.64.34.93.42-.5 1.17 0 .85-.81.38-.71.89.29 1.3-.04.14.41-.04 1.01-.47.64.2 1.08 1.59-.94 1.88.58l.7-.96c-.35-.25-.3-.52-.46-.77.47-.39.54.2.83.61.68-1.28 1.58-.12 3.03.38.68-.91 2.5.31 3.62-.42-.05-.74-.57-.16-.95-.44.11-.83 1.42-.69 2.03-.69.3.77-.82.03-.58.8.44.34.78.56.86.92.28-.33.76-1.3 1.14-1.92.57-.25.53.8 1.01 1.07.32.09 1.21-.9 1.18.11.93-.9 1.94-.71 2.95-.58.64.45-.39.96.25 1.4.71-.5-.31-.93.27-1.43.54-.49.71.77 1.15 1.21.32-.33.7.11 1.04-.04-.06.42.1.84.63 1.23 0-.23.1-.68.35-.49.26-.45-.41-.04-.58-.61.3-.58.69-.07 1.04-.04.24-.42-.55-.55-.69-.44-.08-.37.02-.74.03-1.1.5-.06.57.52.75-.34.64.69-.08.56-.03 1.1.58.4.44-.39.58-.81.58-.28 1.23.08 1.82-.07.08.47-.29.95-.27 1.43.6.21 1.27 1.43 1.91.87.61.93.78 1.44 1.97 1.5-.38-.3-.82-.31-.87-.91.35-.46.76-.25 1.16-.2.23-.32-.25-.62.17-.95-.5.09-1.54-.72-1.56.06-.11-.36-.29-.72.03-1.1.44-.1.4.87.9-.19.61.29-.27.64.34.93-.2-.94.52-.94 1.13-.51.26-.61-.24-.73-.58-.61.19-.31.42-.16.61-.5.19.36.99.7.75 1.07.24.08 1.03-.92.93.12.46.27.52-1.42 1.22-.99.16.26-.17.53-.32.8.66.07 1.94.89 2.08-.09.18-.14 1.13.09.58.6 1.13-.18 2.52-1.26 2.71-3.12.3-.07.62.08.9-.2.57.5-.35 1.06.41 1.55-.55.65-.6.23-1.04.05-.56.55-.63 1.08-.11 1.58.11-.16-.09-.31-.18-.46.37-.31.72-.71 1.16-.21.35.42-.4.07-.46.65.41.64.65-.47 1.07.26.08-1.53 1.63-.54 2.64.19.37-.58.6-1.68-.29-1.72.3.8-.27.55-.75.35-.16-.27.19-.3.38-.18-.29-.7-1.58-.11-2.26-.36 1.98-1.2 5.26-.54 7.72-1.32.15.2-.09.42-.2.64.37.21.73.32 1.01-.36.32.99.54.11 1.1.58.42.34-.78.77-.02 1.1.36-1.05.7-.47 1.68-.24.31-.81.74-1.36 1.53-.39.36-.74.85-.26 1.21-1 1.62 2.08 3.97.29 6.49 1.19-.14-.69.4-1.3.76-.36.5-.4.31-.76.28-1.12.17-.08.34-.17.53-.04-.01.48.2.93-.25 1.44.84.56.05-1.32 1.04-.39.08-1.13.36-.75 1.12-.87.31.35.03.73-.28 1.12 1.18-.94 3.24-.36 3.93-2.33.59-.39.66.12 1.12.22.43.44-.23.97.3 1.4.45-.46.29-.87.13-1.28.69.11.45-.38 1.02-.72.51.79-.24 1.94-.87 1.97.31.21.21.46.04.31 1.04.81 2.48 1.66 3.71-.17.55.37-.53.89.15 1.25.37-.93 1.85-.05 2.74-.25.23-.29.05-.54.32-.83.08.26-.11.54.24.77.5-.11.14-.23.48-.69.14.19-.13.44.08.63.69.58 1.22-.04 1.03-.75.17.19.31.21.44.11.17.19-.08.43-.19.66 1.3-.11 3.5.79 4.17-.47 1.39.71.9-.41 1.73.09.53-1.33 1.01-1.19 1.86-2.02-.39-.37-.69-.14-1.06-.33.34-.61.89.15 1.24-.34.18.18-.07.43-.18.66.9-.06 1.89.45 2.8.39.18.19-.07.44-.18.67.43 0 .9.17 1.25-.34.15-1.74 3.43.08 4.64-1.28-1.71.03-3.41.25-5.12.08.49-.48 1.12-.23 1.7-.28.09-.78-.77-.04-1.07-.3l.7-1.08c.32.21.21.49.56.7 1.12-.62.8-2.05 2.34-1.7.23.52-.82.82-1.08 1.31.11.36.52.65.33 1.06.25-.28.6-2.32 1.89-1.78.27.27.19.61-.12.98.7.44.86-1.53 1.82-1.29.67.31-.24.9.52 1.19.13-.13.04-.22-.06-.31-.11-.42.75-.21.4-1.03.28.09 1.29.07.91-.68.36.05.62-.41 1.03-.06.15.56-.74 1.35-.38 1.86.32-.26.78-.63 1.14-1.06.47.22.18.61.77.8.82-.4 1.73-.37 2.6-.57.38.3-.51.31-.56.94 1.22.22.99-1.96 2.36-1.01.26-.2.36-1.13.74-.84.24-.53-.46.07-.72-.47l.33-.57c1 .35 1.73-.49 2.75-.08.23.78-.95 1.19-1.56.58-.3.48-.63.85-1.03.93.46-.18 1.87.65 2.34-.62.7.3.06.96.76 1.26.3-1.25 2.05-1.63 3.4-2.06.48.47-.41.3-.43.77.62-.18.47.42 1.11.68.67-.65 1.56-.53 2.2-1.34 1.34.59 1.02-.55 2.32-2.07-.61.3-1.15.87-1.87.77-.25.3-.05.46.16.61-.33.35-.73.48-1.18.38-.41-.15.35-.55.51-.49-.33-.43-2.15-1.33-2.58-.18-.71-.78-2.31-.27-3.17.37-.45-.35-.37-.77-.76.04-1.74-.63-3.28-.39-4.66.38-.29-1.05-1.62.12-1.41-.98-.16.37-.65.44-1.19.75.3.24.51.03.81.31-.26.21-.54.28-.79.5-.17-.23-.22-.49-.02-.8-.48-.41-.79.04-1.27-.37-.23.27-.03.44-.16.68-.43-.38-.83-.68-1.03.06-.28-.18-.61-.56-.81-.31-.46-.22.61-.78-.18-.93-.32 1.36-2.87 1.24-3.56.51-.58-.27-.08.51-.45.72-.12.12-.28.05-.39.23-.6-.27-.3-.7-.9-.96-.74 1.14-2.72.65-4.09.53-.23.64-.58.5-.85.92.82.58.46-.64 1.23-.33-.25.54-.18.39.32 1.07-.73 1.14-1.62.71-2.01-.03.28-.62.86.61 1.12-.16-.63.07-1.07-.78-.65-1.34-.88.13-1.83-.19-2.71-.09.11-.9.05-.53-.7-.86.43-.27.93-.1 1.48.43.2-.35-.46-.57-.15-.93-.47.3-1.05-.1-1.55.06-.27.46.32.8.74 1.17-.75.33-1.61-.04-2.29.8-.05.43.3.81.18 1.25-.79.35-.14-.8-.85-1.01-.19-.28.21-.16.34-.52-.97-.97-2.67-.07-3.78-1.15-.96 1.12-2.14.57-3.24.68-.48-.76.65-.78.61-1.65-.91-.53-.88 1.16-1.29-.33-.18.55-.11 1.07.2 1.56-.9.47-1.86.39-2.85.1-.13 1.24-1.13.86-1.81.8-.16-.2.08-.43.19-.65.21-.18.48.22.73.41.16-.17.17-.33.08-.48l.23-.34c-.54-.35-.93.61-1.54-.34.26-.45.62-.08.92-.24.06-.86-.84-.33-1.15-.53.71-1.4-1.07-.15-1.84-.63.11.48.05 1.4-.5 1.46.27-.83-.44-.77-.6-1.69-.11.22-.24.26-.38.18.35.85-.55.81-.62 1.62-.38-.09-1.61-.91-2.28.01-.53-.39-.13-.83-.14-1.26-.79-.34-1.49-.35-1.96-.81l-.46.66.6.59c.39-.92.99.07 1.48.05-.55.72-1.27-.22-1.83.44-.2-1.9-1.53-.71-2.68-1.56.41.19.76-.29 1.2.09-.05-.79-1.09-.43-1.49-.39-.07.43.02.84-.13 1.27-.68.28-.45-.79-.77-1.06-.14.33-.33.2-.52.03.09.98-.53 1.02-1.31.08.51 1.01-.16.36-.66 1.3-.84-.83.85-.82-.16-1.57-.1 1.17-.63.89-.89 1.63-.72-.7.67-.79.4-1.28-.64.03-.77.05-1.1.85-.66-.64.39-.39.17-.95-1.25-1.05-1.46.28-2.53.75-.34-.35-.23-.72-.76-1.06-.49.76-1.12.09-1.64.55-.21-.41.02-.84-.12-1.25.01-.03.03-.03.04-.06.14-.21.31-.1.45-.28.04.02.06.05.09.07.31.27-.04.58.01.87.76-.2.95-.77 1.9-.57-.59-.22-1.2-.75-1.73-.38 0 0 0-.01-.01-.01-.45-.4.7-.09.21-.63.14.06.27.09.41.11.39.07.78.04 1.17.08.09.01.18.01.27.03.09-.22-.21-.41-.06-.63.45-.35.23.57.71.74.01 0 .01.01.01.01.01-.01.01-.02.02-.02.15-.22.33-.26.51-.2.03.01.07.02.1.04v-.08c-.08-1.33.67-.47 1.3-.42.13.01.24-.02.35-.1.08-.06.16-.16.22-.3.08.06.13.13.17.2.2.36-.08.75.45.71.14-.29.1-.57.05-.84-.07-.34-.16-.69.02-1.05-.04-.04-.08-.07-.12-.1-.04-.02-.07-.04-.11-.05-.29-.09-.54.22-.85-.1-.11.21.17.41.33.61-.38.57-.86.18-1.3.08-.14-.56.38-.29.43-.97.39-.11.8-.01 1.19-.17.12-.05.23-.12.34-.23.35.26.23.6.3.78.04.09.11.14.32.13.03-.12.07-.22.11-.31.17-.42.44-.68.78-.83 1.18-.54 3.15.22 4.39.04.13.41-.43.87-.13 1.27-.82-.06-1.63-.2-2.44-.29-.26-.03-.52-.06-.78-.08-.26-.02-.52-.02-.77-.02.27.3.56.37.65.52.07.11.05.25-.15.56.42-.15.84-.33 1.27-.39.16.41-.28.85.39 1.23.31-.93.48-.64 1.13-.54.54.33-.03.74.51 1.07.96.21 2.06-.48 2.54-1.13.02.26.34.5.22.77-.33.46-.13-.79-.53.04.86.55 1.59-.05 2.45.46l.8-1.16c.31.4.38.82.94 1.2.41-1.1-.47-1-.71-1.53.42-.59 1.1 1.01 1.48.04.7.57-.38 1.3.48 1.86.11-.17-.1-.31-.19-.46.96-.64 2.04-.23 3.1-.12.46-.72-.49-1.33-.96-1.18.46-.33.76-1.87 1.33-1.22.32.57-.53.23-.3.82.35.68.48-.44.84.24.22-.63-.16-.81.53-1.15.35.28.39.6.12.94.82.57.49-1.31 1.26-.74.26.45-.61 1 .04 1.42.46-.41.26-.77.53-1.16.17-.09.34-.18.54-.06.1.5-.65.59-.37 1.31.68-.15.59.36 1.36.96 1.35.43 2.57-.53 3.48-.7-.6 1.21 2.26.41 3.29.71.07.83-1.29.07-1.66 1.01 1.22.65 1.95-1.14 2.9-.23.11-.23-.2-.4-.37-.58.25-.8.72-.16 1-.78 1.28 1.39 2.4-.25 3.22.82 1.13-.88 2.05-.19 2.88-1.43-.51.04-.2-.18-.66-.53 1.34-1.28 2.09.39 2.43 1.65.24-.68-.17-1.25-.06-1.91.63.08 1.21-.12 1.88.15.27.35-.52.48-.77.86.36-.11 2.2.23 2.5-.04.36.08.52.92.12.62.17.74.56-.09.84-.17.1-.24-.22-.38-.4-.56 1.13-.31 3.29 1.16 4.67-.05l.87.62c.22-.37.61.1.78-.5 1.58 1.39 2.45-.61 4.03.61 1.09-1.14 2.51-.88 4.04-.26-.66.7-.62 1.05-1.13 1.61 1.42-.43 2.59-1.88 3.56-1.18-.39-1.28.47-2.22-.31-3.54.75-.06 1.57.11 2.34.07-.45-1.33-2.74.35-3.12-1.31.19-.44.69.29 1.01.34-.1-.65.41-.64.87-.83.24-.11.47-.27.57-.62.04.4.09.8.49 1.09.13.1.29.18.5.25-.12-.32-.09-.56 0-.78.12-.28.34-.54.6-.9.01.01.03.02.04.03.61.43 1.6.88 1.36.01.29.11.42.29.54.44.09.12.18.2.32.22.07.01.15 0 .26-.04.46.46.07.43-.2.9.65-.08 1.32-.19 1.8-.84.65.31-.21 1.2.46 1.51.18-.33 0-1.62.76-1.14-.03-.38.22-.87-.47-1 .59-.56.61-.51.64-1.09 0-.1.01-.21.02-.34.05-.28.23-.19.41-.06.23.16.47.37.53.03.22-.39.1-.51-.11-.56-.23-.05-.58-.01-.74-.13.26-.22.63-.1.91-.25a.47.47 0 00.21-.19c.42.28-.32 1.02.39 1.19-.04-.71.91-.67.76-.13.4-1.31 1.73-1.48 3.15-1.17.18.04.36.08.53.13-.05-.32.17-.82.08-1.19m10.45-6.3c-.04.31.14.51-.1.94-.36-.18-.52.09-.87-.06.18-.63.38-1.19.97-.88m-3.68 1.65c.64.89.52-.38 1.21-.3.49.88-1.76 1.61-1.21.3m-4.14.34c.6.2.36 1.06 1.08.7-.55 1.49-1.4-.23-2.27.02.17-.85 1.09.3 1.19-.72m-5.51-.23c.29.76.64.03.71-.67.79.62-.2 2.3-1.03 2.02-.2-.56.04-1.13.32-1.35m5.91-7.66c.37.33.93-.75 1.02.16-.41.05-1.05.9-1.02-.16m-.73.93c-.57-.71-.48.04-1.08.04.12-.34-.49-.35-.42-.67.67-.23.71.38 1.04-.54l.57.23c-.05.32.12.52-.11.94m-.34-3.54c-.89.35-1.55 1.3-2.57 1.32.53-1.09 1.96-1.66 2.57-1.32m-1.59 2.24c-.15.92-.67.93-1.31.6.41-.27.63-1.01 1.31-.6m-4.9 2.07l.55.26c-.09.74-.53.51-.87.57l.32-.83zm-91.24 3.14c-.64-.4-.01-1.4.43-.96-.33.32.01.62-.43.96m76.18-11.52c.35.32-.28 1.15-.57.84-.07-.22.05-1.42.57-.84m23.3-24.52c.79.64.35-.9 1.14-.25.07.97-.95 1.35-1.22.88.31.01 0-.29.08-.63m-15.73 5.21c-.17.97-.79.42-.88.39.28-.18.38-.79.88-.39m-11.65 10.2c-.2.54-1.03 1.16-1.18.37.4-.1.65-.73 1.18-.37m-4.88-9.37c-.2.73-.67.49-1.1.34-.14-.6.56-.82 1.1-.34m-4.32 21.59c.41.01 1.4-.44 1.5.17-.38.1-1.36.61-1.5-.17m11.46-2.37l-.67-.45c.14-.47.35-.69.66-.54-.47.48.48.51.01.99m-.77-3.72c.42.64-.48.94.1 1.29-.17.34-.38.56-.65.54.4-.67-.38-2.01.55-1.83m-4.57.7c.8 1.12.41-.26.98.72.58-.37 1.63-1.47 2.05-.77-.14-.07-.76.28-.41.46.36-.31.79-.35 1.31-.08-.18.65-.61.37-1.07 0-.26.58-1.02.58-.82 1.41-.98-.44-1.57 1.28-2.4-.03.17.94-.7 1.14-1.26.81 1.15-.51.67-1.54 1.62-2.52m-4.71-14.9c-.56-.29-.86.44-1.52-.27.29-.47 1.32-.46 1.52.27m-.86 15.67c.34-.02.51.11.64.5.69-.97 1.81-.1 2.47-1.13.49.27.3 1.36.73.3.54.34.87 1.56.05 1.29.09-.24.15-.47-.15-.61.34 1.76-1.25 1.61-1.96 2.3l-.8-.61c-.48.19-.78 1.2-1.44.63.01-1.03 1.13-1.42 1.79-1.37-.17-.19 0-.28.17-.37-.42.05-.98-.48-1.38-.31-.42 1.01-.91 1.81-1.7 1.16 1.01-.2.59-.83.89-1.31.21.78.58.17.69-.47m-5.35-15.95c-.28.72-.85.16-1.3.1.32-.58.8-.38 1.3-.1m2.29 18.04c.47.58.8.51 1-.21l.47.38c-.51.68-1.2.49-1.85.55l.38-.72zm-5.82-17.15c.12.63-.51.94-.94.68-.14-.79.56-.72.94-.68m4.48 17.6c-.34.45-.86.03-1.31-.05.33-.56.77-.5 1.31.05m-3.98.25c.61.51 1.06.09 1.51-.26-.3-.48-.45-.99-.05-1.59.42.16.81.16 1.28.57-.27.6-.73.25-.97.98.34.59 1.23.08 1.44.69-.24-.09-.44-.02-.6.28l-.78-.66c-.7.89-1.05.27-1.9.96.19-.35-.3-.59.07-.97m-1.6.43c.61.26.36-.73 1.1-.35-.18.69-1.06 1.23-1.1.35m-6.19-17.35c-.38-.11-.64.54-1.1-.02.09-1.09 1.61.12 1.1.02m3.42 17.81c-.57.2-1.21 0-1.82-.07.42-.74 1.89-1.14 1.82.07m-1.97-.21c-.33.36-.71.45-1.06.62.1-.66.49-.89 1.06-.62m-1.89 4.39c.51.48.76-.68 1.28-.17-.27.58-1.24.98-1.28.17m-.23-3.94c-.39-.33-.67-.11-.5-.73.3.27.46-.3.8.21l-.3.52zm-4.62-18.46c-.06 1.05-1.25.53-1.91.23.58-.49 1.31.12 1.91-.23m4.57 18.94c-.18.24-.32.69-.56.55.05-.11.1-.23-.05-.31-.17.31-.38.34-.61.25.35-.56.75-.76 1.22-.49m-5.51 3.98c-.82.63-1.74.58-2.71.13 1.16-.18 1.69-.2 2.71-.13m-4.56-5.23c-.31.44.03.58-.43.67-.65-.43-.05-1.36.43-.67m-4.01 5.08c.41.09.64.89 1.25.68-.25.78-.68.12-.95.72-.55-.43-.8-.88-.3-1.4m-9.24 1.73c-.47.42-.99.45-1.54.09.47-.41.98-.44 1.54-.09m-4.14-6.21l.29.3c.08-.09.15-.17.26-.01-.14.74-.73 1.25-1.33.86.29-.72.87-.46.78-1.15m32.68-28.39c-.23.9-.69.74-1.19.38-.07-.7.7-.81 1.19-.38m-12.13.39c-.23.26-.35 1.23-.73.57-.25-.46.43-1.19.73-.57m-4.42 5.85c-.24.6-.58.51-.91.41.27-.41.53-.84.91-.41m-5.38-.16c.09.6-.41.89-.83.23.25-.26.49-.66.83-.23m-5.07-1.19c1.03 1.14 1.18 1.03 2.15 1.43-.46.6-1.09 1.31-1.97 1.23-.15-.36.55-.77 0-1.1-.61.52-.23.96-.45 1.45-.24-.32-.43-.14-.67-.43.23-1.21.69-1.51.94-2.58m-3.55 1.49c.65-.48 1.37-.3 2.11.02-.27.67-.39.26-.6 1.3-.23-.19-.48-.61-.67-.43-.14.22.15.41.07.63-.49-.25-.84.62-1.41-.38.31-.73 1.22-.2.5-1.14m-3.83.69c-.27.58-.61.6-1 .06.27-.58.66-.09 1-.06m-5.87-.32c-.49.43-1.46.78-1.67-.08.53-.23 1.06-.47 1.67.08m-12.69.92c.28-.67.98-.06.68.44-.35-.21-.62.2-.68-.44M254.39 15c.19.22.36.26.54.3.05.41-.35.97-.69.96-.5-.4-.21-.83.15-1.26m-8.45 1.58c.44.24.8-.72 1.28-.02-.33.25-1.29.77-1.28.02m-33.95 3.07c.37.38.77-.22.73-.63.25.26.4.52.43.78-.29.32-1.23.65-1.16-.15m-2.51-1.1c.52.57.38 1.15.5 1.72.35-.76 1.07-1.05 1.14-.16-.67.31-1.99.89-2.33-.31.96.47.34-.79.69-1.25m-2.32 1.73c.35.13.66-.32 1.03 0 .14.97-1.45.77-1.03 0M26.06 56.75c-.4-.43.01-.83-.05-1.25.31.24.6-.14.93.5-.3.36-.6.17-.88.75M8.43 80.97c-.02-.57.62-.94 1-.9.02.42-.6 1.36-1 .9m23.38 6.35c-.36-.51-.49-.52-.52-.02-.61-.53.52-1.15.75-.6-.17.2-.2.41-.23.62m.32-2.03c-.79.36-.87.52-1.5 1.51-.33-.69-.62-.32-.9.12-.45-.68-.54-.73-.83-1.6-.64.6-.15 1.25.07 1.88-1.08-.36-1.07-1.87-.48-2.68.95 1.17 1.78-.93 2.7-.37.49.69-.48.35-.23.93.39-.35 1.13-.4 1.17.21m-.69-1.12c.33-.3.67-.61 1.04.04-.34.37-.68.36-1.04-.04m-.96-15.83c-.43.47-.28 1.11-.89.44-.03-.47.51-.96.89-.44m3.56 16.24c.63-.48 1.26-.92 1.93-.4-.65.04-1.26.95-1.93.4m-2.22-14.94c-.37-.2-.57.9-.73 1.23-.57-.33-.13-.63-.29-.95-.13.08-.26.04-.39-.17.64-.15 1.2 0 .86-1.06.31-.01.56.53.55.95m5.85 15.08c.32.47.59-.46.91.19-.2.68-1.09.4-.91-.19m-2.03-27.3c1.07-.81 2.03-1.11 2.5-2.41l.54.64c-.76.33-1.55 2.38-3.04 1.77m3.83-1.43c-.23-.32-.37-.64-.29-.95.86-.14 1.7-.67 2.56-.53-.75.6-1.52.88-2.27 1.48m14.02 32.89c-.21.28-.42.43-.63.44-.7-.76.37-1.45-.6-2.21.47-.12.92-.84 1.42-.11-.85-.04-1.04 1.02-.19 1.88m-7.63-34.85c-.6.77-1.91 1.44-2.9 1.93-.44-.53-.17-1.05.2-1.56.59-.4 1.5-.34 2.42-1.01.14.22.4.44.28.64m16.52 30.15c.07-.61 1.01-1.24 1.52-.89-.49.82-1.01.72-1.52.89m23.47-2.67l.49-.61.41.48c-.27.63-.59.23-.9.13m.88-.76c.65.07 1.28-.3 1.95.22-.62.61-1.27.62-1.95-.22m2.07-.25c.49.51.93-.48 1.42-.11-.37.82-1.43.92-1.42.11m-2.98-50.95c.12-.38.23-.65.49-.61-.12.2.08.42.28.63-.24.36-.49.36-.77-.02m1.81-1.19c-.27.61-.36.59-.64 1.38-.39-.53-.18-1.04-.32-1.57.12.11.23.07.35 0 .22-.14.44-.41.68.03-.02.06-.05.11-.07.16m1.29 1.29c.64-.61.15-.64-.18-.83-.17-.09-.28-.23-.21-.49.04-.15.13-.33.32-.57.01.02.02.03.03.05.36.54.38.67.73.73.06.01.1.02.18.03-.1.44-.25 1.56-.87 1.08m2.31-1.77c.02.04.03.08.07.12-.68.13-.54 1.45-1.23 1.53-.12-.38-.27-.77-.21-1.15.03-.19.09-.38.27-.57.1.09.2.22.29.3.08.07.16.1.24.03.02-.03.03-.08.04-.13.07-.42-.13-1.3.43-1.11.1.33-.11.65.1.98m20.67 50.31c.45-.55.96.17 1.42-.12-.45.6-.92.51-1.42.12m14.72-1.52c.65.32.43-.73 1.02-.29.14.36-1.14 1.34-1.02.29m2.75.54c-.37.44-.77.21-1.16.13-.04-.54.53-.37.86-1.08.45.32.02.62.3.95m13.85-.49c-.33-.37-1.28.03-1.21-.81.61.77 1.29-.55 1.21.81m3.12.05c-.36-.25-.7-.07-1.07-.65.48-.71 1-.8 1.51-.92l.41.48c-.71.35-.6.21-.85 1.09m7.12-.35c-.4-.71-1.3-.14-.96-1.11.26.55 1.12.41.96 1.11m29.94-1.04c-.35-.14-.67.43-1.06-.32.25-.48 1.18-.33 1.06.32m-3.94-50.79c-.63-.6-1.18.26-1.8-.01.44-.47.75-.93.56-1.4.41.41.76-.08 1.16.16-.65 1.01.42.6.08 1.25m1.35-1.09c.27-.45.56-.61.89-.15-.27.45-.56.61-.89.15m1.2.79c.17-.36.01-.73.32-1.09.33.44.33 1.56-.32 1.09m2.57.02c-.31-.23-.6-.06-.93-.47.18-.18-.2-1.11.34-.78-.24.41.09.79.41.48-.13-.32-.15-.63-.05-.94.27.31.5-.22.79.32-.61.45.05.92-.56 1.39m15.56 50.68c-.29-.25-.12.35-.38.16.28-.45-.41-.06-.56-.63.2-.5 1.11.01.94.47m-10.06-53.16l.55.63c-.35.73-1.12-.15-.55-.63m2.38 1.27c.12-.26.03-.52.34-.78.34.63.61.24.93.47-.4.47-.81.83-1.27.31m14.82 49.68c-.15-.26-.1-.52-.44-.78.53-.59 1.07-.9 1.68-.16-.66.07-1.25.52-1.24.94m-8.42-49.99c-.58-.4-1.73 1.01-1.93-.15.6.09 1.66-1.04 1.93.15m11.8 52.03c.18-1.09 1.01-.95 1.64-.79-.52.7-1.05 1.2-1.64.79m.28-1.73c.64-.77 1.34-.69 2.06-.32-.64.7-1.38.01-2.06.32m2.3-.63c.23.19.43.01.66.16-.15.21.14.42.04.62-.13-.09-.26-.05-.38.16-.35-.31-.5-.63-.32-.94m.46 1.09c.45.33.85-.26 1.32.31-.33.42-1.34.46-1.32-.31m1.91 1.26c.3-.75.68-.18 1.02-.32-.08-.16-.27-.31-.16-.47.2.21.25.42.3.63-.39.12-.75.5-1.16.16m3.93-1.42c-.41.4-.87-.03-1.3 0 .39-.78 1.21-.93 1.3 0m1.97 2.17c-.29-.26-.18-.52-.44-.78-.12.16-.03.31-.1.47-.59-.36-.3-.73.06-1.1.18.16.38.47.54.31-.14-.21.04-.42.22-.63l.42.47c-.65.7-.55.49-.7 1.26m.8-1.73c.13-.26-.17-.52-.18-.78.69-.68 1.44-.55 2.2-.18-.39.42-.05.84-.44 1.26-.54-.26-1.04.01-1.58-.3m1.76 1.08c.06-.15.02-.31-.16-.47-.16.18-.32.33-.52 0 .68-.18 1.36-.44 2.08-.02-.73.19-.85.48-1.4.49m.98-.95c-.68-.68-.68-1.35-.53-2.03.19.22.37.27.54.31-.25.57.6 1.14-.01 1.72m2.78.75c-.59-.3-1.8.32-1.98-.45.4.22.77-.16 1.16-.17-.24-.33-.44-.17-.68-.47.34-.29.89-.5.83-1.11.34.75.56 1.48.67 2.2m3.8-1.6c-.37.26-.75.38-1.18-.15.35-.54.75-.42 1.16-.17-.07.11-.13.22.02.32m3.42.59c.06-.31-.6-.34-.68-.46-.14.26.03.52-.07.79-.68.14-.97-.71-.49-1.41.71.13 1.39-.06 2.1.29-.48.35-.63.79-.86.79m4.66-.36c-.34-.59-.58.36-.94-.46.34-.35 1.28-.18.94.46m1.29 3.43c-.36-.31-.5-.62-.33-.94.18.16.38.47.54.31.12-.09.24-.31.38-.16l-.59.79zm1.31-1.75c-.19-.26-.56-.51-.45-.78.68.47.95.31 1.14-.49.47.88-.24.97-.69 1.27m2.3-.67c.61-.57 1.26-.51 1.92-.51-.62.48-1.24 1.02-1.92.51m.66-1.58c-.24 1.23-.62.05-1.04.02.4.82-.2 1.42-.38 1.89-.69-.67.67-1.38-.02-2.04-.12.26-.03.52-.33.79-.19.01-1.05-.51-.85-.93.79.52 3.3-2.44 2.86-.05.53 0 1.67-.73 1.84.28-.26.61-1.72.83-2.08.04m2.27-.99c.4-.39.84-.4 1.3-.02-.38.72-.84.36-1.3.02m-.23-13.49c-.59-.39-.44.68-1.11.8-.82-.9 1.07-2.12 1.11-.8m5.7-1.83c.37-.3.73-.68 1.15-.18-.35.56-.73.59-1.15.18m3.51 3.55c-.68-.56-.08-1.15.26-1.73.23.23.41-.28.66.14-.39 1.05-.7.43-.92 1.59m1.34-1.13c-.8-.91.73-1.63 1.22-.98-.13.27.04.52-.07.79-.83.14-.68-1.11-1.15.19m2.76.4c-.42.54-1.38-.29-1.36.83l-.57-.61c.29-.6.63-.21.58-.8.78.38 1.16.37 1.24-.66.58.3.16.63.33.94l.59-.8c.72.88.11 1.37 1.16 1.54-.59.14-1.71.4-1.97-.44m1.07-2.86c-.32-.23-.57.5-.92-.13.18-.69 1.07-.47.92.13m9.79-13.14c-.7.68-.66.73-.64 1.59-.3-.49-.56-.49-.77.02-.6-.95.64-2.12 1.41-1.61m3.68 14.5c.04.47-.58.85-1.01.34.32-.32.65-.53 1.01-.34m-.94 10.39c-.39.29.15 1.33-.56 1.11.19-.32-.41-.62-.34-.93.27-.47.56-.64.9-.18m-3.9-12.46c.04.5-.6.66-1.01.34.3-.57.65-.46 1.01-.34m-1.36 1.45c.13 0 .26.01.4.03.52.07 1.08.25 1.5.24-.34.32.01.63-.44.95-.84-1.31-1.49-.19-2.27-.72.13-.38.43-.5.81-.5m-3.19 1.66c.34-.65.73-.7 1.13-.5.03.58-.66 1.29-1.13.5m6.15 11.45c.27-.46.56-.63.9-.18-.27.46-.56.63-.9.18m-3.36-10.74c.66-.56.33-.4.56-1.12.38-.06 1.4-.29 1.09.6-.84-.82-.74 1.21-1.65.52m5.5 13.04c.04-.25.5-.79.27-1.42-.28.33-.61-.04-.95-.44.62-.44 1.19-1.41 1.89-.84-.92.78.09 3.39-1.21 2.7m2.76-1.33c-.38-.38-.65.52-1.07-.29.23-.49 1.17-.37 1.07.29m-1.38-.91c.36-.85.84-.38 1.27-.35-.41.18-.8.71-1.27.35m1.52-9.78c-.89-.78-2.32.21-2.79-.71.83.33 2.69-.93 2.79.71m3.37-.11c-.75-.64-1.32.8-2.08.08.62 0 2.17-1.56 2.08-.08m97.85 4.01c.7-.03.45-.43 1.46-.46-.08.55-.24 1.01-.64 1.2.1-.75-.68-.1-.4.28-.49-.24-.42-.64-.42-1.02m-8.41 1.72c-.55.06-1.76.7-1.97-.05.61-.16 1.23-.34 1.97.05m-4.29-.34c.35.18 1.39.02 1.34.68-.25.32-1.41-.1-1.34-.68m-9.04-.37c-.42.62-.81 1.55-1.42 1.04.42-.62.86-1.17 1.42-1.04m-2.28 1.96c.36.75.64.35 1.28.77-.93.3-1.4 2.11-2.15.94.77-.36.6-1 .87-1.71m-1.1 2.07c-.67-.33-.46-.78-1.04-1.12.32-.44.71-.37 1.08-.47-.19.55.23 1.02-.04 1.59m-.71-3.57c-.15.35-1.03.5-.69 1.06.39.59 1.25-.41 1.22.46-.51.09-.99.38-1.61-.25.23-.3.11-.54-.26-.76.4-.46.85-.62 1.34-.51m-1.83 2.02c.41-.13.85-.03 1.33.29-.21.88-1.41-.01-1.33-.29m-5.23-.92c.6.07.77.99 1.42.15-.02-.54-.87-.29-.57-1.04.54-.08.91.17 1.24.81-.61.97-2.02 1.53-2.44.59.32.17.12-.25.35-.51m-2.24-.07c.28.02.58.15.91.53-.32.42-.69.46-1.1.12.17-.22.18-.44.19-.65m-1.22-.81c-.3.57-.76-.11-1.14-.19.26-.86.72-.18 1.14.19m2 4.53c-.65.42-1.32.67-2.1.08.66-.36 1.4-.06 2.1-.08m-6.2-5.07c.02.18-.19 1.13-.58.84-.01-.42-.06-1.21.58-.84m1.86 2.83c-.09.7-.87.47-1.05 1.52-.8-.3.45-.78 0-1.11-.4-.29-.65.71-1.09.1.64-.79 1.4-.54 2.14-.51m-4.84-1.46c.7.5.56 1.61.06 1.73-.37-.54-.42-1.12-.06-1.73m-2.63-2.78c.2.18.35-.01.57.27l-.58.83c-.43-.34-.15-.73.01-1.1m.81 3.57c.33.97.68.14 1.3.68-.52.64-1.19-.07-1.7.61-.26-.27-.5-.42-.72-.42.61-.43.82.2 1.12-.87m-3.35-1.03c.24.14.45.04.72.42-.56.27-.26.78-.88.54.22-.33-.26-.61.16-.96m-.97 1.02c.97 1.02 2.36-.53 2.9.58-.79-.01-2.81 1.12-2.9-.58m-3.75-.07c-.13.27.05.52-.05.79-.37-.58-.6.17-.97-.41.32-.33.65-.56 1.02-.38m-5.88-.6l-.68.98c-.48-.88-.75.31-1.22-.41.59-.56 1.25-.53 1.9-.57m-6.46-7.23c.03.36.21.72-.28 1.11-.71-.4-.24-1.55.28-1.11m.3 1.72l.44.45c-.24.65-.58.28-.89.2l.45-.65zm-3.39-2.81c.14.11.25.25.28.44-.36.51-.52.2-.76-.13-.15-.2-.32-.41-.6-.44.29-.19.77-.12 1.08.13m-1.36-1.39h.07c.18.02.31.16.28.48-.38-.35-.43.51-.46.65l-.58-.6c.12-.32.43-.53.69-.53m-3.32-2.49l.43.45c-.06.11-.12.19-.18.27-.17.2-.37.23-.58.05-.04-.04-.08-.06-.13-.11l.46-.66zm-4.36 6.19c.05.35-.48.8-.84.83.19-.51-.6-.1-.83-.59.51-.58 1.1-.32 1.67-.24m-10.18-17.5c-.37-.36-.67-.17-.46-.77.57-.03.39.65 1 1.06.48-.81 1.15.37 1.63-.53-.36-.12-.68.07-1.09-.58.22-.45.51-.07.72-.66.49.21.01 1.23.6.92.34-.38-.47-.72.03-1.1.25-.11.52.03.8.28.01.47-.47.96-.26 1.42.29-.11.63.26.95.43-1.79.28-3.57.52-5.44-.11.42-1.17 1.08.52 1.52-.36m6.61 18.29c-.19-.25-.57-.5-.46-.77.63.27 1.15-.67 1.85.24-.63.52-1.07-.15-1.39.53m2.19 6.83c-.29.2-.51 1.13-.84.82-.05-.42.44-1.24.84-.82m-4.01-9.59c-.24-.28-.47-.44-.69-.44l.23-.33c-.08-.1-.15-.2-.03-.31.79.69.11-.68.43-.96.06.04.11.06.17.06.25.04.49-.14.78.37-.56.55-.51 1.07-.89 1.61m-7.22-16.7c.68.41-.11 1.57-.54 1.12.03-.71.76-.15.54-1.12m-1.03.04l.43.46c-.43.53-.83 1.29-1.35.83-.06-.69.61-.51.92-1.29m1.54 17.23c.35-.19 1.25-.53.95.44-.3-.74-1.07.46-.95-.44m-8.47-16.66c-.32.65-.54 1.18.25 1.4-.4.35-.84.22-1.32-.26.36-.59.28-1.78 1.07-1.14m1.47 16.92c.03-.03.04-.07.06-.1.13-.18.2-.36.23-.53.01-.05.03-.1.03-.16l.13.14.15.16c-.05.22-.04.39-.01.54.09.37.41.55.89.69-.66.75-.87-.02-1.48-.74m1.45-1.31c-.75-.66-1.39-.03-2.13-.55.67-.75 2.13-.42 2.47.06-.25-.19-.34.25-.34.49m-1.37-2.68a.654.654 0 01-.19-.4c.4.03 1.18-.17 1.6.13.13.09.23.22.27.43-.47-.31-1.29.23-1.68-.16m2.79 4.78c-.11-.03-.22-.04-.33-.1.19-.12.4-.22.64-.29.36-.12.77-.19 1.17-.25.42-.07.85-.12 1.24-.2-.09-.14-.18-.27-.26-.41-.13-.22-.19-.45.03-.69.09.43.19.6.3.67.19.12.43-.07.8.07.08.03.17.08.27.15-.2.31-.4.47-.51.68-.04.07-.06.15-.08.23-.04.19-.02.44.09.84-.92-1.55-2.16-.43-3.36-.7m5.68 10.52c.01-.32.12-.64.44-.96.42.74.7.03 1.1.59l-.23.32c-.45-.6-.64.18-1.31.05m3.33 2.07c-.71-.16-1.34.57-2.11-.23.67-.18.35-1.19.93-1.29.74.3.12 1.44.63 1.24.16-.37-.2-.73.29-1.11.41.44.27.92.26 1.39m-1.51-2.14c.38-.65.82-.6 1.27-.36-.41.18-.8.71-1.27.36m-.89-10.02c.36-.35.73-.53 1.13-.51-.22.25 1.06.07.6.92-.59-.27-1.16-.26-1.73-.41m3.41 10.39c.19-.26-.34-.51-.2-.77.38.31.67-.28 1.07.27-.27.42-.53.81-.87.5m-1.69-5.75c.5-.25 1.03-.17 1.53-.37 0 .44-1.42 1.15-1.53.37m4.7 5.8c-.69-.39-1.31-.01-2-.39.75-.4 1.57-.03 2.34-.09l-.34.48zm-4.64-10.83c.13-.43-.08-.84-.37-1.25.02.68-.02.73-.58.81-.32-.25-.13-.52-.2-.78-.19.86-.26.28-.75.34.43.63-.35.81-.75.34-.06-.54.51-.41.81-1.13.92.14 1.02.6 1.27-.36.49-.03.66.5.6.92.76-.71 2.16-.55 2.85.37.07.09.14.19.2.3-.15-.08-.3-.15-.45-.2-1.02-.33-2.03.11-2.63.64m5.28 10.65c.17-.22.19-.43.2-.64.34.3 1.3.09 1.24.74-.51-.44-.9.55-1.44-.1m3.3.33c-.51.48-1 1.36-1.88.87.25-.6.59-.21.84-.82-.38-.35-.67-.16-.46-.76.41.18 1.44-.21 1.5.71m-3.26-11.36c-.01.01-.01.02-.02.03-.04-.01-.08 0-.13 0-.3-.01-.6.08-.91.03.37-.56.32-1.16.95-.98-.19.32.37.6.11.92m5.22 11.42c-.75-.61-1.09.91-1.48 1.02-.63-.78.19-.71.37-1.59.32.62.51-.1.75-.35.38.29.53.59.36.92m1.42-9.83c-.41-.16-.75.33-1.18-.1.3-.14 1.22-.77 1.18.1m1.75 4.64c.26-.47.55-.65.89-.2-.26.46-.54.64-.89.2m1.77-4.65c-.41-.24-.77.14-1.18-.1.07-.11.17-.21.3-.29.22-.14.5-.19.68-.08.13.07.21.21.2.47m-1.55-1.97c-.29.37-.54.77-.73 1.29-.54-.74-1.18-.58-1.82-.26-.53.27-1.05.64-1.52.74.09-.32.76-.67.43-.97-.43.47-.92.32-1.35.85.19.15.53.05.43.45-.53-.51-1.59.58-1.73-.39.55.32 1.2-.45 1.09-1.15-.03-.16-.08-.32-.2-.47.02.38-.17.56-.43.63-.42.12-1.02-.08-1.27-.35a.377.377 0 01-.11-.19c.02 0 .04 0 .06.01.19.01.48.06.75.07.48.02.91-.1.69-.72-.01-.02 0-.03-.01-.05-.05.04-.1.06-.15.08h-.02c-.15.04-.32-.01-.49-.2.38-.39.73-.2 1.05.13.21.22.4.5.58.74.16.21.31.39.44.44l.44-.62.13-.18.01-.01.01.01c1.08.88 2.05.66 3.02.32.03-.56.2-1.04.4-1.34.08-.11.15-.21.23-.27.19 1.21.44-.45 1.07.26-.38.43-.71.78-1 1.15m2.88 2.22c.28.17.48-.38.81.28-.11.82-1.01.14-.81-.28m.57-.82c-.17-.21-.34-.32-.5-.38-.47-.16-.89.18-1.38-.16.28-.65-.23-1.15.51-1.44.66.39.23.83.38 1.24.37-.21.78-.02 1.12-.53.2.15.25.31.25.48.01.26-.16.52-.38.79m2.17 6.19c-.05-.46.58-.85 1.01-.36-.29.58-.65.47-1.01.36m4.39-.53c-.41.27-.75 1.17-1.24.69.39-.53.75-1.22 1.24-.69m-1.27.37c-.63.24-1.29.17-1.97-.06.59-.34 1.69-.81 1.97.06m-2.35-6.64c.07-.42-.3-.82-.38-1.24.26-.48.6-.11.92.11-.32.3-.17 1.35-.54 1.13m.64-1.91c0 .09.01.18-.01.3-.46-.65-1.44.27-1.47-.4.3-.07.97-.44 1.3-.27.1.06.17.17.18.37m10.78-4.07c.47.6.42.91 1.6 1.31-.76 1.04-1.83-.35-1.6-1.31m1.41 4.48c.57-.77.49.11 1.12.55-.31.75-1.08-.07-1.12-.55m1.18-1.34c-.36-.44-.51 1.07-.91.22l.57-.83c.16.2.45.39.34.61m-3.44-12.38c-.59-.18-1.05.76-1.7-.06.41-.65.91-.41 1.34-.86.36.29.52.6.36.92m3.7 12.36c.81-.68 1.7-.66 2.6-.5.06 1.48-1.64.93-2.6.5m3.15 1.98c-.76.42-1.2-.16-1.81-.66.05-.13.06-.25.08-.37.02-.14.07-.29.23-.44.23.13.32.27.36.42.06.22.02.44.16.65.27-.32.48-.51.62-.7.18-.23.27-.47.26-.94.43-.04.41.4.58.78.02.04.03.08.05.12-.29.59-.66.44-.99.7.21.15.55.04.46.44m.47-1.77c.28-.66.68-.24 1.02-.38.08.72-.58.91-1.02.38m-.89-1.98c-.38.62-.81.65-1.32.09.43-.8.7.1.83-.85.27.25.44.5.49.76.34-.93 1.51-.59 1.61.2-.6-.62-.98.7-1.61-.2m1.45-10.22c-.57.77-1.24.69-1.89.63.57-.7 1.23-.69 1.89-.63m1.36 12.69c.39-.09.67-1.13 1.14-.58-.34.52-.72.73-1.14.58m2.7.08c-.27-.03-.56-.17-.87-.56.27-.76 1.2.04.87.56m2.63-1.66c-.44-.63-.77-.42-1.15-.53.53-.37.27-.36.68-1.01.31.58.52.81.95.08.27.24.45.48.5.74-.28.61-.66.45-.98.72m2.85 2.08c.4.28.69-.33 1.12.19-.21.54-1.22.3-1.12-.19m1.63.93c-.63-.21-.56-1.29-.01-1.11-.35.41.52.68.01 1.11m.04-3.92c-.06.2-.16.41-.35.63-.8-.54-1.4.4-2.15.24.06-.26.16-.43.28-.56.13-.08.25-.17.38-.25.36-.13.83-.1 1.33-.18.06-.01.13-.01.19-.03.11-.25-.01-.57.38-.2 0 .1-.02.22-.06.35m-1.31-2.44c.25-.49.58-.36.95.05-.25.5-.58.37-.95-.05m4.86 5.48c.43-.54.88-.91 1.47-.36-.43.53-.97.36-1.47.36m-1.71-13.44c-.47.74-1.76.64-2.03-.24.69.81 1.11-.25 1.67-.35-.15.47.38 0 .36.59m2.35.47c.23-.5.57-.38.94.03-.23.5-.57.38-.94-.03m5.51 13.08c-.58-.72-.98-.31-1.52-.74.41-.64 1.05.18 1.37-.99.35.4.56-.02.92.51-.53.61-.42.44-.77 1.22m3.96-.81c-.83-.66-1.31.62-2.15-.11-.08-.7 2.39-.96 2.15.11m-1.28-13.22c-.85-.6.29-1.28.77-.94-.19.64-.57.29-.77.94m10.81 2.15c-.28.68-1.5.38-1.57-.14.53.1.95-.31 1.57.14m-.23 4.3l.34-.61c.22.15.36-.06.61.19.09.21.05.44-.07.65-.25.46-.86.82-1.36.63l.48-.86zm1.68.8c-.08.7.11 1.36.89 1.47.14.56-.38.51-.69.82-.45-.86-1.09-.04-1.79-.26.43-1.06-.6.13-1.02-.74.52-.47 1.26.09 1.82-.24.21-.28.33-.6.41-.91.23-.95.07-1.87 1.02-1.71-.31.35-.57.98-.64 1.57m-2.55-8.74c-.3-.2-.49-.43-.57-.68.54-.28 1.01-.84 1.74-.27-.27.82-.9.1-1.17.95m18.8 4.71c-.07.26.19.38.46.5-.58.63-1.55-.04-2.11.63.38-.85.81-.86 1.65-1.13m-1.1 2.44c-.39-.11-.67.16-1.11-.14.23-.66 1.32-.66 1.11.14m-1.82-2.05c.51.19.83-.26 1.37.04-.17.67-1.3.67-1.37-.04m4.13-7.92c-.38.2-.46 1.31-1.04.9.24-.61.44-1.37 1.04-.9m-2.12.81l.54.3-.26.6c-.14.39.54.47.29.9-.48-.57-.42.58-.89.01.25-.66-.02-1.11.32-1.81m-2.54 2.81c.44-.01.96.22 1.43.31-.55.32-.99.99-1.52 1.38.18-.34.03-.56-.36-.71l.45-.98zm-3.12.35c.53 1.02.9-.24 1.61-.02.05 1.47-1.66 1.31-1.61.02m3.07 6.12l-.38.78c-.36-.16-.29-.46-.63-.63.2-.54.56-.49 1.01-.15m-.98-1.34c.13.4-.2 1.07-.57 1.18-.7-.11.17-.72-.53-.82.26-.49.63-.61 1.1-.36m-4.56-5.32c.2-.5.41-.96.8-.75-.09.25-.16.49.17.61.4-.46-.01-.66.28-1.08.77.36.04 1.2.06 1.8-.53.02-.42-.91-.7-.44-.14.43.3.68.16 1.11l-.7-.44c.13-.33.34-.67-.07-.81m-1.7-2.6c-.44.65-1.06.64-1.74.35.4-.78.97-.92 1.74-.35m-1.09 6.85c.46.5.6-.29 1.06.21l-.39.76c-.26-.31-.67-.58-.67-.97m-2.72.72c.48-.23.9-.64 1.45-.55-.31.88-.91.57-1.45.55m3.18 7.81c-.28.09-1.01-.42-.67-.96.44.26.87.53.67.96m5.11 1.71c.18-.39-.53-.49-.24-.92.62-.4.98.95.24.92m-.42-1.02c-.39-.15-.22-.48-.34-.72-.17.32-.56-.21-.74.04.32.18.54.4.62.65-.39.63-.9.2-.51.95-.34.08-.63.34-1.11-.19.11-.38.53-.32.31-.58-.47.15-.98.13-1.49.07.43-.71-.11-.16-.43-.54.18-.71.73.12.95-.42-.68-.72-1.06-.25-1.63-.54-.19-.24-.95-1.13-.12-1.11-.15.66.58.05.89.58.33-1.07 1.16-.15 1.61-.75.61.62.94.75 1.64.52.16-.33-.44-.41-.34-.72 1.44.45.91 1.31.69 2.76m.07-6.64c-.89-.35-1.4.72-2.28.39.77-.09 1.21-1.45 2.12-1-.13.26.22.37.16.61m-1.34-3.87c0-.83.12-1.33 1.01-1.15-.92.26-.07.98-1.01 1.15m2.49 5.32c-.07.47 1.14.52.61 1.13-.69.24-.18-.64-.99-.84l.49-.98c.26.31 1.03-.13.9.54-.28.26-.71-.01-1.01.15m6.85-.67c.2.32-.03.8-.1 1.22-.34.28-.71.42-1.12.43-.29-.4-.21-.93-.27-1.42-.14.57-.36.86-.61 1.05-.31.23-.68.3-1.01.48-.03.01-.06.03-.08.04-.9-.87-1.41-.52-2.49-.68.2-.93 1.87-.8 2.79-.9-.32-.17-.4-.42-.36-.71.83-.27 1.15-.09.92.53.59-.39 2.4-1.71 3.43-.46-.8-.16-.44.33-1.1.42m1.08-3.95c-.13.55.13.96.3 1.4-.37-.19-.49.43-.92.02.77-1.49-1.16-.13-1.11-1.09.69.23 1.64-1.25 2.11-.14l-.38-.19zm1-.73c-.35-.1-.07.83-.82.32l.35-.81c.21.15.54.24.47.49"/></svg>