<svg xmlns="http://www.w3.org/2000/svg" width="1086.6" height="180.9"><path d="M49.8 33.9c1.8.3 1.1.5 2.8 1.5.9-.8 0-1.2-.7-1.6 1.2-.5 2.4-.7 3.7-.6 2.2.1 4.4.7 6.5.8-2.5 1.8-5.7-.5-8.2 1.4 1.5 0 3 .1 4.6.7-1.4 1.1-3.3-.3-4.4 2.5-1-.7.3-2-1.3-2.6-.5.8-1.2.6-1.7 1.5-1.1-.3-.4-1.1 0-1.8-.9-.5-1.5.9-2.5-.1 0 2.1-2.8 1.5-2.6 3.5-2.4-.6-.4-2.3-2.3-3-1.4 1.5-5.3 1.1-5.8 0-2.1 1.9-2.6-.3-4.7 1.3-1.2-1 1.1-.8 1.2-1.8-2.6-.8-4.5 1.4-7 1.1-.6 1.3-.7 1.7-.4 3.4-1.4.1-3.7 1.5-3.4 3.3-1.9-.1.6-1.6-1.3-1.8-1.3 0-2.1 1.6-3.6.8-1.2 1.3 0 1.8-1.5 2.3-1.6-.7 1.2-2.8.6-3.9.6-1.3 2.5 1.6 2.9-.5-.8-1.4-3.9-.2-5.2 1.3-1.6-.2-.9-1.2-2.2-1.5-1.7 1.9-5.3 4.8-6.4 3.5-.8-.1-.5.8-.1 1.1-1.4.8-2.6 1.8-4.6.6C1.7 47 .5 46.5 0 48.1c1.3-1.8 4.1 1 5.2-1.6 1.7 1.2.3 2.5 3.4 2.5-1.5 3-2.9.9-3.6 1-1 2.2 1.9.6 2.4 2.1.4-1.3 1.2-1.6 2.3-.9.6-1.6 1.8-1.1 1.4-2.4-1.5-.3-2.3 1-2.5-.9.7-.9 2.2.7 2.8-.7 1.1 1-.5 2.1 1.9 1.9-1.5-2 1.7-.6 3.1-1.1.3.3.5 1.6-.1 2 1.4 0 3.9.9 5.2-.3 2.3 2.4 4.1-.2 6 2.1 1.8-1.2 1.1-2.6 3.3-3.2.6.4-.3 1.3-.7 2 2.2 1.6 3.5-.2 5.4.2.4-1.1-.1-1.3-1.1-1.1.6-2 2.7-.8 2.2-2.5.2.3 1 2 1.9.9 1.1 1.1.1.9-.7 2 2.3.6 4-1.5 6.6.4-.1-3.8 3.2.9 4.3-2.5.1 2.2 1.8.4 2.4 1.9-1.3.6-2.6 1.4-4.4 0-.6 3.2-4.7 1.8-7.5.8.1 1.1.2 2.1-1.1 3.6 2.9-4.4 11.9 2 14-5.1 2.5-.3 4.8-1.4 7.4-.8.4-1 0-1.3-1-1.2l1.9-2.6c.7-.4 1.5-.2 2.4.2-.9 1.3-2.3.4-3.1 2.4 1.3.7 2.4.3 3.7 1l1.3-1.7c.6-.2 1.3-.1 1.9 0 .9.7.1 1.6-.7 2.6 2.9.1.9-3.6 4.2-3 .2-.6.1-1.2-.7-1.7.7-.7 1.4-1.2 2.2-1.1-1 3.3 5 3 7.2 4-2.1 1.3-7.9.3-7.2 2.9-2.2.5-4.7-.3-6.8.6.1 2 2.8 0 4 .6-1.6 1.3-1.7.5-2.6 2.7-1.5-2.8-2.2.1-3.6-2.8-1.6 1.6-.5 2.7.3 3.9-1.3.9-1.8-1.3-2.6-1.6-.7 1-1.7.8-2.3 2.4-1.5-.3-.7-1.3-1.9-1.7-1.3 2.1-.9.3-2.7.3-1.5 1.5-3.4 1.1-4.9 2.7-1.7-.4-.2-1.6-.9-2.3 1.7-1 5.4-.3 4.5-2.9-1 0-1.8 1.6-2.7 2.1-.2-.4-.4-.9-1-1.2-1.3 1.9-1.6 2.1-3.3 1.2-1.8 1.8.8 2.4-1 4.2-.3.3-.7.2-1 .6-1.6-.6-.5-1.8-.6-2.7-1.4-1.4-2 .4-3.3-.5-.7.7-.2 1 .3 1.4-2 1.5-5.1-1-6.5 2.8-4.4.1-7 2.5-11 1.3-.7 2-2.3 1.3-3.5 2 .1 1.8.7 1.9-.2 3.4 2.2.8 2.1.4 3.7 1.6.3-1.9-.3-1.3.6-3.2 1.5-1 3.4-.3 4.5-2.5 1.3.9-.9 3-.8 4.3 1.1.6 3.5-1.4 3.8.6 2.6-.2 4.4-3.4 7.5-1.6-1.2 1.5-2.8 1.3-4 2.7 1 0 1.9-.7 3.3.5 0-1.5.3-1.7 1.4-.4 2.2-3.3 5.8-.5 8.4-2.1 1.6.3.2 1.4-.2 2.2 1.2 1 1.9-.5 3 0-.9-1.1-1.2-2.3-3.4-3.1-.2-.5-.2-1.2 0-1.8.8-.3 1.8-.2 2.6-.3.6.6-.5 1.6 1.2 1.9.8-.8.5-1.3.7-2 .4-.4 1.1.2 1.5-.4 1.2 1.2-.6 1-.3 2.2-.9 1.2-2.4-.6-3.2 1.2 5.8-.6 11.4-1.8 17.1-2.5 5.7-.6 11.4-1.2 17.1-1 .3-3 4.2-2 5.1 0 .5-1.6-.8-2.9-.2-4.6 2-1 2.2 1.8 4.1.5.4.4-.3 1-.6 1.5 1.8.1 3.5-1.7 5.4-1.1-1.7 4.1 4.5 1.4 7.6 3.9 1.4-.8-.3-1.4-.9-2 2.9-.2 1.7.4 4.4 1 .4-.6-1-1.1-.5-1.7.7-.3 1.4-.1 2.2.5.1-.7.4-1.4 1.3-2.2 1.5-1.3 1.2 1.7 2.9-.3.6.6.3 1.4-.6 2.2 4.3.6 3.7 1.7 8.9.2.3.6.3 1.1-.3 1.8 3.2-2.3 6.6-.5 9.8-2 .2.5.4.9 0 1.4 1.3 0 2.6-1.2 3.8-2.7 1.1.6 1.2 1.3.1 2.1 4.2-1.2 8.5 2.7 12.6-1.2 1.3.8-.3 1.6 1.1 2.4-.7.7-1.4-.5-2.1.8 3.3-.7 7.4-2.9 11.5-1.4.5-1.6-2.7-1.1-.7-2.8 1.8 1.5 3.3 2.7 4.8 2.1 1.1-2.2-1.5-.2-2.4-1.1 1.3-1.6 2.6-.7 3.9-1.1 0 1.2-.3 2.3-.8 3.5 3.5-.5 6.1-3.1 10.1-1.8.3.5-.5.9 0 1.4.6.7 1.1.3 1.7 1.1 1.3-1.3.7-1.4 2.2-2.1.1.7.4 1.4 1.3 2.1 1.8-.7 3.5-.2 5.2-.2.8.9-1.1 1.2-1.4.7 1.2 2.2 4.2-.3 5.3-2.3 1.7 1 .1 1.9-.8 2.8 2.4.1 5-2.8 7.3-1.6.7.5-.7 1.7-1.2 1.1.5 1.2 1.6 1.7 3.1 1.8-.5.1-2.1.4-.8 1.4-.7.4-1.3-.9-2.1.6 1.1 1.3 2.3.1 3.4.8-.4-1 .6-2.7 1.8-1.7.4-.7-.6-.3-1-1.1 1.4-.6 2.8-.7 4.3-2.6 1.6 1-.9 1.8.5 2.8 1.1-1.1 2.8-1 2.9-2.7 2.9.6 6.2 1.6 8.2 1.1.1-.8-.2-1.7 1.2-2.4 1 2.1-1.1 3 1.8 3.6-1 1.4-1.8.3-2.8.5 0 1.8 3.2-.1 4.4.6.2-.6-.3-1.2.5-1.7 1 .8 1.8.3 2.6 2.3 1.4-.8.5-1.6 1.9-2.4 1-.2 1.8 3.2 3.7.6.9.8 0 1.4 1.2 2.2-.9.9-1.6.5-2.4.2 4.8 3.7 13.1.9 19.2 2.3 0 .9-.7 1.8-1.6 2.7 1.2.5 2.5-.5 3.7.6 1-.8.7-1.6.6-2.4 3 .2 8.2 3.9 11.6-.5.9 1.7-1.3 1.2-1.2 2.4 2.2.2 2.7.2 4.4.7.4-.6 0-1.2.5-1.7 2.3-.5 5.7 3.8 7.1.9.7.9.3 1.7 1.5 2.6 1.1-.3 2.2-1.9 3.1-.1 1.9-3.6 5.7 1.3 8.6-1.1-.3.7 1.1 1.5.5 2.2 1.8-.6 3.6-1.8 5 .7.8-.9 1.5-1.2 2.2-1.3 0 .5.1.9.5 1.5.4-1.1 2.3-1 1.4.1 1.1-.9 2.9-.6 4.7.4-.3-1.5.6-1.6 1.9-1.6.3.5-.4.9-.8 1.3 1.6.7 3.4.1 5 .8-1.5 1.6-1.7-.5-2.5 1.6 1 .4 1.9 1.1 3 .6.3.6-.7 1.1-1.2 1.7-1.2-.1-2.2-2.5-3.7-.7 1.5-.3.6 2.4 2.2 1.9.3 1.6-1 1.7-2.2 1.9-.5-.9.4-1.6.6-2.4-1.2-1.1-1.8.7-2.5 1.6-1.1-.1-2.3.4-3.3-.9 2.5.5 2.1-2.1 3.9-1.5.8-1.2-2.1-.8.2-2.1 1.4-1-.5 2.2.9 1.1 1.9-1.4.3-.8-.5-2.2.5-.1.9-.3 1.4.1-1.3-1.4-5.9.3-8.4-1 .5 2.1-1.3.3-1.6 2 1.6 0 3.2-.1 4.9-1 .4 4.7-5 2.9-6.9 4.1-2.3-1.9.2-3.5-1.2-5.4-.3 2.3-2.2-.8-3.5 1.2 1.1-.3 4 .7 2.8 2.7-1.7-2.4-1.9 1.1-4.4-.7-1.3-1.2.6-2.1-.7-3.2l-1.9 1.6c.5.5.9 1 .5 1.5-3.3 1.5-6.4.6-9.6 1.4.9 1.7 2 .5 2.9 1.3-2 1.1-5.5 1.7-6-1.2.9.3 1.8.1 2.8-1.2.5-1.3-1.6-.6-.8-1.8-2.2.2-4.2 2.9-5.4-.4-.9 1.4-1.6.4-2.4.2 0 .6-.8 1.1-.5 1.7-2.4-1.4-6.9.8-8-2-1.5.1-3 .6-4.5.7 0-.6.2-1.2.5-1.7-1.2-.8-1 1.3-1.8 1.6-1.3-1.3-.4-2.4.3-3.5-1.5-.7-3.5-.1-3.9-2.4-.6 1.4.6 2.9-1 4.2 2 1.2 1-3 3.5-1.2.3 1.4-.3 2.2-1.6 2.7-2.6.5-4.9-3.1-7.6-2.3-.8-2 1.2-1.1 2.2-2-1-1.1-2.3 0-3.4.5.1.5.1.9.6 1.4-.9.3-1.2-.9-1.4.6-1.8-1.6-4 2-5.7-1.4-.3 1.6-3.2 1.7-3.4-.2-1.3 3-4.5 2.6-6.6 1.4-.7.4-.3.9-.8 1.4-1.7-1.3-3.7-.3-3.5-2.7l-2.5 2.3c-2.2-1.3.9-2.3-.4-3.5-1.6 1.4-3 1-4.4.2-.3 1.2-1.8 2.3-2.3 3.4-.9-1.4 1.8-2.7.3-4.2-.2 3.4-4.6 3.1-6.6 1.5-1.8.6-1.7 2.7-3.5 2 .1-1.2 1.5-2.6-.6-2.1-.3-1.1.7-2.1 1.9-3.1-.2-.4-.4-.2-.7 0l-.6-.7c-1.1.9-.4 1.9-1.5 2.8-1.8 1-1.4-1.8-3.3-2.9-1.3 1.4-2.5-.7-3.8.3 1.3 2 2.7 1.6 4.1.8 0 .8.7 1.7 1.6 2.5-1.5-.4-1.3 1.2-3-.4-1.6.7.8 1.4-.8 2.1-1.4-1.8-4.6-1.4-7.1-1.9-.4.9 2 1.2 2.7.8.4 2.8-3 2.3-4.5 1.7-1-1.7 2.4-.1 1.4-1.4-1.7-1.9-1.4 1.2-3.1.3 2.1-3.4-5.2.4-7.4-2.8-.8 1.5-3.4 2.3-5.2 3.9.2-3.1-5.3-.4-6.1.7-.5-.5-1-.9-.7-1.4-.6 1.1-2-.1-3.4 1.5-1.1-2.5-2.4 0-4.8.8-.5-.8.3-1.6-1-2.4-4.2 2-6.5.3-10.9 1.8-.5-.9.3-1.8-1.1-1.7 0 2.8-2.3 1.3-3.4-.5.8 2.1-1.4 3.8-3.3 3-.7-1.7 2.1-.1 1.6-1.9-.6-.6-1.2-.2-1.8-.9-.5.9.4 1.7-1 1.8-.4-.6.8-1.2.3-1.8-2.2-.8-2.9.3-2.7 1.6-1.7.7-.1-2.2-1.8-1.6.3 1.7-1.1 2.4-2.6 3-.7-2-1.1.1-2.5-1.5.1 1.5-1.6 1.5-2.7 1-.2-.8.7-.5.2-1.8-.4 2.3-5.9.4-4.9 3.7-1.3-.9-2.3 2.4-3.7 1.4-1.1-1.4 1-1.2 1.8-3-1.3-.4-2.5.5-3.8 0-.1 4.4-5 3-6.2 4 0-1.3 1.6-2.1 2.1-2.8.7.4.5.9.1 1.4 1.6.6.9-1.2 2.6-1.8-2.3-.2-2.8.4-5.1-2.1-1.3 1 .3 1.6-.1 2.5-2.3-2.2-10 1.6-13.1 1.2-.4.3-2.6 1.9-1.4 2.7-1.5 1.9-3.6-.8-3.2 2-1.2-.7-.2-1.9-.4-2.8.5-.5 1.2.4 1.9.7.9-1.6-1.2-2 1-3-1.8.3-1.8 1.3-3.8 2.9-.2-.4-.3-.9-.9-1.2-.9 1.4.9.7.7 2.4-.9.8-2.1-.2-2.9 1.6 5.5.7 10.6-.2 15.9-.6 1.6.5-.7 1.5.9 2 1.3-.2.8-1 1.5-2 1.5 1.2-.5 2.9-1.5 4.5-2.8.3-6.6-2.4-9.9.5-1 .3-2.2-1-3.2-.5 1.2 1.4.9 1.2-1.2.9-1 .9.2 1.4-.3 2.2-3-2.2-3.2 0-5.5.3-1.1-.5-.4-1.4-1.7-1.8.4 1.5-.4 2.7-2 2.2-1.1-.5 1.4-1.7-.4-2.1-.3.8-.8.6-1.3.3.1.6-.2 1.2-.7 2-3-.1-4.5 0-7.2-1.1.1 3-2.4-.2-3.4 1.9-1-1.1 1.2-.7 1.3-2.1-1.2.4-2.4 1-3.8.6-.6.5-.8 2.5-1.7 1.8.9 1.7.4 1.5-.9 3.5 2.4-1.1 4 .9 5.7-1.1 1.6 1.2-.5 1.4.9 2.3 1.1-1.3.9-2.4.3-3.3.7-.7 1.5-.5 2.1-1.6.6 2.2 2.4.6 3.5-.1 1.2 1.3-1.1 1.6-1 3.5 1.3 0 1.2-.6 1.7-1.9.5.4 1.8 1.6 3.7 1.3-.2-.9.7-2.1 1.4-3.2.6 1.1.4 2.3 2 3.2.7-1.2 1.8-.2 2.6-.5-.2.9.7 1.5.8 2.3 3.4-1.3 7-1.4 10.6-1.3 1.6-2.6 4.1.2 5.8-1.7 3.9 3.1 8.2-3.3 11.1.9.5-1.4 1.3-.6 1.8-1.7 1 1.2 1.9 1.2 2.8 1.8-1.3 1-2.5-.3-2.8 2.1.4-2-.9-.8-2.1-1.1-.6 1.6.6 1 1.4 1.2-1.3 1.9-2.9 1.1-4.5 1.3-.7-.6 1.3-1.4 1.9-1-.8-1.7-3.9.6-5.6.4.9 1.2 1.5-.5 2.4.7-3.1 0-3.9 1.9-6.6 2.7-1.1-.7 1.9-1.9 0-2.5l-1.1 1.6c-3-1-6.2.9-7.9 2.5 1.5-2.3-1.4-1.1-3.2-1.2 0 .9-.7 1.9.6 1.7-1.7 3-2.8-.9-4.4 1.5-1.1-.9-.9-2-.9-3-1-.3-2 2.2-1.8 2.8-1.1 1.1-4.3-1.3-4 1.3-.6.1-2.9-.3-2.6-1.2-.9 1.9-4.3 3.2-7.5 2.5 1.5-1.2 1.4-.8 2.3-3.1-1.2-.5-2.4-.7-3.7-1.3-.8.6 1.6 2.2.1 1.8-.1 1.9 1.4-.4 1.9-.5.8 2.2-2.6 4.5-4.8 2.7-2.1.5-3 5.5-5.7 3.9l-.9 1.7c-1.2-.3-.3-1.4-.6-2-1.4-.2-1.9 2.8-3.6 1.8-1-1.1.9-1.2 1.1-2.2-3.3 2-6.1 4.3-9.2 2.6-1 .5-2.1.6-2.6 2.5.9.3 1.3.8.9 1.5-1.8-1.2-4.3 2.2-7.2 1.2.4-1.1.8-2.2 1.8-1.8-1-.9-4.3.3-6.1.8-.8 2.1 1.1-.4 2.2 1.1-.6 1.5-2.1.8-2.6 2.5.4.4.6 1 .3 1.8 1.1.6 1.1-.4 1.7.8-.4.3-.7.5-.9 1.2-2.5-1.8-2.7-.9-5-1.2.4-2 2.4.1 2.7-2-1.2-.9-1.6.2-2.7-.7 1.1 1-1.2 3.3-2.4 3.7-.5-.3-.1-1 .1-1.5-1.4-1.2-1.7.6-3-.2-.2.9 1.4.9 1.4 1.7-1.6 2.1-4.4 1.4-6.2 3.1.8 1.7 1.4-.9 2.7-.4.3.2.3.6.7.8-1.8 0-1.7 1.5-3 2.8.9 1.7 2.1.5 1.9-1.2 1.8.2-.4 2.5 1.4 1.6-.5 1.4-2.4 2.6-.2 3.5.8-.4.8-1.3-.4-1.7.2-.5.9 0 1.5.1.8-1.2.1-1.8.5-2.9 1.8-.7 3.8-.9 5.1-3 3.5 2.3 4.5-1.5 7-1.6.9 2.7-2.9 2.4-2.2 4.8 2.8-2.5 5.7-.9 8.4-4.8 1.4 1.1 2.4 2.1 3.2-.4 1.3 1.1 1.5 2.9.4 3.9.8.7.9-.5 1.6-.2-1-.9.5-2.7-1.1-3.3 2.7.9 3.9-2.3 6.1-2.6-2.3 2.4-3.5 4.5-4 4.8 1.7 2.1 4-2.6 5.6-3.9.7 1.7 2.6.6 3.6 0 .1-.5-.7-.8-.4-1.3.3-.3.6-.2.8-.6.3.5 0 1.2.8 1.6 2.5-.7 4.6-2.9 7.1-3.9.3.3.2.7.6.9-2.5 1.5-3 3-5.3 4.5 2.5.9 4.2-1.1 6.5-.9.4-1.4-1-.1-1.6-1 .3-1 .8-1 1.2-1.5 1.6.6 1.1 2.6 2.5 2.2.4-.7 0-1.2.5-2-.4-.2-.6.3-.8.6-.9-.6-1.5-3.3-1.6-1-2.3-1.3-.4-2.7.9-2.8-1.2 1.5 2 .7 1.3 2.5 1 .4 1.2-2.2 2.1-1.9 1.2 1.1-.7 2.5-1.6 2.9-.5 1.1 1.2 1.6.7 2.7 1.3.6 2-1.2 3.4-.5.3 1.5-.9 1.3-1.1 3.1 1.6 1.7 2-1.2 3.5.2.2-1.4-1.5-.3-2.3-1.6.9-.2 1.7-.6 2.8-.3-1.7-1.1-1.1-2-1.2-3.7.2-.3.6-.1.8-.6 1.5.4-.4 1.5 1.1 1.9.8-2.5 8.2-2.6 8.2.2.5-1.5 1.7-1 1.4-2.5 1.8.7.9 2 2.1 2.8-1.6-.1-2.8 1.7-4.4 1.3 1.2 1.2 4.7.7 6.5-.3.7.6-.2 1.5 1 2 1.1-1.3 2.2-2.7 4.4-1.2-.1-1.8 1.2-1.8 0-3.6 1.1 1.3 1.9-1.1 3.7 0-1.3-2.4 2.3-1.5 2-3.2 2.4.7-1 2.3.8 3.1.7-1.5 1.6-1.7 2.6-1.4.2.8 0 1.6 0 2.5-3 1.3-6.2.7-8.2 2.8.9 1.2 1.3-1 2.3.6 3.3-4.8 8.1.9 11.6-2.8 2.1 1.5 4.8 1 7.3.7 2.5-.4 4.7-.5 5.8 1.3 1.2.2 2.5.1 3.7.4.4-2.7 2.7-1 4.2-1.8.2.6-.3 1.2.4 1.7 0-1.8 2.2-2.1 2.1-.6 3.2-2.4 6.8.5 10.2-1-1-.9.7-1.7 1.2-2.2.6.8-1.2 1.7-.8 2.5 3 1.6 5.7-.9 8.6-1.1 0 2.6 3.5 2.7 4.1 1 .6 1.3 1.2.4 1.9 1.4 1.5-3.9 7.9 1.3 11.6-1.9 2.7 3.9 8-2.5 10.1 1.4-.9-.4-1.9.2-2.8.3.7 1.9 3.9-.8 6.3 0 1 .4 4.6 2.6 4.8.5.7-.8 1.2 1.1 1.9 1.5 2.3-1.3 4.5 0 6.8-1.6 2.5 1.4 8.3 1.2 12.5 1.6 13.7 1.6 27.5 3.2 41.2 4.7 14 1.6 28.1 3 42.1 4.1 28.1 2.5 56.3 4.3 84.5 6.1 56.5 3.3 113.1 5.3 169.9 8 .9.9-.1 1.6-.7 2.4-8.2-3.1-17.2.5-25.4-2.2-.8 1.4-1.2 1.2-2.6 1.5-.3-.7.6-.2 1.1-.9-1.2-1-2.9 1.5-4-.5-1.1.8 0 1.9-1 2.7-3.2-3.7-9.1-3.1-14-1.6-3.7-.8-7.4-2.2-11.4-.5-.4-.4-.4-.7-.2-1.1-6.1 1.6-14.2-1.6-18.3.8-.8-1 0-1.3-1.2-1.5-.4.4.2 1 .5 1.5-7.3-2.9-13.8 1.1-21.3-2.3-.9 2.3-4.5-.2-6.4-.3-3.1-.2-5.5 2-6.7 0-2.9 1.3-5.5 1.2-8-.8-1.6.5.7 1.5-.9 2-.4.8-2-1.3-1.2-1.5-2 1.7-3.6-.1-5.5.9-.6-.5-.3-1 .2-1.4-2.6 1.7-4.7.2-7.2 1 0-2.7-.1-.3-1.8-1.6-.1.9-1 1.7-1.9 1.6 0-.6-.3-1.2-.8-1.9-1.8 2.5-4.8-1.3-8.2 1.3-.5-.6-.5-1.2-.1-1.8-4 .6-13.1-.8-14.2.8-2 .2-3.8-2.2-6.1.1-1.7-1.8-4.9-3-5.9-1.3-12.5-2.1-24.1-.9-37-2.9-.7.4-.4.9-.8 1.3-.9-1.1-1.3-.7-2.8-2-7.2 1.8-16.5-2.9-24.9 0-.6-.6-.2-1.2-.8-1.8-3.2.1-6.4.9-9.4-.1 0 1 .6 4.1-2.5 4.8-.8-1.5.1-2.2-1.7-3-.4-1.1 2-2.4 2.4-.9 1.4-1.6-2-2.6-1.9-.9-4-2.9-8.6.7-12.5-2.4-1.1 2.4-3.9 1.4-5.6-.8-.7.4-.5.9-.1 1.4-3.7-1.4-7.5-.7-11.2-2.3-.4.6 0 1.2-.5 1.7-5.3-1.5-13.1.5-16.8-3-.3.3.1.7.2 1.1-5.9-1-12-.2-17.6-2.6-4.2 1.4-11.1-.5-16.2-.9-1.3.8.2 1.6-1.1 2.4-.4.1-.9.3-1.3-.1 1.4-3.8-3.9-1.9-5.6-3.1-.7 1.9 1.4.4 1.8 1.5.5 1.5-1.5 1-2 1.3-1.9-4.6-6.4-2-9.4-3.9-1.2.8.2 1.7-1.1 2.4-.4.3-.8-.5-1.3 0-.3-.6.6-1.2 1-1.7-.9-1-1.9-.9-2.9.3-.1.7 1 1.4-.1 2.1.6.7 1.3-.5 1.9.8-1.1 1.4-2.1-.6-3.2 1.3-1-2.1-2.1-1.1-3.1-1.5-.2-1.7 2.1.4 2.9-1-2-2.4.9-.9 1.7-1.7-3-2.6-2.8.3-5.6-1.6-.6.7.8 1.4.6 2.1-.3.3-.6-.2-.9-.4-.5.9-.2 1.3.6 1.4-1.6 1.9-3.2 1.1-4.8 3.1-.9-.7-1.5-.8-1.2-2.1-1.3 0-2.8 2.9-4.1 1.7-.7-.7 1-1.4 1.3-2.1-1-1-1.9.8-1.6 1.7-.9 1.1-1.8-1.4-2.8-.4-.3-.7.7-1.4-.6-2.1-1.4 2.7-6.2 3.3-6.2.7-1.3.3-2.7-1-4 1.2-1.7-2.8-4.1.6-4.9-2-1.5 4.3-5.8-2.1-8.2 1.3-2.5-.8-5 .5-7.6-.6-.9-.9 1.5-.2-.1-1.4-3.9 3.5-8.2-.8-12 1.6.5.6 1 .2 1.6.9.3.4-.3 1 .1 1.4-1.8-.1-3.7-1.7-5.5-1.6-.2.9.6.6 1 1 .6 1.2-1.4-.2-1.7 1.6-.2-.9-.5-1.2-1.3-1.3-1.1 4.1-4.9-1-6.9 2.2-1.2-.8-1.3-1.7-.3-2.8-.9-1.2-1.6.2-2.4-.4-.2.6.6 1.1 1.1 1.6-.6 1.6-1.4 1.3-2.2 1.7-.5-.6-.3-1.4.3-2.2-1.9 1.6-4.1.7-6.1 1.2-.4-.6.5-1.5-.9-2-.7 3.7-7.1 2.4-8.8 4.3-.9-1.6-3.2-.7-1.6-2.6-1.3-.1-1.2.8-1.1 2-1.2.5-2.1-3-3.5-1.1.8 1.1 1.2-.2 1.9.4-.3.4-.3.8-.1 1.1-2.9.3-6.2-1-8.4 2.5-.3-1.9-.5-1.6-1.9-3.1-.6 1.2.7 2 1.5 2.9-.9 3.1-3.4-.9-4.3 1.7-2-.8.1-2.7-1.2-3.7-.7 1.5.1 2.6 0 3.9-.8 1.5-1.4-1-1.9-.3-.4-.5.2-1.2.4-1.9-1.1-.2-2.4 1.1-1.6 2.2-2.6-1.8-2 .3-4-1.8-1.5 1.9-1.8 1.4-3.9 1.2 0 1 1.3 1.6.2 2.8l1.8 1.3c1-.3 0-1.9 1.6-.5.4-.6.1-1-.4-1.3 1.7-.5 6.9-2.5 6.8 1.1.7.7.9-1.3 1.3-1.7 1.3 1.2.8 2.5-.1 3.2.7.3 3.5-.6 1.9-1.9 1.1-.8 2.6.4 3.4-1.9.7.7-.8 1.9-.3 2.6 1.3 1.1 3.5-2.2 3.4 1 .9.6.7-1.3.3-1.5 1-.3 2-.5 3.2.3.2-.6-.3-1.1-.1-1.8.5-.7 1.4 0 1.9-.7.2.6.1 1.2 0 1.8 2.2-1.9 4.7-2.2 7.2-2 .8.9-.9.3-.9 1.6 1 .8 1.6-.9 2.7.6 1.5-2.3 2.3 2.6 3.8.4-.6-.2-1.2-.2-1.8-.4.5-2 1.5.1 2-1.8.8.5.3 1.1 0 1.8.5.1.9-.6 1.5.2.1-2.4 5.3-1.7 7.7-1.4.1.2.1.4.1.5 3.2-.8 6.6-1.2 10-.6.4.6-.4 1.2-.7 1.8 1.4 1.6 2.1-.9 1.9-1.9 1.7-.6.2 2.1 2 2.6 1.5-1-1.3-1.5-.5-2.4 2.4-.1 4.7-2.5 7.3-.3.7-2.6 1.9-1.4 3.4-2.3 1.1.6.4 1.4 1.3 2 1.8-1.6 3.7-1.3 5.6-1.4.5 1.3-1.5 1-2 1.2 1.3 1.4 3.5.2 5-1.3 1.2.8-.2 1.7 1 2.4-.8 1.2-2.1.4-2 1.9 3.7-.1 6.1-1.1 9.5-3.1 1.7 1-1 2.1.3 3.2 3.2-.3 6.4-.8 9.6 1.2 1.6-2.3 2.7-.4 3.6 0 .6-.7-.4-1.4.6-2.1 2.3 2.3 7.9-1.5 8.2 1.8 3.7-.4 9.1 1.9 12-.1 1.9 2 3.9-.1 5.8 2.6 1.4-2 2.7-.2 4.2-2.3 1.1.8.3 1.4 1.1 2.2 7.3.4 14.7-.2 22.1 2.5.2-.7.8-1.4.3-1.6 5.9 1.5 12 2.8 18.3 1.8 1.6-.8 2.9 1.9 4.5 1.7.3-.4-.4-1 .1-1.4 1.9.8 4.4 1.9 7.3.5l1.8 2.3c6.9-1.4 13.6.4 20.3 1.9.2-.3.1-.7.4-1 11.6 2.4 23.5 1.6 35.2 3.5 2-2.1 9.9.6 15 .9 2.8.2 5.1-1 6.9.9l1.5-1.3c1.1 2.7 4.4-.6 6.5 2 5.8-2.1 13.6 1.6 20.5.1l1.2 1.5c8.8-1.8 17 1.9 25.9-.1 3.5 2.5 7.7-.7 11.2 1.8 2.5-1.9 4.4.8 6.8-.7 6 2 12.4 1.7 18.7 1.2 13.7 1.9 27.8.2 41.5 2.2l1.5-1.3c.6-.3.5.7.2 1.1 7.5-.6 12.7.1 20.3-.6l1.1 1.5c1.4-.1.8-2.5 2.8-1.1.3.7-.6.2-1.1.9.9.5 2.3.3 2.5-.8 54.3 4 107.7 1.3 162.2 3.6l1.2-.9c7.2 1.7 15.1-1.2 22.2 1.5 1.4-.3 2.8-2.6 2.8-.3 1.2-.9 4.3-1.4 6.1.1l1.5-1.2c2.5.4 5 1.1 7.8 0 12.1 2.8 25.2-.7 37.1 3.9l1.5-1.2c1.8 1.9 5.5 1.7 6.8.2.5.7.1 1.2.7 1.9 1.2-2.5 2.2-.8 3 .1 3.5-1.9 7.3-1 11.6-.5.5.7.4 1.3.1 1.8 1 .4 1.5-2.4 3.2-.6.4-.3 0-.7-.2-1.1 1.1-.5 1.9.9 3.2-.6.6.6.2 1-.2 1.4 1.3-.8 3.6-1.6 5.7-1.3.7 1.9-1.2.8-2.3 1.8 4.3-1.3 8.4-1.6 12.6-2.5l1.4 2c-.5 1.5 1.1-.8-.4-1.5 1.6-1.2 3-1.1 4.8-1.5.5-.1 1-.2 1.6-.4.1.3.2.6.4.8.7.7 1.9.7.6 1.5 1.1.7 1.4-1.9 3.3.5 1.7-1.3-.6-1.2-1.1-1.6 2.6-1.6 4.7.4 7.4-1.5.3.5-.5.9-.9 1.3.6.5 1.5-.6 1.9 1-.4-2 1.3-.6 2.7-2.1 5.5 3.3 13-3.4 17.6 1 .5-1.1 1.3-1.6 2.2-1.9 1.6-.6 3.6-.3 5.1-.6-.1.8-.6 1.1-1.2 1.1-1 .1-2.3-.4-3.2.4.5.7 1.1.5 1.5 1.3-2.1.7-4.3 2.6-6.3 3 .7-3.6-5-.5-6.1-.1h.1c2.1 1.2 5.1 1.5 8 1 2.2-.3 4.4-1.1 6.1-2.3.3.6-.7 1.1-1.3 1.6 2.1-.2 6.4.2 6.9-2.9 1.4-.5.7 1.5 1.4 2 3.3-1.5 5.5-1.6 8.7-2.7.8-.3 1.6-.6 2.5-1 5.1.6 10.3 1 16-2 2.9.8 8-.3 10.3-2.4 6.3 2.1 18.7-5.6 26.6.3-1.5-4.7 5.3-2 5.4-6 1.7.5 4.2-3.4 5.6-.6 7.7-3.2 14.8-2.8 21.3 1.3 1.1-1 2.2-2 1.9-3.3 1.2-.3 2.2.4 3.1 1.9 1.3-1.5 2.2-.6 3.2-.6.7-1.9 1.6-1.5 2.6-3.2-.5-1-1.4.4-2-.3 4.8-2 12.1-1.2 17 2.9 1-2.5 3-2.9 5.1-2.1 4.9-4.8 10.8-7 16.4-8.3l1.7 2.4c-.3-2.3 3.2-1.4 4.9-2.5.1.5.2 1-.2 1.4 4.1-.4 7.9-.5 11.5-2 .8-.3 1.6-.7 2.4-1.3 5.2-.2 12.2-.6 16.8-4.3 3.4.7 10.4-2.8 13.3-4.1 5.1-2.2 9.5-3.9 13.5-7.3-1.3-.2-1.1-1.4-1.7-2.4 1.1-1 1.8 0 2.9-1-1.6-.9-2.5.4-3.2-1.2-2 2.2-4.4-1.5-5.3 1-.9.6-1.3-1.6-2-2.1-2.2.3-4.4.3-6.5.1 2.2-1.5 3.1-1.5 6.2-4.1-8.1.1-19.1-.5-29 3.2-1 .3-1.8-.3-2.6-1.1-.2.6-.1 1.2 0 1.8-1-.1-2.1.3-3.2.6-1-3.4-5.6 1.4-7.8 3.5-.8-1.3.8-2.3 1.9-3.3-1 .3-2.3-.8-2-2.1 1.9-1.3 2 0 3.4-2-.6-1.1-1.9 2-2.4 0-1.3.5-.6 1.3-1.7 1.9-.5.1-.9.2-1.3-.2.2-1.2 1.8-2.1 1.9-3.3.4-.2.7.1 1.1-.2-1.1 2 2 .7 3.3.5.6.7.1 1.2.7 1.9 3.1-.7 4.2-4.3 6.9-4.7.1 1.3-2.6 2.2-3.6 3.4 1.2.2 3.9-.3 3.4-2 3.1 1.6 6.8-1 10.3-2.4-1.8-1.3-4.3 1.2-6.5 1.9 1.7-3.2 5.9-3.8 7.8-1.7 2.9-1.6 5.7-2.9 8.1-1.3 8.7-3.8 16.5-1.5 25.1-4.5-1.5-1.9-3.5-.9-4.9-3.6-2 .5-3.9.1-5.5-1.9-.7.4-.4.9-.9 1.3-1.1-2.5-2.9-.5-4.2-1.7-.5-.9.4-1.6 1.4-2.3-1.6-1.6-3.6-.2-5.3-.8-1.2-1 .9-1.5.1-2.5-2.5-1.4-4.3 1.1-7.4 1.4-.6-2 3.1-3.1 4.4-4-.5-.1-1-.6-1.5-1.3-.4.3 0 .7.2 1.1-1.5.7-2-.9-2.9 1-.5-.7-.1-1.2-.7-1.9-2.4.9-4.6.3-6.8-.3-1 .8-1.1 1.7-.5 2.8-.8.8-1.6 1.1-2.2 1.1-.5-1.5-.5-2.9-.6-4.4 2.8-.1 7.2-2.4 8.4-5.2 4.3-.3 8.6-.9 12.5.8-.6-2.9 2.3-1.6 4-1.2.3 1.5-1.7-.3-2.5.7 1.5 1.7 3.8-1.1 5.7-1.3 1.1 1.1-1 1.6.7 1.9.7-2.3 5.4-1.9 7.7-1 2.3-2 4.5-.7 7.4-1.4.6-2.3-2.4-.8-3.2-1.2 2.5-1.1 8.6-3.1 12.4-.3 3.2-2.6 12.5 1.4 14.1-4.7 2.4 1.1 3.7-1.9 5.6-.6-.1 1.2-1.4.7-1.4 2.3 5.7-1.8 11.5-4.8 12.5-9.5-1.1-1.2-3.2-2.6-2.4-4.3-2.7-1.9-7.3-2-7.5-6.5-1.6 1.8-4 .7-4.6 2.9.4.4.9-.2 1.5-.5.5 1.4-.3.9-1.3 1.6-.7-1.5-1.5-1.9-2.4-1.8-.9-1-.4-1.7.7-2.4-.8-.3-1.7-.1-1.8.8-1.7-2.8-6.8-1.1-10.3-.1-3.3-3.6-7.8.4-12.1 2.5l-.6-.8c2.1-3.5 5.9-3.3 8.1-5.6-.5-1.1-1.3-.3-1.8-1.7-6.3 3.2-9.7 1.4-15.6 3.4-.2-.4.1-.7-.2-1.1 2.1-.2 5.4-1.6 6.7-3.3-.7-1.2-1.8 0-2.6-1.1.2 1.5-.8 1.8-1.8.8.2 1 0 1.9-.5 2.8-1.8-1-6.4-.3-5.9 2.7-1 1 0-2.2-1.5-1.3-.1-.7 1.4-.6 1-2-1.3-.4-2.9 2.2-2.6 3.2-1 .4-.5-1.9-1.3-2.7-1.9.8-.9 2-2.2 2.9-1 .7-1-1.2-.4-1.5-1.3-.8-1.3 1.4-1.7 1.9-.4-.2-1.6-1.3-1.7-2.4 1-1.2 1.7-.7 2.6-1.4-1.8-1.5-3.1.9-3.1 2.4-2.4.1-4.6 0-6.6 2.6-1.6-1.2.5-1.8-.2-2.9 1.4-.4 2.8-.5 4.2-.8-1.1-1.6-.8-3 .7-4.2-.8-.8-1.7-.1-1.8.8.1-1.7-1.6-.3-1.7-2.4-2.1 1.7-3.8 1.4-6.4 1.2-.3-1.1 2.1-1.6 2.4 0 .4-.2.3-.4.1-.7l.8-.6c-1.1-1.4-2.7-.3-4.1.1-.5-1.5.5-2.8 0-4.3-.9 1.4-.9.7-2.4 1.8-1.1-1-.6-1.8-1.3-2.7-.9.5-.8 1.1-1.3 1.6-.8-.8.1-1.4-1-2.3-2.1.6-4.1.1-6.1-.2-.7-1.7.9-.8 2.1-2.2-.8-1.1-2.2.9-3-.8-.1.6-.9 1-.6 1.7-4.7-1.9-10.2.8-15-.8-.4.4.2 1 .4 1.5-.9.8-1.9 1.5-2.6 1.4-.5-5.7-6.8.7-9.5-.7 1.6-4.9 5-3.1 8-4.9-1.3-1.3-3.4 1-3.5-1.6l-2.4 1.8c-.7-.7-.5-1.3-.7-1.9.9.2 2-1.3 2.8-.3-.3-1.6 1-.8 1.4-2.3-1.1-2.9-3.7 3.1-4.8 0-1.8 1.8-3.7 3.5-5.3 5.3-1.2-1.1-.4-2 .5-2.8-.8-1.9-2.2-.8-3.2-1.2.1 1-.4 1.8-1.8 2.6.6.5 1.5-.6 1.9 1-1.3.7-2.4.5-3.4-.5l-3.5 2.7c-.2-2.1.9-1.6-1.4-2-1.5-1.2 1-1.7-.2-2.9-1 3.3-2.7 2.1-5.2 4.6-1.9-.8-3.9-1.1-5.8-2.3-2 3.1-4.1 3.5-6.7 5.1-1.4-1.2 1.4-1.7 1.1-2.7-3.1-.1-6.9 4.3-8.6 6.6 3 1.2 4.7-3.3 6.8-4 .5.7.4 1.3.1 1.8.8.8 2.4-1.3 1.7-1.9 2.4 3.1 9.1-4.6 12.4-.3-2.9 3.8-8.1 3.4-11.4 2.6-2.8 4.6-7.5 3.6-11.9 3.6 1.5-2 2.4-3.5 3-6-1.1 1.4-1.9.6-3 1.7-2.5-4.1-4.4 1.6-6.9-2.1-3.4 1.3-2.3.9-5.4 1.7.8.7-.4 1.1.1 1.8-1 .4-1.8-.1-2.9 1-1.3-1.5.7-2.1 1.7-1.9-.1-1.6-4.2-.1-4.4 1.5-1.3-.3-2.9.9-3.9-1.3-1.9-.4-4.4 2.9-6.1 1.6-.9-2.2 1.4-3.8 2.6-5.7-2.5 0-3.9 2.7-7.2 1.8-1-1.5-.3-1.7-1.8-1.7-1.3 1.2 2 .7.7 1.9 1 .3 2 .6 3.1.1.2 1.9 0 1.6 1.8 1.7.3.5-.5.9-.9 1.3-1 .5-1.5-2.1-2.5-1.8-.1.6-.9 1.1-.6 1.7-1.2.4-2.2-.4-3.4-.5-.4-1 0-1.3.9-1.3.7-.3.2.6.8 1.2.3-1 1-2 .2-3.2-5.4 5-9.9 4.3-14.8 6.4-.4-.5-.9-1.1-.4-1.5-.5 1.1-4.3 2.6-6.6 2.6 0-1.8 3.7-2.3 3.6-3.4.7 1.7 1.7.9.4-.3-4 1.2-7.6 1.7-10.5 1.3-.8-2.5 3.8-1.1 4-3.7-1.3-.1-1.6-.8-2.5.7-4.2-2.3-12.9 2.2-17.6 2.5-.9-1.1 2.9-1.5 1.1-2.7-.9 1.9-2.6 2.3-4.2 2.6 1 .5 1.9 1.2 3 .8.2.4-.1.7.2 1.1-2.2 1-3.8-1.8-6.3.5-.5-.7-.1-1.2-.7-1.9-1.8 1.4-3.2.1-4.9.7-.5-.7-.4-1.2-.1-1.8-.7-.6-1.7.9-2.3-.7-.8.4-.5.9-.2 1.4-6.2-1-10.5-.8-16.7-.6-.4-.8 0-1.4 1-2-1-.3-2.1.4-3.1-.1-1.8.7.4 2-1.1 2.7-1.3-1.6-3-1.2-4.8 0-.8-.8.1-1.4-1-2.3-.7.7 0 1.7-.7 2.4-1.6-2.2-1.6 0-4.1.1-.8-.8.1-1.4-1-2.3-.4.5-.4 1.1.1 1.8-2.3.8-6.5-2.1-6.2-4.4-3.4 1 2.3 2.4 0 4.3-1.2-.2-.7-1.1-2.1-2.1-1.8 1.2-3.5-.4-4.5 2.2-1.5-.1-3.2-.1-3.4-2.3l-2 1.5c1 2 .6-1.4 1.6.6-1.3 2.5-6 .1-9.2 1.6.7-1.3.5-2.6 2.2-2.9-2.1-2.2-3.1 2.4-5.5 2.4-1.2-2.4-3.1-.6-4.8.1-1.6-2.2-3.7-1.5-5.7-1.1-.3-1.6 1.8-.3 2.6-1.4-.5-1.1 1.2-2 .8-3.1-2.1 1.9-4.8 1.9-6.8 4.1-.5-.7-1.4-.2-2.6-1.1-.5-2.1 4.1.1 1.8-2.6 1.2-1.3 2 .6 3.2-.6-.8-1.8-4 .8-3.5-1.5-1.3 1.1-2.4.5-4.4 1.5.5-2.8-1.9-.3-3.4-2.2-2.3 1.8-4.3 1-6.5 2-.2 1.4 1.3 2.7 2.5 1.8-.5 2.4-3.3.7-4.5.5-.2-1.1.9-2.1 1.4-2.3-.1-1.2-1.1-1.3-.9-3-.5 3.1-2.1.6-4.2 2.6.5 1.9 1.6-.1 2.2 1.4-1.1 0-2.5 1.2-3.4-.5-.2-.7.6-.2 1.2-.9-.4-.7-1.4-.5-.8-1.2-1.1-1.2-.8 2.2-1.7.1.2 1.2.7 2.5-.5 3.5-1.6-.2.1-1.2-1-2.3-1 .7-.8 1.6-.7 2.4-.6.1-1.1-.6-1.7.1-1.6-1.8 1.4-2.9.4-4.6-.5.9-1.2 1.7-1.1 2.7-1.4 1.4-2-1.8-3.5.2-1.1-1-.6-1.7-1.3-2.7-1.7 1.2-3 .2-4.4-.2-1.1 2.3-3.6 1.4-5.3 1.1-.8-.8 1.9-1.2.3-2.1-1.8 2-3.3.7-5.6.7-1.5.6.4 1.7-.7 2.4-2 .2-.1-2.1-1.6-3.1-.9 0-1.3.3-1.6 1.2-2.8-4.3-7.1 1.3-10.1-1.3-1.5 2.2-2.2 1.8-4.6 3-.6 0-.9-1.5-2.2-1.4-.1-1.8 2.1-.7 3-1.7-1.9-1.3-3.7-.1-5.3 1.1-1.6-.8-.7-1.5-1.6-3.1-1.4.3-2.1-.8-2.9 1l-1.1-1.6c.3 2-3.3 2.3-4.4-.2-1.4 2.4-2.2 1.2-3.9.6-1.5 1.1.1.4.5 1.5-.9.8-1.6-.1-2.4 0-1.1-1.8-.2-1.7.4-2.8-1.5-.2-2.9-.8-4-3 .4-.4.8-.4 1.1-.2 0-1.4-3.3-1-4.6-1.3 3.4 1.4 2.5 3.6 5.8 4.7-3.5 2.6-3.4-2.5-5.9-2.2-.1 1.5 2.2 3.4 1.7 4.8-.7-1.4-3.1-1.4-3.6-3.3-1.1 1.4-1.3 2.9-2.4 4.3.7-2.5-1-2.5-2.2-3.8-.5-1 1.7-1.7.4-2.8-.7 1.1-1.1 1-1.1 2.7-.9 0-2-1.5-1.5.5-1-.1-1.9-1.2-2.8-2.1.1-1.1 3.1.2 2.7-2.1-2 1.1-10.5 3.2-8.5-.7-1-.2-2.2 1.3-3.1 0-1.8 3.2-5.1.2-8 3.2-.3-2.4-2.6-1.1-1.6-3.1-1.1-.7-1.1 1.7-2.7 2.1-2.6-.5-5-1.7-7.9.1 0-2-2.3-1.7-2.7-.3-.7-2-1.9-.9-2.8-2.1.2 1.2.7 1.3 1 3-1.3.1-2.7-1.5-3.1-2.5-1.7-.5-1.2 2-3.4-.4-.2.6.3 1.2-.6 1.7 1.5-.3 2.9.4 4.2 1.6-2.5-.3-4.9-.8-7.4-.9-.2-.4.1-.7-.2-1.1 1.2-.5 3.2 1.1 3.6-1-1.6-1.3-3.5 1.4-5.7-1-.5.5-1.1.9-1.5.5-.4.6-.4 1.1.1 1.8-1.6 1-2.9-.4-4.5.5-1.1-.8-.2-1.4-1.1-2.3-1.4.7.5 1.8-1.3 1.6-1.2-1.1 1-1.6-.8-1.9-1 .5 0 1.2-.6 1.7-4.7-4.7-11.6-1.2-15.6-3.7-.5-.8 1.1-1.3 1-2-1.8-.9-4.2 2.1-5.7-1-.3.5-.4 1.1.1 1.8-.8 1.2-1.4.2-2.2 1.1-.8-.7 0-1.2.6-1.7-.9-1-2.1-.1-3-.7-.4.4.2 1 .5 1.5-.8 1.1-1.4-.2-2.1.4 0-.6.6-1.1-.1-1.8l-1.5 1.2c-.9-.8.1-1.4-1.1-2.3-3.3.2-6.7.4-9.9-.1l.9 1.2c-.9-.1-2 1.4-2.8.4-.8-.7 0-1.2.6-1.7-1.9-1-5.7.4-6.7 1-.4-1.5-1.1-1.9-2.6-1 1.6 1.5 0 1.4-1 2 3.2-.4 4.3 1.8 7.7 1.2.4-.6-.3-.3-.6-.8.9-1.5 1.2 1 2.1-.5.9 1.8.9 1.4 2.3 3.1-3.8-1.9-9.5.5-12.1-2.1-.3.3-.1.7-.5 1-1.4.6.5-1.3-.8-1.9-2.4 2.6-4.2.7-6.2 0-.8 1.9-2.2 1.6-3.6 1 .6-1.3 2-2.6 1.2-4.1 1.1-.3 2.7.4 2.9-1.1-1.3.1-1.3-.2-1.8-1.6-.7 1.5-1.6 1.1-2 2.2-1.2.4-2.2-1-3.5.3-1.1-2.7-4.2-1.6-6.8-.8.2-2.1-1-2.1-3-.7-.2-.6-.1-1.2.6-1.7-2.1-1.2-4.7.9-6.9-.1-.7.6.7 1.5-.3 2.1-.8.9-1.1-1.9-2-.2-.5-.7-.5-1.2-.1-1.8-1-.4-.2 1.9-1.8.9-.8-.8-1-1.5-.4-2.2-1.8.9-4.7-1.3-5.6.8-.9-.8.1-1.4-1.1-2.2-.3 2.2-1.8.2-1.7.2-2.4.1-3.5 2.8-5.9.4-.7 2-3.4.8-4.9.9 0-.6.6-1.1-.1-1.8-1.3 2.2-2.7-.2-4.7 2-.7 1.4 1.5 2 2.2 1.3.6.4-1.7 1.5-2.2 1.2-.8 1.6 1.5.6 1.9.9.3.6-.7 1.1-1.2 1.6-.6.1-1.7-2.4-3.4-.4-.8-.9-1.5-1.8-.7-2.6-1.1-1.4-2.6.4-3.6-1.5-.4.9-.2 2.1-1.6 2 1-2.5 3.8-4.1 6.5-5.3-1.1-.4-2.1-1.2-3.2-1.8-.6.6-.9 2.1-1.8.9-.4.5-.1 1.2-.6 1.7-1.6.8-.8-.9-2.1-2-.1 3-6.1 2.8-6.5-.3-.2 1.7-1.4-.2-2.6 1.5 1 1.4 2.3-.3 3.3 1.1-.2 1.3-2.9-.2-4.1-.4-.2.7-.6 1.4-1.6 2-.9.7-.7-1.2.2-1.4-1.1-.7-1.5 1.7-.6 2.4.9-.4 1.5.5 2.5-.8.2.7.2 1.4.4 2.2-1.7.9-3-1.5-4.7-.5-.2-1.4 2.8-3.7.5-4.2.2 1.9-.6.9-1.9 1.6 0-2.1 1.3-.8-1.1-2.2-.3 1.3-.5 1.8-2 2.3-.3-2.7-2.6.7-3.9-1.8 4.1 0 7.6-1.9 12 .2-1.4-2.5 3.2-.8 2.8-3.6-.5-.7-1.1-.4-1.6-1.2-.9 2.2-3.6.3-4-1.1.8 2.1-1.8 1.7-.8 3.8-.9-.2-1.9.9-2.7-.3-.6-1.2 2.7.4.6-1.7.9-1.5 1.3 1 2.1-.5-.6-.7-.2-1.2-.8-1.9-2.2 2.1-2.6.3-2.9-1.4-.4 2.9-4.5.6-6.7 1.1-.9 1.3 0 .9.8 1.9-2.5 2.2-6-.4-7.4 1.7-1.3-1 .4-1.6 0-2.5 1.8.1 3.7-.2 5.4.5.7-.9.8-1.8.3-2.8-.5.7-1 .3-1.4-.1-.2.5-.4.9-.2 1.4-1.7-2.3-7-.6-8.4 1.3 1.2-3.5-2.3-1.9-2.9-4.5-.6.6-1.2.5-1.7.2-.8 1.8 1.5.5 1.9 1.6.4 1.5-1.6 2.3-3.6 4.2-1.4-2.1 1.7-1.9 1.8-3.4-1.6-1.5-1.4 0-3.2.7.5.9 0 1.7 0 2.5-.9.5-1.5-1.2-2.4.1 1.3 1.6 3.1-1.2 4.3 1.5 1.9-1.3 3.7-2.4 5.4-1.9.5.9-1.6.4-2.1.5-.6 1 .9 1.3 1.3.6-.7 6-9.9-.2-15.3 1.5.5.5.9 1 .5 1.5.7 1.1 1.7-.9 2.3.6.1 1-2.7 2-3.5.4.5 1.7-2.6 3.7-3.6 1.8-.4-.4 2.2-1.3 2.8-.4-.3-2.1.9-2 1.5-3.8-1.4-.9-.9-1.4-2.5-2.4 2.5-.6 3.8 1 7-1.4-1.3-1.8.3-1.7-1.7-3-.1 1.2 1.1 2.5-1.1 3.4-2.3-.2-4.5-1.1-6.8-.7.8.8 1 1.5.4 2.2 1 .4 2 .6 3 .7-.2 1-1.5 1.5-2.3 1.9-.6-.5-.3-1 .2-1.4-1.9-1.1-.7 2-2.9 1.1 0-1.1.9-2 .7-3.1-2.7 2.4-7-.6-9.8 1.9-.4-.9.5-1.6-.7-2.6-1.3.7-2.5-.4-3.9 1.4.8.8 1.1 1.5 1.1 2.2-1.7.7-3.2-.1-4.9 1-.6-1.5 1.6-4 3-1.9-.7-1.1.7-2.1 0-3.2-1.6 2.4-3.1 1.2-6.1 2.6.6 1.5 1.7-.5 2.3.6-.2 1.7-2 .1-3.3 1.5-.6-.6-.2-1.2-.8-1.8-1.1 3.7-4-.4-6 1.2-.7-2.7 2.8-1.6 3.1-3.3-.3-.4-.7.1-1.1.3-1.4-.8 1-1.3-.4-2.2-1.3 1-3-.4-2.6 1.5-1.3 1.4-2.2-.9-3.4-.3-.2-.9.6-2.2 1.5-1.3 0-2.4-4.6 1.6-4.6-1.8l-2.3 1.9c.8.7.5 1.2.8 1.8-1.4.7-1.3-.6-1.9-1.6-2.4 2.6-4.1-.2-7.7-1.8-2.2 1.8-6.4-1.4-9.6-.2-.2 1.7 1.4.5 2.3 1.3-.7 1.8-4 1.1-5.6.9-.4-1.8 2.1.2 1.9-1.6-1-.9-1.8-1.5-1.8-2.3-.9.6-2.6 2.6-3.9 3.9-1.6.4-1-1.9-2.1-2.7-.8-.3-3.6 1.6-3-.6-2.8 1.7-5.4 1-7.9.4-1.5-1.2 1.5-2 0-3.2-2.1.9.4 2.2-1.4 3.1-1.6.9-1.5-1.9-2.4-3-1 .6-1.8-.4-2.7-.2.4-.9.1-1.9-1.1-2.9-.1.5-.6 1.5-1.1 1-.9.9 1 .2 1.2 1.5-1 1.2-1.8 0-2.7-.2-.8.9 1.2 1.4 1.6 1.2 0 .8-.4 1.6-.6 2.4-1.3 0-1.2-1.3-2.1.5-1.3-1.7.5-1.2.6-2.4-1.3-1.1-1.3.7-1.9 1.6-1.7.4-3.2-.6-4.8-.4 0-1.1 1.2-2 1.4-3.1-1.5-.6-2.6-3.5-4.6-2.5-1.2-2.2-1.4-3.4-4.4-3.9.8.8 2 .9 1.8 2.3-1.1.9-2.1.3-3.1.1-.7.6.4 1.4-.9 2 1.3-.1 3.7 2.1 4.1.3.1.8.4 1.7-.6 2.4-1.2.1-.6-2-2.4.1-1.5-.8 1-1.3-.5-2.2.1 2.1-1.8 1.9-3.2.8-1 1.3.3 1.7 1.2 1.5-.6.6-1.2.2-1.8.9-.3-.9-2.3-1.8-1.5-2.6-.6-.2-3.1 1.7-2.4-.5-1.1-.7-2 3-3.6 1.8-.3-.6.7-1.1 1.2-1.7-1.7-.4-4.6-2.5-5.5-.4-.5.3-2.9-.5-1.2-1.5-3 .1-7.1 2-8.5 6.1-.8.1-1.6-.4-2.4.2-1.2-1.3 1.4-2.2-.3-3.6 1.7-1.3 1.7-.3 2.7.2 1.7-1 2.1-2.2 1-3.5-.4.3.1.7.2 1.1-1.1.6-2.2 1.3-3.1.1-.7-1 1.1 0 1.5-1.3-.8-1.5-1.9.8-2.7-.9-.9 3.4-4.5.7-6.8-1.2-1.2 1.2-2.3 3.5 0 3.9-.4-1.9 1-1.1 2.1-.5.3.6-.6.6-1.1.3.4 1.6 4 .7 5.7 1.5-5.7 2.1-13.9-.4-20.7.6-.3-.5.4-.9.8-1.3-.9-.6-1.7-.9-2.8.5-.4-2.3-1.4-.4-2.6-1.6-.9-.9 2.4-1.5.6-2.4-1.4 2.2-2 .8-4.5 0-1.2 1.7-2.6 2.8-4.2.4-1.3 1.5-2.3.3-3.6 1.8-3.3-5.1-10.2-1.8-16.3-4.6 0 1.6-1.6 2.8-2.1.6-1.5.7-1.2 1.6-1.3 2.4-.5.1-1 .3-1.4-.1.2-1-.1-2.1 1.3-3.1-1.9-1.5-.7 2.9-2.9.6-.7 2.5-1.3 1.6-3.3 1.6-.7-.9.3-1.6 1.3-2.4-3.5 1.7-8.6-.2-11.3 4-1.7.7-1.7-.5-2.8-.8-.9-1.1 1.1-2.1-.1-3.2-1.4.9-1.2 1.8-.9 2.8-1.7-.5-1.4.7-3 1.3-.9-1.9 1.5-4.2 3.2-4.1-.7-.6-.3-1.1 0-.7-2.3-2.1-5.7-4.4-9.7-.7-1.3-1 1.8-1.8.2-2.8-1.4 1.9-4.8-.4-7.2-.3-.7.6-.4 1.2-1.2 1.7-.1-.6.5-1.2-.3-1.8-1.4.1-.5.5-1.6 1.4-.3-.5.5-.9.1-1.4-1.5-1.5-3.2-.3-3 1.4-.3-.5-.7-.6-1.1-.4-.3-.5.4-.9.8-1.4-3.4-.1-8.7-2.8-11.1-.2-3.3-2-2.5.6-4.5-.7-2 2.8-3.2 2.3-5.8 3.9.9.9 1.7.5 2.6 1-1.2 1.2-2.2-.6-3.4.4-.4-.5.4-.9.8-1.4-2.4-.1-4.7-1.6-7.1-1.7-.4-.5.4-.9.8-1.4-1.1-.1-2.3-.6-3.4.4-1.2 3.8-8.9-1.2-12.6 1.4 4.5.4 9 .5 13.4 1.4-1.5.9-3 .2-4.5.1-.6 1.7 2 .3 2.7 1l-2.3 2.2c-.7-.6-.3-1.2-1.1-1.7-3.2 1-3 4.3-6.9 3-.3-1.2 2.5-1.6 3.4-2.6-.1-.8-1-1.6-.4-2.5-.8.5-2.6 4.9-5.7 3.4-.6-.7-.2-1.4.8-2.1-1.6-1.2-3 3.1-5.3 2.3-1.6-.9 1-1.9-.8-2.8-.4.2-.2.5 0 .7.1 1-2 .2-1.5 2.2-.7-.3-3.3-.6-2.7 1.2-.9-.2-1.8.7-2.7-.2-.1-1.3 2.5-2.8 1.9-4-1 .5-2.3 1.1-3.5 2-1.1-.6-.2-1.4-1.6-2-2.3.6-4.7.3-7 .5-.8-.8 1.5-.5 1.9-1.9-3.1-.9-3.5 4-6.6 1.5-.4.1-1.1 2.1-1.9 1.3-.9 1.1 1.2 0 1.7 1.2l-1.1 1.2c-2.4-1.1-4.7.6-7.2-.7-.2-1.8 3-2.3 4.3-.8 1-1 2-1.7 3.1-1.7-1.3.3-4.6-2-6.4.7-1.7-.9.3-2.1-1.4-3-1.4 2.7-6.1 3-9.8 3.5-1-1.2 1.2-.5 1.5-1.6-1.7.2-1-1.1-2.6-1.8-2 1.2-4.3.7-6.3 2.3-3.2-1.7-2.9.9-7 3.9 1.7-.5 3.4-1.6 5.2-1.1.8-.6.4-1-.1-1.4 1-.7 2.1-.8 3.2-.5 1 .5-1.2 1.1-1.6.9.7 1.1 5 3.6 6.6 1.2 1.5 1.9 5.9 1.3 8.4.1 1 .9.6 1.8 2 .1 4.2 1.9 8.3 1.9 12.3.6.3 2.4 4.3.2 3.2 2.6.6-.8 1.9-.8 3.4-1.3-.7-.6-1.3-.2-2-.9.8-.4 1.5-.5 2.3-.9.3.6.3 1.2-.3 1.8 1.1 1.1 2.1.2 3.1 1.2.7-.5.3-1 .7-1.5.9 1 1.8 1.8 2.7.2.7.5 1.3 1.4 2 .9 1.1.6-1.9 1.5 0 2.1 1.5-2.9 8-1.9 9.5-.1 1.4.8.4-1.1 1.5-1.5.4-.2.8 0 1.1-.4 1.4.8.5 1.6 1.9 2.4 2.4-2.3 7.4-.6 10.9.1.9-1.3 1.7-.9 2.6-1.8-1.9-1.5-1.5 1.3-3.4.4.9-1.1.7-.8-.3-2.5 2.4-2.3 4.5-1.1 5.2.7-1 1.3-2-1.6-3 0 1.7 0 2.4 2.1 1.1 3.2 2.3 0 4.7 1 7 1-.7 1.9-.4 1.2 1.4 2.1-1.2.5-2.5-.1-3.7-1.4-.7.7.9 1.4 0 2.1 1.4-.5 2.7.5 4 .3.9-.9-.4-1.9-1.4-2.8 2.1-.5 4.2.6 6.3-1.1.3-.9-.4-1.9.1-2.8 2.2-.5 0 1.8 1.7 2.5.4.7-.6.3-1.1 1 2.1 2.4 6.9 1 9.3 3.7 3-2.2 5.8-.6 8.7-.5.9 1.8-2.1 1.5-2.4 3.5 2.1 1.4 2.8-2.3 3.2 1.1.7-1.2.8-2.3.2-3.5 2.6-.8 5-.3 7.5.6.9-2.7 3.3-1.6 5.1-1.2.3.5-.4.9-.8 1.4-.6.3-1.2-.6-1.7-1.1-.5.3-.6.7-.4 1l-.8.7c1.2.9 2.7-1.1 3.8 1.2-.9.9-1.7 0-2.5.2-.6 1.9 2 1 2.8 1.5-2.5 2.9 2.7.6 4.5 1.9-.1-1.1.5-3.1 2-3.1-1.1 1.7.8 1.8.8 3.9.4-.4.7-.5 1.1-.3-.5-2 1.8-1.6 2.4-3.4.9.3 3.8 2.5 5.9.7 1.2 1 0 1.9-.2 2.8 1.9 1 3.7 1.2 4.7 2.4l1.5-1.3-1.3-1.5c-1.4 1.9-2.5-.5-3.8-.6 1.8-1.4 3.2.9 4.9-.4-.4 4.3 3.7 2 6.2 4.3-1-.5-2.1.4-3.1-.6-.2 1.8 2.6 1.3 3.7 1.3.4-.9.3-1.9.9-2.8 1.9-.4.8 1.9 1.5 2.6.5-.7.9-.3 1.4.1.2-2.2 1.9-2.1 3.4.2-.9-2.4.6-.7 2.3-2.7 1.8 2.1-2.6 1.5-.3 3.5.8-2.6 2-1.8 3.1-3.3 1.6 1.8-2.1 1.5-1.6 2.7 1.7.1 2 .1 3.2-1.5 1.4 1.6-1.2.7-.9 2.1 2.8 2.7 3.9-.2 6.9-.9.7.9.3 1.7 1.5 2.6 1.6-1.5 3 .1 4.5-.7.4 1-.4 1.8-.3 2.8 0 .1-.1.1-.1.1-.5.4-.8.1-1.3.5l-.2-.2c-.7-.7.4-1.3.4-1.9-2.1.2-2.8 1.4-5.2.7 1.4.7 2.8 2 4.3 1.4 1 1-1.9 0-.8 1.3-.3-.2-.7-.3-1-.4-1-.3-2-.3-3-.5-.2 0-.5-.1-.7-.2-.3.4.4 1-.1 1.4-1.3.6-.3-1.3-1.5-1.9h-.1c-.5.4-1 .5-1.4.3-.1 0-.2-.1-.2-.1v.2c-.4 3-2 .8-3.6.5-.3-.1-.6 0-1 .1-.2.1-.5.3-.7.6-.2-.2-.3-.3-.4-.5-.4-.9.6-1.6-.8-1.7-.5.6-.5 1.2-.5 1.9 0 .8.1 1.6-.5 2.3l.3.3c.1.1.2.1.3.1.7.3 1.5-.3 2.2.5.4-.4-.3-1-.6-1.4 1.3-1.1 2.3-.1 3.4.2.1 1.3-1.1.5-1.6 2-1.1.1-2.1-.2-3.2 0-.3.1-.7.2-1 .4-.8-.7-.3-1.4-.4-1.8-.1-.2-.2-.3-.8-.4-.1.2-.3.5-.4.7-.6.9-1.5 1.4-2.4 1.6-3.3.8-8.1-1.4-11.4-1.4-.2-.9 1.5-1.8.9-2.8 2.1.4 4.1.9 6.2 1.4.7.1 1.3.3 2 .4.7.1 1.3.2 2 .3-.6-.8-1.3-1-1.5-1.3-.1-.3 0-.6.6-1.2-1.2.2-2.3.5-3.5.5-.2-.9 1.1-1.8-.4-2.8-1.2 1.9-1.5 1.3-3.2.8-1.3-.9.4-1.6-.8-2.5-2.4-.7-5.6.4-7.1 1.7.1-.6-.7-1.2-.2-1.8 1.1-.9 0 1.8 1.4.1-2-1.5-4.2-.4-6.2-1.8l-2.6 2.3c-.6-1-.6-1.9-1.9-2.9-1.6 2.3.8 2.4 1.1 3.6-1.4 1.2-2.4-2.6-3.8-.5-1.6-1.5 1.6-2.8-.4-4.2-.4.3.1.7.3 1.1-2.8 1.1-5.4-.1-8.1-.7-1.5 1.5.7 3.1 1.9 2.9-1.3.6-2.8 3.9-4 2.3-.6-1.3 1.5-.4 1.2-1.7-.6-1.6-1.5.8-2.1-.8-.9 1.3 0 1.8-1.9 2.4-.8-.7-.7-1.4.1-2.1-1.9-1.5-1.9 2.8-3.6 1.3-.5-1.1 2-2 .5-3.1-1.4.8-1 1.6-1.9 2.4-.5.1-1 .3-1.4 0 0-1.1 2-1.1 1.6-2.8-1.8.1-1.4-1-3.1-2.5-3.3-1.4-6.9.4-9.4.5 2.1-2.5-5.7-1.6-8.2-2.6.2-1.9 3.4.2 4.8-1.7-2.9-1.8-5.6 1.9-7.7-.4-.4.5.3.9.7 1.4-1 1.7-1.9.1-3 1.4-2.7-3.5-6.3-.2-8-2.8-3.3 1.6-5.4-.2-8.1 2.3 1.3.1.4.5 1.5 1.4-4.1 2.4-5.3-1.5-5.5-4.4-.9 1.4-.1 2.8-.7 4.2-1.6-.4-3.2-.1-4.8-.9-.5-.9 1.6-.9 2.4-1.7-1 .1-5.6-1.2-6.5-.7-.9-.3-.9-2.2 0-1.4-.1-1.7-1.5 0-2.3.1-.4.5.4.9.8 1.4-3.1.3-8-3.6-12.2-1.3l-2-1.6c-.7.7-1.5-.4-2.3.9-3.5-3.6-6.6.6-10.2-2.6-3.4 2.2-6.9 1.2-10.6-.6 2-1.3 2.1-2.1 3.7-3.2-3.9.5-7.6 3.4-9.8 1.5.4 3-2.2 4.8-.8 7.9-2-.1-4-.7-6-.9.6 3.1 7.3.1 7.5 3.8-.7.9-1.6-.9-2.5-1.1 0 1.5-1.4 1.3-2.6 1.6-.7.2-1.3.4-1.8 1.2.1-.9.1-1.8-.8-2.6-.3-.2-.7-.5-1.2-.7.2.7 0 1.3-.4 1.7-.4.6-1.1 1.1-2 1.8l-.1-.1c-1.4-1.1-3.7-2.4-3.5-.4-.7-.3-1-.8-1.2-1.1-.2-.3-.4-.5-.7-.6h-.7c-1-1.1 0-1 .9-1.9-1.7 0-3.5 0-5.1 1.3-1.5-.9 1.1-2.6-.5-3.5-.6.7-.7 3.6-2.5 2.3-.1.9-1 1.9.8 2.3-1.8 1.1-1.8.9-2.2 2.2-.1.2-.1.5-.2.7-.3.6-.7.3-1.1 0-.5-.4-1-1-1.4-.2-.7.8-.5 1.1 0 1.3.6.2 1.5.2 1.9.5-.8.4-1.7 0-2.5.3l-.6.3c-1-.8 1.3-2.2-.5-2.8-.2 1.6-2.7 1.2-2 0-1.7 2.8-5.2 2.7-8.7 1.6-.4-.1-.9-.3-1.3-.5.5 1.4-.3 2.5-.3 3.3M19.7 44.7c.2-.7-.1-1.2.7-2.1.9.5 1.4 0 2.2.4-.7 1.4-1.5 2.5-2.9 1.7m10.4-2.6c-1.3-2.1-1.5.7-3.3.3-.9-2.1 5.3-3 3.3-.3m10.9.5c-1.5-.6-.4-2.4-2.5-1.9 2.1-3.1 3.5.9 5.9.7-.8 1.8-2.7-1-3.4 1.2m14.2 2.2c-.4-1.8-1.7-.3-2.2 1.3-1.8-1.6 1.6-5 3.6-4.2.3 1.3-.6 2.5-1.4 2.9M36.3 59.9c-.8-.8-2.8 1.4-2.6-.7 1.1.1 3.2-1.6 2.6.7m2.3-1.8c1.1 1.7 1.3.1 2.8.2-.5.7 1.1.9.8 1.6-1.8.3-1.7-1.1-2.9.9l-1.4-.7c.3-.6-.1-1.1.7-2m-.7 7.9c2.5-.5 4.6-2.4 7.3-2.1-1.9 2.3-5.9 3.1-7.3 2.1m5.1-4.4c.8-2 2.2-1.9 3.7-.9-1.2.4-2.1 2-3.7.9m13.7-3.1l-1.3-.8c.6-1.6 1.6-1 2.5-1l-1.2 1.8zm238.6 20.6c1.5 1.1-.6 3.1-1.6 2 1.1-.6.3-1.3 1.6-2M92 81.6c-.7-.8 1.3-2.5 1.9-1.7.1.5-.8 3.1-1.9 1.7m-71.9 47.1c-1.7-1.7-1.3 1.9-3.1.2.3-2.2 3.1-2.7 3.6-1.6-.8-.1-.1.7-.5 1.4m43.3-6.7c.9-2.1 2.3-.7 2.5-.6-.9.3-1.4 1.6-2.5.6m35-19.1c.8-1.1 3.2-2.3 3.2-.5-1.1.2-2 1.5-3.2.5m8.3 22.2c.9-1.6 2-.9 3-.4.1 1.4-1.8 1.6-3 .4M128 78.7c-1.1-.1-3.8.5-3.8-.8 1-.1 3.8-1 3.8.8m-30.9 1.8l1.5 1.2c-.6 1-1.2 1.4-2 1 1.5-1-1-1.3.5-2.2m.3 8.4c-.8-1.5 1.7-1.9.3-2.9.6-.7 1.2-1.1 1.9-1-1.3 1.4.1 4.6-2.2 3.9m12.2-.1c-1.6-2.7-1.2.4-2.2-1.9-1.7.6-4.9 2.7-5.7 1.1.3.2 2.1-.4 1.3-.9-1.1.6-2.2.5-3.4-.2.8-1.4 1.8-.6 2.8.3.9-1.2 2.9-1 2.8-2.9 2.3 1.3 4.7-2.3 6.2.8 0-2.1 2.3-2.3 3.6-1.4-3.3.8-2.5 3.2-5.4 5.1m5.3 34.3c1.3.8 2.4-.7 3.8 1.1-.9.9-3.6.6-3.8-1.1m9.5-34.3c-.9-.1-1.3-.4-1.4-1.3-2.2 1.9-4.7-.3-6.9 1.7-1.1-.7-.1-3.1-1.8-.9-1.2-.9-1.5-3.7.5-2.9-.3.5-.6 1 .1 1.4-.1-4 4-3.2 6.2-4.5l1.8 1.6c1.3-.3 2.6-2.4 4-1-.5 2.3-3.6 2.8-5.3 2.5.4.5-.1.6-.6.8 1.1 0 2.3 1.4 3.4 1.1 1.6-2.1 3.2-3.7 5-2.1-2.7.1-1.9 1.7-2.9 2.6-.3-1.7-1.5-.4-2.1 1m6.5 36.8c1.1-1.5 2.3-.1 3.4.2-1.1 1.2-2.2.6-3.4-.2m2.4-40.5c-.9-1.4-1.9-1.4-2.7.2l-1.1-1c1.6-1.3 3.4-.7 5.1-.7l-1.3 1.5zm7.2 39.6c0-1.4 1.8-1.9 2.8-1.2 0 1.8-1.8 1.4-2.8 1.2M137 84.5c1.1-.9 2.3.2 3.4.5-1.1 1.1-2.2.9-3.4-.5m10.5.6c-1.4-1.3-2.7-.5-4 .1.6 1.2.7 2.3-.6 3.5-1-.5-2-.6-3.1-1.6 1-1.3 2-.3 3-1.9-.6-1.4-3.1-.5-3.4-2 .6.3 1.1.2 1.7-.4l1.7 1.7c2.2-1.7 2.8-.3 5.4-1.6-.8.8.4 1.5-.7 2.2m4.3-.5c-1.5-.8-1.3 1.5-3 .4.8-1.4 3.3-2.3 3-.4m8.1 40.3c.9.4 1.9-1 2.9.4-.8 2.3-4.2-.8-2.9-.4m-.7-40.4c1.6-.3 3.1.4 4.7.7-1.4 1.5-5.4 1.9-4.7-.7m5 1c1-.7 2-.8 3-1.1-.5 1.5-1.6 1.9-3 1.1m7-9.1c-1.1-1.2-2.3 1.3-3.4 0 1-1.2 3.7-1.8 3.4 0m-1.2 8.8c.9.8 1.7.4 1 1.8-.7-.7-1.3.5-2-.7l1-1.1zm3.4 42.2c.6-2.3 3.5-.8 5.1.1-1.7.9-3.4-.7-5.1-.1m-3.1-43.3c.6-.5 1.2-1.4 1.7-1-.2.2-.4.5 0 .7.6-.6 1.1-.6 1.7-.4-1.1 1.1-2.3 1.5-3.4.7m16.2-7.1c2.4-1.1 4.8-.7 7.1.5-3.1.1-4.5 0-7.1-.5m9.4 12.9c1-.9.2-1.3 1.4-1.3 1.5 1.1-.4 3-1.4 1.3m12.8-10c-1-.3-1.3-2.2-2.9-1.9 1-1.6 1.8 0 2.8-1.3 1.2 1.2 1.6 2.2.1 3.2m24.8-1c1.4-.8 2.8-.7 4.1.3-1.4.7-2.8.6-4.1-.3m7.9 15l-.6-.7c-.2.2-.5.3-.7 0 .7-1.6 2.5-2.6 3.8-1.5-1 1.4-2.4.6-2.5 2.2m-98.1 52.8c1-1.9 2.1-1.4 3.3-.5-.1 1.6-2.2 1.7-3.3.5m31.7 2.9c.7-.5 1.5-2.6 2.2-1 .4 1-1.7 2.4-2.2 1m14.2-11.6c.9-1.2 1.7-1 2.6-.6-.9.8-1.8 1.6-2.6.6m13.9 1.9c.1-1.4 1.5-1.8 2.3-.3-.8.6-1.6 1.4-2.3.3m12.7 4.2c-2.1-2.8-2.6-2.6-4.9-3.8 1.5-1.2 3.4-2.6 5.7-2.1.2.8-1.8 1.5-.5 2.4 1.8-1 1.1-2.1 1.9-3.1.5.8 1.1.4 1.5 1.2-1.3 2.6-2.6 3.1-3.7 5.4m9.9-2.2c-1.9.9-3.7.2-5.5-.7 1-1.4 1.1-.4 2.2-2.7.5.5 1 1.5 1.5 1.2.5-.4-.2-1 .1-1.4 1.1.7 2.5-1.1 3.5 1.3-1.1 1.4-3.3 0-1.8 2.3m10.3-.4c1-1.2 1.9-1.1 2.6.2-1 1.2-1.8 0-2.6-.2m15.1 2.5c1.5-.8 4.1-1.3 4.3.7-1.5.3-3 .7-4.3-.7m33.4 1.8c-1 1.4-2.6-.2-1.6-1.2.8.6 1.7-.2 1.6 1.2m109 8.5c-.4-.5-.8-.7-1.3-.8.1-.9 1.4-2 2.2-1.9 1.2 1 .3 1.8-.9 2.7m22.7-1c-1-.7-2.4 1.4-3.3-.3 1-.5 3.7-1.3 3.3.3m89.7 3.5c-.8-1-2.1.2-2.2 1.2-.5-.7-.8-1.3-.8-1.9.9-.6 3.5-1 3 .7m6 3.2c-1.1-1.4-.5-2.7-.5-4-1.3 1.6-3.3 2-3 0 1.9-.5 5.6-1.4 5.9 1.4-2.3-1.3-1.3 1.7-2.4 2.6m6.8-3.1c-.8-.4-1.9.5-2.7-.3.1-2.2 4.2-1.3 2.7.3m487.6-25.9c.8 1.1-.4 1.8-.5 2.8-.7-.6-1.6.1-2.2-1.4 1-.7 1.7-.2 2.7-1.4m57.1-48.2c-.2 1.3-2.1 1.9-3 1.7.1-.9 2.1-2.8 3-1.7m-57.9-21.1c.7 1.2 1 1.3 1.3.2 1.3 1.4-1.9 2.4-2.2 1.1.6-.4.8-.8.9-1.3m-1.7 4.4c2.2-.6 2.5-.9 4.6-2.9.5 1.6 1.5.9 2.4 0 .9 1.6 1.1 1.8 1.4 3.8 2-1.1 1-2.7.7-4.2 2.6 1.1 1.9 4.5 0 6.1-1.9-2.9-5.1 1.5-7.2 0-1-1.7 1.4-.6 1-2-1.2.7-3.1.6-2.9-.8m1.2 2.7c-1 .6-2 1.1-2.7-.4 1.1-.7 2-.6 2.7.4m-4.8 35.3c1.3-.9 1.2-2.4 2.5-.7-.1 1-1.8 1.9-2.5.7m-1.7-37c-1.9.9-3.7 1.7-5.2.3 1.7.1 3.7-1.7 5.2-.3m-1.2 33.7c.9.6 1.9-1.8 2.5-2.5 1.3.9.1 1.4.3 2.2.4-.1.7 0 .9.5-1.7.1-3.1-.4-2.7 2.1-.8-.1-1.2-1.4-1-2.3m-8.2-35.1c-.6-1.1-1.7.8-2.3-.7.9-1.4 3-.6 2.3.7m-7.4 61c-3.2 1.5-5.8 1.8-7.6 4.6l-1.1-1.6c2.1-.5 5.1-4.8 8.7-3m-10.6 2c.5.8.7 1.5.3 2.2-2.3 0-4.7 1-6.9.4 2.3-1.1 4.4-1.5 6.6-2.6m-21.2-77c.7-.5 1.3-.8 1.8-.8 1.5 1.9-1.6 3.1.5 5.1-1.3.1-2.8 1.6-3.7-.2 2.2.4 3.2-1.9 1.4-4.1m3.7 79.4c1.9-1.5 5.6-2.6 8.4-3.4.9 1.3-.1 2.4-1.2 3.4-1.7.7-4.1.3-6.8 1.5-.2-.6-.8-1.1-.4-1.5m-29-71.7c-.5 1.3-3.2 2.4-4.4 1.5 1.7-1.7 3-1.3 4.4-1.5m-62.2-1.2l-1.6 1.2-.8-1.2c1-1.3 1.6-.3 2.4 0m-2.7 1.4c-1.7-.4-3.5.3-5-1.1 2-1.1 3.7-.9 5 1.1m-5.4 0c-1-1.3-2.6.8-3.7-.2 1.2-1.7 4-1.6 3.7.2m-15.9 113.5c-.5.8-.9 1.4-1.6 1.2.4-.4 0-1-.4-1.5.8-.7 1.5-.6 2 .3m-5.3 2.1c1-1.3 1.2-1.2 2.3-2.9.8 1.3 0 2.4.1 3.6-.3-.3-.6-.2-.9-.1-.6.2-1.3.8-1.8-.3.2-.1.3-.2.3-.3m-2.7-3.2c-2 1.2-.7 1.4.1 1.9.4.3.6.6.3 1.1-.2.3-.5.7-1.1 1.2 0 0 0-.1-.1-.1-.7-1.3-.7-1.6-1.5-1.8-.1 0-.2-.1-.5-.1.5-1.1 1.4-3.5 2.8-2.2m-6.8 3.2c0-.1 0-.2-.1-.3 1.8-.1 2.1-3 3.9-3 .1.9.3 1.8 0 2.6-.2.4-.4.8-1 1.2-.2-.2-.4-.5-.6-.7-.2-.2-.4-.3-.6-.1-.1.1-.1.2-.2.3-.4.9-.3 2.9-1.6 2.3-.1-.9.5-1.5.2-2.3M793.1 57.7c-1.4 1.1-2.4-.7-3.8-.2 1.5-1.2 2.7-.8 3.8.2m-38.9-1.1c-1.5-.9-1.5 1.5-2.8.3-.2-.8 3.6-2.6 2.8-.3m-6.9-2c1.2-.9 2.1-.2 3.1.1-.2 1.2-1.6.7-2.7 2.1-1.1-.9.1-1.4-.4-2.2M711 51.5c.7.9 3.3.3 2.8 2.2-1.2-2-3.6.7-2.8-2.2m-8-1.1c.8.7 1.8.4 2.5 1.8-1.6 1.4-3 1.5-4.4 1.6l-.8-1.2c2-.6 1.6-.3 2.7-2.2M684.3 49c.7 1.7 3.3.7 2 2.8-.4-1.3-2.7-1.3-2-2.8M606 42.3c.9.4 1.9-.7 2.6 1-.9 1-3.2.4-2.6-1m-13.3 113.4c1.4 1.5 3.2-.2 4.7.6-1.4.9-2.4 1.8-2.1 2.9-.9-1-2-.1-2.9-.7 2.1-2-.9-1.4.3-2.8m-4 2c-.9.9-1.7 1.2-2.4.1.9-.9 1.8-1.2 2.4-.1m-2.7-2.1c-.6.8-.4 1.6-1.3 2.3-.7-1-.2-3.5 1.3-2.3m-6.7-.8c.7.6 1.5.3 2.2 1.3-.6.4 0 2.5-1.2 1.6.8-.8.1-1.8-.9-1.2.2.7.1 1.4-.3 2.1-.6-.8-1.4.3-1.9-.9 1.8-.8.3-2 2.1-2.9m-17-116.7c.6.7.5-.7 1.1-.2-.9.9 1 .2 1.2 1.6-.8.9-2.9-.5-2.3-1.4m1.5 120.5l-1.1-1.6c1.3-1.4 2.8.7 1.1 1.6m-5.6-3.5c-.4.5-.3 1.1-1.2 1.6-.6-1.5-1.5-.7-2.2-1.3 1.3-.9 2.5-1.6 3.4-.3M542.7 40.8c.3.6 0 1.2.8 1.9-1.6 1.1-3.2 1.7-4.4-.1 1.7-.1 3.5-.9 3.6-1.8m-1.2 113c1.3 1.1 5-1.7 5 .9-1.6-.3-4.9 1.9-5-.9m-6.6-118.5c-1 2.4-3.1 1.8-4.6 1.2 1.6-1.4 3.2-2.3 4.6-1.2m-1.6 3.7c-2 1.5-3.8 1.1-5.5.1 2.1-1.4 3.6.4 5.5-.1m-6.2.7c-.5-.5-1.1-.1-1.6-.6.5-.4-.2-1 .2-1.4.3.2.7.2 1.1-.2.7.8.9 1.6.3 2.2m-.7-2.6c-1-.9-2.3.3-3.3-1.1 1.1-.8 3.7-.5 3.3 1.1m-4.4-3.3c-1.1 1.6-1.9.2-2.8.4.1.4.6.8.2 1.1-.4-.5-.5-1-.5-1.5 1.1-.2 2.2-.9 3.1 0m-10.9 1.9c1.2-.8 2.2.3 3.4.4-1.3 1.6-3.5 1.7-3.4-.4m-4.1-5.4c.6.7.2 1.2.8 1.9.4-.3.2-.7.5-1 1.4 1 .4 1.7-.7 2.4-.4-.4-.8-1.1-1.3-.8.3.5-.3.9-.9 1.3l-.9-1.2c2.1-1.3 1.8-.9 2.5-2.6m-2.8 3.6c-.5.5.2 1.2.1 1.8-2.1 1.3-4 .8-5.8-.3 1.2-.8.5-1.8 1.7-2.7 1.3.8 2.7.4 4 1.2m-4.1-2.9c-.2.3-.2.7.2 1.1.5-.3 1-.6 1.4.1-1.9.2-3.7.6-5.4-.6 1.9-.1 2.4-.7 3.8-.6m-3 1.8c1.5 1.7 1.1 3.2.4 4.7-.4-.5-.8-.7-1.3-.8 1-1.3-1-2.8.9-3.9m-6.9-2.5c1.4.8 4.8-.2 4.9 1.6-1-.6-2.1.1-3.1 0 .5.8 1.1.5 1.6 1.2-1 .5-2.5.8-2.7 2.2-.5-1.7-.7-3.4-.7-5m-10.6 2.4c1.1-.5 2.1-.6 3 .7-1.2 1.1-2.1.7-3.1 0 .2-.2.4-.4.1-.7m-8.6-2.4c-.3.7 1.4.9 1.6 1.2.5-.5.2-1.2.6-1.7 1.8-.1 2.2 1.9.6 3.3-1.8-.5-3.6-.3-5.3-1.3 1.3-.6 1.9-1.5 2.5-1.5m-12.3-.6c.6 1.4 1.7-.6 2.2 1.3-1 .7-3.4.1-2.2-1.3m-1.8-7.9c.8.8 1 1.5.4 2.2-.4-.4-.8-1.2-1.3-.8-.4.2-.8.6-1.1.2l2-1.6zm-4.2 3.4c.4.6 1.2 1.3.8 1.9-1.6-1.3-2.3-1-3.2.7-.8-2.1 1.1-2 2.4-2.6m-6.3.8c-1.8 1.1-3.5.7-5.2.5 1.8-.8 3.7-1.8 5.2-.5m-2.4 3.3c1.2-2.6 1.6.1 2.7.3-.7-1.9 1.2-3.1 1.9-4.1 1.5 1.7-2.4 2.8-.9 4.5.4-.5.3-1.2 1.2-1.6.5 0 2.5 1.4 1.8 2.3-1.8-1.4-9.7 4.4-7.5-.8-1.4-.2-4.7 1.1-4.7-1.2 1-1.2 4.9-1.2 5.5.6m-6.4 1.5c-1.2.7-2.4.6-3.4-.3 1.4-1.5 2.4-.6 3.4.3M432 60.7c1.4 1.1 1.4-1.4 3.3-1.4 1.6 2.2-3.8 4.3-3.3 1.4M416.3 63c-1.1.6-2.2 1.3-3.1 0 1.2-1.1 2.2-1 3.1 0m-7.5-8.9c1.5 1.4-.3 2.6-1.5 3.7-.5-.6-1.2.5-1.7-.5 1.6-2.2 2.1-.7 3.2-3.2m-4 2.1c1.6 2.3-2.6 3.4-3.6 1.8.5-.5.1-1.2.5-1.7 2.3-.1 1.3 2.6 3.1-.1m-7-1.7c1.3-1.1 3.5 1.1 3.9-1.4l1.2 1.5c-1 1.2-1.7.3-1.9 1.6-1.8-1.1-2.8-1.2-3.5 1.1-1.4-.8-.1-1.4-.4-2.2l-1.9 1.6c-1.5-2.2.3-3.1-2.3-3.8 1.6-.1 4.7-.4 4.9 1.6m-4.1 6c.7.6 1.7-.9 2.3.6-.7 1.4-2.9.7-2.3-.6m-31.5 26.1c2.1-1.3 2-1.4 2.4-3.3.6 1.2 1.2 1.2 2 .2 1.1 2.2-2.6 4.4-4.4 3.1m-2.9-33.2c.1-1 1.9-1.7 2.8-.5-1 .7-1.9 1-2.8.5m7.3-22.7c1.2-.5.2-3 2-2.3-.7.6.8 1.5.4 2.2-.9.9-1.7 1.2-2.4.1m4.4 28.7c.1-1.1 1.9-1.3 2.8-.5-1.1 1.3-2 .9-2.8.5m4.2-2.7c-.3 0-.7-.1-1-.2-1.3-.3-2.7-.9-3.8-1 1-.6.3-1.4 1.6-2 1.6 3.1 3.8.9 5.6 2.3-.6.8-1.4 1-2.4.9m9-2.8c-1.2 1.3-2.2 1.3-3.2.8.3-1.3 2.4-2.6 3.2-.8m-10.6-27.1c-.9.9-1.7 1.2-2.4.1.9-.9 1.7-1.2 2.4-.1m3.7 24.7c-2 1-1 .8-2 2.3-1 0-3.8.2-2.5-1.7 1.8 2.2 2.5-2.4 4.5-.6M369.1 21c-.2.5-1.7 1.6-1.4 3.1.9-.6 1.6.3 2.3 1.3-1.8.8-3.7 2.8-5.3 1.3 2.7-1.5 1.3-7.6 4.4-5.7m-7.8 2.2c.8 1 1.9-1 2.6 1-.8.9-3.2.4-2.6-1m3.1 2.4c-1.3 1.8-2.4.6-3.5.4 1.2-.3 2.5-1.4 3.5-.4M356 46.7c1.9 2 6.1.2 6.9 2.4-2-.9-7.4 1.3-6.9-2.4m-8.9-.7c1.7 1.7 3.8-1.4 5.4.4-1.5-.2-6.3 2.8-5.4-.4M94.7 7.5c-1.8-.2-1.4.8-4 .6.4-1.2 1.1-2.2 2.2-2.5-.6 1.6 1.7.4 1.2-.5 1.1.7.7 1.6.6 2.4m22.6-1.3c1.4 0 4.9-1 5.1.7-1.6.2-3.3.4-5.1-.7m11 2.1c-.8-.5-3.6-.5-3.2-1.9.9-.6 3.7.6 3.2 1.9m23.4 3.6c1.4-1.2 2.8-3.2 4.2-1.9-1.5 1.2-2.9 2.3-4.2 1.9m6.8-3.7c-.6-1.8-1.5-1-3-2.1 2.6-.4 4.6-4.2 6-1.4-2.1.5-2 2-3 3.5m3.8-4.2c1.6.9.8 1.9 2.2 2.8-1 .9-2 .6-3 .7.7-1.2-.2-2.4.8-3.5m.2 8.1c.6-.7 2.9-.8 2.3-2.1-.7-1.4-3.4.5-2.9-1.4 1.4 0 2.8-.5 4.1 1-.7.6-.5 1.2.3 1.8-1.3.8-2.6 1.1-3.8.7m5.7-3.9c-1.1.2-2.2-.2-3.3-1 .9-2 3.6.4 3.3 1m13.1 3.6c-1.5-.3-1.6-2.4-3.6-.8-.2 1.2 2.1.9 1 2.5-1.4 0-2.3-.6-2.8-2.2 2-2 6-2.8 6.6-.6-.8-.4-.4.6-1.2 1.1m5.8.8c-.7-.1-1.4-.5-2.1-1.5 1-.8 2-.8 2.9.1-.5.5-.6.9-.8 1.4m2.8 2.2c1-1.2 1.9.5 2.9.8-1.1 1.7-1.9.1-2.9-.8m-3.1-10.7c1.9-.7 3.7-1.1 5.5.5-1.8.6-3.6-.3-5.5-.5m13.8 13.1c0-.4 1-2.4 1.9-1.7-.2 1-.4 2.7-1.9 1.7m-3.5-6.8c.6-1.5 2.5-.8 3.4-3 1.9.9-1.5 1.6-.5 2.4.9.8 2-1.4 2.9.1-2 1.6-3.9.8-5.8.5m11.9 4.7c-1.6-1.3-.7-3.7.6-3.8.7 1.3.6 2.6-.6 3.8m5.5 6.9c-.4-.5-.9-.1-1.4-.8l1.9-1.7c1 1 .1 1.8-.5 2.5m-.4-8.1c-.4-2.2-1.7-.5-3.1-1.9 1.7-1.3 3.1.5 4.7-.8.5.7 1.1 1.1 1.7 1.1-1.8.8-2.1-.7-3.3 1.6m8.2 3.3c-.6-.4-1.2-.2-1.7-1.2 1.6-.4 1-1.6 2.5-.9-.7.7.5 1.4-.8 2.1m3-2c-2-2.5-6.4.5-7.3-2.2 2.1.3 7.9-1.6 7.3 2.2m9.7 1.3c.5-.6.1-1.2.5-1.7.7 1.4 1.6-.2 2.3 1.2-.9.6-1.9 1-2.8.5m15 3.1l2.2-2c.8 2.1 2.1-.5 3 1.3-1.8 1.1-3.5.8-5.2.7m13.5 18c.1-.8-.2-1.7 1.3-2.4 1.6 1.1-.2 3.5-1.3 2.4m0-3.9l-.9-1.1c.9-1.4 1.6-.4 2.4-.2l-1.5 1.3zm7.5 7.2c-.3-.3-.5-.6-.5-1.1 1.2-1 1.4-.3 1.9.5.3.5.7 1 1.4 1.1-.9.4-2.1.2-2.8-.5m2.9 3.5h-.2c-.5-.1-.7-.5-.5-1.1.8.9 1.4-1 1.5-1.3l1.2 1.5c-.4.6-1.3 1-2 .9m7.5 6.5l-.9-1.1c.2-.2.4-.4.6-.5.5-.4 1.1-.4 1.5.1.1.1.2.1.3.3l-1.5 1.2zm14.2-12.4c0-.8 1.6-1.6 2.6-1.6-.7 1.1 1.5.4 1.9 1.6-1.7 1.1-3.1.4-4.5 0m18.3 41.8c.8.9 1.7.6.8 1.8-1.5-.1-.7-1.6-2.1-2.7-1.6 1.7-2.8-1.2-4.5.7.9.4 1.8.1 2.6 1.6-.8.9-1.4 0-2.2 1.2-1.2-.6.5-2.7-1.1-2.2-1.1.7.9 1.7-.6 2.4-.7.2-1.3-.2-2-.9.2-1 1.7-2 1.3-3.1-.8.2-1.5-.8-2.3-1.3 4.8-.1 9.5-.1 14.1 1.9-1.5 2.7-2.4-1.2-4 .6m-8.7-42.4c.4.6 1.3 1.3.8 1.8-1.5-.8-3.3 1.1-4.7-1.1 1.9-.9 2.7.7 3.9-.7m-2.5-15.8c.8-.3 1.8-2.4 2.6-1.6-.1 1-1.8 2.6-2.6 1.6m5.9 22.4c.5.7 1 1.1 1.6 1.2l-.8.6c.2.2.3.5-.1.7-1.7-1.8-.6 1.5-1.6 2-.1-.1-.3-.2-.4-.2-.6-.2-1.3.2-1.9-1.1 1.9-.9 2-2.1 3.2-3.2m11.1 39.1c-1.6-1.1 1-3.4 1.9-2.3-.4 1.6-2 .1-1.9 2.3m2.7.3l-.9-1.1c1.4-1 2.8-2.6 3.9-1.4-.2 1.4-1.9.8-3 2.5m4-38.6c-1 .3-3.5.8-2.3-1.3.4 1.8 3-.7 2.3 1.3m14.3 39.4c1.1-1.3 2-2.5 0-3.2 1.2-.6 2.3-.2 3.3 1-1.2 1.2-1.6 3.8-3.3 2.2m4-37.9l-.2.2c-.4.4-.7.7-.8 1.1 0 .1-.1.2-.2.3l-.3-.3-.3-.4c.2-.5.3-.9.3-1.2-.1-.8-.8-1.3-2-1.8 2-1.4 2.2.4 3.5 2.1m-4.4 2.5c1.6 1.7 3.6.5 5.3 1.9-2.1 1.5-5.7.3-6.4-.9.5.5 1-.5 1.1-1m2.3 6.3c.2.2.3.5.3.9-1-.2-3.1 0-4.1-.8-.3-.2-.5-.6-.5-1 1.1.9 3.5 0 4.3.9m-5-11.4c.3.1.6.2.8.3-.5.2-1.2.4-1.8.5-1 .1-2.1.2-3.2.2s-2.3 0-3.3.1c.2.3.3.7.5 1 .2.5.3 1-.4 1.5 0-1-.2-1.4-.5-1.6-.4-.3-1.1 0-2.1-.4-.2-.1-.4-.2-.6-.4.7-.6 1.2-.9 1.6-1.4.1-.1.2-.3.3-.5.2-.4.3-1 .1-1.9 1.8 3.7 5.6 1.7 8.6 2.6m-9.9-25c-.2.7-.6 1.4-1.6 2-.7-1.8-1.8-.3-2.6-1.6l.8-.6c.9 1.4 1.7-.2 3.4.2m-7.7-5.5c1.8.6 3.8-.8 5.4 1.2-1.8.2-1.5 2.5-3 2.6-1.8-.9.4-3.2-1.1-2.9-.6.8.2 1.7-1.3 2.4-.8-1.3-.3-2.3 0-3.3m2.9 5.1c-1.3 1.3-2.4 1.1-3.5.4 1.2-.2 2.5-1.3 3.5-.4m-2.3 22.5c-1.1.7-2.2 1-3.2.8.7-.5-2.7-.5-1.1-2.2 1.4.7 2.9.9 4.3 1.4m-4.1-24c-.6.5.6 1.2.2 1.8-.8-.8-1.9.4-2.6-.9.8-.9 1.7-1.7 2.4-.9m1.8 13.2c-1.4.4-2.8.1-4.2.4.2-1 4.3-2.2 4.2-.4m-9.6-14.2c1.6 1.1 3.4.4 5 1.5-2.1.7-4.1-.4-6.1-.5l1.1-1zm7.1 25.3c-.5.9-.2 1.9.4 2.9.3-1.5.4-1.6 1.9-1.6.7.6.1 1.2.2 1.8.9-1.8.8-.5 2.1-.5-.8-1.5 1.3-1.7 2.1-.5-.1 1.2-1.5.7-2.6 2.3-2.3-.6-2.4-1.6-3.5.4-1.3-.1-1.5-1.3-1.1-2.2-2.3 1.3-5.9.6-7.2-1.7-.1-.2-.3-.5-.4-.7.3.2.7.4 1.1.6 2.3.8 5.2.2 7-.8M307 16.5c-.5.4-.7.9-.8 1.4-.8-.8-3.3-.6-2.9-2 1.1 1 2.6-1.1 3.7.6m-8.4-1.8c1.5-.9 3.2-2.7 5.3-1.4-.9 1.3-1.6.3-2.6 1.6.8.9 1.7.6.9 1.8-1-.5-3.9.1-3.6-2m3.2 26.1h.4c.8.1 1.6 0 2.4.2-1.2 1.1-1.4 2.5-2.9 1.9.6-.7-.7-1.5.1-2.1M293.5 14c1.7 1.6 3.3-1.7 4.3-1.8 1.3 1.9-.8 1.5-1.7 3.4-.5-1.5-1.4.1-2.1.5-.8-.7-1.1-1.4-.5-2.1m-8.2 21.3c1 .5 2.1-.5 3 .6-.9.2-3.5 1.3-3-.6m-2.4-10.8c-.9 1-1.7 1.3-2.4.2.8-1 1.7-1.3 2.4-.2m-6.8 9.8c1 .6 2.1-.1 3 .6-.2.2-.6.4-.9.6-.6.2-1.4.3-1.8 0-.3-.3-.4-.7-.3-1.2m3.1 4.8c.9-.7 1.8-1.5 2.5-2.6 1 1.8 2.8 1.6 4.6 1.1 1.5-.4 3-1.1 4.3-1.2-.4.7-2.3 1.2-1.6 2 1.3-.9 2.6-.4 3.9-1.5-.4-.4-1.4-.3-.9-1.1 1.2 1.3 4.4-.8 4.3 1.4-1.3-.9-3.3.6-3.4 2.2 0 .4.1.7.3 1.1.1-.8.7-1.2 1.4-1.3 1.1-.1 2.6.5 3.1 1.2.1.2.2.3.2.5h-.2c-.5-.1-1.2-.3-1.9-.4-1.2-.2-2.4-.1-2.1 1.4v.1c.1-.1.3-.1.4-.1.4 0 .8.1 1.2.6-1.2.7-2 .2-2.7-.6-.4-.5-.8-1.2-1.2-1.8-.3-.5-.6-.9-.9-1.1l-1.4 1.2-.4.4c-2.4-2.3-5-2.1-7.7-1.6-.3 1.2-1 2.2-1.7 2.8-.2.2-.5.4-.7.5.1-2.7-1.4.9-2.6-.9 1.3-.9 2.3-1.6 3.2-2.3m-6.4-5.8c-.6-.4-1.4.7-2-.9.7-1.7 2.7 0 2 .9m-1.9 1.6c.4.5.7.8 1.1 1 1.1.5 2.4-.1 3.5.8-1 1.4.1 2.6-2 3-1.5-1.1-.2-1.9-.4-2.9-1.1.3-2-.2-3.2.8-.4-.4-.5-.8-.4-1.1.2-.5.7-1 1.4-1.6m-2.8-14.3c-.1 1-1.9 1.7-2.8.5 1.1-1.2 1.9-.9 2.8-.5m-11.6-.1c1.2-.5 2.5-2.4 3.5-1.2-1.2 1.1-2.5 2.5-3.5 1.2m3.5-.5c1.7-.3 3.4 0 5.1.7-1.7.6-4.8 1.3-5.1-.7m3 15.4c-.4.9.4 1.9.4 2.9-.9 1-1.6.1-2.3-.5.9-.6 1-3 1.9-2.4m-2.5 4c0-.2.1-.4.2-.7.9 1.6 3.9-.2 3.6 1.3-.8.1-2.7.7-3.5.2-.3-.1-.4-.3-.3-.8m-30 5.8c-.9-1.5-.7-2.1-3.5-3.4 2.4-2.1 4.6 1.3 3.5 3.4M229 34.8c-1.8 1.5-1.2-.4-2.7-1.6 1.1-1.5 2.8.6 2.7 1.6m-3.7 2.7c.7 1.1 1.8-2.2 2.5-.2l-1.9 1.7c-.4-.6-1-1.1-.6-1.5m3.2 28.3c1.4.6 3.1-1.4 4.4.6-1.4 1.3-2.6.6-3.9 1.5-.8-.7-1.1-1.4-.5-2.1m-3.9-28.4c-2.4 1.3-4.7.9-7 .3.5-3.3 4.7-1.5 7-.3m-7.3-5.3c2.2-.7 3 .7 4.4 2-.2.3-.3.5-.4.8-.1.3-.3.6-.8.9-.5-.4-.7-.7-.7-1-.1-.5.2-1-.1-1.5-.9.6-1.5 1-1.9 1.4-.6.5-.9.9-1.1 2-1.1 0-.9-1-1.1-1.9 0-.1 0-.2-.1-.3 1-1.2 1.9-.8 2.9-1.2-.6-.5-1.5-.4-1.1-1.2m-2 3.7c-1 1.4-1.9.3-2.8.5.1-1.5 1.9-1.8 2.8-.5m1.4 4.7c1.3-1.3 2.4-1.2 3.5.2-1.5 1.6-1.8-.4-2.6 1.6-.6-.6-.9-1.2-.9-1.8-1.3 2-4.2.9-4.1-.9 1.2 1.5 2.8-1.3 4.1.9m-8.5 22.1c1.8-1.5 3.5-1.1 5.2-.8-1.8 1.4-3.5 1.2-5.2.8m2.3-28.4c-1.1.1-2.3 2.3-3.2.9 1.1-1 2.2-1.4 3.2-.9m-7-1c.7.1 1.4.5 2 1.5-1 1.6-3.1-.5-2-1.5m-7.6 2.9c.9 1.5 1.8 1.2 2.7 1.5-1.5.6-.9.7-2.2 2-.5-1.4-1-1.9-2.4-.5-.6-.6-1-1.2-1-1.8 1-1.2 2-.7 2.9-1.2m-6.4-5.5c-.9-.7-1.9.5-2.8-.8.7-1.1 3.3-.2 2.8.8m-3.8-2.5c1.5.7.9 3-.5 2.5 1.1-.9-1-1.8.5-2.5m-2 8.6c.2-.4.6-.9 1.2-1.3 1.8 1.4 3.8-.5 5.7.1-.3.6-.6.9-1 1.2-.4.1-.7.3-1.1.4-1 .2-2.2 0-3.5 0h-.5c-.4.5-.2 1.3-1.1.3.1-.2.2-.4.3-.7m2.3 5.8c-.9 1-1.7.6-2.5-.4.9-1 1.8-.6 2.5.4m-10.1-13.6c-1.4 1.1-2.7 1.7-4 .3 1.4-1 2.7-.4 4-.3m-1.8 30.2c1.6-1.5 4.9-.9 5.2 1.1-1.4-2-3 .2-4.5.3.6-.9-1-.1-.7-1.4m-5.8-1.7c-.8 1-1.6.7-2.4-.3.8-1.1 1.6-.7 2.4.3M160 26.8c1.2 1.8 2.4 1 3.6 2.1-1.4 1.3-2.7-.7-4 1.8-.7-1-1.5-.1-2.2-1.4 1.7-1.2 1.3-.9 2.6-2.5m-10.7.6c1.8 1.7 3.7-1 5.5.9-.1 1.6-6.6 1.4-5.5-.9M146.5 57c1.9 1.6-1.3 2.8-2.5 1.8.9-1.3 1.7-.4 2.5-1.8m-27.1-8c1-1.4 4.1-.4 4 .8-1.3-.4-2.6.4-4-.8m2.6-9.4l-1.2 1.3c-.5-.4-1 0-1.5-.6-.1-.5.1-1 .5-1.4.9-.9 2.6-1.6 3.8-1l-1.6 1.7zm-4-2.3c.5-1.5.3-3-1.6-3.5-.1-1.3 1.2-1 2.2-1.6.8 2 2.8.4 4.5 1.1-1.6 2.2 1.6-.1 2.3 2-1.6.9-3.2-.6-4.8 0-.7.6-1.1 1.2-1.5 1.9-1 2-1 4.1-3.4 3.5.9-.8 1.9-2.1 2.3-3.4m2.6 20.1c.7.5 1.1 1.1 1.2 1.7-1.5.5-3 1.6-4.6.1 1-1.8 2.3 0 3.4-1.8M73.9 41.3c.3-.5-.3-.9-1-1.2 1.8-1.2 4 .6 5.8-.8-1.4 1.7-2.5 1.6-4.8 2m4-5.1c1 .4 1.8-.1 2.8.6-.9 1.5-3.7 1.1-2.8-.6m3.8 5.1c-1.2-.6-2.3.3-3.5-.5.7-1.4 3.6-1.1 3.5.5M67.3 57.6c1.1-.3 1.8-2.8 3.1-1.7-.9 1.2-1.8 2.9-3.1 1.7m5.9-1.2l-1.3-.8.9-1.3c.6-.8-1.2-1.2-.3-2.1 1 1.4 1.4-1.1 2.3.3-.9 1.4-.4 2.5-1.6 3.9m7.9-5.4c-1.1-.1-2.4-.8-3.6-1.1 1.6-.5 3-1.9 4.6-2.6-.6.7-.3 1.2.6 1.7l-1.6 2zm8.3.1c-.9-2.4-2.5.3-4.2-.4.5-3.3 4.9-2.4 4.2.4m-5.2-14.4l1.4-1.6c.9.5.5 1.1 1.3 1.6-.8 1.1-1.7.9-2.7 0m1.9 3.2c-.1-.9 1-2.3 2-2.4 1.8.4-.8 1.5 1 2-.9 1-1.9 1.1-3 .4m9.4 13.2c-.8 1-1.5 2-2.4 1.4.4-.5.7-1-.2-1.4-1.3.9-.3 1.5-1.2 2.3-1.8-1 .4-2.7.7-4 1.4.1.7 2.1 1.6 1.2.6-.9-.5-1.6.1-2.5l1.6 1.2c-.5.6-1.2 1.3-.2 1.8m3.2 6.2c1.5-1.3 3.1-1.1 4.7-.2-1.4 1.6-2.9 1.7-4.7.2m6.1-14.8c-1-1.3-1.7.5-2.7-.8l1.4-1.6c.5.8 1.4 1.6 1.3 2.4m7.3-.8c-1.3.4-2.6 1.1-4 .8 1.2-1.8 2.7-.9 4-.8m-4.6-18.2c.8-.1 2.4 1.2 1.3 2.3-1-.7-2-1.4-1.3-2.3M95 20.2c-.6.8 1.1 1.2.2 2.1-1.8.7-2.1-2.4-.2-2.1m.6 2.4c.9.5.3 1.1.5 1.7.6-.7 1.4.6 2 .1-.8-.5-1.2-1-1.3-1.6 1.3-1.3 2.4-.2 1.8-2 .9-.1 1.8-.6 2.8.7-.5.8-1.5.5-1.1 1.2 1.3-.2 2.6 0 3.9.3-1.4 1.4.2.4.9 1.3-.8 1.5-1.8-.5-2.7.6 1.4 1.8 2.6.9 4 1.7.4.6 2 2.8-.2 2.5.7-1.4-1.5-.3-2-1.6-1.4 2.3-3.1 0-4.5 1.2-1.3-1.6-2.1-1.9-4-1.6-.6.7 1 1 .5 1.7-3.6-1.3-1.8-3.1-.6-6.2m-3.2 14.6c2.1 1 4-1.2 6.1-.2-2.1 0-3.8 2.8-6 1.6.5-.5-.4-.8-.1-1.4m1.7 9c-.4 1.8-.9 2.9-3.1 2.2 2.4-.3.5-2.1 3.1-2.2m-4-12.5c.4-1-2.7-1.5-1.1-2.7 1.9-.3.2 1.5 2.2 2.2l-1.7 2c-.5-.8-2.7 0-2.1-1.5.8-.5 1.8.2 2.7 0m-18.2-.6c-.4-.8.5-1.8.8-2.7 1-.5 2-.7 3.1-.6.6 1 .1 2.1 0 3.2.6-1.2 1.3-1.8 2.1-2.1.9-.4 1.9-.5 2.8-.8.1 0 .2 0 .2-.1 2 2.2 3.4 1.6 6.1 2.3-.9 2-5.2 1.2-7.7 1.2.8.5.8 1.1.6 1.7-2.3.4-3-.1-2.2-1.4-1.7.7-7 3.1-9.1 0 2.3.5 1.6-.7 3.3-.7m-4.6 8.4c.6-1.2.1-2.2-.1-3.2.9.5 1.5-.8 2.4.2-2.7 3.1 3 .6 2.4 2.7-1.7-.7-4.8 2.3-5.6-.3l.9.6zm-2.9 1.3c.9.3.6-1.8 2.3-.5L65.4 44c-.5-.4-1.3-.7-1-1.2"/></svg>