<?xml version="1.0" encoding="utf-8"?>
<!-- Generator: Adobe Illustrator 25.0.1, SVG Export Plug-In . SVG Version: 6.00 Build 0)  -->
<svg version="1.1" id="Layer_1" xmlns="http://www.w3.org/2000/svg" xmlns:xlink="http://www.w3.org/1999/xlink" x="0px" y="0px"
	 width="27.68px" height="19.02px" viewBox="0 0 27.68 19.02" style="enable-background:new 0 0 27.68 19.02;" xml:space="preserve"
	>
<style type="text/css">
	.st0{fill:#333333;}
</style>
<path class="st0" d="M21.78,8.3c-2.15-2.14-4.33-4.27-7.02-5.73c-1.39-0.76-2.64,1.37-1.24,2.12c1.78,0.97,3.3,2.25,4.75,3.62
	C12.89,9.31,6.86,9.38,1.55,8.6C0,8.37-0.67,10.75,0.89,10.97c5.11,0.75,10.7,0.8,15.96,0.06c-1.65,1.51-3.24,3.08-4.82,4.66
	c-1.12,1.12,0.62,2.86,1.74,1.74c2.48-2.48,4.97-5.04,7.75-7.19C22.14,9.76,22.39,8.92,21.78,8.3z"/>
<path class="st0" d="M27.63,10.08c-1.46-3.95-3.86-7.08-7.08-9.77c-1.21-1.01-2.96,0.72-1.74,1.74c2.4,2,4.35,4.23,5.79,7.03
	c1,1.93-5.09,6.53-6.4,7.84c-1.12,1.12,0.62,2.86,1.74,1.74l7.38-7.38C27.6,10.98,27.78,10.48,27.63,10.08z"/>
</svg>
