<?xml version="1.0" encoding="utf-8"?>
<!-- Generator: Adobe Illustrator 25.0.1, SVG Export Plug-In . SVG Version: 6.00 Build 0)  -->
<svg version="1.1" id="Object" xmlns="http://www.w3.org/2000/svg" xmlns:xlink="http://www.w3.org/1999/xlink" x="0px" y="0px"
	 width="297.15px" height="85.48px" viewBox="0 0 297.15 85.48" style="enable-background:new 0 0 297.15 85.48;"
	 xml:space="preserve">
<style type="text/css">
	.st0{fill:#FD7C97;}
</style>
<path class="st0" d="M282.9,77.22c-0.49-0.16-0.28-0.21-0.71-0.59c-0.28,0.23-0.03,0.39,0.15,0.56c-0.34,0.13-0.68,0.12-1.03,0.06
	c-0.59-0.11-1.18-0.4-1.76-0.53c0,0,0.01,0,0.01-0.01c0.74-0.48,1.55,0.39,2.3-0.14c-0.41-0.07-0.82-0.15-1.24-0.42
	c0.42-0.3,0.89,0.22,1.28-0.63c0.24,0.27-0.14,0.64,0.28,0.88c0.17-0.25,0.36-0.16,0.53-0.43c0.3,0.14,0.08,0.37-0.07,0.59
	c0.23,0.19,0.43-0.23,0.68,0.13c0.06-0.67,0.81-0.39,0.82-1.05c0.63,0.28,0.05,0.76,0.53,1.07c0.42-0.43,1.48-0.16,1.6,0.21
	c0.65-0.54,0.72,0.2,1.34-0.24c0.3,0.36-0.33,0.21-0.4,0.55c0.69,0.35,1.27-0.3,1.94-0.08c0.2-0.41,0.24-0.54,0.22-1.1
	c0.39,0.03,1.07-0.35,1.03-0.93c0.53,0.11-0.22,0.52,0.31,0.63c0.35,0.06,0.63-0.44,1.02-0.12c0.38-0.39,0.06-0.59,0.48-0.69
	c0.42,0.29-0.41,0.87-0.29,1.23c-0.22,0.4-0.62-0.62-0.8,0.07c0.18,0.5,1.06,0.23,1.48-0.22c0.44,0.13,0.2,0.42,0.55,0.57
	c0.51-0.54,1.58-1.35,1.86-0.89c0.22,0.06,0.18-0.25,0.06-0.37c0.4-0.21,0.78-0.47,1.29-0.03c0.19-0.5,0.5-0.3,0.68-0.8
	c-0.42,0.52-1.11-0.48-1.47,0.33c-0.43-0.46,0-0.82-0.86-0.92c0.5-0.95,0.84-0.19,1.02-0.19c0.34-0.68-0.51-0.27-0.6-0.76
	c-0.16,0.42-0.38,0.49-0.66,0.19c-0.22,0.51-0.52,0.3-0.46,0.73c0.41,0.14,0.66-0.25,0.64,0.4c-0.23,0.28-0.59-0.32-0.79,0.12
	c-0.26-0.38,0.2-0.67-0.46-0.69c0.35,0.7-0.49,0.14-0.88,0.24c-0.07-0.1-0.07-0.54,0.09-0.64c-0.37-0.05-1.03-0.44-1.44-0.1
	c-0.55-0.88-1.13-0.08-1.58-0.92c-0.53,0.33-0.4,0.8-1,0.92c-0.14-0.16,0.14-0.42,0.26-0.64c-0.55-0.62-0.97-0.07-1.47-0.26
	c-0.13,0.34-0.01,0.43,0.27,0.41c-0.24,0.63-0.77,0.17-0.7,0.74c-0.05-0.1-0.22-0.68-0.48-0.37c-0.26-0.4,0.01-0.29,0.27-0.63
	c-0.61-0.29-1.14,0.34-1.78-0.4c-0.09,1.23-0.84-0.43-1.25,0.66c0.05-0.73-0.48-0.21-0.6-0.72c0.38-0.15,0.76-0.35,1.2,0.16
	c0.26-1.01,1.34-0.4,2.07,0.02c0-0.35,0.01-0.7,0.43-1.14c-0.93,1.32-3.2-1.11-4.01,1.13c-0.68-0.01-1.35,0.26-2.04-0.03
	c-0.14,0.32-0.04,0.44,0.24,0.43l-0.6,0.76c-0.21,0.1-0.43,0.01-0.65-0.17c0.3-0.4,0.64-0.03,0.93-0.67
	c-0.33-0.27-0.65-0.21-0.98-0.48l-0.4,0.5c-0.17,0.04-0.35,0-0.53-0.06c-0.23-0.25,0.02-0.54,0.28-0.83
	c-0.79-0.13-0.37,1.15-1.24,0.81c-0.08,0.2-0.07,0.39,0.13,0.57c-0.21,0.22-0.42,0.35-0.63,0.29c0.38-1.05-1.27-1.17-1.83-1.56
	c0.61-0.34,2.17,0.21,2.08-0.65c0.63-0.07,1.27,0.27,1.89,0.06c0.03-0.66-0.77-0.12-1.07-0.36c0.48-0.36,0.5-0.1,0.81-0.77
	c0.31,0.97,0.61,0.06,0.89,1.07c0.5-0.47,0.23-0.86,0.04-1.27c0.39-0.24,0.44,0.48,0.67,0.61c0.23-0.31,0.48-0.21,0.7-0.68
	c0.4,0.17,0.15,0.44,0.46,0.62c0.42-0.64,0.27-0.07,0.74,0c0.46-0.43,0.98-0.22,1.43-0.69c0.45,0.2-0.01,0.54,0.17,0.78
	c-0.5,0.27-1.49-0.12-1.33,0.79c0.29,0.03,0.54-0.45,0.81-0.59c0.04,0.15,0.09,0.3,0.25,0.43c0.42-0.58,0.51-0.63,0.94-0.26
	c0.56-0.51-0.15-0.82,0.41-1.34c0.1-0.09,0.21-0.03,0.31-0.17c0.41,0.24,0.09,0.6,0.09,0.91c0.34,0.51,0.57-0.05,0.89,0.29
	c0.2-0.2,0.08-0.33-0.05-0.46c0.6-0.42,1.36,0.51,1.87-0.65c1.2,0.13,2-0.56,3.06,0.01c0.27-0.64,0.68-0.33,1.02-0.52
	c0.03-0.58-0.13-0.66,0.15-1.11c-0.57-0.35-0.55-0.2-0.98-0.66c-0.14,0.62,0.03,0.43-0.28,1.01c-0.44,0.26-0.95-0.04-1.32,0.65
	c-0.33-0.35,0.33-0.93,0.35-1.36c-0.29-0.24-1.02,0.33-1.02-0.35c-0.71-0.02-1.31,0.96-2.1,0.23c0.37-0.44,0.81-0.32,1.18-0.73
	c-0.29-0.04-0.55,0.15-0.88-0.27c-0.05,0.5-0.15,0.52-0.41,0.09c-0.7,0.98-1.62-0.05-2.37,0.36c-0.44-0.17,0-0.46,0.13-0.72
	c-0.31-0.37-0.54,0.09-0.84-0.1c0.22,0.38,0.26,0.8,0.84,1.14c0.04,0.19,0.01,0.38-0.05,0.59c-0.24,0.08-0.49,0-0.73,0
	c-0.14-0.21,0.19-0.49-0.27-0.65c-0.24,0.23-0.17,0.41-0.26,0.62c-0.13,0.12-0.29-0.11-0.41,0.07c-0.29-0.45,0.2-0.3,0.15-0.72
	c0.28-0.35,0.65,0.31,0.91-0.26c-1.61-0.02-3.2,0.16-4.78,0.17c-1.58-0.01-3.16-0.06-4.73-0.32c-0.18,0.96-1.2,0.5-1.4-0.18
	c-0.2,0.51,0.12,0.99-0.09,1.5c-0.58,0.26-0.54-0.67-1.11-0.31c-0.1-0.15,0.1-0.31,0.2-0.47c-0.5-0.12-1.01,0.44-1.51,0.16
	c0.61-1.28-1.19-0.62-1.96-1.58c-0.4,0.22,0.03,0.46,0.18,0.69c-0.8-0.06-0.44-0.18-1.17-0.48c-0.13,0.19,0.25,0.39,0.08,0.58
	c-0.2,0.08-0.4-0.04-0.59-0.24c-0.04,0.23-0.15,0.46-0.42,0.68c-0.45,0.36-0.28-0.61-0.8-0.01c-0.14-0.23-0.04-0.46,0.23-0.69
	c-1.17-0.37-0.97-0.69-2.45-0.41c-0.07-0.2-0.06-0.39,0.13-0.57c-0.95,0.62-1.82-0.09-2.76,0.29c-0.03-0.16-0.07-0.31,0.03-0.46
	c-0.36-0.05-0.74,0.3-1.13,0.74c-0.29-0.25-0.28-0.48,0.05-0.69c-1.2,0.22-2.23-1.22-3.51-0.09c-0.34-0.3,0.13-0.53-0.21-0.83
	c0.21-0.21,0.37,0.21,0.6-0.17c-0.91,0.09-2.12,0.67-3.2,0c-0.2,0.48,0.72,0.45,0.09,0.94c-0.45-0.54-0.82-0.99-1.26-0.87
	c-0.37,0.69,0.39,0.11,0.63,0.44c-0.41,0.46-0.73,0.12-1.09,0.2c0.03-0.38,0.17-0.75,0.32-1.12c-0.98,0.04-1.78,0.79-2.83,0.19
	c-0.06-0.16,0.16-0.29,0.06-0.46c-0.13-0.24-0.3-0.14-0.43-0.41c-0.4,0.39-0.22,0.43-0.66,0.59c0-0.23-0.07-0.48-0.29-0.75
	c-0.5,0.16-0.96-0.06-1.43-0.12c-0.18-0.33,0.35-0.35,0.41-0.16c-0.27-0.76-1.17-0.07-1.53,0.56c-0.45-0.39,0.03-0.62,0.32-0.88
	c-0.66-0.11-1.46,0.73-2.06,0.23c-0.17-0.19,0.25-0.52,0.37-0.3c-0.09-0.4-0.39-0.62-0.8-0.71c0.15-0.01,0.58-0.05,0.25-0.42
	c0.21-0.09,0.34,0.33,0.59-0.12c-0.25-0.47-0.62-0.11-0.9-0.4c0.08,0.33-0.26,0.85-0.55,0.48c-0.13,0.2,0.14,0.13,0.23,0.39
	c-0.41,0.14-0.79,0.12-1.26,0.7c-0.4-0.39,0.3-0.57-0.05-0.95c-0.33,0.32-0.81,0.23-0.89,0.77c-0.77-0.3-1.64-0.77-2.21-0.66
	c-0.05,0.26,0.01,0.55-0.41,0.74c-0.2-0.72,0.39-0.94-0.37-1.25c0.32-0.41,0.52-0.04,0.78-0.07c0.06-0.59-0.88-0.08-1.19-0.37
	c-0.07,0.18,0.06,0.4-0.19,0.55c-0.26-0.3-0.49-0.17-0.63-0.84c-0.4,0.19-0.2,0.51-0.6,0.7c-0.29,0.02-0.38-1.11-1-0.33
	c-0.22-0.28,0.04-0.46-0.26-0.76c0.27-0.26,0.46-0.09,0.67,0.02c-1.2-1.41-3.57-0.81-5.2-1.48c0.03-0.31,0.25-0.57,0.53-0.83
	c-0.31-0.22-0.71,0.08-0.99-0.34c-0.29,0.21-0.24,0.49-0.23,0.77c-0.81-0.16-2.13-1.59-3.2-0.27c-0.18-0.58,0.39-0.33,0.41-0.73
	c-0.59-0.16-0.72-0.15-1.17-0.39c-0.12,0.17-0.05,0.38-0.19,0.55c-0.64,0.08-1.43-1.45-1.91-0.56c-0.17-0.31-0.02-0.56-0.32-0.9
	c-0.3,0.07-0.67,0.54-0.85-0.08c-0.63,1.09-1.53-0.63-2.4,0.04c0.11-0.21-0.26-0.53-0.06-0.72c-0.5,0.14-1.04,0.46-1.36-0.43
	c-0.24,0.26-0.44,0.33-0.63,0.33c0-0.16,0-0.31-0.1-0.49c-0.15,0.34-0.65,0.23-0.37-0.09c-0.35,0.26-0.81,0.08-1.28-0.3
	c0.03,0.51-0.22,0.5-0.56,0.46c-0.07-0.17,0.15-0.28,0.27-0.41c-0.43-0.28-0.93-0.16-1.35-0.44c0.46-0.46,0.46,0.22,0.75-0.41
	c-0.25-0.18-0.5-0.42-0.8-0.31c-0.06-0.21,0.22-0.34,0.38-0.5c0.33,0.09,0.53,0.91,0.99,0.35c-0.43,0.05-0.09-0.82-0.54-0.72
	c-0.02-0.54,0.34-0.5,0.67-0.55c0.11,0.3-0.16,0.51-0.24,0.77c0.3,0.39,0.53-0.16,0.74-0.42c0.31,0.08,0.65-0.05,0.88,0.44
	c-0.66-0.26-0.63,0.61-1.11,0.33c-0.25,0.37,0.55,0.33-0.12,0.68c-0.42,0.29,0.2-0.69-0.21-0.4c-0.57,0.37-0.11,0.25,0.06,0.72
	c-0.13,0.02-0.26,0.05-0.37-0.09c0.32,0.51,1.63,0.12,2.27,0.64c-0.07-0.7,0.37-0.05,0.49-0.59c-0.43-0.07-0.88-0.1-1.37,0.16
	c0.05-1.56,1.47-0.74,2.01-1.07c0.58,0.72-0.17,1.14,0.15,1.8c0.16-0.74,0.57,0.34,1-0.24c-0.3,0.05-1.07-0.39-0.68-0.98
	c0.38,0.86,0.55-0.29,1.17,0.39c0.31,0.43-0.22,0.66,0.09,1.08l0.56-0.46c-0.11-0.18-0.22-0.36-0.1-0.49
	c0.96-0.37,1.78,0.05,2.69-0.09c-0.18-0.6-0.53-0.25-0.76-0.53c0.58-0.27,1.55-0.36,1.61,0.61c-0.23-0.14-0.49-0.09-0.81,0.28
	c-0.18,0.41,0.42,0.24,0.17,0.63c0.6,0.02,1.24-0.78,1.47,0.34c0.3-0.41,0.46-0.08,0.66,0.03c0.03-0.19,0.26-0.33,0.19-0.54
	c0.61,0.54,1.91,0,2.12,0.96c0.41,0.04,0.84-0.07,1.25-0.06c-0.02,0.19-0.09,0.37-0.19,0.54c0.31,0.31,0.32-0.38,0.56-0.46
	c0.31,0.46,0.02,0.79-0.2,1.13c0.39,0.29,0.95,0.15,0.99,0.92c0.2-0.43-0.08-0.96,0.42-1.32c-0.52-0.47-0.38,0.94-1,0.25
	c-0.04-0.48,0.15-0.72,0.53-0.83c0.74-0.06,1.26,1.2,2.02,1.03c0.16,0.69-0.37,0.31-0.67,0.56c0.25,0.39,0.62,0.09,0.96-0.02
	c0-0.16,0-0.31-0.11-0.49c0.27-0.08,0.29,0.33,0.41-0.15c0.44,0.57,1.17-0.5,1.51,0.68c0.14-0.5,0.93-0.42,0.92,0.19
	c0.46-0.92,1.32-0.69,1.84-0.2c0.2-0.11,0.12-0.29,0.26-0.41c0.42,0.48,1.01,0.25,0.88,1.01l0.77-0.66c0.57,0.5-0.31,0.72,0,1.17
	c0.48-0.39,0.86-0.22,1.22,0.12c0.12-0.37,0.56-0.67,0.73-1.03c0.19,0.5-0.58,0.82-0.21,1.36c0.17-1.11,1.35-0.82,1.85-0.23
	c0.51-0.13,0.55-0.83,1.03-0.51c-0.08,0.4-0.5,0.8,0.09,0.72c0.05,0.36-0.26,0.65-0.61,0.93c0.04,0.13,0.11,0.09,0.19,0.04
	l0.15,0.26c0.34-0.25,0.16-0.59,0.51-0.84c0.53-0.26,0.33,0.65,0.8,1.07c0.41-0.39,0.66,0.31,1.04,0.06
	c-0.28-0.71-0.68-0.61-1.09-0.42c0.04-0.27-0.15-0.57-0.35-0.88c0.39,0.18,0.41-0.34,0.82,0.26c0.45-0.16-0.16-0.5,0.28-0.65
	c0.33,0.63,1.22,0.63,1.88,0.9c0.15-0.28-0.5-0.46-0.71-0.35c-0.01-0.91,0.89-0.64,1.28-0.37c0.21,0.59-0.66-0.07-0.43,0.39
	c0.4,0.67,0.42-0.35,0.85,0.03c-0.68,1.02,1.45,0.06,1.94,1.21c0.27-0.44,1-0.61,1.55-1.06c-0.16,1,1.45,0.32,1.71,0.01
	c0.13,0.17,0.25,0.34,0.14,0.48c0.19-0.34,0.54,0.1,0.99-0.36c0.22,0.87,0.65,0.08,1.33-0.09c0.11,0.28-0.15,0.52,0.21,0.83
	c1.22-0.5,1.81,0.14,3.05-0.17c0.12,0.31-0.14,0.56,0.24,0.59c0.08-0.92,0.68-0.34,0.93,0.29c-0.15-0.71,0.5-1.18,1.01-0.86
	c0.13,0.58-0.59-0.04-0.51,0.54c0.14,0.23,0.31,0.12,0.45,0.38c0.16-0.29-0.06-0.58,0.32-0.56c0.1,0.2-0.27,0.37-0.13,0.57
	c0.59,0.34,0.8,0.01,0.79-0.41c0.48-0.17-0.04,0.73,0.44,0.61c-0.03-0.57,0.39-0.73,0.81-0.88c0.14,0.69,0.29,0.02,0.64,0.59
	c0.02-0.5,0.5-0.44,0.77-0.21c0.02,0.27-0.2,0.13-0.12,0.57c0.18-0.72,1.64,0.1,1.47-1.01c0.34,0.33,0.72-0.69,1.05-0.32
	c0.26,0.51-0.32,0.35-0.59,0.91c0.34,0.19,0.7-0.05,1.05,0.14c0.18-1.43,1.46-0.78,1.82-1.06c-0.03,0.44-0.5,0.63-0.68,0.83
	c-0.19-0.15-0.1-0.3,0.01-0.46c-0.41-0.25-0.3,0.36-0.77,0.47c0.63,0.14,0.79-0.03,1.33,0.89c0.39-0.28-0.04-0.53,0.1-0.81
	c0.57,0.82,2.8-0.14,3.64,0.12c0.12-0.07,0.78-0.52,0.46-0.84c0.48-0.55,0.96,0.4,0.94-0.54c0.29,0.28-0.01,0.62,0.03,0.92
	c-0.16,0.13-0.32-0.17-0.49-0.31c-0.29,0.48,0.25,0.71-0.36,0.96c0.49-0.03,0.55-0.37,1.13-0.79c0.03,0.15,0.07,0.3,0.21,0.44
	c0.3-0.42-0.21-0.27-0.12-0.8c0.28-0.24,0.58,0.15,0.85-0.42c-1.48-0.43-2.93-0.34-4.38-0.41c-0.42-0.22,0.23-0.47-0.19-0.68
	c-0.36,0.01-0.25,0.28-0.47,0.59c-0.38-0.45,0.23-0.93,0.56-1.4c0.79,0,1.72,1.05,2.72,0.21c0.28-0.05,0.58,0.4,0.86,0.27
	c-0.28-0.49-0.2-0.43,0.37-0.26c0.32-0.26-0.02-0.46,0.16-0.71c0.74,0.82,0.88,0.13,1.51,0.1c0.28,0.21,0.06,0.45,0.41,0.66
	c-0.07-0.5,0.2-0.86,0.62-0.63c0.28,0.21-0.45,0.5,0.04,0.69c0.11-0.25,0.24-0.16,0.38-0.05c0-0.19,0.09-0.4,0.24-0.61
	c0.83,0.14,1.23,0.17,1.95,0.64c0.07-1,0.65,0.14,1-0.5c0.24,0.4-0.35,0.19-0.42,0.64c0.35-0.08,0.68-0.24,1.05-0.04
	c0.18-0.13,0.31-0.78,0.52-0.54c-0.19-0.58-0.06-0.52,0.36-1.11c-0.7,0.26-1.08-0.43-1.6,0.14c-0.4-0.47,0.19-0.44-0.17-0.79
	c-0.34,0.4-0.34,0.74-0.18,1.07c-0.2,0.2-0.43,0.11-0.63,0.44c-0.09-0.75-0.65-0.28-0.95-0.09c-0.28-0.46,0.36-0.49,0.38-1.1
	c-0.36-0.04-0.36,0.16-0.52,0.54c-0.13-0.17-0.44-0.58-0.98-0.55c0.03,0.3-0.27,0.66-0.5,1c-0.14-0.37-0.03-0.77-0.44-1.11
	c-0.23,0.36-0.5,0.01-0.74,0.06c0.09-0.28-0.15-0.53-0.13-0.79c-0.97,0.3-1.96,0.18-2.94,0.02c-0.53,0.79-1.11-0.21-1.65,0.32
	c-0.98-1.17-2.36,0.78-3.02-0.72c-0.19,0.43-0.37,0.15-0.55,0.48c-0.24-0.43-0.48-0.45-0.72-0.69c0.38-0.27,0.67,0.19,0.83-0.58
	c-0.16,0.62,0.22,0.28,0.54,0.44c0.23-0.5-0.12-0.36-0.36-0.45c0.43-0.57,0.85-0.26,1.27-0.27c0.17,0.22-0.41,0.39-0.54,0.24
	c0.15,0.59,1.09-0.06,1.54,0.07c-0.22-0.43-0.42,0.1-0.64-0.33c0.84,0.12,1.14-0.46,1.9-0.63c0.27,0.26-0.59,0.55-0.08,0.81
	l0.36-0.47c0.8,0.43,1.72-0.07,2.24-0.52c-0.49,0.69,0.36,0.42,0.84,0.5c0.04-0.3,0.25-0.59-0.12-0.57c0.58-0.92,0.75,0.4,1.25-0.33
	c0.28,0.32,0.17,0.68,0.15,1.02c0.26,0.15,0.61-0.65,0.59-0.85c0.35-0.33,1.13,0.59,1.15-0.28c0.16-0.02,0.79,0.21,0.67,0.48
	c0.3-0.6,1.27-0.88,2.14-0.54c-0.45,0.33-0.4,0.22-0.73,0.91c0.33,0.22,0.65,0.34,0.98,0.55c0.25-0.17-0.36-0.77,0.03-0.58
	c0.1-0.62-0.41,0.07-0.55,0.08c-0.15-0.74,0.85-1.38,1.4-0.68c0.61-0.08,1.01-1.69,1.7-1.06l0.29-0.53
	c0.33,0.16,0.05,0.45,0.09,0.68c0.38,0.11,0.61-0.86,1.04-0.45c0.25,0.39-0.3,0.37-0.37,0.66c0.97-0.51,1.82-1.16,2.61-0.5
	c0.29-0.12,0.6-0.11,0.8-0.7c-0.24-0.13-0.32-0.3-0.19-0.53c0.46,0.45,1.26-0.56,2.02-0.11c-0.15,0.35-0.3,0.68-0.55,0.51
	c0.25,0.33,1.2,0.07,1.69-0.01c0.29-0.67-0.31,0.09-0.56-0.43c0.22-0.46,0.59-0.18,0.78-0.72c-0.11-0.16-0.15-0.35-0.03-0.58
	c-0.3-0.23-0.32,0.08-0.44-0.32c0.11-0.07,0.21-0.15,0.29-0.35c0.62,0.68,0.7,0.41,1.34,0.58c-0.16,0.65-0.65-0.11-0.81,0.54
	c0.3,0.34,0.43-0.01,0.73,0.33c-0.28-0.38,0.43-1.02,0.78-1.12c0.12,0.11-0.01,0.32-0.07,0.5c0.36,0.44,0.47-0.13,0.8,0.18
	c0.09-0.27-0.35-0.35-0.34-0.59c0.51-0.61,1.26-0.28,1.8-0.78c-0.15-0.58-0.42,0.25-0.75,0.03c-0.08-0.09-0.06-0.22-0.17-0.3
	c0.5,0.05,0.5-0.41,0.92-0.81c-0.19-0.6-0.55-0.26-0.57,0.33c-0.47-0.14,0.2-0.8-0.34-0.59c0.17-0.43,0.73-0.76,0.16-1.13
	c-0.25,0.09-0.26,0.38,0.06,0.57c-0.08,0.15-0.25-0.02-0.4-0.1c-0.25,0.37-0.09,0.59-0.23,0.92c-0.52,0.17-1.07,0.16-1.48,0.78
	c-0.89-0.89-1.28,0.33-1.97,0.25c-0.16-0.9,0.88-0.67,0.76-1.48c-0.85,0.72-1.58,0.09-2.45,1.25c-0.36-0.41-0.6-0.78-0.9,0.02
	c-0.32-0.42-0.31-1.01,0.02-1.3c-0.2-0.27-0.27,0.13-0.44,0.01c0.24,0.33-0.24,0.85,0.21,1.12c-0.7-0.41-1.14,0.59-1.77,0.62
	c0.7-0.7,1.1-1.33,1.26-1.42c-0.4-0.74-1.17,0.69-1.68,1.07c-0.14-0.57-0.7-0.29-1-0.14c-0.05,0.17,0.16,0.28,0.07,0.45
	c-0.08,0.09-0.17,0.04-0.24,0.17c-0.06-0.18,0.05-0.4-0.17-0.54c-0.71,0.14-1.36,0.75-2.07,1.02c-0.07-0.1-0.03-0.22-0.13-0.32
	c0.73-0.4,0.93-0.85,1.59-1.27c-0.67-0.39-1.2,0.19-1.82,0.04c-0.15,0.46,0.28,0.08,0.39,0.38c-0.11,0.32-0.26,0.28-0.38,0.43
	c-0.43-0.25-0.22-0.89-0.62-0.8c-0.14,0.23-0.03,0.4-0.19,0.62c0.1,0.09,0.16-0.08,0.24-0.17c0.23,0.22,0.29,1.13,0.39,0.38
	c0.58,0.51,0.01,0.91-0.34,0.89c0.39-0.44-0.54-0.3-0.27-0.87c-0.25-0.17-0.39,0.67-0.64,0.55c-0.3-0.4,0.28-0.79,0.52-0.88
	c0.18-0.34-0.28-0.57-0.1-0.91c-0.34-0.24-0.6,0.32-0.95,0.02c-0.04-0.5,0.3-0.4,0.41-0.98c-0.38-0.61-0.6,0.31-0.96-0.21
	c-0.11,0.44,0.4,0.14,0.57,0.61c-0.25,0.02-0.5,0.14-0.77-0.01c0.42,0.41,0.25,0.7,0.2,1.24c-0.08,0.08-0.17,0.02-0.24,0.15
	c-0.4-0.17,0.17-0.48-0.23-0.66c-0.3,0.8-2.35,0.54-2.25-0.37c-0.19,0.46-0.5,0.27-0.46,0.75c-0.47-0.31-0.2-0.67-0.49-1
	c0.44,0.09,0.82-0.43,1.26-0.26c-0.29-0.45-1.26-0.4-1.79-0.16c-0.18-0.21,0.1-0.47-0.21-0.67c-0.34,0.38-0.69,0.81-1.25,0.21
	c-0.02,0.59-0.38,0.54-0.12,1.16c-0.27-0.48-0.56,0.3-1.02-0.15c0.28,0.82-0.68,0.4-0.65,0.98c-0.63-0.32,0.34-0.71-0.11-1.03
	c-0.25,0.47-0.5,0.5-0.76,0.36c-0.04-0.27,0.05-0.54,0.07-0.81c0.87-0.3,1.71,0.01,2.34-0.61c-0.21-0.42-0.38,0.29-0.6-0.3
	c-1.05,1.43-2.2-0.62-3.28,0.48c-0.54-0.56-1.29-0.53-1.98-0.5c-0.69,0.02-1.32-0.02-1.56-0.63c-0.34-0.1-0.67-0.11-1.01-0.26
	c-0.2,0.87-0.77,0.23-1.2,0.43c-0.02-0.19,0.12-0.38-0.06-0.58c-0.05,0.6-0.66,0.61-0.6,0.1c-0.97,0.65-1.86-0.44-2.82-0.08
	c0.25,0.34-0.24,0.52-0.39,0.67c-0.14-0.28,0.39-0.51,0.31-0.79c-0.76-0.63-1.59,0.09-2.41,0.04c0.09-0.86-0.87-1.01-1.09-0.47
	c-0.13-0.44-0.33-0.17-0.47-0.52c-0.55,1.2-2.13-0.73-3.24,0.19c-0.63-1.38-2.26,0.51-2.72-0.86c0.24,0.17,0.52,0.02,0.79,0
	c-0.12-0.66-1.09,0.11-1.73-0.25c-0.27-0.16-1.17-1.02-1.29-0.34c-0.21,0.24-0.3-0.41-0.46-0.55c-0.67,0.35-1.23-0.16-1.91,0.25
	c-0.65-0.55-2.24-0.72-3.37-0.99c-3.72-1.04-7.43-2.08-11.15-3.12c-3.8-1.05-7.61-2.04-11.43-2.96c-7.63-1.9-15.3-3.57-22.99-5.22
	c-15.38-3.23-30.86-6.07-46.34-9.12c-0.21-0.33,0.07-0.54,0.26-0.76c2.14,1.32,4.74,0.49,6.9,1.7c0.26-0.42,0.37-0.33,0.75-0.38
	c0.05,0.24-0.17,0.06-0.34,0.26c0.31,0.36,0.85-0.38,1.08,0.3c0.33-0.22,0.07-0.62,0.37-0.85c0.76,1.34,2.39,1.35,3.79,1.05
	c0.99,0.42,1.95,1,3.11,0.61c0.1,0.14,0.09,0.26,0.02,0.36c1.74-0.28,3.84,1.07,5.06,0.43c0.19,0.37-0.06,0.42,0.27,0.55
	c0.12-0.13-0.03-0.32-0.09-0.5c1.91,1.22,3.82,0.17,5.78,1.55c0.33-0.7,1.24,0.23,1.74,0.34c0.84,0.18,1.58-0.44,1.85,0.25
	c0.83-0.32,1.56-0.19,2.17,0.57c0.45-0.12-0.13-0.51,0.32-0.63c0.13-0.24,0.5,0.5,0.27,0.54c0.6-0.48,0.98,0.17,1.54-0.07
	c0.16,0.2,0.04,0.33-0.09,0.45c0.75-0.45,1.31,0.11,2.01-0.06c-0.09,0.87,0.03,0.1,0.45,0.59c0.06-0.29,0.33-0.5,0.56-0.44
	c-0.03,0.19,0.03,0.41,0.16,0.63c0.59-0.75,1.26,0.61,2.3-0.12c0.12,0.23,0.09,0.42-0.02,0.58c1.11-0.03,3.57,0.77,3.93,0.28
	c0.57,0,0.97,0.87,1.67,0.19c0.4,0.65,1.25,1.16,1.58,0.64c3.35,1.17,6.58,1.23,10.06,2.38c0.2-0.11,0.13-0.28,0.27-0.41
	c0.22,0.39,0.34,0.29,0.71,0.76c2.02-0.32,4.44,1.58,6.83,0.95c0.14,0.23,0.01,0.4,0.17,0.63c0.87,0.07,1.78-0.06,2.58,0.38
	c0.02-0.33-0.02-1.35,0.83-1.46c0.16,0.5-0.09,0.73,0.38,1.03c0.07,0.38-0.62,0.7-0.7,0.19c-0.43,0.48,0.47,0.92,0.5,0.35
	c1,1.1,2.37,0.11,3.36,1.25c0.39-0.73,1.12-0.31,1.52,0.47c0.22-0.11,0.15-0.28,0.08-0.45c0.96,0.6,2.05,0.53,3,1.16
	c0.12-0.17,0.05-0.38,0.19-0.54c1.41,0.7,3.6,0.35,4.52,1.62c0.1-0.09,0-0.23-0.03-0.36c1.57,0.54,3.28,0.51,4.75,1.51
	c1.21-0.29,3.03,0.59,4.42,0.92c0.37-0.2,0.01-0.54,0.38-0.74c0.13-0.03,0.25-0.06,0.35,0.07c-0.52,1.19,1,0.78,1.44,1.22
	c0.25-0.59-0.38-0.19-0.46-0.56c-0.09-0.51,0.45-0.27,0.59-0.35c0.38,1.58,1.68,0.89,2.45,1.63c0.37-0.21,0-0.54,0.37-0.75
	c0.13-0.08,0.21,0.19,0.34,0.06c0.07,0.21-0.2,0.36-0.34,0.53c0.22,0.34,0.48,0.38,0.79,0.02c0.04-0.23-0.23-0.51,0.09-0.68
	c-0.14-0.26-0.37,0.11-0.49-0.32c0.35-0.42,0.55,0.26,0.92-0.31c0.2,0.72,0.53,0.45,0.8,0.61c0,0.58-0.55-0.22-0.82,0.21
	c0.46,0.86-0.28,0.25-0.51,0.5c0.73,0.96,0.77,0.01,1.5,0.73c0.18-0.2-0.18-0.5-0.08-0.72c0.1-0.09,0.17,0.08,0.24,0.16
	c0.17-0.28,0.1-0.41-0.12-0.49c0.51-0.57,0.92-0.24,1.42-0.82c0.23,0.27,0.38,0.31,0.26,0.73c0.37,0.05,0.85-0.85,1.17-0.41
	c0.17,0.26-0.32,0.42-0.42,0.64c0.25,0.36,0.55-0.19,0.49-0.51c0.3-0.31,0.46,0.54,0.75,0.23c0.07,0.24-0.25,0.43,0.09,0.71
	c0.48-0.82,1.8-0.84,1.73,0.02c0.37-0.03,0.7,0.41,1.13-0.22c0.38,0.97,1.15-0.04,1.29,0.84c0.55-1.34,1.51,0.92,2.3-0.1
	c0.67,0.35,1.39,0.04,2.06,0.5c0.21,0.34-0.43,0.01-0.03,0.46c1.18-0.99,2.21,0.58,3.34-0.05c-0.13-0.22-0.27-0.11-0.4-0.36
	c-0.06-0.16,0.12-0.31,0.02-0.46c0.49,0.12,0.96,0.69,1.46,0.73c0.09-0.29-0.13-0.23-0.24-0.35c-0.14-0.42,0.37,0.1,0.5-0.45
	c0.02,0.31,0.1,0.43,0.32,0.47c0.44-1.3,1.31,0.5,1.97-0.44c0.29,0.3,0.29,0.61,0,0.92c0.21,0.41,0.43-0.02,0.65,0.21
	c0.08-0.19-0.14-0.38-0.25-0.57c0.22-0.49,0.43-0.37,0.65-0.47c0.12,0.23,0.05,0.46-0.16,0.69c0.57-0.46,1.14-0.07,1.71-0.15
	c0.1,0.23-0.18,0.46,0.18,0.69c0.31-1.17,2.03-0.5,2.56-1.08c0.21,0.55,0.84,0.35,0.36,0.9c0.35,0.09,0.37-0.22,0.37-0.61
	c0.33-0.1,0.49,1.06,0.92,0.51c-0.19-0.38-0.32,0.02-0.5-0.19c0.1-0.12,0.11-0.24,0.06-0.35c0.81,0,1.66,0.56,2.38-0.49
	c0.03,0.64,0.09,0.55,0.41,1.1c0.22-0.38-0.14-0.67-0.32-0.99c0.34-0.99,0.89,0.44,1.24-0.4c0.53,0.35-0.12,0.86,0.2,1.24
	c0.25-0.45,0.05-0.85,0.12-1.28c0.26-0.45,0.36,0.4,0.5,0.16c0.1,0.18-0.09,0.4-0.18,0.6c0.3,0.12,0.7-0.27,0.5-0.64
	c0.65,0.69,0.55-0.01,1.05,0.75c0.46-0.56,0.53-0.39,1.1-0.23c0.03-0.31-0.3-0.56,0.04-0.94l-0.46-0.49
	c-0.28,0.04-0.06,0.62-0.46,0.1c-0.14,0.18-0.05,0.32,0.06,0.45c-0.47,0.1-1.98,0.57-1.82-0.61c-0.18-0.24-0.28,0.39-0.42,0.52
	c-0.32-0.43-0.14-0.83,0.13-1.05c-0.18-0.12-0.96,0.05-0.58,0.54c-0.32,0.23-0.7-0.23-0.99,0.48c-0.17-0.25,0.28-0.58,0.17-0.83
	c-0.31-0.42-1.03,0.58-0.9-0.45c-0.22-0.24-0.25,0.39-0.12,0.48c-0.28,0.06-0.57,0.08-0.88-0.24c-0.06,0.2,0.04,0.38-0.04,0.58
	c-0.17,0.21-0.38-0.06-0.55,0.15c-0.03-0.19,0-0.38,0.04-0.58c-0.66,0.52-1.35,0.52-2.04,0.38c-0.2-0.31,0.24-0.06,0.3-0.48
	c-0.25-0.31-0.46,0.22-0.72-0.29c-0.48,0.68-0.55-0.95-1.03-0.27c0.16,0.1,0.32,0.1,0.47,0.19c-0.19,0.62-0.42-0.1-0.62,0.5
	c-0.21-0.19-0.05-0.38,0.07-0.57c-0.13-0.04-0.26,0.15-0.4-0.11c-0.11,0.79-1.5,0.36-2.14,0.15c-0.02-0.08-0.03-0.13-0.02-0.16
	c-0.92,0.14-1.84,0.15-2.77-0.2c-0.08-0.19,0.14-0.38,0.25-0.57c-0.33-0.59-0.6,0.2-0.57,0.56c-0.48,0.12,0.01-0.68-0.46-0.94
	c-0.45,0.25,0.3,0.55,0.06,0.81c-0.67-0.06-1.37,0.63-2-0.18c-0.27,0.81-0.57,0.4-1.01,0.62c-0.29-0.25-0.07-0.47-0.29-0.72
	c-0.54,0.45-1.06,0.29-1.57,0.23c-0.09-0.44,0.44-0.26,0.59-0.3c-0.31-0.5-0.95-0.21-1.41,0.24c-0.29-0.29,0.1-0.53-0.19-0.82
	c0.25-0.37,0.58-0.04,0.61-0.53c-1.01-0.1-1.72,0.13-2.69,0.66c-0.43-0.4,0.35-0.65,0.01-1.04c-0.88-0.03-1.78,0.01-2.59-0.75
	c-0.51,0.69-0.76,0.02-1-0.15c-0.19,0.21,0.07,0.48-0.24,0.66c-0.57-0.85-2.22,0.17-2.19-0.9c-1.04,0-2.45-0.96-3.3-0.43
	c-0.45-0.74-1.08-0.13-1.5-1.08c-0.46,0.59-0.74-0.05-1.22,0.59c-0.28-0.29-0.03-0.48-0.25-0.75c-2-0.41-4.05-0.51-5.99-1.68
	c-0.08,0.23-0.26,0.42-0.14,0.52c-1.57-0.73-3.19-1.37-4.95-1.28c-0.46,0.2-0.74-0.73-1.17-0.73c-0.1,0.13,0.07,0.33-0.08,0.45
	c-0.49-0.35-1.13-0.79-1.98-0.45l-0.42-0.8c-1.95,0.19-3.71-0.65-5.49-1.39c-0.08,0.1-0.04,0.23-0.15,0.32
	c-3.11-1.22-6.4-1.41-9.54-2.48c-0.61,0.6-2.69-0.56-4.08-0.87c-0.75-0.17-1.42,0.13-1.87-0.57l-0.45,0.36
	c-0.22-0.92-1.23,0.03-1.72-0.89c-1.66,0.46-3.68-1.03-5.61-0.8l-0.28-0.54c-2.47,0.24-4.61-1.28-7.09-0.97
	c-0.89-0.95-2.13-0.07-3.02-1c-0.73,0.52-1.18-0.43-1.89-0.02c-1.59-0.88-3.34-1.03-5.09-1.1c-3.69-1.13-7.61-1.14-11.3-2.3
	l-0.45,0.35c-0.18,0.07-0.13-0.23-0.02-0.36c-2.06-0.1-3.49-0.51-5.59-0.57L168,15.43c-0.39-0.02-0.31,0.79-0.81,0.25
	c-0.05-0.24,0.17-0.06,0.34-0.26c-0.22-0.2-0.63-0.19-0.7,0.16c-14.76-3.4-29.49-4.56-44.37-7.38l-0.35,0.26
	c-1.93-0.82-4.18-0.2-6.04-1.34c-0.38,0.05-0.84,0.73-0.77,0.01c-0.35,0.26-1.22,0.28-1.67-0.27l-0.46,0.34
	c-0.69-0.22-1.35-0.56-2.15-0.29c-3.24-1.37-6.95-0.74-10.05-2.71l-0.46,0.33c-0.44-0.68-1.46-0.77-1.85-0.33
	c-0.13-0.24,0.01-0.4-0.14-0.64c-0.42,0.78-0.62,0.18-0.83-0.14c-1.02,0.48-2.04,0.03-3.21-0.27c-0.12-0.24-0.08-0.42,0.04-0.59
	c-0.25-0.18-0.48,0.72-0.89,0.09c-0.11,0.09-0.01,0.24,0.01,0.36c-0.32,0.13-0.49-0.36-0.89,0.09c-0.15-0.21-0.03-0.33,0.11-0.44
	c-0.38,0.22-1.05,0.39-1.59,0.22c-0.13-0.64,0.37-0.22,0.7-0.5c-1.22,0.25-2.37,0.21-3.55,0.33l-0.32-0.7
	c0.2-0.48-0.31,0.21,0.08,0.5c-0.49,0.34-0.86,0.25-1.36,0.3c-0.14,0.01-0.29,0.04-0.46,0.08c0-0.11-0.04-0.19-0.09-0.26
	c-0.17-0.26-0.51-0.3-0.11-0.52c-0.27-0.26-0.44,0.58-0.9-0.28c-0.51,0.34,0.13,0.42,0.25,0.55c0,0,0,0,0.01,0
	c-0.77,0.42-1.28-0.3-2.07,0.19c-0.05-0.18,0.16-0.27,0.28-0.39c-0.15-0.18-0.42,0.14-0.49-0.39c0.03,0.67-0.37,0.16-0.81,0.59
	c-1.39-1.27-3.66,0.62-4.78-1.01c-0.18,0.32-0.41,0.48-0.66,0.55c-0.47,0.13-1.01-0.04-1.41,0c0.06-0.26,0.19-0.33,0.35-0.32
	c0.27,0.01,0.63,0.21,0.89-0.01c-0.1-0.26-0.28-0.19-0.37-0.48c0.59-0.16,1.26-0.67,1.82-0.74c-0.3,1.16,1.36,0.36,1.67,0.28
	c-0.01-0.01-0.02-0.01-0.02-0.02c-0.53-0.47-1.34-0.68-2.16-0.65C77.12,0.04,76.5,0.2,76,0.52c-0.05-0.22,0.24-0.32,0.4-0.47
	c-0.59-0.01-1.76-0.31-2,0.69c-0.39,0.12-0.13-0.5-0.32-0.7c-0.96,0.35-1.57,0.31-2.47,0.56c-0.22,0.06-0.45,0.13-0.72,0.24
	C69.5,0.45,68.1,0.1,66.44,0.86c-0.78-0.38-2.21-0.19-2.9,0.4c-1.67-0.93-5.32,1.11-7.28-1.12c0.26,1.58-1.53,0.44-1.68,1.75
	c-0.46-0.24-1.26,0.94-1.55-0.01c-2.21,0.74-4.15,0.33-5.8-1.25c-0.33,0.29-0.67,0.58-0.63,1c-0.33,0.05-0.59-0.22-0.79-0.73
	c-0.4,0.44-0.61,0.12-0.89,0.07c-0.26,0.58-0.49,0.43-0.81,0.94c0.11,0.35,0.41-0.08,0.54,0.17c-1.37,0.46-3.35-0.06-4.56-1.58
	c-0.36,0.77-0.92,0.82-1.47,0.49c-1.5,1.36-3.17,1.87-4.77,2.07L33.46,2.2c0,0.77-0.93,0.33-1.41,0.62c0-0.16-0.01-0.32,0.11-0.44
	c-1.12-0.03-2.17-0.13-3.21,0.22c-0.24,0.08-0.47,0.18-0.71,0.32c-1.43-0.13-3.36-0.26-4.75,0.75c-0.91-0.37-2.93,0.5-3.79,0.82
	c-1.46,0.53-2.74,0.92-3.95,1.85c0.35,0.1,0.27,0.49,0.38,0.84c-0.33,0.28-0.5-0.06-0.83,0.21c0.4,0.34,0.69-0.03,0.85,0.51
	c0.62-0.66,1.15,0.65,1.49-0.12c0.26-0.16,0.31,0.56,0.49,0.76c0.62-0.01,1.21,0.08,1.79,0.22c-0.65,0.41-0.9,0.37-1.82,1.09
	c2.23,0.29,5.22,0.89,8.04,0.07c0.27-0.07,0.48,0.16,0.67,0.45c0.06-0.18,0.06-0.38,0.05-0.58c0.27,0.08,0.59-0.02,0.89-0.07
	c0.17,1.13,1.58-0.24,2.24-0.84c0.18,0.46-0.29,0.7-0.63,0.99c0.28-0.07,0.6,0.36,0.49,0.76c-0.56,0.36-0.55-0.09-1,0.52
	c0.13,0.4,0.6-0.59,0.66,0.09c0.38-0.12,0.22-0.41,0.52-0.55c0.13-0.01,0.26-0.02,0.36,0.12c-0.09,0.37-0.56,0.62-0.63,1
	c-0.11,0.04-0.18-0.06-0.3,0.02c0.36-0.63-0.53-0.31-0.9-0.29c-0.13-0.24,0.01-0.4-0.14-0.64c-0.88,0.12-1.28,1.24-2.05,1.26
	c0.02-0.44,0.79-0.63,1.11-0.96c-0.32-0.11-1.07-0.06-1,0.52c-0.79-0.63-1.9,0.08-2.91,0.38c0.46,0.5,1.22-0.22,1.84-0.37
	c-0.57,0.99-1.73,1.02-2.2,0.25c-0.84,0.4-1.67,0.72-2.26,0.11c-2.52,0.91-4.57-0.13-7.02,0.5c0.35,0.68,0.93,0.42,1.22,1.35
	c0.57-0.07,1.08,0.1,1.45,0.83c0.21-0.09,0.14-0.27,0.29-0.39c0.21,0.86,0.78,0.27,1.09,0.71c0.12,0.32-0.16,0.51-0.46,0.69
	c0.37,0.59,0.99,0.19,1.44,0.46c0.31,0.38-0.3,0.46-0.1,0.81c0.63,0.54,1.21-0.21,2.08-0.17c0.1,0.68-0.95,0.89-1.34,1.12
	c0.15,0.06,0.27,0.23,0.37,0.48c0.11-0.08,0.01-0.23-0.01-0.36c0.43-0.18,0.53,0.36,0.83-0.21c0.13,0.24-0.01,0.4,0.13,0.64
	c0.7-0.21,1.28,0.08,1.86,0.36c0.29-0.23,0.36-0.52,0.22-0.89c0.25-0.24,0.46-0.29,0.65-0.27c0.09,0.51,0.05,0.98,0.03,1.45
	c-0.76-0.07-2.05,0.49-2.47,1.36c-1.18-0.06-2.39-0.05-3.42-0.74c0.08,0.98-0.69,0.44-1.13,0.24c-0.02-0.51,0.47,0.16,0.71-0.13
	c-0.36-0.63-1.08,0.2-1.6,0.2c-0.28-0.4,0.34-0.49-0.13-0.64c-0.28,0.73-1.53,0.4-2.15,0.03c-0.7,0.55-1.26,0.05-2.08,0.17
	c-0.24,0.74,0.62,0.35,0.84,0.51c-0.73,0.27-2.45,0.69-3.41-0.38c-0.97,0.72-3.39-0.93-4.03,0.98c-0.61-0.45-1.08,0.47-1.55-0.02
	c0.07-0.39,0.42-0.16,0.46-0.69C2.12,20.47,0.43,21.22,0,22.73c0.27,0.44,0.8,0.96,0.51,1.49c0.67,0.74,1.93,0.92,1.84,2.4
	c0.5-0.52,1.11-0.08,1.35-0.76c-0.09-0.15-0.27,0.03-0.42,0.11c-0.08-0.48,0.11-0.28,0.41-0.47c0.14,0.5,0.35,0.68,0.61,0.68
	c0.2,0.34,0.04,0.58-0.28,0.75c0.22,0.15,0.46,0.1,0.53-0.19c0.39,0.97,1.83,0.61,2.81,0.43c0.78,1.31,2.16,0.16,3.39-0.35
	l0.13,0.28c-0.69,1.08-1.72,0.85-2.41,1.5c0.11,0.37,0.35,0.15,0.43,0.62c1.83-0.81,2.69-0.1,4.4-0.5c0.03,0.13-0.05,0.22,0.01,0.36
	c-0.58-0.01-1.53,0.31-1.95,0.81c0.16,0.41,0.5,0.08,0.67,0.45c0-0.5,0.27-0.55,0.53-0.19c-0.01-0.32,0.06-0.62,0.22-0.89
	c0.47,0.41,1.75,0.33,1.71-0.65c0.3-0.29-0.06,0.73,0.37,0.48c0.01,0.24-0.41,0.13-0.34,0.61c0.35,0.18,0.87-0.59,0.81-0.94
	c0.28-0.09,0.07,0.65,0.26,0.92c0.56-0.18,0.32-0.62,0.69-0.86c0.29-0.19,0.23,0.44,0.07,0.5c0.33,0.32,0.4-0.41,0.52-0.55
	c0.1,0.08,0.41,0.47,0.38,0.84c-0.31,0.35-0.49,0.16-0.77,0.35c0.45,0.55,0.87-0.19,0.94-0.66c0.67,0.07,1.26,0.19,1.89-0.59
	c0.4,0.45-0.19,0.58-0.04,0.95c-0.41,0.08-0.79,0.05-1.19,0.1c0.24,0.56,0.13,1-0.33,1.33c0.18,0.3,0.46,0.1,0.53-0.19
	c-0.08,0.55,0.42,0.16,0.38,0.84c0.64-0.46,1.1-0.31,1.79-0.15c0.06,0.36-0.61,0.44-0.66-0.09c-0.11,0.04-0.08,0.13-0.06,0.22
	l-0.23,0.16c0.26,0.51,0.73,0.21,1.14,0.13c0.08,0.5-0.23,0.89-0.15,1.39c0.3-0.42,0.26-0.2,0.7-0.49c0.28,0.37,0.11,0.6,0.26,0.92
	c0.27-0.11,0.27-0.32,0.4-0.47c0.2,0.3-0.08,0.46,0.2,0.78c0.61-0.1,1.14,0.13,1.68,0.3c0.13,0.57-0.28,0.22-0.64,0.63
	c0.2,0.38,0.64-0.21,0.78,0.37c0.04-0.19,0.28-0.31,0.22-0.53c1.23,0.81,2.82,0.13,4.08,0.83c0.13-0.12-0.02-0.33-0.07-0.5
	c0.28-0.22,0.56-0.42,0.77-0.36c-0.05,1.87,1.89,0.04,2.58,0.59c-0.59,1.53-1.47,0.81-2.36,1.29c0.31,0.47,0.95-0.19,0.91,0.65
	l0.7-0.49c0.18,0.26,0.09,0.43,0.14,0.64c-0.24-0.09-0.6,0.34-0.78-0.01c0.02,0.54-0.29,0.22-0.46,0.69c0.21,1,1.12-0.87,1.32,0.18
	c0.55-0.5,1.12-1,1.63-1.52c0.29,0.41,0.03,0.65-0.22,0.89c0.17,0.66,0.57,0.33,0.85,0.51c0.01-0.32,0.16-0.59,0.58-0.78
	c-0.15-0.18-0.42,0.14-0.49-0.4c0.37-0.18,0.67-0.08,0.9,0.29l1.06-0.74c0,0.7-0.29,0.48,0.32,0.7c0.36,0.43-0.34,0.53-0.04,0.95
	c0.38-1.05,0.8-0.57,1.58-1.29c0.5,0.34,1.05,0.51,1.52,0.97c0.66-0.94,1.23-0.99,1.99-1.4c0.34,0.43-0.44,0.5-0.4,0.83
	c0.85,0.15,2.02-1.13,2.58-1.81c-0.8-0.51-1.38,0.91-2,1.04c-0.12-0.24-0.08-0.42,0.04-0.58c-0.19-0.28-0.7,0.32-0.52,0.55
	c-0.57-1.1-2.64,1.15-3.41-0.37c0.92-1.13,2.33-0.8,3.21-0.41c0.92-1.39,2.18-0.9,3.38-0.72c-0.48,0.59-0.78,1.04-1.03,1.83
	c0.36-0.4,0.54-0.11,0.89-0.44c0.54,1.44,1.27-0.34,1.82,0.94c0.97-0.29,0.66-0.22,1.54-0.35c-0.2-0.27,0.13-0.36,0.04-0.59
	c0.28-0.09,0.49,0.11,0.83-0.22c0.32,0.54-0.25,0.66-0.52,0.55c-0.03,0.53,1.16,0.19,1.24-0.32c0.35,0.15,0.82-0.19,1.03,0.57
	c0.5,0.21,1.29-0.79,1.72-0.29c0.19,0.74-0.5,1.2-0.91,1.75c0.68,0.11,1.16-0.74,2.02-0.32c0.23,0.53,0.03,0.58,0.44,0.62
	c0.39-0.33-0.53-0.32-0.14-0.64c-0.26-0.12-0.52-0.27-0.84-0.15c-0.01-0.61,0.06-0.53-0.44-0.62c-0.06-0.18,0.16-0.27,0.29-0.39
	c0.29-0.13,0.34,0.74,0.62,0.67c0.04-0.19,0.28-0.31,0.22-0.53c0.35-0.09,0.6,0.23,0.9,0.29c0.07,0.34-0.05,0.43-0.29,0.39
	c-0.2,0.06-0.04-0.21-0.19-0.42c-0.12,0.32-0.33,0.61-0.15,1.03c1.64-1.42,2.84-1.02,4.26-1.52c0.1,0.19,0.2,0.38,0.07,0.5
	c0.18-0.33,1.26-0.7,1.89-0.6c-0.05,0.6-1.1,0.62-1.11,0.97c-0.15-0.57-0.43-0.36-0.12,0.08c1.14-0.25,2.13-0.26,2.93-0.03
	c0.13,0.84-1.07,0.23-1.22,1.05c0.36,0.07,0.42,0.34,0.71-0.13c1.07,0.92,3.6-0.23,4.9-0.14c0.2,0.38-0.84,0.37-0.39,0.84
	c0.3-0.59,0.8-0.64,1.24-0.69c-0.25-0.19-0.48-0.45-0.79-0.37c-0.03-0.13,0.05-0.22-0.01-0.36c0.64-0.25,1,0.72,1.73,0.07
	c0.13,0.24-0.01,0.4,0.14,0.64c0.55-0.4,0.89,0.08,1.37-0.05c0.11,0.23,0.08,0.42-0.04,0.59c0.17,0.23,0.5-0.21,0.61,0.31
	c0.22-0.09,0.17-0.27,0.11-0.45c1.66,0.57,2.84,0.67,4.57,0.83c0.08,0.27-0.05,0.46-0.34,0.61c0.26,0.13,0.6-0.05,0.84,0.14
	c0.5-0.16-0.06-0.66,0.39-0.84c0.32,0.58,0.79,0.51,1.32,0.17c0.2,0.31-0.07,0.46,0.21,0.78c0.22-0.21,0.05-0.54,0.27-0.75
	c0.37,0.78,0.43,0.06,1.14,0.11c0.2,0.3-0.07,0.46,0.2,0.78c0.11-0.16,0.16-0.35,0.04-0.59c0.65-0.17,1.73,0.93,1.55,1.68
	c0.95-0.18-0.55-0.86,0.13-1.4c0.31,0.1,0.15,0.38,0.5,0.75c0.52-0.32,0.94,0.25,1.3-0.55c0.4,0.1,0.87,0.15,0.87,0.87l0.58-0.42
	c-0.2-0.69-0.22,0.44-0.43-0.25c0.43-0.77,1.64,0.2,2.56-0.16c-0.23,0.41-0.23,0.81-0.69,0.86c0.5,0.8,0.93-0.65,1.59-0.58
	c0.26,0.83,0.83,0.32,1.32,0.16c0.37,0.77,0.96,0.62,1.52,0.58c0.02,0.52-0.52,0.04-0.76,0.36c0.11,0.39-0.4,0.6-0.33,0.98
	c0.64-0.53,1.39-0.45,2-1.06c0.1,0.25,0.36,0.12,0.67,0.44c0.06,0.71-1.12-0.18-0.57,0.78c-0.38,0.37-0.52-0.29-0.9,0.09
	c0.16,0.61,1.12-0.1,0.92,0.64c0.38-0.32,0.67-0.06,1.25-0.33c-0.22,0.91,0.52,0.16,0.87,0.86c0.7-0.51,1.2-0.16,1.84-0.39
	c0.11-0.46-0.28-0.92-0.62-0.67c0.22-0.77,0.93-0.1,1.26,0.03c0.01,0.37-0.31,0.66-0.45,0.7c-0.01,0.38,0.25,0.47,0.16,1
	c0.24-1,0.59-0.12,1.23-0.7c-0.08-0.65-0.45-0.04-0.56-0.53c0.32,0.03,0.71-0.29,0.91,0.28c0.04,0.24-0.18,0.05-0.35,0.25
	c0.08,0.26,0.37,0.22,0.19,0.42c0.27,0.44,0.28-0.7,0.48,0.03c-0.01-0.4-0.11-0.83,0.26-1.12c0.44,0.12-0.05,0.39,0.21,0.78
	c0.3-0.19,0.27-0.48,0.27-0.75c0.16,0.01,0.27,0.23,0.48,0.03c0.37,0.63-0.49,0.89-0.24,1.48c0.16-0.27,0.39-0.52,0.39-0.84
	c0.42-0.41,0.49,0.67,0.96,0.05c0.28,0.37,0.12,0.59,0.27,0.92c0.5-0.34,0.83,0.06,1.21,0.25c0.39-0.72,1.02-0.31,1.49-0.15
	c0.2,0.3-0.57,0.31-0.15,0.67c0.55-0.58,0.94-0.11,1.56-0.01c0.43-0.15-0.06-0.57,0.27-0.76c0.56,0.02-0.04,0.69,0.34,1.06
	c0.25,0.04,0.37-0.05,0.47-0.34c0.63,1.5,1.98-0.15,2.73,0.82c0.47-0.67,0.65-0.49,1.35-0.79c0.17,0.03,0.19,0.52,0.56,0.53
	c-0.02,0.59-0.61,0.15-0.88,0.45c0.49,0.51,1.01,0.16,1.49-0.15c0.41,0.32,0.15,0.53,0.34,1.06c0.4-0.06,0.54,0.33,0.83-0.23
	l0.26,0.55c-0.03-0.65,0.99-0.63,1.21,0.24c0.46-0.74,0.64-0.32,1.08-0.03c0.46-0.3-0.01-0.14-0.08-0.5
	c0.28-0.23,0.43,0.11,0.66,0.08c0.24,0.63,0,0.57-0.2,0.89c0.39,0.11,0.76,0.36,1,1.14c-0.12,0.12-0.22,0.12-0.3,0.03
	c-0.03,0.44,0.86,0.45,1.22,0.6c-0.89-0.59-0.57-1.27-1.45-1.74c1.06-0.72,0.84,0.94,1.54,0.93c0.08-0.5-0.5-1.18-0.31-1.64
	c0.16,0.5,0.8,0.59,0.89,1.22c0.35-0.41,0.46-0.9,0.78-1.32c-0.27,0.78,0.2,0.85,0.48,1.33c0.12,0.35-0.51,0.48-0.2,0.9
	c0.23-0.32,0.32-0.3,0.38-0.84c0.25,0.04,0.5,0.55,0.42-0.12c0.27,0.08,0.48,0.47,0.69,0.8c-0.06,0.35-0.84-0.19-0.81,0.6
	c0.57-0.27,2.98-0.65,2.3,0.56c0.27,0.12,0.66-0.34,0.84,0.13c0.61-0.96,1.41,0.14,2.31-0.75c0.01,0.79,0.67,0.46,0.34,1.06
	c0.28,0.26,0.36-0.52,0.81-0.6c0.69,0.25,1.32,0.76,2.17,0.28c-0.05,0.65,0.59,0.63,0.73,0.22c0.14,0.67,0.5,0.36,0.7,0.8
	c-0.01-0.39-0.15-0.43-0.17-1c0.37,0.03,0.68,0.59,0.76,0.94c0.46,0.24,0.38-0.6,0.91,0.26c0.08-0.18-0.03-0.4,0.22-0.53
	c-0.43,0.04-0.79-0.24-1.11-0.68c0.67,0.2,1.32,0.45,2.01,0.58c0.03,0.13-0.05,0.22,0.02,0.36c-0.35,0.13-0.83-0.49-1.01,0.19
	c0.41,0.48,1.01-0.31,1.53,0.56c0.16-0.13,0.32-0.26,0.41-0.12c0.12-0.17,0.15-0.35,0.03-0.59c0.48-0.28,0.79,0.24,1.26,0.01
	c0.28,0.32,0.01,0.48,0.22,0.78c0.41-0.19-0.08-0.62,0.4-0.48c0.28,0.39-0.33,0.5,0.15,0.64c0.29-0.11,0.04-0.39,0.21-0.53
	c1.15,1.73,3.14,0.84,4.17,1.79c0.11,0.27-0.35,0.37-0.33,0.62c0.47,0.36,1.21-0.52,1.53,0.56c0.11-0.17,0.15-0.35,0.03-0.59
	c0.27-0.35,0.39-0.03,0.64-0.29c0.2,0.25-0.04,0.39-0.21,0.53c0.21,0.37,0.56,0.1,0.8,0.35c0.12-0.12-0.02-0.32-0.09-0.5
	c0.27-0.33,0.37,0.1,0.6-0.07c-0.01,0.2-0.2,0.34-0.03,0.59l0.46-0.34c0.21,0.3-0.07,0.46,0.22,0.78c0.92,0.06,1.85,0.12,2.72,0.41
	l-0.2-0.41c0.24,0.08,0.6-0.36,0.78-0.02c0.2,0.25-0.04,0.39-0.21,0.54c0.48,0.41,1.57,0.08,1.86-0.08
	c0.05,0.51,0.25,0.67,0.68,0.43c-0.38-0.56,0.04-0.46,0.33-0.62c-0.88,0-1.11-0.74-2.08-0.7c-0.14,0.19,0.07,0.11,0.13,0.28
	c-0.29,0.45-0.3-0.38-0.6,0.07c-0.18-0.63-0.21-0.49-0.54-1.1c0.97,0.76,2.62,0.19,3.24,1.15c0.08-0.1,0.05-0.23,0.16-0.31
	c0.4-0.14-0.17,0.41,0.15,0.64c0.75-0.77,1.18-0.07,1.7,0.24c0.28-0.58,0.65-0.43,1.01-0.19c-0.22,0.42-0.64,0.77-0.47,1.29
	c-0.3,0.07-0.73-0.23-0.83,0.24c0.37,0.02,0.36,0.12,0.45,0.6c0.25-0.47,0.47-0.29,0.63-0.66c0.34-0.09,0.56,0.42,0.96,0.03
	c0.2,0.92,1.11,0.69,1.83,0.51c-0.12,0.69,0.22,0.72,0.8,0.34c0.03,0.21-0.01,0.4-0.21,0.54c0.54,0.48,1.32-0.12,1.88,0.29
	c0.21-0.18-0.14-0.52,0.14-0.67c0.25-0.26,0.24,0.67,0.55,0.15c0.12,0.23,0.09,0.42-0.03,0.59c0.27,0.18,0.1-0.63,0.53-0.21
	c0.19,0.29,0.23,0.54,0.04,0.72c0.53-0.21,1.25,0.61,1.56-0.05c0.21,0.29-0.06,0.46,0.23,0.77c0.14-0.7,0.5,0.02,0.48,0.01
	c0.67,0.07,1.05-0.77,1.63,0.09c0.25-0.63,0.95-0.12,1.38-0.1c-0.01,0.2-0.19,0.34-0.03,0.59c0.43-0.66,0.74,0.16,1.36-0.46
	c0.24-0.44-0.36-0.72-0.57-0.51c-0.15-0.14,0.52-0.41,0.64-0.3c0.28-0.49-0.39-0.24-0.5-0.37c-0.06-0.21,0.23-0.33,0.39-0.49
	c0.16-0.02,0.39,0.84,0.92,0.25c0.19,0.33,0.35,0.65,0.11,0.86c0.25,0.49,0.71-0.02,0.94,0.61c0.14-0.28,0.12-0.69,0.51-0.58
	c-0.37,0.78-1.18,1.2-1.96,1.49c0.29,0.16,0.54,0.49,0.82,0.7c0.18-0.19,0.31-0.64,0.53-0.21c0.13-0.16,0.06-0.38,0.21-0.54
	c0.47-0.2,0.18,0.33,0.52,0.74c0.11-0.97,1.76-0.67,1.77,0.36c0.11-0.56,0.39,0.1,0.76-0.39c-0.22-0.48-0.65,0.01-0.87-0.48
	c0.09-0.42,0.8,0.19,1.1,0.3c0.08-0.22,0.22-0.42,0.51-0.58c0.27-0.2,0.15,0.41-0.09,0.45c0.29,0.26,0.45-0.5,0.25-0.76
	c-0.25,0.11-0.4-0.23-0.71,0.16c-0.04-0.25-0.01-0.48-0.05-0.73c0.5-0.21,0.78,0.59,1.28,0.35c0.01,0.46-0.88,1.1-0.28,1.35
	c0.01-0.64,0.19-0.28,0.58-0.44c-0.07,0.68-0.37,0.22,0.23,0.77c0.12-0.43,0.18-0.57,0.62-0.66c-0.01,0.9,0.75-0.13,1.01,0.74
	c-1.14-0.15-2.14,0.33-3.28-0.52c0.31,0.88-0.91,0.13-0.9,1.06c0.11,0.26,0.28,0.18,0.39,0.46c0.31-0.69,0.98,0.05,1.06,0.52
	c-0.14-0.72,0.54-0.48,0.35-1.21c0.24,0.1,0.56-0.2,0.74,0.2c0.12,0.41-0.73-0.23-0.21,0.54c-0.29,0.45-0.31-0.38-0.6,0.07
	c0.14,0.24,0,0.4,0.16,0.64c0.68-0.61,0.72,0.02,0.76,0.56c0.19-0.94,1.25-0.03,1.86-0.1c0.28-0.38,0.03-0.3-0.16-0.64
	c0.76-0.61,1.64,0.36,2.09-0.28c0.32,0.36-0.15,0.51-0.07,0.81c-0.5-0.1-1.02-0.07-1.47-0.39c-0.23,0.26-0.29,0.56-0.18,0.9
	c0.17-0.2,0.27-0.06,0.37,0.1c0.07-0.14,0.15-0.28,0.09-0.45c0.38,0.81,1.9,0.47,2.35-0.1c-0.45,1.09,0.56,0.72,0.65,1.59
	c0.19-0.16,0.35-0.13,0.48,0.01c0.29-0.57-0.39-0.22-0.46-0.59c-0.07-0.51,0.52-0.69,1.12-1.24c0.31,0.73-0.51,0.55-0.6,1.03
	c0.38,0.55,0.37,0.04,0.9-0.12c-0.11-0.3,0.05-0.54,0.07-0.81c0.25-0.12,0.36,0.46,0.67,0.06c-0.31-0.56-0.9,0.29-1.13-0.65
	c-0.55,0.35-1.1,0.63-1.54,0.43c-0.11-0.32,0.45-0.08,0.6-0.08c0.21-0.3-0.21-0.47-0.33-0.26c0.39-1.94,2.71,0.45,4.24,0.09
	c-0.11-0.19-0.21-0.37-0.09-0.5c-0.15-0.39-0.5,0.24-0.62-0.28c0.01-0.33,0.82-0.56,0.97,0.02c-0.09-0.58,0.83-1.1,1.05-0.44
	c0.09,0.15-0.64,0.35-0.78,0.03c0,0.7-0.32,0.61-0.53,1.17c0.35,0.36,0.2,0.49,0.6,0.87c-0.71,0.08-1.01-0.47-1.98,0.19
	c0.29,0.63-0.13,0.53,0.37,1.05c0.06-0.38-0.22-0.85,0.41-1.08c0.62,0.15,1.18,0.54,1.84,0.48c-0.19-0.29-0.23-0.53-0.05-0.72
	c-0.25-0.18-0.53-0.26-0.8-0.33c0.08-0.31,0.47-0.43,0.69-0.53c0.16,0.2,0.04,0.33-0.09,0.45c0.47,0.44,0.26-0.61,0.83-0.26
	c-0.03,0.35-0.32,0.63-0.3,0.99c0.81-0.69,1.9,0.47,2.76-0.23c0.08,0.3-0.2,0.5,0.12,0.86c0.39-0.17,0.67,0.22,1.13-0.3
	c-0.2-0.29-0.25-0.53-0.24-0.77c0.48-0.16,0.87,0.16,1.38-0.12c0.13,0.5-0.55,1.23-0.87,0.49c0.15,0.39-0.27,0.64-0.11,1.04
	c0.53-0.71,0.89-0.29,1.77-0.62c-0.12-0.52-0.47,0.11-0.62-0.28c0.12-0.55,0.56,0.04,0.94-0.35c0.14,0.23,0.01,0.4,0.17,0.63
	c0.43-1.17,1.07,0.3,1.68-0.17c0.11,0.9-0.82,0.43-0.96,0.94c0.07,0.13,0.2,0,0.3-0.04c0.37,0.33-0.32,0.39,0.05,0.72
	c0.39-0.27,0.82,0.23,0.76-0.4c0.41-0.42,0.57,0.38,0.92,0.23c0.02,0.32-0.23,0.7-0.46,0.36c-0.07,0.8,1.31-0.34,1.2,0.78l0.68-0.54
	c-0.2-0.25-0.11-0.42-0.17-0.63c0.41-0.18,0.34,0.25,0.47,0.59c0.73-0.76,1.13,0.23,2.06,0.87c0.66-0.5,1.7,0.72,2.63,0.42
	c0.11-0.53-0.37-0.22-0.58-0.5c0.24-0.57,1.13-0.21,1.56-0.08c0.05,0.6-0.58-0.14-0.57,0.45c0.24,0.33,0.44,0.55,0.42,0.81
	c0.26-0.17,0.79-0.76,1.18-1.12c0.45-0.06,0.22,0.67,0.5,0.95c0.21,0.13,1.03-0.39,0.81,0.31c0.83-0.45,1.51-0.11,2.19,0.18
	c0.36,0.44-0.47,0.59-0.1,1.04c0.59-0.21-0.03-0.72,0.47-0.95c0.48-0.24,0.35,0.68,0.57,1.08c0.29-0.17,0.47,0.21,0.74,0.18
	c-0.13,0.29-0.1,0.61,0.2,0.99c0.04-0.17,0.2-0.46,0.34-0.27c0.28-0.27-0.28-0.11-0.28-0.54c0.32-0.35,0.5,0.08,0.74,0.18
	c0.25-0.25-0.28-0.49-0.4-0.45c0.02-0.27,0.16-0.51,0.24-0.77c0.36,0.06,0.3,0.48,0.6-0.09c0.31,0.61-0.17,0.38-0.24,0.77
	c0.33,0.4,0.39-0.18,0.57-0.45c0.47-0.08,0.85,0.3,1.3,0.31c-0.03,0.35-0.39,0.61-0.47,0.95c0.38,0.27,0.61,1.25,1.17,0.99
	c0.24,0.78,0.26,1.17,1.09,1.44c-0.2-0.29-0.52-0.38-0.43-0.81c0.34-0.26,0.59-0.03,0.86,0.09c0.22-0.18-0.05-0.48,0.31-0.63
	c-0.37-0.03-0.94-0.81-1.11-0.27c-0.01-0.28-0.06-0.57,0.24-0.77c0.33,0.02,0.11,0.69,0.67,0.04c0.37,0.32-0.31,0.4,0.06,0.72
	c0.05-0.7,0.55-0.56,0.9-0.14c0.31-0.37-0.03-0.56-0.29-0.54c0.2-0.18,0.33-0.03,0.53-0.23c0.06,0.29,0.56,0.69,0.32,0.9
	c0.15,0.1,0.9-0.44,0.63,0.27c0.27,0.28,0.65-0.9,1.05-0.45c0.06,0.21-0.23,0.34-0.38,0.5c0.45,0.18,1.19,1.01,1.48,0.35
	c0.15-0.06,0.77,0.28,0.29,0.53c0.83,0.09,2.02-0.39,2.53-1.66c0.22,0.01,0.42,0.18,0.67,0.04c0.3,0.46-0.46,0.68-0.02,1.17
	c-0.52,0.35-0.47,0.04-0.74-0.17c-0.5,0.28-0.66,0.63-0.39,1.09c0.11-0.09,0-0.23-0.03-0.36c0.32-0.15,0.65-0.36,0.86,0.08
	c0.16,0.37-0.29-0.03-0.45,0.37c0.16,0.53,0.55-0.2,0.7,0.4c0.36-1.06,1.25-0.06,1.82,0.65c0.37-0.34,0.76-1.06,0.13-1.27
	c0.05,0.62-0.3,0.33-0.6,0.1c-0.06-0.22,0.19-0.17,0.3-0.05c-0.06-0.55-1.09-0.39-1.52-0.7c1.63-0.45,3.81,0.66,5.69,0.6
	c0.07,0.17-0.14,0.28-0.27,0.41c0.22,0.22,0.45,0.37,0.78-0.06c0.03,0.76,0.36,0.18,0.66,0.62c0.23,0.32-0.7,0.39-0.23,0.77
	c0.46-0.67,0.58-0.19,1.23,0.17c0.38-0.51,0.79-0.81,1.15,0.03c0.4-0.45,0.65-0.01,1.05-0.46c0.73,1.78,2.73,0.99,4.33,2.12
	c0.04-0.51,0.54-0.84,0.61-0.1c0.43-0.18,0.37-0.47,0.42-0.73c0.14-0.02,0.27-0.05,0.38,0.08c-0.1,0.33-0.04,0.7-0.46,0.96
	c0.48,0.56,0.3-0.92,0.81-0.07c0.28-0.78,0.41-0.46,0.96-0.39c0.15,0.31-0.12,0.52-0.42,0.73c1.02-0.43,2.35,0.39,3.23-0.86
	c0.49-0.16,0.44,0.21,0.74,0.38c0.22,0.39-0.36,0.64-0.07,1.04c0.4-0.24,0.38-0.55,0.34-0.87c0.46,0.21,0.39-0.18,0.86-0.31
	c0.2,0.66-0.55,1.31-1,1.22c0.18,0.21,0.05,0.36-0.04,0.23c0.57,0.78,1.41,1.66,2.64,0.61c0.31,0.37-0.55,0.52-0.14,0.91
	c0.44-0.58,1.31,0.33,1.98,0.37c0.22-0.16,0.14-0.37,0.39-0.52c0.01,0.2-0.18,0.36,0.01,0.59c0.37,0.02,0.14-0.14,0.47-0.39
	c0.06,0.16-0.18,0.28-0.07,0.46c0.37,0.54,0.87,0.21,0.87-0.32c0.08,0.17,0.17,0.21,0.29,0.16c0.08,0.17-0.14,0.29-0.27,0.42
	c0.94,0.18,2.31,1.25,3.03,0.49c0.84,0.77,0.71-0.11,1.2,0.41c0.64-0.83,0.95-0.64,1.71-1.05c-0.2-0.33-0.46-0.24-0.68-0.44
	c0.36-0.36,0.59,0.28,0.94,0.01c0.09,0.17-0.14,0.29-0.26,0.43c0.65,0.14,1.24,0.69,1.89,0.83c0.09,0.17-0.14,0.29-0.26,0.43
	c0.3,0.09,0.6,0.3,0.95,0.01c0.45-1.19,2.4,0.73,3.51,0.02c-1.21-0.32-2.45-0.5-3.62-0.96c0.44-0.24,0.83,0.06,1.25,0.14
	c0.22-0.53-0.54-0.18-0.7-0.42l0.7-0.62c0.18,0.21,0.05,0.39,0.25,0.6c0.91-0.21,0.97-1.28,1.98-0.73c0.05,0.41-0.74,0.42-1.02,0.71
	c0.01,0.27,0.24,0.56,0.02,0.81c0.23-0.15,0.88-1.51,1.68-0.88c0.14,0.25,0.01,0.47-0.28,0.67c0.4,0.45,0.91-0.91,1.54-0.54
	c0.41,0.35-0.35,0.58,0.13,0.94c0.12-0.07,0.07-0.15,0.02-0.23c0-0.31,0.57,0,0.48-0.65c0.18,0.12,0.89,0.31,0.78-0.3
	c0.24,0.11,0.52-0.16,0.74,0.16c-0.01,0.42-0.79,0.8-0.64,1.23c0.28-0.12,0.67-0.28,1.01-0.52c0.29,0.25,0,0.46,0.38,0.72
	c0.66-0.12,1.29,0.08,1.94,0.11c0.21,0.29-0.42,0.12-0.58,0.55c0.82,0.4,1.08-1.18,1.86-0.24c0.22-0.09,0.48-0.72,0.69-0.44
	c0.27-0.32-0.34-0.04-0.41-0.47l0.35-0.34c0.63,0.45,1.32,0,1.95,0.49c0.01,0.59-0.91,0.65-1.21,0.1c-0.31,0.28-0.61,0.48-0.91,0.45
	c0.36-0.03,1.19,0.83,1.77,0.03c0.43,0.35-0.15,0.69,0.28,1.04c0.46-0.82,1.76-0.74,2.8-0.78c0.25,0.42-0.35,0.13-0.46,0.46
	c0.47-0.01,0.25,0.39,0.65,0.7c0.6-0.33,1.2-0.06,1.81-0.5c0.83,0.68,0.83-0.19,2.04-1c-0.49,0.09-0.98,0.38-1.46,0.17
	c-0.24,0.16-0.13,0.31-0.01,0.46c-0.3,0.18-0.61,0.19-0.9,0.03c-0.26-0.19,0.36-0.32,0.46-0.25c-0.15-0.37-1.25-1.36-1.78-0.64
	c-0.35-0.69-1.57-0.65-2.3-0.37c-0.25-0.34-0.11-0.62-0.54-0.12c-1.1-0.78-2.23-0.93-3.35-0.66c0-0.79-1.16-0.24-0.8-0.97
	c-0.19,0.23-0.54,0.18-0.99,0.29c0.16,0.23,0.35,0.12,0.51,0.38c-0.22,0.1-0.44,0.09-0.66,0.19c-0.07-0.2-0.06-0.39,0.15-0.57
	c-0.26-0.39-0.56-0.13-0.82-0.51c-0.21,0.14-0.11,0.3-0.25,0.45c-0.22-0.35-0.45-0.64-0.74-0.16c-0.16-0.18-0.32-0.51-0.51-0.38
	c-0.28-0.25,0.58-0.43,0.06-0.69c-0.49,0.89-2.27,0.3-2.61-0.35c-0.35-0.3-0.16,0.34-0.46,0.42c-0.11,0.06-0.21-0.02-0.32,0.09
	c-0.37-0.31-0.08-0.55-0.44-0.86c-0.74,0.65-2.04-0.08-2.98-0.44c-0.29,0.4-0.51,0.24-0.78,0.47c0.46,0.57,0.45-0.36,0.93,0.01
	c-0.29,0.33-0.21,0.24,0.01,0.81c-0.74,0.66-1.28,0.18-1.4-0.42c0.32-0.38,0.48,0.6,0.82,0.11c-0.46-0.07-0.6-0.76-0.19-1.07
	c-0.64-0.08-1.25-0.5-1.89-0.6c0.26-0.61,0.14-0.36-0.32-0.74c0.36-0.11,0.67,0.12,0.96,0.59c0.21-0.2-0.21-0.49,0.08-0.69
	c-0.39,0.12-0.72-0.28-1.1-0.27c-0.29,0.27,0.06,0.63,0.29,0.97c-0.59,0.08-1.12-0.34-1.77,0.11c-0.12,0.29,0.05,0.63-0.12,0.91
	c-0.63,0.09,0.06-0.59-0.4-0.87c-0.08-0.24,0.18-0.07,0.34-0.3c-0.49-0.87-1.86-0.58-2.43-1.56c-0.9,0.6-1.62-0.02-2.41-0.17
	c-0.19-0.63,0.61-0.42,0.76-1.04c-0.54-0.55-0.85,0.64-0.84-0.49c-0.23,0.35-0.29,0.73-0.17,1.14c-0.72,0.15-1.39-0.1-2.03-0.5
	c-0.34,0.84-0.96,0.38-1.43,0.2c-0.07-0.17,0.14-0.29,0.27-0.42c0.18-0.09,0.3,0.25,0.43,0.43c0.15-0.09,0.19-0.2,0.15-0.32
	l0.23-0.19c-0.31-0.36-0.77,0.25-1.01-0.54c0.27-0.26,0.46,0.07,0.7,0.02c0.21-0.59-0.53-0.4-0.71-0.6
	c0.78-0.84-0.72-0.31-1.17-0.81c-0.02,0.36-0.24,1-0.64,0.93c0.35-0.53-0.16-0.63-0.09-1.31c-0.12,0.13-0.22,0.13-0.3,0.05
	c0.08,0.67-0.55,0.46-0.76,1.02c-0.25-0.14-0.95-0.96-1.6-0.45c-0.29-0.38,0.07-0.61,0.15-0.91c-0.49-0.4-0.98-0.54-1.22-0.95
	l-0.46,0.37l0.3,0.53c0.46-0.57,0.68,0.25,1.03,0.33c-0.53,0.4-0.85-0.41-1.37-0.05c0.24-1.38-0.94-0.8-1.58-1.63
	c0.25,0.21,0.59-0.05,0.82,0.3c0.12-0.56-0.68-0.52-0.97-0.57c-0.14,0.29-0.15,0.59-0.34,0.87c-0.54,0.06-0.16-0.65-0.33-0.9
	c-0.17,0.21-0.27,0.07-0.38-0.08c-0.13,0.71-0.58,0.61-0.94-0.21c0.16,0.81-0.18,0.22-0.72,0.78c-0.43-0.75,0.76-0.41,0.2-1.13
	c-0.3,0.8-0.62,0.5-0.95,0.97c-0.37-0.63,0.63-0.42,0.54-0.82c-0.45-0.11-0.55-0.12-0.94,0.38c-0.34-0.58,0.35-0.2,0.31-0.64
	c-0.67-0.98-1.08-0.1-1.93,0.03c-0.17-0.31-0.02-0.55-0.32-0.9c-0.5,0.43-0.81-0.16-1.26,0.06c-0.07-0.33,0.18-0.59,0.16-0.9
	c0.01-0.02,0.03-0.02,0.04-0.03c0.14-0.12,0.23-0.01,0.37-0.11c0.02,0.02,0.03,0.05,0.05,0.07c0.16,0.25-0.14,0.4-0.17,0.61
	c0.58,0.01,0.82-0.35,1.45-0.02c-0.37-0.27-0.7-0.77-1.14-0.61c0,0,0,0,0-0.01c-0.24-0.37,0.51,0.08,0.27-0.4
	c0.08,0.07,0.17,0.12,0.26,0.16c0.26,0.13,0.54,0.18,0.81,0.29c0.06,0.02,0.12,0.04,0.18,0.08c0.11-0.13-0.07-0.33,0.08-0.45
	c0.39-0.16,0.05,0.44,0.36,0.66c0,0,0,0.01,0.01,0.01c0.01-0.01,0.01-0.01,0.02-0.01c0.15-0.12,0.28-0.12,0.4-0.04
	c0.02,0.02,0.04,0.03,0.06,0.05c0-0.02,0.01-0.03,0.01-0.05c0.21-0.95,0.57-0.2,1-0.04c0.09,0.03,0.18,0.04,0.27,0
	c0.07-0.03,0.14-0.08,0.22-0.17c0.05,0.06,0.07,0.12,0.08,0.17c0.07,0.29-0.2,0.52,0.18,0.59c0.15-0.18,0.18-0.38,0.2-0.58
	c0.02-0.26,0.02-0.52,0.22-0.74c-0.02-0.04-0.04-0.07-0.06-0.09c-0.02-0.02-0.04-0.04-0.06-0.06c-0.19-0.12-0.42,0.05-0.58-0.24
	c-0.12,0.13,0.04,0.32,0.11,0.49c-0.38,0.33-0.64-0.05-0.93-0.21c0.01-0.42,0.33-0.13,0.49-0.6c0.3,0,0.57,0.16,0.87,0.12
	c0.09-0.01,0.19-0.04,0.29-0.1c0.19,0.25,0.04,0.47,0.06,0.61c0.01,0.07,0.05,0.12,0.2,0.15c0.04-0.08,0.09-0.14,0.14-0.2
	c0.2-0.26,0.45-0.39,0.71-0.43c0.94-0.15,2.17,0.78,3.08,0.9c0.01,0.31-0.47,0.53-0.34,0.87h0c-0.56-0.21-1.11-0.46-1.65-0.69
	c-0.18-0.07-0.35-0.14-0.53-0.21c-0.18-0.06-0.36-0.12-0.54-0.17c0.13,0.27,0.32,0.37,0.36,0.49c0.03,0.09-0.02,0.19-0.21,0.36
	c0.33-0.02,0.66-0.06,0.97-0.02c0.03,0.32-0.36,0.55,0.03,0.94c0.4-0.59,0.46-0.35,0.9-0.15c0.32,0.34-0.17,0.51,0.15,0.85
	c0.63,0.33,1.55,0.07,2.01-0.29c-0.04,0.19,0.14,0.42,0,0.59c-0.32,0.26,0.06-0.59-0.38-0.08c0.5,0.56,1.13,0.28,1.63,0.81
	l0.79-0.66c0.14,0.34,0.11,0.65,0.42,1.03c0.51-0.69-0.13-0.8-0.2-1.21c0.41-0.33,0.57,0.92,1.03,0.32c0.38,0.54-0.53,0.84-0.03,1.4
	c0.11-0.1-0.01-0.24-0.04-0.36c0.8-0.26,1.48,0.24,2.2,0.53c0.46-0.42-0.08-1.03-0.44-1.02c0.39-0.15,0.91-1.17,1.18-0.59
	c0.11,0.46-0.42,0.06-0.38,0.51c0.11,0.54,0.43-0.21,0.54,0.33c0.28-0.4,0.05-0.6,0.6-0.7c0.19,0.27,0.16,0.5-0.1,0.68
	c0.47,0.56,0.6-0.83,1.03-0.27c0.1,0.37-0.62,0.58-0.25,1c0.4-0.2,0.33-0.49,0.6-0.71c0.14-0.03,0.27-0.06,0.39,0.06
	c-0.03,0.37-0.58,0.29-0.52,0.85c0.5,0.03,0.34,0.37,0.77,0.94c0.86,0.57,1.91,0.14,2.58,0.19c-0.66,0.73,1.51,0.74,2.17,1.15
	c-0.12,0.6-0.92-0.21-1.37,0.38c0.73,0.7,1.6-0.42,2.09,0.41c0.12-0.14-0.06-0.32-0.14-0.48c0.34-0.51,0.54,0.03,0.86-0.35
	c0.62,1.23,1.74,0.3,2.1,1.21c0.97-0.4,1.48,0.27,2.31-0.43c-0.37-0.07-0.1-0.17-0.36-0.5c1.19-0.63,1.39,0.69,1.38,1.64
	c0.3-0.43,0.13-0.91,0.34-1.36c0.43,0.18,0.88,0.16,1.29,0.48c0.12,0.3-0.46,0.23-0.71,0.45c0.28-0.01,1.5,0.6,1.77,0.47
	c0.23,0.13,0.18,0.75-0.04,0.46c-0.03,0.56,0.41,0.05,0.62,0.05c0.12-0.15-0.08-0.31-0.17-0.47c0.85,0.01,2.09,1.47,3.29,0.89
	l0.49,0.61c0.22-0.21,0.41,0.19,0.65-0.19c0.84,1.29,1.84,0.06,2.71,1.23c0.99-0.58,1.94-0.12,2.89,0.61
	c-0.6,0.36-0.64,0.61-1.11,0.91c1.09-0.02,2.2-0.81,2.73-0.12c-0.02-0.98,0.77-1.47,0.48-2.55c0.54,0.11,1.08,0.39,1.63,0.51
	c-0.05-1.02-1.99-0.3-1.94-1.54c0.22-0.28,0.43,0.34,0.64,0.44c0.06-0.47,0.41-0.37,0.77-0.42c0.19-0.03,0.38-0.09,0.53-0.32
	c-0.05,0.29-0.09,0.58,0.12,0.86c0.07,0.09,0.17,0.18,0.31,0.27c-0.02-0.25,0.04-0.41,0.16-0.55c0.14-0.17,0.35-0.31,0.6-0.52
	c0.01,0.01,0.02,0.02,0.02,0.03c0.34,0.42,0.95,0.93,0.95,0.28c0.18,0.13,0.24,0.29,0.29,0.42c0.04,0.1,0.08,0.18,0.18,0.21
	c0.05,0.02,0.11,0.03,0.19,0.02c0.23,0.41-0.04,0.31-0.32,0.6c0.47,0.08,0.96,0.13,1.43-0.24c0.39,0.35-0.38,0.8,0.03,1.15
	c0.19-0.2,0.32-1.14,0.76-0.65c0.06-0.27,0.32-0.57-0.13-0.8c0.53-0.27,0.53-0.23,0.67-0.64c0.02-0.07,0.05-0.14,0.08-0.24
	c0.09-0.19,0.2-0.09,0.3,0.04c0.13,0.16,0.26,0.35,0.37,0.13c0.23-0.23,0.17-0.34,0.03-0.41c-0.15-0.08-0.41-0.12-0.5-0.24
	c0.23-0.1,0.46,0.06,0.69,0.01c0.06-0.01,0.12-0.03,0.19-0.09c0.24,0.28-0.43,0.66,0.04,0.92c0.11-0.51,0.77-0.29,0.56,0.06
	c0.55-0.84,1.51-0.7,2.44-0.2c0.12,0.06,0.23,0.13,0.35,0.2C282.64,77.81,282.89,77.5,282.9,77.22z M291.5,74.86
	c-0.09,0.21,0,0.39-0.26,0.64c-0.22-0.2-0.39-0.04-0.6-0.21C290.89,74.88,291.14,74.53,291.5,74.86z M288.58,75.29
	c0.27,0.75,0.44-0.16,0.91,0.03C289.66,76.04,287.93,76.11,288.58,75.29z M285.6,74.71c0.38,0.26,0.04,0.81,0.62,0.71
	c-0.68,0.94-0.94-0.44-1.6-0.44C284.91,74.42,285.33,75.4,285.6,74.71z M281.77,73.46c0.06,0.59,0.45,0.15,0.63-0.33
	c0.43,0.59-0.6,1.57-1.12,1.22C281.25,73.91,281.54,73.56,281.77,73.46z M287.45,69.24c0.2,0.31,0.8-0.35,0.69,0.31
	C287.83,69.51,287.22,69.98,287.45,69.24z M286.75,69.75c-0.26-0.61-0.34-0.06-0.77-0.18c0.15-0.22-0.27-0.34-0.16-0.55
	c0.52-0.03,0.43,0.41,0.83-0.17l0.35,0.27C286.92,69.32,287,69.5,286.75,69.75z M287.21,67.2c-0.7,0.07-1.35,0.61-2.07,0.42
	C285.73,66.95,286.85,66.83,287.21,67.2z M285.65,68.46c-0.29,0.62-0.66,0.52-1.04,0.16C284.95,68.51,285.26,68.03,285.65,68.46z
	 M281.8,68.94l0.33,0.29c-0.21,0.5-0.47,0.26-0.72,0.23L281.8,68.94z M217.02,53.06c-0.37-0.4,0.27-0.99,0.49-0.59
	C217.21,52.63,217.4,52.91,217.02,53.06z M272.87,60.06c0.18,0.3-0.43,0.75-0.57,0.48C272.29,60.37,272.62,59.55,272.87,60.06z
	 M294.11,47.44c0.42,0.61,0.42-0.56,0.85,0.05c-0.15,0.7-0.94,0.76-1.03,0.38C294.15,47.94,293.99,47.66,294.11,47.44z
	 M282.02,47.98c-0.31,0.65-0.64,0.13-0.69,0.1C281.55,48.01,281.75,47.6,282.02,47.98z M271.81,52.85c-0.25,0.34-0.96,0.61-0.9,0.02
	C271.2,52.89,271.5,52.49,271.81,52.85z M270.23,45.29c-0.28,0.47-0.57,0.21-0.84,0.02C269.41,44.86,269.95,44.85,270.23,45.29z
	 M262.92,59.62c0.28,0.09,1.07-0.03,1.02,0.42C263.65,60.03,262.86,60.19,262.92,59.62z M271.44,60.22l-0.38-0.45
	c0.19-0.3,0.38-0.42,0.57-0.25C271.21,59.77,271.87,59.98,271.44,60.22z M271.63,57.45c0.16,0.53-0.53,0.56-0.19,0.93
	c-0.19,0.2-0.38,0.32-0.56,0.25C271.3,58.24,271.02,57.15,271.63,57.45z M268.28,57.04c0.34,0.94,0.34-0.1,0.54,0.7
	c0.48-0.15,1.44-0.71,1.59-0.14c-0.08-0.07-0.59,0.05-0.38,0.24c0.32-0.15,0.62-0.09,0.94,0.2c-0.25,0.42-0.5,0.14-0.75-0.21
	c-0.29,0.35-0.83,0.2-0.86,0.83c-0.6-0.5-1.36,0.59-1.68-0.5c-0.07,0.69-0.72,0.66-1.04,0.32
	C267.56,58.36,267.42,57.54,268.28,57.04z M267.93,45.63c-0.33-0.31-0.69,0.14-1.02-0.49C267.21,44.86,267.93,45.08,267.93,45.63z
	 M264.22,56.47c0.24,0.06,0.33,0.18,0.35,0.48c0.67-0.55,1.29,0.29,1.96-0.3c0.29,0.29-0.06,1.01,0.45,0.36
	c0.31,0.34,0.3,1.27-0.22,0.92c0.11-0.15,0.2-0.3,0.02-0.46c-0.11,1.31-1.19,0.88-1.83,1.23l-0.44-0.59
	c-0.38,0.04-0.79,0.69-1.14,0.16c0.21-0.72,1.07-0.78,1.53-0.61c-0.09-0.17,0.05-0.2,0.2-0.23c-0.31-0.05-0.6-0.53-0.91-0.49
	c-0.5,0.63-1,1.09-1.43,0.48c0.75,0.06,0.58-0.46,0.88-0.75C263.63,57.26,264.01,56.91,264.22,56.47z M263.62,44.2
	c-0.34,0.46-0.63-0.06-0.93-0.18C263.02,43.67,263.32,43.9,263.62,44.2z M261.65,57.34c0.21,0.5,0.46,0.52,0.74,0.05l0.26,0.36
	c-0.49,0.38-0.94,0.1-1.41,0.02L261.65,57.34z M260.96,44.13c-0.04,0.47-0.55,0.56-0.8,0.29C260.22,43.84,260.7,44.02,260.96,44.13z
	 M260.62,57.39c-0.33,0.25-0.61-0.15-0.91-0.29C260.05,56.76,260.35,56.89,260.62,57.39z M257.77,56.78
	c0.33,0.48,0.73,0.27,1.11,0.12c-0.12-0.4-0.12-0.79,0.28-1.13c0.26,0.2,0.53,0.27,0.78,0.65c-0.31,0.37-0.56,0.03-0.88,0.5
	c0.12,0.48,0.85,0.3,0.87,0.77c-0.15-0.11-0.3-0.1-0.48,0.08l-0.42-0.62c-0.67,0.48-0.79-0.02-1.52,0.3
	C257.73,57.23,257.43,56.97,257.77,56.78z M256.56,56.76c0.38,0.3,0.39-0.44,0.84-0.03C257.14,57.18,256.41,57.39,256.56,56.76z
	 M255.64,43.34c-0.25-0.15-0.56,0.25-0.77-0.23C255.16,42.36,255.99,43.5,255.64,43.34z M254.52,56.54
	c-0.44,0.03-0.85-0.24-1.26-0.41C253.7,55.69,254.81,55.7,254.52,56.54z M253.18,56c-0.3,0.19-0.58,0.17-0.87,0.23
	C252.51,55.78,252.83,55.69,253.18,56z M250.97,58.71c0.26,0.44,0.67-0.32,0.93,0.13C251.61,59.2,250.85,59.29,250.97,58.71z
	 M251.6,55.89c-0.21-0.31-0.45-0.21-0.21-0.61c0.16,0.25,0.39-0.12,0.52,0.31L251.6,55.89z M252.01,41.99
	c-0.25,0.73-0.98,0.13-1.39-0.22C251.12,41.55,251.52,42.13,252.01,41.99z M251.47,56.22c-0.17,0.13-0.36,0.42-0.5,0.28
	c0.06-0.07,0.11-0.14,0.03-0.23c-0.18,0.18-0.33,0.16-0.48,0.05C250.87,56,251.19,55.94,251.47,56.22z M246.81,57.93
	c-0.7,0.28-1.34,0.06-1.93-0.44C245.73,57.58,246.1,57.67,246.81,57.93z M244.63,53.34c-0.3,0.25-0.09,0.41-0.44,0.39
	C243.83,53.3,244.43,52.76,244.63,53.34z M240.81,56.12c0.27,0.14,0.27,0.76,0.74,0.73c-0.33,0.5-0.5-0.05-0.81,0.31
	C240.44,56.76,240.35,56.39,240.81,56.12z M233.96,55.51c-0.42,0.2-0.78,0.12-1.1-0.24C233.28,55.07,233.64,55.15,233.96,55.51z
	 M232.29,50.32l0.14,0.27c0.07-0.05,0.14-0.09,0.18,0.04c-0.25,0.5-0.76,0.74-1.1,0.34C231.85,50.53,232.21,50.82,232.29,50.32z
	 M260.9,36.84c-0.34,0.59-0.63,0.39-0.91,0.03C260.07,36.36,260.64,36.44,260.9,36.84z M252.29,34.7c-0.21,0.13-0.49,0.79-0.63,0.25
	C251.57,34.59,252.2,34.21,252.29,34.7z M248.02,37.94c-0.29,0.37-0.51,0.24-0.72,0.11C247.57,37.82,247.84,37.57,248.02,37.94z
	 M244.27,36.77c-0.06,0.44-0.46,0.54-0.63,0C243.87,36.63,244.11,36.39,244.27,36.77z M240.94,34.92c0.5,1.01,0.62,0.96,1.23,1.44
	c-0.44,0.33-1.03,0.71-1.63,0.48c-0.03-0.28,0.54-0.43,0.22-0.78c-0.53,0.24-0.36,0.63-0.61,0.93c-0.11-0.27-0.28-0.19-0.39-0.43
	C240.17,35.75,240.55,35.63,240.94,34.92z M238.15,35.27c0.55-0.21,1.02,0.06,1.48,0.43c-0.32,0.42-0.33,0.1-0.68,0.8
	c-0.12-0.18-0.22-0.52-0.38-0.43c-0.14,0.13,0.02,0.32-0.08,0.45c-0.29-0.27-0.71,0.27-0.92-0.55
	C237.93,35.52,238.47,36.07,238.15,35.27z M235.32,34.99c-0.31,0.35-0.55,0.3-0.72-0.16C234.91,34.48,235.09,34.91,235.32,34.99z
	 M231.25,33.6c-0.43,0.21-1.18,0.26-1.16-0.39C230.51,33.16,230.94,33.09,231.25,33.6z M222.15,31.74c0.33-0.41,0.7,0.15,0.39,0.45
	C222.34,31.96,222.07,32.19,222.15,31.74z M192.51,24.8c0.09,0.19,0.2,0.26,0.32,0.32c-0.05,0.3-0.44,0.61-0.68,0.54
	C191.88,25.27,192.17,25.03,192.51,24.8z M186.26,24.23c0.26,0.26,0.7-0.35,0.9,0.24C186.88,24.59,186.1,24.76,186.26,24.23z
	 M161.77,19.66c0.18,0.34,0.58,0,0.64-0.3c0.12,0.23,0.18,0.45,0.15,0.64C162.29,20.17,161.57,20.21,161.77,19.66z M160.23,18.39
	c0.25,0.51,0.04,0.88,0.01,1.31c0.4-0.47,0.96-0.52,0.84,0.11c-0.53,0.09-1.57,0.23-1.58-0.68
	C160.07,19.65,159.89,18.64,160.23,18.39z M158.25,19.14c0.22,0.16,0.53-0.09,0.72,0.2C158.88,20.06,157.8,19.61,158.25,19.14z
	 M23.68,8.89c-0.2-0.38,0.17-0.58,0.21-0.89c0.17,0.23,0.45,0.02,0.55,0.54C24.17,8.73,23.99,8.54,23.68,8.89z M6.49,22.42
	c0.1-0.41,0.62-0.54,0.88-0.43C7.3,22.29,6.67,22.83,6.49,22.42z M21.67,31.52c-0.15-0.43-0.25-0.46-0.36-0.12
	c-0.32-0.49,0.59-0.71,0.65-0.27C21.79,31.24,21.73,31.38,21.67,31.52z M22.29,30.16c-0.63,0.1-0.72,0.2-1.35,0.77
	c-0.09-0.55-0.37-0.34-0.66-0.09c-0.18-0.57-0.23-0.62-0.27-1.29c-0.57,0.3-0.35,0.85-0.32,1.33c-0.69-0.47-0.38-1.52,0.19-1.98
	c0.43,1.01,1.43-0.3,1.98,0.28c0.21,0.58-0.41,0.15-0.34,0.61C21.85,29.61,22.38,29.73,22.29,30.16z M22.03,29.24
	c0.29-0.14,0.59-0.29,0.72,0.23C22.44,29.66,22.2,29.58,22.03,29.24z M24.49,17.91c-0.39,0.24-0.42,0.72-0.71,0.13
	C23.85,17.71,24.33,17.48,24.49,17.91z M23.78,30.04c0.54-0.21,1.07-0.4,1.43,0.1C24.75,30.04,24.14,30.56,23.78,30.04z
	 M25.18,19.09c-0.22-0.21-0.58,0.52-0.76,0.72c-0.33-0.35,0.03-0.47-0.02-0.73c-0.11,0.03-0.19-0.02-0.24-0.2
	c0.48,0.02,0.84,0.24,0.82-0.58C25.2,18.37,25.27,18.8,25.18,19.09z M26.3,30.85c0.13,0.39,0.5-0.21,0.6,0.31
	C26.62,31.61,26.06,31.24,26.3,30.85z M30.29,11.26c0.92-0.36,1.65-0.38,2.23-1.2l0.25,0.56C32.18,10.7,31.21,11.99,30.29,11.26z
	 M33.26,11.02c-0.1-0.27-0.13-0.52-0.02-0.73c0.63,0.07,1.33-0.13,1.91,0.13C34.5,10.69,33.91,10.74,33.26,11.02z M36.6,36.92
	c-0.2,0.15-0.38,0.22-0.53,0.19c-0.34-0.67,0.54-0.95,0.02-1.67c0.35,0.01,0.81-0.41,1.02,0.21C36.52,35.44,36.17,36.15,36.6,36.92z
	 M38.14,10.9c-0.57,0.42-1.63,0.64-2.42,0.78c-0.2-0.46,0.09-0.77,0.45-1.05c0.5-0.16,1.12,0.06,1.9-0.23
	C38.13,10.58,38.27,10.78,38.14,10.9z M43.78,35.38c0.17-0.42,0.96-0.67,1.25-0.32C44.52,35.53,44.17,35.36,43.78,35.38z
	 M60.82,38.15l0.47-0.33l0.19,0.42C61.16,38.63,61.01,38.28,60.82,38.15z M61.58,37.79c0.44,0.18,0.96,0.04,1.33,0.54
	C62.36,38.64,61.9,38.52,61.58,37.79z M63.09,38.03c0.25,0.46,0.75-0.15,1.02,0.2C63.69,38.74,62.93,38.59,63.09,38.03z M71.1,1.61
	c0.16-0.25,0.29-0.41,0.47-0.33c-0.12,0.12-0.03,0.31,0.07,0.5C71.39,1.99,71.21,1.93,71.1,1.61z M72.6,1.13
	c-0.31,0.38-0.37,0.34-0.73,0.84c-0.17-0.45,0.08-0.77,0.09-1.17c0.06,0.1,0.15,0.1,0.24,0.07c0.18-0.05,0.39-0.2,0.47,0.16
	C72.65,1.07,72.63,1.1,72.6,1.13z M73.25,2.29c0.58-0.3,0.23-0.42,0.04-0.62c-0.1-0.1-0.15-0.22-0.05-0.39
	c0.06-0.09,0.16-0.2,0.34-0.33c0.01,0.02,0.01,0.02,0.01,0.04c0.15,0.45,0.13,0.54,0.37,0.66c0.04,0.02,0.07,0.04,0.12,0.06
	C73.92,2,73.6,2.75,73.25,2.29z M75.23,1.51c0.01,0.03,0.01,0.06,0.02,0.1c-0.51-0.04-0.67,0.91-1.16,0.83
	c-0.01-0.29-0.03-0.59,0.08-0.85c0.06-0.13,0.14-0.25,0.3-0.35c0.05,0.08,0.09,0.19,0.15,0.27c0.04,0.06,0.09,0.1,0.16,0.07
	c0.02-0.02,0.04-0.05,0.05-0.08c0.13-0.28,0.17-0.94,0.52-0.7C75.36,1.05,75.15,1.23,75.23,1.51z M79.79,40.98
	c0.43-0.3,0.64,0.31,1.02,0.2C80.38,41.51,80.06,41.35,79.79,40.98z M90.44,42.83c0.4,0.35,0.45-0.43,0.78,0
	C91.25,43.11,90.15,43.54,90.44,42.83z M92.27,43.75c-0.35,0.23-0.58-0.01-0.84-0.14c0.08-0.39,0.45-0.16,0.82-0.59
	C92.5,43.34,92.14,43.47,92.27,43.75z M102.11,46.15c-0.16-0.33-0.91-0.23-0.69-0.81C101.69,46.01,102.43,45.22,102.11,46.15z
	 M104.29,46.81c-0.2-0.24-0.48-0.19-0.62-0.67c0.48-0.4,0.86-0.37,1.24-0.34l0.19,0.42C104.53,46.32,104.64,46.24,104.29,46.81z
	 M109.36,47.98c-0.14-0.58-0.89-0.36-0.46-0.97C108.98,47.44,109.62,47.51,109.36,47.98z M130.62,53.18
	c-0.22-0.17-0.56,0.17-0.68-0.44C130.21,52.45,130.84,52.75,130.62,53.18z M137.92,16.68c-0.33-0.55-0.88-0.05-1.26-0.36
	c0.4-0.24,0.72-0.51,0.67-0.88c0.2,0.37,0.55,0.1,0.78,0.34C137.45,16.37,138.28,16.3,137.92,16.68z M139.09,16.19
	c0.28-0.26,0.52-0.32,0.66,0.07C139.46,16.52,139.22,16.58,139.09,16.19z M139.77,16.98c0.19-0.22,0.15-0.51,0.44-0.7
	C140.36,16.65,140.14,17.44,139.77,16.98z M141.58,17.5c-0.17-0.23-0.41-0.16-0.56-0.52c0.16-0.1,0.08-0.82,0.39-0.48
	c-0.25,0.24-0.09,0.57,0.2,0.42c-0.03-0.25,0.02-0.47,0.15-0.67c0.13,0.27,0.4-0.06,0.49,0.38C141.72,16.83,142.1,17.3,141.58,17.5z
	 M142.47,56.23c-0.16-0.24-0.15,0.22-0.3,0.04c0.28-0.26-0.27-0.12-0.27-0.55C142.14,55.4,142.68,55.93,142.47,56.23z M145.93,16.85
	l0.26,0.55C145.81,17.84,145.44,17.08,145.93,16.85z M147.36,18.22c0.13-0.16,0.13-0.36,0.39-0.48c0.11,0.51,0.38,0.29,0.56,0.52
	C147.94,18.5,147.58,18.67,147.36,18.22z M147.93,56.09c-0.05-0.21,0.04-0.39-0.15-0.64c0.49-0.31,0.93-0.42,1.21,0.22
	C148.51,55.59,148,55.79,147.93,56.09z M151.92,19.27c-0.33-0.4-1.41,0.37-1.33-0.49C151,18.96,151.96,18.38,151.92,19.27z
	 M149.9,58.19c0.34-0.73,0.9-0.47,1.31-0.23C150.71,58.35,150.24,58.6,149.9,58.19z M150.44,57.03c0.61-0.42,1.08-0.22,1.51,0.18
	C151.36,57.58,150.98,56.94,150.44,57.03z M152.19,57.04c0.12,0.18,0.3,0.09,0.43,0.24c-0.15,0.11,0.01,0.32-0.09,0.45
	c-0.08-0.09-0.18-0.09-0.3,0.04C152.04,57.48,152,57.23,152.19,57.04z M152.29,57.9c0.25,0.32,0.65-0.02,0.87,0.48
	C152.84,58.61,152.12,58.43,152.29,57.9z M153.38,59.16c0.36-0.47,0.52,0.01,0.78-0.02c-0.03-0.13-0.13-0.27-0.02-0.36
	c0.1,0.19,0.09,0.34,0.09,0.5C153.94,59.29,153.6,59.48,153.38,59.16z M156.43,58.94c-0.36,0.2-0.6-0.19-0.92-0.26
	C155.94,58.21,156.55,58.27,156.43,58.94z M157.38,60.86c-0.15-0.24-0.02-0.4-0.16-0.64c-0.12,0.09-0.08,0.22-0.16,0.31
	c-0.34-0.37-0.06-0.57,0.26-0.76c0.1,0.15,0.17,0.4,0.32,0.32c-0.06-0.17,0.11-0.29,0.28-0.4l0.2,0.41
	C157.53,60.48,157.64,60.35,157.38,60.86z M158.29,59.8c0.15-0.16-0.02-0.4,0.03-0.59c0.62-0.34,1.12-0.1,1.58,0.31
	c-0.36,0.22-0.2,0.58-0.56,0.8C159.01,60.04,158.6,60.13,158.29,59.8z M159.31,60.91c0.07-0.1,0.08-0.22-0.02-0.36
	c-0.15,0.09-0.29,0.17-0.37-0.1c0.52,0.01,1.04-0.04,1.47,0.4C159.85,60.83,159.7,61.01,159.31,60.91z M160.19,60.44
	c-0.35-0.61-0.21-1.09,0.03-1.53c0.09,0.19,0.2,0.26,0.32,0.32C160.25,59.58,160.73,60.15,160.19,60.44z M162,61.52
	c-0.35-0.33-1.33-0.13-1.31-0.71c0.24,0.24,0.57,0.04,0.85,0.11c-0.1-0.28-0.28-0.21-0.39-0.46c0.3-0.13,0.72-0.17,0.81-0.61
	C162.05,60.43,162.06,60.98,162,61.52z M164.98,61.14c-0.31,0.11-0.61,0.12-0.8-0.34c0.35-0.31,0.61-0.15,0.85,0.11
	C164.96,60.98,164.9,61.05,164.98,61.14z M167.27,62.24c0.1-0.21-0.35-0.36-0.39-0.46c-0.15,0.16-0.08,0.37-0.21,0.54
	c-0.5-0.04-0.54-0.69-0.07-1.09c0.47,0.23,0.99,0.23,1.42,0.62C167.62,62.01,167.44,62.28,167.27,62.24z M170.62,62.91
	c-0.12-0.48-0.48,0.14-0.57-0.51C170.36,62.22,170.99,62.52,170.62,62.91z M170.85,65.58c-0.19-0.29-0.23-0.53-0.04-0.72
	c0.1,0.15,0.18,0.41,0.32,0.32c0.11-0.04,0.23-0.17,0.3-0.04L170.85,65.58z M172.11,64.61c-0.08-0.22-0.29-0.47-0.16-0.64
	c0.39,0.47,0.61,0.4,0.9-0.12C173.01,64.56,172.49,64.48,172.11,64.61z M173.86,64.59c0.54-0.28,0.99-0.11,1.45,0.02
	C174.78,64.82,174.25,65.08,173.86,64.59z M174.64,63.61c-0.42,0.82-0.44-0.09-0.74-0.19c0.12,0.66-0.42,0.96-0.64,1.25
	c-0.35-0.61,0.74-0.83,0.39-1.44c-0.13,0.16-0.12,0.36-0.39,0.49c-0.14-0.03-0.64-0.57-0.41-0.82c0.45,0.52,2.8-1.06,2.02,0.53
	c0.37,0.1,1.32-0.18,1.24,0.56C175.81,64.38,174.74,64.23,174.64,63.61z M176.44,63.37c0.36-0.19,0.67-0.11,0.92,0.24
	C176.94,64.04,176.69,63.69,176.44,63.37z M178.95,53.84c-0.34-0.4-0.44,0.39-0.94,0.34C177.61,53.38,179.18,52.9,178.95,53.84z
	 M183.31,53.68c0.32-0.14,0.65-0.34,0.85,0.1C183.81,54.1,183.53,54.05,183.31,53.68z M185.08,56.87c-0.37-0.53,0.17-0.82,0.52-1.17
	c0.12,0.21,0.34-0.12,0.44,0.23C185.56,56.6,185.47,56.09,185.08,56.87z M186.25,56.34c-0.38-0.8,0.83-1,1.05-0.44
	c-0.15,0.16-0.08,0.37-0.2,0.54C186.48,56.37,186.83,55.52,186.25,56.34z M188.11,57.16c-0.4,0.29-0.92-0.48-1.12,0.31l-0.28-0.54
	c0.32-0.37,0.48-0.02,0.57-0.45c0.47,0.42,0.74,0.49,1.01-0.22c0.35,0.32-0.01,0.47,0.05,0.72l0.57-0.45
	c0.33,0.76-0.19,0.99,0.51,1.31C188.97,57.85,188.13,57.81,188.11,57.16z M189.43,55.37c-0.18-0.23-0.5,0.24-0.62-0.28
	C189.07,54.64,189.65,54.97,189.43,55.37z M198.92,48.07c-0.63,0.34-0.61,0.38-0.77,0.99c-0.11-0.41-0.3-0.45-0.55-0.14
	C197.38,48.14,198.48,47.56,198.92,48.07z M198.63,58.99c-0.06,0.34-0.58,0.48-0.78,0.04C198.14,58.87,198.42,58.79,198.63,58.99z
	 M195.91,66.11c-0.33,0.12-0.16,0.97-0.61,0.67c0.2-0.19-0.17-0.51-0.05-0.72C195.52,65.79,195.76,65.73,195.91,66.11z
	 M195.64,56.58c-0.07,0.36-0.56,0.35-0.78,0.04C195.18,56.28,195.41,56.43,195.64,56.58z M194.39,57.33
	c0.09,0.02,0.18,0.06,0.27,0.1c0.35,0.15,0.71,0.39,1.01,0.47c-0.3,0.16-0.12,0.44-0.5,0.58c-0.33-1.09-1.01-0.43-1.45-0.96
	C193.89,57.28,194.13,57.26,194.39,57.33z M191.82,57.87c0.37-0.39,0.65-0.35,0.89-0.13C192.63,58.15,192,58.52,191.82,57.87z
	 M193.87,67.14c0.28-0.27,0.52-0.34,0.67,0.05C194.26,67.46,194.02,67.52,193.87,67.14z M193.64,58.92
	c0.57-0.26,0.31-0.21,0.61-0.67c0.28,0.04,1.04,0.07,0.65,0.64C194.48,58.14,194.15,59.58,193.64,58.92z M194.93,69.18
	c0.08-0.17,0.51-0.46,0.47-0.95c-0.26,0.18-0.42-0.15-0.58-0.5c0.52-0.19,1.11-0.76,1.49-0.22
	C195.51,67.89,195.7,69.92,194.93,69.18z M197.13,68.79c-0.19-0.34-0.56,0.24-0.69-0.41C196.7,68.07,197.33,68.35,197.13,68.79z
	 M196.34,67.88c0.42-0.53,0.66-0.1,0.97,0.01C196.98,67.93,196.6,68.22,196.34,67.88z M199.34,61.3c-0.47-0.72-1.67-0.31-1.82-1.05
	C198.04,60.64,199.6,60.13,199.34,61.3z M201.74,61.89c-0.4-0.6-1.09,0.3-1.48-0.35C200.69,61.65,202.09,60.87,201.74,61.89z
	 M269.75,84.11c0.5,0.12,0.4-0.21,1.12-0.03c-0.16,0.37-0.37,0.67-0.69,0.72c0.22-0.5-0.46-0.21-0.34,0.12
	C269.55,84.64,269.67,84.37,269.75,84.11z M263.49,83.65c-0.4-0.06-1.37,0.15-1.38-0.43C262.58,83.24,263.05,83.23,263.49,83.65z
	 M260.54,82.56c0.21,0.19,0.97,0.29,0.81,0.74C261.11,83.48,260.38,82.96,260.54,82.56z M254.26,80.51
	c-0.42,0.35-0.88,0.93-1.21,0.45C253.48,80.61,253.9,80.3,254.26,80.51z M252.27,81.43c0.1,0.6,0.38,0.37,0.74,0.8
	c-0.71,0.02-1.41,1.21-1.7,0.24C251.93,82.36,251.94,81.88,252.27,81.43z M251.08,82.67c-0.4-0.36-0.17-0.64-0.51-0.99
	c0.31-0.24,0.57-0.12,0.85-0.12C251.18,81.91,251.39,82.32,251.08,82.67z M251.29,80.02c-0.18,0.21-0.83,0.14-0.69,0.61
	c0.16,0.5,0.96-0.04,0.76,0.57c-0.38-0.04-0.77,0.07-1.08-0.49c0.22-0.16,0.18-0.36-0.03-0.59
	C250.62,79.87,250.97,79.84,251.29,80.02z M249.61,81.08c0.31-0.01,0.61,0.15,0.88,0.47C250.16,82.12,249.49,81.26,249.61,81.08z
	 M246.11,79.39c0.41,0.17,0.35,0.85,0.97,0.39c0.09-0.39-0.56-0.38-0.19-0.85c0.4,0.05,0.61,0.3,0.71,0.82
	c-0.62,0.56-1.73,0.67-1.83-0.07C245.96,79.87,245.9,79.53,246.11,79.39z M244.55,78.9c0.19,0.07,0.38,0.22,0.53,0.56
	c-0.31,0.23-0.57,0.19-0.8-0.13C244.45,79.2,244.5,79.05,244.55,78.9z M243.85,78.09c-0.32,0.34-0.51-0.23-0.76-0.36
	C243.44,77.18,243.63,77.75,243.85,78.09z M244.36,81.67c-0.54,0.16-1.06,0.21-1.49-0.36C243.4,81.19,243.86,81.54,244.36,81.67z
	 M241,76.88c-0.02,0.13-0.36,0.76-0.57,0.48C240.51,77.06,240.63,76.49,241,76.88z M241.75,79.24c-0.2,0.47-0.71,0.16-1.04,0.86
	c-0.5-0.37,0.47-0.46,0.22-0.78c-0.22-0.28-0.6,0.37-0.78-0.15C240.75,78.74,241.24,79.07,241.75,79.24z M238.64,77.25
	c0.4,0.49,0.08,1.24-0.3,1.23C238.19,78.02,238.26,77.61,238.64,77.25z M237.34,74.77c0.1,0.16,0.25,0.06,0.35,0.31l-0.57,0.47
	C236.88,75.22,237.15,75.01,237.34,74.77z M237.2,77.44c0.04,0.75,0.45,0.23,0.78,0.74c-0.5,0.35-0.82-0.29-1.31,0.09
	c-0.13-0.24-0.27-0.4-0.43-0.44C236.76,77.65,236.78,78.14,237.2,77.44z M235.05,76.06c0.14,0.15,0.31,0.12,0.42,0.44
	c-0.45,0.08-0.34,0.5-0.73,0.2C234.97,76.51,234.68,76.22,235.05,76.06z M234.17,76.58c0.48,0.91,1.77,0.1,1.92,0.98
	C235.54,77.4,233.89,77.8,234.17,76.58z M231.55,75.79c-0.15,0.17-0.07,0.38-0.19,0.54c-0.15-0.48-0.46,0-0.6-0.48
	C231.04,75.68,231.32,75.59,231.55,75.79z M227.53,74.2l-0.68,0.55c-0.16-0.71-0.59,0.07-0.78-0.53
	C226.61,73.95,227.06,74.1,227.53,74.2z M224.42,67.84c-0.05,0.26,0,0.55-0.42,0.73C223.58,68.14,224.14,67.42,224.42,67.84z
	 M224.29,69.1l0.22,0.4c-0.3,0.41-0.46,0.08-0.67-0.04L224.29,69.1z M222.46,66.46c0.08,0.11,0.13,0.23,0.11,0.37
	c-0.36,0.29-0.4,0.04-0.51-0.24c-0.06-0.17-0.15-0.35-0.34-0.43C221.97,66.08,222.3,66.22,222.46,66.46z M221.78,65.21
	c0.02,0,0.03,0.01,0.05,0.02c0.12,0.05,0.19,0.18,0.1,0.39c-0.2-0.32-0.4,0.27-0.45,0.37l-0.29-0.54
	C221.34,65.25,221.6,65.16,221.78,65.21z M219.94,62.8l0.22,0.4c-0.06,0.06-0.12,0.11-0.18,0.15c-0.16,0.11-0.31,0.09-0.42-0.08
	c-0.02-0.03-0.05-0.06-0.07-0.1L219.94,62.8z M215.65,66.29c-0.04,0.25-0.5,0.47-0.75,0.42c0.23-0.32-0.4-0.19-0.47-0.58
	C214.9,65.82,215.26,66.12,215.65,66.29z M211.96,51.96c-0.19-0.33-0.44-0.25-0.17-0.63c0.41,0.09,0.15,0.54,0.49,0.95
	c0.5-0.48,0.74,0.49,1.25-0.05c-0.23-0.16-0.49-0.09-0.65-0.63c0.24-0.28,0.37,0.05,0.63-0.32c0.3,0.25-0.24,0.87,0.24,0.77
	c0.32-0.2-0.19-0.6,0.24-0.77c0.2-0.03,0.36,0.12,0.51,0.36c-0.08,0.34-0.52,0.58-0.46,0.95c0.23-0.02,0.39,0.31,0.58,0.49
	c-1.31-0.16-2.61-0.35-3.8-1.16C211.34,51.18,211.48,52.5,211.96,51.96z M212.98,66.13c-0.09-0.22-0.3-0.46-0.17-0.63
	c0.39,0.31,0.94-0.24,1.25,0.54C213.52,66.28,213.34,65.72,212.98,66.13z M213.17,71.37c-0.24,0.08-0.58,0.7-0.75,0.41
	C212.47,71.48,212.97,71,213.17,71.37z M212.25,63.84c-0.12-0.24-0.25-0.4-0.4-0.45l0.23-0.18c-0.04-0.09-0.07-0.17,0.04-0.22
	c0.42,0.64,0.22-0.46,0.49-0.59c0.03,0.04,0.07,0.06,0.1,0.08c0,0,0,0,0,0c0.17,0.08,0.37,0,0.48,0.41
	C212.69,63.16,212.62,63.53,212.25,63.84z M210.48,50.66c0.4,0.43-0.39,1.08-0.6,0.68C210.04,50.85,210.44,51.39,210.48,50.66z
	 M209.75,50.49l0.21,0.41c-0.41,0.29-0.84,0.74-1.11,0.32C208.94,50.71,209.38,50.97,209.75,50.49z M207.42,62.91
	c0.28-0.06,0.98-0.13,0.58,0.49C207.94,62.83,207.16,63.52,207.42,62.91z M204.77,49.52c-0.36,0.39-0.62,0.73-0.1,1.04
	c-0.35,0.16-0.64-0.01-0.87-0.45C204.15,49.76,204.33,48.91,204.77,49.52z M202.45,61.7c0.03-0.02,0.04-0.04,0.07-0.06
	c0.12-0.1,0.21-0.21,0.27-0.33c0.02-0.04,0.04-0.07,0.05-0.1l0.06,0.12l0.08,0.15c-0.08,0.15-0.11,0.27-0.11,0.38
	c-0.01,0.28,0.18,0.47,0.49,0.66C202.73,62.91,202.73,62.33,202.45,61.7z M203.72,61.07c-0.4-0.61-0.97-0.3-1.39-0.81
	c0.62-0.4,1.58,0.13,1.73,0.53C203.92,60.61,203.77,60.9,203.72,61.07z M203.29,58.91c-0.04-0.08-0.07-0.17-0.06-0.32
	c0.28,0.1,0.86,0.12,1.1,0.41c0.07,0.09,0.11,0.2,0.1,0.35C204.17,59.05,203.49,59.26,203.29,58.91z M204.31,62.82
	c-0.07-0.04-0.15-0.07-0.22-0.13c0.15-0.05,0.33-0.07,0.51-0.08c0.28-0.01,0.58,0.02,0.88,0.06c0.31,0.04,0.62,0.08,0.91,0.1
	c-0.03-0.11-0.07-0.23-0.1-0.34c-0.04-0.18-0.04-0.35,0.16-0.48c-0.02,0.32,0.01,0.46,0.08,0.53c0.11,0.12,0.32,0.04,0.55,0.21
	c0.05,0.04,0.11,0.09,0.16,0.16c-0.2,0.18-0.37,0.25-0.49,0.38c-0.04,0.04-0.07,0.09-0.1,0.15c-0.06,0.13-0.1,0.31-0.1,0.61
	C206.19,62.72,205.1,63.25,204.31,62.82z M206.22,71.35c0.07-0.22,0.21-0.42,0.5-0.59c0.15,0.6,0.48,0.16,0.66,0.63l-0.23,0.18
	C206.95,71.06,206.66,71.57,206.22,71.35z M208.14,73.47c-0.47-0.25-1.06,0.13-1.44-0.58c0.5,0.01,0.48-0.77,0.91-0.72
	c0.46,0.36-0.2,1.04,0.2,0.99c0.19-0.23,0-0.55,0.42-0.72C208.44,72.83,208.25,73.14,208.14,73.47z M207.51,71.66
	c0.39-0.38,0.69-0.26,0.97,0C208.15,71.71,207.77,72,207.51,71.66z M208.87,64.44c0.32-0.17,0.62-0.23,0.89-0.14
	c-0.2,0.14,0.73,0.26,0.24,0.77C209.64,64.76,209.24,64.66,208.87,64.44z M209.21,72.42c0.19-0.15-0.14-0.42,0.01-0.58
	c0.2,0.29,0.53-0.07,0.7,0.4C209.65,72.49,209.38,72.71,209.21,72.42z M209.15,68.05c0.4-0.08,0.76,0.08,1.15,0.04
	C210.22,68.39,209.08,68.61,209.15,68.05z M211.31,73.05c-0.41-0.41-0.92-0.26-1.33-0.67c0.61-0.13,1.11,0.29,1.67,0.4L211.31,73.05
	z M210.2,64.52c0.17-0.27,0.11-0.6-0.02-0.95c-0.12,0.48-0.16,0.51-0.57,0.45c-0.17-0.24,0.01-0.39,0.01-0.58
	c-0.3,0.56-0.24,0.15-0.6,0.09c0.18,0.53-0.41,0.5-0.59,0.09c0.06-0.39,0.44-0.18,0.79-0.64c0.62,0.28,0.6,0.62,0.96,0
	c0.35,0.07,0.37,0.48,0.24,0.77c0.68-0.35,1.63,0.04,1.93,0.82c0.03,0.08,0.06,0.16,0.08,0.25c-0.09-0.09-0.18-0.16-0.27-0.23
	C211.52,64.16,210.73,64.26,210.2,64.52z M211.8,73.05c0.16-0.12,0.22-0.26,0.27-0.41c0.18,0.28,0.9,0.32,0.73,0.77
	C212.52,73,212.05,73.62,211.8,73.05z M214.05,73.94c-0.45,0.24-0.97,0.76-1.49,0.24c0.29-0.38,0.45-0.03,0.75-0.41
	c-0.2-0.32-0.44-0.25-0.18-0.63C213.39,73.35,214.2,73.29,214.05,73.94z M214.01,65.3c-0.01,0-0.01,0.01-0.02,0.01
	c-0.03-0.01-0.06-0.01-0.09-0.02c-0.21-0.07-0.44-0.06-0.64-0.16c0.37-0.32,0.46-0.75,0.86-0.5
	C213.92,64.82,214.26,65.13,214.01,65.3z M215.42,74.37c-0.4-0.58-0.95,0.43-1.24,0.42c-0.29-0.67,0.27-0.46,0.58-1.05
	c0.1,0.5,0.38,0.03,0.6-0.1C215.56,73.93,215.6,74.17,215.42,74.37z M218.37,67.74c-0.25-0.19-0.59,0.08-0.81-0.31
	C217.8,67.4,218.57,67.14,218.37,67.74z M218.68,71.35c0.28-0.28,0.51-0.35,0.67,0.03C219.07,71.66,218.83,71.73,218.68,71.35z
	 M220.85,68.43c-0.24-0.25-0.57-0.05-0.81-0.3c0.07-0.07,0.17-0.12,0.27-0.14c0.19-0.05,0.39-0.03,0.49,0.08
	C220.87,68.14,220.9,68.25,220.85,68.43z M220.14,66.74c-0.28,0.2-0.53,0.43-0.77,0.77c-0.23-0.63-0.71-0.64-1.23-0.54
	c-0.42,0.08-0.87,0.24-1.22,0.21c0.13-0.21,0.67-0.32,0.49-0.59c-0.4,0.25-0.71,0.04-1.12,0.33c0.1,0.14,0.37,0.14,0.22,0.4
	c-0.27-0.46-1.23,0.1-1.14-0.61c0.32,0.33,0.94-0.08,1-0.59c0.01-0.12,0.01-0.24-0.05-0.37c-0.06,0.27-0.23,0.36-0.43,0.36
	c-0.32,0-0.7-0.26-0.83-0.5c-0.03-0.06-0.04-0.11-0.04-0.16c0.01,0,0.03,0.01,0.04,0.02c0.13,0.05,0.32,0.14,0.52,0.2
	c0.34,0.11,0.66,0.11,0.63-0.37c0-0.02,0-0.02,0-0.04c-0.04,0.02-0.08,0.02-0.12,0.02c0,0-0.01,0-0.01,0
	c-0.12,0-0.22-0.07-0.31-0.24c0.35-0.2,0.55,0,0.71,0.3c0.1,0.2,0.18,0.43,0.26,0.63c0.07,0.18,0.14,0.33,0.22,0.4l0.43-0.35
	l0.13-0.1l0.01-0.01c0,0,0,0,0,0c0.59,0.83,1.31,0.87,2.06,0.82c0.13-0.39,0.35-0.69,0.54-0.86c0.08-0.07,0.15-0.12,0.21-0.14
	c-0.11,0.89,0.4-0.23,0.7,0.4C220.72,66.36,220.42,66.54,220.14,66.74z M221.73,68.87c0.16,0.17,0.42-0.17,0.51,0.35
	C222,69.78,221.51,69.12,221.73,68.87z M222.29,68.41c-0.08-0.18-0.17-0.29-0.28-0.36c-0.3-0.2-0.66-0.05-0.94-0.39
	c0.32-0.4,0.07-0.86,0.65-0.91c0.39,0.4-0.01,0.63,0.02,0.95c0.3-0.07,0.55,0.14,0.89-0.15c0.11,0.15,0.11,0.27,0.08,0.38
	C222.67,68.11,222.5,68.26,222.29,68.41z M222.59,73.19c0.06-0.34,0.58-0.49,0.78-0.06C223.06,73.48,222.82,73.34,222.59,73.19z
	 M225.79,73.68c-0.34,0.11-0.76,0.67-1.01,0.24C225.15,73.63,225.55,73.22,225.79,73.68z M224.82,73.7
	c-0.49,0.05-0.94-0.14-1.37-0.43C223.93,73.14,224.79,73.03,224.82,73.7z M224.48,68.56c0.13-0.28-0.04-0.64-0.02-0.95
	c0.27-0.28,0.44,0.04,0.63,0.26C224.8,68.02,224.7,68.78,224.48,68.56z M225.31,67.35c-0.01,0.06-0.03,0.12-0.07,0.21
	c-0.19-0.55-1.07-0.09-0.96-0.57c0.23,0.01,0.77-0.12,0.97,0.07C225.32,67.11,225.34,67.2,225.31,67.35z M233.7,66.62
	c0.21,0.51,0.12,0.72,0.86,1.24C233.82,68.44,233.34,67.25,233.7,66.62z M233.8,70.05c0.55-0.43,0.32,0.18,0.68,0.61
	C234.11,71.13,233.74,70.4,233.8,70.05z M234.9,69.34c-0.16-0.38-0.57,0.65-0.68-0.02l0.57-0.47
	C234.85,69.02,235.02,69.21,234.9,69.34z M234.93,59.95c-0.38-0.24-0.89,0.33-1.18-0.38c0.41-0.37,0.72-0.11,1.11-0.34
	C235.06,59.51,235.11,59.76,234.93,59.95z M235.08,69.38c0.71-0.32,1.32-0.13,1.93,0.17C236.76,70.6,235.67,69.87,235.08,69.38z
	 M236.91,71.4c-0.62,0.14-0.81-0.35-1.14-0.82c0.06-0.08,0.09-0.16,0.13-0.24c0.05-0.1,0.11-0.19,0.25-0.26
	c0.14,0.14,0.17,0.25,0.17,0.36c0,0.16-0.08,0.31-0.02,0.49c0.26-0.17,0.44-0.26,0.58-0.37c0.17-0.13,0.28-0.27,0.37-0.61
	c0.31,0.06,0.21,0.36,0.25,0.66c0,0.03,0,0.06,0.01,0.1c-0.32,0.36-0.55,0.18-0.83,0.3C236.78,71.14,237.05,71.13,236.91,71.4z
	 M237.58,70.24c0.33-0.41,0.53-0.03,0.79-0.07C238.29,70.7,237.79,70.71,237.58,70.24z M237.35,68.67c-0.39,0.36-0.7,0.3-0.95-0.2
	c0.46-0.48,0.47,0.21,0.75-0.43C237.3,68.27,237.37,68.48,237.35,68.67c0.42-0.59,1.18-0.12,1.09,0.46
	C238.15,68.58,237.62,69.43,237.35,68.67z M240.4,61.78c-0.55,0.43-1,0.24-1.46,0.06C239.48,61.46,239.94,61.61,240.4,61.78z
	 M238.84,70.97c0.29,0.02,0.7-0.66,0.92-0.18C239.42,71.09,239.11,71.16,238.84,70.97z M240.73,71.56c-0.19-0.07-0.36-0.23-0.5-0.56
	C240.56,70.52,241.06,71.26,240.73,71.56z M242.9,70.92c-0.18-0.53-0.46-0.45-0.7-0.6c0.44-0.15,0.26-0.2,0.68-0.57
	c0.11,0.47,0.21,0.67,0.65,0.24c0.15,0.22,0.22,0.43,0.2,0.62C243.41,70.98,243.18,70.79,242.9,70.92z M244.49,72.94
	c0.23,0.28,0.55-0.1,0.75,0.36C244.98,73.64,244.32,73.26,244.49,72.94z M245.46,73.92c-0.4-0.27-0.14-1.02,0.21-0.78
	C245.34,73.36,245.89,73.72,245.46,73.92z M246.26,71.17c-0.08,0.13-0.19,0.26-0.37,0.37c-0.46-0.54-1.06,0.01-1.56-0.26
	c0.1-0.17,0.2-0.27,0.31-0.34c0.11-0.03,0.21-0.07,0.31-0.1c0.28-0.02,0.61,0.09,0.97,0.14c0.05,0.01,0.09,0.01,0.14,0.02
	c0.12-0.15,0.1-0.4,0.31-0.07C246.35,71.01,246.31,71.09,246.26,71.17z M245.82,69.2c0.27-0.3,0.48-0.14,0.66,0.23
	C246.21,69.72,246,69.56,245.82,69.2z M248.15,74.01c0.41-0.29,0.8-0.46,1.11,0.04C248.85,74.34,248.5,74.11,248.15,74.01z
	 M249.61,64.22c-0.48,0.43-1.37,0.1-1.38-0.57c0.32,0.71,0.83,0.04,1.25,0.09C249.28,64.04,249.74,63.81,249.61,64.22z
	 M251.17,65.02c0.26-0.31,0.47-0.16,0.66,0.21C251.56,65.53,251.35,65.38,251.17,65.02z M252.45,75.31
	c-0.27-0.62-0.63-0.41-0.92-0.82c0.41-0.37,0.7,0.33,1.16-0.42c0.16,0.35,0.39,0.09,0.55,0.54
	C252.75,74.93,252.86,74.83,252.45,75.31z M255.4,75.52c-0.45-0.63-1.05,0.18-1.49-0.5C253.99,74.51,255.78,74.82,255.4,75.52z
	 M257.12,65.97c-0.48-0.59,0.46-0.85,0.73-0.5C257.59,65.88,257.39,65.56,257.12,65.97z M264.29,69.63
	c-0.33,0.42-1.13-0.03-1.08-0.41C263.57,69.39,263.95,69.19,264.29,69.63z M263.28,72.6l0.36-0.36c0.13,0.15,0.27,0.03,0.39,0.25
	c0.02,0.16-0.06,0.32-0.18,0.44c-0.27,0.27-0.77,0.41-1.08,0.17L263.28,72.6z M264.3,73.5c-0.2,0.48-0.19,0.98,0.33,1.21
	c-0.01,0.42-0.37,0.29-0.65,0.44c-0.15-0.69-0.75-0.25-1.21-0.53c0.51-0.66-0.44-0.03-0.57-0.73c0.46-0.23,0.87,0.31,1.32,0.2
	c0.21-0.16,0.35-0.35,0.47-0.56c0.35-0.62,0.42-1.3,1.06-1C264.78,72.71,264.47,73.1,264.3,73.5z M264.24,66.86
	c-0.17-0.2-0.26-0.4-0.26-0.59c0.43-0.09,0.87-0.39,1.28,0.16C264.9,66.94,264.6,66.31,264.24,66.86z M276.53,73.89
	c-0.1,0.17,0.06,0.3,0.22,0.44c-0.53,0.33-1.08-0.34-1.61,0.02C275.58,73.83,275.88,73.91,276.53,73.89z M275.27,75.39
	c-0.25-0.16-0.5-0.02-0.75-0.32C274.81,74.65,275.58,74.86,275.27,75.39z M274.4,73.58c0.32,0.24,0.63-0.02,0.96,0.3
	C275.1,74.32,274.31,74.1,274.4,73.58z M278.87,68.84c-0.31,0.07-0.59,0.83-0.91,0.43C278.25,68.88,278.54,68.39,278.87,68.84z
	 M277.22,68.99l0.32,0.32l-0.3,0.37c-0.18,0.25,0.29,0.44,0.02,0.69c-0.22-0.5-0.41,0.32-0.63-0.17
	C276.94,69.78,276.84,69.41,277.22,68.99z M274.88,70.46c0.31,0.08,0.63,0.34,0.95,0.5c-0.45,0.12-0.9,0.5-1.34,0.67
	c0.2-0.2,0.13-0.39-0.11-0.57L274.88,70.46z M272.61,70.08c0.17,0.82,0.68,0.01,1.13,0.3C273.49,71.43,272.32,70.98,272.61,70.08z
	 M273.56,75l-0.42,0.48c-0.22-0.18-0.12-0.38-0.32-0.56C273.07,74.56,273.31,74.67,273.56,75z M273.14,73.86
	c0.01,0.3-0.35,0.71-0.63,0.71c-0.47-0.21,0.26-0.47-0.21-0.68C272.58,73.6,272.86,73.59,273.14,73.86z M270.99,69.21
	c0.24-0.31,0.48-0.59,0.71-0.37c-0.11,0.16-0.21,0.31,0,0.46c0.37-0.24,0.12-0.46,0.41-0.7c0.47,0.41-0.21,0.85-0.31,1.28
	c-0.37-0.09-0.12-0.72-0.41-0.45c-0.18,0.28,0.07,0.54-0.11,0.81l-0.41-0.45C271.03,69.6,271.25,69.4,270.99,69.21z M270.31,67.05
	c-0.44,0.37-0.87,0.24-1.3-0.1C269.45,66.49,269.88,66.5,270.31,67.05z M268.18,71.65c0.23,0.44,0.48-0.09,0.71,0.36l-0.42,0.46
	C268.34,72.19,268.1,71.92,268.18,71.65z M266.13,71.62c0.38-0.07,0.76-0.27,1.13-0.1C266.86,72.07,266.5,71.74,266.13,71.62z
	 M266.81,77.74c-0.21,0.01-0.62-0.5-0.28-0.81C266.79,77.2,267.04,77.47,266.81,77.74z M270.07,79.96c0.2-0.24-0.27-0.45,0.02-0.69
	C270.6,79.1,270.58,80.13,270.07,79.96z M269.97,79.15c-0.24-0.18-0.06-0.38-0.1-0.57c-0.18,0.19-0.35-0.25-0.53-0.12
	c0.19,0.19,0.3,0.39,0.31,0.58c-0.4,0.36-0.68-0.04-0.55,0.57c-0.25-0.01-0.51,0.12-0.74-0.35c0.15-0.25,0.44-0.12,0.33-0.34
	c-0.36,0.01-0.71-0.1-1.06-0.24c0.44-0.42-0.04-0.13-0.2-0.46c0.27-0.47,0.49,0.23,0.75-0.11c-0.34-0.64-0.7-0.39-1.04-0.71
	c-0.08-0.21-0.45-0.99,0.14-0.81c-0.23,0.43,0.4,0.15,0.51,0.58c0.45-0.69,0.84,0.12,1.28-0.21c0.3,0.56,0.51,0.71,1.05,0.69
	c0.18-0.2-0.23-0.38-0.1-0.57C270.96,77.68,270.42,78.18,269.97,79.15z M271.34,74.5c-0.56-0.42-1.13,0.23-1.68-0.18
	c0.56,0.09,1.14-0.78,1.69-0.28C271.21,74.2,271.43,74.34,271.34,74.5z M271.16,71.51c0.17-0.59,0.35-0.91,0.93-0.61
	C271.41,70.91,271.86,71.58,271.16,71.51z M271.86,75.75c-0.14,0.31,0.7,0.59,0.21,0.91c-0.53,0.03,0-0.49-0.53-0.79l0.54-0.59
	c0.12,0.27,0.75,0.11,0.53,0.56C272.35,75.97,272.11,75.7,271.86,75.75z M276.81,76.63c0.08,0.26-0.18,0.56-0.31,0.84
	c-0.29,0.13-0.58,0.15-0.88,0.08c-0.13-0.33,0.04-0.7,0.09-1.05c-0.21,0.37-0.42,0.53-0.63,0.62c-0.27,0.1-0.53,0.08-0.8,0.14
	c-0.02,0.01-0.04,0.01-0.07,0.01c-0.46-0.79-0.89-0.64-1.61-0.97c0.32-0.61,1.47-0.19,2.14-0.08c-0.19-0.18-0.2-0.38-0.11-0.57
	c0.64-0.03,0.83,0.16,0.54,0.55c0.49-0.16,2.03-0.73,2.51,0.36C277.14,76.29,277.29,76.7,276.81,76.63z M278.36,74.07
	c-0.2,0.36-0.1,0.7-0.07,1.04c-0.22-0.21-0.43,0.21-0.65-0.17c0.83-0.89-0.79-0.32-0.57-0.98c0.44,0.3,1.4-0.55,1.51,0.32
	L278.36,74.07z M279.2,73.76c-0.22-0.14-0.21,0.57-0.64,0.06l0.41-0.5C279.08,73.46,279.3,73.59,279.2,73.76z"/>
</svg>
