<svg version="1.1" xmlns="http://www.w3.org/2000/svg" xmlns:xlink="http://www.w3.org/1999/xlink" x="0px" y="0px"
	 width="1086.6px" height="180.9px" viewBox="0 0 1086.6 180.9" >
	<path  d="M49.8,33.9c1.8,0.3,1.1,0.5,2.8,1.5c0.9-0.8,0-1.2-0.7-1.6c1.2-0.5,2.4-0.7,3.7-0.6c2.2,0.1,4.4,0.7,6.5,0.8
		c0,0,0,0,0,0c-2.5,1.8-5.7-0.5-8.2,1.4c1.5,0,3,0.1,4.6,0.7c-1.4,1.1-3.3-0.3-4.4,2.5c-1-0.7,0.3-2-1.3-2.6
		c-0.5,0.8-1.2,0.6-1.7,1.5c-1.1-0.3-0.4-1.1,0-1.8c-0.9-0.5-1.5,0.9-2.5-0.1c0,2.1-2.8,1.5-2.6,3.5c-2.4-0.6-0.4-2.3-2.3-3
		c-1.4,1.5-5.3,1.1-5.8,0c-2.1,1.9-2.6-0.3-4.7,1.3c-1.2-1,1.1-0.8,1.2-1.8c-2.6-0.8-4.5,1.4-7,1.1c-0.6,1.3-0.7,1.7-0.4,3.4
		c-1.4,0.1-3.7,1.5-3.4,3.3c-1.9-0.1,0.6-1.6-1.3-1.8c-1.3,0-2.1,1.6-3.6,0.8c-1.2,1.3,0,1.8-1.5,2.3c-1.6-0.7,1.2-2.8,0.6-3.9
		c0.6-1.3,2.5,1.6,2.9-0.5c-0.8-1.4-3.9-0.2-5.2,1.3c-1.6-0.2-0.9-1.2-2.2-1.5C11.6,42,8,44.9,6.9,43.6c-0.8-0.1-0.5,0.8-0.1,1.1
		c-1.4,0.8-2.6,1.8-4.6,0.6C1.7,47,0.5,46.5,0,48.1c1.3-1.8,4.1,1,5.2-1.6C6.9,47.7,5.5,49,8.6,49C7.1,52,5.7,49.9,5,50
		c-1,2.2,1.9,0.6,2.4,2.1c0.4-1.3,1.2-1.6,2.3-0.9c0.6-1.6,1.8-1.1,1.4-2.4c-1.5-0.3-2.3,1-2.5-0.9c0.7-0.9,2.2,0.7,2.8-0.7
		c1.1,1-0.5,2.1,1.9,1.9c-1.5-2,1.7-0.6,3.1-1.1c0.3,0.3,0.5,1.6-0.1,2c1.4,0,3.9,0.9,5.2-0.3c2.3,2.4,4.1-0.2,6,2.1
		c1.8-1.2,1.1-2.6,3.3-3.2c0.6,0.4-0.3,1.3-0.7,2c2.2,1.6,3.5-0.2,5.4,0.2c0.4-1.1-0.1-1.3-1.1-1.1c0.6-2,2.7-0.8,2.2-2.5
		c0.2,0.3,1,2,1.9,0.9c1.1,1.1,0.1,0.9-0.7,2c2.3,0.6,4-1.5,6.6,0.4c-0.1-3.8,3.2,0.9,4.3-2.5c0.1,2.2,1.8,0.4,2.4,1.9
		c-1.3,0.6-2.6,1.4-4.4,0c-0.6,3.2-4.7,1.8-7.5,0.8c0.1,1.1,0.2,2.1-1.1,3.6c2.9-4.4,11.9,2,14-5.1c2.5-0.3,4.8-1.4,7.4-0.8
		c0.4-1,0-1.3-1-1.2l1.9-2.6c0.7-0.4,1.5-0.2,2.4,0.2c-0.9,1.3-2.3,0.4-3.1,2.4c1.3,0.7,2.4,0.3,3.7,1l1.3-1.7
		c0.6-0.2,1.3-0.1,1.9,0c0.9,0.7,0.1,1.6-0.7,2.6c2.9,0.1,0.9-3.6,4.2-3c0.2-0.6,0.1-1.2-0.7-1.7c0.7-0.7,1.4-1.2,2.2-1.1
		c-1,3.3,5,3,7.2,4c-2.1,1.3-7.9,0.3-7.2,2.9c-2.2,0.5-4.7-0.3-6.8,0.6c0.1,2,2.8,0,4,0.6c-1.6,1.3-1.7,0.5-2.6,2.7
		c-1.5-2.8-2.2,0.1-3.6-2.8c-1.6,1.6-0.5,2.7,0.3,3.9c-1.3,0.9-1.8-1.3-2.6-1.6c-0.7,1-1.7,0.8-2.3,2.4c-1.5-0.3-0.7-1.3-1.9-1.7
		c-1.3,2.1-0.9,0.3-2.7,0.3c-1.5,1.5-3.4,1.1-4.9,2.7c-1.7-0.4-0.2-1.6-0.9-2.3c1.7-1,5.4-0.3,4.5-2.9c-1,0-1.8,1.6-2.7,2.1
		c-0.2-0.4-0.4-0.9-1-1.2c-1.3,1.9-1.6,2.1-3.3,1.2c-1.8,1.8,0.8,2.4-1,4.2c-0.3,0.3-0.7,0.2-1,0.6c-1.6-0.6-0.5-1.8-0.6-2.7
		c-1.4-1.4-2,0.4-3.3-0.5c-0.7,0.7-0.2,1,0.3,1.4c-2,1.5-5.1-1-6.5,2.8c-4.4,0.1-7,2.5-11,1.3c-0.7,2-2.3,1.3-3.5,2
		c0.1,1.8,0.7,1.9-0.2,3.4c2.2,0.8,2.1,0.4,3.7,1.6c0.3-1.9-0.3-1.3,0.6-3.2c1.5-1,3.4-0.3,4.5-2.5c1.3,0.9-0.9,3-0.8,4.3
		c1.1,0.6,3.5-1.4,3.8,0.6c2.6-0.2,4.4-3.4,7.5-1.6c-1.2,1.5-2.8,1.3-4,2.7c1,0,1.9-0.7,3.3,0.5c0-1.5,0.3-1.7,1.4-0.4
		c2.2-3.3,5.8-0.5,8.4-2.1c1.6,0.3,0.2,1.4-0.2,2.2c1.2,1,1.9-0.5,3,0c-0.9-1.1-1.2-2.3-3.4-3.1c-0.2-0.5-0.2-1.2,0-1.8
		c0.8-0.3,1.8-0.2,2.6-0.3c0.6,0.6-0.5,1.6,1.2,1.9c0.8-0.8,0.5-1.3,0.7-2c0.4-0.4,1.1,0.2,1.5-0.4c1.2,1.2-0.6,1-0.3,2.2
		c-0.9,1.2-2.4-0.6-3.2,1.2c5.8-0.6,11.4-1.8,17.1-2.5c5.7-0.6,11.4-1.2,17.1-1c0.3-3,4.2-2,5.1,0c0.5-1.6-0.8-2.9-0.2-4.6
		c2-1,2.2,1.8,4.1,0.5c0.4,0.4-0.3,1-0.6,1.5c1.8,0.1,3.5-1.7,5.4-1.1c-1.7,4.1,4.5,1.4,7.6,3.9c1.4-0.8-0.3-1.4-0.9-2
		c2.9-0.2,1.7,0.4,4.4,1c0.4-0.6-1-1.1-0.5-1.7c0.7-0.3,1.4-0.1,2.2,0.5c0.1-0.7,0.4-1.4,1.3-2.2c1.5-1.3,1.2,1.7,2.9-0.3
		c0.6,0.6,0.3,1.4-0.6,2.2c4.3,0.6,3.7,1.7,8.9,0.2c0.3,0.6,0.3,1.1-0.3,1.8c3.2-2.3,6.6-0.5,9.8-2c0.2,0.5,0.4,0.9,0,1.4
		c1.3,0,2.6-1.2,3.8-2.7c1.1,0.6,1.2,1.3,0.1,2.1c4.2-1.2,8.5,2.7,12.6-1.2c1.3,0.8-0.3,1.6,1.1,2.4c-0.7,0.7-1.4-0.5-2.1,0.8
		c3.3-0.7,7.4-2.9,11.5-1.4c0.5-1.6-2.7-1.1-0.7-2.8c1.8,1.5,3.3,2.7,4.8,2.1c1.1-2.2-1.5-0.2-2.4-1.1c1.3-1.6,2.6-0.7,3.9-1.1
		c0,1.2-0.3,2.3-0.8,3.5c3.5-0.5,6.1-3.1,10.1-1.8c0.3,0.5-0.5,0.9,0,1.4c0.6,0.7,1.1,0.3,1.7,1.1c1.3-1.3,0.7-1.4,2.2-2.1
		c0.1,0.7,0.4,1.4,1.3,2.1c1.8-0.7,3.5-0.2,5.2-0.2c0.8,0.9-1.1,1.2-1.4,0.7c1.2,2.2,4.2-0.3,5.3-2.3c1.7,1,0.1,1.9-0.8,2.8
		c2.4,0.1,5-2.8,7.3-1.6c0.7,0.5-0.7,1.7-1.2,1.1c0.5,1.2,1.6,1.7,3.1,1.8c-0.5,0.1-2.1,0.4-0.8,1.4c-0.7,0.4-1.3-0.9-2.1,0.6
		c1.1,1.3,2.3,0.1,3.4,0.8c-0.4-1,0.6-2.7,1.8-1.7c0.4-0.7-0.6-0.3-1-1.1c1.4-0.6,2.8-0.7,4.3-2.6c1.6,1-0.9,1.8,0.5,2.8
		c1.1-1.1,2.8-1,2.9-2.7c2.9,0.6,6.2,1.6,8.2,1.1c0.1-0.8-0.2-1.7,1.2-2.4c1,2.1-1.1,3,1.8,3.6c-1,1.4-1.8,0.3-2.8,0.5
		c0,1.8,3.2-0.1,4.4,0.6c0.2-0.6-0.3-1.2,0.5-1.7c1,0.8,1.8,0.3,2.6,2.3c1.4-0.8,0.5-1.6,1.9-2.4c1-0.2,1.8,3.2,3.7,0.6
		c0.9,0.8,0,1.4,1.2,2.2c-0.9,0.9-1.6,0.5-2.4,0.2c4.8,3.7,13.1,0.9,19.2,2.3c0,0.9-0.7,1.8-1.6,2.7c1.2,0.5,2.5-0.5,3.7,0.6
		c1-0.8,0.7-1.6,0.6-2.4c3,0.2,8.2,3.9,11.6-0.5c0.9,1.7-1.3,1.2-1.2,2.4c2.2,0.2,2.7,0.2,4.4,0.7c0.4-0.6,0-1.2,0.5-1.7
		c2.3-0.5,5.7,3.8,7.1,0.9c0.7,0.9,0.3,1.7,1.5,2.6c1.1-0.3,2.2-1.9,3.1-0.1c1.9-3.6,5.7,1.3,8.6-1.1c-0.3,0.7,1.1,1.5,0.5,2.2
		c1.8-0.6,3.6-1.8,5,0.7c0.8-0.9,1.5-1.2,2.2-1.3c0,0.5,0.1,0.9,0.5,1.5c0.4-1.1,2.3-1,1.4,0.1c1.1-0.9,2.9-0.6,4.7,0.4
		c-0.3-1.5,0.6-1.6,1.9-1.6c0.3,0.5-0.4,0.9-0.8,1.3c1.6,0.7,3.4,0.1,5,0.8c-1.5,1.6-1.7-0.5-2.5,1.6c1,0.4,1.9,1.1,3,0.6
		c0.3,0.6-0.7,1.1-1.2,1.7c-1.2-0.1-2.2-2.5-3.7-0.7c1.5-0.3,0.6,2.4,2.2,1.9c0.3,1.6-1,1.7-2.2,1.9c-0.5-0.9,0.4-1.6,0.6-2.4
		c-1.2-1.1-1.8,0.7-2.5,1.6c-1.1-0.1-2.3,0.4-3.3-0.9c2.5,0.5,2.1-2.1,3.9-1.5c0.8-1.2-2.1-0.8,0.2-2.1c1.4-1-0.5,2.2,0.9,1.1
		c1.9-1.4,0.3-0.8-0.5-2.2c0.5-0.1,0.9-0.3,1.4,0.1c-1.3-1.4-5.9,0.3-8.4-1c0.5,2.1-1.3,0.3-1.6,2c1.6,0,3.2-0.1,4.9-1
		c0.4,4.7-5,2.9-6.9,4.1c-2.3-1.9,0.2-3.5-1.2-5.4c-0.3,2.3-2.2-0.8-3.5,1.2c1.1-0.3,4,0.7,2.8,2.7c-1.7-2.4-1.9,1.1-4.4-0.7
		c-1.3-1.2,0.6-2.1-0.7-3.2l-1.9,1.6c0.5,0.5,0.9,1,0.5,1.5c-3.3,1.5-6.4,0.6-9.6,1.4c0.9,1.7,2,0.5,2.9,1.3c-2,1.1-5.5,1.7-6-1.2
		c0.9,0.3,1.8,0.1,2.8-1.2c0.5-1.3-1.6-0.6-0.8-1.8c-2.2,0.2-4.2,2.9-5.4-0.4c-0.9,1.4-1.6,0.4-2.4,0.2c0,0.6-0.8,1.1-0.5,1.7
		c-2.4-1.4-6.9,0.8-8-2c-1.5,0.1-3,0.6-4.5,0.7c0-0.6,0.2-1.2,0.5-1.7c-1.2-0.8-1,1.3-1.8,1.6c-1.3-1.3-0.4-2.4,0.3-3.5
		c-1.5-0.7-3.5-0.1-3.9-2.4c-0.6,1.4,0.6,2.9-1,4.2c2,1.2,1-3,3.5-1.2c0.3,1.4-0.3,2.2-1.6,2.7c-2.6,0.5-4.9-3.1-7.6-2.3
		c-0.8-2,1.2-1.1,2.2-2c-1-1.1-2.3,0-3.4,0.5c0.1,0.5,0.1,0.9,0.6,1.4c-0.9,0.3-1.2-0.9-1.4,0.6c-1.8-1.6-4,2-5.7-1.4
		c-0.3,1.6-3.2,1.7-3.4-0.2c-1.3,3-4.5,2.6-6.6,1.4c-0.7,0.4-0.3,0.9-0.8,1.4c-1.7-1.3-3.7-0.3-3.5-2.7l-2.5,2.3
		c-2.2-1.3,0.9-2.3-0.4-3.5c-1.6,1.4-3,1-4.4,0.2c-0.3,1.2-1.8,2.3-2.3,3.4c-0.9-1.4,1.8-2.7,0.3-4.2c-0.2,3.4-4.6,3.1-6.6,1.5
		c-1.8,0.6-1.7,2.7-3.5,2c0.1-1.2,1.5-2.6-0.6-2.1c-0.3-1.1,0.7-2.1,1.9-3.1c-0.2-0.4-0.4-0.2-0.7,0l-0.6-0.7
		c-1.1,0.9-0.4,1.9-1.5,2.8c-1.8,1-1.4-1.8-3.3-2.9c-1.3,1.4-2.5-0.7-3.8,0.3c1.3,2,2.7,1.6,4.1,0.8c0,0.8,0.7,1.7,1.6,2.5
		c-1.5-0.4-1.3,1.2-3-0.4c-1.6,0.7,0.8,1.4-0.8,2.1c-1.4-1.8-4.6-1.4-7.1-1.9c-0.4,0.9,2,1.2,2.7,0.8c0.4,2.8-3,2.3-4.5,1.7
		c-1-1.7,2.4-0.1,1.4-1.4c-1.7-1.9-1.4,1.2-3.1,0.3c2.1-3.4-5.2,0.4-7.4-2.8c-0.8,1.5-3.4,2.3-5.2,3.9c0.2-3.1-5.3-0.4-6.1,0.7
		c-0.5-0.5-1-0.9-0.7-1.4c-0.6,1.1-2-0.1-3.4,1.5c-1.1-2.5-2.4,0-4.8,0.8c-0.5-0.8,0.3-1.6-1-2.4c-4.2,2-6.5,0.3-10.9,1.8
		c-0.5-0.9,0.3-1.8-1.1-1.7c0,2.8-2.3,1.3-3.4-0.5c0.8,2.1-1.4,3.8-3.3,3c-0.7-1.7,2.1-0.1,1.6-1.9c-0.6-0.6-1.2-0.2-1.8-0.9
		c-0.5,0.9,0.4,1.7-1,1.8c-0.4-0.6,0.8-1.2,0.3-1.8c-2.2-0.8-2.9,0.3-2.7,1.6c-1.7,0.7-0.1-2.2-1.8-1.6c0.3,1.7-1.1,2.4-2.6,3
		c-0.7-2-1.1,0.1-2.5-1.5c0.1,1.5-1.6,1.5-2.7,1c-0.2-0.8,0.7-0.5,0.2-1.8c-0.4,2.3-5.9,0.4-4.9,3.7c-1.3-0.9-2.3,2.4-3.7,1.4
		c-1.1-1.4,1-1.2,1.8-3c-1.3-0.4-2.5,0.5-3.8,0c-0.1,4.4-5,3-6.2,4c0-1.3,1.6-2.1,2.1-2.8c0.7,0.4,0.5,0.9,0.1,1.4
		c1.6,0.6,0.9-1.2,2.6-1.8c-2.3-0.2-2.8,0.4-5.1-2.1c-1.3,1,0.3,1.6-0.1,2.5c-2.3-2.2-10,1.6-13.1,1.2c-0.4,0.3-2.6,1.9-1.4,2.7
		c-1.5,1.9-3.6-0.8-3.2,2c-1.2-0.7-0.2-1.9-0.4-2.8c0.5-0.5,1.2,0.4,1.9,0.7c0.9-1.6-1.2-2,1-3c-1.8,0.3-1.8,1.3-3.8,2.9
		c-0.2-0.4-0.3-0.9-0.9-1.2c-0.9,1.4,0.9,0.7,0.7,2.4c-0.9,0.8-2.1-0.2-2.9,1.6c5.5,0.7,10.6-0.2,15.9-0.6c1.6,0.5-0.7,1.5,0.9,2
		c1.3-0.2,0.8-1,1.5-2c1.5,1.2-0.5,2.9-1.5,4.5c-2.8,0.3-6.6-2.4-9.9,0.5c-1,0.3-2.2-1-3.2-0.5c1.2,1.4,0.9,1.2-1.2,0.9
		c-1,0.9,0.2,1.4-0.3,2.2c-3-2.2-3.2,0-5.5,0.3c-1.1-0.5-0.4-1.4-1.7-1.8c0.4,1.5-0.4,2.7-2,2.2c-1.1-0.5,1.4-1.7-0.4-2.1
		c-0.3,0.8-0.8,0.6-1.3,0.3c0.1,0.6-0.2,1.2-0.7,2c-3-0.1-4.5,0-7.2-1.1c0.1,3-2.4-0.2-3.4,1.9c-1-1.1,1.2-0.7,1.3-2.1
		c-1.2,0.4-2.4,1-3.8,0.6c-0.6,0.5-0.8,2.5-1.7,1.8c0.9,1.7,0.4,1.5-0.9,3.5c2.4-1.1,4,0.9,5.7-1.1c1.6,1.2-0.5,1.4,0.9,2.3
		c1.1-1.3,0.9-2.4,0.3-3.3c0.7-0.7,1.5-0.5,2.1-1.6c0.6,2.2,2.4,0.6,3.5-0.1c1.2,1.3-1.1,1.6-1,3.5c1.3,0,1.2-0.6,1.7-1.9
		c0.5,0.4,1.8,1.6,3.7,1.3c-0.2-0.9,0.7-2.1,1.4-3.2c0.6,1.1,0.4,2.3,2,3.2c0.7-1.2,1.8-0.2,2.6-0.5c-0.2,0.9,0.7,1.5,0.8,2.3
		c3.4-1.3,7-1.4,10.6-1.3c1.6-2.6,4.1,0.2,5.8-1.7c3.9,3.1,8.2-3.3,11.1,0.9c0.5-1.4,1.3-0.6,1.8-1.7c1,1.2,1.9,1.2,2.8,1.8
		c-1.3,1-2.5-0.3-2.8,2.1c0.4-2-0.9-0.8-2.1-1.1c-0.6,1.6,0.6,1,1.4,1.2c-1.3,1.9-2.9,1.1-4.5,1.3c-0.7-0.6,1.3-1.4,1.9-1
		c-0.8-1.7-3.9,0.6-5.6,0.4c0.9,1.2,1.5-0.5,2.4,0.7c-3.1,0-3.9,1.9-6.6,2.7c-1.1-0.7,1.9-1.9,0-2.5l-1.1,1.6c-3-1-6.2,0.9-7.9,2.5
		c1.5-2.3-1.4-1.1-3.2-1.2c0,0.9-0.7,1.9,0.6,1.7c-1.7,3-2.8-0.9-4.4,1.5c-1.1-0.9-0.9-2-0.9-3c-1-0.3-2,2.2-1.8,2.8
		c-1.1,1.1-4.3-1.3-4,1.3c-0.6,0.1-2.9-0.3-2.6-1.2c-0.9,1.9-4.3,3.2-7.5,2.5c1.5-1.2,1.4-0.8,2.3-3.1c-1.2-0.5-2.4-0.7-3.7-1.3
		c-0.8,0.6,1.6,2.2,0.1,1.8c-0.1,1.9,1.4-0.4,1.9-0.5c0.8,2.2-2.6,4.5-4.8,2.7c-2.1,0.5-3,5.5-5.7,3.9l-0.9,1.7
		c-1.2-0.3-0.3-1.4-0.6-2c-1.4-0.2-1.9,2.8-3.6,1.8c-1-1.1,0.9-1.2,1.1-2.2c-3.3,2-6.1,4.3-9.2,2.6c-1,0.5-2.1,0.6-2.6,2.5
		c0.9,0.3,1.3,0.8,0.9,1.5c-1.8-1.2-4.3,2.2-7.2,1.2c0.4-1.1,0.8-2.2,1.8-1.8c-1-0.9-4.3,0.3-6.1,0.8c-0.8,2.1,1.1-0.4,2.2,1.1
		c-0.6,1.5-2.1,0.8-2.6,2.5c0.4,0.4,0.6,1,0.3,1.8c1.1,0.6,1.1-0.4,1.7,0.8c-0.4,0.3-0.7,0.5-0.9,1.2c-2.5-1.8-2.7-0.9-5-1.2
		c0.4-2,2.4,0.1,2.7-2c-1.2-0.9-1.6,0.2-2.7-0.7c1.1,1-1.2,3.3-2.4,3.7c-0.5-0.3-0.1-1,0.1-1.5c-1.4-1.2-1.7,0.6-3-0.2
		c-0.2,0.9,1.4,0.9,1.4,1.7c-1.6,2.1-4.4,1.4-6.2,3.1c0.8,1.7,1.4-0.9,2.7-0.4c0.3,0.2,0.3,0.6,0.7,0.8c-1.8,0-1.7,1.5-3,2.8
		c0.9,1.7,2.1,0.5,1.9-1.2c1.8,0.2-0.4,2.5,1.4,1.6c-0.5,1.4-2.4,2.6-0.2,3.5c0.8-0.4,0.8-1.3-0.4-1.7c0.2-0.5,0.9,0,1.5,0.1
		c0.8-1.2,0.1-1.8,0.5-2.9c1.8-0.7,3.8-0.9,5.1-3c3.5,2.3,4.5-1.5,7-1.6c0.9,2.7-2.9,2.4-2.2,4.8c2.8-2.5,5.7-0.9,8.4-4.8
		c1.4,1.1,2.4,2.1,3.2-0.4c1.3,1.1,1.5,2.9,0.4,3.9c0.8,0.7,0.9-0.5,1.6-0.2c-1-0.9,0.5-2.7-1.1-3.3c2.7,0.9,3.9-2.3,6.1-2.6
		c-2.3,2.4-3.5,4.5-4,4.8c1.7,2.1,4-2.6,5.6-3.9c0.7,1.7,2.6,0.6,3.6,0c0.1-0.5-0.7-0.8-0.4-1.3c0.3-0.3,0.6-0.2,0.8-0.6
		c0.3,0.5,0,1.2,0.8,1.6c2.5-0.7,4.6-2.9,7.1-3.9c0.3,0.3,0.2,0.7,0.6,0.9c-2.5,1.5-3,3-5.3,4.5c2.5,0.9,4.2-1.1,6.5-0.9
		c0.4-1.4-1-0.1-1.6-1c0.3-1,0.8-1,1.2-1.5c1.6,0.6,1.1,2.6,2.5,2.2c0.4-0.7,0-1.2,0.5-2c-0.4-0.2-0.6,0.3-0.8,0.6
		c-0.9-0.6-1.5-3.3-1.6-1c-2.3-1.3-0.4-2.7,0.9-2.8c-1.2,1.5,2,0.7,1.3,2.5c1,0.4,1.2-2.2,2.1-1.9c1.2,1.1-0.7,2.5-1.6,2.9
		c-0.5,1.1,1.2,1.6,0.7,2.7c1.3,0.6,2-1.2,3.4-0.5c0.3,1.5-0.9,1.3-1.1,3.1c1.6,1.7,2-1.2,3.5,0.2c0.2-1.4-1.5-0.3-2.3-1.6
		c0.9-0.2,1.7-0.6,2.8-0.3c-1.7-1.1-1.1-2-1.2-3.7c0.2-0.3,0.6-0.1,0.8-0.6c1.5,0.4-0.4,1.5,1.1,1.9c0.8-2.5,8.2-2.6,8.2,0.2
		c0.5-1.5,1.7-1,1.4-2.5c1.8,0.7,0.9,2,2.1,2.8c-1.6-0.1-2.8,1.7-4.4,1.3c1.2,1.2,4.7,0.7,6.5-0.3c0.7,0.6-0.2,1.5,1,2
		c1.1-1.3,2.2-2.7,4.4-1.2c-0.1-1.8,1.2-1.8,0-3.6c1.1,1.3,1.9-1.1,3.7,0c-1.3-2.4,2.3-1.5,2-3.2c2.4,0.7-1,2.3,0.8,3.1
		c0.7-1.5,1.6-1.7,2.6-1.4c0.2,0.8,0,1.6,0,2.5c-3,1.3-6.2,0.7-8.2,2.8c0.9,1.2,1.3-1,2.3,0.6c3.3-4.8,8.1,0.9,11.6-2.8
		c2.1,1.5,4.8,1,7.3,0.7c2.5-0.4,4.7-0.5,5.8,1.3c1.2,0.2,2.5,0.1,3.7,0.4c0.4-2.7,2.7-1,4.2-1.8c0.2,0.6-0.3,1.2,0.4,1.7
		c0-1.8,2.2-2.1,2.1-0.6c3.2-2.4,6.8,0.5,10.2-1c-1-0.9,0.7-1.7,1.2-2.2c0.6,0.8-1.2,1.7-0.8,2.5c3,1.6,5.7-0.9,8.6-1.1
		c0,2.6,3.5,2.7,4.1,1c0.6,1.3,1.2,0.4,1.9,1.4c1.5-3.9,7.9,1.3,11.6-1.9c2.7,3.9,8-2.5,10.1,1.4c-0.9-0.4-1.9,0.2-2.8,0.3
		c0.7,1.9,3.9-0.8,6.3,0c1,0.4,4.6,2.6,4.8,0.5c0.7-0.8,1.2,1.1,1.9,1.5c2.3-1.3,4.5,0,6.8-1.6c2.5,1.4,8.3,1.2,12.5,1.6
		c13.7,1.6,27.5,3.2,41.2,4.7c14,1.6,28.1,3,42.1,4.1c28.1,2.5,56.3,4.3,84.5,6.1c56.5,3.3,113.1,5.3,169.9,8
		c0.9,0.9-0.1,1.6-0.7,2.4c-8.2-3.1-17.2,0.5-25.4-2.2c-0.8,1.4-1.2,1.2-2.6,1.5c-0.3-0.7,0.6-0.2,1.1-0.9c-1.2-1-2.9,1.5-4-0.5
		c-1.1,0.8,0,1.9-1,2.7c-3.2-3.7-9.1-3.1-14-1.6c-3.7-0.8-7.4-2.2-11.4-0.5c-0.4-0.4-0.4-0.7-0.2-1.1c-6.1,1.6-14.2-1.6-18.3,0.8
		c-0.8-1,0-1.3-1.2-1.5c-0.4,0.4,0.2,1,0.5,1.5c-7.3-2.9-13.8,1.1-21.3-2.3c-0.9,2.3-4.5-0.2-6.4-0.3c-3.1-0.2-5.5,2-6.7,0
		c-2.9,1.3-5.5,1.2-8-0.8c-1.6,0.5,0.7,1.5-0.9,2c-0.4,0.8-2-1.3-1.2-1.5c-2,1.7-3.6-0.1-5.5,0.9c-0.6-0.5-0.3-1,0.2-1.4
		c-2.6,1.7-4.7,0.2-7.2,1c0-2.7-0.1-0.3-1.8-1.6c-0.1,0.9-1,1.7-1.9,1.6c0-0.6-0.3-1.2-0.8-1.9c-1.8,2.5-4.8-1.3-8.2,1.3
		c-0.5-0.6-0.5-1.2-0.1-1.8c-4,0.6-13.1-0.8-14.2,0.8c-2,0.2-3.8-2.2-6.1,0.1c-1.7-1.8-4.9-3-5.9-1.3c-12.5-2.1-24.1-0.9-37-2.9
		c-0.7,0.4-0.4,0.9-0.8,1.3c-0.9-1.1-1.3-0.7-2.8-2c-7.2,1.8-16.5-2.9-24.9,0c-0.6-0.6-0.2-1.2-0.8-1.8c-3.2,0.1-6.4,0.9-9.4-0.1
		c0,1,0.6,4.1-2.5,4.8c-0.8-1.5,0.1-2.2-1.7-3c-0.4-1.1,2-2.4,2.4-0.9c1.4-1.6-2-2.6-1.9-0.9c-4-2.9-8.6,0.7-12.5-2.4
		c-1.1,2.4-3.9,1.4-5.6-0.8c-0.7,0.4-0.5,0.9-0.1,1.4c-3.7-1.4-7.5-0.7-11.2-2.3c-0.4,0.6,0,1.2-0.5,1.7c-5.3-1.5-13.1,0.5-16.8-3
		c-0.3,0.3,0.1,0.7,0.2,1.1c-5.9-1-12-0.2-17.6-2.6c-4.2,1.4-11.1-0.5-16.2-0.9c-1.3,0.8,0.2,1.6-1.1,2.4c-0.4,0.1-0.9,0.3-1.3-0.1
		c1.4-3.8-3.9-1.9-5.6-3.1c-0.7,1.9,1.4,0.4,1.8,1.5c0.5,1.5-1.5,1-2,1.3c-1.9-4.6-6.4-2-9.4-3.9c-1.2,0.8,0.2,1.7-1.1,2.4
		c-0.4,0.3-0.8-0.5-1.3,0c-0.3-0.6,0.6-1.2,1-1.7c-0.9-1-1.9-0.9-2.9,0.3c-0.1,0.7,1,1.4-0.1,2.1c0.6,0.7,1.3-0.5,1.9,0.8
		c-1.1,1.4-2.1-0.6-3.2,1.3c-1-2.1-2.1-1.1-3.1-1.5c-0.2-1.7,2.1,0.4,2.9-1c-2-2.4,0.9-0.9,1.7-1.7c-3-2.6-2.8,0.3-5.6-1.6
		c-0.6,0.7,0.8,1.4,0.6,2.1c-0.3,0.3-0.6-0.2-0.9-0.4c-0.5,0.9-0.2,1.3,0.6,1.4c-1.6,1.9-3.2,1.1-4.8,3.1c-0.9-0.7-1.5-0.8-1.2-2.1
		c-1.3,0-2.8,2.9-4.1,1.7c-0.7-0.7,1-1.4,1.3-2.1c-1-1-1.9,0.8-1.6,1.7c-0.9,1.1-1.8-1.4-2.8-0.4c-0.3-0.7,0.7-1.4-0.6-2.1
		c-1.4,2.7-6.2,3.3-6.2,0.7c-1.3,0.3-2.7-1-4,1.2c-1.7-2.8-4.1,0.6-4.9-2c-1.5,4.3-5.8-2.1-8.2,1.3c-2.5-0.8-5,0.5-7.6-0.6
		c-0.9-0.9,1.5-0.2-0.1-1.4c-3.9,3.5-8.2-0.8-12,1.6c0.5,0.6,1,0.2,1.6,0.9c0.3,0.4-0.3,1,0.1,1.4c-1.8-0.1-3.7-1.7-5.5-1.6
		c-0.2,0.9,0.6,0.6,1,1c0.6,1.2-1.4-0.2-1.7,1.6c-0.2-0.9-0.5-1.2-1.3-1.3c-1.1,4.1-4.9-1-6.9,2.2c-1.2-0.8-1.3-1.7-0.3-2.8
		c-0.9-1.2-1.6,0.2-2.4-0.4c-0.2,0.6,0.6,1.1,1.1,1.6c-0.6,1.6-1.4,1.3-2.2,1.7c-0.5-0.6-0.3-1.4,0.3-2.2c-1.9,1.6-4.1,0.7-6.1,1.2
		c-0.4-0.6,0.5-1.5-0.9-2c-0.7,3.7-7.1,2.4-8.8,4.3c-0.9-1.6-3.2-0.7-1.6-2.6c-1.3-0.1-1.2,0.8-1.1,2c-1.2,0.5-2.1-3-3.5-1.1
		c0.8,1.1,1.2-0.2,1.9,0.4c-0.3,0.4-0.3,0.8-0.1,1.1c-2.9,0.3-6.2-1-8.4,2.5c-0.3-1.9-0.5-1.6-1.9-3.1c-0.6,1.2,0.7,2,1.5,2.9
		c-0.9,3.1-3.4-0.9-4.3,1.7c-2-0.8,0.1-2.7-1.2-3.7c-0.7,1.5,0.1,2.6,0,3.9c-0.8,1.5-1.4-1-1.9-0.3c-0.4-0.5,0.2-1.2,0.4-1.9
		c-1.1-0.2-2.4,1.1-1.6,2.2c-2.6-1.8-2,0.3-4-1.8c-1.5,1.9-1.8,1.4-3.9,1.2c0,1,1.3,1.6,0.2,2.8l1.8,1.3c1-0.3,0-1.9,1.6-0.5
		c0.4-0.6,0.1-1-0.4-1.3c1.7-0.5,6.9-2.5,6.8,1.1c0.7,0.7,0.9-1.3,1.3-1.7c1.3,1.2,0.8,2.5-0.1,3.2c0.7,0.3,3.5-0.6,1.9-1.9
		c1.1-0.8,2.6,0.4,3.4-1.9c0.7,0.7-0.8,1.9-0.3,2.6c1.3,1.1,3.5-2.2,3.4,1c0.9,0.6,0.7-1.3,0.3-1.5c1-0.3,2-0.5,3.2,0.3
		c0.2-0.6-0.3-1.1-0.1-1.8c0.5-0.7,1.4,0,1.9-0.7c0.2,0.6,0.1,1.2,0,1.8c2.2-1.9,4.7-2.2,7.2-2c0.8,0.9-0.9,0.3-0.9,1.6
		c1,0.8,1.6-0.9,2.7,0.6c1.5-2.3,2.3,2.6,3.8,0.4c-0.6-0.2-1.2-0.2-1.8-0.4c0.5-2,1.5,0.1,2-1.8c0.8,0.5,0.3,1.1,0,1.8
		c0.5,0.1,0.9-0.6,1.5,0.2c0.1-2.4,5.3-1.7,7.7-1.4c0.1,0.2,0.1,0.4,0.1,0.5c3.2-0.8,6.6-1.2,10-0.6c0.4,0.6-0.4,1.2-0.7,1.8
		c1.4,1.6,2.1-0.9,1.9-1.9c1.7-0.6,0.2,2.1,2,2.6c1.5-1-1.3-1.5-0.5-2.4c2.4-0.1,4.7-2.5,7.3-0.3c0.7-2.6,1.9-1.4,3.4-2.3
		c1.1,0.6,0.4,1.4,1.3,2c1.8-1.6,3.7-1.3,5.6-1.4c0.5,1.3-1.5,1-2,1.2c1.3,1.4,3.5,0.2,5-1.3c1.2,0.8-0.2,1.7,1,2.4
		c-0.8,1.2-2.1,0.4-2,1.9c3.7-0.1,6.1-1.1,9.5-3.1c1.7,1-1,2.1,0.3,3.2c3.2-0.3,6.4-0.8,9.6,1.2c1.6-2.3,2.7-0.4,3.6,0
		c0.6-0.7-0.4-1.4,0.6-2.1c2.3,2.3,7.9-1.5,8.2,1.8c3.7-0.4,9.1,1.9,12-0.1c1.9,2,3.9-0.1,5.8,2.6c1.4-2,2.7-0.2,4.2-2.3
		c1.1,0.8,0.3,1.4,1.1,2.2c7.3,0.4,14.7-0.2,22.1,2.5c0.2-0.7,0.8-1.4,0.3-1.6c5.9,1.5,12,2.8,18.3,1.8c1.6-0.8,2.9,1.9,4.5,1.7
		c0.3-0.4-0.4-1,0.1-1.4c1.9,0.8,4.4,1.9,7.3,0.5l1.8,2.3c6.9-1.4,13.6,0.4,20.3,1.9c0.2-0.3,0.1-0.7,0.4-1
		c11.6,2.4,23.5,1.6,35.2,3.5c2-2.1,9.9,0.6,15,0.9c2.8,0.2,5.1-1,6.9,0.9l1.5-1.3c1.1,2.7,4.4-0.6,6.5,2c5.8-2.1,13.6,1.6,20.5,0.1
		l1.2,1.5c8.8-1.8,17,1.9,25.9-0.1c3.5,2.5,7.7-0.7,11.2,1.8c2.5-1.9,4.4,0.8,6.8-0.7c6,2,12.4,1.7,18.7,1.2
		c13.7,1.9,27.8,0.2,41.5,2.2l1.5-1.3c0.6-0.3,0.5,0.7,0.2,1.1c7.5-0.6,12.7,0.1,20.3-0.6l1.1,1.5c1.4-0.1,0.8-2.5,2.8-1.1
		c0.3,0.7-0.6,0.2-1.1,0.9c0.9,0.5,2.3,0.3,2.5-0.8c54.3,4,107.7,1.3,162.2,3.6l1.2-0.9c7.2,1.7,15.1-1.2,22.2,1.5
		c1.4-0.3,2.8-2.6,2.8-0.3c1.2-0.9,4.3-1.4,6.1,0.1l1.5-1.2c2.5,0.4,5,1.1,7.8,0c12.1,2.8,25.2-0.7,37.1,3.9l1.5-1.2
		c1.8,1.9,5.5,1.7,6.8,0.2c0.5,0.7,0.1,1.2,0.7,1.9c1.2-2.5,2.2-0.8,3,0.1c3.5-1.9,7.3-1,11.6-0.5c0.5,0.7,0.4,1.3,0.1,1.8
		c1,0.4,1.5-2.4,3.2-0.6c0.4-0.3,0-0.7-0.2-1.1c1.1-0.5,1.9,0.9,3.2-0.6c0.6,0.6,0.2,1-0.2,1.4c1.3-0.8,3.6-1.6,5.7-1.3
		c0.7,1.9-1.2,0.8-2.3,1.8c4.3-1.3,8.4-1.6,12.6-2.5l1.4,2c-0.5,1.5,1.1-0.8-0.4-1.5c1.6-1.2,3-1.1,4.8-1.5c0.5-0.1,1-0.2,1.6-0.4
		c0.1,0.3,0.2,0.6,0.4,0.8c0.7,0.7,1.9,0.7,0.6,1.5c1.1,0.7,1.4-1.9,3.3,0.5c1.7-1.3-0.6-1.2-1.1-1.6c0,0,0,0,0,0
		c2.6-1.6,4.7,0.4,7.4-1.5c0.3,0.5-0.5,0.9-0.9,1.3c0.6,0.5,1.5-0.6,1.9,1c-0.4-2,1.3-0.6,2.7-2.1c5.5,3.3,13-3.4,17.6,1
		c0.5-1.1,1.3-1.6,2.2-1.9c1.6-0.6,3.6-0.3,5.1-0.6c-0.1,0.8-0.6,1.1-1.2,1.1c-1,0.1-2.3-0.4-3.2,0.4c0.5,0.7,1.1,0.5,1.5,1.3
		c-2.1,0.7-4.3,2.6-6.3,3c0.7-3.6-5-0.5-6.1-0.1c0,0,0.1,0,0.1,0c2.1,1.2,5.1,1.5,8,1c2.2-0.3,4.4-1.1,6.1-2.3
		c0.3,0.6-0.7,1.1-1.3,1.6c2.1-0.2,6.4,0.2,6.9-2.9c1.4-0.5,0.7,1.5,1.4,2c3.3-1.5,5.5-1.6,8.7-2.7c0.8-0.3,1.6-0.6,2.5-1
		c5.1,0.6,10.3,1,16-2c2.9,0.8,8-0.3,10.3-2.4c6.3,2.1,18.7-5.6,26.6,0.3c-1.5-4.7,5.3-2,5.4-6c1.7,0.5,4.2-3.4,5.6-0.6
		c7.7-3.2,14.8-2.8,21.3,1.3c1.1-1,2.2-2,1.9-3.3c1.2-0.3,2.2,0.4,3.1,1.9c1.3-1.5,2.2-0.6,3.2-0.6c0.7-1.9,1.6-1.5,2.6-3.2
		c-0.5-1-1.4,0.4-2-0.3c4.8-2,12.1-1.2,17,2.9c1-2.5,3-2.9,5.1-2.1c4.9-4.8,10.8-7,16.4-8.3l1.7,2.4c-0.3-2.3,3.2-1.4,4.9-2.5
		c0.1,0.5,0.2,1-0.2,1.4c4.1-0.4,7.9-0.5,11.5-2c0.8-0.3,1.6-0.7,2.4-1.3c5.2-0.2,12.2-0.6,16.8-4.3c3.4,0.7,10.4-2.8,13.3-4.1
		c5.1-2.2,9.5-3.9,13.5-7.3c-1.3-0.2-1.1-1.4-1.7-2.4c1.1-1,1.8,0,2.9-1c-1.6-0.9-2.5,0.4-3.2-1.2c-2,2.2-4.4-1.5-5.3,1
		c-0.9,0.6-1.3-1.6-2-2.1c-2.2,0.3-4.4,0.3-6.5,0.1c2.2-1.5,3.1-1.5,6.2-4.1c-8.1,0.1-19.1-0.5-29,3.2c-1,0.3-1.8-0.3-2.6-1.1
		c-0.2,0.6-0.1,1.2,0,1.8c-1-0.1-2.1,0.3-3.2,0.6c-1-3.4-5.6,1.4-7.8,3.5c-0.8-1.3,0.8-2.3,1.9-3.3c-1,0.3-2.3-0.8-2-2.1
		c1.9-1.3,2,0,3.4-2c-0.6-1.1-1.9,2-2.4,0c-1.3,0.5-0.6,1.3-1.7,1.9c-0.5,0.1-0.9,0.2-1.3-0.2c0.2-1.2,1.8-2.1,1.9-3.3
		c0.4-0.2,0.7,0.1,1.1-0.2c-1.1,2,2,0.7,3.3,0.5c0.6,0.7,0.1,1.2,0.7,1.9c3.1-0.7,4.2-4.3,6.9-4.7c0.1,1.3-2.6,2.2-3.6,3.4
		c1.2,0.2,3.9-0.3,3.4-2c3.1,1.6,6.8-1,10.3-2.4c-1.8-1.3-4.3,1.2-6.5,1.9c1.7-3.2,5.9-3.8,7.8-1.7c2.9-1.6,5.7-2.9,8.1-1.3
		c8.7-3.8,16.5-1.5,25.1-4.5c-1.5-1.9-3.5-0.9-4.9-3.6c-2,0.5-3.9,0.1-5.5-1.9c-0.7,0.4-0.4,0.9-0.9,1.3c-1.1-2.5-2.9-0.5-4.2-1.7
		c-0.5-0.9,0.4-1.6,1.4-2.3c-1.6-1.6-3.6-0.2-5.3-0.8c-1.2-1,0.9-1.5,0.1-2.5c-2.5-1.4-4.3,1.1-7.4,1.4c-0.6-2,3.1-3.1,4.4-4
		c-0.5-0.1-1-0.6-1.5-1.3c-0.4,0.3,0,0.7,0.2,1.1c-1.5,0.7-2-0.9-2.9,1c-0.5-0.7-0.1-1.2-0.7-1.9c-2.4,0.9-4.6,0.3-6.8-0.3
		c-1,0.8-1.1,1.7-0.5,2.8c-0.8,0.8-1.6,1.1-2.2,1.1c-0.5-1.5-0.5-2.9-0.6-4.4c2.8-0.1,7.2-2.4,8.4-5.2c4.3-0.3,8.6-0.9,12.5,0.8
		c-0.6-2.9,2.3-1.6,4-1.2c0.3,1.5-1.7-0.3-2.5,0.7c1.5,1.7,3.8-1.1,5.7-1.3c1.1,1.1-1,1.6,0.7,1.9c0.7-2.3,5.4-1.9,7.7-1
		c2.3-2,4.5-0.7,7.4-1.4c0.6-2.3-2.4-0.8-3.2-1.2c2.5-1.1,8.6-3.1,12.4-0.3c3.2-2.6,12.5,1.4,14.1-4.7c2.4,1.1,3.7-1.9,5.6-0.6
		c-0.1,1.2-1.4,0.7-1.4,2.3c5.7-1.8,11.5-4.8,12.5-9.5c-1.1-1.2-3.2-2.6-2.4-4.3c-2.7-1.9-7.3-2-7.5-6.5c-1.6,1.8-4,0.7-4.6,2.9
		c0.4,0.4,0.9-0.2,1.5-0.5c0.5,1.4-0.3,0.9-1.3,1.6c-0.7-1.5-1.5-1.9-2.4-1.8c-0.9-1-0.4-1.7,0.7-2.4c-0.8-0.3-1.7-0.1-1.8,0.8
		c-1.7-2.8-6.8-1.1-10.3-0.1c-3.3-3.6-7.8,0.4-12.1,2.5l-0.6-0.8c2.1-3.5,5.9-3.3,8.1-5.6c-0.5-1.1-1.3-0.3-1.8-1.7
		c-6.3,3.2-9.7,1.4-15.6,3.4c-0.2-0.4,0.1-0.7-0.2-1.1c2.1-0.2,5.4-1.6,6.7-3.3c-0.7-1.2-1.8,0-2.6-1.1c0.2,1.5-0.8,1.8-1.8,0.8
		c0.2,1,0,1.9-0.5,2.8c-1.8-1-6.4-0.3-5.9,2.7c-1,1,0-2.2-1.5-1.3c-0.1-0.7,1.4-0.6,1-2c-1.3-0.4-2.9,2.2-2.6,3.2
		c-1,0.4-0.5-1.9-1.3-2.7c-1.9,0.8-0.9,2-2.2,2.9c-1,0.7-1-1.2-0.4-1.5c-1.3-0.8-1.3,1.4-1.7,1.9c-0.4-0.2-1.6-1.3-1.7-2.4
		c1-1.2,1.7-0.7,2.6-1.4c-1.8-1.5-3.1,0.9-3.1,2.4c-2.4,0.1-4.6,0-6.6,2.6c-1.6-1.2,0.5-1.8-0.2-2.9c1.4-0.4,2.8-0.5,4.2-0.8
		c-1.1-1.6-0.8-3,0.7-4.2c-0.8-0.8-1.7-0.1-1.8,0.8c0.1-1.7-1.6-0.3-1.7-2.4c-2.1,1.7-3.8,1.4-6.4,1.2c-0.3-1.1,2.1-1.6,2.4,0
		c0.4-0.2,0.3-0.4,0.1-0.7l0.8-0.6c-1.1-1.4-2.7-0.3-4.1,0.1c-0.5-1.5,0.5-2.8,0-4.3c-0.9,1.4-0.9,0.7-2.4,1.8
		c-1.1-1-0.6-1.8-1.3-2.7c-0.9,0.5-0.8,1.1-1.3,1.6c-0.8-0.8,0.1-1.4-1-2.3c-2.1,0.6-4.1,0.1-6.1-0.2c-0.7-1.7,0.9-0.8,2.1-2.2
		c-0.8-1.1-2.2,0.9-3-0.8c-0.1,0.6-0.9,1-0.6,1.7c-4.7-1.9-10.2,0.8-15-0.8c-0.4,0.4,0.2,1,0.4,1.5c-0.9,0.8-1.9,1.5-2.6,1.4
		c-0.5-5.7-6.8,0.7-9.5-0.7c1.6-4.9,5-3.1,8-4.9c-1.3-1.3-3.4,1-3.5-1.6l-2.4,1.8c-0.7-0.7-0.5-1.3-0.7-1.9c0.9,0.2,2-1.3,2.8-0.3
		c-0.3-1.6,1-0.8,1.4-2.3c-1.1-2.9-3.7,3.1-4.8,0c-1.8,1.8-3.7,3.5-5.3,5.3c-1.2-1.1-0.4-2,0.5-2.8c-0.8-1.9-2.2-0.8-3.2-1.2
		c0.1,1-0.4,1.8-1.8,2.6c0.6,0.5,1.5-0.6,1.9,1c-1.3,0.7-2.4,0.5-3.4-0.5l-3.5,2.7c-0.2-2.1,0.9-1.6-1.4-2c-1.5-1.2,1-1.7-0.2-2.9
		c-1,3.3-2.7,2.1-5.2,4.6c-1.9-0.8-3.9-1.1-5.8-2.3c-2,3.1-4.1,3.5-6.7,5.1c-1.4-1.2,1.4-1.7,1.1-2.7c-3.1-0.1-6.9,4.3-8.6,6.6
		c3,1.2,4.7-3.3,6.8-4c0.5,0.7,0.4,1.3,0.1,1.8c0.8,0.8,2.4-1.3,1.7-1.9c2.4,3.1,9.1-4.6,12.4-0.3c-2.9,3.8-8.1,3.4-11.4,2.6
		c-2.8,4.6-7.5,3.6-11.9,3.6c1.5-2,2.4-3.5,3-6c-1.1,1.4-1.9,0.6-3,1.7c-2.5-4.1-4.4,1.6-6.9-2.1c-3.4,1.3-2.3,0.9-5.4,1.7
		c0.8,0.7-0.4,1.1,0.1,1.8c-1,0.4-1.8-0.1-2.9,1c-1.3-1.5,0.7-2.1,1.7-1.9c-0.1-1.6-4.2-0.1-4.4,1.5c-1.3-0.3-2.9,0.9-3.9-1.3
		c-1.9-0.4-4.4,2.9-6.1,1.6c-0.9-2.2,1.4-3.8,2.6-5.7c-2.5,0-3.9,2.7-7.2,1.8c-1-1.5-0.3-1.7-1.8-1.7c-1.3,1.2,2,0.7,0.7,1.9
		c1,0.3,2,0.6,3.1,0.1c0.2,1.9,0,1.6,1.8,1.7c0.3,0.5-0.5,0.9-0.9,1.3c-1,0.5-1.5-2.1-2.5-1.8c-0.1,0.6-0.9,1.1-0.6,1.7
		c-1.2,0.4-2.2-0.4-3.4-0.5c-0.4-1,0-1.3,0.9-1.3c0.7-0.3,0.2,0.6,0.8,1.2c0.3-1,1-2,0.2-3.2c-5.4,5-9.9,4.3-14.8,6.4
		c-0.4-0.5-0.9-1.1-0.4-1.5c-0.5,1.1-4.3,2.6-6.6,2.6c0-1.8,3.7-2.3,3.6-3.4c0.7,1.7,1.7,0.9,0.4-0.3c-4,1.2-7.6,1.7-10.5,1.3
		c-0.8-2.5,3.8-1.1,4-3.7c-1.3-0.1-1.6-0.8-2.5,0.7c-4.2-2.3-12.9,2.2-17.6,2.5c-0.9-1.1,2.9-1.5,1.1-2.7c-0.9,1.9-2.6,2.3-4.2,2.6
		c1,0.5,1.9,1.2,3,0.8c0.2,0.4-0.1,0.7,0.2,1.1c-2.2,1-3.8-1.8-6.3,0.5c-0.5-0.7-0.1-1.2-0.7-1.9c-1.8,1.4-3.2,0.1-4.9,0.7
		c-0.5-0.7-0.4-1.2-0.1-1.8c-0.7-0.6-1.7,0.9-2.3-0.7c-0.8,0.4-0.5,0.9-0.2,1.4c-6.2-1-10.5-0.8-16.7-0.6c-0.4-0.8,0-1.4,1-2
		c-1-0.3-2.1,0.4-3.1-0.1c-1.8,0.7,0.4,2-1.1,2.7c-1.3-1.6-3-1.2-4.8,0c-0.8-0.8,0.1-1.4-1-2.3c-0.7,0.7,0,1.7-0.7,2.4
		c-1.6-2.2-1.6,0-4.1,0.1c-0.8-0.8,0.1-1.4-1-2.3c-0.4,0.5-0.4,1.1,0.1,1.8c-2.3,0.8-6.5-2.1-6.2-4.4c-3.4,1,2.3,2.4,0,4.3
		c-1.2-0.2-0.7-1.1-2.1-2.1c-1.8,1.2-3.5-0.4-4.5,2.2c-1.5-0.1-3.2-0.1-3.4-2.3l-2,1.5c1,2,0.6-1.4,1.6,0.6c-1.3,2.5-6,0.1-9.2,1.6
		c0.7-1.3,0.5-2.6,2.2-2.9c-2.1-2.2-3.1,2.4-5.5,2.4c-1.2-2.4-3.1-0.6-4.8,0.1c-1.6-2.2-3.7-1.5-5.7-1.1c-0.3-1.6,1.8-0.3,2.6-1.4
		c-0.5-1.1,1.2-2,0.8-3.1c-2.1,1.9-4.8,1.9-6.8,4.1c-0.5-0.7-1.4-0.2-2.6-1.1c-0.5-2.1,4.1,0.1,1.8-2.6c1.2-1.3,2,0.6,3.2-0.6
		c-0.8-1.8-4,0.8-3.5-1.5c-1.3,1.1-2.4,0.5-4.4,1.5c0.5-2.8-1.9-0.3-3.4-2.2c-2.3,1.8-4.3,1-6.5,2c-0.2,1.4,1.3,2.7,2.5,1.8
		c-0.5,2.4-3.3,0.7-4.5,0.5c-0.2-1.1,0.9-2.1,1.4-2.3c-0.1-1.2-1.1-1.3-0.9-3c-0.5,3.1-2.1,0.6-4.2,2.6c0.5,1.9,1.6-0.1,2.2,1.4
		c-1.1,0-2.5,1.2-3.4-0.5c-0.2-0.7,0.6-0.2,1.2-0.9c-0.4-0.7-1.4-0.5-0.8-1.2c-1.1-1.2-0.8,2.2-1.7,0.1c0.2,1.2,0.7,2.5-0.5,3.5
		c-1.6-0.2,0.1-1.2-1-2.3c-1,0.7-0.8,1.6-0.7,2.4c-0.6,0.1-1.1-0.6-1.7,0.1c-1.6-1.8,1.4-2.9,0.4-4.6c-0.5,0.9-1.2,1.7-1.1,2.7
		c-1.4,1.4-2-1.8-3.5,0.2c-1.1-1-0.6-1.7-1.3-2.7c-1.7,1.2-3,0.2-4.4-0.2c-1.1,2.3-3.6,1.4-5.3,1.1c-0.8-0.8,1.9-1.2,0.3-2.1
		c-1.8,2-3.3,0.7-5.6,0.7c-1.5,0.6,0.4,1.7-0.7,2.4c-2,0.2-0.1-2.1-1.6-3.1c-0.9,0-1.3,0.3-1.6,1.2c-2.8-4.3-7.1,1.3-10.1-1.3
		c-1.5,2.2-2.2,1.8-4.6,3c-0.6,0-0.9-1.5-2.2-1.4c-0.1-1.8,2.1-0.7,3-1.7c-1.9-1.3-3.7-0.1-5.3,1.1c-1.6-0.8-0.7-1.5-1.6-3.1
		c-1.4,0.3-2.1-0.8-2.9,1l-1.1-1.6c0.3,2-3.3,2.3-4.4-0.2c-1.4,2.4-2.2,1.2-3.9,0.6c-1.5,1.1,0.1,0.4,0.5,1.5
		c-0.9,0.8-1.6-0.1-2.4,0c-1.1-1.8-0.2-1.7,0.4-2.8c-1.5-0.2-2.9-0.8-4-3c0.4-0.4,0.8-0.4,1.1-0.2c0-1.4-3.3-1-4.6-1.3
		c3.4,1.4,2.5,3.6,5.8,4.7c-3.5,2.6-3.4-2.5-5.9-2.2c-0.1,1.5,2.2,3.4,1.7,4.8c-0.7-1.4-3.1-1.4-3.6-3.3c-1.1,1.4-1.3,2.9-2.4,4.3
		c0.7-2.5-1-2.5-2.2-3.8c-0.5-1,1.7-1.7,0.4-2.8c-0.7,1.1-1.1,1-1.1,2.7c-0.9,0-2-1.5-1.5,0.5c-1-0.1-1.9-1.2-2.8-2.1
		c0.1-1.1,3.1,0.2,2.7-2.1c-2,1.1-10.5,3.2-8.5-0.7c-1-0.2-2.2,1.3-3.1,0c-1.8,3.2-5.1,0.2-8,3.2c-0.3-2.4-2.6-1.1-1.6-3.1
		c-1.1-0.7-1.1,1.7-2.7,2.1c-2.6-0.5-5-1.7-7.9,0.1c0-2-2.3-1.7-2.7-0.3c-0.7-2-1.9-0.9-2.8-2.1c0.2,1.2,0.7,1.3,1,3
		c-1.3,0.1-2.7-1.5-3.1-2.5c-1.7-0.5-1.2,2-3.4-0.4c-0.2,0.6,0.3,1.2-0.6,1.7c1.5-0.3,2.9,0.4,4.2,1.6c-2.5-0.3-4.9-0.8-7.4-0.9
		c-0.2-0.4,0.1-0.7-0.2-1.1c1.2-0.5,3.2,1.1,3.6-1c-1.6-1.3-3.5,1.4-5.7-1c-0.5,0.5-1.1,0.9-1.5,0.5c-0.4,0.6-0.4,1.1,0.1,1.8
		c-1.6,1-2.9-0.4-4.5,0.5c-1.1-0.8-0.2-1.4-1.1-2.3c-1.4,0.7,0.5,1.8-1.3,1.6c-1.2-1.1,1-1.6-0.8-1.9c-1,0.5,0,1.2-0.6,1.7
		c-4.7-4.7-11.6-1.2-15.6-3.7c-0.5-0.8,1.1-1.3,1-2c-1.8-0.9-4.2,2.1-5.7-1c-0.3,0.5-0.4,1.1,0.1,1.8c-0.8,1.2-1.4,0.2-2.2,1.1
		c-0.8-0.7,0-1.2,0.6-1.7c-0.9-1-2.1-0.1-3-0.7c-0.4,0.4,0.2,1,0.5,1.5c-0.8,1.1-1.4-0.2-2.1,0.4c0-0.6,0.6-1.1-0.1-1.8l-1.5,1.2
		c-0.9-0.8,0.1-1.4-1.1-2.3c-3.3,0.2-6.7,0.4-9.9-0.1l0.9,1.2c-0.9-0.1-2,1.4-2.8,0.4c-0.8-0.7,0-1.2,0.6-1.7c-1.9-1-5.7,0.4-6.7,1
		c-0.4-1.5-1.1-1.9-2.6-1c1.6,1.5,0,1.4-1,2c3.2-0.4,4.3,1.8,7.7,1.2c0.4-0.6-0.3-0.3-0.6-0.8c0.9-1.5,1.2,1,2.1-0.5
		c0.9,1.8,0.9,1.4,2.3,3.1c-3.8-1.9-9.5,0.5-12.1-2.1c-0.3,0.3-0.1,0.7-0.5,1c-1.4,0.6,0.5-1.3-0.8-1.9c-2.4,2.6-4.2,0.7-6.2,0
		c-0.8,1.9-2.2,1.6-3.6,1c0.6-1.3,2-2.6,1.2-4.1c1.1-0.3,2.7,0.4,2.9-1.1c-1.3,0.1-1.3-0.2-1.8-1.6c-0.7,1.5-1.6,1.1-2,2.2
		c-1.2,0.4-2.2-1-3.5,0.3c-1.1-2.7-4.2-1.6-6.8-0.8c0.2-2.1-1-2.1-3-0.7c-0.2-0.6-0.1-1.2,0.6-1.7c-2.1-1.2-4.7,0.9-6.9-0.1
		c-0.7,0.6,0.7,1.5-0.3,2.1c-0.8,0.9-1.1-1.9-2-0.2c-0.5-0.7-0.5-1.2-0.1-1.8c-1-0.4-0.2,1.9-1.8,0.9c-0.8-0.8-1-1.5-0.4-2.2
		c-1.8,0.9-4.7-1.3-5.6,0.8c-0.9-0.8,0.1-1.4-1.1-2.2c-0.3,2.2-1.8,0.2-1.7,0.2c-2.4,0.1-3.5,2.8-5.9,0.4c-0.7,2-3.4,0.8-4.9,0.9
		c0-0.6,0.6-1.1-0.1-1.8c-1.3,2.2-2.7-0.2-4.7,2c-0.7,1.4,1.5,2,2.2,1.3c0.6,0.4-1.7,1.5-2.2,1.2c-0.8,1.6,1.5,0.6,1.9,0.9
		c0.3,0.6-0.7,1.1-1.2,1.6c-0.6,0.1-1.7-2.4-3.4-0.4c-0.8-0.9-1.5-1.8-0.7-2.6c-1.1-1.4-2.6,0.4-3.6-1.5c-0.4,0.9-0.2,2.1-1.6,2
		c1-2.5,3.8-4.1,6.5-5.3c-1.1-0.4-2.1-1.2-3.2-1.8c-0.6,0.6-0.9,2.1-1.8,0.9c-0.4,0.5-0.1,1.2-0.6,1.7c-1.6,0.8-0.8-0.9-2.1-2
		c-0.1,3-6.1,2.8-6.5-0.3c-0.2,1.7-1.4-0.2-2.6,1.5c1,1.4,2.3-0.3,3.3,1.1c-0.2,1.3-2.9-0.2-4.1-0.4c-0.2,0.7-0.6,1.4-1.6,2
		c-0.9,0.7-0.7-1.2,0.2-1.4c-1.1-0.7-1.5,1.7-0.6,2.4c0.9-0.4,1.5,0.5,2.5-0.8c0.2,0.7,0.2,1.4,0.4,2.2c-1.7,0.9-3-1.5-4.7-0.5
		c-0.2-1.4,2.8-3.7,0.5-4.2c0.2,1.9-0.6,0.9-1.9,1.6c0-2.1,1.3-0.8-1.1-2.2c-0.3,1.3-0.5,1.8-2,2.3c-0.3-2.7-2.6,0.7-3.9-1.8
		c4.1,0,7.6-1.9,12,0.2c-1.4-2.5,3.2-0.8,2.8-3.6c-0.5-0.7-1.1-0.4-1.6-1.2c-0.9,2.2-3.6,0.3-4-1.1c0.8,2.1-1.8,1.7-0.8,3.8
		c-0.9-0.2-1.9,0.9-2.7-0.3c-0.6-1.2,2.7,0.4,0.6-1.7c0.9-1.5,1.3,1,2.1-0.5c-0.6-0.7-0.2-1.2-0.8-1.9c-2.2,2.1-2.6,0.3-2.9-1.4
		c-0.4,2.9-4.5,0.6-6.7,1.1c-0.9,1.3,0,0.9,0.8,1.9c-2.5,2.2-6-0.4-7.4,1.7c-1.3-1,0.4-1.6,0-2.5c1.8,0.1,3.7-0.2,5.4,0.5
		c0.7-0.9,0.8-1.8,0.3-2.8c-0.5,0.7-1,0.3-1.4-0.1c-0.2,0.5-0.4,0.9-0.2,1.4c-1.7-2.3-7-0.6-8.4,1.3c1.2-3.5-2.3-1.9-2.9-4.5
		c-0.6,0.6-1.2,0.5-1.7,0.2c-0.8,1.8,1.5,0.5,1.9,1.6c0.4,1.5-1.6,2.3-3.6,4.2c-1.4-2.1,1.7-1.9,1.8-3.4c-1.6-1.5-1.4,0-3.2,0.7
		c0.5,0.9,0,1.7,0,2.5c-0.9,0.5-1.5-1.2-2.4,0.1c1.3,1.6,3.1-1.2,4.3,1.5c1.9-1.3,3.7-2.4,5.4-1.9c0.5,0.9-1.6,0.4-2.1,0.5
		c-0.6,1,0.9,1.3,1.3,0.6c-0.7,6-9.9-0.2-15.3,1.5c0.5,0.5,0.9,1,0.5,1.5c0.7,1.1,1.7-0.9,2.3,0.6c0.1,1-2.7,2-3.5,0.4
		c0.5,1.7-2.6,3.7-3.6,1.8c-0.4-0.4,2.2-1.3,2.8-0.4c-0.3-2.1,0.9-2,1.5-3.8c-1.4-0.9-0.9-1.4-2.5-2.4c2.5-0.6,3.8,1,7-1.4
		c-1.3-1.8,0.3-1.7-1.7-3c-0.1,1.2,1.1,2.5-1.1,3.4c-2.3-0.2-4.5-1.1-6.8-0.7c0.8,0.8,1,1.5,0.4,2.2c1,0.4,2,0.6,3,0.7
		c-0.2,1-1.5,1.5-2.3,1.9c-0.6-0.5-0.3-1,0.2-1.4c-1.9-1.1-0.7,2-2.9,1.1c0-1.1,0.9-2,0.7-3.1c-2.7,2.4-7-0.6-9.8,1.9
		c-0.4-0.9,0.5-1.6-0.7-2.6c-1.3,0.7-2.5-0.4-3.9,1.4c0.8,0.8,1.1,1.5,1.1,2.2c-1.7,0.7-3.2-0.1-4.9,1c-0.6-1.5,1.6-4,3-1.9
		c-0.7-1.1,0.7-2.1,0-3.2c-1.6,2.4-3.1,1.2-6.1,2.6c0.6,1.5,1.7-0.5,2.3,0.6c-0.2,1.7-2,0.1-3.3,1.5c-0.6-0.6-0.2-1.2-0.8-1.8
		c-1.1,3.7-4-0.4-6,1.2c-0.7-2.7,2.8-1.6,3.1-3.3c-0.3-0.4-0.7,0.1-1.1,0.3c-1.4-0.8,1-1.3-0.4-2.2c-1.3,1-3-0.4-2.6,1.5
		c-1.3,1.4-2.2-0.9-3.4-0.3c-0.2-0.9,0.6-2.2,1.5-1.3c0-2.4-4.6,1.6-4.6-1.8l-2.3,1.9c0.8,0.7,0.5,1.2,0.8,1.8
		c-1.4,0.7-1.3-0.6-1.9-1.6c-2.4,2.6-4.1-0.2-7.7-1.8c-2.2,1.8-6.4-1.4-9.6-0.2c-0.2,1.7,1.4,0.5,2.3,1.3c-0.7,1.8-4,1.1-5.6,0.9
		c-0.4-1.8,2.1,0.2,1.9-1.6c-1-0.9-1.8-1.5-1.8-2.3c-0.9,0.6-2.6,2.6-3.9,3.9c-1.6,0.4-1-1.9-2.1-2.7c-0.8-0.3-3.6,1.6-3-0.6
		c-2.8,1.7-5.4,1-7.9,0.4c-1.5-1.2,1.5-2,0-3.2c-2.1,0.9,0.4,2.2-1.4,3.1c-1.6,0.9-1.5-1.9-2.4-3c-1,0.6-1.8-0.4-2.7-0.2
		c0.4-0.9,0.1-1.9-1.1-2.9c-0.1,0.5-0.6,1.5-1.1,1c-0.9,0.9,1,0.2,1.2,1.5c-1,1.2-1.8,0-2.7-0.2c-0.8,0.9,1.2,1.4,1.6,1.2
		c0,0.8-0.4,1.6-0.6,2.4c-1.3,0-1.2-1.3-2.1,0.5c-1.3-1.7,0.5-1.2,0.6-2.4c-1.3-1.1-1.3,0.7-1.9,1.6c-1.7,0.4-3.2-0.6-4.8-0.4
		c0-1.1,1.2-2,1.4-3.1c-1.5-0.6-2.6-3.5-4.6-2.5c-1.2-2.2-1.4-3.4-4.4-3.9c0.8,0.8,2,0.9,1.8,2.3c-1.1,0.9-2.1,0.3-3.1,0.1
		c-0.7,0.6,0.4,1.4-0.9,2c1.3-0.1,3.7,2.1,4.1,0.3c0.1,0.8,0.4,1.7-0.6,2.4c-1.2,0.1-0.6-2-2.4,0.1c-1.5-0.8,1-1.3-0.5-2.2
		c0.1,2.1-1.8,1.9-3.2,0.8c-1,1.3,0.3,1.7,1.2,1.5c-0.6,0.6-1.2,0.2-1.8,0.9c-0.3-0.9-2.3-1.8-1.5-2.6c-0.6-0.2-3.1,1.7-2.4-0.5
		c-1.1-0.7-2,3-3.6,1.8c-0.3-0.6,0.7-1.1,1.2-1.7c-1.7-0.4-4.6-2.5-5.5-0.4c-0.5,0.3-2.9-0.5-1.2-1.5c-3,0.1-7.1,2-8.5,6.1
		c-0.8,0.1-1.6-0.4-2.4,0.2c-1.2-1.3,1.4-2.2-0.3-3.6c1.7-1.3,1.7-0.3,2.7,0.2c1.7-1,2.1-2.2,1-3.5c-0.4,0.3,0.1,0.7,0.2,1.1
		c-1.1,0.6-2.2,1.3-3.1,0.1c-0.7-1,1.1,0,1.5-1.3c-0.8-1.5-1.9,0.8-2.7-0.9c-0.9,3.4-4.5,0.7-6.8-1.2c-1.2,1.2-2.3,3.5,0,3.9
		c-0.4-1.9,1-1.1,2.1-0.5c0.3,0.6-0.6,0.6-1.1,0.3c0.4,1.6,4,0.7,5.7,1.5c-5.7,2.1-13.9-0.4-20.7,0.6c-0.3-0.5,0.4-0.9,0.8-1.3
		c-0.9-0.6-1.7-0.9-2.8,0.5c-0.4-2.3-1.4-0.4-2.6-1.6c-0.9-0.9,2.4-1.5,0.6-2.4c-1.4,2.2-2,0.8-4.5,0c-1.2,1.7-2.6,2.8-4.2,0.4
		c-1.3,1.5-2.3,0.3-3.6,1.8c-3.3-5.1-10.2-1.8-16.3-4.6c0,1.6-1.6,2.8-2.1,0.6c-1.5,0.7-1.2,1.6-1.3,2.4c-0.5,0.1-1,0.3-1.4-0.1
		c0.2-1-0.1-2.1,1.3-3.1c-1.9-1.5-0.7,2.9-2.9,0.6c-0.7,2.5-1.3,1.6-3.3,1.6c-0.7-0.9,0.3-1.6,1.3-2.4c-3.5,1.7-8.6-0.2-11.3,4
		c-1.7,0.7-1.7-0.5-2.8-0.8c-0.9-1.1,1.1-2.1-0.1-3.2c-1.4,0.9-1.2,1.8-0.9,2.8c-1.7-0.5-1.4,0.7-3,1.3c-0.9-1.9,1.5-4.2,3.2-4.1
		c-0.7-0.6-0.3-1.1,0-0.7c-2.3-2.1-5.7-4.4-9.7-0.7c-1.3-1,1.8-1.8,0.2-2.8c-1.4,1.9-4.8-0.4-7.2-0.3c-0.7,0.6-0.4,1.2-1.2,1.7
		c-0.1-0.6,0.5-1.2-0.3-1.8c-1.4,0.1-0.5,0.5-1.6,1.4c-0.3-0.5,0.5-0.9,0.1-1.4c-1.5-1.5-3.2-0.3-3,1.4c-0.3-0.5-0.7-0.6-1.1-0.4
		c-0.3-0.5,0.4-0.9,0.8-1.4c-3.4-0.1-8.7-2.8-11.1-0.2c-3.3-2-2.5,0.6-4.5-0.7c-2,2.8-3.2,2.3-5.8,3.9c0.9,0.9,1.7,0.5,2.6,1
		c-1.2,1.2-2.2-0.6-3.4,0.4c-0.4-0.5,0.4-0.9,0.8-1.4c-2.4-0.1-4.7-1.6-7.1-1.7c-0.4-0.5,0.4-0.9,0.8-1.4c-1.1-0.1-2.3-0.6-3.4,0.4
		c-1.2,3.8-8.9-1.2-12.6,1.4c4.5,0.4,9,0.5,13.4,1.4c-1.5,0.9-3,0.2-4.5,0.1c-0.6,1.7,2,0.3,2.7,1l-2.3,2.2
		c-0.7-0.6-0.3-1.2-1.1-1.7c-3.2,1-3,4.3-6.9,3c-0.3-1.2,2.5-1.6,3.4-2.6c-0.1-0.8-1-1.6-0.4-2.5c-0.8,0.5-2.6,4.9-5.7,3.4
		c-0.6-0.7-0.2-1.4,0.8-2.1c-1.6-1.2-3,3.1-5.3,2.3c-1.6-0.9,1-1.9-0.8-2.8c-0.4,0.2-0.2,0.5,0,0.7c0.1,1-2,0.2-1.5,2.2
		c-0.7-0.3-3.3-0.6-2.7,1.2c-0.9-0.2-1.8,0.7-2.7-0.2c-0.1-1.3,2.5-2.8,1.9-4c-1,0.5-2.3,1.1-3.5,2c-1.1-0.6-0.2-1.4-1.6-2
		c-2.3,0.6-4.7,0.3-7,0.5c-0.8-0.8,1.5-0.5,1.9-1.9c-3.1-0.9-3.5,4-6.6,1.5C114.5,5,113.8,7,113,6.2c-0.9,1.1,1.2,0,1.7,1.2
		l-1.1,1.2c-2.4-1.1-4.7,0.6-7.2-0.7c-0.2-1.8,3-2.3,4.3-0.8c1-1,2-1.7,3.1-1.7c-1.3,0.3-4.6-2-6.4,0.7c-1.7-0.9,0.3-2.1-1.4-3
		c-1.4,2.7-6.1,3-9.8,3.5c-1-1.2,1.2-0.5,1.5-1.6c-1.7,0.2-1-1.1-2.6-1.8c-2,1.2-4.3,0.7-6.3,2.3c-3.2-1.7-2.9,0.9-7,3.9
		c1.7-0.5,3.4-1.6,5.2-1.1c0.8-0.6,0.4-1-0.1-1.4c1-0.7,2.1-0.8,3.2-0.5c1,0.5-1.2,1.1-1.6,0.9c0.7,1.1,5,3.6,6.6,1.2
		c1.5,1.9,5.9,1.3,8.4,0.1c1,0.9,0.6,1.8,2,0.1c4.2,1.9,8.3,1.9,12.3,0.6c0.3,2.4,4.3,0.2,3.2,2.6c0.6-0.8,1.9-0.8,3.4-1.3
		c-0.7-0.6-1.3-0.2-2-0.9c0.8-0.4,1.5-0.5,2.3-0.9c0.3,0.6,0.3,1.2-0.3,1.8c1.1,1.1,2.1,0.2,3.1,1.2c0.7-0.5,0.3-1,0.7-1.5
		c0.9,1,1.8,1.8,2.7,0.2c0.7,0.5,1.3,1.4,2,0.9c1.1,0.6-1.9,1.5,0,2.1c1.5-2.9,8-1.9,9.5-0.1c1.4,0.8,0.4-1.1,1.5-1.5
		c0.4-0.2,0.8,0,1.1-0.4c1.4,0.8,0.5,1.6,1.9,2.4c2.4-2.3,7.4-0.6,10.9,0.1c0.9-1.3,1.7-0.9,2.6-1.8c-1.9-1.5-1.5,1.3-3.4,0.4
		c0.9-1.1,0.7-0.8-0.3-2.5c2.4-2.3,4.5-1.1,5.2,0.7c-1,1.3-2-1.6-3,0c1.7,0,2.4,2.1,1.1,3.2c2.3,0,4.7,1,7,1
		c-0.7,1.9-0.4,1.2,1.4,2.1c-1.2,0.5-2.5-0.1-3.7-1.4c-0.7,0.7,0.9,1.4,0,2.1c1.4-0.5,2.7,0.5,4,0.3c0.9-0.9-0.4-1.9-1.4-2.8
		c2.1-0.5,4.2,0.6,6.3-1.1c0.3-0.9-0.4-1.9,0.1-2.8c2.2-0.5,0,1.8,1.7,2.5c0.4,0.7-0.6,0.3-1.1,1c2.1,2.4,6.9,1,9.3,3.7
		c3-2.2,5.8-0.6,8.7-0.5c0.9,1.8-2.1,1.5-2.4,3.5c2.1,1.4,2.8-2.3,3.2,1.1c0.7-1.2,0.8-2.3,0.2-3.5c2.6-0.8,5-0.3,7.5,0.6
		c0.9-2.7,3.3-1.6,5.1-1.2c0.3,0.5-0.4,0.9-0.8,1.4c-0.6,0.3-1.2-0.6-1.7-1.1c-0.5,0.3-0.6,0.7-0.4,1l-0.8,0.7
		c1.2,0.9,2.7-1.1,3.8,1.2c-0.9,0.9-1.7,0-2.5,0.2c-0.6,1.9,2,1,2.8,1.5c-2.5,2.9,2.7,0.6,4.5,1.9c-0.1-1.1,0.5-3.1,2-3.1
		c-1.1,1.7,0.8,1.8,0.8,3.9c0.4-0.4,0.7-0.5,1.1-0.3c-0.5-2,1.8-1.6,2.4-3.4c0.9,0.3,3.8,2.5,5.9,0.7c1.2,1,0,1.9-0.2,2.8
		c1.9,1,3.7,1.2,4.7,2.4l1.5-1.3l-1.3-1.5c-1.4,1.9-2.5-0.5-3.8-0.6c1.8-1.4,3.2,0.9,4.9-0.4c-0.4,4.3,3.7,2,6.2,4.3
		c-1-0.5-2.1,0.4-3.1-0.6c-0.2,1.8,2.6,1.3,3.7,1.3c0.4-0.9,0.3-1.9,0.9-2.8c1.9-0.4,0.8,1.9,1.5,2.6c0.5-0.7,0.9-0.3,1.4,0.1
		c0.2-2.2,1.9-2.1,3.4,0.2c-0.9-2.4,0.6-0.7,2.3-2.7c1.8,2.1-2.6,1.5-0.3,3.5c0.8-2.6,2-1.8,3.1-3.3c1.6,1.8-2.1,1.5-1.6,2.7
		c1.7,0.1,2,0.1,3.2-1.5c1.4,1.6-1.2,0.7-0.9,2.1c2.8,2.7,3.9-0.2,6.9-0.9c0.7,0.9,0.3,1.7,1.5,2.6c1.6-1.5,3,0.1,4.5-0.7
		c0.4,1-0.4,1.8-0.3,2.8c0,0.1-0.1,0.1-0.1,0.1c-0.5,0.4-0.8,0.1-1.3,0.5c-0.1-0.1-0.1-0.1-0.2-0.2c-0.7-0.7,0.4-1.3,0.4-1.9
		c-2.1,0.2-2.8,1.4-5.2,0.7c1.4,0.7,2.8,2,4.3,1.4c0,0,0,0,0,0c1,1-1.9,0-0.8,1.3c-0.3-0.2-0.7-0.3-1-0.4c-1-0.3-2-0.3-3-0.5
		c-0.2,0-0.5-0.1-0.7-0.2c-0.3,0.4,0.4,1-0.1,1.4c-1.3,0.6-0.3-1.3-1.5-1.9c0,0,0,0,0,0c0,0,0,0-0.1,0c-0.5,0.4-1,0.5-1.4,0.3
		c-0.1,0-0.2-0.1-0.2-0.1c0,0.1,0,0.1,0,0.2c-0.4,3-2,0.8-3.6,0.5c-0.3-0.1-0.6,0-1,0.1c-0.2,0.1-0.5,0.3-0.7,0.6
		c-0.2-0.2-0.3-0.3-0.4-0.5c-0.4-0.9,0.6-1.6-0.8-1.7c-0.5,0.6-0.5,1.2-0.5,1.9c0,0.8,0.1,1.6-0.5,2.3c0.1,0.1,0.2,0.2,0.3,0.3
		c0.1,0.1,0.2,0.1,0.3,0.1c0.7,0.3,1.5-0.3,2.2,0.5c0.4-0.4-0.3-1-0.6-1.4c1.3-1.1,2.3-0.1,3.4,0.2c0.1,1.3-1.1,0.5-1.6,2
		c-1.1,0.1-2.1-0.2-3.2,0c-0.3,0.1-0.7,0.2-1,0.4c-0.8-0.7-0.3-1.4-0.4-1.8c-0.1-0.2-0.2-0.3-0.8-0.4c-0.1,0.2-0.3,0.5-0.4,0.7
		c-0.6,0.9-1.5,1.4-2.4,1.6c-3.3,0.8-8.1-1.4-11.4-1.4c-0.2-0.9,1.5-1.8,0.9-2.8h0c2.1,0.4,4.1,0.9,6.2,1.4c0.7,0.1,1.3,0.3,2,0.4
		c0.7,0.1,1.3,0.2,2,0.3c-0.6-0.8-1.3-1-1.5-1.3c-0.1-0.3,0-0.6,0.6-1.2c-1.2,0.2-2.3,0.5-3.5,0.5c-0.2-0.9,1.1-1.8-0.4-2.8
		c-1.2,1.9-1.5,1.3-3.2,0.8c-1.3-0.9,0.4-1.6-0.8-2.5c-2.4-0.7-5.6,0.4-7.1,1.7c0.1-0.6-0.7-1.2-0.2-1.8c1.1-0.9,0,1.8,1.4,0.1
		c-2-1.5-4.2-0.4-6.2-1.8l-2.6,2.3c-0.6-1-0.6-1.9-1.9-2.9c-1.6,2.3,0.8,2.4,1.1,3.6c-1.4,1.2-2.4-2.6-3.8-0.5
		c-1.6-1.5,1.6-2.8-0.4-4.2c-0.4,0.3,0.1,0.7,0.3,1.1c-2.8,1.1-5.4-0.1-8.1-0.7c-1.5,1.5,0.7,3.1,1.9,2.9c-1.3,0.6-2.8,3.9-4,2.3
		c-0.6-1.3,1.5-0.4,1.2-1.7c-0.6-1.6-1.5,0.8-2.1-0.8c-0.9,1.3,0,1.8-1.9,2.4c-0.8-0.7-0.7-1.4,0.1-2.1c-1.9-1.5-1.9,2.8-3.6,1.3
		c-0.5-1.1,2-2,0.5-3.1c-1.4,0.8-1,1.6-1.9,2.4c-0.5,0.1-1,0.3-1.4,0c0-1.1,2-1.1,1.6-2.8c-1.8,0.1-1.4-1-3.1-2.5
		c-3.3-1.4-6.9,0.4-9.4,0.5c2.1-2.5-5.7-1.6-8.2-2.6c0.2-1.9,3.4,0.2,4.8-1.7c-2.9-1.8-5.6,1.9-7.7-0.4c-0.4,0.5,0.3,0.9,0.7,1.4
		c-1,1.7-1.9,0.1-3,1.4c-2.7-3.5-6.3-0.2-8-2.8c-3.3,1.6-5.4-0.2-8.1,2.3c1.3,0.1,0.4,0.5,1.5,1.4c-4.1,2.4-5.3-1.5-5.5-4.4
		c-0.9,1.4-0.1,2.8-0.7,4.2c-1.6-0.4-3.2-0.1-4.8-0.9c-0.5-0.9,1.6-0.9,2.4-1.7c-1,0.1-5.6-1.2-6.5-0.7c-0.9-0.3-0.9-2.2,0-1.4
		c-0.1-1.7-1.5,0-2.3,0.1c-0.4,0.5,0.4,0.9,0.8,1.4c-3.1,0.3-8-3.6-12.2-1.3l-2-1.6c-0.7,0.7-1.5-0.4-2.3,0.9
		c-3.5-3.6-6.6,0.6-10.2-2.6c-3.4,2.2-6.9,1.2-10.6-0.6c2-1.3,2.1-2.1,3.7-3.2c-3.9,0.5-7.6,3.4-9.8,1.5c0.4,3-2.2,4.8-0.8,7.9
		c-2-0.1-4-0.7-6-0.9c0.6,3.1,7.3,0.1,7.5,3.8c-0.7,0.9-1.6-0.9-2.5-1.1c0,1.5-1.4,1.3-2.6,1.6c-0.7,0.2-1.3,0.4-1.8,1.2
		c0.1-0.9,0.1-1.8-0.8-2.6c-0.3-0.2-0.7-0.5-1.2-0.7c0.2,0.7,0,1.3-0.4,1.7c-0.4,0.6-1.1,1.1-2,1.8c0,0-0.1-0.1-0.1-0.1
		c-1.4-1.1-3.7-2.4-3.5-0.4c-0.7-0.3-1-0.8-1.2-1.1c-0.2-0.3-0.4-0.5-0.7-0.6c-0.2,0-0.4,0-0.7,0c-1-1.1,0-1,0.9-1.9
		c-1.7,0-3.5,0-5.1,1.3c-1.5-0.9,1.1-2.6-0.5-3.5c-0.6,0.7-0.7,3.6-2.5,2.3c-0.1,0.9-1,1.9,0.8,2.3c-1.8,1.1-1.8,0.9-2.2,2.2
		c-0.1,0.2-0.1,0.5-0.2,0.7c-0.3,0.6-0.7,0.3-1.1,0c-0.5-0.4-1-1-1.4-0.2c-0.7,0.8-0.5,1.1,0,1.3c0.6,0.2,1.5,0.2,1.9,0.5
		c-0.8,0.4-1.7,0-2.5,0.3c-0.2,0.1-0.4,0.2-0.6,0.3c-1-0.8,1.3-2.2-0.5-2.8c-0.2,1.6-2.7,1.2-2,0c-1.7,2.8-5.2,2.7-8.7,1.6
		c-0.4-0.1-0.9-0.3-1.3-0.5C50.6,32,49.8,33.1,49.8,33.9 M19.7,44.7c0.2-0.7-0.1-1.2,0.7-2.1c0.9,0.5,1.4,0,2.2,0.4
		C21.9,44.4,21.1,45.5,19.7,44.7 M30.1,42.1c-1.3-2.1-1.5,0.7-3.3,0.3C25.9,40.3,32.1,39.4,30.1,42.1 M41,42.6
		c-1.5-0.6-0.4-2.4-2.5-1.9c2.1-3.1,3.5,0.9,5.9,0.7C43.6,43.2,41.7,40.4,41,42.6 M55.2,44.8c-0.4-1.8-1.7-0.3-2.2,1.3
		c-1.8-1.6,1.6-5,3.6-4.2C56.9,43.2,56,44.4,55.2,44.8 M36.3,59.9c-0.8-0.8-2.8,1.4-2.6-0.7C34.8,59.3,36.9,57.6,36.3,59.9
		 M38.6,58.1c1.1,1.7,1.3,0.1,2.8,0.2c-0.5,0.7,1.1,0.9,0.8,1.6c-1.8,0.3-1.7-1.1-2.9,0.9l-1.4-0.7C38.2,59.5,37.8,59,38.6,58.1
		 M37.9,66c2.5-0.5,4.6-2.4,7.3-2.1C43.3,66.2,39.3,67,37.9,66 M43,61.6c0.8-2,2.2-1.9,3.7-0.9C45.5,61.1,44.6,62.7,43,61.6
		 M56.7,58.5l-1.3-0.8c0.6-1.6,1.6-1,2.5-1L56.7,58.5z M295.3,79.1c1.5,1.1-0.6,3.1-1.6,2C294.8,80.5,294,79.8,295.3,79.1 M92,81.6
		c-0.7-0.8,1.3-2.5,1.9-1.7C94,80.4,93.1,83,92,81.6 M20.1,128.7c-1.7-1.7-1.3,1.9-3.1,0.2c0.3-2.2,3.1-2.7,3.6-1.6
		C19.8,127.2,20.5,128,20.1,128.7 M63.4,122c0.9-2.1,2.3-0.7,2.5-0.6C65,121.7,64.5,123,63.4,122 M98.4,102.9
		c0.8-1.1,3.2-2.3,3.2-0.5C100.5,102.6,99.6,103.9,98.4,102.9 M106.7,125.1c0.9-1.6,2-0.9,3-0.4
		C109.8,126.1,107.9,126.3,106.7,125.1 M128,78.7c-1.1-0.1-3.8,0.5-3.8-0.8C125.2,77.8,128,76.9,128,78.7 M97.1,80.5l1.5,1.2
		c-0.6,1-1.2,1.4-2,1C98.1,81.7,95.6,81.4,97.1,80.5 M97.4,88.9c-0.8-1.5,1.7-1.9,0.3-2.9c0.6-0.7,1.2-1.1,1.9-1
		C98.3,86.4,99.7,89.6,97.4,88.9 M109.6,88.8c-1.6-2.7-1.2,0.4-2.2-1.9c-1.7,0.6-4.9,2.7-5.7,1.1c0.3,0.2,2.1-0.4,1.3-0.9
		c-1.1,0.6-2.2,0.5-3.4-0.2c0.8-1.4,1.8-0.6,2.8,0.3c0.9-1.2,2.9-1,2.8-2.9c2.3,1.3,4.7-2.3,6.2,0.8c0-2.1,2.3-2.3,3.6-1.4
		C111.7,84.5,112.5,86.9,109.6,88.8 M114.9,123.1c1.3,0.8,2.4-0.7,3.8,1.1C117.8,125.1,115.1,124.8,114.9,123.1 M124.4,88.8
		c-0.9-0.1-1.3-0.4-1.4-1.3c-2.2,1.9-4.7-0.3-6.9,1.7c-1.1-0.7-0.1-3.1-1.8-0.9c-1.2-0.9-1.5-3.7,0.5-2.9c-0.3,0.5-0.6,1,0.1,1.4
		c-0.1-4,4-3.2,6.2-4.5l1.8,1.6c1.3-0.3,2.6-2.4,4-1c-0.5,2.3-3.6,2.8-5.3,2.5c0.4,0.5-0.1,0.6-0.6,0.8c1.1,0,2.3,1.4,3.4,1.1
		c1.6-2.1,3.2-3.7,5-2.1c-2.7,0.1-1.9,1.7-2.9,2.6C126.2,86.1,125,87.4,124.4,88.8 M130.9,125.6c1.1-1.5,2.3-0.1,3.4,0.2
		C133.2,127,132.1,126.4,130.9,125.6 M133.3,85.1c-0.9-1.4-1.9-1.4-2.7,0.2l-1.1-1c1.6-1.3,3.4-0.7,5.1-0.7L133.3,85.1z
		 M140.5,124.7c0-1.4,1.8-1.9,2.8-1.2C143.3,125.3,141.5,124.9,140.5,124.7 M137,84.5c1.1-0.9,2.3,0.2,3.4,0.5
		C139.3,86.1,138.2,85.9,137,84.5 M147.5,85.1c-1.4-1.3-2.7-0.5-4,0.1c0.6,1.2,0.7,2.3-0.6,3.5c-1-0.5-2-0.6-3.1-1.6
		c1-1.3,2-0.3,3-1.9c-0.6-1.4-3.1-0.5-3.4-2c0.6,0.3,1.1,0.2,1.7-0.4l1.7,1.7c2.2-1.7,2.8-0.3,5.4-1.6
		C147.4,83.7,148.6,84.4,147.5,85.1 M151.8,84.6c-1.5-0.8-1.3,1.5-3,0.4C149.6,83.6,152.1,82.7,151.8,84.6 M159.9,124.9
		c0.9,0.4,1.9-1,2.9,0.4C162,127.6,158.6,124.5,159.9,124.9 M159.2,84.5c1.6-0.3,3.1,0.4,4.7,0.7C162.5,86.7,158.5,87.1,159.2,84.5
		 M164.2,85.5c1-0.7,2-0.8,3-1.1C166.7,85.9,165.6,86.3,164.2,85.5 M171.2,76.4c-1.1-1.2-2.3,1.3-3.4,0
		C168.8,75.2,171.5,74.6,171.2,76.4 M170,85.2c0.9,0.8,1.7,0.4,1,1.8c-0.7-0.7-1.3,0.5-2-0.7L170,85.2z M173.4,127.4
		c0.6-2.3,3.5-0.8,5.1,0.1C176.8,128.4,175.1,126.8,173.4,127.4 M170.3,84.1c0.6-0.5,1.2-1.4,1.7-1c-0.2,0.2-0.4,0.5,0,0.7
		c0.6-0.6,1.1-0.6,1.7-0.4C172.6,84.5,171.4,84.9,170.3,84.1 M186.5,77c2.4-1.1,4.8-0.7,7.1,0.5C190.5,77.6,189.1,77.5,186.5,77
		 M195.9,89.9c1-0.9,0.2-1.3,1.4-1.3C198.8,89.7,196.9,91.6,195.9,89.9 M208.7,79.9c-1-0.3-1.3-2.2-2.9-1.9c1-1.6,1.8,0,2.8-1.3
		C209.8,77.9,210.2,78.9,208.7,79.9 M233.5,78.9c1.4-0.8,2.8-0.7,4.1,0.3C236.2,79.9,234.8,79.8,233.5,78.9 M241.4,93.9l-0.6-0.7
		c-0.2,0.2-0.5,0.3-0.7,0c0.7-1.6,2.5-2.6,3.8-1.5C242.9,93.1,241.5,92.3,241.4,93.9 M143.3,146.7c1-1.9,2.1-1.4,3.3-0.5
		C146.5,147.8,144.4,147.9,143.3,146.7 M175,149.6c0.7-0.5,1.5-2.6,2.2-1C177.6,149.6,175.5,151,175,149.6 M189.2,138
		c0.9-1.2,1.7-1,2.6-0.6C190.9,138.2,190,139,189.2,138 M203.1,139.9c0.1-1.4,1.5-1.8,2.3-0.3C204.6,140.2,203.8,141,203.1,139.9
		 M215.8,144.1c-2.1-2.8-2.6-2.6-4.9-3.8c1.5-1.2,3.4-2.6,5.7-2.1c0.2,0.8-1.8,1.5-0.5,2.4c1.8-1,1.1-2.1,1.9-3.1
		c0.5,0.8,1.1,0.4,1.5,1.2C218.2,141.3,216.9,141.8,215.8,144.1 M225.7,141.9c-1.9,0.9-3.7,0.2-5.5-0.7c1-1.4,1.1-0.4,2.2-2.7
		c0.5,0.5,1,1.5,1.5,1.2c0.5-0.4-0.2-1,0.1-1.4c1.1,0.7,2.5-1.1,3.5,1.3C226.4,141,224.2,139.6,225.7,141.9 M236,141.5
		c1-1.2,1.9-1.1,2.6,0.2C237.6,142.9,236.8,141.7,236,141.5 M251.1,144c1.5-0.8,4.1-1.3,4.3,0.7C253.9,145,252.4,145.4,251.1,144
		 M284.5,145.8c-1,1.4-2.6-0.2-1.6-1.2C283.7,145.2,284.6,144.4,284.5,145.8 M393.5,154.3c-0.4-0.5-0.8-0.7-1.3-0.8
		c0.1-0.9,1.4-2,2.2-1.9C395.6,152.6,394.7,153.4,393.5,154.3 M416.2,153.3c-1-0.7-2.4,1.4-3.3-0.3
		C413.9,152.5,416.6,151.7,416.2,153.3 M505.9,156.8c-0.8-1-2.1,0.2-2.2,1.2c-0.5-0.7-0.8-1.3-0.8-1.9
		C503.8,155.5,506.4,155.1,505.9,156.8 M511.9,160c-1.1-1.4-0.5-2.7-0.5-4c-1.3,1.6-3.3,2-3,0c1.9-0.5,5.6-1.4,5.9,1.4
		C512,156.1,513,159.1,511.9,160 M518.7,156.9c-0.8-0.4-1.9,0.5-2.7-0.3C516.1,154.4,520.2,155.3,518.7,156.9 M1006.3,131
		c0.8,1.1-0.4,1.8-0.5,2.8c-0.7-0.6-1.6,0.1-2.2-1.4C1004.6,131.7,1005.3,132.2,1006.3,131 M1063.4,82.8c-0.2,1.3-2.1,1.9-3,1.7
		C1060.5,83.6,1062.5,81.7,1063.4,82.8 M1005.5,61.7c0.7,1.2,1,1.3,1.3,0.2c1.3,1.4-1.9,2.4-2.2,1.1
		C1005.2,62.6,1005.4,62.2,1005.5,61.7 M1003.8,66.1c2.2-0.6,2.5-0.9,4.6-2.9c0.5,1.6,1.5,0.9,2.4,0c0.9,1.6,1.1,1.8,1.4,3.8
		c2-1.1,1-2.7,0.7-4.2c2.6,1.1,1.9,4.5,0,6.1c-1.9-2.9-5.1,1.5-7.2,0c-1-1.7,1.4-0.6,1-2C1005.5,67.6,1003.6,67.5,1003.8,66.1
		 M1005,68.8c-1,0.6-2,1.1-2.7-0.4C1003.4,67.7,1004.3,67.8,1005,68.8 M1000.2,104.1c1.3-0.9,1.2-2.4,2.5-0.7
		C1002.6,104.4,1000.9,105.3,1000.2,104.1 M998.5,67.1c-1.9,0.9-3.7,1.7-5.2,0.3C995,67.5,997,65.7,998.5,67.1 M997.3,100.8
		c0.9,0.6,1.9-1.8,2.5-2.5c1.3,0.9,0.1,1.4,0.3,2.2c0.4-0.1,0.7,0,0.9,0.5c-1.7,0.1-3.1-0.4-2.7,2.1
		C997.5,103,997.1,101.7,997.3,100.8 M989.1,65.7c-0.6-1.1-1.7,0.8-2.3-0.7C987.7,63.6,989.8,64.4,989.1,65.7 M981.7,126.7
		c-3.2,1.5-5.8,1.8-7.6,4.6l-1.1-1.6C975.1,129.2,978.1,124.9,981.7,126.7 M971.1,128.7c0.5,0.8,0.7,1.5,0.3,2.2
		c-2.3,0-4.7,1-6.9,0.4C966.8,130.2,968.9,129.8,971.1,128.7 M949.9,51.7c0.7-0.5,1.3-0.8,1.8-0.8c1.5,1.9-1.6,3.1,0.5,5.1
		c-1.3,0.1-2.8,1.6-3.7-0.2C950.7,56.2,951.7,53.9,949.9,51.7 M953.6,131.1c1.9-1.5,5.6-2.6,8.4-3.4c0.9,1.3-0.1,2.4-1.2,3.4
		c-1.7,0.7-4.1,0.3-6.8,1.5C953.8,132,953.2,131.5,953.6,131.1 M924.6,59.4c-0.5,1.3-3.2,2.4-4.4,1.5
		C921.9,59.2,923.2,59.6,924.6,59.4 M862.4,58.2l-1.6,1.2l-0.8-1.2C861,56.9,861.6,57.9,862.4,58.2 M859.7,59.6
		c-1.7-0.4-3.5,0.3-5-1.1C856.7,57.4,858.4,57.6,859.7,59.6 M854.3,59.6c-1-1.3-2.6,0.8-3.7-0.2C851.8,57.7,854.6,57.8,854.3,59.6
		 M838.4,173.1c-0.5,0.8-0.9,1.4-1.6,1.2c0.4-0.4,0-1-0.4-1.5C837.2,172.1,837.9,172.2,838.4,173.1 M833.1,175.2
		c1-1.3,1.2-1.2,2.3-2.9c0.8,1.3,0,2.4,0.1,3.6c-0.3-0.3-0.6-0.2-0.9-0.1c-0.6,0.2-1.3,0.8-1.8-0.3
		C833,175.4,833.1,175.3,833.1,175.2 M830.4,172c-2,1.2-0.7,1.4,0.1,1.9c0.4,0.3,0.6,0.6,0.3,1.1c-0.2,0.3-0.5,0.7-1.1,1.2
		c0,0,0-0.1-0.1-0.1c-0.7-1.3-0.7-1.6-1.5-1.8c-0.1,0-0.2-0.1-0.5-0.1C828.1,173.1,829,170.7,830.4,172 M823.6,175.2
		c0-0.1,0-0.2-0.1-0.3c1.8-0.1,2.1-3,3.9-3c0.1,0.9,0.3,1.8,0,2.6c-0.2,0.4-0.4,0.8-1,1.2c-0.2-0.2-0.4-0.5-0.6-0.7
		c-0.2-0.2-0.4-0.3-0.6-0.1c-0.1,0.1-0.1,0.2-0.2,0.3c-0.4,0.9-0.3,2.9-1.6,2.3C823.3,176.6,823.9,176,823.6,175.2 M793.1,57.7
		c-1.4,1.1-2.4-0.7-3.8-0.2C790.8,56.3,792,56.7,793.1,57.7 M754.2,56.6c-1.5-0.9-1.5,1.5-2.8,0.3C751.2,56.1,755,54.3,754.2,56.6
		 M747.3,54.6c1.2-0.9,2.1-0.2,3.1,0.1c-0.2,1.2-1.6,0.7-2.7,2.1C746.6,55.9,747.8,55.4,747.3,54.6 M711,51.5
		c0.7,0.9,3.3,0.3,2.8,2.2C712.6,51.7,710.2,54.4,711,51.5 M703,50.4c0.8,0.7,1.8,0.4,2.5,1.8c-1.6,1.4-3,1.5-4.4,1.6l-0.8-1.2
		C702.3,52,701.9,52.3,703,50.4 M684.3,49c0.7,1.7,3.3,0.7,2,2.8C685.9,50.5,683.6,50.5,684.3,49 M606,42.3c0.9,0.4,1.9-0.7,2.6,1
		C607.7,44.3,605.4,43.7,606,42.3 M592.7,155.7c1.4,1.5,3.2-0.2,4.7,0.6c-1.4,0.9-2.4,1.8-2.1,2.9c-0.9-1-2-0.1-2.9-0.7
		C594.5,156.5,591.5,157.1,592.7,155.7 M588.7,157.7c-0.9,0.9-1.7,1.2-2.4,0.1C587.2,156.9,588.1,156.6,588.7,157.7 M586,155.6
		c-0.6,0.8-0.4,1.6-1.3,2.3C584,156.9,584.5,154.4,586,155.6 M579.3,154.8c0.7,0.6,1.5,0.3,2.2,1.3c-0.6,0.4,0,2.5-1.2,1.6
		c0.8-0.8,0.1-1.8-0.9-1.2c0.2,0.7,0.1,1.4-0.3,2.1c-0.6-0.8-1.4,0.3-1.9-0.9C579,156.9,577.5,155.7,579.3,154.8 M562.3,38.1
		c0.6,0.7,0.5-0.7,1.1-0.2c-0.9,0.9,1,0.2,1.2,1.6C563.8,40.4,561.7,39,562.3,38.1 M563.8,158.6l-1.1-1.6
		C564,155.6,565.5,157.7,563.8,158.6 M558.2,155.1c-0.4,0.5-0.3,1.1-1.2,1.6c-0.6-1.5-1.5-0.7-2.2-1.3
		C556.1,154.5,557.3,153.8,558.2,155.1 M542.7,40.8c0.3,0.6,0,1.2,0.8,1.9c-1.6,1.1-3.2,1.7-4.4-0.1
		C540.8,42.5,542.6,41.7,542.7,40.8 M541.5,153.8c1.3,1.1,5-1.7,5,0.9C544.9,154.4,541.6,156.6,541.5,153.8 M534.9,35.3
		c-1,2.4-3.1,1.8-4.6,1.2C531.9,35.1,533.5,34.2,534.9,35.3 M533.3,39c-2,1.5-3.8,1.1-5.5,0.1C529.9,37.7,531.4,39.5,533.3,39
		 M527.1,39.7c-0.5-0.5-1.1-0.1-1.6-0.6c0.5-0.4-0.2-1,0.2-1.4c0.3,0.2,0.7,0.2,1.1-0.2C527.5,38.3,527.7,39.1,527.1,39.7
		 M526.4,37.1c-1-0.9-2.3,0.3-3.3-1.1C524.2,35.2,526.8,35.5,526.4,37.1 M522,33.8c-1.1,1.6-1.9,0.2-2.8,0.4
		c0.1,0.4,0.6,0.8,0.2,1.1c-0.4-0.5-0.5-1-0.5-1.5C520,33.6,521.1,32.9,522,33.8 M511.1,35.7c1.2-0.8,2.2,0.3,3.4,0.4
		C513.2,37.7,511,37.8,511.1,35.7 M507,30.3c0.6,0.7,0.2,1.2,0.8,1.9c0.4-0.3,0.2-0.7,0.5-1c1.4,1,0.4,1.7-0.7,2.4
		c-0.4-0.4-0.8-1.1-1.3-0.8c0.3,0.5-0.3,0.9-0.9,1.3l-0.9-1.2C506.6,31.6,506.3,32,507,30.3 M504.2,33.9c-0.5,0.5,0.2,1.2,0.1,1.8
		c-2.1,1.3-4,0.8-5.8-0.3c1.2-0.8,0.5-1.8,1.7-2.7C501.5,33.5,502.9,33.1,504.2,33.9 M500.1,31c-0.2,0.3-0.2,0.7,0.2,1.1
		c0.5-0.3,1-0.6,1.4,0.1c-1.9,0.2-3.7,0.6-5.4-0.6C498.2,31.5,498.7,30.9,500.1,31 M497.1,32.8c1.5,1.7,1.1,3.2,0.4,4.7
		c-0.4-0.5-0.8-0.7-1.3-0.8C497.2,35.4,495.2,33.9,497.1,32.8 M490.2,30.3c1.4,0.8,4.8-0.2,4.9,1.6c-1-0.6-2.1,0.1-3.1,0
		c0.5,0.8,1.1,0.5,1.6,1.2c-1,0.5-2.5,0.8-2.7,2.2C490.4,33.6,490.2,31.9,490.2,30.3 M479.6,32.7c1.1-0.5,2.1-0.6,3,0.7
		c-1.2,1.1-2.1,0.7-3.1,0C479.7,33.2,479.9,33,479.6,32.7 M471,30.3c-0.3,0.7,1.4,0.9,1.6,1.2c0.5-0.5,0.2-1.2,0.6-1.7
		c1.8-0.1,2.2,1.9,0.6,3.3c-1.8-0.5-3.6-0.3-5.3-1.3C469.8,31.2,470.4,30.3,471,30.3 M458.7,29.7c0.6,1.4,1.7-0.6,2.2,1.3
		C459.9,31.7,457.5,31.1,458.7,29.7 M456.9,21.8c0.8,0.8,1,1.5,0.4,2.2c-0.4-0.4-0.8-1.2-1.3-0.8c-0.4,0.2-0.8,0.6-1.1,0.2
		L456.9,21.8z M452.7,25.2c0.4,0.6,1.2,1.3,0.8,1.9c-1.6-1.3-2.3-1-3.2,0.7C449.5,25.7,451.4,25.8,452.7,25.2 M446.4,26
		c-1.8,1.1-3.5,0.7-5.2,0.5C443,25.7,444.9,24.7,446.4,26 M444,29.3c1.2-2.6,1.6,0.1,2.7,0.3c-0.7-1.9,1.2-3.1,1.9-4.1
		c1.5,1.7-2.4,2.8-0.9,4.5c0.4-0.5,0.3-1.2,1.2-1.6c0.5,0,2.5,1.4,1.8,2.3c-1.8-1.4-9.7,4.4-7.5-0.8c-1.4-0.2-4.7,1.1-4.7-1.2
		C439.5,27.5,443.4,27.5,444,29.3 M437.6,30.8c-1.2,0.7-2.4,0.6-3.4-0.3C435.6,29,436.6,29.9,437.6,30.8 M432,60.7
		c1.4,1.1,1.4-1.4,3.3-1.4C436.9,61.5,431.5,63.6,432,60.7 M416.3,63c-1.1,0.6-2.2,1.3-3.1,0C414.4,61.9,415.4,62,416.3,63
		 M408.8,54.1c1.5,1.4-0.3,2.6-1.5,3.7c-0.5-0.6-1.2,0.5-1.7-0.5C407.2,55.1,407.7,56.6,408.8,54.1 M404.8,56.2
		c1.6,2.3-2.6,3.4-3.6,1.8c0.5-0.5,0.1-1.2,0.5-1.7C404,56.2,403,58.9,404.8,56.2 M397.8,54.5c1.3-1.1,3.5,1.1,3.9-1.4l1.2,1.5
		c-1,1.2-1.7,0.3-1.9,1.6c-1.8-1.1-2.8-1.2-3.5,1.1c-1.4-0.8-0.1-1.4-0.4-2.2l-1.9,1.6c-1.5-2.2,0.3-3.1-2.3-3.8
		C394.5,52.8,397.6,52.5,397.8,54.5 M393.7,60.5c0.7,0.6,1.7-0.9,2.3,0.6C395.3,62.5,393.1,61.8,393.7,60.5 M362.2,86.6
		c2.1-1.3,2-1.4,2.4-3.3c0.6,1.2,1.2,1.2,2,0.2C367.7,85.7,364,87.9,362.2,86.6 M359.3,53.4c0.1-1,1.9-1.7,2.8-0.5
		C361.1,53.6,360.2,53.9,359.3,53.4 M366.6,30.7c1.2-0.5,0.2-3,2-2.3c-0.7,0.6,0.8,1.5,0.4,2.2C368.1,31.5,367.3,31.8,366.6,30.7
		 M371,59.4c0.1-1.1,1.9-1.3,2.8-0.5C372.7,60.2,371.8,59.8,371,59.4 M375.2,56.7c-0.3,0-0.7-0.1-1-0.2c-1.3-0.3-2.7-0.9-3.8-1
		c1-0.6,0.3-1.4,1.6-2c1.6,3.1,3.8,0.9,5.6,2.3C377,56.6,376.2,56.8,375.2,56.7 M384.2,53.9c-1.2,1.3-2.2,1.3-3.2,0.8
		C381.3,53.4,383.4,52.1,384.2,53.9 M373.6,26.8c-0.9,0.9-1.7,1.2-2.4,0.1C372.1,26,372.9,25.7,373.6,26.8 M377.3,51.5
		c-2,1-1,0.8-2,2.3c-1,0-3.8,0.2-2.5-1.7C374.6,54.3,375.3,49.7,377.3,51.5 M369.1,21c-0.2,0.5-1.7,1.6-1.4,3.1
		c0.9-0.6,1.6,0.3,2.3,1.3c-1.8,0.8-3.7,2.8-5.3,1.3C367.4,25.2,366,19.1,369.1,21 M361.3,23.2c0.8,1,1.9-1,2.6,1
		C363.1,25.1,360.7,24.6,361.3,23.2 M364.4,25.6c-1.3,1.8-2.4,0.6-3.5,0.4C362.1,25.7,363.4,24.6,364.4,25.6 M356,46.7
		c1.9,2,6.1,0.2,6.9,2.4C360.9,48.2,355.5,50.4,356,46.7 M347.1,46c1.7,1.7,3.8-1.4,5.4,0.4C351,46.2,346.2,49.2,347.1,46 M94.7,7.5
		c-1.8-0.2-1.4,0.8-4,0.6c0.4-1.2,1.1-2.2,2.2-2.5c-0.6,1.6,1.7,0.4,1.2-0.5C95.2,5.8,94.8,6.7,94.7,7.5 M117.3,6.2
		c1.4,0,4.9-1,5.1,0.7C120.8,7.1,119.1,7.3,117.3,6.2 M128.3,8.3c-0.8-0.5-3.6-0.5-3.2-1.9C126,5.8,128.8,7,128.3,8.3 M151.7,11.9
		c1.4-1.2,2.8-3.2,4.2-1.9C154.4,11.2,153,12.3,151.7,11.9 M158.5,8.2c-0.6-1.8-1.5-1-3-2.1c2.6-0.4,4.6-4.2,6-1.4
		C159.4,5.2,159.5,6.7,158.5,8.2 M162.3,4c1.6,0.9,0.8,1.9,2.2,2.8c-1,0.9-2,0.6-3,0.7C162.2,6.3,161.3,5.1,162.3,4 M162.5,12.1
		c0.6-0.7,2.9-0.8,2.3-2.1c-0.7-1.4-3.4,0.5-2.9-1.4c1.4,0,2.8-0.5,4.1,1c-0.7,0.6-0.5,1.2,0.3,1.8C165,12.2,163.7,12.5,162.5,12.1
		 M168.2,8.2c-1.1,0.2-2.2-0.2-3.3-1C165.8,5.2,168.5,7.6,168.2,8.2 M181.3,11.8c-1.5-0.3-1.6-2.4-3.6-0.8c-0.2,1.2,2.1,0.9,1,2.5
		c-1.4,0-2.3-0.6-2.8-2.2c2-2,6-2.8,6.6-0.6C181.7,10.3,182.1,11.3,181.3,11.8 M187.1,12.6c-0.7-0.1-1.4-0.5-2.1-1.5
		c1-0.8,2-0.8,2.9,0.1C187.4,11.7,187.3,12.1,187.1,12.6 M189.9,14.8c1-1.2,1.9,0.5,2.9,0.8C191.7,17.3,190.9,15.7,189.9,14.8
		 M186.8,4.1c1.9-0.7,3.7-1.1,5.5,0.5C190.5,5.2,188.7,4.3,186.8,4.1 M200.6,17.2c0-0.4,1-2.4,1.9-1.7
		C202.3,16.5,202.1,18.2,200.6,17.2 M197.1,10.4c0.6-1.5,2.5-0.8,3.4-3c1.9,0.9-1.5,1.6-0.5,2.4c0.9,0.8,2-1.4,2.9,0.1
		C200.9,11.5,199,10.7,197.1,10.4 M209,15.1c-1.6-1.3-0.7-3.7,0.6-3.8C210.3,12.6,210.2,13.9,209,15.1 M214.5,22
		c-0.4-0.5-0.9-0.1-1.4-0.8l1.9-1.7C216,20.5,215.1,21.3,214.5,22 M214.1,13.9c-0.4-2.2-1.7-0.5-3.1-1.9c1.7-1.3,3.1,0.5,4.7-0.8
		c0.5,0.7,1.1,1.1,1.7,1.1C215.6,13.1,215.3,11.6,214.1,13.9 M222.3,17.2c-0.6-0.4-1.2-0.2-1.7-1.2c1.6-0.4,1-1.6,2.5-0.9
		C222.4,15.8,223.6,16.5,222.3,17.2 M225.3,15.2c-2-2.5-6.4,0.5-7.3-2.2C220.1,13.3,225.9,11.4,225.3,15.2 M235,16.5
		c0.5-0.6,0.1-1.2,0.5-1.7c0.7,1.4,1.6-0.2,2.3,1.2C236.9,16.6,235.9,17,235,16.5 M250,19.6l2.2-2c0.8,2.1,2.1-0.5,3,1.3
		C253.4,20,251.7,19.7,250,19.6 M263.5,37.6c0.1-0.8-0.2-1.7,1.3-2.4C266.4,36.3,264.6,38.7,263.5,37.6 M263.5,33.7l-0.9-1.1
		c0.9-1.4,1.6-0.4,2.4-0.2L263.5,33.7z M271,40.9c-0.3-0.3-0.5-0.6-0.5-1.1c1.2-1,1.4-0.3,1.9,0.5c0.3,0.5,0.7,1,1.4,1.1
		C272.9,41.8,271.7,41.6,271,40.9 M273.9,44.4c-0.1,0-0.1,0-0.2,0c-0.5-0.1-0.7-0.5-0.5-1.1c0.8,0.9,1.4-1,1.5-1.3l1.2,1.5
		C275.5,44.1,274.6,44.5,273.9,44.4 M281.4,50.9l-0.9-1.1c0.2-0.2,0.4-0.4,0.6-0.5c0.5-0.4,1.1-0.4,1.5,0.1c0.1,0.1,0.2,0.1,0.3,0.3
		L281.4,50.9z M295.6,38.5c0-0.8,1.6-1.6,2.6-1.6c-0.7,1.1,1.5,0.4,1.9,1.6C298.4,39.6,297,38.9,295.6,38.5 M313.9,80.3
		c0.8,0.9,1.7,0.6,0.8,1.8c-1.5-0.1-0.7-1.6-2.1-2.7c-1.6,1.7-2.8-1.2-4.5,0.7c0.9,0.4,1.8,0.1,2.6,1.6c-0.8,0.9-1.4,0-2.2,1.2
		c-1.2-0.6,0.5-2.7-1.1-2.2c-1.1,0.7,0.9,1.7-0.6,2.4c-0.7,0.2-1.3-0.2-2-0.9c0.2-1,1.7-2,1.3-3.1c-0.8,0.2-1.5-0.8-2.3-1.3
		c4.8-0.1,9.5-0.1,14.1,1.9C316.4,82.4,315.5,78.5,313.9,80.3 M305.2,37.9c0.4,0.6,1.3,1.3,0.8,1.8c-1.5-0.8-3.3,1.1-4.7-1.1
		C303.2,37.7,304,39.3,305.2,37.9 M302.7,22.1c0.8-0.3,1.8-2.4,2.6-1.6C305.2,21.5,303.5,23.1,302.7,22.1 M308.6,44.5
		c0.5,0.7,1,1.1,1.6,1.2l-0.8,0.6c0.2,0.2,0.3,0.5-0.1,0.7c-1.7-1.8-0.6,1.5-1.6,2c-0.1-0.1-0.3-0.2-0.4-0.2c0,0,0,0,0,0
		c-0.6-0.2-1.3,0.2-1.9-1.1C307.3,46.8,307.4,45.6,308.6,44.5 M319.7,83.6c-1.6-1.1,1-3.4,1.9-2.3C321.2,82.9,319.6,81.4,319.7,83.6
		 M322.4,83.9l-0.9-1.1c1.4-1,2.8-2.6,3.9-1.4C325.2,82.8,323.5,82.2,322.4,83.9 M326.4,45.3c-1,0.3-3.5,0.8-2.3-1.3
		C324.5,45.8,327.1,43.3,326.4,45.3 M340.7,84.7c1.1-1.3,2-2.5,0-3.2c1.2-0.6,2.3-0.2,3.3,1C342.8,83.7,342.4,86.3,340.7,84.7
		 M344.7,46.8c-0.1,0.1-0.1,0.1-0.2,0.2c-0.4,0.4-0.7,0.7-0.8,1.1c0,0.1-0.1,0.2-0.2,0.3l-0.3-0.3l-0.3-0.4c0.2-0.5,0.3-0.9,0.3-1.2
		c-0.1-0.8-0.8-1.3-2-1.8C343.2,43.3,343.4,45.1,344.7,46.8 M340.3,49.3c1.6,1.7,3.6,0.5,5.3,1.9c-2.1,1.5-5.7,0.3-6.4-0.9
		C339.7,50.8,340.2,49.8,340.3,49.3 M342.6,55.6c0.2,0.2,0.3,0.5,0.3,0.9c-1-0.2-3.1,0-4.1-0.8c-0.3-0.2-0.5-0.6-0.5-1
		C339.4,55.6,341.8,54.7,342.6,55.6 M337.6,44.2c0.3,0.1,0.6,0.2,0.8,0.3c-0.5,0.2-1.2,0.4-1.8,0.5c-1,0.1-2.1,0.2-3.2,0.2
		c-1.1,0-2.3,0-3.3,0.1c0.2,0.3,0.3,0.7,0.5,1c0.2,0.5,0.3,1-0.4,1.5c0-1-0.2-1.4-0.5-1.6c-0.4-0.3-1.1,0-2.1-0.4
		c-0.2-0.1-0.4-0.2-0.6-0.4c0.7-0.6,1.2-0.9,1.6-1.4c0.1-0.1,0.2-0.3,0.3-0.5c0.2-0.4,0.3-1,0.1-1.9
		C330.8,45.3,334.6,43.3,337.6,44.2 M327.7,19.2c-0.2,0.7-0.6,1.4-1.6,2c-0.7-1.8-1.8-0.3-2.6-1.6l0.8-0.6
		C325.2,20.4,326,18.8,327.7,19.2 M320,13.7c1.8,0.6,3.8-0.8,5.4,1.2c-1.8,0.2-1.5,2.5-3,2.6c-1.8-0.9,0.4-3.2-1.1-2.9
		c-0.6,0.8,0.2,1.7-1.3,2.4C319.2,15.7,319.7,14.7,320,13.7 M322.9,18.8c-1.3,1.3-2.4,1.1-3.5,0.4C320.6,19,321.9,17.9,322.9,18.8
		 M320.6,41.3c-1.1,0.7-2.2,1-3.2,0.8c0.7-0.5-2.7-0.5-1.1-2.2C317.7,40.6,319.2,40.8,320.6,41.3 M316.5,17.3
		c-0.6,0.5,0.6,1.2,0.2,1.8c-0.8-0.8-1.9,0.4-2.6-0.9C314.9,17.3,315.8,16.5,316.5,17.3 M318.3,30.5c-1.4,0.4-2.8,0.1-4.2,0.4
		C314.3,29.9,318.4,28.7,318.3,30.5 M308.7,16.3c1.6,1.1,3.4,0.4,5,1.5c-2.1,0.7-4.1-0.4-6.1-0.5L308.7,16.3z M315.8,41.6
		c-0.5,0.9-0.2,1.9,0.4,2.9c0.3-1.5,0.4-1.6,1.9-1.6c0.7,0.6,0.1,1.2,0.2,1.8c0.9-1.8,0.8-0.5,2.1-0.5c-0.8-1.5,1.3-1.7,2.1-0.5
		c-0.1,1.2-1.5,0.7-2.6,2.3c-2.3-0.6-2.4-1.6-3.5,0.4c-1.3-0.1-1.5-1.3-1.1-2.2c-2.3,1.3-5.9,0.6-7.2-1.7c-0.1-0.2-0.3-0.5-0.4-0.7
		c0.3,0.2,0.7,0.4,1.1,0.6C311.1,43.2,314,42.6,315.8,41.6 M307,16.5c-0.5,0.4-0.7,0.9-0.8,1.4c-0.8-0.8-3.3-0.6-2.9-2
		C304.4,16.9,305.9,14.8,307,16.5 M298.6,14.7c1.5-0.9,3.2-2.7,5.3-1.4c-0.9,1.3-1.6,0.3-2.6,1.6c0.8,0.9,1.7,0.6,0.9,1.8
		C301.2,16.2,298.3,16.8,298.6,14.7 M301.8,40.8C301.8,40.8,301.8,40.8,301.8,40.8c0.2,0,0.3,0,0.4,0c0.8,0.1,1.6,0,2.4,0.2
		c-1.2,1.1-1.4,2.5-2.9,1.9C302.3,42.2,301,41.4,301.8,40.8 M293.5,14c1.7,1.6,3.3-1.7,4.3-1.8c1.3,1.9-0.8,1.5-1.7,3.4
		c-0.5-1.5-1.4,0.1-2.1,0.5C293.2,15.4,292.9,14.7,293.5,14 M285.3,35.3c1,0.5,2.1-0.5,3,0.6C287.4,36.1,284.8,37.2,285.3,35.3
		 M282.9,24.5c-0.9,1-1.7,1.3-2.4,0.2C281.3,23.7,282.2,23.4,282.9,24.5 M276.1,34.3c1,0.6,2.1-0.1,3,0.6c-0.2,0.2-0.6,0.4-0.9,0.6
		c-0.6,0.2-1.4,0.3-1.8,0C276.1,35.2,276,34.8,276.1,34.3 M279.2,39.1c0.9-0.7,1.8-1.5,2.5-2.6c1,1.8,2.8,1.6,4.6,1.1
		c1.5-0.4,3-1.1,4.3-1.2c-0.4,0.7-2.3,1.2-1.6,2c1.3-0.9,2.6-0.4,3.9-1.5c-0.4-0.4-1.4-0.3-0.9-1.1c1.2,1.3,4.4-0.8,4.3,1.4
		c-1.3-0.9-3.3,0.6-3.4,2.2c0,0.4,0.1,0.7,0.3,1.1c0.1-0.8,0.7-1.2,1.4-1.3c1.1-0.1,2.6,0.5,3.1,1.2c0.1,0.2,0.2,0.3,0.2,0.5
		c0,0-0.1,0-0.2,0c-0.5-0.1-1.2-0.3-1.9-0.4c-1.2-0.2-2.4-0.1-2.1,1.4c0,0,0,0.1,0,0.1c0.1-0.1,0.3-0.1,0.4-0.1c0,0,0,0,0,0
		c0.4,0,0.8,0.1,1.2,0.6c-1.2,0.7-2,0.2-2.7-0.6c-0.4-0.5-0.8-1.2-1.2-1.8c-0.3-0.5-0.6-0.9-0.9-1.1l-1.4,1.2l-0.4,0.4l0,0
		c0,0,0,0,0,0c-2.4-2.3-5-2.1-7.7-1.6c-0.3,1.2-1,2.2-1.7,2.8c-0.2,0.2-0.5,0.4-0.7,0.5c0.1-2.7-1.4,0.9-2.6-0.9
		C277.3,40.5,278.3,39.8,279.2,39.1 M272.8,33.3c-0.6-0.4-1.4,0.7-2-0.9C271.5,30.7,273.5,32.4,272.8,33.3 M270.9,34.9
		c0.4,0.5,0.7,0.8,1.1,1c1.1,0.5,2.4-0.1,3.5,0.8c-1,1.4,0.1,2.6-2,3c-1.5-1.1-0.2-1.9-0.4-2.9c-1.1,0.3-2-0.2-3.2,0.8
		c-0.4-0.4-0.5-0.8-0.4-1.1C269.7,36,270.2,35.5,270.9,34.9 M268.1,20.6c-0.1,1-1.9,1.7-2.8,0.5C266.4,19.9,267.2,20.2,268.1,20.6
		 M256.5,20.5c1.2-0.5,2.5-2.4,3.5-1.2C258.8,20.4,257.5,21.8,256.5,20.5 M260,20c1.7-0.3,3.4,0,5.1,0.7C263.4,21.3,260.3,22,260,20
		 M263,35.4c-0.4,0.9,0.4,1.9,0.4,2.9c-0.9,1-1.6,0.1-2.3-0.5C262,37.2,262.1,34.8,263,35.4 M260.5,39.4c0-0.2,0.1-0.4,0.2-0.7
		c0.9,1.6,3.9-0.2,3.6,1.3c-0.8,0.1-2.7,0.7-3.5,0.2C260.5,40.1,260.4,39.9,260.5,39.4 M230.5,45.2c-0.9-1.5-0.7-2.1-3.5-3.4
		C229.4,39.7,231.6,43.1,230.5,45.2 M229,34.8c-1.8,1.5-1.2-0.4-2.7-1.6C227.4,31.7,229.1,33.8,229,34.8 M225.3,37.5
		c0.7,1.1,1.8-2.2,2.5-0.2l-1.9,1.7C225.5,38.4,224.9,37.9,225.3,37.5 M228.5,65.8c1.4,0.6,3.1-1.4,4.4,0.6
		c-1.4,1.3-2.6,0.6-3.9,1.5C228.2,67.2,227.9,66.5,228.5,65.8 M224.6,37.4c-2.4,1.3-4.7,0.9-7,0.3C218.1,34.4,222.3,36.2,224.6,37.4
		 M217.3,32.1c2.2-0.7,3,0.7,4.4,2c-0.2,0.3-0.3,0.5-0.4,0.8c-0.1,0.3-0.3,0.6-0.8,0.9c-0.5-0.4-0.7-0.7-0.7-1
		c-0.1-0.5,0.2-1-0.1-1.5c-0.9,0.6-1.5,1-1.9,1.4c-0.6,0.5-0.9,0.9-1.1,2c-1.1,0-0.9-1-1.1-1.9c0-0.1,0-0.2-0.1-0.3
		c1-1.2,1.9-0.8,2.9-1.2C217.8,32.8,216.9,32.9,217.3,32.1 M215.3,35.8c-1,1.4-1.9,0.3-2.8,0.5C212.6,34.8,214.4,34.5,215.3,35.8
		 M216.7,40.5c1.3-1.3,2.4-1.2,3.5,0.2c-1.5,1.6-1.8-0.4-2.6,1.6C217,41.7,216.7,41.1,216.7,40.5c-1.3,2-4.2,0.9-4.1-0.9
		C213.8,41.1,215.4,38.3,216.7,40.5 M208.2,62.6c1.8-1.5,3.5-1.1,5.2-0.8C211.6,63.2,209.9,63,208.2,62.6 M210.5,34.2
		c-1.1,0.1-2.3,2.3-3.2,0.9C208.4,34.1,209.5,33.7,210.5,34.2 M203.5,33.2c0.7,0.1,1.4,0.5,2,1.5C204.5,36.3,202.4,34.2,203.5,33.2
		 M195.9,36.1c0.9,1.5,1.8,1.2,2.7,1.5c-1.5,0.6-0.9,0.7-2.2,2c-0.5-1.4-1-1.9-2.4-0.5c-0.6-0.6-1-1.2-1-1.8
		C194,36.1,195,36.6,195.9,36.1 M189.5,30.6c-0.9-0.7-1.9,0.5-2.8-0.8C187.4,28.7,190,29.6,189.5,30.6 M185.7,28.1
		c1.5,0.7,0.9,3-0.5,2.5C186.3,29.7,184.2,28.8,185.7,28.1 M183.7,36.7c0.2-0.4,0.6-0.9,1.2-1.3c1.8,1.4,3.8-0.5,5.7,0.1
		c-0.3,0.6-0.6,0.9-1,1.2c-0.4,0.1-0.7,0.3-1.1,0.4c-1,0.2-2.2,0-3.5,0c-0.2,0-0.3,0-0.5,0c-0.4,0.5-0.2,1.3-1.1,0.3
		C183.5,37.2,183.6,37,183.7,36.7 M186,42.5c-0.9,1-1.7,0.6-2.5-0.4C184.4,41.1,185.3,41.5,186,42.5 M175.9,28.9
		c-1.4,1.1-2.7,1.7-4,0.3C173.3,28.2,174.6,28.8,175.9,28.9 M174.1,59.1c1.6-1.5,4.9-0.9,5.2,1.1c-1.4-2-3,0.2-4.5,0.3
		C175.4,59.6,173.8,60.4,174.1,59.1 M168.3,57.4c-0.8,1-1.6,0.7-2.4-0.3C166.7,56,167.5,56.4,168.3,57.4 M160,26.8
		c1.2,1.8,2.4,1,3.6,2.1c-1.4,1.3-2.7-0.7-4,1.8c-0.7-1-1.5-0.1-2.2-1.4C159.1,28.1,158.7,28.4,160,26.8 M149.3,27.4
		c1.8,1.7,3.7-1,5.5,0.9C154.7,29.9,148.2,29.7,149.3,27.4 M146.5,57c1.9,1.6-1.3,2.8-2.5,1.8C144.9,57.5,145.7,58.4,146.5,57
		 M119.4,49c1-1.4,4.1-0.4,4,0.8C122.1,49.4,120.8,50.2,119.4,49 M122,39.6l-1.2,1.3c-0.5-0.4-1,0-1.5-0.6c-0.1-0.5,0.1-1,0.5-1.4
		c0.9-0.9,2.6-1.6,3.8-1L122,39.6z M118,37.3c0.5-1.5,0.3-3-1.6-3.5c-0.1-1.3,1.2-1,2.2-1.6c0.8,2,2.8,0.4,4.5,1.1
		c-1.6,2.2,1.6-0.1,2.3,2c-1.6,0.9-3.2-0.6-4.8,0c-0.7,0.6-1.1,1.2-1.5,1.9c-1,2-1,4.1-3.4,3.5C116.6,39.9,117.6,38.6,118,37.3
		 M120.6,57.4c0.7,0.5,1.1,1.1,1.2,1.7c-1.5,0.5-3,1.6-4.6,0.1C118.2,57.4,119.5,59.2,120.6,57.4 M73.9,41.3c0.3-0.5-0.3-0.9-1-1.2
		c1.8-1.2,4,0.6,5.8-0.8C77.3,41,76.2,40.9,73.9,41.3 M77.9,36.2c1,0.4,1.8-0.1,2.8,0.6C79.8,38.3,77,37.9,77.9,36.2 M81.7,41.3
		c-1.2-0.6-2.3,0.3-3.5-0.5C78.9,39.4,81.8,39.7,81.7,41.3 M67.3,57.6c1.1-0.3,1.8-2.8,3.1-1.7C69.5,57.1,68.6,58.8,67.3,57.6
		 M73.2,56.4l-1.3-0.8l0.9-1.3c0.6-0.8-1.2-1.2-0.3-2.1c1,1.4,1.4-1.1,2.3,0.3C73.9,53.9,74.4,55,73.2,56.4 M81.1,51
		c-1.1-0.1-2.4-0.8-3.6-1.1c1.6-0.5,3-1.9,4.6-2.6c-0.6,0.7-0.3,1.2,0.6,1.7L81.1,51z M89.4,51.1c-0.9-2.4-2.5,0.3-4.2-0.4
		C85.7,47.4,90.1,48.3,89.4,51.1 M84.2,36.7l1.4-1.6c0.9,0.5,0.5,1.1,1.3,1.6C86.1,37.8,85.2,37.6,84.2,36.7 M86.1,39.9
		c-0.1-0.9,1-2.3,2-2.4c1.8,0.4-0.8,1.5,1,2C88.2,40.5,87.2,40.6,86.1,39.9 M95.5,53.1c-0.8,1-1.5,2-2.4,1.4c0.4-0.5,0.7-1-0.2-1.4
		c-1.3,0.9-0.3,1.5-1.2,2.3c-1.8-1,0.4-2.7,0.7-4c1.4,0.1,0.7,2.1,1.6,1.2c0.6-0.9-0.5-1.6,0.1-2.5l1.6,1.2
		C95.2,51.9,94.5,52.6,95.5,53.1 M98.7,59.3c1.5-1.3,3.1-1.1,4.7-0.2C102,60.7,100.5,60.8,98.7,59.3 M104.8,44.5
		c-1-1.3-1.7,0.5-2.7-0.8l1.4-1.6C104,42.9,104.9,43.7,104.8,44.5 M112.1,43.7c-1.3,0.4-2.6,1.1-4,0.8
		C109.3,42.7,110.8,43.6,112.1,43.7 M107.5,25.5c0.8-0.1,2.4,1.2,1.3,2.3C107.8,27.1,106.8,26.4,107.5,25.5 M95,20.2
		c-0.6,0.8,1.1,1.2,0.2,2.1C93.4,23,93.1,19.9,95,20.2 M95.6,22.6c0.9,0.5,0.3,1.1,0.5,1.7c0.6-0.7,1.4,0.6,2,0.1
		c-0.8-0.5-1.2-1-1.3-1.6c1.3-1.3,2.4-0.2,1.8-2c0.9-0.1,1.8-0.6,2.8,0.7c-0.5,0.8-1.5,0.5-1.1,1.2c1.3-0.2,2.6,0,3.9,0.3
		c-1.4,1.4,0.2,0.4,0.9,1.3c-0.8,1.5-1.8-0.5-2.7,0.6c1.4,1.8,2.6,0.9,4,1.7c0.4,0.6,2,2.8-0.2,2.5c0.7-1.4-1.5-0.3-2-1.6
		c-1.4,2.3-3.1,0-4.5,1.2c-1.3-1.6-2.1-1.9-4-1.6c-0.6,0.7,1,1,0.5,1.7C92.6,27.5,94.4,25.7,95.6,22.6 M92.4,37.2
		c2.1,1,4-1.2,6.1-0.2c-2.1,0-3.8,2.8-6,1.6C93,38.1,92.1,37.8,92.4,37.2 M94.1,46.2c-0.4,1.8-0.9,2.9-3.1,2.2
		C93.4,48.1,91.5,46.3,94.1,46.2 M90.1,33.7c0.4-1-2.7-1.5-1.1-2.7c1.9-0.3,0.2,1.5,2.2,2.2l-1.7,2c-0.5-0.8-2.7,0-2.1-1.5
		C88.2,33.2,89.2,33.9,90.1,33.7 M71.9,33.1c-0.4-0.8,0.5-1.8,0.8-2.7c1-0.5,2-0.7,3.1-0.6c0.6,1,0.1,2.1,0,3.2
		c0.6-1.2,1.3-1.8,2.1-2.1c0.9-0.4,1.9-0.5,2.8-0.8c0.1,0,0.2,0,0.2-0.1c2,2.2,3.4,1.6,6.1,2.3c-0.9,2-5.2,1.2-7.7,1.2
		c0.8,0.5,0.8,1.1,0.6,1.7c-2.3,0.4-3-0.1-2.2-1.4c-1.7,0.7-7,3.1-9.1,0C70.9,34.3,70.2,33.1,71.9,33.1 M67.3,41.5
		c0.6-1.2,0.1-2.2-0.1-3.2c0.9,0.5,1.5-0.8,2.4,0.2c-2.7,3.1,3,0.6,2.4,2.7c-1.7-0.7-4.8,2.3-5.6-0.3L67.3,41.5z M64.4,42.8
		c0.9,0.3,0.6-1.8,2.3-0.5L65.4,44C64.9,43.6,64.1,43.3,64.4,42.8"/>

</svg>
