<svg version="1.1" xmlns="http://www.w3.org/2000/svg" xmlns:xlink="http://www.w3.org/1999/xlink" x="0px" y="0px"
	 width="410.54px" height="93.59px" viewBox="0 0 410.54 93.59">
	<path class="st0" d="M392.95,50.49c-0.7-0.03-0.44-0.17-1.15-0.51c-0.28,0.41,0.11,0.53,0.4,0.68c-0.4,0.29-0.86,0.41-1.33,0.46
		c-0.82,0.08-1.7-0.08-2.52-0.04c0,0,0.01-0.01,0.01-0.01c0.8-0.9,2.18-0.07,2.97-1.04c-0.57,0.06-1.14,0.11-1.79-0.09
		c0.44-0.55,1.26-0.04,1.46-1.31c0.42,0.27,0.05,0.89,0.69,1.06c0.13-0.39,0.42-0.34,0.54-0.76c0.45,0.08,0.24,0.46,0.13,0.8
		c0.38,0.17,0.48-0.47,0.94-0.08c-0.17-0.91,0.92-0.82,0.68-1.69c0.93,0.14,0.35,0.99,1.1,1.22c0.39-0.72,1.89-0.76,2.18-0.32
		c0.65-0.94,1.02,0,1.67-0.82c0.53,0.36-0.36,0.4-0.32,0.88c1.03,0.2,1.56-0.86,2.53-0.83c0.11-0.61,0.11-0.8-0.12-1.53
		c0.52-0.11,1.28-0.86,1.01-1.61c0.74-0.05-0.09,0.76,0.64,0.71c0.49-0.05,0.67-0.81,1.3-0.53c0.36-0.66-0.15-0.8,0.37-1.09
		c0.66,0.22-0.22,1.3,0.08,1.73c-0.14,0.6-1.05-0.58-1.03,0.39c0.42,0.6,1.48-0.09,1.86-0.84c0.63,0.01,0.42,0.48,0.94,0.55
		c0.47-0.91,1.58-2.37,2.12-1.87c0.31,0,0.14-0.4-0.06-0.51c0.45-0.42,0.85-0.91,1.69-0.52c0.06-0.73,0.55-0.58,0.61-1.31
		c-0.36,0.84-1.63-0.22-1.82,0.98c-0.73-0.45-0.31-1.09-1.47-0.9c0.31-1.44,1.03-0.56,1.27-0.62c0.19-1.02-0.78-0.17-1.07-0.78
		c-0.05,0.62-0.32,0.79-0.8,0.5c-0.1,0.76-0.58,0.59-0.34,1.13c0.59,0.04,0.78-0.57,1,0.28c-0.19,0.45-0.9-0.2-1,0.45
		c-0.49-0.4,0.02-0.97-0.86-0.74c0.72,0.79-0.6,0.36-1.07,0.65c-0.13-0.1-0.3-0.68-0.12-0.88c-0.51,0.07-1.52-0.19-1.94,0.41
		c-1.05-0.95-1.52,0.31-2.43-0.63c-0.57,0.63-0.23,1.21-0.98,1.59c-0.24-0.16,0.02-0.6,0.1-0.94c-0.96-0.61-1.31,0.26-2.03,0.21
		c-0.05,0.49,0.14,0.58,0.5,0.44c-0.08,0.92-0.95,0.51-0.64,1.23c-0.1-0.12-0.55-0.82-0.77-0.31c-0.49-0.43-0.1-0.39,0.11-0.93
		c-0.92-0.15-1.37,0.87-2.5,0.14c0.35,1.66-1.27-0.25-1.4,1.33c-0.21-0.98-0.71-0.1-1.05-0.72c0.45-0.34,0.87-0.75,1.64-0.24
		c-0.03-1.43,1.61-1.02,2.73-0.74c-0.13-0.46-0.25-0.92,0.14-1.66c-0.73,2.08-4.62-0.28-4.86,2.97c-0.91,0.24-1.68,0.85-2.71,0.71
		c-0.07,0.47,0.11,0.59,0.47,0.47l-0.51,1.23c-0.24,0.21-0.56,0.17-0.92,0.02c0.25-0.64,0.84-0.28,0.97-1.22
		c-0.54-0.24-0.93-0.03-1.47-0.27l-0.34,0.81c-0.22,0.12-0.47,0.13-0.73,0.11c-0.39-0.24-0.18-0.72,0.06-1.2
		c-1.1,0.12-0.06,1.65-1.33,1.52c-0.03,0.29,0.05,0.54,0.38,0.7c-0.19,0.36-0.42,0.61-0.72,0.62c0.11-1.52-2.1-1.07-3-1.38
		c0.67-0.67,2.94-0.53,2.5-1.63c0.8-0.33,1.77-0.12,2.52-0.63c-0.21-0.88-1.06,0.13-1.54-0.08c0.5-0.65,0.62-0.32,0.78-1.31
		c0.77,1.17,0.83-0.15,1.57,1.07c0.48-0.81-0.02-1.23-0.42-1.68c0.42-0.47,0.76,0.47,1.11,0.56c0.18-0.49,0.55-0.46,0.66-1.16
		c0.59,0.08,0.37,0.52,0.84,0.65c0.32-0.99,0.33-0.19,0.98-0.27c0.45-0.74,1.21-0.65,1.63-1.43c0.67,0.09,0.19,0.72,0.52,0.97
		c-0.56,0.54-2.01,0.39-1.46,1.53c0.39-0.07,0.54-0.79,0.85-1.08c0.11,0.18,0.22,0.36,0.49,0.47c0.34-0.91,0.44-1.02,1.15-0.7
		c0.55-0.89-0.5-1.03,0.04-1.91c0.1-0.15,0.27-0.12,0.34-0.33c0.63,0.17,0.35,0.76,0.46,1.17c0.63,0.54,0.73-0.28,1.29,0.06
		c0.19-0.34-0.01-0.47-0.23-0.58c0.63-0.77,1.98,0.17,2.23-1.55c1.63-0.27,2.43-1.48,4.03-1.12c0.12-0.94,0.78-0.69,1.16-1.06
		c-0.17-0.78-0.42-0.81-0.21-1.51c-0.88-0.25-0.8-0.06-1.53-0.5c0.04,0.86,0.2,0.55,0.01,1.44c-0.48,0.5-1.26,0.3-1.5,1.35
		c-0.56-0.35,0.09-1.35-0.05-1.92c-0.47-0.2-1.22,0.82-1.47-0.09c-0.95,0.23-1.36,1.74-2.68,1.09c0.32-0.72,0.95-0.73,1.29-1.4
		c-0.39,0.05-0.67,0.4-1.26-0.03c0.12,0.68,0,0.75-0.51,0.27c-0.55,1.55-2.15,0.54-2.99,1.35c-0.63-0.06-0.17-0.61-0.09-0.99
		c-0.54-0.37-0.68,0.32-1.14,0.18c0.43,0.42,0.64,0.95,1.53,1.19c0.12,0.23,0.15,0.5,0.16,0.79c-0.29,0.19-0.65,0.18-0.97,0.27
		c-0.26-0.22,0.07-0.72-0.59-0.76c-0.23,0.39-0.07,0.6-0.11,0.91c-0.12,0.2-0.42-0.03-0.52,0.24c-0.55-0.49,0.15-0.47-0.07-1
		c0.24-0.56,0.97,0.16,1.1-0.67c-2.13,0.57-4.16,1.39-6.24,2c-2.09,0.58-4.19,1.1-6.35,1.34c0.11,1.33-1.4,1.11-1.92,0.28
		c-0.08,0.74,0.53,1.26,0.44,2.01c-0.67,0.56-0.95-0.69-1.58,0.01c-0.19-0.16,0.02-0.45,0.09-0.69c-0.71,0.03-1.17,0.95-1.93,0.78
		c0.33-1.91-1.8-0.37-3.17-1.35c-0.45,0.44,0.22,0.6,0.5,0.85c-1.08,0.22-0.65-0.07-1.72-0.2c-0.1,0.3,0.47,0.42,0.32,0.73
		c-0.23,0.17-0.53,0.1-0.86-0.1c0.03,0.32-0.03,0.66-0.3,1.06c-0.46,0.64-0.6-0.7-1.05,0.28c-0.27-0.26-0.22-0.59,0.04-0.99
		c-1.68-0.05-1.53-0.55-3.38,0.37c-0.16-0.23-0.22-0.49-0.04-0.8c-1.02,1.16-2.43,0.55-3.53,1.4c-0.1-0.19-0.21-0.39-0.13-0.62
		c-0.49,0.07-0.86,0.67-1.22,1.39c-0.48-0.22-0.54-0.53-0.19-0.93c-1.5,0.74-3.39-0.77-4.65,1.18c-0.56-0.27-0.02-0.74-0.59-1.02
		c0.2-0.35,0.56,0.14,0.73-0.44c-1.17,0.46-2.54,1.67-4.22,1.19c-0.08,0.71,1.11,0.33,0.47,1.21c-0.8-0.55-1.44-1-1.98-0.68
		c-0.23,1.04,0.56,0,0.99,0.34c-0.37,0.76-0.91,0.43-1.37,0.67c-0.1-0.52-0.06-1.05,0.01-1.59c-1.28,0.41-2.05,1.7-3.66,1.3
		c-0.14-0.19,0.11-0.44-0.1-0.62c-0.26-0.27-0.45-0.08-0.72-0.38c-0.39,0.66-0.14,0.65-0.65,1.03c-0.09-0.31-0.27-0.6-0.66-0.88
		c-0.6,0.4-1.28,0.28-1.93,0.37c-0.36-0.37,0.32-0.59,0.48-0.37c-0.64-0.9-1.57,0.34-1.8,1.31c-0.73-0.34-0.19-0.83,0.09-1.28
		c-0.91,0.1-1.65,1.5-2.63,1.08c-0.29-0.18,0.13-0.78,0.38-0.54c-0.27-0.5-0.75-0.67-1.32-0.64c0.19-0.07,0.75-0.28,0.18-0.65
		c0.24-0.2,0.57,0.32,0.74-0.38c-0.5-0.53-0.86,0.09-1.33-0.2c0.22,0.4-0.02,1.22-0.55,0.84c-0.1,0.31,0.23,0.12,0.45,0.44
		c-0.48,0.34-0.99,0.45-1.4,1.39c-0.67-0.37,0.18-0.86-0.41-1.23c-0.32,0.54-0.98,0.6-0.89,1.34c-1.13-0.1-2.45-0.41-3.15-0.06
		c0.03,0.36,0.22,0.72-0.26,1.12c-0.53-0.87,0.16-1.39-0.96-1.51c0.27-0.66,0.67-0.24,1-0.38c-0.14-0.8-1.19,0.21-1.7-0.04
		c-0.02,0.27,0.22,0.51-0.04,0.79c-0.45-0.3-0.71-0.05-1.14-0.87c-0.45,0.4-0.08,0.74-0.53,1.14c-0.37,0.13-0.91-1.33-1.44-0.06
		c-0.4-0.29-0.11-0.62-0.62-0.9c0.26-0.44,0.58-0.29,0.89-0.22c-2.11-1.41-5,0.26-7.41-0.02c-0.07-0.42,0.11-0.85,0.39-1.28
		c-0.49-0.17-0.91,0.37-1.43-0.07c-0.31,0.38-0.13,0.74-0.02,1.1c-1.13,0.08-3.39-1.3-4.32,0.84c-0.46-0.69,0.39-0.58,0.28-1.11
		c-0.83,0.01-1.01,0.06-1.69-0.08c-0.1,0.27,0.08,0.52-0.05,0.79c-0.81,0.35-2.42-1.38-2.72-0.02c-0.34-0.35-0.23-0.72-0.75-1.06
		c-0.37,0.2-0.68,0.97-1.14,0.21c-0.43,1.67-2.25-0.26-3.14,0.94c0.07-0.32-0.54-0.6-0.35-0.93c-0.61,0.38-1.2,0.99-1.95-0.06
		c-0.22,0.43-0.46,0.6-0.71,0.66c-0.05-0.21-0.11-0.41-0.32-0.61c-0.07,0.51-0.77,0.54-0.52,0.03c-0.36,0.47-1.04,0.4-1.8,0.09
		c0.23,0.67-0.11,0.74-0.57,0.81c-0.15-0.2,0.09-0.42,0.2-0.64c-0.67-0.21-1.28,0.14-1.95-0.08c0.43-0.78,0.68,0.13,0.83-0.82
		c-0.4-0.14-0.81-0.37-1.18-0.11c-0.16-0.26,0.17-0.53,0.32-0.8c0.47-0.01,1.04,1,1.43,0.1c-0.55,0.23-0.43-1.05-0.97-0.75
		c-0.23-0.7,0.25-0.79,0.68-0.97c0.26,0.36-0.02,0.74-0.03,1.1c0.54,0.4,0.64-0.4,0.83-0.82c0.43-0.01,0.83-0.31,1.32,0.25
		c-0.97-0.1-0.61,1.03-1.34,0.85c-0.18,0.58,0.85,0.23,0.09,0.94c-0.45,0.53,0.01-0.98-0.43-0.45c-0.61,0.7-0.05,0.38,0.35,0.93
		c-0.17,0.08-0.33,0.16-0.52,0.02c0.61,0.55,2.2-0.45,3.23,0c-0.36-0.89,0.47-0.21,0.43-0.97c-0.6,0.07-1.19,0.2-1.74,0.71
		c-0.51-2.07,1.66-1.53,2.25-2.15c1.03,0.73,0.2,1.56,0.87,2.32c-0.06-1.03,0.88,0.24,1.23-0.69c-0.38,0.18-1.55-0.12-1.26-1.04
		c0.82,0.99,0.62-0.58,1.69,0.08c0.57,0.45-0.05,0.95,0.52,1.39l0.57-0.82c-0.21-0.2-0.43-0.4-0.32-0.61
		c1.13-0.84,2.36-0.6,3.51-1.11c-0.46-0.72-0.79-0.14-1.2-0.41c0.67-0.57,1.92-1.05,2.35,0.2c-0.35-0.1-0.68,0.06-0.97,0.67
		c-0.09,0.6,0.64,0.16,0.46,0.76c0.79-0.2,1.35-1.49,2.06-0.1c0.24-0.66,0.58-0.28,0.89-0.2c-0.03-0.26,0.22-0.53,0.05-0.79
		c1,0.49,2.51-0.71,3.15,0.48c0.55-0.1,1.08-0.4,1.63-0.55c0.05,0.26,0.01,0.52-0.05,0.79c0.52,0.3,0.28-0.61,0.56-0.82
		c0.57,0.49,0.32,1.03,0.16,1.57c0.62,0.24,1.31-0.15,1.64,0.85c0.1-0.64-0.46-1.24,0.06-1.89c-0.86-0.42-0.15,1.38-1.22,0.7
		c-0.23-0.61-0.07-1,0.39-1.28c0.96-0.35,2.1,1.12,3.04,0.61c0.46,0.84-0.37,0.54-0.67,0.99c0.48,0.42,0.85-0.12,1.26-0.39
		c-0.06-0.21-0.12-0.41-0.33-0.61c0.32-0.2,0.51,0.33,0.48-0.34c0.8,0.59,1.35-1.09,2.24,0.34c0-0.72,1.07-0.9,1.29-0.09
		c0.27-1.38,1.49-1.4,2.35-0.95c0.22-0.22,0.05-0.42,0.19-0.64c0.73,0.48,1.42-0.05,1.54,1l0.78-1.16c0.94,0.45-0.14,1.07,0.44,1.55
		c0.48-0.7,1.05-0.61,1.65-0.3c0.02-0.53,0.49-1.1,0.58-1.63c0.43,0.59-0.46,1.3,0.23,1.88c-0.18-1.53,1.47-1.59,2.35-0.99
		c0.62-0.36,0.41-1.3,1.16-1.05c0.04,0.56-0.36,1.24,0.38,0.92c0.2,0.46-0.1,0.96-0.46,1.46c0.11,0.15,0.18,0.07,0.26-0.02l0.3,0.29
		c0.36-0.45,0-0.84,0.35-1.3c0.6-0.54,0.68,0.73,1.45,1.11c0.39-0.67,0.98,0.16,1.4-0.31c-0.64-0.83-1.12-0.55-1.59-0.14
		c-0.05-0.36-0.4-0.7-0.79-1.03c0.58,0.1,0.41-0.6,1.18,0.03c0.53-0.38-0.4-0.59,0.13-0.96c0.66,0.71,1.84,0.38,2.81,0.49
		c0.1-0.42-0.83-0.42-1.07-0.2c-0.35-1.2,0.93-1.18,1.56-0.96c0.49,0.71-0.89,0.15-0.42,0.68c0.77,0.73,0.42-0.61,1.13-0.28
		c-0.52,1.6,1.93-0.46,3.01,0.88c0.19-0.68,1.1-1.18,1.65-1.98c0.16,1.38,2.03-0.11,2.25-0.63c0.23,0.18,0.45,0.35,0.36,0.58
		c0.12-0.52,0.75-0.06,1.16-0.84c0.61,1.07,0.89-0.14,1.72-0.62c0.25,0.33,0,0.74,0.58,1.02c1.43-1.11,2.43-0.48,3.96-1.35
		c0.27,0.36,0.02,0.8,0.54,0.69c-0.23-1.25,0.77-0.7,1.33,0.04c-0.46-0.89,0.22-1.74,1.01-1.5c0.39,0.72-0.8,0.17-0.47,0.91
		c0.27,0.25,0.45,0.05,0.74,0.33c0.1-0.44-0.3-0.74,0.21-0.85c0.21,0.22-0.22,0.58,0.04,0.8c0.9,0.23,1.06-0.29,0.88-0.83
		c0.57-0.4,0.21,0.97,0.81,0.63c-0.26-0.74,0.24-1.1,0.74-1.45c0.43,0.86,0.39-0.08,1.06,0.54c-0.15-0.66,0.5-0.77,0.94-0.57
		c0.13,0.35-0.22,0.25,0.06,0.8c-0.04-1.01,2.2-0.47,1.56-1.87c0.57,0.31,0.69-1.17,1.26-0.82c0.54,0.58-0.29,0.58-0.45,1.42
		c0.52,0.12,0.9-0.33,1.43-0.21c-0.29-1.95,1.64-1.57,2.01-2.08c0.12,0.59-0.42,1.01-0.58,1.34c-0.31-0.12-0.25-0.36-0.16-0.61
		c-0.64-0.18-0.26,0.58-0.84,0.91c0.89-0.05,1.03-0.33,2.08,0.68c0.42-0.51-0.26-0.69-0.16-1.1c1.06,0.87,3.64-1.23,4.84-1.2
		c0.14-0.14,0.84-0.97,0.3-1.28c0.42-0.91,1.41,0.17,1.04-1.07c0.49,0.26,0.22,0.81,0.38,1.2c-0.16,0.24-0.49-0.1-0.76-0.22
		c-0.2,0.74,0.59,0.84-0.12,1.39c0.64-0.22,0.59-0.69,1.2-1.46c0.1,0.18,0.2,0.37,0.44,0.51c0.24-0.67-0.38-0.27-0.46-1
		c0.28-0.42,0.82-0.02,0.96-0.87c-2.11-0.01-3.98,0.64-5.92,1.09c-0.64-0.13,0.13-0.7-0.51-0.83c-0.46,0.15-0.22,0.46-0.4,0.95
		c-0.67-0.45-0.04-1.31,0.21-2.05c1.04-0.29,2.65,0.74,3.66-0.73c0.35-0.17,0.91,0.31,1.23,0.04c-0.56-0.54-0.43-0.49,0.38-0.48
		c0.32-0.46-0.19-0.6-0.05-0.99c1.28,0.8,1.2-0.15,2.02-0.43c0.44,0.17,0.24,0.58,0.79,0.71c-0.27-0.63-0.05-1.21,0.59-1.06
		c0.44,0.17-0.41,0.83,0.31,0.89c0.05-0.37,0.26-0.3,0.48-0.21c-0.07-0.25-0.03-0.55,0.09-0.9c1.14-0.12,1.68-0.23,2.8,0.11
		c-0.27-1.34,0.9-0.05,1.14-1.03c0.46,0.44-0.38,0.38-0.31,1c0.42-0.24,0.81-0.57,1.37-0.45c0.19-0.24,0.11-1.14,0.49-0.9
		c-0.46-0.7-0.27-0.66,0.06-1.59c-0.82,0.61-1.58-0.17-2.06,0.77c-0.69-0.47,0.08-0.65-0.51-0.97c-0.3,0.65-0.17,1.1,0.16,1.47
		c-0.19,0.34-0.53,0.3-0.66,0.81c-0.4-0.95-0.96-0.13-1.29,0.24c-0.54-0.5,0.3-0.78,0.1-1.59c-0.5,0.08-0.42,0.34-0.49,0.9
		c-0.24-0.17-0.8-0.6-1.49-0.36c0.15,0.39-0.11,0.96-0.28,1.5c-0.33-0.44-0.32-1-1-1.3c-0.17,0.56-0.65,0.19-0.95,0.36
		c0.01-0.4-0.4-0.64-0.47-1c-1.17,0.76-2.52,0.97-3.87,1.12c-0.4,1.24-1.53,0.14-2.05,1.03c-1.72-1.17-2.82,1.9-4.25,0.17
		c-0.08,0.63-0.43,0.33-0.55,0.83c-0.47-0.48-0.8-0.41-1.2-0.64c0.4-0.49,0.96,0,0.88-1.07c0.02,0.88,0.39,0.29,0.88,0.39
		c0.12-0.74-0.29-0.42-0.64-0.46c0.35-0.9,1.02-0.66,1.57-0.82c0.3,0.23-0.4,0.67-0.63,0.52c0.42,0.73,1.41-0.48,2.06-0.48
		c-0.44-0.49-0.52,0.3-0.96-0.19c1.15-0.15,1.33-1.03,2.26-1.53c0.46,0.24-0.57,0.94,0.2,1.09l0.29-0.75
		c1.22,0.27,2.25-0.73,2.76-1.51c-0.39,1.09,0.63,0.42,1.29,0.35c-0.06-0.41,0.11-0.87-0.36-0.7c0.42-1.43,1.13,0.25,1.52-0.9
		c0.49,0.32,0.48,0.83,0.58,1.29c0.4,0.1,0.56-1.08,0.46-1.34c0.33-0.57,1.7,0.36,1.41-0.8c0.2-0.08,1.11-0.02,1.06,0.38
		c0.17-0.9,1.35-1.63,2.61-1.51c-0.47,0.59-0.45,0.44-0.63,1.48c0.51,0.16,0.98,0.21,1.49,0.37c0.27-0.32-0.76-0.88-0.17-0.78
		c-0.1-0.85-0.51,0.25-0.69,0.31c-0.48-0.92,0.6-2.13,1.59-1.42c0.77-0.33,0.71-2.61,1.84-2.03l0.19-0.8
		c0.49,0.09,0.23,0.58,0.37,0.86c0.55,0,0.49-1.36,1.2-0.98c0.47,0.42-0.26,0.6-0.24,1c1.08-1.03,1.97-2.21,3.25-1.63
		c0.34-0.26,0.75-0.37,0.8-1.23c-0.36-0.08-0.54-0.27-0.45-0.63c0.76,0.42,1.46-1.21,2.62-0.89c-0.06,0.51-0.15,1.01-0.54,0.88
		c0.46,0.34,1.61-0.36,2.22-0.64c0.14-0.99-0.38,0.23-0.9-0.35c0.12-0.68,0.71-0.46,0.76-1.24c-0.2-0.17-0.32-0.4-0.26-0.76
		c-0.48-0.19-0.4,0.22-0.7-0.26c0.11-0.14,0.23-0.27,0.26-0.56c1.08,0.66,1.07,0.28,1.98,0.27c0.03,0.92-0.9,0.1-0.87,1.01
		c0.52,0.34,0.57-0.18,1.09,0.16c-0.51-0.39,0.19-1.51,0.6-1.76c0.2,0.1,0.1,0.43,0.1,0.69c0.64,0.45,0.57-0.35,1.13-0.06
		c0.02-0.39-0.59-0.33-0.66-0.66c0.44-0.99,1.55-0.83,2.08-1.69c-0.41-0.7-0.45,0.49-0.98,0.32c-0.14-0.09-0.16-0.27-0.34-0.33
		c0.67-0.12,0.51-0.73,0.91-1.41c-0.48-0.72-0.82-0.13-0.63,0.65c-0.68-0.01-0.03-1.13-0.67-0.65c0.07-0.63,0.68-1.27-0.2-1.55
		c-0.29,0.21-0.21,0.6,0.29,0.73c-0.06,0.23-0.35,0.06-0.56,0.02c-0.19,0.58,0.1,0.81,0.04,1.29c-0.62,0.42-1.35,0.61-1.67,1.58
		c-1.5-0.84-1.56,0.91-2.51,1.06c-0.55-1.13,0.9-1.21,0.46-2.23c-0.85,1.26-2.05,0.71-2.76,2.56c-0.62-0.41-1.09-0.81-1.18,0.36
		c-0.58-0.44-0.78-1.21-0.45-1.72c-0.36-0.28-0.31,0.28-0.58,0.17c0.43,0.34,0,1.21,0.69,1.39c-1.07-0.28-1.29,1.21-2.1,1.48
		c0.66-1.18,0.95-2.16,1.14-2.34c-0.8-0.83-1.28,1.35-1.81,2.03c-0.39-0.7-1.03-0.11-1.37,0.19c0,0.24,0.31,0.31,0.26,0.57
		c-0.07,0.14-0.22,0.11-0.26,0.31c-0.15-0.22-0.08-0.54-0.43-0.65c-0.89,0.44-1.52,1.5-2.35,2.1c-0.13-0.1-0.12-0.28-0.29-0.37
		c0.82-0.8,0.9-1.47,1.62-2.26c-1.02-0.26-1.5,0.7-2.39,0.72c-0.02,0.65,0.39,0,0.66,0.35c-0.02,0.46-0.23,0.47-0.34,0.71
		c-0.66-0.17-0.63-1.08-1.11-0.83c-0.1,0.35,0.11,0.53-0.02,0.89c0.16,0.08,0.18-0.17,0.25-0.31c0.38,0.21,0.8,1.38,0.66,0.36
		c0.95,0.45,0.35,1.19-0.11,1.29c0.35-0.73-0.82-0.19-0.68-1.05c-0.39-0.13-0.27,1.02-0.64,0.97c-0.54-0.41,0.08-1.14,0.36-1.35
		c0.1-0.52-0.57-0.64-0.47-1.16c-0.54-0.19-0.67,0.65-1.24,0.38c-0.24-0.65,0.25-0.64,0.18-1.44c-0.72-0.66-0.67,0.63-1.35,0.08
		c0.02,0.61,0.58,0.04,0.98,0.59c-0.33,0.12-0.61,0.37-1.02,0.28c0.71,0.38,0.59,0.83,0.73,1.56c-0.07,0.14-0.22,0.1-0.27,0.29
		c-0.6-0.08,0.04-0.7-0.55-0.78c-0.1,1.16-2.89,1.58-3.1,0.35c-0.08,0.67-0.56,0.54-0.33,1.16c-0.74-0.23-0.51-0.82-1.02-1.13
		c0.61-0.04,0.92-0.88,1.56-0.81c-0.55-0.49-1.81-0.06-2.42,0.46c-0.31-0.22-0.04-0.65-0.52-0.81c-0.3,0.63-0.61,1.32-1.57,0.75
		c0.19,0.79-0.3,0.86,0.27,1.58c-0.54-0.53-0.63,0.6-1.4,0.18c0.67,0.97-0.75,0.79-0.5,1.53c-0.95-0.18,0.19-1.06-0.53-1.32
		c-0.15,0.72-0.48,0.85-0.87,0.76c-0.15-0.34-0.14-0.73-0.21-1.09c1.04-0.72,2.26-0.62,2.86-1.68c-0.44-0.48-0.4,0.52-0.9-0.17
		c-0.85,2.27-3.13,0-4.14,1.85c-0.92-0.54-1.9-0.21-2.79,0.08c-0.9,0.28-1.74,0.46-2.29-0.26c-0.48,0-0.93,0.1-1.43,0.04
		c0.06,1.23-0.93,0.58-1.42,1.01c-0.1-0.25,0.02-0.55-0.3-0.74c0.15,0.81-0.64,1.05-0.75,0.35c-1.03,1.22-2.61,0.11-3.74,0.94
		c0.46,0.36-0.12,0.77-0.26,1.02c-0.28-0.32,0.32-0.82,0.12-1.15c-1.24-0.55-2.07,0.71-3.16,0.94c-0.21-1.17-1.52-1.01-1.61-0.21
		c-0.34-0.53-0.5-0.11-0.82-0.5c-0.27,1.79-3.07-0.17-4.19,1.45c-1.34-1.59-2.79,1.51-3.9-0.12c0.38,0.13,0.7-0.17,1.04-0.3
		c-0.41-0.82-1.39,0.56-2.37,0.31c-0.41-0.11-1.92-0.91-1.83,0.03c-0.19,0.39-0.55-0.43-0.81-0.55c-0.75,0.71-1.67,0.25-2.42,1.04
		c-1.07-0.48-3.22-0.12-4.81-0.05c-5.29,0.01-10.57,0.02-15.85,0.03c-5.39,0.02-10.78,0.14-16.15,0.34
		c-10.76,0.33-21.49,0.98-32.23,1.66c-21.46,1.45-42.91,3.47-64.44,5.2c-0.4-0.36-0.11-0.73,0.06-1.1c3.31,0.95,6.42-1.12,9.72-0.32
		c0.18-0.65,0.36-0.58,0.85-0.78c0.15,0.3-0.21,0.14-0.35,0.47c0.54,0.37,0.97-0.82,1.54,0c0.36-0.42-0.14-0.84,0.17-1.26
		c1.5,1.48,3.65,0.9,5.38-0.03c1.46,0.18,2.94,0.59,4.33-0.35c0.18,0.15,0.22,0.31,0.16,0.47c2.18-1.02,5.46-0.01,6.82-1.32
		c0.39,0.41,0.08,0.58,0.56,0.62c0.12-0.21-0.16-0.42-0.3-0.62c2.97,0.89,5.09-1.19,8.19-0.1c0.17-1.04,1.71-0.16,2.42-0.2
		c1.18-0.07,1.92-1.16,2.53-0.36c0.97-0.73,1.99-0.82,3.07-0.06c0.55-0.32-0.36-0.62,0.19-0.94c0.09-0.37,0.85,0.47,0.56,0.62
		c0.62-0.85,1.35-0.15,2-0.66c0.28,0.21,0.17,0.42,0.05,0.63c0.83-0.87,1.76-0.34,2.62-0.83c0.2,1.17,0.08,0.12,0.82,0.61
		c-0.03-0.41,0.25-0.79,0.58-0.79c0.04,0.26,0.19,0.52,0.44,0.78c0.49-1.21,1.89,0.34,2.99-1.01c0.25,0.25,0.28,0.51,0.19,0.78
		c1.46-0.45,4.98-0.32,5.28-1.08c0.75-0.21,1.6,0.79,2.27-0.38c0.77,0.71,2.09,1.07,2.32,0.25c4.85,0.3,9.13-0.82,14.14-0.6
		c0.22-0.22,0.06-0.42,0.2-0.63c0.44,0.43,0.55,0.26,1.22,0.74c2.54-1.17,6.43,0.43,9.35-1.29c0.27,0.25,0.16,0.52,0.45,0.76
		c1.17-0.23,2.32-0.73,3.54-0.46c-0.1-0.45-0.53-1.78,0.55-2.23c0.4,0.6,0.15,0.99,0.88,1.22c0.24,0.47-0.56,1.15-0.85,0.51
		c-0.39,0.79,0.96,1.04,0.79,0.28c1.72,1.08,3.17-0.74,4.9,0.39c0.24-1.11,1.36-0.83,2.18,0.06c0.24-0.22,0.1-0.43-0.06-0.63
		c1.49,0.44,2.89-0.06,4.39,0.42c0.1-0.27-0.08-0.52,0.05-0.79c2.12,0.4,4.88-0.88,6.55,0.46c0.1-0.16-0.09-0.31-0.17-0.46
		c2.27,0.13,4.51-0.55,6.82,0.23c1.48-0.83,4.2-0.35,6.17-0.43c0.42-0.4-0.19-0.72,0.23-1.12c0.16-0.08,0.31-0.17,0.49-0.04
		c-0.24,1.77,1.6,0.66,2.34,1.07c0.11-0.87-0.57-0.11-0.81-0.57c-0.3-0.65,0.49-0.53,0.65-0.68c1.08,1.95,2.55,0.55,3.83,1.23
		c0.41-0.41-0.2-0.72,0.21-1.13c0.14-0.15,0.34,0.17,0.48-0.05c0.16,0.25-0.13,0.54-0.25,0.82c0.41,0.37,0.77,0.32,1.05-0.27
		c-0.03-0.31-0.49-0.58-0.13-0.93c-0.28-0.29-0.45,0.28-0.76-0.24c0.31-0.68,0.83,0.14,1.1-0.75c0.53,0.88,0.86,0.39,1.28,0.5
		c0.22,0.76-0.81-0.08-1,0.58c0.93,0.96-0.27,0.43-0.49,0.84c1.32,0.99,1.02-0.27,2.24,0.4c0.16-0.33-0.42-0.59-0.38-0.91
		c0.1-0.16,0.25,0.05,0.38,0.12c0.12-0.43-0.02-0.58-0.33-0.6c0.46-0.94,1.12-0.66,1.56-1.6c0.41,0.27,0.61,0.26,0.61,0.87
		c0.51-0.08,0.8-1.44,1.39-0.98c0.32,0.28-0.26,0.67-0.32,0.99c0.46,0.38,0.65-0.46,0.46-0.85c0.27-0.52,0.8,0.54,1.07,0.02
		c0.19,0.29-0.16,0.66,0.39,0.9c0.33-1.26,2.06-1.78,2.28-0.62c0.48-0.18,1.08,0.29,1.4-0.72c0.86,1.14,1.5-0.48,2.01,0.63
		c0.23-1.96,2.33,0.65,2.99-0.99c1.02,0.22,1.85-0.46,2.9-0.11c0.41,0.37-0.56,0.17,0.13,0.61c1.18-1.74,3.13-0.06,4.38-1.3
		c-0.25-0.25-0.4-0.04-0.66-0.32c-0.14-0.18,0.04-0.45-0.15-0.62c0.69-0.03,1.52,0.55,2.2,0.43c0.02-0.41-0.26-0.26-0.44-0.38
		c-0.34-0.5,0.52,0,0.5-0.77c0.14,0.39,0.29,0.52,0.59,0.5c0.1-1.88,1.91,0.17,2.43-1.31c0.49,0.29,0.61,0.69,0.34,1.21
		c0.44,0.46,0.57-0.18,0.94,0.04c0.04-0.28-0.32-0.45-0.54-0.66c0.1-0.73,0.43-0.65,0.68-0.87c0.25,0.25,0.23,0.59,0.05,0.97
		c0.58-0.81,1.47-0.52,2.2-0.83c0.21,0.26-0.07,0.68,0.49,0.84c-0.03-1.65,2.5-1.41,2.97-2.37c0.48,0.65,1.24,0.15,0.81,1.04
		c0.5-0.01,0.4-0.43,0.27-0.94c0.4-0.26,1.04,1.22,1.4,0.32c-0.39-0.43-0.42,0.15-0.73-0.06c0.09-0.2,0.06-0.36-0.05-0.49
		c1.07-0.3,2.4,0.12,2.95-1.53c0.28,0.83,0.32,0.69,0.95,1.29c0.14-0.58-0.44-0.84-0.8-1.19c0.08-1.43,1.34,0.24,1.49-0.99
		c0.82,0.27,0.17,1.18,0.72,1.56c0.16-0.69-0.25-1.14-0.32-1.73c0.17-0.69,0.62,0.39,0.72,0.03c0.2,0.2,0.02,0.56-0.01,0.86
		c0.44,0.05,0.82-0.62,0.42-1.03c1.11,0.67,0.72-0.21,1.66,0.59c0.4-0.91,0.55-0.71,1.37-0.71c-0.08-0.42-0.6-0.63-0.3-1.25
		L378.68,0c-0.36,0.16,0.15,0.84-0.58,0.3c-0.12,0.3,0.06,0.44,0.24,0.58c-0.59,0.31-2.39,1.48-2.63-0.13
		c-0.33-0.25-0.22,0.62-0.37,0.84c-0.58-0.44-0.49-1.05-0.22-1.44c-0.28-0.09-1.25,0.43-0.57,0.92c-0.34,0.42-1.01-0.05-1.12,1
		c-0.31-0.26,0.15-0.86-0.09-1.16c-0.56-0.44-1.14,1.14-1.35-0.26c-0.38-0.24-0.18,0.61,0.02,0.68c-0.35,0.19-0.71,0.32-1.25,0.01
		c-0.01,0.28,0.2,0.49,0.16,0.78c-0.15,0.34-0.52,0.06-0.67,0.41c-0.1-0.24-0.14-0.51-0.15-0.78c-0.67,0.93-1.58,1.19-2.55,1.26
		c-0.37-0.34,0.3-0.17,0.21-0.75c-0.44-0.31-0.53,0.46-1.05-0.12c-0.38,1.08-1.07-1.04-1.45,0.03c0.25,0.08,0.45,0.01,0.7,0.08
		c-0.02,0.89-0.59,0.02-0.63,0.89c-0.35-0.17-0.2-0.49-0.13-0.78c-0.19,0-0.29,0.3-0.57,0.01c0.15,1.08-1.85,1.03-2.77,1
		c-0.06-0.1-0.08-0.16-0.09-0.2c-1.15,0.52-2.37,0.88-3.72,0.77c-0.18-0.23,0.05-0.55,0.12-0.84c-0.65-0.65-0.72,0.49-0.55,0.95
		c-0.59,0.34-0.23-0.9-0.95-1.06c-0.5,0.5,0.6,0.61,0.38,1.04c-0.9,0.17-1.57,1.34-2.7,0.51c-0.06,1.17-0.6,0.74-1.1,1.19
		c-0.47-0.22-0.27-0.59-0.65-0.83c-0.55,0.8-1.28,0.78-1.99,0.88c-0.29-0.55,0.49-0.51,0.67-0.62c-0.6-0.54-1.32,0.07-1.77,0.84
		c-0.49-0.27-0.06-0.74-0.55-1.01c0.19-0.57,0.75-0.26,0.6-0.93c-1.37,0.24-2.22,0.8-3.3,1.87c-0.72-0.36,0.22-0.99-0.38-1.37
		c-1.18,0.28-2.34,0.68-3.69-0.03c-0.42,1.1-1,0.31-1.37,0.18c-0.17,0.34,0.27,0.6-0.07,0.96c-1.07-0.91-2.86,1.05-3.22-0.38
		c-1.37,0.39-3.58-0.36-4.51,0.66c-0.87-0.8-1.48,0.23-2.38-0.86c-0.38,0.94-1,0.21-1.39,1.24c-0.48-0.28-0.22-0.61-0.6-0.9
		c-2.79,0.21-5.52,0.83-8.51,0.01c-0.02,0.33-0.19,0.65,0.01,0.74c-2.34-0.37-4.71-0.63-7,0.15c-0.54,0.43-1.24-0.69-1.81-0.53
		c-0.08,0.21,0.21,0.41,0.07,0.63c-0.77-0.28-1.79-0.62-2.78,0.14l-0.86-0.9c-2.49,0.97-5.13,0.52-7.75,0.21
		c-0.06,0.16,0.03,0.31-0.08,0.48c-4.55-0.45-8.95,0.52-13.48,0.28c-0.59,1.01-3.76,0.26-5.71,0.37c-1.05,0.06-1.82,0.7-2.68-0.06
		l-0.45,0.65c-0.63-1.13-1.61,0.5-2.59-0.54c-2.02,1.22-5.23,0.01-7.69,1.03l-0.57-0.61c-3.17,1.24-6.54,0.03-9.71,1.36
		c-1.52-0.92-2.83,0.7-4.35-0.2c-0.77,0.96-1.71-0.13-2.5,0.68c-2.43-0.57-4.78-0.12-7.11,0.44c-5.29-0.11-10.45,1.33-15.75,1.17
		l-0.47,0.63c-0.21,0.17-0.25-0.26-0.16-0.47c-2.75,0.63-4.79,0.63-7.58,1.32l-0.55-0.62c-0.52,0.11-0.11,1.15-0.98,0.63
		c-0.16-0.3,0.2-0.14,0.35-0.47c-0.36-0.18-0.9-0.01-0.86,0.48c-20.7,1.01-40.54,4.95-61.19,6.76l-0.36,0.47
		c-2.84-0.36-5.58,1.29-8.45,0.48c-0.48,0.21-0.84,1.27-1.01,0.29c-0.36,0.47-1.5,0.83-2.3,0.27l-0.48,0.62
		c-0.99-0.03-1.98-0.23-2.93,0.42c-4.78-0.6-9.43,1.61-14.25,0.17l-0.49,0.61c-0.84-0.74-2.21-0.47-2.56,0.25
		c-0.26-0.27-0.14-0.52-0.42-0.79c-0.26,1.18-0.75,0.46-1.15,0.13c-1.16,1.01-2.68,0.8-4.33,0.84c-0.24-0.27-0.26-0.53-0.17-0.79
		c-0.4-0.14-0.37,1.12-1.14,0.44c-0.11,0.16,0.07,0.32,0.15,0.47c-0.37,0.29-0.78-0.29-1.14,0.44c-0.28-0.21-0.16-0.42-0.03-0.63
		c-0.42,0.42-1.24,0.9-2.02,0.88c-0.41-0.8,0.4-0.42,0.73-0.92c-1.51,0.78-3.04,1.15-4.55,1.76l-0.68-0.8
		c0.08-0.71-0.34,0.39,0.29,0.63c-0.52,0.63-1.04,0.65-1.68,0.91c-0.18,0.07-0.37,0.16-0.58,0.28c-0.05-0.14-0.13-0.24-0.21-0.31
		c-0.32-0.28-0.79-0.2-0.35-0.64c-0.45-0.24-0.37,0.93-1.29-0.03c-0.55,0.64,0.33,0.5,0.53,0.63c0,0,0.01,0,0.01,0
		c-0.86,0.83-1.8,0.08-2.66,1.02c-0.14-0.21,0.11-0.42,0.23-0.62c-0.26-0.19-0.5,0.34-0.79-0.34c0.29,0.87-0.43,0.35-0.85,1.07
		c-2.31-1.16-4.6,2.17-6.68,0.44c-0.11,0.49-0.36,0.78-0.66,0.96c-0.57,0.35-1.34,0.33-1.86,0.52c-0.01-0.37,0.14-0.5,0.34-0.56
		c0.36-0.09,0.9,0.05,1.17-0.34c-0.23-0.31-0.43-0.15-0.66-0.49c0.71-0.43,1.4-1.36,2.12-1.65c0.04,1.64,1.93-0.02,2.31-0.25
		c-0.01-0.01-0.02-0.01-0.04-0.01c-0.88-0.42-2.02-0.4-3.08-0.05c-0.8,0.26-1.56,0.7-2.11,1.31c-0.15-0.27,0.19-0.51,0.35-0.77
		c-0.79,0.21-2.44,0.24-2.38,1.65c-0.47,0.31-0.36-0.61-0.68-0.81c-1.13,0.82-1.96,1-3.04,1.65c-0.27,0.16-0.55,0.34-0.86,0.58
		c-1.97,0.02-3.95,0.08-5.86,1.7c-1.17-0.21-2.98,0.56-3.67,1.61c-2.55-0.61-6.6,3.44-10.01,1.23c0.93,1.98-1.85,1.15-1.56,2.92
		c-0.69-0.14-1.31,1.71-2.04,0.56c-2.64,1.8-5.34,1.98-8.11,0.51c-0.32,0.51-0.67,1.02-0.46,1.55c-0.42,0.19-0.86-0.07-1.31-0.67
		c-0.36,0.73-0.76,0.39-1.15,0.43c-0.12,0.86-0.49,0.74-0.72,1.54c0.27,0.42,0.51-0.26,0.78,0.03c-1.64,1.12-4.43,1.16-6.6-0.39
		c-0.18,1.15-0.91,1.42-1.76,1.19c-1.47,2.35-3.49,3.64-5.52,4.5l-0.81-0.97c0.28,1.01-1.1,0.78-1.63,1.35
		c-0.07-0.21-0.14-0.42-0.02-0.62c-1.49,0.38-2.91,0.63-4.14,1.48c-0.28,0.19-0.56,0.41-0.82,0.68c-1.93,0.36-4.52,0.9-5.97,2.75
		c-1.34-0.14-3.67,1.75-4.69,2.49c-1.72,1.25-3.27,2.23-4.51,3.9c0.49,0.01,0.53,0.55,0.81,0.97c-0.33,0.49-0.69,0.1-1.01,0.59
		c0.65,0.3,0.89-0.29,1.31,0.36c0.57-1.09,1.76,0.43,1.91-0.71c0.29-0.31,0.62,0.62,0.93,0.82c0.81-0.24,1.63-0.35,2.44-0.38
		c-0.7,0.78-1.05,0.82-1.99,2.12c3.04-0.45,7.21-0.77,10.63-2.89c0.34-0.19,0.69,0.03,1.04,0.35c0.02-0.26-0.06-0.52-0.16-0.79
		c0.39,0,0.77-0.25,1.15-0.43c0.65,1.43,2-0.9,2.64-1.93c0.4,0.53-0.12,1.04-0.46,1.54c0.35-0.19,0.93,0.25,0.93,0.82
		c-0.6,0.68-0.76,0.09-1.12,1.05c0.32,0.48,0.57-1,0.9-0.13c0.46-0.29,0.13-0.62,0.48-0.92c0.17-0.06,0.34-0.13,0.52,0.02
		c0.02,0.52-0.51,1.03-0.46,1.55c-0.13,0.1-0.26-0.01-0.38,0.14c0.24-0.96-0.82-0.21-1.29-0.05c-0.26-0.27-0.14-0.53-0.42-0.8
		c-1.11,0.49-1.23,2.1-2.24,2.42c-0.14-0.58,0.81-1.12,1.1-1.68c-0.47-0.02-1.43,0.31-1.12,1.05c-1.27-0.53-2.47,0.81-3.69,1.59
		c0.79,0.49,1.52-0.74,2.28-1.17c-0.38,1.51-1.91,1.98-2.8,1.15c-0.96,0.84-1.93,1.57-2.94,0.98c-2.98,2.14-6.07,1.52-9.06,3.26
		c0.72,0.76,1.39,0.21,2.12,1.33c0.72-0.31,1.45-0.26,2.22,0.55c0.24-0.2,0.08-0.41,0.24-0.62c0.6,1.06,1.12,0.07,1.7,0.53
		c0.28,0.38-0.02,0.73-0.35,1.08c0.71,0.64,1.38-0.12,2.07,0.08c0.54,0.39-0.22,0.72,0.17,1.1c1.03,0.47,1.51-0.72,2.68-0.99
		c0.38,0.86-0.92,1.52-1.35,1.98c0.22,0.03,0.44,0.2,0.67,0.5c0.12-0.15-0.07-0.31-0.15-0.47c0.5-0.39,0.83,0.27,1.01-0.59
		c0.26,0.27,0.13,0.53,0.42,0.8c0.84-0.54,1.71-0.37,2.58-0.22c0.3-0.4,0.28-0.82-0.05-1.25c0.24-0.4,0.5-0.56,0.76-0.6
		c0.3,0.64,0.44,1.27,0.58,1.9c-1.03,0.19-2.52,1.41-2.75,2.71c-1.58,0.36-3.16,0.82-4.77,0.29c0.47,1.26-0.74,0.84-1.4,0.73
		c-0.22-0.67,0.68,0.04,0.89-0.44c-0.71-0.69-1.35,0.67-2.04,0.86c-0.51-0.43,0.26-0.77-0.42-0.8c-0.1,1.07-1.87,1.1-2.82,0.83
		c-0.71,0.99-1.64,0.54-2.68,1c-0.04,1.07,0.95,0.23,1.3,0.36c-0.85,0.63-2.97,1.82-4.63,0.76c-1.01,1.3-4.81,0.03-4.94,2.79
		C4.69,79.09,4.42,80.48,3.61,80c-0.05-0.54,0.49-0.37,0.35-1.08c-2.01,1.1-3.95,2.72-3.96,4.86c0.51,0.49,1.41,0.97,1.23,1.77
		c1.15,0.72,2.89,0.49,3.32,2.47c0.47-0.87,1.44-0.52,1.5-1.51c-0.18-0.16-0.34,0.14-0.51,0.29c-0.29-0.6,0.03-0.41,0.36-0.77
		c0.37,0.61,0.72,0.77,1.06,0.67c0.39,0.38,0.27,0.74-0.09,1.09c0.34,0.11,0.64-0.03,0.63-0.44c0.87,1.13,2.64,0.12,3.86-0.48
		c1.52,1.43,2.91-0.6,4.33-1.71l0.27,0.33c-0.51,1.67-1.95,1.75-2.62,2.87c0.28,0.45,0.52,0.07,0.8,0.66
		c2.11-1.75,3.51-1.13,5.61-2.29c0.09,0.16,0.01,0.32,0.15,0.48c-0.77,0.2-1.91,0.97-2.27,1.79c0.36,0.48,0.69-0.08,1.05,0.35
		c-0.19-0.66,0.15-0.82,0.63-0.44c-0.14-0.42-0.15-0.84-0.05-1.26c0.77,0.37,2.43-0.22,2.02-1.49c0.29-0.5,0.19,0.98,0.66,0.49
		c0.1,0.32-0.49,0.32-0.22,0.93c0.53,0.11,0.92-1.1,0.72-1.54c0.34-0.22,0.33,0.83,0.69,1.12c0.67-0.45,0.2-0.93,0.6-1.39
		c0.32-0.36,0.47,0.5,0.28,0.64c0.56,0.3,0.38-0.7,0.48-0.92c0.16,0.06,0.71,0.47,0.81,0.97c-0.28,0.58-0.59,0.39-0.88,0.75
		c0.8,0.56,1.08-0.57,0.99-1.22c0.91-0.15,1.73-0.21,2.28-1.48c0.69,0.44-0.04,0.83,0.3,1.26c-0.51,0.25-1.02,0.36-1.53,0.57
		c0.53,0.65,0.55,1.27,0.07,1.88c0.35,0.33,0.64-0.03,0.63-0.44c0.11,0.76,0.62,0.06,0.81,0.97c0.67-0.84,1.33-0.81,2.3-0.86
		c0.21,0.46-0.65,0.81-0.9,0.12c-0.13,0.1-0.06,0.21,0.01,0.31l-0.25,0.3c0.54,0.57,1.04,0.01,1.54-0.25
		c0.29,0.64,0.03,1.25,0.33,1.89c0.24-0.66,0.27-0.36,0.74-0.91c0.5,0.38,0.37,0.74,0.69,1.12c0.31-0.25,0.23-0.51,0.36-0.77
		c0.38,0.33,0.07,0.63,0.55,0.96c0.76-0.36,1.54-0.25,2.32-0.23c0.38,0.7-0.29,0.39-0.61,1.07c0.4,0.43,0.76-0.52,1.17,0.2
		c-0.02-0.26,0.26-0.51,0.1-0.78c1.92,0.61,3.77-0.87,5.68-0.42c0.12-0.2-0.14-0.42-0.28-0.64c0.29-0.4,0.58-0.76,0.88-0.75
		c0.63,2.49,2.5-0.65,3.62-0.18c-0.21,2.23-1.64,1.61-2.63,2.57c0.58,0.5,1.19-0.61,1.44,0.52l0.74-0.91
		c0.33,0.27,0.27,0.53,0.42,0.8c-0.35-0.03-0.67,0.67-1.03,0.28c0.23,0.7-0.3,0.39-0.35,1.08c0.65,1.24,1.15-1.56,1.8-0.25
		c0.54-0.87,1.1-1.73,1.59-2.6c0.54,0.44,0.29,0.85,0.05,1.25c0.46,0.8,0.87,0.23,1.31,0.36c-0.11-0.42-0.01-0.84,0.47-1.24
		c-0.27-0.19-0.51,0.34-0.79-0.34c0.42-0.37,0.85-0.36,1.3,0.05l1.11-1.37c0.25,0.93-0.21,0.74,0.68,0.81
		c0.64,0.44-0.25,0.83,0.3,1.26c0.1-1.52,0.85-1.05,1.6-2.29c0.79,0.26,1.57,0.28,2.36,0.71c0.52-1.48,1.26-1.76,2.1-2.59
		c0.61,0.44-0.4,0.82-0.21,1.24c1.18-0.12,2.25-2.24,2.72-3.35c-1.24-0.37-1.49,1.71-2.25,2.11c-0.24-0.27-0.26-0.53-0.16-0.79
		c-0.35-0.3-0.81,0.68-0.48,0.92c-1.16-1.24-3.05,2.49-4.63,0.77c0.8-1.83,2.77-1.92,4.08-1.73c0.7-2.17,2.54-1.99,4.19-2.2
		c-0.42,0.96-0.64,1.66-0.67,2.79c0.32-0.66,0.68-0.35,1-0.91c1.25,1.7,1.55-0.91,2.74,0.56c1.17-0.75,0.79-0.54,1.9-1.03
		c-0.37-0.28,0.04-0.52-0.16-0.79c0.34-0.23,0.69-0.04,1.01-0.59c0.62,0.59-0.08,0.95-0.48,0.92c0.16,0.72,1.6-0.18,1.52-0.89
		c0.52,0.07,1.01-0.56,1.57,0.37c0.74,0.09,1.41-1.52,2.16-1.03c0.53,0.91-0.21,1.77-0.55,2.65c0.93-0.11,1.26-1.41,2.55-1.17
		c0.5,0.61,0.25,0.75,0.8,0.65c0.4-0.58-0.82-0.22-0.42-0.8c-0.39-0.06-0.78-0.16-1.16,0.12c-0.24-0.81-0.12-0.73-0.8-0.65
		c-0.14-0.21,0.11-0.41,0.24-0.62c0.34-0.28,0.72,0.85,1.06,0.66c-0.02-0.26,0.26-0.51,0.1-0.78c0.42-0.25,0.87,0.08,1.3,0.04
		c0.21,0.42,0.1,0.58-0.23,0.62c-0.24,0.16-0.13-0.26-0.4-0.48c-0.04,0.47-0.21,0.93,0.18,1.41c1.63-2.48,3.36-2.4,5.04-3.59
		c0.2,0.22,0.41,0.43,0.29,0.64c0.11-0.5,1.4-1.39,2.27-1.5c0.16,0.81-1.22,1.22-1.1,1.69c-0.4-0.69-0.71-0.32-0.13,0.15
		c1.41-0.75,2.71-1.14,3.84-1.13c0.49,1.06-1.32,0.7-1.22,1.84c0.5-0.04,0.68,0.29,0.89-0.44c1.76,0.82,4.66-1.64,6.4-2
		c0.41,0.43-0.97,0.81-0.21,1.25c0.18-0.89,0.82-1.15,1.37-1.37c-0.39-0.16-0.79-0.42-1.18-0.19c-0.08-0.16-0.01-0.31-0.15-0.47
		c0.75-0.56,1.58,0.58,2.31-0.55c0.26,0.27,0.14,0.52,0.42,0.79c0.58-0.73,1.2-0.22,1.79-0.57c0.24,0.27,0.26,0.53,0.16,0.79
		c0.31,0.25,0.58-0.46,0.91,0.19c0.26-0.2,0.13-0.42-0.03-0.63c2.41,0.14,4-0.17,6.33-0.6c0.21,0.32,0.1,0.63-0.22,0.93
		c0.39,0.08,0.77-0.29,1.16-0.12c0.6-0.4-0.32-0.84,0.21-1.25c0.63,0.64,1.22,0.37,1.8-0.27c0.38,0.33,0.08,0.63,0.56,0.96
		c0.21-0.36-0.13-0.73,0.08-1.09c0.77,0.9,0.59-0.09,1.54-0.27c0.38,0.32,0.07,0.63,0.56,0.95c0.09-0.26,0.08-0.52-0.16-0.79
		c0.79-0.46,2.62,0.58,2.67,1.64c1.18-0.6-1.04-0.93-0.34-1.89c0.45,0.02,0.34,0.44,0.94,0.81c0.57-0.61,1.33-0.02,1.5-1.21
		c0.57-0.01,1.21-0.12,1.46,0.82l0.61-0.77c-0.53-0.84-0.13,0.66-0.65-0.18c0.28-1.17,2.24-0.34,3.32-1.16
		c-0.14,0.63,0,1.16-0.59,1.39c0.95,0.86,0.98-1.2,1.88-1.36c0.65,1,1.22,0.11,1.8-0.28c0.77,0.88,1.49,0.46,2.21,0.21
		c0.23,0.68-0.66,0.25-0.87,0.76c0.29,0.48-0.3,0.93-0.07,1.41c0.65-0.94,1.67-1.11,2.24-2.14c0.23,0.3,0.53,0.03,1.05,0.33
		c0.34,0.92-1.54,0.18-0.46,1.24c-0.36,0.63-0.79-0.19-1.15,0.44c0.43,0.74,1.44-0.55,1.45,0.5c0.39-0.56,0.87-0.32,1.52-0.9
		c0.05,1.28,0.75,0.01,1.46,0.81c0.74-0.93,1.53-0.66,2.28-1.2c-0.03-0.64-0.71-1.11-1.07-0.65c0-1.09,1.18-0.47,1.67-0.43
		c0.15,0.49-0.16,0.99-0.34,1.09c0.13,0.51,0.5,0.53,0.58,1.26c-0.05-1.41,0.74-0.38,1.36-1.38c-0.34-0.83-0.6,0.12-0.93-0.49
		c0.43-0.08,0.83-0.65,1.3,0.03c0.15,0.3-0.21,0.14-0.37,0.46c0.21,0.31,0.56,0.15,0.41,0.48c0.51,0.48,0.11-1.02,0.64-0.14
		c-0.17-0.53-0.46-1.05-0.07-1.57c0.62,0,0.07,0.53,0.56,0.95c0.33-0.36,0.17-0.73,0.08-1.09c0.21-0.05,0.44,0.21,0.64-0.14
		c0.72,0.69-0.31,1.35,0.23,2.04c0.12-0.42,0.32-0.83,0.2-1.25c0.4-0.7,0.9,0.69,1.28-0.28c0.51,0.38,0.37,0.74,0.7,1.11
		c0.53-0.64,1.12-0.23,1.68-0.12c0.25-1.09,1.23-0.79,1.91-0.75c0.38,0.32-0.63,0.61,0.05,0.94c0.51-0.97,1.19-0.49,2.05-0.59
		c0.51-0.36-0.29-0.74,0.08-1.1c0.74-0.18,0.2,0.93,0.84,1.27c0.34-0.04,0.47-0.21,0.49-0.62c1.38,1.74,2.55-0.93,3.9,0.07
		c0.37-1.06,0.67-0.89,1.48-1.54c0.23-0.03,0.44,0.61,0.93,0.49c0.2,0.79-0.74,0.42-0.99,0.92c0.83,0.49,1.39-0.16,1.91-0.75
		c0.67,0.27,0.39,0.64,0.84,1.27c0.5-0.22,0.83,0.23,1.01-0.61l0.55,0.63c-0.28-0.85,1.07-1.2,1.68-0.13
		c0.33-1.15,0.73-0.66,1.41-0.44c0.49-0.56-0.07-0.18-0.29-0.63c0.28-0.41,0.6-0.02,0.9-0.14c0.55,0.75,0.21,0.75,0.06,1.25
		c0.56,0,1.14,0.19,1.75,1.13c-0.12,0.2-0.25,0.24-0.38,0.15c0.12,0.6,1.31,0.28,1.84,0.33c-1.39-0.44-1.23-1.46-2.56-1.75
		c1.13-1.34,1.46,0.93,2.37,0.66c-0.08-0.68-1.1-1.37-1.02-2.05c0.39,0.6,1.27,0.48,1.62,1.27c0.31-0.67,0.28-1.35,0.54-2.03
		c-0.07,1.12,0.58,1.05,1.12,1.58c0.28,0.42-0.49,0.83,0.07,1.26c0.19-0.51,0.31-0.51,0.19-1.25c0.34-0.04,0.86,0.54,0.5-0.31
		c0.39,0.01,0.8,0.45,1.21,0.8c0.05,0.49-1.18,0.06-0.85,1.09c0.66-0.57,3.68-1.96,3.24-0.12c0.39,0.06,0.74-0.7,1.16-0.14
		c0.44-1.5,1.91-0.34,2.76-1.84c0.31,1.04,1.06,0.36,0.85,1.26c0.46,0.24,0.28-0.82,0.85-1.09c1,0.08,2.02,0.51,2.97-0.44
		c0.17,0.87,1.01,0.61,1.04,0.01c0.43,0.83,0.8,0.29,1.21,0.79c-0.16-0.51-0.35-0.52-0.59-1.26c0.5-0.1,1.12,0.52,1.35,0.96
		c0.7,0.14,0.29-0.93,1.3,0c0.04-0.26-0.19-0.52,0.09-0.78c-0.55,0.21-1.13-0.02-1.71-0.48c0.95,0.01,1.91,0.1,2.86,0.01
		c0.09,0.16,0.02,0.31,0.16,0.47c-0.42,0.3-1.28-0.34-1.26,0.62c0.72,0.48,1.22-0.78,2.22,0.17c0.16-0.24,0.32-0.47,0.5-0.31
		c0.09-0.26,0.07-0.52-0.17-0.79c0.53-0.55,1.13,0.03,1.66-0.46c0.49,0.32,0.19,0.63,0.57,0.94c0.47-0.4-0.33-0.78,0.35-0.78
		c0.52,0.41-0.24,0.78,0.43,0.78c0.35-0.26-0.09-0.52,0.08-0.78c2.16,1.85,4.45-0.06,6.15,0.82c0.24,0.31-0.32,0.62-0.2,0.94
		c0.75,0.3,1.4-1.13,2.22,0.17c0.09-0.26,0.07-0.52-0.18-0.78c0.22-0.57,0.51-0.18,0.74-0.62c0.35,0.26,0.09,0.52-0.08,0.78
		c0.41,0.41,0.78-0.08,1.18,0.16c0.12-0.21-0.15-0.42-0.3-0.63c0.23-0.54,0.52,0,0.76-0.31c0.06,0.26-0.13,0.52,0.18,0.78l0.48-0.62
		c0.39,0.32,0.08,0.63,0.58,0.94c1.24-0.26,2.48-0.53,3.74-0.47l-0.42-0.47c0.35,0.02,0.65-0.7,1.02-0.32
		c0.35,0.26,0.1,0.52-0.08,0.78c0.79,0.36,2.09-0.48,2.42-0.79c0.25,0.65,0.57,0.8,1.06,0.31c-0.71-0.6-0.12-0.62,0.2-0.94
		c-1.17,0.33-1.74-0.56-3-0.15c-0.12,0.29,0.13,0.12,0.28,0.31c-0.22,0.7-0.54-0.39-0.76,0.31c-0.47-0.77-0.46-0.56-1.12-1.25
		c1.57,0.64,3.52-0.73,4.7,0.31c0.07-0.16-0.02-0.32,0.1-0.47c0.47-0.33-0.07,0.6,0.44,0.78c0.7-1.29,1.53-0.53,2.32-0.32
		c0.15-0.87,0.7-0.81,1.26-0.63c-0.14,0.63-0.55,1.26-0.14,1.88c-0.37,0.2-1.04-0.03-1,0.63c0.49-0.11,0.52,0.03,0.82,0.63
		c0.16-0.71,0.51-0.56,0.58-1.1c0.42-0.25,0.89,0.34,1.28-0.32c0.61,1.14,1.72,0.49,2.6-0.01c0.1,0.95,0.56,0.87,1.18,0.16
		c0.12,0.26,0.13,0.52-0.08,0.78c0.9,0.43,1.69-0.64,2.58-0.32c0.21-0.31-0.38-0.63-0.06-0.94c0.23-0.44,0.57,0.8,0.78,0
		c0.25,0.26,0.27,0.53,0.18,0.79c0.43,0.13-0.1-0.86,0.62-0.47c0.35,0.31,0.5,0.62,0.32,0.94c0.62-0.47,1.87,0.34,2.04-0.65
		c0.39,0.31,0.08,0.63,0.58,0.93c-0.07-0.97,0.67-0.17,0.64-0.16c0.9-0.15,1.1-1.41,2.18-0.49c0.1-0.93,1.21-0.51,1.78-0.65
		c0.06,0.26-0.13,0.52,0.18,0.78c0.32-1.03,1.03-0.06,1.62-1.11c0.15-0.66-0.74-0.82-0.94-0.46c-0.24-0.13,0.54-0.73,0.74-0.64
		c0.18-0.75-0.6-0.17-0.8-0.3c-0.15-0.26,0.18-0.53,0.34-0.79c0.2-0.09,0.82,0.97,1.3-0.01c0.37,0.36,0.71,0.72,0.47,1.09
		c0.52,0.55,0.93-0.29,1.46,0.46c0.09-0.42-0.1-0.95,0.45-0.94c-0.19,1.17-1.1,2.01-2.02,2.68c0.44,0.1,0.9,0.44,1.34,0.62
		c0.17-0.31,0.17-0.95,0.62-0.48c0.11-0.26-0.06-0.52,0.08-0.78c0.55-0.43,0.36,0.36,0.96,0.77c-0.21-1.31,2.07-1.54,2.46-0.18
		c-0.06-0.78,0.55-0.01,0.85-0.79c-0.47-0.56-0.85,0.25-1.32-0.3c-0.04-0.59,1.12-0.05,1.56-0.01c0.02-0.31,0.14-0.63,0.46-0.95
		c0.28-0.37,0.34,0.48,0.04,0.63c0.48,0.23,0.41-0.82,0.05-1.1c-0.29,0.24-0.62-0.16-0.88,0.48c-0.15-0.31-0.18-0.63-0.33-0.94
		c0.57-0.47,1.25,0.49,1.82-0.02c0.19,0.6-0.75,1.77,0.14,1.88c-0.23-0.85,0.15-0.44,0.6-0.79c0.15,0.93-0.41,0.42,0.59,0.94
		c0-0.61,0.03-0.81,0.57-1.1c0.32,1.18,0.94-0.44,1.6,0.59c-1.55,0.22-2.69,1.22-4.52,0.53c0.74,1.05-1.15,0.5-0.79,1.73
		c0.24,0.3,0.44,0.14,0.68,0.46c0.16-1.03,1.32-0.3,1.59,0.3c-0.45-0.89,0.54-0.83,0.01-1.72c0.35,0.04,0.66-0.48,1.04-0.01
		c0.31,0.5-1.05-0.04-0.08,0.78c-0.21,0.7-0.55-0.38-0.76,0.32c0.27,0.26,0.15,0.52,0.45,0.78c0.67-1.06,0.96-0.25,1.21,0.46
		c-0.1-1.31,1.64-0.5,2.42-0.83c0.22-0.6-0.08-0.41-0.45-0.78c0.78-1.08,2.3-0.14,2.65-1.15c0.56,0.36-0.01,0.73,0.21,1.1
		c-0.69,0.05-1.37,0.29-2.08,0.04c-0.21,0.42-0.17,0.84,0.09,1.25c0.15-0.33,0.33-0.18,0.52-0.01c0.04-0.21,0.09-0.42-0.04-0.63
		c0.81,0.93,2.68-0.08,3.06-1c-0.19,1.6,1.01,0.74,1.44,1.86c0.2-0.28,0.41-0.3,0.64-0.17c0.17-0.85-0.6-0.14-0.83-0.61
		c-0.28-0.65,0.43-1.1,1.02-2.06c0.68,0.85-0.47,0.91-0.4,1.58c0.7,0.58,0.51-0.09,1.14-0.49c-0.25-0.36-0.14-0.73-0.21-1.09
		c0.29-0.25,0.64,0.47,0.9-0.18c-0.61-0.62-1.07,0.71-1.73-0.44c-0.6,0.67-1.21,1.24-1.87,1.13c-0.26-0.38,0.57-0.27,0.76-0.33
		c0.17-0.48-0.45-0.54-0.54-0.21c-0.2-2.7,3.74-0.41,5.62-1.45c-0.21-0.21-0.42-0.41-0.31-0.62c-0.34-0.45-0.57,0.5-0.92-0.14
		c-0.11-0.44,0.87-1.04,1.28-0.33c-0.34-0.74,0.68-1.76,1.23-0.97c0.17,0.17-0.71,0.7-1.01,0.33c0.26,0.92-0.2,0.92-0.26,1.73
		c0.6,0.35,0.45,0.58,1.12,0.92c-0.9,0.37-1.5-0.24-2.53,0.99c0.62,0.73,0.02,0.75,0.88,1.24c-0.07-0.52-0.6-1.04,0.14-1.57
		c0.87-0.03,1.76,0.27,2.6-0.05c-0.36-0.31-0.51-0.62-0.33-0.94c-0.4-0.14-0.79-0.14-1.18-0.13c-0.01-0.44,0.46-0.74,0.71-0.96
		c0.28,0.2,0.18,0.42,0.05,0.63c0.78,0.4,0.11-0.9,0.99-0.65c0.09,0.47-0.19,0.95-0.02,1.42c0.81-1.2,2.68-0.09,3.55-1.32
		c0.22,0.36-0.08,0.74,0.48,1.09c0.45-0.37,0.96,0.04,1.37-0.82c-0.37-0.3-0.53-0.61-0.6-0.93c0.58-0.39,1.21-0.12,1.77-0.67
		c0.35,0.61-0.27,1.83-0.97,0.97c0.34,0.46-0.11,0.94,0.24,1.41c0.43-1.13,1.07-0.71,2.1-1.47c-0.36-0.64-0.58,0.31-0.92-0.13
		c-0.05-0.77,0.76-0.15,1.11-0.82c0.27,0.25,0.16,0.52,0.45,0.77c0.13-1.71,1.53-0.01,2.15-0.84c0.48,1.15-0.92,0.87-0.92,1.6
		c0.14,0.14,0.26-0.08,0.38-0.17c0.61,0.3-0.27,0.64,0.34,0.93c0.42-0.5,1.17,0,0.85-0.81c0.38-0.71,0.89,0.29,1.3-0.04
		c0.14,0.41-0.04,1.01-0.47,0.64c0.2,1.08,1.59-0.94,1.88,0.58l0.7-0.96c-0.35-0.25-0.3-0.52-0.46-0.77
		c0.47-0.39,0.54,0.2,0.83,0.61c0.68-1.28,1.58-0.12,3.03,0.38c0.68-0.91,2.5,0.31,3.62-0.42c-0.05-0.74-0.57-0.16-0.95-0.44
		c0.11-0.83,1.42-0.69,2.03-0.69c0.3,0.77-0.82,0.03-0.58,0.8c0.44,0.34,0.78,0.56,0.86,0.92c0.28-0.33,0.76-1.3,1.14-1.92
		c0.57-0.25,0.53,0.8,1.01,1.07c0.32,0.09,1.21-0.9,1.18,0.11c0.93-0.9,1.94-0.71,2.95-0.58c0.64,0.45-0.39,0.96,0.25,1.4
		c0.71-0.5-0.31-0.93,0.27-1.43c0.54-0.49,0.71,0.77,1.15,1.21c0.32-0.33,0.7,0.11,1.04-0.04c-0.06,0.42,0.1,0.84,0.63,1.23
		c0-0.23,0.1-0.68,0.35-0.49c0.26-0.45-0.41-0.04-0.58-0.61c0.3-0.58,0.69-0.07,1.04-0.04c0.24-0.42-0.55-0.55-0.69-0.44
		c-0.08-0.37,0.02-0.74,0.03-1.1c0.5-0.06,0.57,0.52,0.75-0.34c0.64,0.69-0.08,0.56-0.03,1.1c0.58,0.4,0.44-0.39,0.58-0.81
		c0.58-0.28,1.23,0.08,1.82-0.07c0.08,0.47-0.29,0.95-0.27,1.43c0.6,0.21,1.27,1.43,1.91,0.87c0.61,0.93,0.78,1.44,1.97,1.5
		c-0.38-0.3-0.82-0.31-0.87-0.91c0.35-0.46,0.76-0.25,1.16-0.2c0.23-0.32-0.25-0.62,0.17-0.95c-0.5,0.09-1.54-0.72-1.56,0.06
		c-0.11-0.36-0.29-0.72,0.03-1.1c0.44-0.1,0.4,0.87,0.9-0.19c0.61,0.29-0.27,0.64,0.34,0.93c-0.2-0.94,0.52-0.94,1.13-0.51
		c0.26-0.61-0.24-0.73-0.58-0.61c0.19-0.31,0.42-0.16,0.61-0.5c0.19,0.36,0.99,0.7,0.75,1.07c0.24,0.08,1.03-0.92,0.93,0.12
		c0.46,0.27,0.52-1.42,1.22-0.99c0.16,0.26-0.17,0.53-0.32,0.8c0.66,0.07,1.94,0.89,2.08-0.09c0.18-0.14,1.13,0.09,0.58,0.6
		c1.13-0.18,2.52-1.26,2.71-3.12c0.3-0.07,0.62,0.08,0.9-0.2c0.57,0.5-0.35,1.06,0.41,1.55c-0.55,0.65-0.6,0.23-1.04,0.05
		c-0.56,0.55-0.63,1.08-0.11,1.58c0.11-0.16-0.09-0.31-0.18-0.46c0.37-0.31,0.72-0.71,1.16-0.21c0.35,0.42-0.4,0.07-0.46,0.65
		c0.41,0.64,0.65-0.47,1.07,0.26c0.08-1.53,1.63-0.54,2.64,0.19c0.37-0.58,0.6-1.68-0.29-1.72c0.3,0.8-0.27,0.55-0.75,0.35
		c-0.16-0.27,0.19-0.3,0.38-0.18c-0.29-0.7-1.58-0.11-2.26-0.36c1.98-1.2,5.26-0.54,7.72-1.32c0.15,0.2-0.09,0.42-0.2,0.64
		c0.37,0.21,0.73,0.32,1.01-0.36c0.32,0.99,0.54,0.11,1.1,0.58c0.42,0.34-0.78,0.77-0.02,1.1c0.36-1.05,0.7-0.47,1.68-0.24
		c0.31-0.81,0.74-1.36,1.53-0.39c0.36-0.74,0.85-0.26,1.21-1c1.62,2.08,3.97,0.29,6.49,1.19c-0.14-0.69,0.4-1.3,0.76-0.36
		c0.5-0.4,0.31-0.76,0.28-1.12c0.17-0.08,0.34-0.17,0.53-0.04c-0.01,0.48,0.2,0.93-0.25,1.44c0.84,0.56,0.05-1.32,1.04-0.39
		c0.08-1.13,0.36-0.75,1.12-0.87c0.31,0.35,0.03,0.73-0.28,1.12c1.18-0.94,3.24-0.36,3.93-2.33c0.59-0.39,0.66,0.12,1.12,0.22
		c0.43,0.44-0.23,0.97,0.3,1.4c0.45-0.46,0.29-0.87,0.13-1.28c0.69,0.11,0.45-0.38,1.02-0.72c0.51,0.79-0.24,1.94-0.87,1.97
		c0.31,0.21,0.21,0.46,0.04,0.31c1.04,0.81,2.48,1.66,3.71-0.17c0.55,0.37-0.53,0.89,0.15,1.25c0.37-0.93,1.85-0.05,2.74-0.25
		c0.23-0.29,0.05-0.54,0.32-0.83c0.08,0.26-0.11,0.54,0.24,0.77c0.5-0.11,0.14-0.23,0.48-0.69c0.14,0.19-0.13,0.44,0.08,0.63
		c0.69,0.58,1.22-0.04,1.03-0.75c0.17,0.19,0.31,0.21,0.44,0.11c0.17,0.19-0.08,0.43-0.19,0.66c1.3-0.11,3.5,0.79,4.17-0.47
		c1.39,0.71,0.9-0.41,1.73,0.09c0.53-1.33,1.01-1.19,1.86-2.02c-0.39-0.37-0.69-0.14-1.06-0.33c0.34-0.61,0.89,0.15,1.24-0.34
		c0.18,0.18-0.07,0.43-0.18,0.66c0.9-0.06,1.89,0.45,2.8,0.39c0.18,0.19-0.07,0.44-0.18,0.67c0.43,0,0.9,0.17,1.25-0.34
		c0.15-1.74,3.43,0.08,4.64-1.28c-1.71,0.03-3.41,0.25-5.12,0.08c0.49-0.48,1.12-0.23,1.7-0.28c0.09-0.78-0.77-0.04-1.07-0.3
		l0.7-1.08c0.32,0.21,0.21,0.49,0.56,0.7c1.12-0.62,0.8-2.05,2.34-1.7c0.23,0.52-0.82,0.82-1.08,1.31c0.11,0.36,0.52,0.65,0.33,1.06
		c0.25-0.28,0.6-2.32,1.89-1.78c0.27,0.27,0.19,0.61-0.12,0.98c0.7,0.44,0.86-1.53,1.82-1.29c0.67,0.31-0.24,0.9,0.52,1.19
		c0.13-0.13,0.04-0.22-0.06-0.31c-0.11-0.42,0.75-0.21,0.4-1.03c0.28,0.09,1.29,0.07,0.91-0.68c0.36,0.05,0.62-0.41,1.03-0.06
		c0.15,0.56-0.74,1.35-0.38,1.86c0.32-0.26,0.78-0.63,1.14-1.06c0.47,0.22,0.18,0.61,0.77,0.8c0.82-0.4,1.73-0.37,2.6-0.57
		c0.38,0.3-0.51,0.31-0.56,0.94c1.22,0.22,0.99-1.96,2.36-1.01c0.26-0.2,0.36-1.13,0.74-0.84c0.24-0.53-0.46,0.07-0.72-0.47
		l0.33-0.57c1,0.35,1.73-0.49,2.75-0.08c0.23,0.78-0.95,1.19-1.56,0.58c-0.3,0.48-0.63,0.85-1.03,0.93
		c0.46-0.18,1.87,0.65,2.34-0.62c0.7,0.3,0.06,0.96,0.76,1.26c0.3-1.25,2.05-1.63,3.4-2.06c0.48,0.47-0.41,0.3-0.43,0.77
		c0.62-0.18,0.47,0.42,1.11,0.68c0.67-0.65,1.56-0.53,2.2-1.34c1.34,0.59,1.02-0.55,2.32-2.07c-0.61,0.3-1.15,0.87-1.87,0.77
		c-0.25,0.3-0.05,0.46,0.16,0.61c-0.33,0.35-0.73,0.48-1.18,0.38c-0.41-0.15,0.35-0.55,0.51-0.49c-0.33-0.43-2.15-1.33-2.58-0.18
		c-0.71-0.78-2.31-0.27-3.17,0.37c-0.45-0.35-0.37-0.77-0.76,0.04c-1.74-0.63-3.28-0.39-4.66,0.38c-0.29-1.05-1.62,0.12-1.41-0.98
		c-0.16,0.37-0.65,0.44-1.19,0.75c0.3,0.24,0.51,0.03,0.81,0.31c-0.26,0.21-0.54,0.28-0.79,0.5c-0.17-0.23-0.22-0.49-0.02-0.8
		c-0.48-0.41-0.79,0.04-1.27-0.37c-0.23,0.27-0.03,0.44-0.16,0.68c-0.43-0.38-0.83-0.68-1.03,0.06c-0.28-0.18-0.61-0.56-0.81-0.31
		c-0.46-0.22,0.61-0.78-0.18-0.93c-0.32,1.36-2.87,1.24-3.56,0.51c-0.58-0.27-0.08,0.51-0.45,0.72c-0.12,0.12-0.28,0.05-0.39,0.23
		c-0.6-0.27-0.3-0.7-0.9-0.96c-0.74,1.14-2.72,0.65-4.09,0.53c-0.23,0.64-0.58,0.5-0.85,0.92c0.82,0.58,0.46-0.64,1.23-0.33
		c-0.25,0.54-0.18,0.39,0.32,1.07c-0.73,1.14-1.62,0.71-2.01-0.03c0.28-0.62,0.86,0.61,1.12-0.16c-0.63,0.07-1.07-0.78-0.65-1.34
		c-0.88,0.13-1.83-0.19-2.71-0.09c0.11-0.9,0.05-0.53-0.7-0.86c0.43-0.27,0.93-0.1,1.48,0.43c0.2-0.35-0.46-0.57-0.15-0.93
		c-0.47,0.3-1.05-0.1-1.55,0.06c-0.27,0.46,0.32,0.8,0.74,1.17c-0.75,0.33-1.61-0.04-2.29,0.8c-0.05,0.43,0.3,0.81,0.18,1.25
		c-0.79,0.35-0.14-0.8-0.85-1.01c-0.19-0.28,0.21-0.16,0.34-0.52c-0.97-0.97-2.67-0.07-3.78-1.15c-0.96,1.12-2.14,0.57-3.24,0.68
		c-0.48-0.76,0.65-0.78,0.61-1.65c-0.91-0.53-0.88,1.16-1.29-0.33c-0.18,0.55-0.11,1.07,0.2,1.56c-0.9,0.47-1.86,0.39-2.85,0.1
		c-0.13,1.24-1.13,0.86-1.81,0.8c-0.16-0.2,0.08-0.43,0.19-0.65c0.21-0.18,0.48,0.22,0.73,0.41c0.16-0.17,0.17-0.33,0.08-0.48
		l0.23-0.34c-0.54-0.35-0.93,0.61-1.54-0.34c0.26-0.45,0.62-0.08,0.92-0.24c0.06-0.86-0.84-0.33-1.15-0.53
		c0.71-1.4-1.07-0.15-1.84-0.63c0.11,0.48,0.05,1.4-0.5,1.46c0.27-0.83-0.44-0.77-0.6-1.69c-0.11,0.22-0.24,0.26-0.38,0.18
		c0.35,0.85-0.55,0.81-0.62,1.62c-0.38-0.09-1.61-0.91-2.28,0.01c-0.53-0.39-0.13-0.83-0.14-1.26c-0.79-0.34-1.49-0.35-1.96-0.81
		l-0.46,0.66l0.6,0.59c0.39-0.92,0.99,0.07,1.48,0.05c-0.55,0.72-1.27-0.22-1.83,0.44c-0.2-1.9-1.53-0.71-2.68-1.56
		c0.41,0.19,0.76-0.29,1.2,0.09c-0.05-0.79-1.09-0.43-1.49-0.39c-0.07,0.43,0.02,0.84-0.13,1.27c-0.68,0.28-0.45-0.79-0.77-1.06
		c-0.14,0.33-0.33,0.2-0.52,0.03c0.09,0.98-0.53,1.02-1.31,0.08c0.51,1.01-0.16,0.36-0.66,1.3c-0.84-0.83,0.85-0.82-0.16-1.57
		c-0.1,1.17-0.63,0.89-0.89,1.63c-0.72-0.7,0.67-0.79,0.4-1.28c-0.64,0.03-0.77,0.05-1.1,0.85c-0.66-0.64,0.39-0.39,0.17-0.95
		c-1.25-1.05-1.46,0.28-2.53,0.75c-0.34-0.35-0.23-0.72-0.76-1.06c-0.49,0.76-1.12,0.09-1.64,0.55c-0.21-0.41,0.02-0.84-0.12-1.25
		c0.01-0.03,0.03-0.03,0.04-0.06c0.14-0.21,0.31-0.1,0.45-0.28c0.04,0.02,0.06,0.05,0.09,0.07c0.31,0.27-0.04,0.58,0.01,0.87
		c0.76-0.2,0.95-0.77,1.9-0.57c-0.59-0.22-1.2-0.75-1.73-0.38c0,0,0-0.01-0.01-0.01c-0.45-0.4,0.7-0.09,0.21-0.63
		c0.14,0.06,0.27,0.09,0.41,0.11c0.39,0.07,0.78,0.04,1.17,0.08c0.09,0.01,0.18,0.01,0.27,0.03c0.09-0.22-0.21-0.41-0.06-0.63
		c0.45-0.35,0.23,0.57,0.71,0.74c0.01,0,0.01,0.01,0.01,0.01c0.01-0.01,0.01-0.02,0.02-0.02c0.15-0.22,0.33-0.26,0.51-0.2
		c0.03,0.01,0.07,0.02,0.1,0.04c0-0.03,0-0.05,0-0.08c-0.08-1.33,0.67-0.47,1.3-0.42c0.13,0.01,0.24-0.02,0.35-0.1
		c0.08-0.06,0.16-0.16,0.22-0.3c0.08,0.06,0.13,0.13,0.17,0.2c0.2,0.36-0.08,0.75,0.45,0.71c0.14-0.29,0.1-0.57,0.05-0.84
		c-0.07-0.34-0.16-0.69,0.02-1.05c-0.04-0.04-0.08-0.07-0.12-0.1c-0.04-0.02-0.07-0.04-0.11-0.05c-0.29-0.09-0.54,0.22-0.85-0.1
		c-0.11,0.21,0.17,0.41,0.33,0.61c-0.38,0.57-0.86,0.18-1.3,0.08c-0.14-0.56,0.38-0.29,0.43-0.97c0.39-0.11,0.8-0.01,1.19-0.17
		c0.12-0.05,0.23-0.12,0.34-0.23c0.35,0.26,0.23,0.6,0.3,0.78c0.04,0.09,0.11,0.14,0.32,0.13c0.03-0.12,0.07-0.22,0.11-0.31
		c0.17-0.42,0.44-0.68,0.78-0.83c1.18-0.54,3.15,0.22,4.39,0.04c0.13,0.41-0.43,0.87-0.13,1.27c-0.82-0.06-1.63-0.2-2.44-0.29
		c-0.26-0.03-0.52-0.06-0.78-0.08c-0.26-0.02-0.52-0.02-0.77-0.02c0.27,0.3,0.56,0.37,0.65,0.52c0.07,0.11,0.05,0.25-0.15,0.56
		c0.42-0.15,0.84-0.33,1.27-0.39c0.16,0.41-0.28,0.85,0.39,1.23c0.31-0.93,0.48-0.64,1.13-0.54c0.54,0.33-0.03,0.74,0.51,1.07
		c0.96,0.21,2.06-0.48,2.54-1.13c0.02,0.26,0.34,0.5,0.22,0.77c-0.33,0.46-0.13-0.79-0.53,0.04c0.86,0.55,1.59-0.05,2.45,0.46
		l0.8-1.16c0.31,0.4,0.38,0.82,0.94,1.2c0.41-1.1-0.47-1-0.71-1.53c0.42-0.59,1.1,1.01,1.48,0.04c0.7,0.57-0.38,1.3,0.48,1.86
		c0.11-0.17-0.1-0.31-0.19-0.46c0.96-0.64,2.04-0.23,3.1-0.12c0.46-0.72-0.49-1.33-0.96-1.18c0.46-0.33,0.76-1.87,1.33-1.22
		c0.32,0.57-0.53,0.23-0.3,0.82c0.35,0.68,0.48-0.44,0.84,0.24c0.22-0.63-0.16-0.81,0.53-1.15c0.35,0.28,0.39,0.6,0.12,0.94
		c0.82,0.57,0.49-1.31,1.26-0.74c0.26,0.45-0.61,1,0.04,1.42c0.46-0.41,0.26-0.77,0.53-1.16c0.17-0.09,0.34-0.18,0.54-0.06
		c0.1,0.5-0.65,0.59-0.37,1.31c0.68-0.15,0.59,0.36,1.36,0.96c1.35,0.43,2.57-0.53,3.48-0.7c-0.6,1.21,2.26,0.41,3.29,0.71
		c0.07,0.83-1.29,0.07-1.66,1.01c1.22,0.65,1.95-1.14,2.9-0.23c0.11-0.23-0.2-0.4-0.37-0.58c0.25-0.8,0.72-0.16,1-0.78
		c1.28,1.39,2.4-0.25,3.22,0.82c1.13-0.88,2.05-0.19,2.88-1.43c-0.51,0.04-0.2-0.18-0.66-0.53c1.34-1.28,2.09,0.39,2.43,1.65
		c0.24-0.68-0.17-1.25-0.06-1.91c0.63,0.08,1.21-0.12,1.88,0.15c0.27,0.35-0.52,0.48-0.77,0.86c0.36-0.11,2.2,0.23,2.5-0.04
		c0.36,0.08,0.52,0.92,0.12,0.62c0.17,0.74,0.56-0.09,0.84-0.17c0.1-0.24-0.22-0.38-0.4-0.56c1.13-0.31,3.29,1.16,4.67-0.05
		l0.87,0.62c0.22-0.37,0.61,0.1,0.78-0.5c1.58,1.39,2.45-0.61,4.03,0.61c1.09-1.14,2.51-0.88,4.04-0.26
		c-0.66,0.7-0.62,1.05-1.13,1.61c1.42-0.43,2.59-1.88,3.56-1.18c-0.39-1.28,0.47-2.22-0.31-3.54c0.75-0.06,1.57,0.11,2.34,0.07
		c-0.45-1.33-2.74,0.35-3.12-1.31c0.19-0.44,0.69,0.29,1.01,0.34c-0.1-0.65,0.41-0.64,0.87-0.83c0.24-0.11,0.47-0.27,0.57-0.62
		c0.04,0.4,0.09,0.8,0.49,1.09c0.13,0.1,0.29,0.18,0.5,0.25c-0.12-0.32-0.09-0.56,0-0.78c0.12-0.28,0.34-0.54,0.6-0.9
		c0.01,0.01,0.03,0.02,0.04,0.03c0.61,0.43,1.6,0.88,1.36,0.01c0.29,0.11,0.42,0.29,0.54,0.44c0.09,0.12,0.18,0.2,0.32,0.22
		c0.07,0.01,0.15,0,0.26-0.04c0.46,0.46,0.07,0.43-0.2,0.9c0.65-0.08,1.32-0.19,1.8-0.84c0.65,0.31-0.21,1.2,0.46,1.51
		c0.18-0.33,0-1.62,0.76-1.14c-0.03-0.38,0.22-0.87-0.47-1c0.59-0.56,0.61-0.51,0.64-1.09c0-0.1,0.01-0.21,0.02-0.34
		c0.05-0.28,0.23-0.19,0.41-0.06c0.23,0.16,0.47,0.37,0.53,0.03c0.22-0.39,0.1-0.51-0.11-0.56c-0.23-0.05-0.58-0.01-0.74-0.13
		c0.26-0.22,0.63-0.1,0.91-0.25c0.08-0.04,0.15-0.09,0.21-0.19c0.42,0.28-0.32,1.02,0.39,1.19c-0.04-0.71,0.91-0.67,0.76-0.13
		c0.4-1.31,1.73-1.48,3.15-1.17c0.18,0.04,0.36,0.08,0.53,0.13C392.82,51.36,393.04,50.86,392.95,50.49 M403.4,44.19
		c-0.04,0.31,0.14,0.51-0.1,0.94c-0.36-0.18-0.52,0.09-0.87-0.06C402.61,44.44,402.81,43.88,403.4,44.19 M399.72,45.84
		c0.64,0.89,0.52-0.38,1.21-0.3C401.42,46.42,399.17,47.15,399.72,45.84 M395.58,46.18c0.6,0.2,0.36,1.06,1.08,0.7
		c-0.55,1.49-1.4-0.23-2.27,0.02C394.56,46.05,395.48,47.2,395.58,46.18 M390.07,45.95c0.29,0.76,0.64,0.03,0.71-0.67
		c0.79,0.62-0.2,2.3-1.03,2.02C389.55,46.74,389.79,46.17,390.07,45.95 M395.98,38.29c0.37,0.33,0.93-0.75,1.02,0.16
		C396.59,38.5,395.95,39.35,395.98,38.29 M395.25,39.22c-0.57-0.71-0.48,0.04-1.08,0.04c0.12-0.34-0.49-0.35-0.42-0.67
		c0.67-0.23,0.71,0.38,1.04-0.54l0.57,0.23C395.31,38.6,395.48,38.8,395.25,39.22 M394.91,35.68c-0.89,0.35-1.55,1.3-2.57,1.32
		C392.87,35.91,394.3,35.34,394.91,35.68 M393.32,37.92c-0.15,0.92-0.67,0.93-1.31,0.6C392.42,38.25,392.64,37.51,393.32,37.92
		 M388.42,39.99l0.55,0.26c-0.09,0.74-0.53,0.51-0.87,0.57L388.42,39.99z M297.18,43.13c-0.64-0.4-0.01-1.4,0.43-0.96
		C297.28,42.49,297.62,42.79,297.18,43.13 M373.36,31.61c0.35,0.32-0.28,1.15-0.57,0.84C372.72,32.23,372.84,31.03,373.36,31.61
		 M396.66,7.09c0.79,0.64,0.35-0.9,1.14-0.25c0.07,0.97-0.95,1.35-1.22,0.88C396.89,7.73,396.58,7.43,396.66,7.09 M380.93,12.3
		c-0.17,0.97-0.79,0.42-0.88,0.39C380.33,12.51,380.43,11.9,380.93,12.3 M369.28,22.5c-0.2,0.54-1.03,1.16-1.18,0.37
		C368.5,22.77,368.75,22.14,369.28,22.5 M364.4,13.13c-0.2,0.73-0.67,0.49-1.1,0.34C363.16,12.87,363.86,12.65,364.4,13.13
		 M360.08,34.72c0.41,0.01,1.4-0.44,1.5,0.17C361.2,34.99,360.22,35.5,360.08,34.72 M371.54,32.35l-0.67-0.45
		c0.14-0.47,0.35-0.69,0.66-0.54C371.06,31.84,372.01,31.87,371.54,32.35 M370.77,28.63c0.42,0.64-0.48,0.94,0.1,1.29
		c-0.17,0.34-0.38,0.56-0.65,0.54C370.62,29.79,369.84,28.45,370.77,28.63 M366.2,29.33c0.8,1.12,0.41-0.26,0.98,0.72
		c0.58-0.37,1.63-1.47,2.05-0.77c-0.14-0.07-0.76,0.28-0.41,0.46c0.36-0.31,0.79-0.35,1.31-0.08c-0.18,0.65-0.61,0.37-1.07,0
		c-0.26,0.58-1.02,0.58-0.82,1.41c-0.98-0.44-1.57,1.28-2.4-0.03c0.17,0.94-0.7,1.14-1.26,0.81
		C365.73,31.34,365.25,30.31,366.2,29.33 M361.49,14.43c-0.56-0.29-0.86,0.44-1.52-0.27C360.26,13.69,361.29,13.7,361.49,14.43
		 M360.63,30.1c0.34-0.02,0.51,0.11,0.64,0.5c0.69-0.97,1.81-0.1,2.47-1.13c0.49,0.27,0.3,1.36,0.73,0.3
		c0.54,0.34,0.87,1.56,0.05,1.29c0.09-0.24,0.15-0.47-0.15-0.61c0.34,1.76-1.25,1.61-1.96,2.3l-0.8-0.61
		c-0.48,0.19-0.78,1.2-1.44,0.63c0.01-1.03,1.13-1.42,1.79-1.37c-0.17-0.19,0-0.28,0.17-0.37c-0.42,0.05-0.98-0.48-1.38-0.31
		c-0.42,1.01-0.91,1.81-1.7,1.16c1.01-0.2,0.59-0.83,0.89-1.31C360.15,31.35,360.52,30.74,360.63,30.1 M355.28,14.15
		c-0.28,0.72-0.85,0.16-1.3,0.1C354.3,13.67,354.78,13.87,355.28,14.15 M357.57,32.19c0.47,0.58,0.8,0.51,1-0.21l0.47,0.38
		c-0.51,0.68-1.2,0.49-1.85,0.55L357.57,32.19z M351.75,15.04c0.12,0.63-0.51,0.94-0.94,0.68C350.67,14.93,351.37,15,351.75,15.04
		 M356.23,32.64c-0.34,0.45-0.86,0.03-1.31-0.05C355.25,32.03,355.69,32.09,356.23,32.64 M352.25,32.89
		c0.61,0.51,1.06,0.09,1.51-0.26c-0.3-0.48-0.45-0.99-0.05-1.59c0.42,0.16,0.81,0.16,1.28,0.57c-0.27,0.6-0.73,0.25-0.97,0.98
		c0.34,0.59,1.23,0.08,1.44,0.69c-0.24-0.09-0.44-0.02-0.6,0.28l-0.78-0.66c-0.7,0.89-1.05,0.27-1.9,0.96
		C352.37,33.51,351.88,33.27,352.25,32.89 M350.65,33.32c0.61,0.26,0.36-0.73,1.1-0.35C351.57,33.66,350.69,34.2,350.65,33.32
		 M344.46,15.97c-0.38-0.11-0.64,0.54-1.1-0.02C343.45,14.86,344.97,16.07,344.46,15.97 M347.88,33.78c-0.57,0.2-1.21,0-1.82-0.07
		C346.48,32.97,347.95,32.57,347.88,33.78 M345.91,33.57c-0.33,0.36-0.71,0.45-1.06,0.62C344.95,33.53,345.34,33.3,345.91,33.57
		 M344.02,37.96c0.51,0.48,0.76-0.68,1.28-0.17C345.03,38.37,344.06,38.77,344.02,37.96 M343.79,34.02
		c-0.39-0.33-0.67-0.11-0.5-0.73c0.3,0.27,0.46-0.3,0.8,0.21L343.79,34.02z M339.17,15.56c-0.06,1.05-1.25,0.53-1.91,0.23
		C337.84,15.3,338.57,15.91,339.17,15.56 M343.74,34.5c-0.18,0.24-0.32,0.69-0.56,0.55c0.05-0.11,0.1-0.23-0.05-0.31
		c-0.17,0.31-0.38,0.34-0.61,0.25C342.87,34.43,343.27,34.23,343.74,34.5 M338.23,38.48c-0.82,0.63-1.74,0.58-2.71,0.13
		C336.68,38.43,337.21,38.41,338.23,38.48 M333.67,33.25c-0.31,0.44,0.03,0.58-0.43,0.67C332.59,33.49,333.19,32.56,333.67,33.25
		 M329.66,38.33c0.41,0.09,0.64,0.89,1.25,0.68c-0.25,0.78-0.68,0.12-0.95,0.72C329.41,39.3,329.16,38.85,329.66,38.33
		 M320.42,40.06c-0.47,0.42-0.99,0.45-1.54,0.09C319.35,39.74,319.86,39.71,320.42,40.06 M316.28,33.85l0.29,0.3
		c0.08-0.09,0.15-0.17,0.26-0.01c-0.14,0.74-0.73,1.25-1.33,0.86C315.79,34.28,316.37,34.54,316.28,33.85 M348.96,5.46
		c-0.23,0.9-0.69,0.74-1.19,0.38C347.7,5.14,348.47,5.03,348.96,5.46 M336.83,5.85c-0.23,0.26-0.35,1.23-0.73,0.57
		C335.85,5.96,336.53,5.23,336.83,5.85 M332.41,11.7c-0.24,0.6-0.58,0.51-0.91,0.41C331.77,11.7,332.03,11.27,332.41,11.7
		 M327.03,11.54c0.09,0.6-0.41,0.89-0.83,0.23C326.45,11.51,326.69,11.11,327.03,11.54 M321.96,10.35c1.03,1.14,1.18,1.03,2.15,1.43
		c-0.46,0.6-1.09,1.31-1.97,1.23c-0.15-0.36,0.55-0.77,0-1.1c-0.61,0.52-0.23,0.96-0.45,1.45c-0.24-0.32-0.43-0.14-0.67-0.43
		C321.25,11.72,321.71,11.42,321.96,10.35 M318.41,11.84c0.65-0.48,1.37-0.3,2.11,0.02c-0.27,0.67-0.39,0.26-0.6,1.3
		c-0.23-0.19-0.48-0.61-0.67-0.43c-0.14,0.22,0.15,0.41,0.07,0.63c-0.49-0.25-0.84,0.62-1.41-0.38
		C318.22,12.25,319.13,12.78,318.41,11.84 M314.58,12.53c-0.27,0.58-0.61,0.6-1,0.06C313.85,12.01,314.24,12.5,314.58,12.53
		 M308.71,12.21c-0.49,0.43-1.46,0.78-1.67-0.08C307.57,11.9,308.1,11.66,308.71,12.21 M296.02,13.13c0.28-0.67,0.98-0.06,0.68,0.44
		C296.35,13.36,296.08,13.77,296.02,13.13 M254.39,15c0.19,0.22,0.36,0.26,0.54,0.3c0.05,0.41-0.35,0.97-0.69,0.96
		C253.74,15.86,254.03,15.43,254.39,15 M245.94,16.58c0.44,0.24,0.8-0.72,1.28-0.02C246.89,16.81,245.93,17.33,245.94,16.58
		 M211.99,19.65c0.37,0.38,0.77-0.22,0.73-0.63c0.25,0.26,0.4,0.52,0.43,0.78C212.86,20.12,211.92,20.45,211.99,19.65 M209.48,18.55
		c0.52,0.57,0.38,1.15,0.5,1.72c0.35-0.76,1.07-1.05,1.14-0.16c-0.67,0.31-1.99,0.89-2.33-0.31
		C209.75,20.27,209.13,19.01,209.48,18.55 M207.16,20.28c0.35,0.13,0.66-0.32,1.03,0C208.33,21.25,206.74,21.05,207.16,20.28
		 M26.06,56.75c-0.4-0.43,0.01-0.83-0.05-1.25c0.31,0.24,0.6-0.14,0.93,0.5C26.64,56.36,26.34,56.17,26.06,56.75 M8.43,80.97
		c-0.02-0.57,0.62-0.94,1-0.9C9.45,80.49,8.83,81.43,8.43,80.97 M31.81,87.32c-0.36-0.51-0.49-0.52-0.52-0.02
		c-0.61-0.53,0.52-1.15,0.75-0.6C31.87,86.9,31.84,87.11,31.81,87.32 M32.13,85.29c-0.79,0.36-0.87,0.52-1.5,1.51
		c-0.33-0.69-0.62-0.32-0.9,0.12c-0.45-0.68-0.54-0.73-0.83-1.6c-0.64,0.6-0.15,1.25,0.07,1.88c-1.08-0.36-1.07-1.87-0.48-2.68
		c0.95,1.17,1.78-0.93,2.7-0.37c0.49,0.69-0.48,0.35-0.23,0.93C31.35,84.73,32.09,84.68,32.13,85.29 M31.44,84.17
		c0.33-0.3,0.67-0.61,1.04,0.04C32.14,84.58,31.8,84.57,31.44,84.17 M30.48,68.34c-0.43,0.47-0.28,1.11-0.89,0.44
		C29.56,68.31,30.1,67.82,30.48,68.34 M34.04,84.58c0.63-0.48,1.26-0.92,1.93-0.4C35.32,84.22,34.71,85.13,34.04,84.58 M31.82,69.64
		c-0.37-0.2-0.57,0.9-0.73,1.23c-0.57-0.33-0.13-0.63-0.29-0.95c-0.13,0.08-0.26,0.04-0.39-0.17c0.64-0.15,1.2,0,0.86-1.06
		C31.58,68.68,31.83,69.22,31.82,69.64 M37.67,84.72c0.32,0.47,0.59-0.46,0.91,0.19C38.38,85.59,37.49,85.31,37.67,84.72
		 M35.64,57.42c1.07-0.81,2.03-1.11,2.5-2.41l0.54,0.64C37.92,55.98,37.13,58.03,35.64,57.42 M39.47,55.99
		c-0.23-0.32-0.37-0.64-0.29-0.95c0.86-0.14,1.7-0.67,2.56-0.53C40.99,55.11,40.22,55.39,39.47,55.99 M53.49,88.88
		c-0.21,0.28-0.42,0.43-0.63,0.44c-0.7-0.76,0.37-1.45-0.6-2.21c0.47-0.12,0.92-0.84,1.42-0.11C52.83,86.96,52.64,88.02,53.49,88.88
		 M45.86,54.03c-0.6,0.77-1.91,1.44-2.9,1.93c-0.44-0.53-0.17-1.05,0.2-1.56c0.59-0.4,1.5-0.34,2.42-1.01
		C45.72,53.61,45.98,53.83,45.86,54.03 M62.38,84.18c0.07-0.61,1.01-1.24,1.52-0.89C63.41,84.11,62.89,84.01,62.38,84.18
		 M85.85,81.51l0.49-0.61l0.41,0.48C86.48,82.01,86.16,81.61,85.85,81.51 M86.73,80.75c0.65,0.07,1.28-0.3,1.95,0.22
		C88.06,81.58,87.41,81.59,86.73,80.75 M88.8,80.5c0.49,0.51,0.93-0.48,1.42-0.11C89.85,81.21,88.79,81.31,88.8,80.5 M85.82,29.55
		c0.12-0.38,0.23-0.65,0.49-0.61c-0.12,0.2,0.08,0.42,0.28,0.63C86.35,29.93,86.1,29.93,85.82,29.55 M87.63,28.36
		c-0.27,0.61-0.36,0.59-0.64,1.38c-0.39-0.53-0.18-1.04-0.32-1.57c0.12,0.11,0.23,0.07,0.35,0c0.22-0.14,0.44-0.41,0.68,0.03
		C87.68,28.26,87.65,28.31,87.63,28.36 M88.92,29.65c0.64-0.61,0.15-0.64-0.18-0.83c-0.17-0.09-0.28-0.23-0.21-0.49
		c0.04-0.15,0.13-0.33,0.32-0.57c0.01,0.02,0.02,0.03,0.03,0.05c0.36,0.54,0.38,0.67,0.73,0.73c0.06,0.01,0.1,0.02,0.18,0.03
		C89.69,29.01,89.54,30.13,88.92,29.65 M91.23,27.88c0.02,0.04,0.03,0.08,0.07,0.12c-0.68,0.13-0.54,1.45-1.23,1.53
		c-0.12-0.38-0.27-0.77-0.21-1.15c0.03-0.19,0.09-0.38,0.27-0.57c0.1,0.09,0.2,0.22,0.29,0.3c0.08,0.07,0.16,0.1,0.24,0.03
		c0.02-0.03,0.03-0.08,0.04-0.13c0.07-0.42-0.13-1.3,0.43-1.11C91.23,27.23,91.02,27.55,91.23,27.88 M111.9,78.19
		c0.45-0.55,0.96,0.17,1.42-0.12C112.87,78.67,112.4,78.58,111.9,78.19 M126.62,76.67c0.65,0.32,0.43-0.73,1.02-0.29
		C127.78,76.74,126.5,77.72,126.62,76.67 M129.37,77.21c-0.37,0.44-0.77,0.21-1.16,0.13c-0.04-0.54,0.53-0.37,0.86-1.08
		C129.52,76.58,129.09,76.88,129.37,77.21 M143.22,76.72c-0.33-0.37-1.28,0.03-1.21-0.81C142.62,76.68,143.3,75.36,143.22,76.72
		 M146.34,76.77c-0.36-0.25-0.7-0.07-1.07-0.65c0.48-0.71,1-0.8,1.51-0.92l0.41,0.48C146.48,76.03,146.59,75.89,146.34,76.77
		 M153.46,76.42c-0.4-0.71-1.3-0.14-0.96-1.11C152.76,75.86,153.62,75.72,153.46,76.42 M183.4,75.38c-0.35-0.14-0.67,0.43-1.06-0.32
		C182.59,74.58,183.52,74.73,183.4,75.38 M179.46,24.59c-0.63-0.6-1.18,0.26-1.8-0.01c0.44-0.47,0.75-0.93,0.56-1.4
		c0.41,0.41,0.76-0.08,1.16,0.16C178.73,24.35,179.8,23.94,179.46,24.59 M180.81,23.5c0.27-0.45,0.56-0.61,0.89-0.15
		C181.43,23.8,181.14,23.96,180.81,23.5 M182.01,24.29c0.17-0.36,0.01-0.73,0.32-1.09C182.66,23.64,182.66,24.76,182.01,24.29
		 M184.58,24.31c-0.31-0.23-0.6-0.06-0.93-0.47c0.18-0.18-0.2-1.11,0.34-0.78c-0.24,0.41,0.09,0.79,0.41,0.48
		c-0.13-0.32-0.15-0.63-0.05-0.94c0.27,0.31,0.5-0.22,0.79,0.32C184.53,23.37,185.19,23.84,184.58,24.31 M200.14,74.99
		c-0.29-0.25-0.12,0.35-0.38,0.16c0.28-0.45-0.41-0.06-0.56-0.63C199.4,74.02,200.31,74.53,200.14,74.99 M190.08,21.83l0.55,0.63
		C190.28,23.19,189.51,22.31,190.08,21.83 M192.46,23.1c0.12-0.26,0.03-0.52,0.34-0.78c0.34,0.63,0.61,0.24,0.93,0.47
		C193.33,23.26,192.92,23.62,192.46,23.1 M207.28,72.78c-0.15-0.26-0.1-0.52-0.44-0.78c0.53-0.59,1.07-0.9,1.68-0.16
		C207.86,71.91,207.27,72.36,207.28,72.78 M198.86,22.79c-0.58-0.4-1.73,1.01-1.93-0.15C197.53,22.73,198.59,21.6,198.86,22.79
		 M210.66,74.82c0.18-1.09,1.01-0.95,1.64-0.79C211.78,74.73,211.25,75.23,210.66,74.82 M210.94,73.09
		c0.64-0.77,1.34-0.69,2.06-0.32C212.36,73.47,211.62,72.78,210.94,73.09 M213.24,72.46c0.23,0.19,0.43,0.01,0.66,0.16
		c-0.15,0.21,0.14,0.42,0.04,0.62c-0.13-0.09-0.26-0.05-0.38,0.16C213.21,73.09,213.06,72.77,213.24,72.46 M213.7,73.55
		c0.45,0.33,0.85-0.26,1.32,0.31C214.69,74.28,213.68,74.32,213.7,73.55 M215.61,74.81c0.3-0.75,0.68-0.18,1.02-0.32
		c-0.08-0.16-0.27-0.31-0.16-0.47c0.2,0.21,0.25,0.42,0.3,0.63C216.38,74.77,216.02,75.15,215.61,74.81 M219.54,73.39
		c-0.41,0.4-0.87-0.03-1.3,0C218.63,72.61,219.45,72.46,219.54,73.39 M221.51,75.56c-0.29-0.26-0.18-0.52-0.44-0.78
		c-0.12,0.16-0.03,0.31-0.1,0.47c-0.59-0.36-0.3-0.73,0.06-1.1c0.18,0.16,0.38,0.47,0.54,0.31c-0.14-0.21,0.04-0.42,0.22-0.63
		l0.42,0.47C221.56,75,221.66,74.79,221.51,75.56 M222.31,73.83c0.13-0.26-0.17-0.52-0.18-0.78c0.69-0.68,1.44-0.55,2.2-0.18
		c-0.39,0.42-0.05,0.84-0.44,1.26C223.35,73.87,222.85,74.14,222.31,73.83 M224.07,74.91c0.06-0.15,0.02-0.31-0.16-0.47
		c-0.16,0.18-0.32,0.33-0.52,0c0.68-0.18,1.36-0.44,2.08-0.02C224.74,74.61,224.62,74.9,224.07,74.91 M225.05,73.96
		c-0.68-0.68-0.68-1.35-0.53-2.03c0.19,0.22,0.37,0.27,0.54,0.31C224.81,72.81,225.66,73.38,225.05,73.96 M227.83,74.71
		c-0.59-0.3-1.8,0.32-1.98-0.45c0.4,0.22,0.77-0.16,1.16-0.17c-0.24-0.33-0.44-0.17-0.68-0.47c0.34-0.29,0.89-0.5,0.83-1.11
		C227.5,73.26,227.72,73.99,227.83,74.71 M231.63,73.11c-0.37,0.26-0.75,0.38-1.18-0.15c0.35-0.54,0.75-0.42,1.16-0.17
		C231.54,72.9,231.48,73.01,231.63,73.11 M235.05,73.7c0.06-0.31-0.6-0.34-0.68-0.46c-0.14,0.26,0.03,0.52-0.07,0.79
		c-0.68,0.14-0.97-0.71-0.49-1.41c0.71,0.13,1.39-0.06,2.1,0.29C235.43,73.26,235.28,73.7,235.05,73.7 M239.71,73.34
		c-0.34-0.59-0.58,0.36-0.94-0.46C239.11,72.53,240.05,72.7,239.71,73.34 M241,76.77c-0.36-0.31-0.5-0.62-0.33-0.94
		c0.18,0.16,0.38,0.47,0.54,0.31c0.12-0.09,0.24-0.31,0.38-0.16L241,76.77z M242.31,75.02c-0.19-0.26-0.56-0.51-0.45-0.78
		c0.68,0.47,0.95,0.31,1.14-0.49C243.47,74.63,242.76,74.72,242.31,75.02 M244.61,74.35c0.61-0.57,1.26-0.51,1.92-0.51
		C245.91,74.32,245.29,74.86,244.61,74.35 M245.27,72.77c-0.24,1.23-0.62,0.05-1.04,0.02c0.4,0.82-0.2,1.42-0.38,1.89
		c-0.69-0.67,0.67-1.38-0.02-2.04c-0.12,0.26-0.03,0.52-0.33,0.79c-0.19,0.01-1.05-0.51-0.85-0.93c0.79,0.52,3.3-2.44,2.86-0.05
		c0.53,0,1.67-0.73,1.84,0.28C247.09,73.34,245.63,73.56,245.27,72.77 M247.54,71.78c0.4-0.39,0.84-0.4,1.3-0.02
		C248.46,72.48,248,72.12,247.54,71.78 M247.31,58.29c-0.59-0.39-0.44,0.68-1.11,0.8C245.38,58.19,247.27,56.97,247.31,58.29
		 M253.01,56.46c0.37-0.3,0.73-0.68,1.15-0.18C253.81,56.84,253.43,56.87,253.01,56.46 M256.52,60.01
		c-0.68-0.56-0.08-1.15,0.26-1.73c0.23,0.23,0.41-0.28,0.66,0.14C257.05,59.47,256.74,58.85,256.52,60.01 M257.86,58.88
		c-0.8-0.91,0.73-1.63,1.22-0.98c-0.13,0.27,0.04,0.52-0.07,0.79C258.18,58.83,258.33,57.58,257.86,58.88 M260.62,59.28
		c-0.42,0.54-1.38-0.29-1.36,0.83l-0.57-0.61c0.29-0.6,0.63-0.21,0.58-0.8c0.78,0.38,1.16,0.37,1.24-0.66
		c0.58,0.3,0.16,0.63,0.33,0.94l0.59-0.8c0.72,0.88,0.11,1.37,1.16,1.54C262,59.86,260.88,60.12,260.62,59.28 M261.69,56.42
		c-0.32-0.23-0.57,0.5-0.92-0.13C260.95,55.6,261.84,55.82,261.69,56.42 M271.48,43.28c-0.7,0.68-0.66,0.73-0.64,1.59
		c-0.3-0.49-0.56-0.49-0.77,0.02C269.47,43.94,270.71,42.77,271.48,43.28 M275.16,57.78c0.04,0.47-0.58,0.85-1.01,0.34
		C274.47,57.8,274.8,57.59,275.16,57.78 M274.22,68.17c-0.39,0.29,0.15,1.33-0.56,1.11c0.19-0.32-0.41-0.62-0.34-0.93
		C273.59,67.88,273.88,67.71,274.22,68.17 M270.32,55.71c0.04,0.5-0.6,0.66-1.01,0.34C269.61,55.48,269.96,55.59,270.32,55.71
		 M268.96,57.16c0.13,0,0.26,0.01,0.4,0.03c0.52,0.07,1.08,0.25,1.5,0.24c-0.34,0.32,0.01,0.63-0.44,0.95
		c-0.84-1.31-1.49-0.19-2.27-0.72C268.28,57.28,268.58,57.16,268.96,57.16 M265.77,58.82c0.34-0.65,0.73-0.7,1.13-0.5
		C266.93,58.9,266.24,59.61,265.77,58.82 M271.92,70.27c0.27-0.46,0.56-0.63,0.9-0.18C272.55,70.55,272.26,70.72,271.92,70.27
		 M268.56,59.53c0.66-0.56,0.33-0.4,0.56-1.12c0.38-0.06,1.4-0.29,1.09,0.6C269.37,58.19,269.47,60.22,268.56,59.53 M274.06,72.57
		c0.04-0.25,0.5-0.79,0.27-1.42c-0.28,0.33-0.61-0.04-0.95-0.44c0.62-0.44,1.19-1.41,1.89-0.84
		C274.35,70.65,275.36,73.26,274.06,72.57 M276.82,71.24c-0.38-0.38-0.65,0.52-1.07-0.29C275.98,70.46,276.92,70.58,276.82,71.24
		 M275.44,70.33c0.36-0.85,0.84-0.38,1.27-0.35C276.3,70.16,275.91,70.69,275.44,70.33 M276.96,60.55
		c-0.89-0.78-2.32,0.21-2.79-0.71C275,60.17,276.86,58.91,276.96,60.55 M280.33,60.44c-0.75-0.64-1.32,0.8-2.08,0.08
		C278.87,60.52,280.42,58.96,280.33,60.44 M378.18,64.45c0.7-0.03,0.45-0.43,1.46-0.46c-0.08,0.55-0.24,1.01-0.64,1.2
		c0.1-0.75-0.68-0.1-0.4,0.28C378.11,65.23,378.18,64.83,378.18,64.45 M369.77,66.17c-0.55,0.06-1.76,0.7-1.97-0.05
		C368.41,65.96,369.03,65.78,369.77,66.17 M365.48,65.83c0.35,0.18,1.39,0.02,1.34,0.68C366.57,66.83,365.41,66.41,365.48,65.83
		 M356.44,65.46c-0.42,0.62-0.81,1.55-1.42,1.04C355.44,65.88,355.88,65.33,356.44,65.46 M354.16,67.42
		c0.36,0.75,0.64,0.35,1.28,0.77c-0.93,0.3-1.4,2.11-2.15,0.94C354.06,68.77,353.89,68.13,354.16,67.42 M353.06,69.49
		c-0.67-0.33-0.46-0.78-1.04-1.12c0.32-0.44,0.71-0.37,1.08-0.47C352.91,68.45,353.33,68.92,353.06,69.49 M352.35,65.92
		c-0.15,0.35-1.03,0.5-0.69,1.06c0.39,0.59,1.25-0.41,1.22,0.46c-0.51,0.09-0.99,0.38-1.61-0.25c0.23-0.3,0.11-0.54-0.26-0.76
		C351.41,65.97,351.86,65.81,352.35,65.92 M350.52,67.94c0.41-0.13,0.85-0.03,1.33,0.29C351.64,69.11,350.44,68.22,350.52,67.94
		 M345.29,67.02c0.6,0.07,0.77,0.99,1.42,0.15c-0.02-0.54-0.87-0.29-0.57-1.04c0.54-0.08,0.91,0.17,1.24,0.81
		c-0.61,0.97-2.02,1.53-2.44,0.59C345.26,67.7,345.06,67.28,345.29,67.02 M343.05,66.95c0.28,0.02,0.58,0.15,0.91,0.53
		c-0.32,0.42-0.69,0.46-1.1,0.12C343.03,67.38,343.04,67.16,343.05,66.95 M341.83,66.14c-0.3,0.57-0.76-0.11-1.14-0.19
		C340.95,65.09,341.41,65.77,341.83,66.14 M343.83,70.67c-0.65,0.42-1.32,0.67-2.1,0.08C342.39,70.39,343.13,70.69,343.83,70.67
		 M337.63,65.6c0.02,0.18-0.19,1.13-0.58,0.84C337.04,66.02,336.99,65.23,337.63,65.6 M339.49,68.43c-0.09,0.7-0.87,0.47-1.05,1.52
		c-0.8-0.3,0.45-0.78,0-1.11c-0.4-0.29-0.65,0.71-1.09,0.1C337.99,68.15,338.75,68.4,339.49,68.43 M334.65,66.97
		c0.7,0.5,0.56,1.61,0.06,1.73C334.34,68.16,334.29,67.58,334.65,66.97 M332.02,64.19c0.2,0.18,0.35-0.01,0.57,0.27l-0.58,0.83
		C331.58,64.95,331.86,64.56,332.02,64.19 M332.83,67.76c0.33,0.97,0.68,0.14,1.3,0.68c-0.52,0.64-1.19-0.07-1.7,0.61
		c-0.26-0.27-0.5-0.42-0.72-0.42C332.32,68.2,332.53,68.83,332.83,67.76 M329.48,66.73c0.24,0.14,0.45,0.04,0.72,0.42
		c-0.56,0.27-0.26,0.78-0.88,0.54C329.54,67.36,329.06,67.08,329.48,66.73 M328.51,67.75c0.97,1.02,2.36-0.53,2.9,0.58
		C330.62,68.32,328.6,69.45,328.51,67.75 M324.76,67.68c-0.13,0.27,0.05,0.52-0.05,0.79c-0.37-0.58-0.6,0.17-0.97-0.41
		C324.06,67.73,324.39,67.5,324.76,67.68 M318.88,67.08l-0.68,0.98c-0.48-0.88-0.75,0.31-1.22-0.41
		C317.57,67.09,318.23,67.12,318.88,67.08 M312.42,59.85c0.03,0.36,0.21,0.72-0.28,1.11C311.43,60.56,311.9,59.41,312.42,59.85
		 M312.72,61.57l0.44,0.45c-0.24,0.65-0.58,0.28-0.89,0.2L312.72,61.57z M309.33,58.76c0.14,0.11,0.25,0.25,0.28,0.44
		c-0.36,0.51-0.52,0.2-0.76-0.13c-0.15-0.2-0.32-0.41-0.6-0.44C308.54,58.44,309.02,58.51,309.33,58.76 M307.97,57.37
		c0.02,0,0.05,0,0.07,0c0.18,0.02,0.31,0.16,0.28,0.48c-0.38-0.35-0.43,0.51-0.46,0.65l-0.58-0.6
		C307.4,57.58,307.71,57.37,307.97,57.37 M304.65,54.88l0.43,0.45c-0.06,0.11-0.12,0.19-0.18,0.27c-0.17,0.2-0.37,0.23-0.58,0.05
		c-0.04-0.04-0.08-0.06-0.13-0.11L304.65,54.88z M300.29,61.07c0.05,0.35-0.48,0.8-0.84,0.83c0.19-0.51-0.6-0.1-0.83-0.59
		C299.13,60.73,299.72,60.99,300.29,61.07 M290.11,43.57c-0.37-0.36-0.67-0.17-0.46-0.77c0.57-0.03,0.39,0.65,1,1.06
		c0.48-0.81,1.15,0.37,1.63-0.53c-0.36-0.12-0.68,0.07-1.09-0.58c0.22-0.45,0.51-0.07,0.72-0.66c0.49,0.21,0.01,1.23,0.6,0.92
		c0.34-0.38-0.47-0.72,0.03-1.1c0.25-0.11,0.52,0.03,0.8,0.28c0.01,0.47-0.47,0.96-0.26,1.42c0.29-0.11,0.63,0.26,0.95,0.43
		c-1.79,0.28-3.57,0.52-5.44-0.11C289.01,42.76,289.67,44.45,290.11,43.57 M296.72,61.86c-0.19-0.25-0.57-0.5-0.46-0.77
		c0.63,0.27,1.15-0.67,1.85,0.24C297.48,61.85,297.04,61.18,296.72,61.86 M298.91,68.69c-0.29,0.2-0.51,1.13-0.84,0.82
		C298.02,69.09,298.51,68.27,298.91,68.69 M294.9,59.1c-0.24-0.28-0.47-0.44-0.69-0.44l0.23-0.33c-0.08-0.1-0.15-0.2-0.03-0.31
		c0.79,0.69,0.11-0.68,0.43-0.96c0.06,0.04,0.11,0.06,0.17,0.06c0,0,0,0,0,0c0.25,0.04,0.49-0.14,0.78,0.37
		C295.23,58.04,295.28,58.56,294.9,59.1 M287.68,42.4c0.68,0.41-0.11,1.57-0.54,1.12C287.17,42.81,287.9,43.37,287.68,42.4
		 M286.65,42.44l0.43,0.46c-0.43,0.53-0.83,1.29-1.35,0.83C285.67,43.04,286.34,43.22,286.65,42.44 M288.19,59.67
		c0.35-0.19,1.25-0.53,0.95,0.44C288.84,59.37,288.07,60.57,288.19,59.67 M279.72,43.01c-0.32,0.65-0.54,1.18,0.25,1.4
		c-0.4,0.35-0.84,0.22-1.32-0.26C279.01,43.56,278.93,42.37,279.72,43.01 M281.19,59.93c0.03-0.03,0.04-0.07,0.06-0.1
		c0.13-0.18,0.2-0.36,0.23-0.53c0.01-0.05,0.03-0.1,0.03-0.16l0.13,0.14l0.15,0.16c-0.05,0.22-0.04,0.39-0.01,0.54
		c0.09,0.37,0.41,0.55,0.89,0.69C282.01,61.42,281.8,60.65,281.19,59.93 M282.64,58.62c-0.75-0.66-1.39-0.03-2.13-0.55
		c0.67-0.75,2.13-0.42,2.47,0.06C282.73,57.94,282.64,58.38,282.64,58.62 M281.27,55.94c-0.09-0.09-0.16-0.2-0.19-0.4
		c0.4,0.03,1.18-0.17,1.6,0.13c0.13,0.09,0.23,0.22,0.27,0.43C282.48,55.79,281.66,56.33,281.27,55.94 M284.06,60.72
		c-0.11-0.03-0.22-0.04-0.33-0.1c0.19-0.12,0.4-0.22,0.64-0.29c0.36-0.12,0.77-0.19,1.17-0.25c0.42-0.07,0.85-0.12,1.24-0.2
		c-0.09-0.14-0.18-0.27-0.26-0.41c-0.13-0.22-0.19-0.45,0.03-0.69c0.09,0.43,0.19,0.6,0.3,0.67c0.19,0.12,0.43-0.07,0.8,0.07
		c0.08,0.03,0.17,0.08,0.27,0.15c-0.2,0.31-0.4,0.47-0.51,0.68c-0.04,0.07-0.06,0.15-0.08,0.23c-0.04,0.19-0.02,0.44,0.09,0.84
		C286.5,59.87,285.26,60.99,284.06,60.72 M289.74,71.24c0.01-0.32,0.12-0.64,0.44-0.96c0.42,0.74,0.7,0.03,1.1,0.59l-0.23,0.32
		C290.6,70.59,290.41,71.37,289.74,71.24 M293.07,73.31c-0.71-0.16-1.34,0.57-2.11-0.23c0.67-0.18,0.35-1.19,0.93-1.29
		c0.74,0.3,0.12,1.44,0.63,1.24c0.16-0.37-0.2-0.73,0.29-1.11C293.22,72.36,293.08,72.84,293.07,73.31 M291.56,71.17
		c0.38-0.65,0.82-0.6,1.27-0.36C292.42,70.99,292.03,71.52,291.56,71.17 M290.67,61.15c0.36-0.35,0.73-0.53,1.13-0.51
		c-0.22,0.25,1.06,0.07,0.6,0.92C291.81,61.29,291.24,61.3,290.67,61.15 M294.08,71.54c0.19-0.26-0.34-0.51-0.2-0.77
		c0.38,0.31,0.67-0.28,1.07,0.27C294.68,71.46,294.42,71.85,294.08,71.54 M292.39,65.79c0.5-0.25,1.03-0.17,1.53-0.37
		C293.92,65.86,292.5,66.57,292.39,65.79 M297.09,71.59c-0.69-0.39-1.31-0.01-2-0.39c0.75-0.4,1.57-0.03,2.34-0.09L297.09,71.59z
		 M292.45,60.76c0.13-0.43-0.08-0.84-0.37-1.25c0.02,0.68-0.02,0.73-0.58,0.81c-0.32-0.25-0.13-0.52-0.2-0.78
		c-0.19,0.86-0.26,0.28-0.75,0.34c0.43,0.63-0.35,0.81-0.75,0.34c-0.06-0.54,0.51-0.41,0.81-1.13c0.92,0.14,1.02,0.6,1.27-0.36
		c0.49-0.03,0.66,0.5,0.6,0.92c0.76-0.71,2.16-0.55,2.85,0.37c0.07,0.09,0.14,0.19,0.2,0.3c-0.15-0.08-0.3-0.15-0.45-0.2
		C294.06,59.79,293.05,60.23,292.45,60.76 M297.73,71.41c0.17-0.22,0.19-0.43,0.2-0.64c0.34,0.3,1.3,0.09,1.24,0.74
		C298.66,71.07,298.27,72.06,297.73,71.41 M301.03,71.74c-0.51,0.48-1,1.36-1.88,0.87c0.25-0.6,0.59-0.21,0.84-0.82
		c-0.38-0.35-0.67-0.16-0.46-0.76C299.94,71.21,300.97,70.82,301.03,71.74 M297.77,60.38c-0.01,0.01-0.01,0.02-0.02,0.03
		c-0.04-0.01-0.08,0-0.13,0c-0.3-0.01-0.6,0.08-0.91,0.03c0.37-0.56,0.32-1.16,0.95-0.98C297.47,59.78,298.03,60.06,297.77,60.38
		 M302.99,71.8c-0.75-0.61-1.09,0.91-1.48,1.02c-0.63-0.78,0.19-0.71,0.37-1.59c0.32,0.62,0.51-0.1,0.75-0.35
		C303.01,71.17,303.16,71.47,302.99,71.8 M304.41,61.97c-0.41-0.16-0.75,0.33-1.18-0.1C303.53,61.73,304.45,61.1,304.41,61.97
		 M306.16,66.61c0.26-0.47,0.55-0.65,0.89-0.2C306.79,66.87,306.51,67.05,306.16,66.61 M307.93,61.96c-0.41-0.24-0.77,0.14-1.18-0.1
		c0.07-0.11,0.17-0.21,0.3-0.29c0.22-0.14,0.5-0.19,0.68-0.08C307.86,61.56,307.94,61.7,307.93,61.96 M306.38,59.99
		c-0.29,0.37-0.54,0.77-0.73,1.29c-0.54-0.74-1.18-0.58-1.82-0.26c-0.53,0.27-1.05,0.64-1.52,0.74c0.09-0.32,0.76-0.67,0.43-0.97
		c-0.43,0.47-0.92,0.32-1.35,0.85c0.19,0.15,0.53,0.05,0.43,0.45c-0.53-0.51-1.59,0.58-1.73-0.39c0.55,0.32,1.2-0.45,1.09-1.15
		c-0.03-0.16-0.08-0.32-0.2-0.47c0.02,0.38-0.17,0.56-0.43,0.63c-0.42,0.12-1.02-0.08-1.27-0.35c-0.06-0.06-0.1-0.13-0.11-0.19
		c0.02,0,0.04,0,0.06,0.01c0.19,0.01,0.48,0.06,0.75,0.07c0.48,0.02,0.91-0.1,0.69-0.72c-0.01-0.02,0-0.03-0.01-0.05
		c-0.05,0.04-0.1,0.06-0.15,0.08c-0.01,0-0.01,0-0.02,0c-0.15,0.04-0.32-0.01-0.49-0.2c0.38-0.39,0.73-0.2,1.05,0.13
		c0.21,0.22,0.4,0.5,0.58,0.74c0.16,0.21,0.31,0.39,0.44,0.44l0.44-0.62l0.13-0.18l0.01-0.01c0,0,0,0,0.01,0.01
		c1.08,0.88,2.05,0.66,3.02,0.32c0.03-0.56,0.2-1.04,0.4-1.34c0.08-0.11,0.15-0.21,0.23-0.27c0.19,1.21,0.44-0.45,1.07,0.26
		C307,59.27,306.67,59.62,306.38,59.99 M309.26,62.21c0.28,0.17,0.48-0.38,0.81,0.28C309.96,63.31,309.06,62.63,309.26,62.21
		 M309.83,61.39c-0.17-0.21-0.34-0.32-0.5-0.38c-0.47-0.16-0.89,0.18-1.38-0.16c0.28-0.65-0.23-1.15,0.51-1.44
		c0.66,0.39,0.23,0.83,0.38,1.24c0.37-0.21,0.78-0.02,1.12-0.53c0.2,0.15,0.25,0.31,0.25,0.48
		C310.22,60.86,310.05,61.12,309.83,61.39 M312,67.58c-0.05-0.46,0.58-0.85,1.01-0.36C312.72,67.8,312.36,67.69,312,67.58
		 M316.39,67.05c-0.41,0.27-0.75,1.17-1.24,0.69C315.54,67.21,315.9,66.52,316.39,67.05 M315.12,67.42
		c-0.63,0.24-1.29,0.17-1.97-0.06C313.74,67.02,314.84,66.55,315.12,67.42 M312.77,60.78c0.07-0.42-0.3-0.82-0.38-1.24
		c0.26-0.48,0.6-0.11,0.92,0.11C312.99,59.95,313.14,61,312.77,60.78 M313.41,58.87c0,0.09,0.01,0.18-0.01,0.3
		c-0.46-0.65-1.44,0.27-1.47-0.4c0.3-0.07,0.97-0.44,1.3-0.27C313.33,58.56,313.4,58.67,313.41,58.87 M324.19,54.8
		c0.47,0.6,0.42,0.91,1.6,1.31C325.03,57.15,323.96,55.76,324.19,54.8 M325.6,59.28c0.57-0.77,0.49,0.11,1.12,0.55
		C326.41,60.58,325.64,59.76,325.6,59.28 M326.78,57.94c-0.36-0.44-0.51,1.07-0.91,0.22l0.57-0.83
		C326.6,57.53,326.89,57.72,326.78,57.94 M323.34,45.56c-0.59-0.18-1.05,0.76-1.7-0.06c0.41-0.65,0.91-0.41,1.34-0.86
		C323.34,44.93,323.5,45.24,323.34,45.56 M327.04,57.92c0.81-0.68,1.7-0.66,2.6-0.5C329.7,58.9,328,58.35,327.04,57.92 M330.19,59.9
		c-0.76,0.42-1.2-0.16-1.81-0.66c0.05-0.13,0.06-0.25,0.08-0.37c0.02-0.14,0.07-0.29,0.23-0.44c0.23,0.13,0.32,0.27,0.36,0.42
		c0.06,0.22,0.02,0.44,0.16,0.65c0.27-0.32,0.48-0.51,0.62-0.7c0.18-0.23,0.27-0.47,0.26-0.94c0.43-0.04,0.41,0.4,0.58,0.78
		c0.02,0.04,0.03,0.08,0.05,0.12c-0.29,0.59-0.66,0.44-0.99,0.7C329.94,59.61,330.28,59.5,330.19,59.9 M330.66,58.13
		c0.28-0.66,0.68-0.24,1.02-0.38C331.76,58.47,331.1,58.66,330.66,58.13 M329.77,56.15c-0.38,0.62-0.81,0.65-1.32,0.09
		c0.43-0.8,0.7,0.1,0.83-0.85C329.55,55.64,329.72,55.89,329.77,56.15c0.34-0.93,1.51-0.59,1.61,0.2
		C330.78,55.73,330.4,57.05,329.77,56.15 M331.22,45.93c-0.57,0.77-1.24,0.69-1.89,0.63C329.9,45.86,330.56,45.87,331.22,45.93
		 M332.58,58.62c0.39-0.09,0.67-1.13,1.14-0.58C333.38,58.56,333,58.77,332.58,58.62 M335.28,58.7c-0.27-0.03-0.56-0.17-0.87-0.56
		C334.68,57.38,335.61,58.18,335.28,58.7 M337.91,57.04c-0.44-0.63-0.77-0.42-1.15-0.53c0.53-0.37,0.27-0.36,0.68-1.01
		c0.31,0.58,0.52,0.81,0.95,0.08c0.27,0.24,0.45,0.48,0.5,0.74C338.61,56.93,338.23,56.77,337.91,57.04 M340.76,59.12
		c0.4,0.28,0.69-0.33,1.12,0.19C341.67,59.85,340.66,59.61,340.76,59.12 M342.39,60.05c-0.63-0.21-0.56-1.29-0.01-1.11
		C342.03,59.35,342.9,59.62,342.39,60.05 M342.43,56.13c-0.06,0.2-0.16,0.41-0.35,0.63c-0.8-0.54-1.4,0.4-2.15,0.24
		c0.06-0.26,0.16-0.43,0.28-0.56c0.13-0.08,0.25-0.17,0.38-0.25c0.36-0.13,0.83-0.1,1.33-0.18c0.06-0.01,0.13-0.01,0.19-0.03
		c0.11-0.25-0.01-0.57,0.38-0.2C342.49,55.88,342.47,56,342.43,56.13 M341.12,53.69c0.25-0.49,0.58-0.36,0.95,0.05
		C341.82,54.24,341.49,54.11,341.12,53.69 M345.98,59.17c0.43-0.54,0.88-0.91,1.47-0.36C347.02,59.34,346.48,59.17,345.98,59.17
		 M344.27,45.73c-0.47,0.74-1.76,0.64-2.03-0.24c0.69,0.81,1.11-0.25,1.67-0.35C343.76,45.61,344.29,45.14,344.27,45.73
		 M346.62,46.2c0.23-0.5,0.57-0.38,0.94,0.03C347.33,46.73,346.99,46.61,346.62,46.2 M352.13,59.28c-0.58-0.72-0.98-0.31-1.52-0.74
		c0.41-0.64,1.05,0.18,1.37-0.99c0.35,0.4,0.56-0.02,0.92,0.51C352.37,58.67,352.48,58.5,352.13,59.28 M356.09,58.47
		c-0.83-0.66-1.31,0.62-2.15-0.11C353.86,57.66,356.33,57.4,356.09,58.47 M354.81,45.25c-0.85-0.6,0.29-1.28,0.77-0.94
		C355.39,44.95,355.01,44.6,354.81,45.25 M365.62,47.4c-0.28,0.68-1.5,0.38-1.57-0.14C364.58,47.36,365,46.95,365.62,47.4
		 M365.39,51.7l0.34-0.61c0.22,0.15,0.36-0.06,0.61,0.19c0.09,0.21,0.05,0.44-0.07,0.65c-0.25,0.46-0.86,0.82-1.36,0.63L365.39,51.7
		z M367.07,52.5c-0.08,0.7,0.11,1.36,0.89,1.47c0.14,0.56-0.38,0.51-0.69,0.82c-0.45-0.86-1.09-0.04-1.79-0.26
		c0.43-1.06-0.6,0.13-1.02-0.74c0.52-0.47,1.26,0.09,1.82-0.24c0.21-0.28,0.33-0.6,0.41-0.91c0.23-0.95,0.07-1.87,1.02-1.71
		C367.4,51.28,367.14,51.91,367.07,52.5 M364.52,43.76c-0.3-0.2-0.49-0.43-0.57-0.68c0.54-0.28,1.01-0.84,1.74-0.27
		C365.42,43.63,364.79,42.91,364.52,43.76 M383.32,48.47c-0.07,0.26,0.19,0.38,0.46,0.5c-0.58,0.63-1.55-0.04-2.11,0.63
		C382.05,48.75,382.48,48.74,383.32,48.47 M382.22,50.91c-0.39-0.11-0.67,0.16-1.11-0.14C381.34,50.11,382.43,50.11,382.22,50.91
		 M380.4,48.86c0.51,0.19,0.83-0.26,1.37,0.04C381.6,49.57,380.47,49.57,380.4,48.86 M384.53,40.94c-0.38,0.2-0.46,1.31-1.04,0.9
		C383.73,41.23,383.93,40.47,384.53,40.94 M382.41,41.75l0.54,0.3l-0.26,0.6c-0.14,0.39,0.54,0.47,0.29,0.9
		c-0.48-0.57-0.42,0.58-0.89,0.01C382.34,42.9,382.07,42.45,382.41,41.75 M379.87,44.56c0.44-0.01,0.96,0.22,1.43,0.31
		c-0.55,0.32-0.99,0.99-1.52,1.38c0.18-0.34,0.03-0.56-0.36-0.71L379.87,44.56z M376.75,44.91c0.53,1.02,0.9-0.24,1.61-0.02
		C378.41,46.36,376.7,46.2,376.75,44.91 M379.82,51.03l-0.38,0.78c-0.36-0.16-0.29-0.46-0.63-0.63
		C379.01,50.64,379.37,50.69,379.82,51.03 M378.84,49.69c0.13,0.4-0.2,1.07-0.57,1.18c-0.7-0.11,0.17-0.72-0.53-0.82
		C378,49.56,378.37,49.44,378.84,49.69 M374.28,44.37c0.2-0.5,0.41-0.96,0.8-0.75c-0.09,0.25-0.16,0.49,0.17,0.61
		c0.4-0.46-0.01-0.66,0.28-1.08c0.77,0.36,0.04,1.2,0.06,1.8c-0.53,0.02-0.42-0.91-0.7-0.44c-0.14,0.43,0.3,0.68,0.16,1.11
		l-0.7-0.44C374.48,44.85,374.69,44.51,374.28,44.37 M372.58,41.77c-0.44,0.65-1.06,0.64-1.74,0.35
		C371.24,41.34,371.81,41.2,372.58,41.77 M371.49,48.62c0.46,0.5,0.6-0.29,1.06,0.21l-0.39,0.76
		C371.9,49.28,371.49,49.01,371.49,48.62 M368.77,49.34c0.48-0.23,0.9-0.64,1.45-0.55C369.91,49.67,369.31,49.36,368.77,49.34
		 M371.95,57.15c-0.28,0.09-1.01-0.42-0.67-0.96C371.72,56.45,372.15,56.72,371.95,57.15 M377.06,58.86
		c0.18-0.39-0.53-0.49-0.24-0.92C377.44,57.54,377.8,58.89,377.06,58.86 M376.64,57.84c-0.39-0.15-0.22-0.48-0.34-0.72
		c-0.17,0.32-0.56-0.21-0.74,0.04c0.32,0.18,0.54,0.4,0.62,0.65c-0.39,0.63-0.9,0.2-0.51,0.95c-0.34,0.08-0.63,0.34-1.11-0.19
		c0.11-0.38,0.53-0.32,0.31-0.58c-0.47,0.15-0.98,0.13-1.49,0.07c0.43-0.71-0.11-0.16-0.43-0.54c0.18-0.71,0.73,0.12,0.95-0.42
		c-0.68-0.72-1.06-0.25-1.63-0.54c-0.19-0.24-0.95-1.13-0.12-1.11c-0.15,0.66,0.58,0.05,0.89,0.58c0.33-1.07,1.16-0.15,1.61-0.75
		c0.61,0.62,0.94,0.75,1.64,0.52c0.16-0.33-0.44-0.41-0.34-0.72C377.39,55.53,376.86,56.39,376.64,57.84 M376.71,51.2
		c-0.89-0.35-1.4,0.72-2.28,0.39c0.77-0.09,1.21-1.45,2.12-1C376.42,50.85,376.77,50.96,376.71,51.2 M375.37,47.33
		c0-0.83,0.12-1.33,1.01-1.15C375.46,46.44,376.31,47.16,375.37,47.33 M377.86,52.65c-0.07,0.47,1.14,0.52,0.61,1.13
		c-0.69,0.24-0.18-0.64-0.99-0.84l0.49-0.98c0.26,0.31,1.03-0.13,0.9,0.54C378.59,52.76,378.16,52.49,377.86,52.65 M384.71,51.98
		c0.2,0.32-0.03,0.8-0.1,1.22c-0.34,0.28-0.71,0.42-1.12,0.43c-0.29-0.4-0.21-0.93-0.27-1.42c-0.14,0.57-0.36,0.86-0.61,1.05
		c-0.31,0.23-0.68,0.3-1.01,0.48c-0.03,0.01-0.06,0.03-0.08,0.04c-0.9-0.87-1.41-0.52-2.49-0.68c0.2-0.93,1.87-0.8,2.79-0.9
		c-0.32-0.17-0.4-0.42-0.36-0.71c0.83-0.27,1.15-0.09,0.92,0.53c0.59-0.39,2.4-1.71,3.43-0.46
		C385.01,51.4,385.37,51.89,384.71,51.98 M385.79,48.03c-0.13,0.55,0.13,0.96,0.3,1.4c-0.37-0.19-0.49,0.43-0.92,0.02
		c0.77-1.49-1.16-0.13-1.11-1.09c0.69,0.23,1.64-1.25,2.11-0.14L385.79,48.03z M386.79,47.3c-0.35-0.1-0.07,0.83-0.82,0.32
		l0.35-0.81C386.53,46.96,386.86,47.05,386.79,47.3"/>

</svg>
