<?xml version="1.0" standalone="no"?>
<!DOCTYPE svg PUBLIC "-//W3C//DTD SVG 20010904//EN"
 "http://www.w3.org/TR/2001/REC-SVG-20010904/DTD/svg10.dtd">
<svg version="1.0" xmlns="http://www.w3.org/2000/svg"
 width="240.000000pt" height="240.000000pt" viewBox="0 0 240.000000 240.000000"
 preserveAspectRatio="xMidYMid meet">
<metadata>
Created by potrace 1.11, written by Peter Selinger 2001-2013
</metadata>
<g transform="translate(0.000000,240.000000) scale(0.100000,-0.100000)"
fill="#000000" stroke="none">
<path d="M1819 2364 c0 -37 -10 -118 -15 -123 -1 -2 -17 7 -33 19 -35 25 -40
19 -11 -12 27 -30 25 -38 -10 -39 -16 -1 -34 -3 -40 -4 -5 -1 -24 -3 -42 -4
-56 -2 -25 -14 66 -25 21 -3 40 -6 42 -8 2 -2 -8 -22 -23 -44 l-26 -39 30 28
c16 15 34 27 40 27 6 0 14 -30 18 -66 4 -36 9 -63 12 -61 5 6 17 71 22 126 1
11 6 10 24 -6 40 -37 51 -37 23 0 l-27 36 48 6 c26 4 56 8 65 9 28 3 33 16 7
17 -33 0 -113 10 -117 13 -1 2 7 14 18 29 28 35 25 42 -7 18 -14 -12 -27 -20
-29 -18 -3 3 -9 32 -20 102 -7 49 -14 58 -15 19z"/>
<path d="M1053 2340 c-40 -24 -57 -55 -54 -100 1 -20 -6 -56 -14 -80 -16 -44
-24 -195 -11 -207 3 -3 -17 -17 -45 -29 -49 -23 -53 -23 -102 -9 -29 8 -81 16
-116 18 l-63 3 -22 44 c-28 59 -66 85 -120 84 -135 -3 -186 -173 -73 -242 60
-38 141 -22 184 36 21 28 21 28 103 20 46 -4 85 -9 86 -11 2 -2 -16 -25 -41
-50 -78 -82 -116 -178 -116 -299 0 -127 45 -209 137 -254 40 -20 56 -33 60
-53 3 -14 8 -33 10 -41 2 -8 -10 -35 -26 -60 -38 -56 -40 -101 -6 -120 22 -11
43 -10 98 6 12 4 15 0 11 -15 -7 -27 -60 -79 -105 -102 -21 -11 -38 -23 -39
-27 0 -4 -2 -15 -4 -24 -8 -44 78 -92 141 -78 29 7 32 6 25 -9 -5 -9 -23 -27
-40 -40 -18 -14 -31 -33 -31 -46 0 -39 26 -50 122 -50 48 0 88 -2 88 -5 0 -3
-9 -20 -20 -38 -47 -77 32 -116 134 -66 16 8 32 11 35 6 3 -4 21 -18 39 -31
18 -12 42 -41 53 -64 20 -37 20 -46 9 -96 -19 -86 -21 -88 -99 -95 -38 -4
-104 -15 -148 -26 -85 -20 -240 -79 -209 -80 20 0 20 0 0 -14 -16 -12 -11 -12
26 0 113 39 314 84 376 84 20 0 20 -2 9 -47 -12 -48 -10 -72 12 -108 10 -17
23 -19 106 -20 51 0 105 5 118 11 13 6 36 16 51 22 41 17 31 57 -28 109 l-49
42 40 -4 c84 -7 144 -18 275 -52 146 -38 210 -52 210 -47 0 4 -84 41 -145 64
-46 18 -281 66 -350 72 -37 4 -37 10 9 113 51 117 107 325 110 415 3 83 -14
186 -43 253 -16 37 -17 47 -6 67 17 31 9 89 -15 115 -18 20 -18 21 19 97 21
42 50 115 65 162 l27 84 51 13 c80 19 123 76 83 109 -8 7 -15 21 -15 31 0 24
-42 35 -85 22 -19 -6 -39 -7 -46 -2 -25 16 -58 9 -74 -13 -8 -13 -34 -52 -58
-87 -63 -97 -92 -95 -42 3 14 27 25 59 25 70 0 28 -15 50 -28 42 -24 -14 1 48
29 75 26 24 28 30 18 53 -16 34 -63 35 -108 2 -58 -43 -139 -47 -126 -6 3 10
8 28 10 40 5 27 -30 138 -54 169 l-18 24 -7 -29 c-14 -58 -28 -83 -56 -92 -35
-13 -162 -4 -172 11 -9 15 -10 98 -1 150 4 30 9 37 22 31 40 -18 100 -16 129
5 121 86 2 269 -125 191z"/>
</g>
</svg>
