<?xml version="1.0" standalone="no"?>
<!DOCTYPE svg PUBLIC "-//W3C//DTD SVG 20010904//EN"
 "http://www.w3.org/TR/2001/REC-SVG-20010904/DTD/svg10.dtd">
<svg version="1.0" xmlns="http://www.w3.org/2000/svg"
 width="1132.000000pt" height="1132.000000pt" viewBox="0 0 1132.000000 1132.000000"
 preserveAspectRatio="xMidYMid meet">
<metadata>
Created by potrace 1.11, written by Peter Selinger 2001-2013
</metadata>
<g transform="translate(0.000000,1132.000000) scale(0.100000,-0.100000)"
fill="#000000" stroke="none">
<path d="M7309 11279 c0 -8 -2 -23 -4 -34 -7 -52 -17 -143 -19 -167 0 -16 -3
-28 -6 -28 -3 0 -5 -12 -6 -27 -1 -37 -14 -144 -19 -163 -5 -20 -17 -130 -17
-152 1 -10 -6 -18 -14 -18 -8 0 -14 5 -14 10 0 6 -6 10 -14 10 -8 0 -16 3 -18
8 -1 4 -41 36 -88 71 -47 35 -98 76 -114 90 -45 41 -21 3 88 -138 53 -69 95
-126 93 -127 -3 -3 -57 -11 -122 -19 -16 -2 -43 -6 -60 -9 -16 -3 -52 -8 -80
-11 -27 -3 -63 -9 -80 -12 -16 -3 -43 -7 -60 -9 -16 -1 -50 -6 -75 -9 -25 -4
-54 -8 -65 -10 -11 -1 -31 -3 -45 -5 l-25 -2 26 -8 c15 -4 49 -10 75 -14 27
-3 83 -10 124 -16 41 -6 91 -12 110 -15 19 -2 51 -6 70 -8 19 -3 64 -9 100
-13 36 -4 68 -9 73 -10 4 -1 14 -2 23 -3 13 -1 11 -7 -7 -33 -13 -18 -26 -35
-29 -38 -3 -3 -32 -41 -65 -85 -32 -44 -67 -88 -77 -98 -17 -17 -22 -27 -14
-27 2 0 29 19 59 43 30 23 68 51 83 62 15 11 32 25 38 30 37 33 96 75 97 68 0
-4 2 -15 4 -23 4 -22 13 -86 21 -155 3 -33 8 -69 10 -80 2 -11 7 -43 9 -71 3
-28 7 -60 9 -70 2 -11 10 -64 17 -117 11 -89 20 -113 25 -69 1 9 4 44 8 77 3
33 8 72 11 85 3 14 7 45 10 70 3 25 8 56 10 70 2 14 6 45 9 70 4 41 11 91 21
145 2 11 4 33 4 48 l1 28 33 -22 c17 -13 34 -26 37 -29 3 -3 41 -32 84 -65 43
-33 84 -64 90 -70 6 -5 20 -17 31 -25 26 -20 -4 23 -113 163 -47 59 -83 110
-80 112 5 5 54 13 113 20 22 2 40 5 40 5 0 1 11 3 25 4 14 2 48 6 75 10 92 12
120 15 165 21 25 3 56 8 70 10 14 2 47 6 75 10 57 7 71 15 29 16 -16 0 -38 2
-49 5 -11 2 -40 6 -65 9 -45 5 -78 9 -150 20 -22 3 -52 7 -67 9 -77 10 -131
18 -163 23 -19 4 -50 7 -67 7 -18 1 -33 4 -33 8 0 7 156 217 170 228 3 3 13
18 23 33 17 26 -84 -46 -215 -153 -20 -16 -41 -30 -46 -30 -8 0 -17 43 -27
125 -5 47 -18 144 -21 160 -2 11 -7 44 -10 74 -3 30 -8 64 -10 75 -4 22 -15
96 -19 134 -3 26 -15 42 -16 21z"/>
<path d="M4370 11018 c-14 -6 -38 -17 -55 -24 -16 -7 -46 -30 -66 -51 -37 -39
-74 -93 -64 -93 3 0 1 -10 -6 -21 -6 -12 -13 -42 -15 -66 -3 -27 -17 -63 -38
-96 -64 -101 -142 -292 -161 -395 -3 -15 -7 -38 -10 -52 -14 -68 -17 -107 -20
-245 -2 -141 10 -271 35 -366 l10 -36 59 15 c45 11 58 18 55 31 -1 9 -8 39
-14 66 -31 143 -31 380 0 534 16 74 50 182 64 200 6 8 10 17 9 20 -4 10 31 91
40 91 4 0 7 7 7 15 0 8 1 15 3 15 2 0 25 -20 51 -45 102 -95 254 -107 371 -29
93 61 130 133 130 249 -1 66 -5 89 -28 133 -52 103 -135 154 -257 159 -41 1
-86 -2 -100 -9z"/>
<path d="M1934 9846 c-157 -38 -275 -182 -279 -345 -4 -122 26 -193 116 -282
46 -44 71 -60 125 -78 89 -29 185 -29 261 0 16 6 28 9 28 7 0 -10 102 73 125
102 35 44 70 106 70 124 0 8 6 16 13 19 16 6 440 0 517 -8 176 -17 242 -29
413 -73 22 -6 39 -6 43 -1 3 5 28 21 56 35 28 14 47 29 42 33 -11 9 -116 52
-135 55 -8 1 -18 4 -24 7 -5 4 -28 10 -50 14 -22 5 -44 9 -50 10 -103 24 -272
43 -430 50 -55 2 -101 5 -102 5 -4 2 -72 2 -80 0 -5 -1 -12 -2 -17 -1 -27 6
-86 6 -86 1 0 -3 -12 -5 -27 -4 -16 1 -38 3 -50 3 -16 1 -23 7 -23 21 0 33
-31 113 -57 148 -13 17 -21 32 -18 32 4 0 -8 12 -27 27 -18 16 -39 34 -46 41
-16 14 -94 51 -126 59 -46 11 -133 10 -182 -1z"/>
<path d="M5098 9572 c-63 -94 -193 -180 -303 -199 -56 -10 -167 -9 -265 3
-117 14 -325 9 -445 -11 -16 -3 -36 -6 -42 -7 -14 -1 -62 -52 -104 -108 -62
-83 -148 -290 -164 -395 -7 -46 -18 -122 -21 -150 -8 -70 -2 -339 9 -405 4
-19 9 -55 12 -80 6 -56 12 -87 33 -177 5 -24 8 -43 5 -43 -3 0 0 -8 8 -17 12
-17 12 -17 -5 -1 -10 9 -28 32 -40 51 -11 20 -44 73 -71 119 -196 324 -284
645 -251 911 4 31 5 57 2 57 -7 0 -48 -22 -56 -30 -3 -3 -30 -24 -60 -46 -110
-82 -221 -202 -305 -329 -44 -66 -116 -195 -121 -215 0 -3 -9 -23 -19 -45 -36
-81 -75 -197 -69 -206 3 -5 1 -9 -4 -9 -5 0 -9 -6 -10 -12 -1 -7 -11 -60 -23
-118 -27 -134 -31 -424 -6 -535 26 -120 45 -178 81 -250 63 -125 77 -145 171
-240 57 -57 178 -147 204 -151 3 0 13 -3 21 -7 8 -3 44 -15 80 -27 77 -25 204
-81 208 -92 2 -5 9 -8 16 -8 22 0 153 -98 217 -162 80 -80 177 -232 195 -307
2 -9 8 -36 15 -61 6 -25 13 -54 15 -65 6 -24 6 -157 0 -200 -17 -124 -32 -195
-63 -285 -92 -269 -255 -455 -510 -581 -56 -28 -107 -57 -113 -64 -16 -19 -7
-62 15 -82 20 -18 121 -57 180 -70 40 -9 201 -8 245 1 181 38 253 105 325 304
13 37 27 79 29 93 2 13 5 24 7 24 1 0 3 9 4 20 2 11 6 38 10 60 10 65 13 334
4 410 -12 93 -18 136 -25 158 -3 9 -2 17 3 17 5 0 10 -12 11 -27 1 -15 5 -29
10 -32 4 -3 8 -13 9 -21 2 -19 10 -59 28 -135 7 -33 16 -76 19 -95 3 -19 8
-45 10 -57 27 -130 28 -476 3 -583 -26 -110 -79 -215 -165 -327 -59 -76 -241
-268 -314 -330 -29 -25 -34 -34 -24 -42 34 -29 324 -46 455 -27 125 18 281 65
354 108 26 15 52 28 57 28 4 0 10 3 12 8 2 4 24 24 50 45 77 62 261 250 339
347 143 177 188 418 123 660 -8 30 -16 62 -18 70 -5 19 -55 130 -59 130 -2 0
-4 -28 -4 -62 -2 -180 -43 -306 -152 -473 -56 -85 -200 -231 -300 -303 -84
-61 -88 -56 -16 20 28 29 64 71 80 93 17 22 32 42 35 45 12 12 60 90 55 90 -3
0 5 17 18 38 13 20 28 51 35 67 6 17 17 44 23 60 7 17 13 37 14 45 1 8 8 36
14 62 30 127 30 326 1 438 -5 19 -11 47 -14 61 -6 39 -66 210 -81 234 -12 18
-42 99 -50 135 -32 133 -41 196 -39 260 4 120 12 201 24 255 11 51 58 176 69
185 3 3 15 22 26 44 26 49 152 183 162 172 4 -5 2 -11 -4 -13 -7 -3 -13 -9
-13 -13 0 -5 -13 -32 -30 -60 -16 -28 -30 -57 -30 -63 0 -7 -5 -18 -12 -25
-11 -11 -39 -82 -32 -82 1 0 20 16 41 35 39 36 187 115 216 115 22 0 237 110
237 121 0 5 4 9 9 9 5 0 57 33 116 73 59 39 118 80 132 89 14 9 29 20 32 25 3
5 23 19 44 32 20 12 37 27 37 32 0 5 5 9 10 9 10 0 58 41 122 103 43 43 88
112 95 148 6 30 5 31 -15 20 -12 -6 -42 -33 -67 -60 -98 -104 -301 -208 -465
-236 -110 -19 -380 -19 -470 0 -14 3 -40 8 -59 11 -37 6 -41 7 -126 28 -330
81 -566 304 -682 641 -13 39 -26 88 -29 109 -2 21 -6 42 -8 45 -19 30 -28 359
-13 456 20 126 67 236 116 273 49 36 92 36 163 -1 35 -18 65 -34 68 -34 3 -1
19 -7 35 -13 17 -7 38 -13 48 -15 10 -2 28 -7 40 -11 12 -4 31 -9 42 -10 11
-1 47 -5 80 -9 98 -11 198 -4 304 21 78 18 195 72 234 109 70 67 107 160 107
275 0 66 -40 254 -57 271 -6 6 -19 -4 -35 -29z m-1005 -1960 c62 -61 139 -133
172 -160 81 -65 190 -142 203 -142 6 0 12 -3 14 -7 2 -5 29 -21 61 -37 31 -15
57 -29 57 -31 0 -3 -81 4 -124 11 -22 3 -59 15 -83 25 l-44 19 -47 -39 c-42
-35 -100 -70 -127 -78 -5 -1 -34 -9 -64 -17 -59 -17 -202 -16 -223 2 -7 5 -17
11 -23 12 -26 6 -43 16 -85 49 -119 94 -172 188 -173 302 0 54 4 73 24 100 42
61 93 89 174 97 28 2 51 5 52 6 1 1 29 1 63 0 l62 -1 111 -111z"/>
<path d="M3805 7563 c-16 -3 -33 -10 -37 -15 -17 -28 26 -124 77 -170 70 -64
168 -90 243 -64 l33 12 -33 29 c-18 17 -67 59 -108 95 -41 36 -88 77 -105 92
-16 16 -32 27 -35 26 -3 0 -18 -3 -35 -5z"/>
<path d="M6058 9085 c-2 -2 -16 -6 -32 -9 -29 -5 -62 -26 -146 -91 -38 -30
-123 -78 -140 -80 -3 0 -14 -6 -25 -12 -17 -9 -74 -25 -90 -24 -2 0 -19 -5
-37 -10 -36 -10 -188 -13 -228 -4 -14 4 -38 9 -55 12 -16 3 -56 16 -88 29 -47
20 -60 22 -72 12 -32 -29 -42 -36 -63 -42 -12 -4 -22 -14 -22 -22 0 -21 77
-140 92 -143 7 -1 66 -4 131 -6 114 -3 209 12 312 51 l20 7 -20 -23 c-36 -40
-134 -102 -185 -115 -3 -1 -16 -5 -30 -8 -35 -10 -70 -15 -105 -17 -28 -1 -25
-3 28 -30 32 -16 84 -34 115 -40 31 -7 80 -23 108 -37 78 -37 104 -91 120
-253 2 -25 6 -56 8 -70 14 -84 17 -118 15 -140 -3 -30 -2 -120 1 -172 3 -31 6
-35 19 -28 32 18 80 76 86 105 4 17 13 48 22 70 8 22 15 41 14 42 -2 9 42 98
76 153 33 54 106 212 100 216 -1 1 -20 4 -42 7 -37 6 -44 3 -89 -39 -28 -25
-64 -55 -80 -66 l-31 -22 22 25 c12 13 36 53 54 89 30 60 32 73 35 180 3 138
11 207 33 263 6 15 8 27 6 27 -7 0 51 91 77 121 13 14 39 34 58 44 47 25 64
41 46 48 -8 3 -16 4 -18 2z"/>
<path d="M4131 8828 c-41 -135 -47 -345 -16 -497 23 -110 38 -156 91 -266 57
-118 121 -200 217 -274 47 -35 207 -126 207 -116 0 2 15 -1 33 -6 17 -6 43
-12 57 -15 14 -3 57 -11 95 -18 39 -8 77 -14 85 -15 8 0 31 -3 50 -5 42 -7
258 -8 268 -2 4 2 30 6 59 10 53 6 196 48 222 65 20 13 17 157 -2 189 -5 7
-12 10 -17 7 -4 -3 -59 -7 -121 -10 l-113 -5 128 82 127 83 -6 45 c-3 25 -8
59 -10 75 -13 113 -23 176 -29 182 -2 2 -33 11 -67 19 -69 15 -70 16 -170 63
-79 37 -98 54 -184 162 -90 115 -95 121 -95 135 0 7 -3 14 -7 16 -5 2 -16 17
-25 33 -10 17 -22 29 -26 28 -5 -1 -22 -5 -38 -8 -16 -3 -36 -8 -44 -10 -8 -2
-23 -4 -32 -4 -10 -1 -18 -7 -18 -15 0 -11 49 -102 90 -166 10 -14 72 -139 75
-150 1 -3 5 -13 9 -22 4 -9 5 -22 2 -27 -4 -6 10 -13 31 -17 21 -3 56 -12 78
-19 37 -12 38 -14 15 -19 -14 -3 -50 -8 -80 -11 -92 -8 -153 -16 -186 -24 -37
-10 -49 -4 -56 26 -6 23 2 28 53 38 12 2 23 6 24 7 2 2 -9 28 -24 58 -15 30
-33 74 -41 98 -18 57 -27 60 -25 9 1 -23 0 -48 -3 -55 -8 -24 -61 -43 -97 -36
-32 6 -33 7 -20 28 12 19 50 137 46 144 -1 1 11 26 26 55 49 92 51 86 -25 84
-63 -1 -155 7 -212 18 -14 3 -37 7 -52 10 -32 6 -113 37 -174 66 -22 10 -45
19 -51 19 -5 0 -16 -19 -22 -42z"/>
<path d="M6581 8393 c-22 -27 -40 -52 -40 -57 1 -5 -3 -12 -8 -15 -12 -9 -63
-132 -63 -154 0 -26 86 -77 129 -77 40 0 205 56 264 89 21 11 44 21 52 21 8 0
15 4 15 8 0 5 21 19 46 32 47 25 119 111 131 158 7 31 4 33 -42 22 -177 -42
-223 -53 -245 -57 -41 -8 -55 -11 -55 -13 0 -2 -22 -7 -60 -15 -16 -3 -37 -8
-45 -10 -12 -4 -15 5 -14 43 1 87 -9 91 -65 25z"/>
<path d="M7169 8201 c-25 -27 -63 -61 -85 -76 -21 -16 -32 -26 -24 -23 8 3 38
13 67 22 56 19 113 72 109 102 -5 31 -21 25 -67 -25z"/>
<path d="M6304 7928 c-16 -24 -36 -52 -46 -63 -9 -11 -41 -49 -70 -85 -151
-187 -343 -372 -504 -488 -71 -51 -138 -100 -149 -108 -11 -9 -35 -25 -54 -37
-19 -12 -44 -29 -56 -37 -115 -80 -188 -120 -287 -158 -42 -16 -100 -45 -129
-65 -53 -35 -129 -116 -129 -136 0 -6 -4 -11 -9 -11 -4 0 -18 -34 -31 -76 -25
-84 -30 -193 -11 -259 17 -63 132 -255 204 -340 46 -55 178 -309 193 -370 4
-16 10 -34 14 -40 7 -9 13 -28 38 -115 12 -45 28 -184 27 -242 l-1 -66 25 16
c46 29 254 184 331 246 126 103 139 114 228 198 29 28 54 49 56 47 4 -4 -103
-139 -212 -269 -69 -82 -201 -228 -313 -345 -119 -123 -141 -148 -164 -180
-11 -15 -25 -32 -30 -39 -19 -20 -85 -116 -85 -122 0 -3 -8 -18 -19 -32 -60
-87 -111 -205 -139 -319 -9 -38 -8 -343 1 -367 6 -16 11 -13 37 25 81 122 206
218 358 275 70 27 199 62 252 68 19 3 35 5 35 6 0 1 14 3 30 4 32 3 124 15
165 21 14 2 77 11 140 20 63 8 122 17 130 20 8 2 38 6 65 10 73 9 211 42 244
59 24 13 30 24 39 78 5 35 9 137 7 228 -4 187 -8 227 -34 355 -18 86 -19 90
-34 141 -8 27 -15 51 -15 54 -1 11 -15 65 -19 72 -2 4 -22 -12 -46 -36 -50
-50 -148 -126 -201 -156 -37 -20 -36 -18 20 38 88 88 152 206 158 288 1 16 6
36 10 42 4 7 3 12 -1 12 -5 0 -15 21 -22 46 -8 25 -24 67 -36 93 -12 25 -33
70 -45 99 l-22 52 42 46 c36 39 71 98 76 129 1 6 3 15 4 20 2 6 4 33 5 60 1
40 -4 58 -26 91 -40 59 -84 90 -241 172 l-141 72 -30 -32 c-81 -91 -196 -257
-256 -372 -39 -73 -92 -193 -107 -241 -20 -63 -44 -153 -49 -182 -3 -20 -8
-39 -10 -41 -5 -5 3 157 10 198 2 14 7 45 10 70 3 25 12 69 20 98 7 28 11 52
8 52 -3 0 0 7 7 15 7 8 10 15 7 15 -16 0 95 279 140 352 13 21 23 40 23 44 0
12 109 170 132 190 13 12 41 42 63 69 22 26 51 59 63 74 32 35 92 127 92 141
0 12 16 49 80 185 21 44 52 112 70 150 62 134 93 201 181 384 49 101 89 185
89 187 0 2 -8 4 -18 4 -10 0 -35 9 -57 20 -22 11 -42 20 -46 20 -3 0 -19 -19
-35 -42z"/>
<path d="M6531 7698 c-55 -113 -113 -234 -129 -269 -16 -35 -52 -111 -80 -169
-27 -58 -64 -136 -82 -175 -71 -152 -160 -332 -179 -360 l-20 -30 40 -22 39
-21 20 26 c11 15 24 32 30 39 5 7 10 15 10 19 0 3 8 18 19 32 20 30 137 255
133 260 -1 1 8 23 22 50 13 26 40 90 61 142 20 52 40 100 43 105 4 6 7 12 7
15 3 15 26 84 49 145 15 39 26 70 26 70 -1 0 1 7 4 15 13 38 48 146 51 155 1
6 5 17 8 25 15 39 39 141 34 146 -3 3 -51 -86 -106 -198z"/>
<path d="M3584 6533 c17 -66 13 -197 -9 -257 -15 -44 -58 -123 -74 -136 -23
-19 -95 -126 -116 -173 -33 -71 -30 -98 10 -109 39 -10 127 -3 175 14 8 3 38
14 65 23 28 10 84 34 125 54 84 41 83 40 84 153 0 41 -5 72 -12 78 -6 6 -10 7
-8 4 11 -16 -77 -99 -144 -136 -64 -35 -93 -37 -53 -4 63 53 109 175 112 296
2 64 -1 79 -21 106 -31 41 -87 96 -120 118 l-27 17 13 -48z"/>
<path d="M6355 4390 c-39 -8 -120 -19 -180 -26 -31 -3 -73 -8 -165 -20 -30 -4
-71 -8 -90 -10 -19 -1 -57 -5 -85 -8 -27 -3 -68 -8 -90 -10 -75 -9 -120 -16
-160 -26 -22 -6 -50 -13 -62 -15 -41 -9 -168 -72 -185 -91 -16 -19 -16 -22 10
-61 32 -48 96 -113 112 -113 5 0 10 -3 10 -7 0 -12 59 -43 105 -57 22 -7 66
-12 98 -12 31 1 57 -2 57 -5 0 -11 -64 -70 -92 -85 -16 -8 -28 -16 -28 -19 0
-2 4 -26 10 -52 5 -26 12 -61 16 -78 3 -16 7 -91 9 -165 3 -152 -8 -267 -34
-358 -8 -28 -6 -35 12 -53 64 -61 162 -115 266 -148 l59 -18 42 85 c23 47 43
90 45 96 1 6 10 29 20 51 29 66 176 478 189 530 8 33 31 110 52 174 13 41 26
83 29 95 9 46 14 62 24 89 6 15 8 27 5 27 -4 0 -1 7 6 15 7 8 10 15 7 15 -3 0
2 21 10 48 8 26 17 56 19 67 2 11 10 47 18 80 9 33 15 63 16 68 0 8 -21 8 -75
-3z"/>
<path d="M4753 4357 c-15 -13 -58 -43 -95 -66 -38 -24 -69 -47 -69 -52 -3 -20
-5 -26 -29 -84 -33 -84 -96 -201 -136 -258 -33 -46 -44 -86 -24 -88 25 -3 38
-3 90 4 56 8 162 33 190 44 8 3 17 7 20 7 21 4 83 35 118 59 32 21 42 33 37
45 -30 73 -48 180 -49 299 -1 46 -4 83 -8 83 -4 0 -5 7 -2 15 9 22 -11 18 -43
-8z"/>
<path d="M5145 3995 c-30 -32 -56 -62 -56 -69 -1 -6 -3 -24 -5 -40 -2 -23 5
-37 32 -63 20 -18 41 -33 49 -33 25 0 163 -150 229 -249 36 -55 66 -106 66
-114 0 -8 6 -17 13 -20 21 -8 11 260 -13 338 -5 17 -12 41 -14 55 -4 16 -20
33 -46 48 -58 33 -108 79 -157 145 l-43 59 -55 -57z"/>
<path d="M5492 2766 c-29 -105 -55 -198 -57 -206 -3 -8 -9 -31 -14 -50 -5 -19
-16 -56 -24 -82 -8 -27 -13 -48 -10 -48 3 0 -1 -7 -8 -17 -8 -9 -13 -18 -11
-20 1 -1 2 -4 1 -5 0 -2 -2 -10 -4 -18 -1 -8 -11 -44 -20 -80 -23 -89 -27
-195 -9 -238 25 -60 43 -69 147 -72 221 -7 452 1 493 17 11 4 4 14 -27 41 -50
43 -107 82 -119 82 -14 0 -90 82 -106 115 -8 17 -16 53 -18 80 -3 45 1 65 30
140 4 11 8 26 10 32 2 14 31 97 44 128 9 22 54 157 55 165 0 3 3 10 7 16 4 6
9 22 12 37 4 23 1 27 -19 27 -13 0 -27 5 -30 10 -3 6 -13 10 -22 10 -21 0
-159 67 -198 95 -16 12 -34 24 -40 27 -6 4 -32 -75 -63 -186z"/>
<path d="M5228 2634 c-3 -3 -55 -7 -114 -9 -60 -2 -120 -6 -134 -9 -59 -13
-79 -16 -144 -22 -39 -3 -81 -10 -94 -15 -14 -5 -33 -7 -42 -4 -10 3 -21 1
-24 -4 -4 -5 -28 -13 -54 -16 -59 -9 -86 -13 -92 -15 -3 -2 -9 -2 -13 -1 -15
3 -182 -42 -194 -52 -7 -5 -13 -7 -13 -4 0 4 -19 -1 -42 -9 -24 -9 -62 -18
-85 -20 -23 -3 -73 -14 -110 -25 -37 -12 -74 -21 -80 -22 -7 0 -13 -5 -13 -10
0 -6 -3 -8 -6 -4 -7 7 -67 -14 -239 -82 -213 -85 -386 -180 -437 -240 -21 -25
-11 -35 16 -17 12 7 39 16 61 20 54 8 67 11 87 20 9 4 22 9 30 10 7 2 20 6 28
9 8 3 29 8 45 11 17 2 53 9 80 16 28 6 61 13 75 15 41 6 162 46 205 68 22 11
41 19 43 18 4 -3 54 10 172 45 153 44 393 102 455 109 28 3 68 10 90 16 22 5
57 14 78 20 21 5 64 11 97 14 33 2 64 6 69 9 8 5 122 16 204 20 15 0 27 4 27
7 0 6 22 9 64 9 17 0 27 2 24 6 -4 3 0 23 7 44 7 21 16 52 18 69 5 27 2 31
-17 31 -13 0 -25 -2 -28 -6z"/>
<path d="M6014 2616 c-7 -19 0 -82 14 -117 10 -25 15 -27 64 -25 29 1 58 5 65
9 9 6 50 4 158 -7 11 -1 26 -5 33 -9 6 -5 12 -4 12 2 0 6 12 6 33 0 18 -5 57
-7 85 -6 31 2 63 -2 78 -10 15 -7 30 -10 35 -7 5 3 9 0 9 -5 0 -6 11 -11 24
-11 14 0 27 -4 30 -8 3 -5 26 -9 52 -11 26 -1 52 -5 58 -9 6 -3 33 -7 61 -9
27 -2 84 -10 125 -19 41 -8 83 -16 93 -18 10 -1 23 -9 28 -17 5 -8 9 -9 9 -4
0 6 5 2 11 -8 12 -21 75 -21 97 1 11 10 17 8 32 -10 11 -13 19 -18 20 -12 0
11 108 -21 141 -42 8 -5 23 -10 33 -11 11 -2 26 -8 33 -15 7 -6 16 -8 19 -5 4
3 23 -5 43 -18 20 -14 50 -25 68 -25 20 0 33 -5 33 -12 0 -9 3 -9 8 -3 11 16
37 12 38 -5 2 -37 4 -41 17 -33 17 11 50 10 64 -2 7 -5 19 -16 28 -23 8 -7 24
-11 34 -7 12 3 42 -7 77 -25 32 -18 69 -33 83 -35 14 -2 25 -8 23 -14 -2 -10
10 -14 24 -8 3 1 10 -6 15 -16 6 -9 15 -15 20 -11 5 3 17 0 26 -8 15 -11 16
-11 10 6 -6 14 -4 17 8 12 8 -3 15 -1 15 5 0 5 -14 15 -31 21 -16 6 -28 13
-25 15 8 9 -18 29 -46 36 -15 4 -33 13 -40 21 -8 7 -43 28 -79 45 -35 18 -71
39 -80 47 -8 8 -23 14 -32 14 -8 0 -22 6 -29 13 -7 6 -22 14 -33 15 -11 2 -39
12 -62 23 -23 10 -46 19 -52 19 -5 0 -11 4 -13 9 -1 6 -14 12 -28 15 -14 3
-50 14 -80 26 -30 11 -82 30 -115 42 -33 11 -85 32 -115 45 -30 14 -66 27 -80
29 -13 3 -39 12 -58 21 -18 9 -35 13 -38 10 -3 -2 -29 4 -57 15 -29 10 -65 21
-82 23 -107 15 -155 26 -155 37 0 5 -4 6 -10 3 -5 -3 -38 2 -72 11 -35 9 -83
18 -108 20 -25 1 -63 9 -85 16 -22 8 -47 13 -55 13 -8 -1 -21 -3 -28 -3 -7 -1
-10 -7 -7 -13 5 -7 -12 -8 -52 -3 -32 3 -76 7 -98 9 -100 6 -221 17 -228 22
-4 2 -10 -3 -13 -11z"/>
<path d="M5896 2385 c-4 -14 -7 -28 -7 -32 -1 -5 -6 -19 -11 -33 -27 -69 -13
-92 87 -149 55 -32 113 -82 138 -121 16 -26 36 -28 146 -21 18 1 7 42 -26 92
-17 26 -53 55 -105 86 -89 53 -128 87 -180 156 -35 46 -36 46 -42 22z"/>
<path d="M5650 1380 c0 -5 -8 -10 -19 -10 -10 0 -25 -10 -33 -22 -16 -26 -71
-176 -71 -195 0 -7 -4 -13 -9 -13 -5 0 -7 -4 -4 -8 2 -4 -4 -44 -14 -89 -22
-91 -26 -116 -35 -188 -4 -27 -11 -70 -17 -95 -5 -25 -12 -54 -14 -65 -2 -11
-15 -65 -30 -120 -14 -55 -27 -111 -30 -125 -2 -14 -7 -38 -11 -55 -4 -16 -6
-34 -4 -40 1 -5 -1 -7 -5 -2 -4 4 -9 18 -11 30 -3 20 -27 171 -38 237 -2 14
-7 41 -10 60 -7 38 -12 72 -20 135 -3 22 -7 51 -10 64 -2 14 -7 47 -10 75 -3
28 -11 69 -17 91 -13 47 -15 52 -21 87 -3 14 -10 35 -16 46 -6 11 -8 21 -6 24
3 3 -4 13 -15 23 -14 13 -20 14 -20 5 0 -9 -5 -7 -16 6 -8 10 -12 12 -8 4 6
-11 2 -10 -13 3 -11 9 -23 17 -26 17 -8 0 -57 -98 -57 -113 0 -5 -6 -23 -14
-40 -19 -45 -76 -208 -81 -234 -2 -13 -8 -31 -14 -40 -9 -16 -11 -16 -19 7
-50 129 -65 168 -73 185 -8 19 -31 86 -59 170 -17 51 -31 66 -54 53 -14 -8
-19 -6 -23 10 -6 23 -40 19 -47 -7 -3 -9 -6 -143 -8 -298 -2 -156 -5 -283 -8
-283 -3 0 -6 -75 -7 -168 0 -92 -3 -207 -4 -256 -3 -78 -1 -90 16 -103 22 -15
65 -10 77 10 4 7 8 35 8 62 2 321 8 582 14 634 8 59 10 63 23 45 7 -10 17 -30
20 -44 4 -14 15 -44 25 -67 10 -24 20 -46 20 -50 6 -26 67 -119 89 -136 46
-34 65 -17 84 71 9 42 30 118 46 167 17 50 31 97 32 105 3 21 24 56 31 50 3
-3 10 -46 15 -95 6 -50 13 -105 16 -122 10 -61 15 -98 20 -153 4 -30 8 -62 11
-70 3 -8 8 -37 10 -65 6 -72 11 -116 17 -150 3 -16 8 -55 12 -85 3 -30 8 -67
10 -82 3 -16 7 -39 9 -52 9 -52 20 -61 80 -60 72 2 86 13 80 67 -3 30 1 46 15
62 20 21 52 119 71 217 11 56 12 57 42 53 20 -2 41 3 57 14 32 22 71 35 72 24
0 -4 2 -24 4 -43 3 -39 14 -146 19 -201 9 -87 94 -140 123 -76 6 12 8 31 6 42
-6 32 -16 266 -14 310 4 72 3 89 -7 135 -26 116 -39 351 -27 495 8 103 8 92 1
149 -4 32 -14 56 -28 68 -22 19 -78 25 -78 8z m-25 -460 c7 -143 13 -255 15
-255 1 0 3 -10 4 -21 2 -17 -9 -27 -51 -48 -29 -14 -56 -26 -61 -26 -12 0 -8
42 10 108 9 34 17 63 16 65 -1 8 18 116 22 120 1 1 4 11 5 22 1 11 6 45 10 75
4 30 9 64 10 75 7 60 14 25 20 -115z"/>
<path d="M6777 1358 c-21 -21 -25 -33 -18 -50 17 -48 22 -356 9 -478 -4 -36
-10 -122 -12 -192 -3 -70 -7 -131 -9 -135 -4 -7 -14 -94 -22 -192 -1 -19 4
-46 11 -60 11 -22 11 -29 -2 -48 -18 -28 -13 -38 29 -60 43 -23 49 -23 107 -8
103 27 201 97 273 195 22 30 44 57 48 60 4 3 16 28 26 55 29 82 23 364 -12
535 -19 91 -75 215 -124 277 -34 42 -108 94 -141 98 -3 1 -14 4 -25 8 -11 4
-41 11 -66 15 -43 8 -48 7 -72 -20z m153 -138 c12 0 90 -76 90 -88 0 -5 7 -23
15 -40 9 -17 18 -40 20 -52 2 -11 6 -24 9 -28 3 -5 8 -31 12 -58 3 -27 8 -52
10 -55 2 -4 6 -53 9 -110 3 -57 7 -120 9 -139 5 -65 -29 -190 -57 -211 -5 -3
-8 -10 -8 -15 1 -22 -127 -138 -172 -157 -18 -7 -19 -3 -12 83 3 50 8 99 10
110 6 33 16 140 20 224 7 137 8 493 1 504 -10 16 5 44 21 38 8 -3 18 -6 23 -6z"/>
<path d="M3548 1345 c-1 -1 -28 -6 -58 -9 -57 -7 -128 -23 -145 -34 -5 -4 -16
-7 -23 -8 -37 -6 -41 -34 -41 -279 0 -132 -2 -267 -6 -300 -3 -33 -8 -80 -10
-105 -3 -25 -8 -71 -11 -102 -3 -32 -7 -68 -10 -80 -2 -13 -7 -41 -10 -63 -2
-22 -11 -65 -19 -96 -8 -30 -13 -65 -10 -78 13 -70 32 -84 109 -82 28 1 92 3
143 4 98 2 133 17 133 54 -1 49 -43 66 -157 65 -51 -1 -93 2 -93 6 0 4 5 39
11 77 14 102 17 122 25 200 9 95 9 94 20 105 6 6 31 12 55 15 24 2 44 4 44 5
0 1 11 3 25 6 26 5 50 29 50 50 0 20 -43 65 -65 68 -11 2 -31 -1 -44 -6 -38
-14 -59 -2 -57 33 1 17 -1 32 -6 35 -4 3 -4 13 2 23 5 10 7 21 4 23 -2 3 -7
62 -9 132 -3 70 -6 131 -6 134 -5 33 5 40 79 56 42 9 87 18 98 19 49 6 73 77
37 109 -19 16 -49 29 -55 23z"/>
<path d="M6327 1344 c-4 -4 -22 -9 -39 -11 -65 -7 -149 -33 -170 -53 -22 -20
-22 -27 -25 -293 -1 -150 -4 -285 -7 -302 -2 -16 -7 -59 -10 -95 -9 -94 -17
-159 -26 -210 -5 -24 -6 -48 -4 -52 3 -5 0 -8 -6 -8 -6 0 -9 -4 -6 -8 3 -5 -1
-32 -9 -61 -12 -45 -11 -57 1 -86 24 -58 30 -59 267 -52 90 3 109 11 120 52 4
14 -3 27 -24 44 -27 21 -39 23 -130 23 l-100 -1 5 27 c3 15 8 45 10 67 22 167
28 225 30 257 1 21 4 40 7 42 3 3 27 8 55 11 27 3 56 7 65 8 28 5 49 28 49 54
0 29 -47 75 -69 69 -43 -14 -80 -15 -87 -4 -4 6 -8 48 -10 92 -1 45 -5 134 -8
198 -6 114 -6 118 16 129 13 7 24 11 26 10 1 -1 26 2 55 8 28 6 63 12 76 14
29 4 60 40 56 65 -2 9 -4 20 -4 24 -1 4 -11 16 -22 27 -16 15 -27 18 -39 11
-10 -6 -21 -5 -27 1 -5 5 -12 6 -16 3z"/>
<path d="M1478 1319 c-34 -18 -43 -29 -39 -51 0 -5 -3 -8 -9 -8 -5 0 -10 -7
-10 -15 0 -9 -12 -48 -26 -88 -14 -39 -32 -101 -40 -137 -8 -36 -17 -76 -20
-90 -3 -14 -7 -36 -9 -50 -1 -14 -6 -47 -10 -75 -5 -27 -9 -57 -9 -65 -1 -9
-5 -21 -10 -28 -4 -6 -5 -12 -2 -12 2 0 -4 -29 -14 -64 -10 -36 -16 -67 -12
-70 3 -3 1 -6 -5 -6 -6 0 -10 -8 -9 -17 0 -17 -49 -231 -61 -263 -4 -8 -7 -17
-8 -20 -1 -3 -7 -24 -14 -47 -17 -52 -8 -90 24 -105 50 -23 93 47 121 197 2
11 9 39 15 62 9 34 15 41 28 34 23 -12 43 -7 90 24 23 16 43 26 46 24 4 -5 10
-52 21 -159 3 -36 7 -74 9 -85 1 -11 3 -25 4 -32 3 -28 53 -73 82 -73 38 0 41
16 33 165 -11 208 -11 229 -1 252 7 15 6 31 -2 50 -6 15 -12 40 -13 56 -1 15
-5 27 -8 27 -3 0 -5 19 -6 43 -1 23 -5 89 -9 147 -8 119 -8 142 1 296 7 128
-3 175 -42 193 -33 15 -42 14 -86 -10z m0 -341 c1 -59 10 -283 12 -283 5 0 5
-116 0 -123 -6 -9 -97 -52 -110 -52 -11 0 -6 55 9 102 6 19 13 44 16 54 8 41
37 170 41 189 3 11 7 42 9 68 4 46 13 87 20 87 2 0 3 -19 3 -42z"/>
<path d="M9030 1320 c-83 -21 -109 -35 -115 -63 -2 -12 -7 -143 -9 -292 -2
-148 -7 -295 -11 -325 -4 -30 -8 -73 -10 -95 -2 -22 -4 -40 -5 -40 0 0 -3 -22
-4 -50 -2 -27 -14 -96 -26 -153 -38 -183 -26 -195 188 -190 163 4 185 11 180
56 -6 48 -44 64 -152 64 l-97 -1 6 60 c8 63 10 80 20 149 4 25 8 54 10 65 1
11 3 38 4 60 2 55 10 64 66 70 81 8 102 15 112 38 13 28 2 59 -29 79 -22 14
-38 15 -82 4 -40 -10 -44 3 -50 174 -3 91 -8 175 -10 187 -3 12 -2 31 1 42 5
18 16 23 81 36 13 2 31 6 40 9 9 3 33 8 52 11 19 3 39 10 43 14 16 16 17 64 2
87 -14 22 -22 24 -78 22 -34 -1 -91 -9 -127 -18z"/>
<path d="M1838 1322 c-9 -2 -20 -12 -23 -23 -4 -10 -10 -19 -15 -19 -4 0 -4
-16 0 -34 4 -19 6 -37 3 -39 -5 -5 -4 -404 2 -472 11 -140 14 -424 4 -465 -21
-91 -20 -125 4 -147 12 -12 33 -24 47 -29 36 -11 253 -12 268 -1 16 13 15 59
-2 82 -12 16 -28 20 -101 21 -55 1 -90 6 -95 13 -4 7 -5 29 -3 49 5 56 3 292
-3 337 -2 22 -6 179 -8 348 -4 290 -5 310 -24 330 -10 12 -23 29 -28 37 -5 9
-17 14 -26 12z"/>
<path d="M7665 1304 c-16 -8 -41 -25 -53 -37 -26 -24 -82 -115 -99 -162 -6
-16 -14 -39 -19 -50 -10 -28 -12 -36 -19 -70 -3 -16 -10 -52 -15 -80 -16 -77
-17 -86 -25 -140 -6 -45 -11 -149 -15 -330 -1 -71 6 -123 19 -139 5 -6 15 -30
22 -54 15 -51 78 -111 118 -113 85 -5 148 4 196 27 61 30 78 54 66 87 -23 59
-48 64 -149 27 -115 -43 -135 -23 -134 135 1 112 11 351 18 405 10 90 14 110
29 175 8 38 23 77 32 87 9 10 13 18 9 18 -7 0 9 24 46 71 28 35 53 32 98 -11
56 -54 91 -53 105 3 6 22 1 35 -29 72 -20 24 -49 53 -64 64 -39 28 -100 35
-137 15z"/>
<path d="M2795 1292 c-3 -3 -45 -7 -93 -8 -48 -1 -89 -3 -92 -4 -3 -1 -8 -2
-12 -1 -21 3 -58 -21 -58 -37 0 -36 46 -66 102 -67 47 -1 53 -4 64 -30 13 -33
8 -239 -11 -390 -10 -82 -14 -127 -20 -192 -4 -35 -8 -73 -11 -85 -2 -13 -6
-39 -9 -58 -3 -19 -7 -51 -10 -70 -8 -49 -25 -202 -25 -221 0 -12 -11 -16 -50
-16 -59 1 -75 -11 -66 -47 10 -39 55 -52 203 -59 146 -6 169 0 158 43 -11 42
-31 61 -67 62 -18 0 -38 5 -44 10 -16 12 -10 111 16 258 6 30 12 66 15 80 28
134 41 620 18 679 -19 49 -18 51 36 51 54 0 74 15 69 52 -2 13 -12 24 -26 28
-13 3 -23 9 -22 15 0 10 -56 16 -65 7z"/>
<path d="M8516 1287 c-18 -14 -23 -42 -32 -192 -3 -60 -8 -130 -9 -155 -2 -25
-6 -92 -10 -150 -3 -58 -8 -123 -11 -145 -3 -22 -6 -48 -6 -57 1 -22 -13 -31
-52 -33 -17 -1 -50 -8 -74 -15 -50 -16 -64 -6 -57 40 3 14 7 41 9 60 3 19 8
49 11 65 4 17 8 140 9 275 l1 245 -26 27 c-21 21 -35 27 -60 25 l-33 -2 -2
-260 c-2 -143 -5 -273 -8 -290 -12 -72 -16 -125 -31 -390 -3 -55 -8 -131 -11
-168 -5 -65 2 -134 13 -123 3 2 20 -4 39 -15 34 -19 34 -19 54 1 11 11 20 34
21 53 0 17 2 43 5 57 2 14 6 75 9 135 2 61 6 119 9 130 2 11 5 26 5 34 1 9 8
11 29 6 27 -8 82 -8 120 0 17 3 19 -1 17 -38 -4 -50 -12 -110 -27 -192 -11
-65 -14 -145 -5 -169 3 -8 22 -22 42 -32 29 -13 41 -14 61 -5 24 11 24 12 21
115 -2 58 2 138 9 178 7 40 16 107 19 149 3 42 7 84 9 95 7 38 18 207 22 346
2 79 6 161 8 183 3 22 8 69 11 105 6 55 5 68 -11 87 -22 26 -66 36 -88 20z"/>
<path d="M4408 1267 c-7 -13 -10 -51 -9 -92 3 -76 3 -408 0 -598 -2 -111 -11
-151 -26 -110 -3 10 -15 30 -25 46 -11 15 -16 27 -12 27 3 0 2 6 -4 13 -9 11
-135 292 -147 327 -5 16 -28 69 -41 94 -8 16 -14 35 -14 42 0 7 -4 14 -8 16
-7 2 -73 130 -78 148 0 3 -7 20 -14 38 -10 28 -16 33 -35 28 -14 -4 -28 0 -35
9 -9 11 -16 12 -25 5 -6 -5 -15 -7 -18 -3 -7 7 -11 -18 -8 -52 1 -11 3 -87 6
-170 2 -82 6 -161 9 -175 3 -13 8 -67 11 -118 3 -52 7 -98 10 -102 2 -4 7 -29
9 -56 7 -61 15 -120 22 -159 3 -16 7 -107 7 -202 1 -117 6 -176 14 -184 6 -6
28 -13 47 -16 31 -3 38 0 46 22 9 23 7 291 -3 390 -7 66 -18 158 -23 185 -14
78 -24 230 -15 230 4 0 25 -39 46 -87 21 -49 57 -128 80 -178 23 -49 48 -107
54 -127 7 -21 17 -40 22 -44 5 -3 7 -10 4 -15 -4 -5 -1 -9 6 -9 7 0 10 -3 7
-6 -4 -3 7 -32 23 -65 36 -71 53 -112 51 -121 -1 -3 5 -12 13 -18 8 -7 15 -16
15 -21 0 -5 9 -29 21 -53 17 -38 25 -45 55 -48 69 -8 66 -27 70 438 1 230 6
492 9 581 l7 161 -24 16 c-14 9 -33 14 -42 10 -9 -3 -16 -2 -16 4 0 21 -30 21
-42 -1z m-353 -397 c3 -5 1 -10 -4 -10 -6 0 -11 5 -11 10 0 6 2 10 4 10 3 0 8
-4 11 -10z"/>
<path d="M10050 1280 c-16 -10 -22 -131 -10 -180 4 -14 3 -40 -1 -57 -4 -18
-4 -33 0 -33 3 0 5 -48 3 -107 -2 -97 -8 -313 -11 -418 -2 -38 -2 -39 -17 -20
-22 28 -63 117 -177 381 -36 83 -93 208 -127 278 -51 104 -66 127 -81 123 -10
-3 -27 2 -38 10 -12 8 -21 10 -21 4 0 -6 -7 -8 -15 -5 -11 5 -15 -1 -16 -22
-1 -16 0 -33 2 -39 1 -5 4 -75 6 -155 1 -80 5 -172 8 -205 3 -33 7 -82 9 -110
5 -64 23 -203 43 -325 3 -19 6 -103 7 -187 1 -167 4 -175 63 -186 50 -10 71
23 65 103 -1 8 -3 69 -6 135 -3 66 -8 154 -12 195 -4 41 -8 85 -8 98 -1 12 -3
22 -6 22 -3 0 -6 8 -7 18 -4 63 -14 204 -18 240 -5 53 7 47 30 -15 10 -26 46
-106 80 -178 34 -71 66 -141 69 -155 8 -26 11 -33 71 -165 100 -221 119 -256
142 -261 35 -9 71 4 78 27 9 27 12 119 5 119 -3 0 -5 136 -4 302 1 167 2 303
3 303 1 0 5 95 8 211 5 192 4 212 -13 228 -10 10 -27 16 -40 13 -14 -2 -25 2
-28 9 -6 16 -15 17 -36 4z"/>
</g>
</svg>
