<svg version="1.1" id="Layer_1" xmlns="http://www.w3.org/2000/svg" x="0" y="0" width="39.13" height="35.98" xml:space="preserve"><style>.st0{fill:#231f20}</style><path class="st0" d="M13.6.06C7.55-.22 2.12 5.18.46 10.68c-.71 2.37-.65 4.99.6 7.17 1.18 2.04 3 3.44 5.08 4.49 4.8 2.43 11.47 3.44 16.22.42 2.45-1.55 3.47-4.03 3.92-6.8.39-2.44.58-5.11-.21-7.49-.45-1.35-1.27-2.39-2.12-3.49-.76-.98-1.46-2.06-2.46-2.82-1.17-.88-2.5-.99-3.82-1.5-1.6-.62-3.07-.82-4.79-.55-.99.15-3.05.65-3.33 1.82-.29 1.19 1.83 1.08 2.43.99.02 0-.33-.09.06-.02.33.06-.15-.06.35.11.34.12.67.28 1.01.4.85.3 1.81.34 2.58.83.7.46 1.26 1.18 1.76 1.83.58.75 1.23 1.49 1.76 2.27 1.09 1.63 1.36 3.77 1.32 5.69-.05 1.97-.35 4.14-1.13 5.96-.29.68-.87 1.16-1.2 1.65-.14.21-.1-.03.16-.03-.05 0-.59.1-.12.03-.66.1-.32.03-.21.03-.12 0-.53.02-.64.01-1.8-.07-3.66-.61-5.33-1.26-3.37-1.32-6.34-3.83-6.52-7.69-.13-2.28.86-4.62 2.14-6.46.6-.87 1.28-1.71 2.05-2.43.34-.31.7-.58 1.07-.85.42-.3.32-.17.14-.1-.19.07-.63.06.01.09 1.23.06 3.07-.48 3.85-1.51.84-1.1-.72-1.38-1.49-1.41z"/><path class="st0" d="M17.07 24.52c1.48.96 2.95 1.91 4.31 3.03 1.42 1.16 2.71 2.46 4.06 3.69 2.79 2.53 5.82 4.4 9.63 4.73 1.25.11 3.11-.49 3.83-1.57.78-1.18-.68-1.58-1.56-1.66.24.02-.15-.03-.19-.04-.18-.04-.37-.07-.55-.11a6.34 6.34 0 01-.93-.31c-.7-.28-1.37-.64-2-1.03-1.37-.86-2.57-1.99-3.74-3.09-1.23-1.15-2.44-2.32-3.78-3.34-1.43-1.1-2.95-2.08-4.47-3.06-1.54-1.02-6.9 1.28-4.61 2.76z"/></svg>