<?xml version="1.0" encoding="utf-8"?>
<!-- Generator: Adobe Illustrator 25.0.1, SVG Export Plug-In . SVG Version: 6.00 Build 0)  -->
<svg version="1.1" id="Layer_1" xmlns="http://www.w3.org/2000/svg" xmlns:xlink="http://www.w3.org/1999/xlink" x="0px" y="0px"
	 width="101.74px" height="95.16px" viewBox="0 0 101.74 95.16" style="enable-background:new 0 0 101.74 95.16;"
	 xml:space="preserve">
<style type="text/css">
	.st0{fill:#F7E381;}
	.st1{fill:#231F20;}
</style>
<g>
	<path class="st0" d="M36.78,8c-8.44-0.74-16.02,5.3-21.75,11.81C4.21,32.12-3.64,49.67,1.74,65.4
		c5.49,16.05,22.49,24.3,38.41,28.04c10.28,2.42,22.29,3.24,30.13-4.11c5.66-5.3,7.67-13.58,8.88-21.42
		c2.06-13.36,2.19-28.45-6.19-38.78c-5.68-7.01-9.81-15.8-18.48-17.33C46.63,10.42,44.61,6.46,36.78,8"/>
</g>
<g>
	<g>
		<path class="st1" d="M67.57,6.01c-3.07-0.54-5.95-1.94-8.91-3c-3.59-1.29-7.19-1.29-10.91-0.62c-1.05,0.19-2.76,1.29-2.42,2.56
			c0.37,1.39,2.35,1.2,3.38,1.01c-0.38,0.07,0.2-0.02,0.32-0.04c0.2-0.03,0.4-0.05,0.6-0.07c0.42-0.04,0.85-0.07,1.27-0.09
			c-0.29,0.01-0.16-0.01,0.05,0c0.21,0.01,0.42,0.01,0.63,0.03c0.36,0.02,0.72,0.07,1.08,0.11c0.23,0.02,0.28,0.04,0.02-0.01
			c0.18,0.04,0.37,0.08,0.55,0.12c0.32,0.08,0.65,0.16,0.96,0.26c0.63,0.19,1.25,0.42,1.87,0.66c3.11,1.21,6.09,2.35,9.4,2.93
			c1.29,0.23,3.17-0.51,3.79-1.7C69.95,6.86,68.65,6.2,67.57,6.01L67.57,6.01z"/>
	</g>
</g>
<g>
	<g>
		<path class="st1" d="M49.28,2.25C35.16,1.23,23.74,13.13,16.5,23.91C9.42,34.46,4.82,48.01,8.77,60.6
			c3.55,11.32,13.14,19.18,23.58,24.01c5.44,2.51,11.13,4.39,16.96,5.74c6.14,1.43,12.47,2.36,18.78,1.85
			c7.23-0.58,14.52-3.34,19.23-9.07c4.64-5.64,6.44-12.9,7.59-19.97c0.44-2.68-5.46-1.82-5.84,0.55
			c-0.92,5.66-2.18,11.44-5.32,16.33c-1.47,2.28-3.42,4.24-5.76,5.63c-2.01,1.2-4.32,1.95-6.51,2.33
			c-5.41,0.94-11.07,0.33-16.4-0.76c-5.32-1.09-10.57-2.61-15.6-4.65c-9.42-3.81-18.82-10.06-23.33-19.5
			c-5.2-10.9-2.86-23.19,2.67-33.47c3.17-5.89,7.31-11.3,12.16-15.91c4.4-4.19,9.97-8.04,16.2-7.59c1.33,0.1,3.13-0.43,3.79-1.7
			C51.62,3.17,50.41,2.33,49.28,2.25L49.28,2.25z"/>
	</g>
</g>
<g>
	<g>
		<path class="st1" d="M69.41,20.48c0.11-0.11,0.95-0.82,0.94-0.84c0-0.02-0.08-0.01-0.16,0.02c-0.15,0.05-0.12-0.04-0.11,0.04
			c0.01,0.06,0.37,0.38,0.43,0.5c0.36,0.73,0.24,1.62,0.01,2.37c-0.46,1.52-1.63,2.76-2.61,3.97c-1.02,1.24-2.04,2.59-2.44,4.17
			c-0.23,0.92-0.16,1.94,0.69,2.51c0.83,0.56,2.03,0.67,3,0.78c2.61,0.28,5.26-0.16,7.67-1.19c0.4-0.17,1.17-0.66,0.77-1.17
			c-0.38-0.49-1.48-0.22-1.92-0.03c-1.89,0.81-3.96,1.03-5.99,0.63c-0.41-0.08-0.98-0.13-1.25-0.5c-0.29-0.39-0.2-0.95-0.09-1.39
			c0.2-0.8,0.6-1.52,1.06-2.2c0.95-1.39,2.17-2.59,3.07-4.01c0.83-1.32,1.58-3.18,0.9-4.71c-0.5-1.14-1.64-1.53-2.83-1.39
			c-1.38,0.17-2.56,0.97-3.5,1.95c-0.41,0.43-0.34,0.9,0.28,1.03C67.99,21.16,68.96,20.95,69.41,20.48L69.41,20.48z"/>
	</g>
</g>
<g>
	<g>
		<path class="st1" d="M77.4,19.64c0.31,1.44,0.62,2.89,0.94,4.33c0.26,1.17,0.73,2.21,1.92,2.66c1.27,0.47,2.73,0.24,4.01-0.04
			c0.69-0.15,1.39-0.34,2.01-0.7c0.51-0.3,1.23-0.82,0.99-1.51c-0.18-0.51-1.24-0.28-1.6-0.18c-0.34,0.1-0.69,0.22-0.98,0.44
			c-0.14,0.11-0.39,0.31-0.32,0.52c0.03,0.09,0.03,0.13,0.03,0.19c-0.02,0.05-0.01,0.05,0.02,0c-0.08,0.08-0.07,0.09,0.01,0.01
			c-0.02,0.02-0.05,0.04-0.07,0.06c0.14-0.08,0.14-0.09,0.02-0.02c0.17-0.07,0.2-0.09,0.11-0.05c-0.11,0.04-0.06,0.02,0.16-0.05
			c-0.03-0.02-0.23,0.06-0.29,0.07c-0.05,0.01-0.45,0.12-0.2,0.05c0.25-0.07-0.16,0.03-0.21,0.04c-0.1,0.02-0.2,0.03-0.3,0.05
			c-0.34,0.06,0.3-0.01-0.04,0.01c-0.1,0.01-0.2,0.01-0.3,0.01c-0.24,0.02,0.19,0.02-0.13,0c-0.11-0.01-0.22-0.02-0.33-0.04
			c0.17,0.03-0.06-0.02-0.11-0.03c-0.09-0.03-0.18-0.06-0.26-0.1c-0.11-0.05-0.27-0.16-0.4-0.28c-0.72-0.64-0.82-1.76-1.01-2.65
			c-0.26-1.18-0.51-2.36-0.77-3.54c-0.04-0.2-0.38-0.27-0.53-0.29c-0.34-0.04-0.75,0.02-1.07,0.11c-0.34,0.1-0.69,0.22-0.98,0.44
			C77.56,19.24,77.35,19.42,77.4,19.64L77.4,19.64z"/>
	</g>
</g>
<g>
	<g>
		<path class="st1" d="M84.28,19.62c0.61,2.28,1.22,4.56,1.83,6.83c0.3,1.14,0.61,2.28,0.91,3.42c0.14,0.53,0.28,1.05,0.42,1.58
			c0.12,0.46,0.53,1.3,0.33,1.75c-0.23,0.53,0.98,0.42,1.19,0.39c0.51-0.08,1.45-0.3,1.68-0.85c0.21-0.5-0.03-1.05-0.17-1.54
			c-0.16-0.61-0.33-1.23-0.49-1.84c-0.3-1.14-0.61-2.28-0.91-3.42c-0.63-2.37-1.26-4.73-1.9-7.1
			C86.97,18.08,84.07,18.85,84.28,19.62L84.28,19.62z"/>
	</g>
</g>
<g>
	<g>
		<path class="st1" d="M78.85,41.88c1.88-0.76,3.77-1.5,5.68-2.18c0.73-0.26,1.46-0.51,2.2-0.74c0.03-0.01,0.73-0.23,0.26-0.08
			c-0.45,0.14,0.16-0.05,0.25-0.07c0.35-0.1,0.69-0.2,1.04-0.3c3.57-1,7.18-1.86,10.76-2.84c0.48-0.13,2.9-0.76,2.68-1.58
			c-0.21-0.8-2.75-0.13-3.11-0.03c-3.72,1.02-7.47,1.9-11.18,2.96c-4.05,1.17-7.97,2.68-11.88,4.27c-0.51,0.21-1.94,1.05-0.75,1.38
			C76.04,42.99,77.75,42.33,78.85,41.88L78.85,41.88z"/>
	</g>
</g>
<g>
	<g>
		<path class="st1" d="M85.72,48.01c3.56-0.55,7.13-1.1,10.7-1.64c-0.05-1.22-0.11-2.45-0.16-3.67c-1.59,0.29-3.06,1.4-3.81,2.82
			c-0.61,1.16-0.87,2.52-1.2,3.77c-0.73,2.79-1.36,5.61-1.5,8.5c-0.07,1.36,1.49,1.76,2.61,1.63c0.76-0.09,1.56-0.31,2.19-0.78
			c0.44-0.33,1.02-0.82,1.05-1.41c0.12-2.47,0.6-4.89,1.19-7.28c0.28-1.12,0.61-2.24,0.89-3.36c0.07-0.22,0.07-0.22-0.01,0.01
			c0.04-0.11,0.08-0.22,0.13-0.32c0.07-0.16,0.16-0.3,0.23-0.46c0.14-0.22,0.11-0.19-0.08,0.07c0.07-0.08,0.14-0.16,0.21-0.24
			c-0.19,0.19-0.4,0.34-0.65,0.45c-0.51,0.16-0.61,0.21-0.3,0.14c0.98-0.18,2.53-1.13,2.44-2.29c-0.1-1.18-1.61-1.53-2.59-1.38
			c-3.57,0.54-7.13,1.08-10.7,1.64c-1.19,0.18-3.03,0.77-3.23,2.19C82.92,47.73,84.72,48.16,85.72,48.01L85.72,48.01z"/>
	</g>
</g>
<g>
	<g>
		<path class="st1" d="M88.03,53.78c-0.03-0.12-0.07-0.06-0.08-0.03c0.02-0.06,0.64-0.25,0.7-0.27c0.55-0.21,1.09-0.42,1.64-0.63
			c1.05-0.41,2.11-0.81,3.17-1.21c2.15-0.82,4.31-1.62,6.47-2.41c0.4-0.15,1.16-0.65,0.78-1.15c-0.39-0.5-1.47-0.18-1.92-0.02
			c-2.55,0.94-5.1,1.89-7.64,2.86c-1.25,0.48-2.5,0.96-3.75,1.44c-0.86,0.33-2.59,0.98-2.26,2.2
			C85.39,55.55,88.29,54.78,88.03,53.78L88.03,53.78z"/>
	</g>
</g>
<g>
	<g>
		<path class="st1" d="M53.63,31.45c-5.8-1.2-12.16,1.89-16.55,5.5c-3.6,2.96-6.46,6.92-7.86,11.38c-2.83,9.05,1,19.71,10.68,22.43
			c5.54,1.56,12.36,0.34,16.94-3.15c1.05-0.8-0.94-0.86-1.33-0.82c-1.32,0.13-2.82,0.53-3.89,1.35c-1.11,0.85-1.49,0.96-2.73,1.01
			c-1.82,0.07-3.71-0.28-5.4-0.96c-3.64-1.46-6.45-4.41-8-7.99c-3-6.94-1.08-14.88,3.59-20.59c1.35-1.65,2.96-3.13,4.71-4.34
			c1.61-1.11,3.06-2.09,5.05-1.68c1.28,0.26,2.88-0.25,4.04-0.78C53.34,32.61,54.89,31.71,53.63,31.45L53.63,31.45z"/>
	</g>
</g>
<g>
	<g>
		<path class="st1" d="M33.45,54.98c3.27-1.34,6.54-2.67,9.81-4.01c1.11-0.45,2.2-2.06,1.32-3.18c-0.97-1.24-2.67-1.07-3.97-0.54
			c-3.27,1.34-6.54,2.67-9.81,4.01c-1.11,0.45-2.2,2.06-1.32,3.18C30.46,55.67,32.16,55.51,33.45,54.98L33.45,54.98z"/>
	</g>
</g>
<g>
	<g>
		<path class="st1" d="M35.65,60.2c2.43-1.1,4.82-2.28,7.16-3.55c0.42-0.21,0.78-0.49,1.08-0.83c0.28-0.23,0.48-0.52,0.6-0.87
			c0.16-0.65-0.26-1.16-0.84-1.39c-0.88-0.35-1.92-0.35-2.84-0.2c-1.16,0.18-2.26,0.53-3.3,1.09c-1.33,0.72-2.67,1.41-4.02,2.06
			c0.33-0.16,0.66-0.32,0.99-0.48c-0.71,0.34-1.43,0.68-2.16,1.01c-0.81,0.37-1.82,0.84-2.36,1.6c-0.34,0.47-0.55,1.17-0.03,1.63
			c0.6,0.54,1.55,0.65,2.31,0.64C33.39,60.88,34.61,60.67,35.65,60.2L35.65,60.2z"/>
	</g>
</g>
<g>
	<g>
		<path class="st1" d="M63.06,10.72c-0.12-0.17-0.24-0.35-0.37-0.52c-1.46,0.99-2.93,1.99-4.39,2.98c4.32,1.29,8.82,2,13.33,2.07
			c1.56,0.02,4.11-0.69,3.96-2.67c-0.19-2.52-0.39-5.05-0.58-7.57c-0.08-1.01-0.01-2.15-0.4-3.1c-0.6-1.48-2.09-2.11-3.64-1.86
			c-1.17,0.19-3.03,0.76-3.24,2.17c-0.2,1.34,1.62,1.75,2.6,1.59c-0.62,0.08-1.16-0.07-1.63-0.46c0.05,0.05,0.1,0.1,0.13,0.16
			c0.08,0.11,0.06,0.07-0.04-0.11c0.03,0.07,0.06,0.14,0.09,0.22c0.1,0.37,0.17,0.71,0.2,1.09c0.08,1.03,0.16,2.07,0.24,3.1
			c0.16,2.11,0.32,4.22,0.48,6.33c1.32-0.89,2.64-1.78,3.96-2.67c-2.1-0.03-4.2-0.2-6.28-0.52c-0.24-0.04-0.48-0.07-0.72-0.11
			c0.49,0.08-0.2-0.04-0.3-0.06c-0.56-0.11-1.11-0.22-1.66-0.35c-1.03-0.23-2.04-0.51-3.05-0.81c-1.11-0.33-2.65-0.02-3.58,0.67
			c-0.73,0.54-1.43,1.42-0.81,2.31c0.12,0.17,0.24,0.35,0.37,0.52c0.32,0.46,1.11,0.64,1.61,0.68c0.73,0.06,1.62-0.1,2.28-0.42
			C62.56,12.93,63.87,11.88,63.06,10.72L63.06,10.72z"/>
	</g>
</g>
<g>
	<g>
		<path class="st1" d="M64.5,11.14c0-0.05,0-0.09,0-0.14c0,0.13-0.01,0.25-0.01,0.38c0.02-0.21,0.05-0.4,0.12-0.6
			c0.04-0.11,0.08-0.21,0.13-0.32c-0.06,0.14-0.11,0.18,0,0.03c0.13-0.17,0.25-0.35,0.39-0.51c0.06-0.07,0.13-0.14,0.2-0.21
			c0.18-0.2-0.31,0.29-0.02,0.03c0.76-0.7,1.52-1.41,2.29-2.11c1.57-1.43,3.15-2.84,4.75-4.23c-1.73,0.01-3.46,0.02-5.18,0.02
			c-1.23,2.37-2.39,4.89-1.97,7.63c0.04,0.25,0.37,0.46,0.57,0.55c0.47,0.21,1.03,0.2,1.53,0.16c0.53-0.04,1.03-0.15,1.53-0.31
			c0.52-0.17,1.17-0.41,1.57-0.81c1.05-1.04,1.87-2.13,2.5-3.48c0.19-0.4-0.25-0.81-0.56-0.93c-0.49-0.19-1.02-0.2-1.53-0.16
			c-1.3,0.1-2.55,0.57-3.48,1.51c-1.14,1.16-2.18,2.4-3.13,3.72c-0.56,0.78,0.09,1.35,0.88,1.47c1.17,0.17,2.56-0.12,3.57-0.74
			c0.77-0.47,1.53-1.09,1.77-2.01c0.28-1.09-1.46-1.14-2.09-1.1c-1.25,0.09-2.63,0.54-3.48,1.51c-0.22,0.25,0.09-0.04,0.08-0.07
			c0,0.03-0.48,0.38-0.08,0.08c0.42-0.32-0.36,0.16,0.21-0.13c0.14-0.08,0.28-0.14,0.44-0.18c0.29-0.09,0.32-0.1,0.1-0.04
			c-0.6,0.15-1.17,0.41-1.68,0.75c-0.31,0.21-0.79,0.56-0.86,0.96c-0.15,0.94,1.04,1.12,1.73,1.12c1.97-0.01,3.97-0.3,5.83-0.92
			c0.93-0.31,2.61-0.84,2.55-2.09c-0.13-2.62-0.36-5.24-0.69-7.85c-0.06-0.44-0.78-0.64-1.1-0.7c-0.67-0.12-1.51-0.02-2.15,0.17
			c-0.68,0.2-1.42,0.45-1.95,0.93c-0.34,0.31-0.66,0.65-0.6,1.15c0.33,2.61,0.56,5.22,0.69,7.85c0.85-0.7,1.7-1.39,2.55-2.09
			c-0.32,0.11-0.64,0.21-0.97,0.29c-0.16,0.04-0.33,0.07-0.49,0.12c0.9-0.24,0.33-0.07,0.12-0.03c-0.33,0.05-0.68,0.12-1.01,0.13
			c0.13-0.01,0.26-0.02,0.39-0.03c-0.08,0.01-0.17,0.01-0.25,0.01c-0.2,0.01-0.39,0.01-0.59,0.01c-0.27,0.94-0.54,1.89-0.81,2.83
			c1.5-0.39,2.88-1.12,3.9-2.29c-1.86,0.14-3.71,0.27-5.57,0.41c-0.03,0.11-0.18,0.42,0.02,0.07c-0.02,0.03-0.05,0.07-0.07,0.1
			c0.15-0.18,0.33-0.32,0.53-0.43c1.48,0.24,2.96,0.49,4.44,0.73c0.95-1.32,1.99-2.56,3.13-3.72c-1.86,0.14-3.71,0.27-5.57,0.41
			c0-0.01-0.19,0.4-0.1,0.21c0.1-0.19-0.09,0.17-0.12,0.2c-0.13,0.22-0.27,0.43-0.41,0.63c-0.13,0.19-0.27,0.37-0.41,0.54
			c-0.08,0.1-0.16,0.19-0.25,0.29c-0.08,0.09-0.42,0.43-0.04,0.05c1.73-0.13,3.46-0.27,5.19-0.4c-0.07-0.43-0.09-0.85-0.08-1.28
			c0,0.13-0.01,0.25-0.01,0.38c0.1-2.15,1.07-4.1,2.04-5.98c0.16-0.31-0.14-0.67-0.37-0.81c-0.39-0.24-0.9-0.32-1.35-0.31
			c-1.17,0.02-2.55,0.36-3.46,1.15c-1.73,1.51-3.44,3.04-5.14,4.59c-0.88,0.8-1.77,1.58-2.59,2.44c-0.41,0.43-0.72,0.88-0.99,1.4
			c-0.27,0.52-0.32,0.97-0.33,1.55c-0.01,0.43,0.84,0.65,1.1,0.7c0.67,0.12,1.51,0.02,2.15-0.17c0.68-0.2,1.42-0.45,1.95-0.93
			C64.27,11.95,64.49,11.66,64.5,11.14L64.5,11.14z"/>
	</g>
</g>
</svg>
