<?xml version="1.0" encoding="utf-8"?>
<!-- Generator: Adobe Illustrator 25.0.1, SVG Export Plug-In . SVG Version: 6.00 Build 0)  -->
<svg version="1.1" id="Layer_1" xmlns="http://www.w3.org/2000/svg" xmlns:xlink="http://www.w3.org/1999/xlink" x="0px" y="0px"
	 width="225.1px" height="282.6px" viewBox="0 0 225.1 282.6" style="enable-background:new 0 0 225.1 282.6;" xml:space="preserve"
	>
<style type="text/css">
	.st0{fill:#515050;}
</style>
<path class="st0" d="M158.7,224.9L158.7,224.9C158.7,224.8,158.7,224.9,158.7,224.9z"/>
<path class="st0" d="M149.3,221.6L149.3,221.6z"/>
<path class="st0" d="M164.1,227.1L164.1,227.1l0.4,0.2L164.1,227.1z"/>
<path class="st0" d="M128.6,217.2L128.6,217.2z"/>
<path class="st0" d="M140.9,219.5c-0.1,0-0.1,0-0.2,0C140.8,219.5,140.9,219.5,140.9,219.5z"/>
<path class="st0" d="M166.5,229.6l-0.1-0.1C166.4,229.4,166.4,229.5,166.5,229.6z"/>
<path class="st0" d="M172.1,231.7L172.1,231.7C172.1,231.7,172.1,231.7,172.1,231.7z"/>
<path class="st0" d="M170.1,230.4h-0.2C170,230.4,170.1,230.4,170.1,230.4z"/>
<path class="st0" d="M169.9,230.3L169.9,230.3C169.9,230.3,169.9,230.3,169.9,230.3z"/>
<path class="st0" d="M53.8,230.6c-0.1,0.1-0.3,0.2-0.4,0.3L53.8,230.6z"/>
<path class="st0" d="M109.4,216.3L109.4,216.3C109.4,216.3,109.4,216.3,109.4,216.3z"/>
<path class="st0" d="M54,231.4h-0.1C53.9,231.4,53.9,231.4,54,231.4z"/>
<path class="st0" d="M163.5,228.7c-0.2,0-0.5-0.2-0.5-0.1C163.1,228.6,163.3,228.8,163.5,228.7z"/>
<path class="st0" d="M105.5,219.9L105.5,219.9z"/>
<path class="st0" d="M54,231.4h0.1H54L54,231.4z"/>
<path class="st0" d="M89.4,218.2L89.4,218.2L89.4,218.2z"/>
<path class="st0" d="M88.4,218.3l0.2-0.1C88.5,218.2,88.4,218.3,88.4,218.3z"/>
<path class="st0" d="M53.4,230.9l-0.2,0.2C53.3,231,53.3,231,53.4,230.9z"/>
<path class="st0" d="M77.2,221h0.1C77.3,221,77.3,221,77.2,221z"/>
<path class="st0" d="M141.7,219.7L141.7,219.7C141.8,219.7,141.8,219.7,141.7,219.7z"/>
<polygon class="st0" points="133.6,220.7 133.6,220.7 133.6,220.7 "/>
<path class="st0" d="M134,220.7c-0.1,0-0.3,0-0.4,0.1C133.7,220.8,133.9,220.7,134,220.7z"/>
<path class="st0" d="M132.7,220.6L132.7,220.6z"/>
<polygon class="st0" points="140.9,222.2 140.9,222.2 140.9,222.2 "/>
<path class="st0" d="M139.2,221.9l-0.1-0.1C139.2,221.8,139.2,221.9,139.2,221.9z"/>
<polygon class="st0" points="128.6,220.3 128.6,220.2 128.6,220.2 "/>
<path class="st0" d="M141.1,222.3l-0.2-0.1c0,0,0,0.1-0.1,0.1L141.1,222.3z"/>
<path class="st0" d="M131.1,220.4L131.1,220.4C131.1,220.5,131.1,220.5,131.1,220.4z"/>
<path class="st0" d="M128.7,220.4c0.2,0,0-0.1-0.1-0.1C128.6,220.3,128.6,220.3,128.7,220.4z"/>
<path class="st0" d="M146.7,223.2L146.7,223.2C146.7,223.2,146.7,223.2,146.7,223.2z"/>
<path class="st0" d="M161.8,228L161.8,228L161.8,228z"/>
<path class="st0" d="M161.1,227.5l-0.2,0C161,227.5,161,227.5,161.1,227.5z"/>
<path class="st0" d="M143,222.3c-0.1,0-0.1,0-0.2,0C142.9,222.3,142.9,222.3,143,222.3z"/>
<path class="st0" d="M160.7,227.4l-0.2-0.1l0,0L160.7,227.4z"/>
<path class="st0" d="M162.1,228.2l-0.3-0.1C161.9,228.1,162,228.2,162.1,228.2z"/>
<path class="st0" d="M152.4,224.5L152.4,224.5z"/>
<polygon class="st0" points="159.7,227.3 159.7,227.3 159.6,227.3 "/>
<path class="st0" d="M163,228.6c0,0-0.1,0-0.1,0H163C163,228.6,163,228.6,163,228.6z"/>
<path class="st0" d="M155.5,225.8c0.1,0,0.1-0.1,0.1-0.1S155.5,225.7,155.5,225.8z"/>
<path class="st0" d="M91,174.8c-0.1-0.6-0.1-1.2,0-1.8c-1.7,1.3-3.4,2.4-5.2,3.5c-1.1,3.6-2.8,6.9-5,9.9c-0.2,0.2-0.2,0.6-0.1,0.8
	c0.1,0.3,0.4,0.4,0.8,0.4c3.7-0.3,9-1.6,10.9-3.7c-0.9-2.4-1.4-5.1-1.3-7.7C90.9,175.8,90.9,175.3,91,174.8z"/>
<path class="st0" d="M65.1,94.3c-0.3,0.5,0.3,1.9,0.9,2.8c1,1.7,2.8,2.8,4.7,3.2c1.1,0.1,2.2-0.1,3.3-0.6c-3.1-2.6-5.7-5-6.9-6
	C65.7,93.8,65.2,94.1,65.1,94.3z"/>
<path class="st0" d="M108,197.7c0-0.2,0-0.4,0-0.6s0-0.4,0-0.6s0-0.5,0-0.7s0-0.4,0-0.6v-0.7c0-0.2,0-0.4,0-0.6V193l-0.1-0.7
	c0-0.2,0-0.5-0.1-0.7s-0.1-0.5-0.1-0.8s-0.1-0.5-0.1-0.7s-0.1-0.6-0.2-0.9s-0.1-0.4-0.1-0.6c-0.1-0.5-0.3-1-0.4-1.5
	c-2.5-1.2-4.5-3.1-5.8-5.6c-1.1,0.8-2.1,1.7-2.8,2.9c-0.6,1-0.4,2.3,0.6,2.9c0,0,0.1,0,0.1,0.1l1.8,1c1,0.9,4.1,3.5,7.1,9.4
	C108,197.8,108,197.7,108,197.7z"/>
<path class="st0" d="M67.1,130.9c0-1-0.1-2.1-0.3-3.1c-1.3,3.5-6.2,4.8-6.2,4.8c4.2-3,4-8.5,3.8-10.3c-1.1-1.6-2.5-2.9-4.1-4.1
	c1.2,4.5,0.6,8.1-1.7,11l-0.1,0.1c-2.2,2.5-4,5.8-3.5,6.7c0.1,0.2,1,0.7,3.8,0.4c2.8-0.7,5.6-1.9,8.1-3.3
	C67,132.4,67,131.7,67.1,130.9z"/>
<path class="st0" d="M97.3,141.4c-0.3-0.7-0.7-1.4-1.1-2.1c1.5,14.7-14.1,23.1-14.1,23.1c15.5-13.4,8.6-29.8,6.9-33.3
	c-0.2-0.3-0.3-0.5-0.3-0.5l-0.1-0.3c-0.5-1.2-0.8-2.5-1.1-3.7l0,0l-0.1-0.6c-0.7-2.4-0.8-5-0.4-7.4c0.1-5.6,2.8-10.9,7.3-14.2
	c-1.5,2.3-2.8,4.8-3.7,7.3c1.4-1.5,3-2.7,4.9-3.5l0.2-0.1l0.4-0.1h0.1c0.2-0.1,0.4-0.2,0.6-0.3l0,0l0.6-0.2h0.1l0.4-0.1h0.1l0.2-0.1
	l0,0c1.1-0.5,2.2-1,3.4-1.7c0.3-0.1,0.5-0.3,0.8-0.5l0.2-0.1l0.6-0.4c0.2-0.1,0.4-0.3,0.6-0.4l0.3-0.2l0.9-0.6l0.2-0.1l1-0.7
	l0.2-0.1l0.9-0.6l0.3-0.2l0.6-0.4c2.5-1.8,4.7-3.5,5.5-4.1l0.3-0.3l0.5-0.5L115,94c2.7-2.5,3.2-4.3,3.3-5c-0.1-0.1-0.2-0.1-0.3-0.1
	c-0.1,0-0.1,0-0.2,0.1l0,0c-0.2,0.1-0.4,0.3-0.6,0.4l0,0l0,0c-0.4,0.4-0.8,0.8-1.1,1.2l-0.2,0.2c-0.3,0.3-0.7,0.6-1,0.9l-0.3,0.3
	c-0.4,0.3-0.8,0.6-1.2,0.9l-0.3,0.2l-0.5,0.3l0,0l-0.7,0.4l-0.1,0.1l-3.7,1.6l-1.1,0.4l-0.5,0.1c-0.4,0.1-0.7,0.2-1.1,0.3l-0.5,0.1
	l-1.1,0.2l-0.5,0.1c-0.4,0.1-0.8,0.1-1.1,0.1h-0.5c-0.4,0-0.8,0.1-1.1,0.1H100h-0.6h-1c-4.5,0-9-0.8-13.2-2.2c-2.5-1-4.9-2.4-7-4.1
	l-0.1-0.1c-0.5-0.4-1-0.9-1.4-1.3c-2.7-3-4.8-6.5-5.9-10.4c-0.2-0.5-0.3-1-0.4-1.5s-0.2-1-0.3-1.4c-0.2-1.2-0.4-2.4-0.5-3.6
	C69,66.3,70,59.1,73,57.2c1-0.6,2.3-0.6,3.3,0c6.5,4,14.2,2.4,14.3,2.4c1.1-0.2,2.1-0.4,3.2-0.8l0,0c0.4-0.1,0.9-0.3,1.3-0.5
	l0.2-0.1c0.3-0.1,0.5-0.3,0.8-0.4s0.4-0.2,0.5-0.3l0.4-0.2c0.3-0.2,0.5-0.3,0.7-0.5l0.1-0.1c0.9-0.7,1.6-1.7,2.1-2.7
	c1.6-3.6,0.5-8.2-0.8-11.6c-0.8,1.7-2.1,3.2-3.7,4.3c-2.6,1.8-5.8,2.5-9,2.1c-4.9-0.8-9.9-0.7-14.8,0.3c-4.8,4.9-9.8,14.9-5,34.7
	c0,0-12.1-15.8-9-29.1c-14.7,8.6-17,26.1-17.1,26.3c-3.3,22.6,11.2,28.4,12,28.7c19.9,5.6,18.8,20.8,18.8,20.9
	c-1,15.6-9.6,22-16.6,24.7c-0.6,0.2-1,0.8-1,1.4c0,0.6,0.3,1.2,0.8,1.4c4.7,2.6,10.5,2.5,15.2-0.2c2.7-2.8,7.1-10.3,3.8-27
	c0,0,6.3,18.9,1.4,29c-2.4,5.4-9.7,11.9-11.7,13.7c1.2,0.8,6.1,1.3,10.8,0.9c9.3-1.1,12.5-4.3,15.9-7.7c0.6-0.6,1.1-1.1,1.7-1.7
	l3.5-3.9C100.4,154.6,99.5,147.1,97.3,141.4z M78.7,101.5c-2.1,1.8-4.7,2.8-7.5,2.9c-0.3,0-0.7,0-1,0c-2.9-0.3-5.4-1.9-7.5-4.8
	c-0.3-0.4-2.7-4-1.2-7c0.9-1.7,2.6-2.6,5.3-2.8l0,0h3.8C79.5,99.8,86.3,102,86.3,102c-2.3,0.1-4.6-0.3-6.7-1.4L78.7,101.5z"/>
<path class="st0" d="M21.6,36.5c-5.1,0-9.3,4.1-9.3,9.3s4.1,9.2,9.3,9.2s9.3-4.1,9.3-9.2C30.8,40.6,26.7,36.5,21.6,36.5z"/>
<path class="st0" d="M78.6,21.1c3.6,2.1,8.2,0.9,10.3-2.6c2.1-3.6,0.9-8.2-2.6-10.3c-1.2-0.7-2.5-1-3.8-1c-0.6,0-1.3,0.1-1.9,0.2
	c-4,1-6.4,5.1-5.4,9.1C75.6,18.5,76.8,20.1,78.6,21.1L78.6,21.1z"/>
<path class="st0" d="M88.9,63.9C84,64.4,79,63.4,74.7,61c-0.9,1.6-2,6.7-1,12.9c0.8,4.8,3.5,13.5,12.8,17h0.1l0,0l0.1,0l0,0l0.2,0.1
	l0,0c0.4,0.1,1,0.3,1.9,0.5l0,0l0.6,0.1l0,0c4.3,1,12.5,2.2,19.3-1.1c0,0,0-0.1,0-0.1c0,0,0-0.1,0-0.1c0.1-1.2,0-2.4-0.1-3.6
	c0-0.3-0.1-0.6-0.1-0.9c-2.2,0.2-4.3,0.3-6.5,0.3c2.2-1.3,4.4-2.7,6.5-4.2c0-0.1,0-0.3-0.1-0.4v-0.1c-0.2-1-0.6-4.5-0.7-5.1v-0.1
	v-0.1c0-1.1-0.3-1.8-0.9-1.9h-0.2l0,0c-2.3-0.4-4.5-1.2-6.5-2.4c-0.2-0.1-0.3-0.2-0.5-0.3l-0.2-0.1L99.1,71l-0.2-0.2l-0.3-0.3
	l-0.2-0.2L98.1,70l-0.2-0.2l-0.3-0.4c-0.1-0.1-0.1-0.1-0.2-0.2s-0.3-0.4-0.4-0.5l-0.1-0.2L96.4,68l-0.2-0.3l-0.3-0.4L95.7,67
	l-0.3-0.4l-0.2-0.3l-0.3-0.4l-0.2-0.3l-0.3-0.5l-0.1-0.2l-0.4-0.7v-0.1l-0.4-0.6c0-0.1-0.1-0.2-0.1-0.2l-0.2-0.3
	c-0.7,0.2-1.4,0.3-2.1,0.5c-0.1,0-0.5,0.1-1.3,0.2c-0.1,0.2-0.2,0.4-0.2,0.6c0.3,0.3,0.5,0.6,0.7,1c0,0,4.1,6.7,3.9,8.1l-0.1,0.1
	c1.3,0,2.6,0.3,3.8,1c0,0-7.3,0.6-8.2,1.1c-0.6-0.3-0.8-1.1-0.5-1.6c0,0,0-0.1,0.1-0.1c0,0,0.8-0.1,1.9-0.2
	c-0.9-1.8-1.7-3.6-2.3-5.5c-0.1,0.8-0.1,1.6,0,2.4c-0.6,1.2-2.1,1.6-3.2,1c-0.1,0-0.2-0.1-0.2-0.1c0.5-0.6,0.8-1.3,1-2.1
	C86.9,67.3,87.7,65.5,88.9,63.9z"/>
<path class="st0" d="M99.7,60.2c-0.8,0.6-1.6,1.1-2.5,1.6l0.1,0.1c0.2,0.4,0.4,0.7,0.6,1.1L98,63c0.2,0.4,0.4,0.7,0.6,1l0.1,0.1
	l0.6,0.9l0.1,0.2l0.1,0.1c2.2,0.5,6.3,0.9,11.9-1.3c-2.3,2.8-5.8,4.3-9.4,4.1c0.1,0.1,0.2,0.2,0.3,0.2l0,0c0.7,0.4,1.5,0.8,2.3,1.1
	c0.9,0.4,1.8,0.6,2.8,0.8c1.9,0.1,4.5,1.8,4.5,5.8c0.2,1.5,0.5,3.9,0.6,4.6c0.3,1.1,0.3,2.2-0.1,3.2c0,0.2,0.1,0.4,0.1,0.6v0.1
	c0,0.2,0.1,0.5,0.1,0.8c0,0,0,0.1,0,0.1c0,0.3,0.1,0.6,0.1,0.9c0,0,0,0.1,0,0.1c0,0.3,0.1,0.6,0.1,1c0,0,0,0.1,0,0.1v0.3l0.1-0.1
	c0.4-0.4,0.8-0.8,1.2-1.2c0.1-0.1,0.2-0.3,0.4-0.4l0.1,0l0.2-0.2l0.2-0.1c0,0,0.1,0,0.1-0.1c0.5-2.7,1.5-5.2,3-7.6
	c1.1-1.7,1.9-3.5,2.5-5.4c-0.5,0-1.1,0-1.6-0.2l-0.5-0.1c-1.3,1.4-2.7,2.6-4.3,3.6l-0.1,0.1l0.1-0.1c0.5-0.4,2.2-1.9,3.2-5.6
	c-0.2-1.7-0.5-8,2.1-11.4c0.8-1.2,1.9-2,3.2-2.5c0.3-0.1,0.5-0.3,0.6-0.6v0c-1.5-0.2-3,0.3-4.1,1.4c-3.7,3.4-8.7,4.9-13.7,4.3
	c-2-0.2-3.9-0.8-5.7-1.8L99.7,60.2z"/>
<path class="st0" d="M125.9,107.9c-0.2,0.4-0.4,0.8-0.5,1.2c-0.3,0.7-0.7,1.4-1,2c-0.6,1.5-1.4,2.9-2.4,4.2l-0.2,0.1l0,0l0.6,0.3
	c0.1,0,0.1,0.1,0.2,0.1l0.8,0.4l0.5,0.3h0.1c5.6-7.5,11-23.7,13-30.9l-0.4-0.1C133.1,92.5,126.2,107.3,125.9,107.9z"/>
<path class="st0" d="M124.4,121.4l-0.4-0.2c-1-0.4-2.3-1.1-3.6-1.8c-0.6-0.4-1.1-0.6-1.5-0.9c-3.9,4.3-10.1,12.7-11.4,22.6
	c-0.2-9.2,2.7-18.2,8.1-25.7c0,0,2.2-2.4,4.7-5.3c0.1-0.1,0.2-0.3,0.3-0.4l0.1-0.1l0.4-0.7l0,0c0.1-0.2,0.3-0.5,0.4-0.7l0-0.1
	c0.1-0.2,0.3-0.5,0.4-0.8l0-0.1c0.1-0.3,0.3-0.6,0.4-0.9c0.3-0.7,6.6-14.6,10.2-21.6c-0.3,0-0.5-0.1-0.8-0.1
	c-0.8-0.2-1.6-0.6-2.3-1.1c-3.4,4.8-7.3,9.3-11.6,13.3l0,0l0,0l-1.2,1.1l0,0l-0.3,0.2l-0.1,0.1l0,0c-1.5,1.2-5.9,4.5-10.1,7.2
	l-0.4,0.3l-0.5,0.4l-0.9,0.5l-0.2,0.1l-0.3,0.2l-0.1,0.1c-1.2,0.7-2.5,1.4-3.8,1.9l0,0l-0.1,0h-0.1c-0.3,0.1-0.6,0.2-0.8,0.3l0,0
	c-2.7,1-5,2.9-6.4,5.5c-1.2,2.6-1.5,5.5-0.8,8.3c1,2.2,2.2,4.3,3.6,6.3c2.7,3.3,4.8,7.1,6.3,11.1c0.2,0.6,0.4,1.2,0.6,1.7
	c1.2,3.2,1.6,6.6,1.3,10l0.1-0.1c0,0,10.5-7.1,17.1-14c-4.5,6-9.4,11.6-14.6,17c-4.1,3.9-7.3,8.6-9.7,13.7c-1,3.2-1.8,5.6-0.8,13
	c2.2-3.6,6.1-8.4,16.9-9.9c8.6-1.2,18.2-2.3,20-3.7c0-0.1,2.5-8.6-2.1-23.1c-2.5,3.2-7.5,5.9-7.5,5.9c4.9-4,6-7.7,6-10.4
	c-0.7-1.9-1.6-3.9-2.5-5.9l-0.6-1.4l1.1-1c1.7-1.7,2.5-4.1,2.1-6.5v-0.3C128.7,125.5,128.3,123.4,124.4,121.4z"/>
<path class="st0" d="M147.3,75.1l0.1-0.1c0.3-0.4,0.6-0.9,0.9-1.4c0.2-0.4,0.4-0.9,0.5-1.4c-2.3,0.4-4.6,1-6.4,1.4l0,0l-0.8,0.2
	l-2.1,0.5l-2.4,0.6l-0.1-2.5c0-0.2-0.1-0.5-0.2-0.7c-1.2,1-2.1,2.2-2.9,3.6c-0.4,1.1-0.8,2.2-1.4,3.3c0.6,1,1.6,1.6,2.7,2l0.9,0.1
	l0,0c1.5-0.3,2.9-0.7,4.2-1.3l0.7-0.3h0.1c1.8-0.8,3.4-1.7,5.1-2.7c0.2-0.2,0.4-0.4,0.6-0.6l0.1-0.1C147,75.4,147.2,75.3,147.3,75.1
	z"/>
<path class="st0" d="M151.2,76.6l-0.1,0.1c-0.1,0.2-0.2,0.4-0.4,0.5l-0.2,0.3c-0.1,0.2-0.3,0.4-0.5,0.5l-0.2,0.2
	c-0.1,0.2-0.3,0.3-0.5,0.5l-0.2,0.2c-0.2,0.2-0.5,0.4-0.7,0.6l-0.1,0.1c-0.2,0.1-0.8,0.5-1.6,1c1.2-0.4,2.3-0.8,3.2-1.1
	c1.8-1,2-2,1.9-2.6C151.6,76.8,151.4,76.7,151.2,76.6z"/>
<path class="st0" d="M120,233.4c-0.1-0.1-0.3-0.3-0.4-0.4l-0.1-0.1c-0.1-0.1-0.3-0.3-0.4-0.4l-0.1-0.1l-0.5-0.4l0,0
	c-0.4-0.3-0.9-0.6-1.3-0.8l-0.2-0.1c-3.7-2.1-3.8-5.4-3.3-6.8l4-11.7c-3-0.7-5.7-2-8.1-3.9l-0.5,1.8l-4.1,14.6c-1.6,5-1,7.3-0.4,8.2
	c0.2,0.4,0.6,0.8,1.1,1c8.3,0.5,12.8,0.1,15-0.3c-0.1-0.2-0.2-0.4-0.4-0.5L120,233.4z"/>
<path class="st0" d="M105.9,177.1c-0.7,0.4-1.3,0.9-1.9,1.4c0.4,0.9,0.9,1.7,1.5,2.4l0.1,0c0,0.1,0.1,0.1,0.1,0.2
	c1,1,2.2,1.9,3.4,2.6c1.7,0.7,3.5,0.9,5.3,0.6c-0.8,1.2-1.9,2.2-3.3,2.7v0.1c0.1,0.4,0.2,0.7,0.3,1l0.1,0.6c0.1,0.3,0.1,0.6,0.2,1
	l0.1,0.6c0,0.3,0.1,0.6,0.1,0.9l0.1,0.6c0,0.3,0.1,0.6,0.1,0.9s0,0.4,0,0.6s0,0.6,0,0.9v0.5c0,0.3,0,0.6,0,0.9s0,0.3,0,0.5
	c0,0.3,0,0.6,0,0.9v0.4c0,0.3,0,0.6-0.1,1v0.3c0,0.4-0.1,0.7-0.1,1c0,0,0,0.1,0,0.1c-0.2,1.5-0.5,3-0.9,4.5c2.4,2.3,5.4,3.9,8.7,4.5
	c4.9-9.4,9.8-26.9,12.1-36.1c-3.1,0.6-8.6,1.3-18.4,2.3C110.8,175.3,108.3,176,105.9,177.1z"/>
<path class="st0" d="M118.6,222.4l-1.1,3.2c0,0,0,0,0,0.1l0,0c0,0.1,0,0.2,0,0.4v0.1c0,0.1,0,0.1,0.1,0.2c0,0.1,0.1,0.1,0.1,0.2
	c0,0,0,0.1,0.1,0.1c0.3,0.4,0.7,0.8,1.1,1c1.6,0.8,3,1.8,4.1,3.1l0.1,0.1c0.1,0.1,0.3,0.3,0.4,0.5s0.2,0.3,0.4,0.5
	c0.1,0.1,0.1,0.2,0.2,0.2c1.1,0,2.3-0.1,3.4-0.3c-0.4-1.8-1.7-3.4-3.4-4.2C121.7,226.5,119.7,224.6,118.6,222.4z"/>
<path class="st0" d="M114.3,76.2l-0.1,0.1L114.3,76.2z"/>
<polygon class="st0" points="157.7,22 173.7,19.9 157.7,17.7 163.4,10.3 156,16 153.8,0 151.7,16 144.3,10.3 150,17.7 134,19.9 
	150,22 144.3,29.4 151.7,23.7 153.8,39.7 156,23.7 163.4,29.4 "/>
<path class="st0" d="M0,278.5c0-0.4,0.1-0.8,0.2-1.1c0.2-0.3,0.3-0.7,0.4-1.1c0.1-0.2,0.1-0.5,0.3-0.9c0.1-0.4,0.2-0.8,0.3-1.1
	c0.1-0.4,0.2-0.9,0.3-1.4v-0.1c0.1-0.3,0.2-0.8,0.4-1.6s0.4-1.6,0.6-2.4s0.4-1.7,0.6-2.4c0.2-0.8,0.3-1.3,0.4-1.6s0.1-0.6,0.2-1.2
	c0.1-0.7,0.2-1.4,0.3-2.2c0.1-0.8,0.2-1.5,0.4-2.1c0.1-0.7,0.2-1.1,0.3-1.2c0-0.2,0.1-0.4,0.1-0.7c0.1-0.3,0.1-0.6,0.2-1
	c0.1-0.3,0.2-0.6,0.2-0.8c0-0.1,0.1-0.3,0.1-0.4l0.1-0.2c0.2-0.6,0.4-1.2,0.6-1.6l0.4-1.4c0.1-0.5,0.3-0.8,0.4-1.1
	c0.1-0.3,0.3-0.6,0.5-0.9c0.3-0.2,0.6-0.4,0.9-0.4c0.2,0,0.3-0.1,0.4-0.2c0.1-0.1,0.3-0.2,0.5-0.2h0.1c0.4,0,0.8,0.1,1.1,0.3
	c0.3,0.2,0.5,0.4,0.6,0.7c0.1,0.3,0.2,0.7,0.3,1c0,0.4,0,0.7,0,1.1c0,0.5,0,1.1,0,1.7c0,0.6,0,1.1-0.1,1.7c0,0,0,0.1,0,0.3
	s-0.1,0.3-0.1,0.5c0,0.2-0.1,0.3-0.1,0.5c0,0.2,0,0.3,0,0.3l0,0c0,1.6,0.1,3.2,0.2,4.8c0.1,1.5,0.3,3.1,0.5,4.7
	c0,0.2,0.1,0.4,0.1,0.6s0.1,0.5,0.1,0.6c0.1,0.2,0.2,0.4,0.3,0.5c0.1,0.2,0.2,0.4,0.2,0.6c0,0.2-0.1,0.4-0.2,0.6
	c-0.2,0.1-0.3,0.4-0.3,0.6v0.4c0,0.3,0.1,0.8,0.1,1.3c0,0.6,0.1,1.2,0.1,1.8s0.1,1.2,0.1,1.7s0,0.8,0,0.9c0,0.1,0,0.2,0,0.4
	c0,0.2,0,0.4,0.1,0.6c0,0.2,0.1,0.4,0.1,0.6s0,0.3,0,0.3c0,0.1,0,0.2,0,0.2v0.3c0,0.3-0.1,0.6-0.3,0.9c-0.1,0.3-0.4,0.5-0.8,0.5
	c-0.3,0-0.5-0.1-0.7-0.3c-0.2-0.1-0.4-0.3-0.6-0.5c-0.1-0.1-0.4-0.5-0.7-1l-0.7-6.9l-0.1-0.1H8.2l-0.3,0.1l-0.2,0.1
	c0,0,0,0.1-0.1,0.1l-0.4,0.3c-0.2,0.1-0.4,0.2-0.5,0.3l-0.6,0.4H5.1c-0.1-0.1-0.2-0.1-0.3-0.2c-0.1,0-0.2-0.1-0.2-0.1
	c-0.1,0-0.2,0.2-0.3,0.6s-0.2,0.9-0.3,1.4s-0.2,1.2-0.4,1.8c-0.1,0.6-0.3,1.2-0.5,1.9c-0.2,0.5-0.4,1-0.8,1.4
	c-0.2,0.3-0.6,0.5-1,0.6c-0.2,0-0.3-0.1-0.5-0.2c-0.2-0.1-0.3-0.2-0.5-0.4c-0.1-0.1-0.2-0.3-0.3-0.5C0,278.7,0,278.6,0,278.5z
	 M5.8,266.9c-0.2,0.4-0.3,0.9-0.4,1.4c-0.1,0.5-0.1,0.9-0.1,1.4c0.3,0,0.6-0.1,0.9-0.3l0.9-0.5c0.1,0,0.2-0.1,0.3-0.1l0.4-0.2
	l0.4-0.2l0.2-0.1c0-0.1,0-0.2,0-0.3v-0.3c0-0.8,0-1.6-0.1-2.4c-0.1-0.8-0.2-1.6-0.2-2.4c0-0.2,0-0.6,0-1.2s0-1.2-0.1-1.8
	s-0.1-1.2-0.1-1.8c0-0.6,0-1,0-1.2c-0.1,0.1-0.2,0.2-0.2,0.4c0,0.1-0.1,0.2-0.1,0.3c0,0.2-0.1,0.3-0.1,0.5s-0.1,0.3-0.1,0.5
	c0,0.1,0,0.2,0,0.3c0,0,0,0.1,0,0.3s0,0.3,0,0.5s0,0.4-0.1,0.6s-0.1,0.3-0.1,0.4v0.1L5.8,266.9z"/>
<path class="st0" d="M15.8,278.3c0-0.3,0-0.6,0.1-0.9c0.1-0.3,0.2-0.6,0.2-0.9c0.1-0.5,0.2-1,0.3-1.6c0.1-0.5,0.1-1,0.1-1.6
	c0-1.3,0-2.5-0.1-3.7s-0.1-2.5-0.2-3.8c0,0,0-0.2,0-0.4c0-0.1,0-0.2-0.1-0.4c0-0.9-0.1-1.7-0.1-2.5c0-0.8,0-1.5,0-2.3v-9.6
	c0.1-0.1,0.1-0.2,0.2-0.3c0.1-0.1,0.2-0.3,0.3-0.4c0.1-0.1,0.2-0.2,0.3-0.3c0.1-0.1,0.1-0.1,0.2-0.1c0.3,0,0.5,0.1,0.6,0.3
	c0,0.2,0.1,0.4,0.3,0.6c0,0,0,0,0.1,0.1l0.1,0.1l0.3,0.3c0.1,0.1,0.2,0.3,0.3,0.4c0,0.1,0,0.2,0,0.3c0,0.1,0.1,0.3,0.1,0.4
	c0,0.1,0,0.3,0,0.4s0,0.2,0,0.3c0,0.4,0,1,0,2s0,1.9,0,3s0,2,0,3s0,1.6,0,2c0,1.8,0.1,3.5,0.3,5.1s0.2,3.4,0.2,5.2
	c0,0.7,0,1.4-0.1,2.1s-0.1,1.4-0.1,2.1v0.2c0,0.1,0,0.1,0.1,0.2c0.3,0,0.7,0.1,1,0.1s0.7,0,1.1,0h1.2c0.4,0,0.7,0,1,0
	s0.4,0.1,0.5,0.2l0.1,0.4c0,0.1,0.1,0.3,0.3,0.6h0.1c0,0.1,0,0.3,0,0.4c0,0.2-0.1,0.4-0.1,0.5c-0.1,0.2-0.1,0.3-0.2,0.5
	c-0.1,0.1-0.2,0.2-0.4,0.2h-4.8c-0.4,0-0.7,0-1.1-0.1c-0.4-0.1-0.7-0.2-1.1-0.4c-0.3-0.2-0.6-0.4-0.8-0.7
	C15.9,279.1,15.8,278.7,15.8,278.3z"/>
<path class="st0" d="M35.8,282.4c-0.8-0.1-1.5-0.5-2.1-1c0-0.1,0-0.2,0-0.3c0,0-0.1-0.1-0.1-0.1l-0.1-0.1c0-0.1-0.1-0.1-0.1-0.2
	c0-0.4,0.2-0.7,0.6-0.8c0.4-0.1,0.8-0.2,1.1-0.2h0.6l0.2,0.1c0.1,0,0.2,0.1,0.3,0.1c0.1,0,0.2-0.1,0.2-0.2c0-0.1,0.1-0.2,0.1-0.4
	c0-0.1,0-0.3,0-0.4v-0.3c0-0.1,0.1-0.2,0.1-0.4c0-0.2,0.1-0.4,0.1-0.6s0-0.4,0-0.6s0-0.3,0-0.3c0-0.1,0-0.1,0-0.2c0-0.1,0-0.1,0-0.2
	c0-0.2,0.1-0.6,0.2-1.2c0.1-0.6,0.2-1.2,0.3-1.8s0.2-1.2,0.3-1.8c0.1-0.6,0.1-1,0.2-1.2c0,0,0-0.2,0-0.3s0-0.4,0.1-0.6
	c0.1-0.2,0-0.4,0-0.6s0-0.3,0-0.4c0-0.1,0-0.2,0-0.3c0-0.1,0-0.2,0.1-0.3l0.7-6.2c-0.1-0.9,0-1.7,0.1-2.6c0.1-0.9,0.2-1.7,0.2-2.6
	c0-0.1,0-0.4,0-0.7c0-0.4-0.1-0.7-0.1-1.1c-0.1-0.3-0.2-0.7-0.3-1c-0.1-0.3-0.3-0.4-0.5-0.4c-0.1,0-0.2,0-0.2,0.1h-0.4h-0.4
	c-0.3,0-0.5,0-0.8-0.1c-0.3-0.1-0.5-0.1-0.8-0.3c-0.2-0.1-0.4-0.3-0.6-0.5c-0.2-0.2-0.3-0.5-0.3-0.8c0-0.1,0-0.3,0.1-0.4
	c0.1-0.1,0.2-0.1,0.3-0.2c0.1,0,0.2-0.1,0.3-0.1c0.1,0,0.2-0.1,0.2-0.2c0.6-0.1,1.1-0.1,1.7-0.1c0.6,0,1.1,0,1.7,0
	c0.3-0.2,0.6-0.3,0.9-0.2c0.1,0,0.2,0,0.2,0.1s0.1,0.1,0.2,0.1c0.3,0,0.5-0.1,0.8-0.2c0.3-0.1,0.5-0.2,0.8-0.2c0.2,0,0.5,0,0.7,0.1
	c0.1,0.1,0.1,0.2,0.2,0.3c0,0.1,0,0.2,0,0.3c0,0.1,0,0.1,0.1,0.1c0-0.1,0.1-0.1,0.1-0.1h0.2c0.3,0,0.5,0.1,0.6,0.3
	c0.1,0.2,0.2,0.5,0.2,0.7c0,0.2-0.1,0.4-0.2,0.6c-0.1,0.1-0.3,0.2-0.5,0.3c-0.2,0.1-0.4,0.1-0.7,0.1c-0.3,0-0.5,0-0.8,0
	c-0.3,0-0.6,0-0.9,0.1v0.1c0,0.3,0.1,0.7,0.3,0.9c0.2,0.3,0.3,0.6,0.3,1v9.5c0,0.1,0,0.4-0.1,0.7c0,0.3-0.1,0.7-0.1,1.1
	c0,0.4-0.1,0.7-0.1,1.1S41,268,41,268.2c-0.1,1-0.2,1.9-0.4,2.8s-0.3,1.9-0.5,2.8c-0.1,0.9-0.3,1.9-0.4,2.8
	c-0.1,0.9-0.2,1.9-0.1,2.9l0,0c0.1,0.1,0.1,0.1,0.2,0.2c0.1,0,0.1,0.1,0.2,0.1h1.5c0.1,0.1,0.2,0.1,0.3,0.2c0.1,0.2,0.3,0.3,0.4,0.4
	c0.1,0.1,0.2,0.2,0.2,0.4c0.1,0.1,0.1,0.3,0.3,0.4v0.8c-0.1,0-0.2,0.1-0.2,0.2c-0.1,0.1-0.2,0.2-0.3,0.2c-0.1,0.1-0.3,0.1-0.4,0.1
	c-0.2,0-0.3,0.1-0.5,0.1h-0.1c-0.1,0-0.2,0-0.3,0l-0.4-0.1l-0.4-0.1h-0.2h-1.2l-1.1-0.1l-1.1,0L35.8,282.4z"/>
<path class="st0" d="M51,277.7v-0.3c0.6-2.3,1-4.7,1.3-7.1c0.2-2.3,0.5-4.7,0.7-7.1v-12c0,0,0.1-0.1,0.1-0.1c0,0,0-0.1,0.1-0.1
	c0.2-0.4,0.6-0.7,1.1-0.8c0.7-0.3,1.3-0.5,2-0.6c0.7-0.2,1.4-0.3,2.1-0.4c0.5-0.1,0.9-0.1,1.4-0.1c0.4,0,0.9,0.1,1.2,0.4
	c0.3,0.3,0.5,0.7,0.5,1.2c0,0.3,0,0.6-0.2,0.9c-0.1,0.2-0.3,0.4-0.5,0.5c-0.2,0.1-0.5,0.2-0.7,0.2c-0.3,0-0.6,0.1-0.9,0.1
	c-0.4,0.1-0.8,0.2-1.2,0.3c-0.4,0.1-0.8,0.2-1.2,0.3c-0.2,0-0.5,0.1-1.1,0.2l-0.1,0.5c0.1,1.6,0.2,3.2,0.3,4.9s0.1,3.3,0.1,4.9
	c0,0,0.1,0.1,0.3,0.2c0.1,0,0.2,0.1,0.3,0.1c0.1,0,0.3,0,0.4,0c0.2,0,0.3,0,0.5-0.1c0.2,0,0.3-0.1,0.5-0.1c0.2-0.1,0.3-0.1,0.5-0.1
	c0.2,0,0.4,0,0.6,0.2c0.4,0.3,0.8,0.7,1,1.2c0.1,0.2,0.1,0.4,0.1,0.6c0,0.1,0,0.2-0.1,0.2c-0.1,0.1-0.1,0.2-0.2,0.3l-0.3,0.3
	c-0.1,0.1-0.1,0.1-0.2,0.1c-0.6,0.1-1.2,0.2-1.8,0.3c-0.6,0.1-1.2,0.1-1.8,0.2c-0.1,0.3-0.2,0.6-0.3,0.9c0,0.3,0,0.6,0,1l-1,7.7v0.4
	c0.7,0,1.3,0,2-0.1c0.6,0,1.3,0,2,0c0.2,0,0.5,0,0.7,0.1c0.3,0,0.5,0.1,0.7,0.3c0.2,0.1,0.4,0.3,0.6,0.5c0.2,0.2,0.3,0.5,0.2,0.7
	c0,0.5-0.2,0.9-0.7,1.1c-0.4,0.2-0.9,0.3-1.3,0.3h-0.7H57h-1.1h-0.7c-0.2,0.1-0.4,0.1-0.5,0.1h-0.5c-0.3,0-0.7,0-1,0
	c-0.3,0-0.7-0.1-1-0.2c-0.3-0.1-0.6-0.3-0.8-0.5C51.1,278.3,51,278,51,277.7z"/>
<path class="st0" d="M70.5,280.4c0-0.5,0-1.1,0.1-1.6c0.1-0.6,0.1-1.1,0.1-1.7c0-1.5-0.1-3-0.3-4.5c-0.2-1.5-0.4-2.9-0.6-4.4v-0.4
	c-0.2-0.9-0.3-1.8-0.4-2.6c-0.1-0.9-0.1-1.8-0.1-2.7c-0.1-0.1-0.1-0.1-0.1-0.2c-0.2-1.1-0.3-2.2-0.3-3.3c0-1.1,0-2.2,0-3.3
	c0-0.1,0-0.3,0-0.5s0-0.6-0.1-0.9s-0.1-0.6-0.1-1s0-0.5,0-0.7c0-0.1-0.1-0.2-0.1-0.4c0-0.1,0-0.2,0-0.4v-0.2c0-0.1,0-0.2,0.1-0.3
	c0-0.1,0.1-0.2,0.2-0.1c0.1,0,0.2,0,0.3,0.1c0.1,0,0.2,0.1,0.3,0c0,0,0-0.1,0-0.1c0,0,0-0.1,0-0.1c0,0-0.1-0.1-0.1-0.1
	c0,0,0-0.1,0-0.1c0.1-0.1,0.1-0.1,0.1-0.1l0,0c0.1,0,0.2,0,0.2,0.1l0.1,0.2c0,0.1,0.1,0.2,0.2,0.3c0.1,0.1,0.2,0.2,0.4,0.2l0.2-0.1
	c0.1,0,0.1-0.1,0.2-0.1H71h0.2c0.1,0,0.2,0,0.2,0.2c0.3,0.8,0.7,1.6,1.1,2.5s0.9,1.8,1.3,2.5l5.1,11.7l0.2,0.4
	c0.1,0.3,0.3,0.5,0.4,0.8l0.5,1c0.2,0.3,0.3,0.6,0.4,0.7l0.1,0.2l0.2,0.2l0.1-0.8c0-0.2,0-0.5,0.1-0.8c0-0.5,0-1.2,0-2.3
	c0-1.1,0-2.3,0.1-3.5s0.1-2.4,0.1-3.5c0-1.1,0-1.9,0-2.3v-0.7c0-1,0-1.9-0.1-2.8s-0.1-1.9-0.1-2.9v-0.7c0.1-0.2,0.2-0.3,0.3-0.5
	c0.1-0.2,0.2-0.3,0.4-0.3c0.2,0,0.4,0.1,0.5,0.2c0.1,0.1,0.2,0.3,0.2,0.5c0.2,0,0.3-0.1,0.4-0.1c0.2-0.1,0.3-0.2,0.3-0.3
	c0.1,0.1,0.2,0.3,0.4,0.3c0.2,0.1,0.3,0.2,0.5,0.3c0.2,0.2,0.3,0.5,0.3,0.8c0,0.3,0,0.6,0,0.9c0,0.1,0,0.2,0,0.5s0,0.5,0,0.8
	s0,0.6,0,0.8s0,0.4,0,0.5c0,0.1,0,0.1,0,0.2v0.3c0,0.6,0,1.2-0.1,1.8c-0.1,0.6-0.1,1.2-0.2,1.7c-0.1,2.5-0.2,5.1-0.2,7.6
	c0,2.5,0,5,0,7.6c0,0.8,0,1.7,0.1,2.5c0.1,0.8,0.1,1.7,0.1,2.5c0,0.3-0.1,0.7-0.3,0.9c-0.2,0.3-0.6,0.4-0.9,0.4c-0.1,0-0.2,0-0.4,0
	l-0.5-0.1c-0.2-0.1-0.4-0.1-0.5-0.2c-0.1-0.1-0.3-0.2-0.3-0.3l-4.4-9.6c-0.1-0.4-0.2-0.8-0.4-1.2c-0.2-0.4-0.4-0.8-0.6-1.3l-0.7-1.3
	c-0.2-0.4-0.4-0.7-0.6-1.1c0-0.1,0-0.1,0-0.2c0-0.1,0-0.1,0-0.2c0-0.1-0.1-0.3-0.3-0.7c-0.2-0.3-0.3-0.7-0.5-1.1l-0.5-1.1
	c-0.1-0.3-0.2-0.5-0.3-0.6c-0.1-0.3-0.2-0.6-0.3-0.9c-0.1-0.3-0.2-0.5-0.4-0.8l-0.1,0.1c0,0.3,0.1,0.6,0.1,0.9
	c0,0.3,0.1,0.7,0.1,1.1s0,0.8,0.1,1.1s0,0.7,0,1l0.8,5.8c0,0,0,0,0,0.1l0,0c0,0.1,0,0.2,0,0.3c0,0.1,0,0.2,0.1,0.3
	c0,0.3,0,0.8,0.1,1.5s0.1,1.4,0.1,2.2s0.1,1.5,0.1,2.2s0.1,1.2,0.1,1.4v0.1c0,0,0,0.2,0,0.4s0,0.4-0.1,0.6s0,0.4,0,0.6s0,0.3,0,0.4
	c0,0.3-0.1,0.6-0.2,1c-0.1,0.3-0.4,0.5-0.8,0.5c-0.5,0-1-0.1-1.4-0.3C70.5,281.4,70.4,280.9,70.5,280.4z M81.8,251
	C81.8,251,81.7,251,81.8,251c-0.1,0.1-0.1,0.1,0,0.1S81.9,251,81.8,251z"/>
<path class="st0" d="M102.2,281c-0.1-0.1-0.1-0.3-0.2-0.6c-0.1-0.2-0.1-0.5-0.2-0.8l-0.2-0.8c-0.1-0.2-0.1-0.4-0.1-0.6l-1.4-11.2
	c0-0.1,0-0.2,0-0.3c0-0.1,0-0.2-0.1-0.3l-0.1-0.8c-0.1-0.4-0.1-0.9-0.2-1.4s-0.1-1.1-0.3-1.8s-0.2-1.2-0.2-1.8s-0.1-1-0.2-1.4
	l-0.1-0.8c0-0.1,0-0.2,0-0.3c0-0.1,0-0.2-0.1-0.3l-0.1-0.1l-0.5,0.7c-0.1,0.2-0.2,0.4-0.2,0.6c0,0.2-0.1,0.5-0.1,0.7
	c0,0-0.1,0.1-0.1,0.1c0,0,0,0.1-0.1,0.1c0,0,0,0,0,0.1l-0.1,0.1c0,0,0,0.1,0,0.3s-0.1,0.3-0.1,0.3l-0.2,0.6l-0.3,1
	c-0.1,0.4-0.2,0.7-0.3,1l-0.2,0.6c0,0.2-0.1,0.4-0.1,0.5c-0.1,0.2-0.1,0.4-0.1,0.5c0,0.1,0,0.1,0,0.2c0,0.1-0.1,0.2-0.1,0.3
	c-0.1,0.1-0.1,0.2-0.1,0.4c0,0.1,0,0.1,0,0.2c0,0.2-0.1,0.4-0.1,0.5c0,0.2-0.1,0.5-0.2,0.7c-0.1,0.2-0.2,0.5-0.3,0.6
	c-0.1,0.2-0.3,0.3-0.5,0.3c-0.4,0-0.9-0.1-1.2-0.4c-0.3-0.3-0.6-0.6-0.8-1l-0.3-0.6c-0.1-0.3-0.3-0.5-0.4-0.8l-0.4-0.8
	c-0.1-0.2-0.2-0.4-0.2-0.4c-0.3-0.7-0.6-1.5-0.9-2.2c-0.2-0.8-0.6-1.5-1-2.2l-0.1,0.2c0,0.5-0.1,0.8-0.1,1.1c0,0.3,0,0.6-0.1,0.9
	s0,0.6-0.1,0.8c0,0.9-0.1,1.7-0.1,2.6c0,0.9,0,1.7,0,2.6s0,1.7,0,2.5c0,0.8,0,1.7,0,2.6c0,0.1,0,0.3,0,0.5v0.7c0,0.3,0,0.5,0,0.7
	c0,0.2,0,0.3,0,0.4c0,0.1-0.1,0.3-0.1,0.4c-0.1,0.1-0.1,0.2-0.1,0.4v0.2c0,0.1,0,0.2,0.1,0.3c0,0.1,0.1,0.3,0.1,0.4h-0.3
	c0,0.2,0,0.3,0.1,0.5c0.1,0.1,0.1,0.3,0.1,0.4c0,1-0.5,1.4-1.5,1.4h-0.3c-0.1-0.1-0.3-0.2-0.4-0.4c-0.1-0.1-0.2-0.3-0.4-0.4v-0.5
	c0-0.9,0-1.8,0.1-2.6c0.1-0.9,0.1-1.7,0.1-2.6c0.1-2.7,0.1-5.5,0.2-8.1c0.1-2.7,0.1-5.4,0.2-8.1v-0.4c0,0,0-0.2,0-0.4
	c0-0.2,0-0.4,0-0.7s0-0.5,0-0.7s0-0.3,0-0.4v-2.1c0-0.2,0.1-0.4,0.1-0.6c0-0.2,0.3-0.4,0.5-0.4c0.1,0,0.1,0,0.1,0.1l0.3-0.3
	c0.1,0.1,0.1,0.1,0.2,0.2l0.1,0.4c0,0.1,0.1,0.2,0.2,0.3c0.1,0.1,0.2,0.1,0.3,0.1h0.1c-0.1-0.1-0.1-0.2-0.1-0.2c0,0,0.1-0.1,0.4-0.3
	c0.3,0.1,0.5,0.4,0.7,0.6c0.2,0.3,0.3,0.7,0.4,1c0.1,0.3,0.2,0.7,0.3,1c0.1,0.4,0.1,0.7,0.2,0.9c0.4,1.1,0.9,2.2,1.3,3.3
	s0.9,2.2,1.3,3.4c0.1,0.2,0.2,0.4,0.3,0.6c0.1,0.1,0.1,0.3,0.2,0.4h0c0.5-1.8,1.1-3.7,1.8-5.5c0.6-1.8,1.3-3.6,2.1-5.5
	c0-0.1,0.1-0.1,0.1-0.1l0.2,0c0.1,0,0.1,0,0.2-0.1c0.1,0,0.1-0.1,0.1-0.2c0.1,0.2,0.2,0.4,0.3,0.5c0.1,0.2,0.3,0.3,0.4,0.5v-0.1
	c0,0,0-0.1,0-0.3c0-0.1,0-0.2-0.1-0.2v-0.2c0.1,0,0.1,0.1,0.2,0.1c0.1,0.1,0.1,0.2,0.1,0.3l0.1,0.3c0,0.1,0,0.1,0.1,0.2h0.1
	c0.1-0.1,0.1-0.1,0.2-0.2c0.1-0.1,0.1-0.1,0.2-0.2l0.4,0.4c0.1,0.3,0.2,0.5,0.2,0.6s0.1,0.4,0.2,0.5c0,0.1,0.1,0.3,0.1,0.4
	c0,0.1,0.1,0.4,0.2,0.7s0.2,0.7,0.3,1.1c0.1,0.4,0.2,0.8,0.3,1.1c0.1,0.2,0.1,0.5,0.2,0.7c0.4,3.4,0.9,6.8,1.5,10.1s1,6.7,1.5,10.1
	c0.1,0.5,0.3,0.9,0.5,1.3c0.2,0.4,0.3,0.9,0.3,1.3c0,0.3-0.1,0.7-0.4,0.9c-0.5,0.4-1.3,0.5-1.9,0.1
	C102.7,281.4,102.4,281.2,102.2,281z"/>
<path class="st0" d="M103.7,277.4c0-0.4,0.1-0.8,0.2-1.1c0.2-0.3,0.3-0.7,0.4-1.1c0.1-0.2,0.2-0.5,0.3-0.9c0.1-0.4,0.2-0.8,0.3-1.1
	c0.1-0.4,0.2-0.8,0.3-1.4v-0.1c0.1-0.3,0.2-0.8,0.4-1.6l0.6-2.4c0.2-0.9,0.4-1.7,0.6-2.4c0.2-0.8,0.3-1.3,0.4-1.6
	c0-0.2,0.1-0.6,0.2-1.2c0.1-0.7,0.2-1.4,0.3-2.2c0.1-0.8,0.2-1.5,0.4-2.2c0.1-0.7,0.2-1.1,0.3-1.2c0-0.2,0.1-0.4,0.1-0.7
	c0.1-0.3,0.1-0.7,0.2-1s0.2-0.6,0.2-0.9c0-0.1,0.1-0.3,0.1-0.4l0.1-0.2c0.2-0.6,0.4-1.2,0.6-1.6l0.4-1.4c0.1-0.5,0.3-0.8,0.4-1.1
	c0.1-0.3,0.3-0.6,0.5-0.9c0.3-0.2,0.6-0.4,0.9-0.4c0.1,0,0.3-0.1,0.4-0.2c0.1-0.1,0.3-0.2,0.5-0.2h0.1c0.4,0,0.8,0.1,1.1,0.3
	c0.3,0.2,0.5,0.4,0.6,0.7c0.1,0.3,0.2,0.7,0.3,1c0,0.4,0.1,0.7,0,1.1c0,0.5,0,1.1,0,1.7s-0.1,1.1-0.1,1.7c0,0.1,0,0.2,0,0.3
	c0,0.2,0,0.3-0.1,0.5c-0.1,0.2-0.1,0.4-0.1,0.5c0,0.1,0,0.2,0,0.3l0,0c0,1.6,0.1,3.2,0.2,4.8c0.1,1.6,0.3,3.1,0.5,4.7
	c0,0.2,0,0.4,0.1,0.6s0.1,0.5,0.1,0.7c0.1,0.2,0.2,0.4,0.3,0.5c0.1,0.2,0.2,0.4,0.2,0.6c0,0.2-0.1,0.4-0.2,0.6
	c-0.2,0.1-0.3,0.4-0.3,0.6v0.3c0,0.3,0.1,0.8,0.1,1.4c0,0.6,0.1,1.2,0.1,1.8s0.1,1.2,0.1,1.7s0,0.8,0,0.9c0,0.1,0,0.2,0,0.4
	c0,0.2,0,0.4,0.1,0.6c0,0.2,0.1,0.4,0.1,0.6c0,0.1,0,0.2,0,0.4c0,0.1,0,0.2,0,0.2v0.3c0,0.3-0.1,0.6-0.3,0.9
	c-0.1,0.3-0.4,0.5-0.8,0.5c-0.3,0-0.5-0.1-0.7-0.3c-0.2-0.1-0.4-0.3-0.6-0.5c-0.1-0.1-0.4-0.5-0.7-1l-0.7-6.9L112,270h-0.1l-0.2,0.1
	l-0.3,0.1c0,0,0,0.1-0.1,0.1l-0.4,0.3l-0.5,0.3l-0.6,0.4h-0.9c-0.1-0.1-0.1-0.1-0.2-0.2c-0.1,0-0.2-0.1-0.3-0.1
	c-0.1,0-0.2,0.2-0.3,0.6s-0.2,0.8-0.3,1.4s-0.2,1.2-0.4,1.9c-0.1,0.6-0.3,1.2-0.5,1.8c-0.2,0.5-0.4,1-0.8,1.4
	c-0.2,0.3-0.6,0.5-1,0.6c-0.2,0-0.4-0.1-0.5-0.2c-0.2-0.1-0.3-0.2-0.5-0.4c-0.1-0.2-0.2-0.3-0.3-0.5
	C103.7,277.6,103.7,277.5,103.7,277.4z M109.5,265.8c-0.2,0.4-0.3,0.9-0.4,1.3c-0.1,0.5-0.1,0.9-0.1,1.4c0.3,0,0.6-0.1,0.9-0.3
	l0.8-0.5c0.1,0,0.2-0.1,0.3-0.1l0.4-0.2l0.4-0.2l0.2-0.2c0-0.1,0-0.2,0-0.3v-0.3c0-0.8-0.1-1.6-0.2-2.4c-0.1-0.8-0.2-1.6-0.2-2.4
	c0-0.2,0-0.6,0-1.2s0-1.2-0.1-1.8s-0.1-1.2-0.1-1.8s0-0.9,0-1.2c-0.1,0.1-0.2,0.2-0.2,0.3c0,0.1-0.1,0.2-0.1,0.3
	c0,0.1-0.1,0.3-0.1,0.5s-0.1,0.3-0.1,0.5c0,0.1,0,0.2,0,0.3c0,0.1,0,0.2,0,0.3c0,0.1,0,0.3,0,0.5c0,0.2-0.1,0.4-0.1,0.6
	c0,0.2-0.1,0.3-0.1,0.4v0.1L109.5,265.8z"/>
<path class="st0" d="M121.3,277.7v-0.3c0.6-2.3,1-4.7,1.3-7.1c0.2-2.3,0.4-4.7,0.7-7.1v-12c0,0,0.1-0.1,0.1-0.1c0,0,0-0.1,0.1-0.1
	c0.1-0.3,0.5-0.6,1.1-0.8c0.6-0.3,1.3-0.5,2-0.6c0.7-0.2,1.4-0.3,2.1-0.4c0.5-0.1,0.9-0.1,1.4-0.1c0.4,0,0.9,0.1,1.2,0.4
	c0.3,0.3,0.5,0.7,0.5,1.2c0,0.3,0,0.6-0.2,0.9c-0.1,0.2-0.3,0.4-0.5,0.5c-0.2,0.1-0.5,0.2-0.7,0.2c-0.3,0-0.5,0.1-0.9,0.1
	c-0.4,0.1-0.8,0.2-1.2,0.3c-0.4,0.1-0.8,0.2-1.2,0.3c-0.2,0-0.5,0.1-1.1,0.2l-0.1,0.5c0.1,1.6,0.2,3.2,0.3,4.9s0.1,3.3,0.1,4.9
	c0,0,0.1,0.1,0.3,0.2c0.1,0,0.2,0.1,0.3,0.1c0.1,0,0.3,0,0.4,0c0.2,0,0.3,0,0.5-0.1c0.2,0,0.3-0.1,0.5-0.1c0.2-0.1,0.3-0.1,0.5-0.1
	c0.2,0,0.5,0,0.6,0.2c0.2,0.1,0.4,0.3,0.6,0.5c0.2,0.2,0.3,0.4,0.4,0.7c0.1,0.2,0.1,0.4,0.1,0.6c0,0.1,0,0.2-0.1,0.2
	c-0.1,0.1-0.1,0.2-0.2,0.3c-0.1,0.1-0.2,0.2-0.2,0.3c0,0-0.1,0.1-0.2,0.1c-0.6,0.1-1.2,0.2-1.8,0.3c-0.6,0.1-1.2,0.1-1.8,0.2
	c-0.1,0.3-0.2,0.6-0.2,0.9c0,0.3,0,0.6,0,1l-1,7.7v0.4c0.7,0,1.3,0,2-0.1c0.6,0,1.3,0,2,0c0.2,0,0.5,0,0.7,0.1
	c0.3,0,0.5,0.1,0.7,0.3c0.2,0.1,0.4,0.3,0.6,0.5c0.2,0.2,0.3,0.4,0.3,0.7c0,0.5-0.2,0.9-0.7,1.1c-0.4,0.2-0.9,0.3-1.3,0.3h-0.7h-1.1
	h-1.1h-0.7c-0.2,0.1-0.4,0.1-0.5,0.1h-0.5c-0.3,0-0.7,0-1,0c-0.3,0-0.7-0.1-1-0.2c-0.3-0.1-0.6-0.3-0.8-0.5
	C121.4,278.3,121.3,278,121.3,277.7z"/>
<path class="st0" d="M138.9,278.2c0-0.2,0.1-0.4,0.3-0.6l0.4-0.6v-0.1c0-0.3-0.1-0.5-0.3-0.7c-0.2-0.2-0.3-0.5-0.3-0.8v-0.3l0.9-8.5
	c-0.1-1.5,0-3,0.2-4.5c0.2-1.5,0.3-3,0.3-4.6v-2.3c0-0.1,0-0.3,0-0.6s0-0.6-0.1-0.9s-0.1-0.6-0.1-1s0-0.5,0-0.6s0-0.2,0-0.4
	s-0.1-0.4-0.1-0.7c-0.1-0.2-0.1-0.4-0.1-0.7c0-0.1,0-0.3-0.1-0.4v-0.5c0-0.3,0.1-0.6,0.4-0.8c0.2-0.2,0.5-0.4,0.8-0.5
	c0,0,0.1,0,0.3,0h0.4c0.4,0,0.8,0.1,1.2,0.2c0.4,0.1,0.7,0.3,1.1,0.4s1,0.4,1.5,0.6c0.5,0.2,1,0.5,1.4,0.9c1.1,1,1.9,2.2,2.5,3.5
	c0.6,1.5,1.2,3,1.5,4.6c0.4,1.6,0.6,3.2,0.7,4.8c0.1,1.6,0.2,3,0.2,4.2c0,0.8-0.1,1.6-0.2,2.4c-0.1,0.8-0.3,1.6-0.6,2.4
	c-1,1.6-2.1,3.1-3.5,4.4c-1.4,1.3-3,2.2-4.8,2.7c-0.2-0.1-0.5,0-0.7,0.1c-0.2,0.2-0.4,0.2-0.7,0.2c-0.2,0-0.5,0-0.7-0.1
	c-0.2-0.1-0.5-0.2-0.7-0.3c-0.2-0.1-0.4-0.3-0.6-0.5C139,278.7,138.9,278.4,138.9,278.2z M143.2,258c0,1.8,0,3.5-0.1,5.3
	s-0.1,3.6-0.3,5.4c0,0.1,0,0.5-0.1,1c-0.1,0.6-0.1,1.2-0.2,1.8c-0.1,0.7-0.1,1.3-0.2,1.9s-0.1,0.9-0.1,1.1s0,0.2,0,0.5
	c0,0.3,0,0.5,0,0.8v0.3c0.1,0,0.3-0.1,0.4-0.1c0.2-0.1,0.4-0.2,0.5-0.3l0.5-0.3c0.1-0.1,0.2-0.2,0.3-0.3c1.3-0.9,2.4-2,3.3-3.4
	c0.8-1.3,1.2-2.9,1.3-4.4c0-0.2,0-0.5,0-0.9s0-0.9-0.1-1.4s-0.1-1-0.1-1.4c0-0.4,0-0.8,0-1c0-0.6-0.1-1.5-0.3-2.5
	c-0.1-1-0.3-2.1-0.6-3.1c-0.3-1-0.6-1.9-1.1-2.8c-0.4-0.8-1-1.4-1.7-1.8l-0.7-0.3c-0.3-0.1-0.6-0.2-0.9-0.2c0,0.1,0,0.1,0,0.2
	c0,0.1,0,0.1,0,0.2c0,0.1,0,0.3,0,0.4c0,0.2,0,0.4,0.1,0.6s0.1,0.5,0.1,0.7c0,0.1,0,0.3,0,0.4L143.2,258z"/>
<path class="st0" d="M156.4,273.1v-0.9c0-0.3,0-0.8,0-1.6c0-0.8,0.1-1.6,0.1-2.5s0.1-1.7,0.1-2.5c0-0.8,0.1-1.3,0.1-1.6
	c0-0.3,0.1-0.6,0.2-1.2s0.2-1.2,0.3-1.8c0.1-0.6,0.2-1.2,0.3-1.7s0.2-0.9,0.2-1.1c0.2-0.8,0.4-1.6,0.7-2.4c0.3-1,0.8-1.9,1.3-2.8
	c0.5-0.9,1.1-1.7,1.8-2.3c0.6-0.6,1.4-1,2.3-1c0.9,0,1.7,0.3,2.4,0.9c0.7,0.5,1.2,1.2,1.7,1.9c0.1,0.1,0.2,0.2,0.3,0.4l0.2,0.4l0,0
	c0,0.4-0.1,0.8-0.3,1.1c-0.2,0.3-0.5,0.5-0.9,0.5c-0.2,0-0.5-0.1-0.7-0.2c-0.2-0.1-0.4-0.3-0.6-0.5c-0.2-0.2-0.4-0.4-0.5-0.6
	c-0.2-0.2-0.3-0.4-0.5-0.6h-0.2h-0.2c-0.4,0-0.8,0.1-1.1,0.4c-0.3,0.3-0.6,0.6-0.8,0.9c-0.2,0.4-0.5,0.7-0.6,1.1
	c-0.2,0.4-0.4,0.7-0.6,1c0,0.1-0.1,0.3-0.1,0.5c-0.1,0.2-0.1,0.5-0.2,0.7s-0.1,0.5-0.2,0.7c-0.1,0.2-0.1,0.4-0.1,0.5
	c0,0.1-0.1,0.3-0.1,0.6c-0.1,0.3-0.1,0.5-0.1,0.5l-0.7,6c0,1.3,0,2.5,0,3.8s-0.1,2.5-0.1,3.8v1c0,0.5,0.1,0.9,0.3,1.3
	c0.2,0.4,0.5,0.6,1.2,0.6c0.4,0,0.7-0.1,1.1-0.2c0.4-0.1,0.7-0.3,1-0.4s0.7-0.3,1-0.4c0.3-0.1,0.7-0.2,1.1-0.2
	c0.5,0,0.9,0.2,1.1,0.7c0.3,0.4,0.4,0.8,0.5,1.3c-0.1,0.1-0.2,0.3-0.3,0.4c-0.1,0.2-0.2,0.3-0.3,0.4c-0.3,0.3-0.7,0.5-1.1,0.7
	c-0.4,0.2-0.9,0.4-1.3,0.5c-0.4,0.1-0.9,0.2-1.4,0.2c-0.5,0-0.9,0.1-1.2,0.1c-0.8,0-1.6-0.2-2.2-0.5c-0.6-0.4-1.1-0.8-1.4-1.4
	c-0.4-0.6-0.6-1.3-0.8-2C156.5,274.6,156.4,273.9,156.4,273.1z"/>
<path class="st0" d="M181.4,277.9v-0.8l0.7-5.3v-0.4l-1.4,0.2c-0.5,0.1-1,0.1-1.5,0.1c-0.2,0-0.4-0.1-0.6-0.2
	c-0.2-0.1-0.4-0.2-0.6-0.2H178h-0.1c-0.1,0.6-0.2,1.3-0.3,1.9c-0.1,0.7-0.1,1.3-0.1,1.9c0,0,0,0.1,0,0.3c0,0.1,0,0.3,0,0.5v0.5
	c0,0.2,0,0.3,0,0.3v0.3c0,0.2-0.1,0.5-0.1,0.9s-0.1,0.8-0.1,1.1s-0.1,0.7-0.1,1c0,0.3,0,0.5,0,0.5c-0.1,0.4-0.2,0.8-0.3,1.1
	c-0.1,0.4-0.5,0.6-0.9,0.6l0,0l0,0c-0.2-0.1-0.5-0.2-0.7-0.3c-0.2-0.1-0.5-0.2-0.7-0.3c-0.2-0.1-0.4-0.3-0.5-0.4
	c-0.1-0.2-0.2-0.5-0.2-0.8v-0.5c0-0.1,0-0.2,0-0.5c0-0.3,0.1-0.5,0.1-0.8s0.1-0.6,0.1-0.9c0-0.2,0-0.3,0-0.5
	c0.1-1.7,0.2-3.4,0.3-5.1s0.1-3.4,0.3-5.1c0.1-1,0.3-2,0.4-3c0.1-1,0.2-2,0.2-3v-4.2c0-0.1,0-0.4,0-0.9c0-0.5,0-1,0-1.6s0-1.1,0-1.6
	s0-0.8,0-0.9v-0.4c0-0.1,0-0.3,0-0.4c0.1-0.2,0.2-0.4,0.3-0.5l0.5,0.4c0-0.1,0.1-0.2,0.2-0.2c0,0,0,0,0,0h0.3h0.3l0.1,0.3
	c0-0.1,0.1-0.1,0.1-0.1h0.1c0.5,0.3,0.9,0.8,1,1.3v0.2c0,0.2,0,0.6,0,1.3s0,1.4,0,2.2c0,0.8,0,1.5,0,2.2s0,1.1,0,1.3
	c0,0.8,0,1.6,0,2.4c0,0.8,0,1.6-0.1,2.4c-0.1,0.7-0.2,1.5-0.4,2.3c-0.1,0.8-0.2,1.5-0.2,2.3v0.4c0,0.1,0.1,0.2,0.2,0.2
	c0.5,0,0.9-0.1,1.4-0.3c0.4-0.2,0.9-0.3,1.3-0.4c0.1,0,0.3,0,0.4,0c0.2,0,0.3,0,0.5,0c0.3,0,0.6-0.1,0.8-0.3c0,0,0,0,0-0.1
	c0-0.6,0.1-1.2,0.2-1.8c0-0.6,0.1-1.2,0.1-1.8c0-0.1,0-0.3,0-0.8c0-0.4,0.1-0.8,0.1-1.3c0-0.5,0.1-0.9,0.1-1.3
	c0-0.4,0.1-0.6,0.1-0.7V260l0.6-8.9c0-0.3,0.2-0.5,0.4-0.6c0.2-0.1,0.4-0.2,0.7-0.3c0.2,0,0.4,0,0.6,0.1c0.2,0.1,0.4,0.2,0.6,0.3
	c0.2,0.1,0.3,0.3,0.5,0.5c0.1,0.2,0.2,0.4,0.3,0.5c0,0.1,0,0.3,0,0.4v0.4c0,0.5,0,0.9-0.2,1.4c-0.1,0.4-0.2,0.9-0.2,1.4
	c-0.2,2.2-0.3,4.4-0.3,6.6s-0.2,4.4-0.4,6.6c-0.3,3.3,0,0.2,0,0.4c0,0.1-0.1,0.2-0.1,0.4c0,0.1,0,0.4-0.1,0.9
	c-0.1,0.5-0.1,1-0.1,1.5s-0.1,1-0.2,1.5c-0.1,0.5-0.1,0.8-0.1,0.9c-0.1,0.7-0.2,1.4-0.3,2c-0.1,0.7-0.2,1.4-0.2,2.1
	c0,0.5,0,1,0.1,1.5c0,0.5,0.1,1,0.1,1.5c0,0.4,0,0.7-0.2,1.1c-0.1,0.1-0.2,0.3-0.4,0.3c-0.1,0-0.3,0-0.4,0c-0.1,0-0.2,0.1-0.3,0.2
	c-0.1-0.1-0.2-0.1-0.3-0.2c-0.1,0-0.2-0.1-0.3-0.2c-0.2,0-0.3-0.1-0.5-0.2c-0.2-0.1-0.3-0.2-0.5-0.3c-0.2-0.1-0.3-0.3-0.4-0.7
	c-0.1-0.4-0.1-0.8-0.1-1.1c0-0.4,0-0.8,0-1.2S181.4,278.1,181.4,277.9z"/>
<path class="st0" d="M191.6,277.7v-0.3c0.6-2.3,1.1-4.7,1.3-7.1c0.2-2.3,0.4-4.7,0.7-7.1v-12c0,0,0.1-0.1,0.1-0.1l0.1-0.1
	c0.2-0.4,0.6-0.7,1.1-0.8c0.7-0.3,1.3-0.5,2-0.6c0.7-0.2,1.4-0.3,2.1-0.4c0.5-0.1,0.9-0.1,1.4-0.1c0.4,0,0.9,0.1,1.2,0.4
	c0.3,0.3,0.5,0.7,0.5,1.2c0,0.3,0,0.6-0.2,0.9c-0.1,0.2-0.3,0.4-0.5,0.5c-0.2,0.1-0.5,0.2-0.7,0.2c-0.3,0-0.6,0.1-0.9,0.1
	c-0.4,0.1-0.8,0.2-1.2,0.3c-0.4,0.1-0.8,0.2-1.2,0.3c-0.2,0-0.5,0.1-1.1,0.2l-0.1,0.5c0.1,1.6,0.2,3.2,0.3,4.9s0.1,3.3,0.1,4.9
	c0,0,0.1,0.1,0.3,0.2c0.1,0,0.2,0.1,0.3,0.1c0.1,0,0.3,0,0.4,0c0.2,0,0.3,0,0.5-0.1c0.2,0,0.3-0.1,0.5-0.1c0.2-0.1,0.3-0.1,0.5-0.1
	c0.2,0,0.4,0,0.6,0.2c0.2,0.1,0.4,0.3,0.6,0.5c0.2,0.2,0.3,0.4,0.4,0.7c0.1,0.2,0.1,0.4,0.1,0.6c0,0.1,0,0.2-0.1,0.2
	c-0.1,0.1-0.1,0.2-0.2,0.3c-0.1,0.1-0.2,0.2-0.3,0.3c-0.1,0.1-0.1,0.1-0.2,0.1c-0.6,0.1-1.2,0.2-1.8,0.3c-0.6,0.1-1.2,0.1-1.8,0.2
	c-0.1,0.3-0.2,0.6-0.3,0.9c0,0.3,0,0.6,0,1l-1,7.7v0.4c0.7,0,1.3,0,2-0.1c0.7,0,1.3,0,2,0c0.2,0,0.5,0,0.7,0.1
	c0.3,0,0.5,0.1,0.7,0.3c0.2,0.1,0.4,0.3,0.6,0.5c0.2,0.2,0.3,0.5,0.3,0.7c0,0.5-0.2,0.9-0.7,1.1c-0.4,0.2-0.9,0.3-1.3,0.3h-0.7h-1.1
	h-1.1h-0.7c-0.2,0.1-0.4,0.1-0.5,0.1h-0.5c-0.3,0-0.7,0-1,0c-0.3,0-0.7-0.1-1-0.2c-0.3-0.1-0.6-0.3-0.8-0.5
	C191.7,278.3,191.6,278,191.6,277.7z"/>
<path class="st0" d="M211.1,280.4c0-0.5,0-1.1,0.1-1.6c0.1-0.6,0.1-1.1,0.1-1.7c0-1.5-0.1-3-0.3-4.5c-0.2-1.5-0.4-2.9-0.6-4.4v-0.4
	c-0.2-0.9-0.3-1.8-0.4-2.6c-0.1-0.9-0.1-1.8-0.1-2.7c-0.1-0.1-0.1-0.1-0.1-0.2c-0.2-1.1-0.3-2.2-0.2-3.3c0-1.1,0-2.2,0-3.3
	c0-0.1,0-0.3,0-0.5s0-0.6-0.1-0.9s-0.1-0.6-0.1-1s0-0.5,0-0.7c0-0.1-0.1-0.2-0.1-0.4c0-0.2,0-0.3,0-0.4v-0.2c0-0.1,0-0.2,0.1-0.3
	c0-0.1,0.1-0.2,0.3-0.1c0.1,0,0.2,0,0.2,0.1c0.1,0,0.2,0.1,0.3,0c0,0,0-0.1,0-0.1c0,0,0-0.1,0-0.1l-0.1-0.1c0,0,0-0.1,0-0.1
	c0.1-0.1,0.1-0.1,0.1-0.1l0,0c0.1,0,0.1,0,0.2,0.1c0,0.1,0.1,0.2,0.1,0.2c0,0.1,0.1,0.2,0.2,0.3c0.1,0.1,0.2,0.2,0.4,0.2
	c0.1,0,0.1,0,0.2-0.1c0.1,0,0.1-0.1,0.2-0.1h0.3h0.2c0.1,0,0.2,0,0.2,0.1c0,0,0,0,0,0c0.3,0.8,0.7,1.6,1.1,2.5s0.9,1.8,1.3,2.5
	l5.1,11.7c0,0,0.1,0.2,0.2,0.4s0.3,0.5,0.4,0.8s0.3,0.6,0.5,1c0.1,0.2,0.2,0.5,0.4,0.7c0,0.1,0.1,0.1,0.1,0.2l0.2,0.2
	c0-0.3,0.1-0.5,0.1-0.8s0.1-0.5,0.1-0.8c0-0.5,0-1.2,0-2.3c0-1.1,0-2.3,0.1-3.5s0.1-2.4,0.1-3.5c0-1.1,0-1.9,0-2.3v-0.7
	c0-1,0-1.9-0.1-2.8s-0.1-1.9-0.1-2.9v-0.7c0.1-0.2,0.2-0.3,0.3-0.5c0.1-0.2,0.3-0.3,0.4-0.3c0.2,0,0.4,0.1,0.5,0.2
	c0.1,0.1,0.2,0.3,0.2,0.5c0.2,0,0.3-0.1,0.5-0.1c0.2-0.1,0.3-0.2,0.3-0.3c0.1,0.1,0.2,0.3,0.4,0.3c0.2,0.1,0.3,0.2,0.5,0.3
	c0.2,0.2,0.3,0.5,0.3,0.8c0,0.3,0,0.6,0.1,0.9c0,0.1,0,0.2,0,0.5s0,0.5,0,0.8s0,0.6,0,0.8s0,0.4,0,0.5c0,0.1,0,0.1,0,0.2v0.3
	c0,0.6,0,1.2-0.1,1.8c-0.1,0.6-0.1,1.2-0.2,1.7c-0.1,2.5-0.2,5.1-0.2,7.6c0,2.5,0,5,0,7.6c0,0.8,0,1.7,0.1,2.5
	c0.1,0.8,0.1,1.7,0.1,2.5c0,0.3-0.1,0.7-0.3,0.9c-0.2,0.3-0.6,0.4-0.9,0.4l-0.4,0l-0.5-0.1c-0.2-0.1-0.4-0.1-0.5-0.2
	c-0.1-0.1-0.3-0.2-0.3-0.3l-4.4-9.6c-0.1-0.4-0.2-0.8-0.3-1.2c-0.2-0.4-0.4-0.8-0.6-1.3s-0.5-0.9-0.7-1.3c-0.2-0.4-0.4-0.8-0.6-1.1
	c0-0.1,0-0.1,0-0.2c0-0.1,0-0.1-0.1-0.2l-0.3-0.7c-0.2-0.3-0.3-0.7-0.5-1.1s-0.4-0.8-0.5-1.1c-0.2-0.3-0.2-0.5-0.3-0.6
	c-0.1-0.3-0.2-0.6-0.3-0.9c-0.1-0.3-0.2-0.5-0.4-0.8l-0.1,0.1c0,0.3,0,0.6,0.1,0.9c0,0.3,0.1,0.7,0.1,1.1s0,0.8,0,1.1
	c0,0.3,0,0.7,0,1l0.8,5.8c0,0,0,0,0,0.1s0,0,0,0s0,0.1,0,0.3c0,0.1,0,0.2,0.1,0.3c0,0.3,0,0.8,0.1,1.5s0.1,1.4,0.1,2.2
	s0.1,1.5,0.1,2.2s0.1,1.2,0.1,1.4v0.1c0,0,0,0.2,0,0.4s0,0.4,0,0.6s0,0.4,0,0.6c0,0.1,0,0.2,0,0.4c0,0.3-0.1,0.6-0.2,1
	c-0.1,0.3-0.4,0.5-0.8,0.5c-0.5,0-1-0.1-1.4-0.3C211.3,281.4,211.1,280.9,211.1,280.4z M222.4,251C222.3,251,222.3,251,222.4,251
	c-0.1,0.1-0.1,0.1,0,0.1S222.5,251,222.4,251z"/>
<path class="st0" d="M70.4,43.6c-4.3-18.3,4.8-28.9,5.2-29.4l2.3,2c-0.1,0.1-8.5,10-4.5,26.7L70.4,43.6z"/>
<path class="st0" d="M57.9,48.6c-8.8-4.7-28-3.6-28.8-3.5l0.2,3c0.2,0,16.6-1,25.3,2.3C55.6,49.7,56.7,49.1,57.9,48.6z"/>
<path class="st0" d="M99.9,220.4h0.3c0,0,0,0,0,0.1c0.3,0.2,0.7-0.1,1,0c-0.2-0.1-0.2,0-0.4,0s0-0.2,0.3-0.2l0,0l0.2-0.1
	c0,0.1,0.3,0.2,0.3,0.3l0.4-0.1l1-3.7c-0.3,0.1-0.9-0.1-0.9,0.1l-0.4-0.1c0,0.1,0,0.2-0.3,0.3s-0.2-0.2-0.3-0.3L101,217
	c-1.7,0-3.4,0-5.1,0.2c-0.8,0.2-1.6,0.4-2.5,0.5h0.1h-0.9h0.6c-0.2,0.1-0.3,0.1-0.5,0.1c-1.1,0-2.2,0.1-3.3,0.4
	c-0.7,0.5-0.5-0.2-1.2,0.2c0.1,0,0.1-0.1,0.1-0.1c-0.6,0.2-1.2,0.4-1.9,0.7c0-0.3-0.5,0.1-0.5-0.1v0.1c-0.2,0-0.6,0-0.5-0.1
	l-0.3,0.2l0-0.1c-0.5,0.1-1.4,0.4-1.7,0.2c-1.4,0.4-2.7,0.8-4.1,1.1c-0.3,0.2-0.6,0.3-0.9,0.4l-0.4-0.1c-0.3,0.1-0.6,0.4-0.9,0.4
	c0,0,0,0,0,0c-0.3,0.1-0.6,0.2-0.9,0.3c-0.4,0.1-0.7,0.1-0.6-0.1c0,0.3-0.8,0.2-0.8,0.2c-0.3,0.1-0.5,0.1-0.8,0.2l-2.1,0.6l-3,1
	c-1.2,0.4-2.4,0.8-3.5,1.3c-1.2,0.5-2.5,1-3.7,1.5c-1.2,0.5-2.3,1-3.4,1.6c-1.7,0.8-3.2,1.8-4.7,3c-0.1,0.2-0.4,0.4-0.2,0.5
	c-0.3,0.2-0.5,0-0.5,0.2c0.4-0.1,0,0.4,0.5,0.3l-0.2,0.1c0,0.1,0.3-0.3,0.3-0.1v-0.2c0.1,0,0.3,0,0.5,0c0.1-0.2,0.1-0.5,0.6-0.6
	l-0.1,0.1c0.4-0.2,0.3,0,0.4,0h-0.1h0.4c-0.3,0-0.6,0.4-0.4,0.3c0.5-0.1-0.1,0,0.2-0.2s0.2,0,0.2,0.1l0.4-0.2c0,0.1-0.3,0.1,0,0.1
	l0.4-0.3c0.2,0.2,0.4-0.4,0.8-0.2c-0.3,0.2,0.1,0.1,0,0.2l0.8-0.4c0.1,0-0.2,0.2-0.1,0.1s0.2-0.2,0.3-0.2s0.6-0.3,0.7-0.1
	c0.6-0.1,0.1-0.3,0.7-0.5c0.1,0.1-0.4,0.2-0.1,0.2l0.5-0.3c0,0.1-0.1,0.2-0.2,0.3c1.5-0.6,2.5-0.3,3.8-1c0.2,0-0.1,0.1-0.2,0.3
	c0.9-0.5,1.5-0.3,2.3-0.6v-0.1c1.3-0.1,2.5-0.9,3.9-1.2h-0.2c0.2-0.1,0.4-0.3,0.6-0.4c0.1,0-0.1,0.3,0.3,0.1c-0.1,0-0.3,0-0.2-0.1
	c1.9-0.4,3.7-0.9,5.5-1.5c2.5-0.8,5.4-1.3,7.9-2c-0.4,0.1-0.3-0.2,0-0.2c0.9,0.3,1.4-0.4,2.3-0.2c1.5-0.4,2.9-0.3,4.2-1v0.1
	c0.2,0,0.3-0.1,0.5-0.1l0,0c0.5-0.1,1.1-0.3,1.4-0.2v-0.1c0.3-0.1,0.2,0.1,0.5,0v0.1l0.4-0.2c0,0.3,0.9-0.1,1.1,0
	c0.6-0.2,1.2-0.3,1.8-0.4c0.4,0.1,0.9,0.1,1.4,0c1.1-0.2,2.3-0.4,3.4-0.4L99.9,220.4z"/>
<path class="st0" d="M132.4,220.6L132.4,220.6L132.4,220.6L132.4,220.6z"/>
<path class="st0" d="M172.8,232.3c0.1,0.3,0.7,0.3,0.9,0.3c-0.6-0.5-0.5-0.2-1-0.8c-0.1,0-0.2,0.2-0.5,0c0.3,0,0-0.1,0-0.2
	c0,0.1-0.3-0.1-0.4-0.1s0.4-0.1,0-0.4l-0.2,0.2c-0.1-0.1,0.1-0.1-0.2-0.2c0.2,0,0-0.2,0.5-0.1c-0.4-0.5-0.9-0.3-1.3-0.4
	c0,0,0.1,0,0.1,0c-0.1,0-0.3,0-0.4-0.1c-0.3-0.2,0.3,0,0.2-0.1l-0.5-0.2l0,0c-0.1,0-0.3,0-0.3-0.1c0.2,0,0.3-0.1,0.4-0.1h-0.5
	c0.1-0.1-0.3-0.3,0-0.2l-0.7-0.3v-0.2c-0.2,0-0.2,0,0,0.1c-0.2-0.1-1.2-0.2-0.9-0.5c-0.6-0.1-0.8-0.3-1.5-0.5c0.6,0-0.5-0.4,0.1-0.3
	c-0.3-0.2-0.4,0-0.7-0.1s0-0.3,0.3-0.3h-0.3l0,0h-0.3c-0.2-0.2,0-0.2-0.3-0.3l-0.1,0.1l-0.2-0.2c0,0.1-0.1,0.1-0.4,0l0,0l-0.3-0.1
	c0.3,0-0.2-0.1-0.1-0.2c-0.2-0.1-0.4-0.2-0.6-0.2v0.1c-0.5-0.1,0-0.2-0.4-0.3v0.1c-0.5-0.4-1.1-0.3-1.5-0.6c0.3,0.1,0.3-0.1,0.2-0.1
	c-0.5-0.2-1-0.3-1.5-0.4c-0.1-0.2-0.1-0.3-0.5-0.5s-0.4-0.1-0.5,0c-0.3-0.2-0.9-0.2-0.8-0.4c-0.1,0.1-0.3-0.1-0.5-0.1v-0.1v0.1
	c-0.4-0.4-0.9-0.1-1.4-0.5h0.1h-0.2c0-0.1,0.1-0.1,0.1-0.1l-1-0.4l0.2,0.2c-0.2-0.1-0.4,0-0.6-0.1c0.5,0-0.3-0.1-0.4-0.3h0.2
	c-0.3-0.1-0.3-0.1-0.3,0c-0.4-0.1-0.2-0.3-0.6-0.3l0.3,0.1c0,0.1-0.2,0.1-0.3,0.1s-0.1-0.1,0-0.1c-0.3,0-0.8-0.3-0.9-0.3
	s-0.1-0.2,0-0.2c-0.7-0.1-0.3-0.1-1-0.2v-0.1h-0.3l-0.3-0.3l0.1,0.1c-0.2,0-0.4-0.1-0.6-0.1l0.1-0.1c-0.6-0.1-0.7-0.4-1.3-0.4
	c0,0,0.1,0,0.1,0c-0.6,0-0.4-0.3-1-0.2c0,0,0-0.1,0-0.1H149l0-0.1l-0.3,0.1l-0.1-0.2h-0.1c-0.2-0.3-0.6-0.2-0.9-0.5v0.2
	c-1,0.1-2.1-0.8-3.2-0.9l0-0.1l-0.5,0.1c-0.2-0.2,0.2-0.1,0.1-0.2c-0.5,0-0.3,0.2-0.9,0.1c-0.3-0.1,0.1-0.1,0.3-0.1
	c-0.6,0-1.2-0.1-1.8-0.3c0,0,0,0,0,0c-0.4-0.1-0.8-0.1-1.2-0.2c0-0.1,0.1-0.1,0.2,0c-0.1-0.1-0.3-0.1-0.5-0.1l0.2-0.1
	c-0.3-0.1-0.9-0.1-1-0.3c0,0.1,0,0.2-0.3,0.1c-0.1-0.3-0.7,0-1.1-0.3c0.1,0,0.4,0,0.3,0c-0.2-0.1-0.4-0.1-0.6,0l0.1-0.1l-1-0.1
	c-0.1-0.3-1-0.1-0.9-0.3c-0.4,0,0.3,0.1-0.2,0.1c-0.1-0.1-0.4,0-0.4-0.1h0h-0.3l0.2-0.1c-0.3,0-0.5,0.1-0.5,0.2
	c-0.2-0.1-0.6-0.1-0.7-0.3h0.1c-0.7,0-1.1-0.5-1.8-0.4c0,0,0-0.1,0.1,0l-0.5-0.1l0.1-0.1l-0.8,0.1V218c-0.5-0.1-1.3-0.2-1.9-0.2h0.1
	c-0.7,0-0.7-0.2-1.2-0.1c0,0,0,0,0,0H128l0.1-0.1c-0.4,0.1-0.9-0.3-0.7-0.1c-0.2,0-0.5,0.1-0.6,0.2c-0.5,0-0.1-0.1-0.4-0.2
	c-0.3,0-0.6,0-0.9,0v-0.1c-0.2,0-0.4,0-0.7,0h0.1c-0.5,0.1-0.6-0.3-1.1,0c-0.2-0.1-0.6-0.1-0.6-0.2c-0.6,0-1.2,0-1.8,0
	c-0.1-0.2-0.1-0.1-0.3-0.1c0,1.3,0.2,2.6,0.8,3.8l0,0c0.4,0,0.2-0.2,0.6-0.1c0.1,0.1-0.1,0-0.1,0.1c1.1,0.3,1.4-0.4,2.5-0.2h-0.1
	c0.2,0,0.5,0,0.5,0c-0.1-0.3-0.2,0.1-0.5-0.1c0-0.2,0.4-0.1,0.4-0.2c0.3,0.1,0.4,0,0.6,0c0.4,0.2,0.9,0.1,1.2,0.3
	c0.3-0.1,0.5-0.2,0.8-0.2c0.3,0.2-0.1,0.1,0.3,0.3l0.1-0.1c0.3,0,0.3,0.1,0.3,0.1c0.3,0,0.3-0.1,0.7,0l-0.3,0.1c0.3,0,0.6,0,0.9,0.1
	c0,0.1-0.2,0-0.3,0c0.2,0.2,0.4,0,0.5,0c0-0.1-0.3-0.1-0.2-0.2s0.5-0.1,0.6,0.1l-0.3,0.1c0.5,0,0.3-0.1,0.8,0c0,0,0,0,0,0.1
	c0.4-0.1,0.8,0.1,1.2,0.2c0.1,0,0.2-0.1,0.3-0.1c-0.3-0.1-0.2-0.1-0.2-0.3c0.3,0.3,0.6-0.1,1.2,0c-0.1,0.1-0.2,0.1-0.3,0
	c0,0,0,0,0,0c-0.2,0.2-0.3,0.4-0.7,0.4c0.2,0,0.5,0,0.4,0.1l0.1-0.2l0.4,0.1c0.1-0.1-0.3-0.3,0.1-0.3s0.2,0.2,0.2,0.1
	c0.5,0,0.2-0.2,0.7,0c0,0-0.1,0-0.2,0c0.3,0.1,0.9,0.1,0.9,0.3c-0.1,0-0.1,0.1-0.2,0.1l0,0c-0.4,0.1,0.3,0,0.2,0.2
	c0-0.1,0.5,0,0.7,0v-0.2c0.8-0.3-0.1,0.3,0.6,0.4c0.5,0-0.2-0.1,0.1-0.1c0.3,0.1,0.5,0.2,0.8,0.3c0.1,0.1,0.3,0.2,0.3,0.4
	c0.3,0,0.8,0.2,1,0.1c-0.4-0.2-0.5,0.1-1-0.2l0.2-0.1c0.4,0,0.7,0.1,1.1,0.2c0,0-0.1-0.1,0-0.1c0.4,0,0.8,0,1.2,0.1
	c0,0.2-0.3,0.1-0.5,0c0.3,0.2,0.3,0.1,0.9,0.2c0,0.1-0.4-0.1-0.4,0l0.6,0.1l0,0c0.1-0.2,0.4,0.1,0.8,0.1c0.5,0.1,1,0,1.5-0.2
	c0.1,0.1,0.1,0.1,0.1,0.2c-0.2-0.1-0.2,0-0.3,0c0.3,0,0.6,0.3,0.4,0.4c0.5,0-0.1-0.1,0.1-0.2s0.4,0.1,0.6,0.2c0-0.1-0.3-0.2,0.1-0.2
	c0.2,0,0.5,0.1,0.7,0.2c-0.1,0,0.1,0.2-0.2,0.1c0.2,0.1,0.4,0.2,0.5,0.1c-0.4-0.2,0.6,0.1,0.4-0.2l0.4,0.2c-0.1,0-0.1,0-0.2,0
	c0.1,0.2,0.3,0,0.5,0s0.5,0.2,0.5,0.2s0.4,0.1,0.5,0.2c0.2,0,0-0.1,0.1-0.1l0.6,0.2c0,0.1,0,0.4-0.1,0.4c0.3,0,0.1-0.2,0.5-0.1
	c-0.2,0.1,0.4,0.3,0.1,0.4c0.3,0.2,0.6,0.3,1,0.4c0.2-0.1-0.3-0.2-0.3-0.3c0.9,0.2,1-0.2,1.7,0l-0.1-0.5c0.2,0,0.4,0,0.6,0
	c-0.2,0.1,0.3,0.6,1,0.8c0.1-0.1-0.3-0.3-0.2-0.4l0.4,0.1c0,0,0,0-0.1,0c0.4,0.1,0.6,0.5,0.8,0.3l0.3,0.4l-0.1-0.1
	c0.1-0.1,0.5,0,0.6,0c0.3,0,0.6,0.1,0.8,0.4c-0.1-0.1-0.2-0.3,0.2-0.2c-0.1,0.3,0.7,0.3,0.6,0.5c0.1,0,0.4,0.2,0.4,0.1l-0.1,0.2
	c0.1-0.2,0.6-0.1,1,0c-0.2,0.3,0.4,0.1,0.5,0.5c0.1-0.2,0.7,0.1,0.9,0c0.3,0.1,0.2,0.3,0.3,0.4h0.2c0.3,0.2,0.6,0.4,1,0.6l0.4-0.1
	l0.1,0.1c0.1,0,0.3,0,0.2-0.1l0.2,0.1c0.1-0.2,0.3,0,0.6,0.1c0.1,0.1,0,0.1-0.1,0.1c0.2,0.1,0.1,0.1,0.1,0.3
	c-0.1-0.1,0.7-0.1,0.3-0.4c0-0.1,0.3-0.1,0.4,0v0.2l0.3-0.1c0.3,0.1,0.3,0.2,0.5,0.3c-0.2-0.1-0.6,0.2-0.1,0.4
	c-0.2-0.1-0.4-0.1-0.6,0c0.1,0,0.2,0.1,0,0.1c0.5,0.1,0.2-0.1,0.6,0.1c-0.1,0.2,0,0.3,0.4,0.5l-0.2-0.2h0.1
	c-0.1-0.1-0.1-0.1-0.1-0.2s0.6,0,0.6,0.1c-0.3-0.4,0.8,0.1,0.6-0.2c0.1,0,0.4,0.1,0.4,0.2c-0.4,0,0.2,0.3,0.1,0.4
	c0.1,0-0.2-0.2,0-0.2c0.2,0.1,0.3,0.2,0.4,0.3h-0.2l0.3,0.2c0.1-0.1-0.3-0.3,0.1-0.2c0.1,0.1,0.4,0.1,0.3,0.2s-0.1,0.3-0.4,0.2
	c0.2,0.1,0.9,0.3,0.7,0l0.3,0.1c-0.1-0.1-0.5-0.4,0-0.3l0,0h0.4l0.1,0.1c0,0,0.1-0.1,0.2,0s0.1,0.1,0.1,0.2c0.4,0.2,0.4,0.1,0.4,0
	s0.3,0.1,0.1,0.2c0.3,0.1,0.6,0.3,0.9,0.5c0.4,0.1-0.1-0.1,0.2-0.1c0.2,0.4,1.2,0.7,1.8,0.9c0-0.3,0.2,0,0.4-0.1
	c-0.2,0,0.5,0.5-0.1,0.3l0.3,0.1c0.2,0.2-0.6-0.1-0.3,0.2c0.4,0.2,0.7,0,1.1,0.3c-0.2,0.1,0.4,0.1,0.2,0.2c-0.1,0-0.2,0-0.4-0.1
	l0.1,0.1c0.8,0.4,0.3-0.1,0.8,0s0.3,0.3,0.3,0.4c0.1,0.1,0.3,0.2,0.5,0.2C172.8,232.7,172.6,232.4,172.8,232.3z"/>
<path d="M114.3,76.2l-0.1,0.1L114.3,76.2z"/>
</svg>
