<?xml version="1.0" encoding="utf-8"?>
<!-- Generator: Adobe Illustrator 25.0.1, SVG Export Plug-In . SVG Version: 6.00 Build 0)  -->
<svg version="1.1" id="Layer_1" xmlns="http://www.w3.org/2000/svg" xmlns:xlink="http://www.w3.org/1999/xlink" x="0px" y="0px"
	 width="305.5px" height="148.73px" viewBox="0 0 305.5 148.73" style="enable-background:new 0 0 305.5 148.73;"
	 xml:space="preserve">
<style type="text/css">
	.st0{fill:#333333;}
</style>
<path class="st0" d="M207.41,120.41c0,1.54-1.25,2.79-2.79,2.79c-1.54,0-2.79-1.25-2.79-2.79c0-1.54,1.25-2.79,2.79-2.79
	C206.17,117.63,207.41,118.87,207.41,120.41z"/>
<path class="st0" d="M33.72,145.95c0,1.54-1.25,2.79-2.79,2.79c-1.54,0-2.79-1.25-2.79-2.79c0-1.54,1.25-2.79,2.79-2.79
	C32.48,143.16,33.72,144.41,33.72,145.95z"/>
<path class="st0" d="M281.71,5.94c0,1.54-1.25,2.79-2.79,2.79c-1.54,0-2.79-1.25-2.79-2.79c0-1.54,1.25-2.79,2.79-2.79
	C280.47,3.15,281.71,4.4,281.71,5.94z"/>
<path class="st0" d="M208.73,0.68c-0.99,0.28-0.91,1.95,0.28,1.94c0.45,0,0.93-0.02,1.27-0.36c0.36-0.36,0.39-0.83,0.39-1.31
	C210.67-0.22,209-0.31,208.73,0.68z"/>
<path class="st0" d="M36,10.29v0.67c0,1.29,2,1.29,2,0v-0.67C38,9,36,9,36,10.29z"/>
<path class="st0" d="M2.34,125.96c-1.28,0.08-2.25,1.06-2.33,2.33c-0.04,0.54,0.48,1,1,1c0.57,0,0.96-0.46,1-1
	c0.01-0.13,0.2-0.32,0.33-0.33c0.54-0.04,1-0.43,1-1C3.34,126.44,2.88,125.92,2.34,125.96z"/>
<path class="st0" d="M259,92.63h-0.85c-1.29,0-1.29,2,0,2H259C260.29,94.63,260.29,92.63,259,92.63z"/>
<path class="st0" d="M303.21,108.26c-2.29-4.23-5.61-7.68-7.8-11.9c-0.35,0.58-0.7,1.16-1.05,1.75c-1.3,2.69-2.82,5.26-4.62,7.7
	c-0.92,1.25-2.96,0.15-2.12-1.24c1.55-2.58,3.1-5.17,4.65-7.75c0.66-1.38,1.28-2.79,1.79-4.26c0.26-0.73,1-1.01,1.6-0.81
	c0.93-0.3,2.12,0.68,1.47,1.76c-0.07,0.11-0.13,0.22-0.2,0.33c2,4.9,5.9,8.56,8.4,13.19C306.09,108.42,303.97,109.66,303.21,108.26z
	 M292.21,114.01c0.59-1.16,1.22-2.28,1.88-3.39c0.62-0.85,1.28-1.68,1.93-2.5c0.78,1.14,1.55,2.27,2.32,3.41
	c0.71,1.05,2.08,2.54,2.28,3.82c0.25,1.56,2.62,0.9,2.37-0.65c-0.22-1.39-1.49-2.84-2.23-3.97c-1.15-1.74-2.35-3.44-3.51-5.16
	c0.5-1.23-1.43-2.24-2.25-1.01c-1.19,1.78-2.33,3.58-3.39,5.42c-0.58,0.86-1.09,1.76-1.5,2.73c-0.01,0.02-0.02,0.03-0.03,0.05l0,0
	c-0.04,0.1-0.09,0.19-0.13,0.29C289.46,114.37,291.59,115.24,292.21,114.01z M296.31,116.05c-0.39-0.52-0.99-0.7-1.51-0.5
	c-0.51-0.24-1.13-0.16-1.43,0.5c-0.51,1.11-0.89,2.27-1.27,3.42c-0.88,1.6-1.64,3.26-2.14,5.07c-0.38,1.37,1.52,2.13,2.25,0.95
	c0.94-1.52,1.48-3.17,2.03-4.82c0.34-0.62,0.71-1.24,1.09-1.85c1.98,2.66,3.9,5.36,5.42,8.31c0.73,1.41,2.85,0.16,2.12-1.24
	C301.06,122.37,298.68,119.21,296.31,116.05z"/>
<path d="M226.85,63.66c-0.38-1.3-1.52-2.41-2.96-2.11c-1.98,0.42-3.27,2.63-4.22,4.22c-0.02,0.04-0.02,0.07-0.04,0.11
	c-3.5-0.83-6.75-1.24-10.18,0.27c-0.66,0.29-0.69,1.13-0.44,1.68c2.15,4.83,7.41,7.12,12.12,8.73c0.28,0.79,1.62,1.21,2.31,0.29
	C226.03,73.39,228.13,68.02,226.85,63.66z M222.15,74.39c-0.09-0.06-0.16-0.12-0.27-0.16c-3.72-1.27-7.84-2.97-10.03-6.36
	c2.57-0.71,5.13-0.12,7.74,0.53c0.74,0.18,1.26-0.27,1.45-0.83c0.29-0.06,0.56-0.23,0.76-0.56c0.46-0.76,1.53-3,2.62-3.05
	c0.08,0,0.3,1.92,0.3,2.31C224.73,69.12,223.68,71.97,222.15,74.39z"/>
</svg>
