
<svg version="1.1" xmlns="http://www.w3.org/2000/svg" xmlns:xlink="http://www.w3.org/1999/xlink" x="0px" y="0px"
	 width="172.44px" height="113.94px" viewBox="0 0 172.44 113.94">
<style type="text/css">
	.st0{fill:#FFEB74;}
	.st1{clip-path:url(#SVGID_2_);}
</style>
<rect x="34.55" y="25.57" class="st0" width="117.49" height="70.75"/>
<g>
	<defs>
		<rect id="SVGID_1_" width="172.44" height="113.94"/>
	</defs>
	<clipPath id="SVGID_2_">
		<use xlink:href="#SVGID_1_"  style="overflow:visible;"/>
	</clipPath>
	<path class="st1" d="M24.78,14.89c-1.53-0.8-2.62-2.07-2.67-3.86c-0.05-1.58-2.51-1.59-2.46,0c0.08,2.63,1.58,4.78,3.89,5.98
		C24.94,17.75,26.19,15.63,24.78,14.89"/>
	<path class="st1" d="M67.22,1.19v8.2c0,1.59,2.46,1.59,2.46,0v-8.2C69.68-0.4,67.22-0.4,67.22,1.19"/>
	<path class="st1" d="M125.82,5.24c-2.88,2.84-5.99,5.34-9.6,7.19c-1.41,0.73-0.17,2.85,1.24,2.13c3.78-1.94,7.08-4.6,10.09-7.57
		C128.7,5.87,126.95,4.13,125.82,5.24"/>
	<path class="st1" d="M170.34,20.35c-2.88,2.84-5.99,5.34-9.6,7.19c-1.41,0.73-0.17,2.85,1.24,2.13c3.78-1.94,7.08-4.6,10.09-7.57
		C173.21,20.98,171.47,19.24,170.34,20.35"/>
	<path class="st1" d="M168.13,111.06c-2.86-1.96-5.34-4.69-6.94-7.76c-0.74-1.41-2.86-0.16-2.12,1.24c1.8,3.45,4.62,6.44,7.82,8.64
		C168.2,114.08,169.43,111.95,168.13,111.06"/>
	<path class="st1" d="M30.48,96.54c-0.78,1.43-2.09,2.62-3.22,3.78c-1.68,1.71-3.46,3.35-5.36,4.81c-1.24,0.95-0.02,3.09,1.24,2.12
		c1.94-1.48,3.76-3.12,5.5-4.83c1.41-1.38,3.01-2.89,3.96-4.63C33.37,96.39,31.24,95.15,30.48,96.54"/>
	<path class="st1" d="M9.72,54.14c-2.76-0.84-5.67-0.86-8.53-0.86c-1.59,0-1.59,2.46,0,2.46c2.65,0,5.32-0.01,7.88,0.78
		C10.59,56.98,11.23,54.61,9.72,54.14"/>
	<path class="st1" d="M76.25,102.91v7.38c0,1.59,2.46,1.59,2.46,0v-7.38C78.71,101.32,76.25,101.32,76.25,102.91"/>
	<path class="st1" d="M169.97,67.41c-2.4,0-4.74-0.06-7.06-0.78c-1.52-0.47-2.16,1.9-0.65,2.37c2.51,0.78,5.1,0.86,7.71,0.86
		C171.56,69.88,171.56,67.41,169.97,67.41"/>
	<path class="st1" d="M114.38,105.36v7.38c0,1.59,2.46,1.59,2.46,0v-7.38C116.84,103.78,114.38,103.78,114.38,105.36"/>
</g>
</svg>
