<svg version="1.1" xmlns="http://www.w3.org/2000/svg" xmlns:xlink="http://www.w3.org/1999/xlink" x="0px" y="0px"
	 width="117.19px" height="14.51px" viewBox="0 0 117.19 14.51">
<style type="text/css">
	.st0{fill:#f66785;}
</style>
	<path class="st0" d="M0.2,14.1c0.1-0.05,0.13-0.08,0-0.06c0.05-0.01,0.09-0.01,0.14,0c0.12-0.08,0.08-0.08,0.15-0.14
		c0.21-0.08,0.42-0.18,0.61-0.3c0.27-0.07,0.52-0.18,0.76-0.31c0,0.08-0.38,0.2-0.39,0.27c0.34-0.15,0.68-0.31,1-0.5
		c0.13,0,0.26-0.05,0.35-0.14c0.1,0,0.06,0.06-0.08,0.14c0.06,0,0.11-0.05,0.17-0.06c0.06-0.01,0.14-0.13,0-0.09
		c0.24-0.07,0.47-0.24,0.72-0.32c-0.31,0.16-0.5,0.29-0.57,0.33c0.25-0.1,0.49-0.21,0.72-0.35c0,0,0.26-0.06,0.39-0.12
		c0.13-0.06-0.05,0,0,0l0.1-0.05h0.05c0.29-0.11,0.57-0.26,0.86-0.38c-0.31,0.14-0.4,0.21-0.68,0.34c0.25-0.06,0.49-0.19,0.73-0.26
		c0.08-0.06-0.11,0-0.14,0c0.05-0.04,0.11-0.07,0.17-0.09h0.22c0.16,0,0,0,0.1-0.08l-0.11,0.05c-0.08,0-0.08-0.06-0.14,0
		c-0.22,0,0-0.08,0.16-0.13c-0.17,0.1,0.21,0,0.08,0c0.1,0,0.18-0.11,0.28-0.14c0.1-0.03-0.14,0.11-0.24,0.16
		c-0.1,0.05,0.1,0,0,0.06c0.13,0,0.25-0.11,0.38-0.14c0.13-0.03-0.13,0.08-0.2,0.15c0.14,0,0.26-0.11,0.39-0.12
		c0.13-0.01-0.16,0.05-0.22,0c0.1-0.05,0.21-0.08,0.32-0.11c-0.16,0-0.08,0,0-0.08l0.1-0.05c0.16,0-0.08,0.07,0.08,0
		c0.16-0.07,1-0.39,0.91-0.3c-0.09,0.09,0.21-0.09,0.2-0.13h0.19c-0.17,0.06-0.34,0.16-0.52,0.21c0.26-0.06,0.5-0.14,0.74-0.25
		c0.07,0-0.05,0.05,0.07,0c0.16-0.1,0.34-0.17,0.53-0.21c0-0.05,0.16-0.1,0.05-0.11c0.11,0,0.23-0.11,0.42-0.15
		c-0.11,0,0.28-0.13,0.27-0.17c0.26-0.08-0.14,0.1,0.05,0.06c0.09-0.07,0.2-0.12,0.31-0.15v0.08c-0.35,0.16-0.71,0.26-1,0.41
		c0.09,0,0.16-0.08,0.25-0.07c0.44-0.27,0.91-0.3,1.35-0.55c0.45-0.1,1.27-0.42,1.5-0.41l0.43-0.12c0.07-0.09,0.32-0.12,0.49-0.19
		c0.17-0.07,0,0,0,0s0.26-0.13,0.25-0.09c0.39-0.18,0.78-0.22,1.17-0.38c-0.11,0,0.08-0.07,0.14-0.1c0.06-0.03-0.14,0.09-0.1,0.1
		c0.34-0.1,0.67-0.21,1-0.34c0,0.07,0.4-0.05,0.47-0.12s0.14,0,0.21,0c0.17-0.15,0.91-0.25,1.31-0.46c0.32,0,0.88-0.35,1.15-0.31
		l-0.33,0.09c0.25-0.04,0.49-0.11,0.73-0.18c0.11,0,0.53-0.07,0.54-0.13c0.01-0.06,0.14,0,0.22,0c0.25-0.1,0.5-0.13,0.75-0.24
		c0.25-0.11,0.94-0.21,1.41-0.33c6.1-1.46,12.28-2.56,18.51-3.3c1.56-0.16,3.13-0.27,4.69-0.41c1.56-0.14,3.13-0.31,4.7-0.32
		c3.15-0.08,6.29-0.26,9.44-0.1H58.9c-0.92-0.09-1.89,0-2.82-0.09c-0.09,0.01-0.18,0.01-0.27,0h0.12h-0.45c-0.14,0,0,0-0.09,0.07
		c-0.52-0.06-1.04-0.06-1.56,0c-0.42-0.02-0.85-0.02-1.27,0c0,0-0.05,0,0,0c-0.66,0.06-1.58,0-2,0.1h-0.14h0.07
		c-0.84,0-1.52,0.09-2.38,0c-0.23,0.05-0.47,0.06-0.71,0.06c-0.24,0.05-0.49,0.07-0.74,0.07c-0.29,0.06-0.59,0.09-0.89,0.07
		c-0.17,0,0.09,0-0.08,0.05s-0.23,0-0.14,0c-0.21,0.06-0.4,0-0.6,0.08c-0.2,0.08,0,0,0,0c-0.26,0.06-0.52,0.05-0.78,0.1
		c0-0.07,0,0-0.22,0h-0.19h-0.1c-0.18,0.08-0.54,0-0.9,0.12c-0.06,0-0.06,0,0,0c-0.44,0.05-1.45,0.11-1.56,0.16
		c-0.23,0-0.45,0.02-0.67,0.07c-0.22-0.02-0.45,0-0.66,0.07l-4.09,0.55H35.7h-0.33c-0.76,0.17-1.84,0.2-2.72,0.43h-0.11
		c-0.34,0.08-0.68,0.17-1,0.22c0,0,0.1,0.08-0.22,0.16c-0.1,0,0-0.05-0.22,0c-0.22,0.05,0.19-0.1,0.25-0.07c0.06,0.03-0.24,0-0.21,0
		c-0.47,0-0.93,0.21-1.39,0.23c-0.19,0.09-0.41,0.14-0.62,0.12c-0.08,0,0,0,0,0c-0.41,0.05-0.83,0.15-1.24,0.2v0.05
		c-0.6,0.09-1.41,0.31-1.86,0.32c-0.66,0.09-1.3,0.32-1.95,0.43c-0.46,0.15-1.22,0.31-1.8,0.45c-0.14,0.06,0,0-0.11,0.09h-0.14
		c0.13-0.13-0.45,0.07-0.65,0.09c-0.2,0.02,0.16,0,0.21,0c0.05,0-0.16,0.07-0.21,0.09c-0.37,0.03-0.73,0.09-1.09,0.19
		c-0.13,0.06,0,0-0.1,0.09c-0.1,0.09-0.1,0-0.14,0s0-0.05,0.1-0.07c-0.11,0-0.22,0.03-0.32,0.09c0,0,0.12,0,0,0h0.22
		c-0.12,0.07-0.24,0-0.36,0.13c-0.12,0-0.24,0.01-0.36,0.05c0,0,0.23-0.05,0.32-0.1c-0.24,0,0.1-0.05,0.18-0.09
		c-0.22,0.03-0.44,0.07-0.66,0.13h0.08c-0.04,0.01-0.07,0.01-0.11,0h0.08c-0.18,0.09-0.36,0.12-0.54,0.21c-0.18,0.09-0.17,0-0.15,0
		c-0.15,0.07-0.3,0.12-0.46,0.16c-0.09,0,0.11-0.07,0.14-0.09c0.03-0.02-0.22,0.08-0.18,0.09c0.04,0.01-0.21,0-0.32,0.09
		c-0.11,0.09,0.08-0.06-0.07,0c-0.15,0.06-0.7,0.3-0.71,0.24c-0.16,0.03-0.31,0.09-0.46,0.17c-0.2,0-0.48,0.17-0.57,0.13
		c-0.17,0.16-0.66,0.16-0.95,0.33s-0.6,0.19-0.89,0.26c-0.11,0,0.18-0.06,0,0c-0.46,0.24-1,0.27-1.41,0.47h0.18c0.07,0-0.05,0,0,0
		c-0.21,0.06-0.43,0.08-0.64,0.15h0.1c0.04,0-0.16,0-0.2,0.1s-0.06,0-0.15,0c-0.09,0-0.57,0.15-0.85,0.31c-0.13,0-0.13,0,0-0.07
		c-0.09,0.02-0.19,0.04-0.28,0.07h0.11c-0.09,0.05-0.18,0.1-0.27,0.14c-0.06,0,0,0,0.06-0.08c-0.24,0.11-0.48,0.21-0.73,0.29
		c0,0,0.07-0.07-0.08,0c-0.35,0.19-0.72,0.36-1.1,0.5c-0.08,0-0.36,0.11-0.15,0c-0.15,0.05-0.16,0.07-0.16,0.11
		c0,0.04-0.2,0-0.39,0.1c0.07,0,0.14-0.05,0.21-0.06c0.07-0.01,0,0,0,0c-0.35,0.1-0.68,0.24-1,0.42c0-0.05,0,0-0.16,0h0.12
		c-0.17,0.14-0.38,0.1-0.55,0.23s0.07-0.09-0.05-0.08c-0.12,0.01-0.05,0.09-0.09,0.14c-0.04,0.05-0.14,0-0.21,0.06
		c-0.07,0.06,0.05-0.05,0.1-0.08c-0.13,0-0.31,0.13-0.24,0.14c-0.26,0-0.24,0.08-0.43,0.09c-0.15,0.09-0.32,0.15-0.49,0.19
		c0,0,0.11,0,0,0.09h0.18c0.13-0.05,0.05-0.07,0.21-0.08c0.16-0.01,0,0,0,0c0.22-0.08,0.88-0.36,0.78-0.22
		c0.07,0,0.13-0.09,0.2-0.12c0.07-0.03,0,0.05-0.09,0.12c0.07,0,0.43-0.16,0.27-0.14c0.15-0.06,0.3-0.13,0.45-0.2
		c0.06,0-0.14,0.09-0.1,0.1c0.04,0.01,0.47-0.22,0.39-0.11c0.09,0,0.12-0.07,0.07-0.06c0.12-0.06,0.25-0.1,0.38-0.12v-0.06
		c0.08-0.03,0.16-0.06,0.24-0.1v0.06c0.29-0.15,0.59-0.27,0.9-0.37c0.09,0-0.1,0.05-0.13,0.09c-0.03,0.04,0.2-0.1,0.32-0.1
		c-0.13,0.08-0.27,0.13-0.42,0.15c-0.1,0.11-0.48,0.17-0.69,0.3c0.46-0.16,0.87-0.33,1.25-0.47c0.07-0.06-0.11,0-0.14,0
		c0.21-0.13,0.24,0,0.45-0.14l-0.21,0.06c0.08-0.08,0.19-0.06,0.27-0.14c0.08-0.08,0,0,0,0l0.18-0.06c0.3-0.16,0.61-0.28,0.93-0.37
		c0.07,0-0.16,0-0.2,0.1c0.47-0.19,0.95-0.34,1.44-0.47c0,0-0.05,0-0.1,0.08c0.16,0,0.27-0.1,0.25-0.12c0.21-0.08,0,0.05,0.22,0
		c0.22-0.05-0.15,0-0.05-0.05c0.29-0.12,0.59-0.21,0.89-0.27c0.1-0.1,0.23-0.11,0.42-0.19s0,0,0.15,0c0.22-0.1,0.44-0.18,0.67-0.24
		c0.05,0-0.19,0.08-0.25,0.1c0.21-0.04,0.41-0.11,0.6-0.22c0.14,0,0,0.05,0.11,0c-0.09,0.06-0.25,0.09-0.24,0.12
		c0.38-0.11,0.76-0.26,1.12-0.43c0.21,0-0.11,0.09,0.05,0.07c0.37-0.14,0.75-0.25,1.13-0.33c0.13-0.07,0.28-0.12,0.43-0.13
		c0.06,0-0.06,0,0.06-0.08c0.28,0,0.91-0.32,1-0.24c0.44-0.12,1.07-0.23,1.4-0.36c0.33-0.13,0.45-0.12,0.68-0.12
		c0.23,0,0.32-0.08,0.47-0.18c0.15-0.1,0,0,0.15,0c0.83-0.21,1.67-0.45,2.51-0.61c0,0,0.11-0.07,0,0c0.7-0.14,1.39-0.31,2.09-0.5
		c0.17-0.03,0.34-0.06,0.51-0.07c0,0-0.05,0,0,0c0.27-0.02,0.54-0.07,0.8-0.15h0.22c0.74-0.19,1.48-0.3,2.22-0.42
		c1.28-0.2,2.56-0.52,3.85-0.7c0.2-0.08,1.09-0.15,1.66-0.23c0.25-0.05,0.51-0.08,0.77-0.09h0.15c0.14,0,0.47-0.09,0.73-0.07
		c0.61-0.14,1.5-0.19,2.24-0.34h0.14c0.48-0.1,0.95-0.16,1.42-0.22c0.47-0.06,0.95-0.07,1.42-0.14c0.47-0.07,0.85-0.09,1.26-0.07
		c0.25-0.07,0.49,0,0.74-0.09c0.69,0,1.38-0.1,2.07-0.17l2.29-0.19c0.77,0,1.54-0.06,2.3-0.07h0.16c0.06,0,0.06,0,0,0l2,0.16h0.14
		c0.15,0,0.06-0.06,0.3,0h-0.12c0.09,0.02,0.18,0.02,0.27,0l2.25-0.06l2.24,0.05L62.5,3.6c1.48,0,3,0.18,4.45,0.27
		c1.45,0.09,3,0.19,4.48,0.35h0.11c0.81,0.14,1.64,0.17,2.44,0.34h0.3c0.22,0,0.44,0.03,0.66,0.08h0.16
		c0.28,0.06,0.56,0.09,0.85,0.11c1.37,0.15,2.73,0.38,4.07,0.68h0.16c0.24,0.09,0.49,0.13,0.74,0.14c0.06,0,0,0,0.09,0.06
		c0.11-0.02,0.23,0,0.33,0.06c0.42,0.04,0.84,0.12,1.25,0.22c0.06,0,0.06,0,0,0h0.34c0.11,0.01,0.23,0.01,0.34,0c0.07,0,0,0,0,0
		c0.2,0.01,0.4,0.03,0.6,0.07c0.09,0.07-0.13,0-0.24,0l1.35,0.19l0.17,0.08c-0.05,0,0.1,0-0.06-0.05c0.21,0,0.39,0.05,0.68,0.07
		c0,0,0.3,0.09,0.12,0.08c0.12,0,0.14,0,0.37,0.08c0.23,0.08-0.08-0.05-0.13-0.06c0.27,0,0.5,0.12,0.78,0.14h-0.09
		c-0.04,0,0.15,0,0.21,0.07c0.06,0.07,0.13,0,0.28,0c0.6,0.22,1.36,0.24,1.88,0.47c0.25,0.01,0.51,0.05,0.75,0.12
		c0,0.05-0.31-0.07-0.45-0.07l0.17,0.07c-0.22,0-0.44,0-0.65-0.08c0-0.08-0.54-0.14-0.66-0.16c0.49,0.17,1,0.28,1.51,0.33h-0.13
		c0.23,0.05,0.69,0.17,0.73,0.1s0.07,0.06,0.16,0.09c0.43,0.06,0.69,0.13,1.17,0.19c0.56,0.16,1.13,0.28,1.7,0.35
		c0.35,0.1,0.71,0.18,1.07,0.24c0.68,0.26,2,0.44,2.8,0.84c-0.18-0.17,0.56,0.12,0.55,0c0.18,0.07,0.42,0.05,0.58,0.16
		c0.77,0.15,1.53,0.39,2.25,0.71h0.19c0.12,0.03,0.24,0.08,0.34,0.15c0.12,0.01,0.23,0.04,0.33,0.09h0.25c0.09,0-0.15,0-0.21-0.08
		c0.62,0.16,1.21,0.4,1.77,0.71c0.18-0.01,0.36,0.04,0.52,0.13c0.57,0.08,1.13,0.21,1.67,0.39l0.18,0.13c0-0.08,0.33,0.08,0.5,0.11
		c0.47,0.17,0.95,0.31,1.43,0.43c0.56,0.21,1.14,0.38,1.72,0.53c0.44,0.18,0.89,0.34,1.35,0.47c0.5,0.15,0.95,0.3,1.36,0.38
		c-0.14-0.06-0.12-0.08-0.18-0.13c0.11,0,0.19,0.07,0.29,0.09c-0.12-0.05-0.23-0.1-0.33-0.17c-0.19,0-0.45-0.23-0.53-0.2
		c-0.08,0.03-0.14-0.1-0.22-0.15s-0.44-0.18-0.66-0.28c0.2,0.06,0.41,0.12,0.62,0.16c-0.97-0.45-1.97-0.82-3-1.1
		c-0.1-0.03-0.19-0.07-0.27-0.13v0.05l-0.33-0.1c-0.24-0.13-0.51-0.2-0.79-0.2c-0.09-0.07,0.07,0,0.18,0c-0.1,0-0.24-0.11-0.22-0.13
		c0.2,0,0.21,0.08,0.35,0.07c-0.07,0-0.19,0-0.25-0.09c-0.06-0.09-0.06,0-0.17,0l-0.14-0.05h0.19c0.04,0,0.07,0,0.11,0
		c-0.1,0,0.21,0.1,0.35,0.14c0.14,0.04,0,0,0.08,0.08c0.32,0.1,0.42,0,0.71,0.14c0,0-0.27,0-0.37-0.05c0.13,0.05,0.4,0.14,0.35,0.07
		c0.35,0.14,0.7,0.26,1.07,0.33c-0.22-0.09-0.44-0.15-0.67-0.2c0.29,0.02,0.56,0.1,0.81,0.25c0.29,0.06,0.57,0.16,0.82,0.31
		c0.88,0.27,1.68,0.67,2.55,1c-0.18-0.09-0.35-0.2-0.51-0.31c-0.2-0.07-0.4-0.16-0.57-0.29h-0.08c-0.08,0-0.3-0.14-0.43-0.23
		c-0.13-0.09,0,0,0.13,0c-0.16-0.11-0.37-0.16-0.54-0.26c-0.17-0.1,0.09,0,0-0.06c-0.25-0.11-0.5-0.21-0.76-0.29
		c-0.06-0.08,0.31,0,0.44,0.09c-0.05-0.03-0.1-0.06-0.15-0.1c-0.15,0-0.21-0.11-0.3-0.1c-0.09,0.01,0,0-0.08-0.08
		c-0.24-0.08-0.48-0.17-0.71-0.27c-0.23-0.1-0.11,0,0,0.06c-0.08-0.01-0.16-0.03-0.24-0.06c-0.03-0.04-0.06-0.09-0.08-0.14
		c0.28,0.11,0.57,0.17,0.87,0.18c0.44,0.15,0.87,0.34,1.28,0.56c-0.07-0.11,0.24,0.06,0.41,0.14c0.17,0.08-0.18-0.09-0.26-0.09
		c0.19,0.09,0.38,0.16,0.58,0.21c0.12,0.08-0.1,0,0.08,0.08c0.27,0.07,0.54,0.17,0.78,0.31c0.26,0.08,0.51,0.18,0.76,0.29
		c0.06,0-0.24-0.13-0.33-0.18c0.44,0.13,0.87,0.32,1.27,0.54c0.32,0.07,1.28,0.58,1.44,0.49c0.24,0.13,0.37,0.11,0.57,0.22h-0.14
		c0.4,0.19,0.83,0.29,1.27,0.3c-0.12-0.09-0.33-0.21-0.25-0.22c-0.28-0.17-0.75-0.38-0.78-0.51c-0.03-0.13-0.41-0.15-0.47-0.12
		c0.05,0.03,0.1,0.04,0.15,0.05c0.05,0.06,0,0-0.13,0c-0.08-0.07-0.16-0.13-0.26-0.16c-0.09-0.06,0-0.06,0.08,0
		c-0.09,0-0.18-0.08-0.19-0.06c-0.33-0.19-0.69-0.34-1.06-0.45c-0.38-0.22-0.8-0.38-1.23-0.46l-0.06-0.05
		c0.28,0.05,0.55,0.12,0.82,0.2c-0.05-0.05-0.14-0.06-0.19-0.12c-0.64-0.19-1-0.38-1.6-0.59c0.22,0.09,0.45,0.16,0.69,0.2
		c-0.08-0.06-0.19-0.08-0.27-0.14c-0.08-0.06-0.07,0-0.19-0.06c-0.12-0.06,0,0.06,0,0.06s-0.66-0.29-0.6-0.19
		c-0.1,0,0-0.06-0.16-0.1c-0.16-0.04,0.15,0,0.1,0c-0.05,0-0.29-0.07-0.26,0c0.03,0.07-0.05-0.08-0.13-0.13c-0.08-0.05-0.1,0-0.22,0
		c-0.12,0-0.11-0.08,0-0.06c-0.14-0.08-0.13,0-0.17,0c-0.07-0.04-0.13-0.08-0.18-0.14c0.09,0.02,0.18,0.05,0.27,0.08
		c-0.19-0.12-0.31-0.11-0.32-0.07c-0.21-0.11-0.44-0.19-0.67-0.22c-0.17-0.09,0.05,0,0-0.09l0.44,0.16
		c-0.12-0.09-0.1-0.11,0.06-0.08c-0.08-0.06-0.18-0.08-0.19-0.06c-0.01,0.02-0.16-0.08-0.18-0.14c-0.23-0.04-0.45-0.11-0.66-0.21
		c0,0,0.21,0,0.25,0.09c0.04,0.09,0,0,0,0h0.08c-0.14-0.07-0.28-0.12-0.43-0.15c-0.06-0.06,0-0.06,0-0.11
		c-0.08,0.01-0.16,0.01-0.24,0c-0.12-0.07-0.07-0.07-0.14-0.12c-0.04-0.01-0.09-0.01-0.13,0c-0.09-0.06,0,0-0.11-0.1
		c-0.11-0.1-0.44-0.16-0.65-0.24c-0.21-0.08,0.09,0,0.21,0c-0.09-0.06-0.23-0.06-0.31-0.13c-0.08-0.07-0.1,0-0.06,0
		c-0.5-0.23-1.07-0.37-1.58-0.59v0.06c-0.09-0.01-0.18-0.04-0.27-0.07c-0.07-0.17-0.71-0.24-1-0.38c0.15-0.07,0.51,0.11,0.82,0.18
		c-0.14-0.09-0.35-0.1-0.37-0.18h-0.24c-0.04-0.02-0.07-0.05-0.09-0.08c0.1,0.02,0.2,0.06,0.3,0.1c0-0.06,0.1,0,0.14,0
		c-0.13-0.12-0.38-0.06-0.51-0.18l-0.54-0.06c-0.13-0.08,0-0.07,0-0.06c-0.11-0.06-0.23-0.12-0.35-0.16h-0.18
		c0.07,0,0.16,0,0.21,0.1c-0.13-0.03-0.25-0.08-0.36-0.14l-0.36-0.07c0-0.06,0.09,0-0.15-0.1c-0.24-0.1,0.1,0,0-0.09
		c-0.1-0.09-0.28,0-0.53-0.07l-0.63-0.27c-0.23,0-0.46-0.02-0.69-0.07c-0.15-0.08,0.14,0,0.11,0c-0.29-0.07-0.59-0.11-0.89-0.1
		c0.23,0.07,0.47,0.11,0.71,0.11c0,0,0.25,0.05,0.17,0c0.28,0.16,1,0.15,1.32,0.41c-0.41-0.07-0.81-0.18-1.2-0.32
		c-0.43-0.04-0.86-0.13-1.26-0.29c0.16,0,0.25,0,0.3-0.06h-0.32c-0.28-0.19-0.47-0.1-0.74-0.28c-0.27-0.18-0.24,0-0.57-0.12
		c0.09,0,0,0,0,0.05C99,6.9,98.9,6.88,98.8,6.86c-0.16-0.08,0.06,0,0.17,0c-0.15-0.06-0.3-0.1-0.46-0.1
		c-0.15-0.03-0.3-0.08-0.43-0.15c-0.2-0.08-0.45-0.07-0.64-0.16c-0.19-0.09,0.12-0.06,0.25-0.06c-0.26-0.08-0.4-0.06-0.75-0.18
		c-0.12-0.08-0.05-0.06-0.2-0.11c-0.15-0.05,0.22,0.09,0.08,0.08c0.11,0.04,0.22,0.08,0.33,0.1c0,0.06,0,0,0.2,0.1h-0.09
		c-0.09,0-0.17-0.11-0.27-0.13c-0.1-0.02-0.09,0-0.06,0s-0.23-0.09-0.36-0.12s0,0,0.09,0c0.09,0,0,0,0.1,0.06
		c0.1,0.06,0.09,0,0-0.08c-0.52-0.07-1.03-0.17-1.54-0.3c-0.05,0-0.1-0.06-0.06-0.06c-0.23-0.02-0.46-0.06-0.69-0.12
		c0-0.05,0.39,0,0.37,0c-0.02,0,0.19,0.08,0,0c-0.42-0.08-0.81-0.15-1.13-0.24c-0.1-0.09,0.4,0.07,0.42,0
		c-0.15,0-0.19-0.07-0.27-0.05c-0.62-0.16-1.25-0.29-1.89-0.39c-0.1-0.05,0.3,0,0.11,0c-0.15,0.02-0.29,0.02-0.44,0
		c0.1,0.04,0.21,0.07,0.32,0.09c-0.22-0.07-0.45-0.12-0.68-0.15c-0.06,0,0,0-0.09-0.07c-0.18-0.03-0.36-0.06-0.53-0.11
		c-0.06,0-0.05,0,0-0.05c0.05-0.05-0.19,0-0.26-0.07c-0.07-0.07-0.05,0,0,0c-0.68-0.19-1.14-0.3-1.82-0.45h0.1
		c-0.11,0-0.23,0-0.34-0.08c-0.11-0.08,0.06,0.06-0.1,0c-0.16-0.08-0.34-0.12-0.52-0.12c-0.09-0.05,0,0-0.12-0.09
		c-0.12-0.09,0,0.05-0.07,0.05c-0.07,0-0.17,0-0.44-0.11c-0.1,0,0,0-0.13-0.08s0,0,0,0c-0.24,0-0.73-0.18-0.7-0.23
		c-0.37-0.05,0.26,0.1,0,0.11C86,3.6,86.18,3.54,86.02,3.49c-0.16-0.05-0.39-0.08-0.48,0c-0.09,0.08-0.35-0.07-0.39-0.13h-0.2
		c0.12,0.08,0.06,0,0.18,0.05c-0.12,0-0.66-0.12-1-0.14c0.06,0,0-0.06,0.21,0c-0.24-0.1-0.32,0-0.59-0.05
		c-0.16-0.07-0.34-0.1-0.52-0.09C83.03,3.05,82.81,3,82.6,2.98h0.28c0.08,0,0.12,0,0.07-0.06c-0.22,0-0.52-0.05-0.72,0
		c-0.1-0.03-0.19-0.06-0.29-0.08c-0.07-0.07,0.45,0.08,0.18,0c0.12,0,0.21,0.05,0.34,0c-0.1-0.06-0.43-0.06-0.4-0.11
		c-0.15-0.01-0.31-0.02-0.46-0.05c0-0.06-0.22,0-0.4-0.12s-0.46-0.06-0.69-0.08c0,0,0.16,0.1,0.28,0.1c0,0.05-0.35-0.05-0.49-0.08
		c-0.14-0.03,0.08,0,0.13,0c0.05,0-0.12-0.05-0.12-0.09s-0.22,0-0.44,0c0.07,0.06,0.18,0,0.25,0.08c-0.13-0.01-0.25-0.03-0.37-0.08
		h0.12h-0.1c-0.13-0.06-0.06,0-0.19,0c0,0,0.1,0.07,0,0.08c-0.1,0.01,0,0-0.13-0.08c-0.13-0.08-0.07,0-0.06,0
		c-0.06-0.01-0.13-0.01-0.19,0c-0.18-0.07,0.14,0,0-0.11c-0.14-0.11-0.12,0-0.1,0.05c-0.14,0-0.24-0.07-0.38,0
		c-0.14,0.07-0.09-0.05-0.17-0.09c-0.17,0-0.33-0.02-0.49-0.06c-0.19,0.02-0.39,0-0.58-0.05c-0.1,0,0.21,0,0,0
		c-0.21,0.01-0.41-0.01-0.61-0.06h-0.06c-0.12,0,0,0-0.2-0.1s-0.14,0-0.16,0c-0.34-0.14-0.77-0.06-1.13-0.17
		c-0.16,0.02-0.32,0.02-0.48,0c-0.08-0.03-0.16-0.05-0.25-0.06h0.32c-0.19-0.03-0.39-0.03-0.58,0c-0.18,0-0.09-0.05-0.2-0.1
		s-0.24-0.05-0.31,0l-0.14-0.05c0.05,0.05-0.35,0-0.49-0.07c-0.14,0.04-0.28,0.04-0.42,0c-0.17,0,0,0,0.06,0.05
		c-0.09,0-0.18,0-0.27,0c-0.13-0.06,0,0,0-0.06c-0.16-0.02-0.32-0.06-0.47-0.13c0.04-0.01,0.07-0.01,0.11,0
		c-0.17-0.06-0.34-0.09-0.52-0.1c0.39,0.08,0.31,0.13,0.69,0.2c-0.37,0-0.4-0.11-0.67-0.14c0,0,0.28,0.12,0.23,0.15
		c-0.15-0.04-0.29-0.09-0.43-0.14c-0.11,0-0.12,0.06-0.22,0.08C71.33,1.4,71.14,1.38,71,1.34c-0.14-0.04,0.17,0,0-0.07
		c-0.17-0.07-0.1,0-0.09,0.06c0.01,0.06-0.24,0-0.16,0c-0.11-0.01-0.22-0.04-0.33-0.07h0.29c-0.06,0-1.14,0-0.95-0.09
		c-0.11,0.01-0.23,0.01-0.34,0c-0.18,0.06-0.57,0-0.87,0c-0.05-0.06-0.29,0-0.2-0.09h-0.28c-0.29-0.05-0.59-0.07-0.88-0.06
		c0,0-0.27-0.06-0.3,0c-0.03,0.06-0.23,0-0.33-0.07c-0.1-0.07,0.09,0,0.13,0.08c-0.13-0.01-0.25-0.04-0.36-0.09h-0.38H65.9
		c0.16,0.01,0.32,0.04,0.48,0.08l-0.83-0.08c0.13,0,0.36,0.05,0.39,0c-0.21-0.01-0.43-0.03-0.64-0.07c-0.05,0.01-0.11,0.01-0.16,0
		v0.05h-0.5c-0.17,0,0,0-0.14-0.07c-0.14-0.07,0.08,0.05-0.12,0c-0.2-0.05,0.09,0-0.1-0.05c-0.19-0.05,0,0-0.05,0
		c-0.59-0.1-1.18-0.16-1.77-0.16c-0.06,0,0.11,0,0.09-0.05c-0.21,0.03-0.43,0.03-0.64,0c-0.08,0-0.15,0-0.23,0h0.05h-0.34h0.06
		h-0.23c-0.08,0,0.06,0,0-0.05h-0.16h-0.13h-1.11h0.11c-0.1,0.01-0.21,0.01-0.31,0h0.05c-0.24-0.02-0.49-0.02-0.73,0
		c-0.1-0.03-0.2-0.03-0.3,0c0.19,0,0,0-0.09,0.05h0.87h-0.07h0.23l0.29,0.08c-0.44-0.05-1.06,0-1.37-0.07h-0.1
		c-0.23,0.04-0.46,0.04-0.69,0c-0.13,0.04-0.26,0.04-0.39,0c0.06,0,0.2-0.06,0.1-0.1h0.31c-0.07,0.02-0.15,0.02-0.22,0
		c-0.06,0-0.16,0-0.2,0.05c-0.13-0.01-0.25-0.01-0.38,0c-0.25-0.04-0.51-0.04-0.76,0h-0.34c-0.25-0.01-0.51-0.01-0.76,0
		c-0.07,0,0.09,0,0,0.05c-0.09,0.05-0.14,0-0.23,0s-0.06,0,0,0c-0.12,0,0,0.05-0.19,0c-0.19-0.05-0.13,0-0.07,0
		c-0.2-0.01-0.41-0.01-0.61,0h-0.14h-0.19c-0.22,0.03-0.44,0.03-0.66,0c-0.17,0.04-0.35,0.06-0.53,0.05c0,0,0.05,0,0-0.05
		c-0.05-0.05-0.31,0-0.51,0.07c-0.2,0.07,0.19,0,0.26,0s-0.18,0.05-0.23,0c-0.05-0.05,0.17,0,0.22,0h-0.12
		c-0.13-0.03-0.26-0.03-0.38,0c-0.1,0-0.18,0-0.1-0.06h-0.42c-0.14,0,0,0.05-0.16,0.05c0.22-0.08,0.45-0.13,0.68-0.15h-0.38
		c-0.06,0.02-0.13,0.02-0.19,0h-0.05h-0.26c0,0.07-0.65,0.1-0.72,0c-0.07-0.1-0.16,0-0.27,0.05h0.37c-0.15,0.02-0.3,0.02-0.45,0
		c-0.05,0.03-0.1,0.05-0.16,0.05c-0.1,0-0.09,0,0,0c-0.13,0-0.14,0.05-0.05,0.06c0.09,0.01,0.18,0.01,0.27,0l0.07,0.05h-0.53
		c-0.18,0,0.27-0.1,0-0.1h-0.2c-0.14,0,0.13,0-0.14-0.05c0,0,0,0.05-0.2,0.07c-0.2,0.02-0.29,0-0.45,0
		c0.44-0.04,0.89-0.06,1.33-0.05c-0.18-0.05,0.35,0,0.28-0.1c-0.06,0.01-0.12,0.01-0.18,0c-0.15,0.05-0.31,0.05-0.46,0
		c0.11,0.05-0.18,0.05-0.05,0.1c-0.1,0.01-0.2,0.01-0.3,0c-0.08,0,0.3,0,0,0h0.23h-0.1c-0.23,0.06-0.29,0-0.34,0h-0.73h0.1
		c-0.25,0.06-0.67,0-0.8,0.1c-0.13,0.1,0,0,0-0.05c0.2-0.01,0.41-0.01,0.61,0c0.07,0,0.07-0.05,0-0.07c-0.05,0.02-0.1,0.02-0.15,0
		c-0.31-0.02-0.62,0.03-0.92,0.12c0.1-0.1-0.27,0-0.36-0.08h-0.19c-0.08,0.05,0.17,0,0.22,0c0.05,0-0.16,0.07-0.36,0.14
		c-0.2,0.07,0.17-0.06,0.17-0.1H46c0.06,0,0,0,0,0.06c0,0.06-0.17,0-0.27,0c0.16,0,0.34-0.06,0.49,0c0.19-0.06,0.38-0.09,0.58-0.1
		h-0.23h0.15c0,0.16-1.08,0.11-1.68,0.21h0.07h0.27c-0.12,0.03-0.26,0.03-0.38,0c0.07,0-0.25,0.12-0.39,0.08
		c0.1-0.01,0.2-0.01,0.3,0c0,0,0.09,0,0.13-0.1h-0.3c0.26-0.02,0.52-0.05,0.77-0.11h-0.22c0,0,0.15,0-0.08,0.09
		c-0.23,0.09-0.51,0-0.76,0.06c0.09,0,0.13,0,0.07,0.05h0.34c-0.08,0.03-0.16,0.06-0.24,0.07c-0.08,0,0,0,0,0
		c-0.22,0-0.06,0.06-0.31,0.06c0,0,0.08-0.06,0.05-0.08C44.09,1.02,43.58,1,43.29,1.09c-0.06,0,0-0.05-0.11-0.05
		c-0.14,0.01-0.28,0.03-0.42,0.07h0.14c-0.18,0-0.35,0-0.53,0.07c-0.18,0.07,0.13-0.11,0.31-0.07c-0.09,0,0.06-0.06,0-0.08
		c-0.21,0.07-0.43,0.11-0.65,0.13h0.26c0.09,0-0.22,0-0.35,0.07c-0.13,0.07,0,0-0.11,0s-0.44,0-0.64,0.09s0.29-0.06,0.31-0.1
		c-0.04-0.01-0.08-0.01-0.12,0h-0.07c-0.17,0-0.34,0-0.27,0.06h-0.38c-0.13,0,0.05-0.06,0.16-0.05c0.11,0.01-0.49,0.09-0.53,0
		L40.06,1.3h0.11c-0.07,0.02-0.15,0.02-0.22,0c-0.28,0.07-0.58,0.1-0.87,0.09c-0.22,0.08-0.71,0.07-1.06,0.16h0.27
		c-0.2,0.06-0.4,0.1-0.61,0.11c-0.06,0,0.24,0,0.19-0.07c-0.05-0.07-0.21,0-0.22,0l-0.39,0.16h-0.25c-0.12,0-0.38,0.1-0.34,0
		c-0.28,0.07-0.58,0.12-0.87,0.14c-0.17,0,0.14-0.07,0-0.08c-0.14-0.01,0.06,0-0.12,0.1c-0.18,0.1-0.19,0-0.3,0h-0.3h-0.15
		c-0.03,0.01-0.07,0.01-0.11,0h0.15c-0.1,0.02-0.21,0.02-0.31,0h0.19c0.04,0,0,0,0,0.06c0,0.06-0.15,0-0.23,0.05
		c-0.08,0.05,0,0,0-0.07c-0.15,0-0.14,0-0.19,0.07c-0.05,0.07-0.35,0-0.53,0.07c0,0,0.12-0.06,0.12-0.09
		c-0.17-0.03-0.35-0.03-0.52,0c-0.17-0.04-0.36-0.04-0.53,0h0.23c-0.11,0.03-0.22,0.05-0.34,0.06c-0.08,0,0.05,0-0.08,0.06
		c0.14,0,0.42,0,0.45-0.06c0.03-0.06,0.06,0,0,0.06c-0.06,0.06-0.09,0-0.26,0.05c-0.17,0.05,0.09-0.05-0.08,0
		c0,0-0.17,0.07-0.34,0.07h0.15c-0.06,0.02-0.13,0.04-0.19,0.05h-0.18c-0.07,0-0.32,0.11-0.26,0c-0.13,0-0.19,0.12-0.38,0.13
		c0,0,0.06,0,0.11-0.07c-0.18,0-0.53,0.05-0.59,0.12c-0.06,0.07-0.32,0.05-0.15,0c-0.31,0.05-0.61,0.16-0.87,0.33l-0.26,0.06
		c-0.15,0,0.13-0.08-0.07-0.07c0.09-0.04,0.2-0.07,0.3-0.06c0.17-0.06,0.21-0.1,0.07-0.1s0,0,0,0c-0.11,0.05-0.22,0.07-0.34,0.07
		c-0.08,0,0.12,0,0.16-0.06c0.04-0.06-0.21,0.06-0.3,0c-0.24,0.1-0.49,0.14-0.75,0.12c-0.12,0.06-0.22,0.14,0,0.09
		c-0.06,0,0.1,0,0.23-0.06c0.13-0.06-0.06,0-0.11,0c0.21-0.01,0.42-0.04,0.63-0.09c-0.6,0.17-1.52,0.3-2.24,0.48l0.07-0.05
		c-0.1,0-0.2,0.03-0.29,0.08c-0.07-0.05-0.16,0-0.3,0c-0.14,0,0.24-0.09,0-0.07c-0.24,0.02-0.21,0.07-0.48,0.1
		c-0.13,0.09-0.29,0.13-0.45,0.11c-0.13,0.06-0.25,0.06-0.37,0.12c-0.61,0.04-1.21,0.14-1.79,0.3c0,0-0.15,0.11-0.22,0.08
		c-0.07-0.03-0.11,0.07-0.11,0.09h-0.15l0.11-0.1c-0.22,0,0,0.08-0.3,0.09C23.18,4.01,23.11,4,22.9,4.06
		c-0.21,0.06,0-0.05,0.11-0.09c-0.39,0.1-0.77,0.24-1.14,0.4c-0.09,0.04-0.19,0.06-0.29,0.06c-0.11,0,0.09-0.07,0-0.07
		s-0.11,0.08-0.07,0.09c-0.1,0.02-0.21,0.06-0.3,0.11c-0.11,0,0.12-0.14,0.29-0.18c-0.07,0,0,0,0,0c-0.35,0.02-0.69,0.1-1,0.25
		c-0.13,0,0.17-0.09,0-0.07c-0.24,0.08-0.49,0.15-0.74,0.19c-0.07,0,0,0-0.11,0.07c-0.11,0.07,0,0,0,0l-0.14,0.07
		c-0.14,0.07,0.05,0,0,0S19.18,4.97,19.21,5H19.1l0.07-0.05c-0.38,0.06-0.75,0.16-1.11,0.28c-0.34,0-0.24,0.08-0.44,0.1
		c-0.18,0.09-0.36,0.17-0.55,0.24l0.26-0.05c-0.11,0.06-0.22,0-0.33,0.1c-0.11,0.1,0,0,0.07-0.05l-0.69,0.17l0.07-0.06
		c-0.11,0.03-0.22,0.07-0.33,0.12c-0.1,0.13-0.85,0.23-1.19,0.41l1.27-0.37c-0.14,0.06-0.28,0.11-0.43,0.14
		c-0.06,0.06,0.19-0.05,0.25-0.05l-0.21,0.12H15.7c-0.21,0.12-0.42,0.21-0.65,0.28c0,0,0.23-0.11,0.32-0.17c0.09-0.06-0.1,0,0-0.05
		c-0.16,0.13-0.34,0.21-0.54,0.26c-0.06,0,0,0,0.07-0.08c-0.16,0-0.28,0.17-0.51,0.21c-0.23,0.04,0.1-0.07-0.08,0
		c-0.18,0.07,0,0,0,0s-0.2,0.06-0.14,0.09c0.06,0.03-0.31,0.08-0.26,0.11c-0.08,0.03-0.16,0.06-0.25,0.07c0,0,0.24-0.14,0.17-0.15
		l-0.32,0.15h-0.15c-0.15,0-0.44,0.14-0.66,0.21c-0.07,0,0.14-0.05,0.18-0.1c-0.28,0.06-0.33,0.2-0.61,0.22
		c-0.08,0-0.14,0.1-0.22,0.11c-0.08,0.01,0.11,0,0.15,0l-0.11,0.06c-0.22,0-0.43,0.14-0.65,0.17c0,0,0.28-0.14,0.4-0.14
		c0.09-0.05,0.18-0.09,0.28-0.12c-0.2,0.04-0.39,0.1-0.58,0.18c-0.15,0,0-0.06-0.12,0c-0.28,0.15-0.59,0.27-0.9,0.35
		c-0.09,0,0.11-0.05,0.14-0.08c-0.15,0.05-0.09,0-0.22,0s-0.39,0.12-0.58,0.22c-0.19,0.1-0.26,0.1-0.64,0.3
		c0.15-0.07,0.31-0.13,0.47-0.18c0.07,0,0,0,0,0C9.78,7.93,9.88,7.9,9.98,7.88c0.09,0-0.11,0.06-0.14,0.06
		c0.2,0,0.41-0.04,0.59-0.13c0.26-0.04,0.52-0.11,0.76-0.22c0.09,0,0.05,0,0.19-0.05c0.39-0.06,0.77-0.17,1.13-0.32
		c0,0.06,0.4-0.11,0.3,0c0.1-0.05,0.21-0.1,0.32-0.13h-0.18l0.21-0.08v0.05c0.1,0,0.19-0.05,0.29-0.06c0.1-0.01,0,0,0.07-0.06
		c0.09,0.01,0.19-0.01,0.26-0.07c0.06,0.01,0.12,0.01,0.18,0c0.1,0-0.18,0.09,0,0.05c0.29-0.15,0.59-0.24,0.91-0.28
		c0.13,0,0,0,0.14-0.08h0.1h0.19c0.34-0.14,0.69-0.25,1.05-0.33c0.09-0.06,0.17-0.07,0.25-0.12c-0.18,0-0.14,0.08-0.32,0.11
		c0.08,0,0.06,0,0,0c0.15-0.1,0.33-0.15,0.51-0.14c-0.1,0.06-0.2,0-0.29,0.09c0.16-0.05,0.24,0,0.11,0l0.69-0.19
		c-0.06,0.07,0,0,0.15,0c-0.12,0.04-0.24,0.06-0.36,0.07c-0.07,0,0.09,0,0,0.05c0.13-0.05,0.26-0.08,0.4-0.11h-0.15
		c0.21-0.05,0.42-0.11,0.63-0.18c0,0-0.06,0,0-0.07c0.22-0.07,0,0,0.19,0h-0.11c0.22,0,0.7-0.15,1-0.15
		c0.29-0.11,0.59-0.19,0.89-0.25c0.1,0-0.2,0.09-0.22,0.15c0.23,0,0.27-0.13,0.33-0.06c0.06,0.07,0.07-0.08,0-0.09
		c0.25-0.08,0.51-0.15,0.77-0.19c0.16-0.09,0.34-0.14,0.52-0.16l-0.07,0.05c-0.06,0.01-0.13,0.01-0.19,0c-0.05,0-0.06,0,0,0h-0.07
		c0.14,0,0.27-0.1,0.41-0.07C21.33,5,21.25,5.02,21.16,5.04c0,0.06,0.22,0,0.3,0c-0.24,0.13,0.28-0.06,0.48-0.08
		c0,0,0-0.08,0.18-0.12c-0.1,0.07,0.1,0,0.11,0.06c0.04-0.01,0.07-0.01,0.11,0c-0.07,0,0.18-0.09,0.22-0.15
		c0.22-0.01,0.43-0.07,0.63-0.15c0.13,0,0,0.05,0,0.07l0.51-0.08l0.15-0.07H23.7c-0.13,0.06-0.26,0.1-0.4,0.1
		c0.17-0.08,0.34-0.07,0.51-0.15c0,0.11,0.4-0.06,0.7-0.08c-0.11,0-0.22,0.07-0.33,0.07s0.29,0,0.41-0.07
		c0.12-0.07,0-0.05,0.07-0.09c0.07-0.04,0.1,0,0.18,0c0.05-0.01,0.1-0.01,0.15,0c0-0.06,0.18-0.09,0.37-0.08
		c-0.11,0,0.06,0,0.23-0.11c0.17-0.11-0.27,0.09,0,0.09c0.06-0.08,0.2-0.09,0.29-0.15c0.09-0.06-0.21,0.08-0.14,0.1
		c0.12-0.01,0.23-0.05,0.33-0.11c0.17,0-0.12,0.05-0.07,0.07c0.26-0.02,0.51-0.08,0.74-0.18h0.19c0.16-0.05,0.32-0.09,0.48-0.12
		c0.05,0,0,0.05,0,0.07h-0.15c-0.12,0,0,0,0-0.05c-0.18,0.06-0.37,0.1-0.56,0.13c0.17,0,0.33-0.02,0.49-0.06c0.13,0-0.2,0-0.08,0.05
		c-0.17,0.02-0.35,0.04-0.52,0.08c0,0,0.05,0,0,0h-0.18c-0.06,0.01-0.13,0.01-0.19,0c0,0.11-0.36,0.05-0.56,0.15
		c-0.2,0.1,0-0.06-0.15,0c-0.15,0.06,0,0.06-0.07,0.12c0.1,0,0.2-0.05,0.3,0c0.1,0.05,0,0-0.08,0c0.12-0.04,0.24-0.07,0.37-0.08
		c0,0-0.11,0-0.14,0.08c-0.15,0.03-0.3,0.06-0.45,0.11c-0.13,0,0-0.06-0.15,0C24.8,4.6,24.3,4.74,23.78,4.83
		c0,0,0.15-0.09,0.08-0.09l1.32-0.3c0.07,0-0.17,0-0.22,0.05c-0.05,0.05-0.27,0.05-0.11,0L24.48,4.6c0,0,0.1-0.07-0.08-0.05
		c-0.18,0.02-0.15,0.07-0.33,0.11c-0.18,0.04,0-0.05-0.11,0c-0.25,0.05-0.5,0.13-0.73,0.24c0,0-0.08,0,0,0h0.15
		c-0.22,0-0.44,0.11-0.66,0.14l-0.26,0.12c-0.07-0.01-0.15-0.01-0.22,0c-0.15,0.1,0.1,0,0.15,0.05c-0.14,0.07-0.27,0-0.41,0.09
		c-0.14,0.09,0.15-0.1-0.07-0.08c-0.28,0.09-0.56,0.15-0.84,0.2c-0.15,0.08,0.09,0.06,0.22,0c-0.13,0.05-0.26,0.16-0.4,0.16
		S21.04,5.53,21,5.51c-0.04-0.02-0.15,0.06-0.22,0c-0.07-0.06,0,0-0.18,0.1c-0.18,0.1-0.09,0,0-0.05c-0.2,0-0.17,0.12-0.36,0.13
		c-0.19,0.01,0.19-0.1,0-0.09c-0.19,0.01-0.09,0.07-0.18,0.11h-0.15c0,0,0.2-0.08,0.15-0.11c-0.11,0.01-0.23,0.01-0.34,0
		c-0.32,0.06-0.64,0.15-0.95,0.26c0.2-0.12-0.6,0.11-0.85,0.15c0-0.05,0.34-0.08,0.47-0.16c-0.3,0-0.56,0.19-0.77,0.18h0.07
		c0.07,0-0.19,0.05-0.29,0.11c-0.28,0-0.63,0.2-0.8,0.19c-0.33,0.14-0.53,0.16-0.79,0.3h0.15c-0.4,0.18-0.52,0.12-0.56,0.06
		s0,0.07-0.06,0.13c-0.06,0.06-0.31,0.09-0.47,0.12c-0.16,0.03,0.19-0.08,0.25-0.12s-0.56,0.14-0.66,0.19c-0.1,0.05-0.09,0,0,0
		c0.09,0-0.14,0-0.22,0.07c-0.08,0.07,0,0,0.08,0c-0.4,0.08-0.79,0.18-1.17,0.31h-0.18c-0.07,0-0.15,0-0.22,0.08
		c-0.32,0-0.63,0.2-0.95,0.22c-0.32,0.14-0.65,0.23-1,0.27c0.19-0.09,0.2-0.11,0.35-0.19c-0.29,0.13-0.6,0.23-0.91,0.3
		c0,0.07-0.23,0.19-0.12,0.24L9.58,8.46c0,0.06,0.66-0.22,0.66-0.11c-0.07,0.01-0.15,0.01-0.22,0c0,0.06-0.29,0.12-0.42,0.22
		c-0.13,0.1,0-0.08-0.15,0c0,0-0.09,0.09-0.24,0.18c-0.15,0.09-0.33,0-0.32,0.1c0.01,0.1-0.07,0-0.22,0c-0.15,0,0,0,0.1-0.09
		C8.61,8.81,8.46,8.87,8.31,8.95c-0.13,0,0.12-0.11,0-0.09C8.19,8.88,8.21,8.99,8.07,9c-0.14,0.01-0.1,0.08,0.05,0.05
		c-0.2,0.1-0.17,0.08-0.24,0.15s-0.15,0-0.22,0.07s0.1,0,0.15,0C7.71,9.3,7.62,9.34,7.53,9.38c-0.08,0,0.14-0.11,0-0.07
		S7.28,9.42,7.35,9.37C7.08,9.54,6.78,9.64,6.46,9.68c0,0-0.09,0.08-0.1,0.11c0.15-0.05,0.09,0,0.22,0s0,0,0,0
		C6.87,9.66,7.18,9.6,7.47,9.5c-0.24,0.13-0.5,0.16-0.74,0.28l0.4-0.11c-0.15,0.05-0.29,0.12-0.42,0.2c-0.08,0,0.05-0.06-0.09,0
		c-0.14,0.06-0.11,0.06-0.17,0.1c-0.06,0.04,0,0,0-0.06c0-0.06-0.14,0.07-0.22,0.06c-0.08-0.01-0.26,0.13-0.27,0.18
		c-0.2,0.05,0-0.06-0.16,0c-0.15,0.08-0.32,0.14-0.5,0.16c-0.21,0.12-0.22,0.06-0.42,0.17c-0.2,0.11,0.1-0.06,0.13-0.09
		c-0.21,0-0.4,0.15-0.61,0.2c-0.21,0.05-0.08,0.08-0.09,0.12c-0.01,0.04-0.34,0.14-0.35,0.19c-0.16,0,0.09-0.07-0.08,0
		c-0.1,0.05-0.21,0.09-0.32,0.11c-0.13,0.08,0,0.06-0.17,0.11C3.22,11.17,3.55,11,3.52,10.98s0.18,0,0.25-0.08
		c-0.17,0.02-0.32,0.08-0.46,0.17H3.15c-0.18,0.11-0.38,0.2-0.59,0.26c-0.06,0-0.06,0.05,0,0.05c-0.12,0.07-0.25,0.12-0.39,0.14
		c-0.07,0.07-0.16,0.09-0.23,0.16c0.14-0.1,0.31-0.08,0.45-0.2s0,0.08,0.23,0c-0.09,0.08-0.2,0.13-0.32,0.14
		c-0.13,0.1,0.15,0,0.15,0c0.06-0.06,0.13-0.09,0.21-0.09c0.08-0.08,0.17-0.09,0.17-0.12c0-0.03-0.21,0.09-0.19,0
		c0.02-0.09,0.18,0,0.25-0.09c0.07-0.09-0.08,0.08,0.12,0c-0.08,0,0.16-0.06,0.28-0.11c0.12-0.05,0,0.06-0.09,0.08
		c0.17-0.04,0.34-0.09,0.5-0.16c0.15,0,0.36-0.11,0.48-0.08c0.12,0.03,0.15-0.12,0.34-0.19c0.19-0.07-0.05,0.05-0.1,0.08
		c0.16-0.03,0.32-0.07,0.47-0.13c0.05-0.05,0,0-0.07,0c0.09-0.08,0.25-0.1,0.24-0.14c-0.01-0.04,0.05,0,0.14,0c0.09,0,0,0-0.1,0.08
		c0.19-0.07,0.38-0.12,0.58-0.16c0.05-0.12,0.27-0.06,0.42-0.2c0,0.06,0.15,0,0.19,0c-0.12,0.07-0.26,0.11-0.4,0.12
		c-0.2,0.13-0.43,0.21-0.67,0.24c0,0,0,0.06-0.17,0.14c0.33-0.21,1-0.27,1.34-0.55c0.22-0.09,0.45-0.17,0.68-0.23
		c0.05-0.05,0,0-0.08,0L7.2,9.98c0.06-0.04,0.14-0.06,0.21-0.07C7.31,9.98,7.2,9.99,7.1,10.08L7.42,10l0.14-0.09l0.18-0.06
		c0.07,0,0,0-0.1,0.1c0.27-0.09,0.13-0.14,0.42-0.22c0.07-0.04,0.14-0.07,0.21-0.1c-0.13,0.13,0.42-0.06,0.62-0.1
		c-0.21,0.1-0.74,0.25-0.7,0.31c-0.22,0.08-0.43,0.13-0.64,0.23c0,0,0.26-0.09,0.35-0.1c-0.1,0.04-0.19,0.09-0.27,0.16
		c-0.1,0-0.21,0.07-0.3,0c-0.09-0.07-0.08,0.1,0,0.11c-0.13,0.07-0.14,0-0.22,0c-0.08,0.04-0.16,0.09-0.24,0.14H6.72
		c-0.15,0-0.09,0-0.25,0.09c-0.16,0.09-0.33,0.13-0.49,0.22c-0.16,0.09,0,0,0,0c0.17-0.09,0.5-0.17,0.45-0.22
		c-0.05-0.05-0.18,0.1-0.28,0.14s0,0-0.07,0c-0.09,0.07-0.2,0.12-0.32,0.13c-0.19,0.11,0,0.06-0.16,0.17c0,0-0.07,0-0.1,0.05
		c-0.03,0.05,0-0.05,0-0.07s-0.19,0.07-0.29,0.07c-0.1,0,0,0,0,0c-0.22,0.06-0.43,0.15-0.63,0.26c-0.33,0.13-0.66,0.24-1,0.33
		c-0.11,0.07-0.23,0.12-0.35,0.16c0,0.05,0,0-0.09,0.11c0.1-0.01,0.19-0.01,0.29,0c0.04-0.05,0.08-0.09,0.13-0.12
		c0.16-0.05,0.31-0.12,0.46-0.2c0.09,0-0.14,0.12-0.16,0.16c-0.02,0.04,0.34-0.15,0.32-0.08c0.23-0.11,0.47-0.2,0.71-0.26
		c-0.13,0.08-0.28,0.12-0.42,0.2c0.09-0.04,0.19-0.07,0.29-0.08c0,0,0.07-0.06,0.14,0c0.27-0.12,0.54-0.23,0.82-0.31
		c0.14,0,0,0-0.06,0.08c-0.06,0.08,0.18-0.07,0.28-0.09c-0.08-0.03-0.18-0.03-0.26,0v-0.05l0.24-0.09c0.05,0-0.07,0.06,0.08,0
		c0.04-0.02,0.08-0.05,0.1-0.08c0.05,0,0.1,0,0.14-0.06c0.04-0.06-0.07,0.05-0.06,0.08c0.01,0.03-0.22,0-0.31,0.13
		c1.1-0.38,2.19-0.81,3.29-1.17C9.3,9.76,9.48,9.7,9.66,9.71c0.06-0.07-0.06-0.06,0-0.13c0.06-0.07,0.19,0,0.39-0.12L9.98,9.52
		c0.17-0.08,0.35-0.15,0.53-0.2c-0.2,0.16,0.44-0.09,0.74-0.11c0.14-0.07,0,0-0.08,0c0.15-0.05,0.29-0.08,0.44-0.11h-0.05
		c0.07-0.02,0.14-0.04,0.22-0.05c0,0,0.05-0.05,0.14-0.1c0.09-0.05,0.12,0,0.29-0.09c0.17-0.09,0,0-0.07,0.08
		c0.31-0.07,0.61-0.16,0.91-0.27v0.06c0.33-0.16,0.68-0.22,1-0.36c0.14-0.05,0.27-0.11,0.39-0.19c0.12,0,0.12,0,0,0
		c0.44-0.11,0.87-0.25,1.29-0.43c0.14,0,0,0.05,0.11,0c-0.07,0-0.14,0-0.21,0.09c0.38-0.17,0.78-0.3,1.18-0.41
		c0-0.05-0.28,0.06-0.08-0.05c0.17-0.01,0.35-0.04,0.51-0.1c0.1-0.09-0.15,0-0.25,0.05c0.13-0.06,0.26-0.11,0.39-0.15
		c0,0,0,0.07-0.06,0.11c0.32-0.16,0.65-0.27,1-0.34h0.18c0.07-0.05,0.14-0.08,0.22-0.11h0.15c0.18-0.06,0.36-0.11,0.54-0.15
		c0.09,0-0.11,0.06-0.14,0.05c0.2-0.01,0.38-0.08,0.54-0.2c0.2,0,0,0-0.06,0.09c0.25-0.09,0.5-0.17,0.76-0.24
		c0.09,0-0.11,0.08-0.14,0.06c0.12,0.01,0.25-0.01,0.36-0.05c-0.05,0-0.22,0.07-0.07,0.06c-0.07,0-0.15,0-0.22,0.07
		c0.13,0,0.25-0.06,0.37-0.07c0,0,0.05-0.08,0.18-0.09c0.13-0.01-0.06,0-0.11,0c0.15-0.05,0.29-0.11,0.43-0.18
		c0.18,0-0.07,0.06,0.08,0.05c0.15-0.01,0.29-0.11,0.29-0.15c0.3-0.05,0.59-0.12,0.88-0.2l0.1-0.09c0.1-0.09-0.08,0.1,0.23,0
		C22.8,5.84,22.7,5.87,22.6,5.89c0,0,0.33-0.09,0.47-0.11c0.14-0.02-0.05,0,0,0c0.1-0.01,0.19-0.01,0.29,0
		c0.14-0.05,0-0.05,0.18-0.1c0.18-0.05,0.22,0,0.4-0.1s0,0,0.15,0c-0.08,0.04-0.17,0.06-0.26,0.07c0.56,0,1.41-0.38,2.09-0.46
		c0,0-0.05,0.06-0.14,0.1c0.13-0.03,0.26-0.06,0.4-0.07c0.1,0,0.06-0.06,0-0.07c0.43-0.04,0.85-0.14,1.26-0.28
		c0.11,0-0.13,0.06-0.11,0.08l0.48-0.08V4.82c0.25-0.06,0.66,0,0.78-0.14c0.12-0.14,0,0,0.19,0c0.1-0.05,0.22-0.07,0.33-0.07
		c0.17-0.12,0.63-0.1,0.92-0.22h0.08c0.18-0.07,0.36-0.11,0.55-0.1c0.07-0.03,0.14-0.06,0.22-0.08h0.07c0.07,0,0.24-0.07,0.15,0
		c0.17-0.05,0.34-0.08,0.52-0.1c-0.05,0,0.05,0,0.19-0.07c0.14-0.07,0,0-0.08,0l0.55-0.09c-0.14,0.07-0.19,0-0.26,0.09
		c0.12-0.01,0.23-0.03,0.34-0.06c0,0-0.07,0.05-0.12,0.07c-0.05,0.02-0.26,0-0.4,0.07h0.26c0.17,0-0.1,0.06-0.23,0.1
		c-0.13,0.04,0-0.05,0-0.07c-0.09,0-0.18,0.03-0.26,0.09c-0.12,0.04-0.24,0.06-0.37,0.06c0.28-0.05,0.21-0.1,0.41-0.12
		c0.2-0.02-0.23,0,0-0.06c0.23-0.06,0,0.06,0.11,0c0.11-0.06,0,0-0.07,0h0.15c-0.16,0-0.64,0.14-0.93,0.17c0.08,0-0.14,0-0.14,0.08
		c0.17-0.03,0.34-0.07,0.51-0.13c0.09,0.09-0.51,0.18-0.7,0.24c-0.19,0.06,0-0.08-0.18-0.09c0,0.06-0.25,0-0.37,0.11
		c0.11,0,0.44-0.08,0.33,0s-0.19,0.07-0.48,0.09c-0.29,0.02,0-0.06-0.11-0.06l-0.19,0.08h0.08c-0.35,0.11-0.69,0.16-1,0.25
		c0.11,0.01,0.23,0.01,0.34,0c-0.21,0.07-0.58,0.17-0.67,0.11c0.11-0.01,0.21-0.04,0.3-0.09h-0.11c-0.24,0-0.43,0.16-0.59,0.11
		c-0.08,0.04-0.17,0.06-0.26,0.06c0,0-0.08,0.05,0,0.05c-0.29,0.07-0.59,0.11-0.89,0.14L26.3,5.36V5.31c-0.14,0-0.1,0.05-0.18,0.07
		c-0.08,0.02-0.07,0,0-0.08c-0.16,0-0.37,0.08-0.44,0c-0.07-0.08,0.1,0.05-0.07,0.12c0.23,0,0.08-0.09,0.37-0.11
		c0.05,0,0,0.06-0.15,0.1c-0.29,0.03-0.57,0.08-0.85,0.14c-0.1,0,0.12-0.06,0.22-0.11c-0.13,0.01-0.25,0.05-0.36,0.11h0.07
		c-0.1,0-0.13,0-0.14,0.05c-0.21,0-0.42,0.16-0.63,0.13c-0.1,0.07-0.23,0.11-0.36,0.09c-0.21,0.13-0.45,0.2-0.69,0.22
		c-0.07,0,0,0-0.07,0.06c-0.07,0.06-0.4,0.1-0.41,0l-0.25,0.12c-0.25,0,0.07-0.07-0.07-0.06c-0.15,0.06-0.32,0.11-0.48,0.13
		c0,0-0.17,0.1-0.21,0.14c-0.04,0.04,0.17-0.12,0-0.11c0,0.09-0.46,0.2-0.69,0.22c-0.23,0.02-0.16,0.11-0.36,0.15
		c0,0,0.14-0.11-0.08,0c0,0,0.06-0.06,0.18-0.12h-0.07H20.5c-0.11,0,0,0-0.14,0.11c-0.14,0.11-0.16,0-0.37,0
		c-0.21,0-0.26,0.05-0.4,0.11c0.15,0,0.3-0.03,0.44-0.09h0.19c-0.16,0-0.14,0.07-0.33,0.08c-0.19,0.01,0.09,0-0.07,0.07
		C19.56,6.88,19.3,6.93,19.05,7c0,0,0.22,0,0.29-0.06s-0.3,0.14-0.47,0.16s0.26-0.06,0.15-0.07c-0.11-0.01-0.15,0.07-0.33,0.1
		c0.2-0.14-0.56,0.15-0.81,0.13c-0.08,0.05-0.35,0.16-0.53,0.26c0-0.08-0.56,0.17-0.64,0.22c-0.08,0.05-0.12,0-0.08,0
		c0.04,0-0.21,0.06-0.36,0.15c-0.15,0.09-0.24,0.08-0.5,0.18c-0.05,0,0-0.05-0.11,0c-0.44,0.19-0.68,0.23-1.14,0.4
		c-0.06,0,0-0.05-0.11,0c-0.11,0.05-0.25,0.11-0.36,0.1c0.08,0-0.15,0.14-0.36,0.18c-0.21,0.04,0.23-0.07,0.18-0.1h-0.18
		c-0.05,0,0,0-0.11,0.08s0.09-0.06,0,0c-0.23,0-0.3,0.1-0.28,0.12c-0.18,0.07,0-0.05-0.18,0c0,0-0.13,0.1-0.28,0.16
		c-0.15,0.06-0.11,0-0.26,0c0,0-0.18,0.1-0.28,0.11s0.07,0,0-0.05s-0.62,0.19-0.53,0.25c-0.14,0-0.26,0.13-0.39,0.15
		c-0.13,0.02,0.11-0.07,0.2-0.14c-0.13,0-0.26,0.09-0.39,0.12c-0.13,0.03-0.54,0.23-0.67,0.29c-0.13,0.06,0.18-0.1,0.24-0.14
		c0.06-0.04,0,0,0,0c0.16,0,0.1-0.06,0.28-0.13c-0.16,0.07-0.33,0.1-0.51,0.09c-0.15,0.07,0,0,0,0.08c-0.46,0.13-0.9,0.29-1.34,0.48
		c-0.05,0-0.29,0.15-0.17,0.13c-0.17,0.11-0.35,0.1-0.34,0.17c0.01,0.07,0-0.05,0-0.07c0.06-0.01,0.11-0.01,0.17,0
		c0.11-0.08-0.09,0,0.13-0.12c-0.14,0.06-0.28,0.13-0.41,0.21H8.5c-0.12,0.07,0.07,0,0,0c-0.11,0.04-0.21,0.09-0.31,0.15
		c0.54-0.17,1.08-0.37,1.62-0.57c0.16-0.05-0.08,0.07,0.08,0c0.16-0.07,0.09-0.05,0.17-0.11c0.08-0.06-0.08,0.1-0.2,0.19
		c-0.34,0.09-0.68,0.21-1,0.36c-0.1,0.05-0.22,0.05-0.32,0.1c0.11,0,0.08,0-0.14,0.07c-0.22,0.07,0,0-0.06,0.08
		c-0.2,0.04-0.38,0.1-0.56,0.2H7.63c-0.15,0-0.08,0.1-0.24,0.14c-0.16,0.04,0.17-0.1,0,0c-0.05,0.01-0.09,0.01-0.14,0
		c0,0,0,0.05-0.1,0.09c-0.3,0.09-0.45,0.14-0.71,0.2c-0.05,0.09-0.24,0.07-0.38,0.17c-0.14,0.1,0.13-0.06,0.17-0.11
		c-0.13,0.06-0.26,0.11-0.39,0.14c-0.07,0-0.13,0.11-0.21,0.12c-0.08,0.01,0,0-0.16,0.14c0.21-0.06,0.41-0.13,0.6-0.22
		c0.14,0-0.08,0.06,0,0.05c0.08-0.01,0.14-0.11,0.09-0.12l0.24-0.12c0,0.05,0.24-0.06,0.35-0.12s-0.14,0.09-0.16,0.15
		c0.08-0.02,0.15-0.06,0.21-0.12c0.12-0.01,0.24-0.04,0.35-0.08c0,0,0.11-0.09,0.2-0.15c0.09-0.06,0,0.06,0.16,0
		c0.09-0.05,0.18-0.08,0.28-0.11c0,0,0.05,0,0,0c0.37-0.16,0.75-0.29,1.13-0.42c0.2-0.14,0.42-0.14,0.62-0.26
		c0.39,0,0.89-0.41,1.17-0.37c0.07-0.05,0.15-0.05,0.21-0.1c0.06-0.05,0.2,0,0.3,0c-0.15,0.07-0.27,0.07-0.32,0.14s-0.09,0-0.22,0
		h0.15c-0.16,0.07-0.33,0.13-0.5,0.18c-0.06,0,0.16-0.09,0.21-0.09c0.05,0-0.42,0.16-0.6,0.21c0.09,0,0.17-0.07,0.25-0.07
		c-0.32,0.12-0.43,0.21-0.73,0.33c-0.1,0,0.23-0.13,0-0.07l-0.13,0.09c-0.3,0.09-0.6,0.21-0.87,0.36c0.19-0.13-0.14,0-0.33,0.08
		c0,0-0.1,0.08,0,0c-0.23,0.16-0.29,0.07-0.49,0.2c-0.2,0.13-0.06,0-0.05-0.06c0.01-0.06-0.24,0.14-0.23,0.16s-0.43,0.1-0.46,0.18
		s-0.3,0.09-0.25,0.05c-0.26,0.15-0.55,0.26-0.84,0.34c0.11-0.04,0.22-0.1,0.31-0.18l-0.36,0.09c-0.1,0.05,0.12,0,0,0.05
		c-0.12,0.05,0.16-0.06,0.21-0.08c0.05-0.02-0.36,0.24-0.55,0.25c-0.22,0.13-0.45,0.24-0.69,0.32l-0.14,0.09c-0.12,0,0,0,0,0
		s-0.27,0.16-0.42,0.18c-0.15,0.02,0.13-0.08,0.17-0.11c-0.32,0.17-0.65,0.3-1,0.38C3.22,12.87,3.1,12.94,3,13.02c0.08,0,0.11,0,0,0
		s-0.5,0.25-0.75,0.31c0.07-0.06,0.14-0.1,0.23-0.13c-0.21,0.06-0.42,0.14-0.62,0.24c-0.15,0.12,0.12-0.05,0.18,0
		c-0.11,0.08-0.23,0.1-0.34,0.19c-0.11,0.09,0,0,0,0.06c0,0.06,0.13-0.06,0.14,0l-0.13,0.08c-0.16,0.02-0.31,0.06-0.46,0.12
		c0.11-0.09,0.23-0.07,0.34-0.17c-0.09,0-0.16,0.06-0.25,0.07c0.08,0-0.23,0.17-0.36,0.23c-0.13,0.06,0,0,0.06-0.07
		c0.06-0.07-0.18,0.08-0.28,0.1c-0.1,0.02,0.1,0,0.08,0c-0.23,0.13-0.48,0.2-0.72,0.33c0,0.05,0.18-0.08,0.28-0.11c0.1-0.03,0,0,0,0
		c-0.14,0.06-0.27,0.14-0.4,0.22c0,0.05,0.18,0,0.24-0.11c0.06-0.11-0.14,0.12,0.07,0C0.26,14.02,0.02,14.14,0.2,14.1 M13.54,9.37
		c0.12-0.06,0.25-0.1,0.39-0.12C13.81,9.31,13.68,9.35,13.54,9.37 M24.54,6.61c-0.11,0.06-0.36,0.09-0.18,0.1
		c-0.2,0.07-0.4,0.12-0.61,0.15c0.09-0.06,0.12,0,0.21-0.12c0.06,0.01,0.12,0.01,0.18,0c0.05,0,0,0,0,0s0.25-0.16,0.39-0.13H24.54z
		 M108.37,11.21c0.14,0,0.13,0,0.26,0.08S108.45,11.27,108.37,11.21L108.37,11.21z M108.62,10.32c0.15,0.06,0.32,0.09,0.48,0.1
		c0.07,0.06,0.16,0.09,0.25,0.09c0.09,0.08,0.12,0.09,0.16,0.16c0.2,0,0.09,0,0.06-0.09c0.28,0.13,0.21,0.19,0,0.17
		c-0.21-0.02-0.52-0.15-0.75-0.28c-0.23-0.13,0.14,0,0.1,0S108.6,10.35,108.62,10.32L108.62,10.32z M86.05,3.53
		c-0.15,0-0.27-0.07-0.41-0.08C85.78,3.45,85.92,3.48,86.05,3.53 M74.27,1.53c-0.05,0-0.31-0.07-0.24-0.1
		C74.1,1.4,74.4,1.53,74.27,1.53 M65.27,0.53c0.1-0.01,0.2-0.01,0.3,0H65.3H65.27z M12.86,6.53c-0.15,0.06-0.32,0.11-0.48,0.13
		c0.16-0.06,0.34-0.11,0.51-0.13H12.86z M15.99,6.11c0,0-0.65,0.24-0.54,0.15s0.39-0.12,0.57-0.13L15.99,6.11z M3.37,10.45l0.1-0.09
		c0.06,0.01,0.12,0.01,0.18,0c-0.07,0.05-0.16,0.09-0.25,0.11L3.37,10.45z M20.27,6.16c-0.33,0.09-0.48,0.13-0.77,0.19
		c0.26-0.08,0.53-0.14,0.8-0.17L20.27,6.16z M13.27,8.22c-0.13,0.05-0.26,0.08-0.4,0.1c0.18-0.02,0.47-0.13,0.47-0.08L13.27,8.22z
		 M9.72,9.32c-0.05,0.06-0.13,0.1-0.21,0.11c0,0.03,0.22-0.09,0.28-0.09L9.72,9.32z M1.26,13.41c-0.07,0,0,0-0.1,0.08
		c-0.1,0.08-0.19,0.12-0.31,0.11c0.14-0.1,0.31-0.16,0.48-0.17L1.26,13.41z M6.18,11.6C6.09,11.66,6,11.69,5.9,11.71
		c0.11-0.06,0.23-0.09,0.35-0.09L6.18,11.6z M11.04,10.05c0,0-0.23,0.11-0.35,0.11c0.13-0.06,0.28-0.09,0.42-0.09L11.04,10.05z
		 M12.04,9.73c-0.12,0.06-0.43,0.14-0.44,0.1c0.18-0.04,0.37-0.07,0.55-0.08L12.04,9.73z M4.47,10.67c0.24-0.09,0.47-0.21,0.7-0.28
		c-0.18,0.13-0.38,0.23-0.59,0.3L4.47,10.67z M15.22,9.32c-0.11,0.08-0.24,0.12-0.38,0.13c0.15-0.08,0.32-0.12,0.49-0.11L15.22,9.32
		z M10.28,9.69c-0.11,0.06-0.23,0.11-0.35,0.14c0.21-0.04,0.48-0.17,0.46-0.12L10.28,9.69z M4.44,10.51c-0.06,0-0.27,0.12-0.22,0.05
		s0.42-0.12,0.33-0.03L4.44,10.51z M4.68,10.39c0.08,0,0.12,0,0.26-0.07c-0.06,0,0.08,0,0,0s-0.13,0-0.28,0.11H4.54
		c0,0,0.17,0.03,0.25-0.02L4.68,10.39z M5.37,10.24c-0.11,0.07-0.23,0.11-0.35,0.14c0.13-0.09,0.3-0.14,0.46-0.12L5.37,10.24z
		 M10.02,9.36c0.06-0.04,0.13-0.08,0.2-0.1c-0.15,0.09,0,0.13-0.26,0.2c0.04,0,0.3-0.1,0.17-0.08L10.02,9.36z M6.47,9.79L6.33,9.88
		H6.22C6.33,9.82,6.46,9.8,6.58,9.81L6.47,9.79z M4.22,10.11c-0.07,0-0.15,0.06-0.29,0.09c-0.14,0.03,0.62-0.21,0.4-0.07L4.22,10.11
		z M10.8,9.11c0.24,0,0.5-0.21,0.65-0.17c0.15,0.04,0.26-0.13,0.39-0.15c-0.34,0.12-0.27,0.16-0.6,0.3c-0.14,0-0.12,0.05-0.22,0
		c-0.19,0.09-0.39,0.16-0.6,0.2c0,0,0.22-0.07,0.14-0.06c-0.12,0.05-0.24,0.08-0.36,0.1c0.08-0.05,0.18-0.08,0.28-0.08
		c0.22-0.05,0.47-0.1,0.47-0.15L10.8,9.11z M14.85,8.89c0,0-0.21,0.1-0.32,0.13c-0.11,0.03,0.31-0.12,0.42-0.14L14.85,8.89z
		 M10,9.25h0.14c-0.06,0.05-0.13,0.09-0.21,0.1c0.27-0.11,0.02-0.03,0.18-0.11L10,9.25z M5.47,9.73c-0.1,0.08-0.22,0.05-0.32,0.14
		s0-0.07-0.18,0c0.34-0.16,0.4-0.07,0.61-0.15L5.47,9.73z M7.64,9.42C7.55,9.5,7.44,9.54,7.32,9.56c0.22-0.03,0.32-0.15,0.43-0.15
		L7.64,9.42z M6.17,9.64c-0.13,0,0.21-0.2,0.38-0.23c0,0-0.09,0.09-0.17,0.13C6.3,9.58,6.35,9.53,6.28,9.63L6.17,9.64z M13.04,8.54
		c0,0-0.15,0-0.22,0.09s-0.13,0-0.14,0c-0.25,0.12-0.51,0.14-0.75,0.26c-0.24,0.12,0-0.08-0.18,0c-0.18,0.08-0.15-0.05,0.06-0.09
		c0,0-0.07,0.05,0,0c0.07-0.05,0.44-0.21,0.67-0.31h0.19c0.13-0.07,0.27-0.12,0.42-0.15c-0.17,0.11-0.36,0.19-0.56,0.23h-0.07
		c0.12,0,0.24,0,0.36-0.08c0.16-0.11,0.34-0.18,0.53-0.21c-0.09,0.06-0.16,0.15-0.2,0.25L13.04,8.54z M7.88,9.29
		c0.06,0-0.1,0,0-0.05c0.1-0.05,0.14-0.07,0.22-0.06C8,9.25,8.03,9.26,7.9,9.35H7.79L7.88,9.29z M18.82,8.29
		c0,0-0.19,0.11-0.25,0.09c-0.06-0.02,0.27-0.09,0.38-0.07L18.82,8.29z M17.05,8.21c-0.07,0.09-0.46,0.13-0.32,0.09
		c0.14-0.04,0.28-0.06,0.43-0.07L17.05,8.21z M7.44,9.1L7.31,9.19H7.23c0.03,0,0.18-0.06,0.32-0.07L7.44,9.1z M8.82,8.77
		C8.75,8.77,8.77,8.77,8.82,8.77L8.65,8.88L8.32,8.96L8.82,8.77z M7.51,9.05c0.07-0.05,0-0.06,0-0.09c0-0.03,0.14-0.07,0.22-0.06
		c-0.28,0.17,0.26-0.07,0.19,0c-0.07,0.07-0.47,0.21-0.5,0.15H7.51z M9.51,8.64c-0.07,0-0.24,0.09-0.39,0.13
		c0.15-0.1,0.55-0.24,0.46-0.11L9.51,8.64z M9.79,8.55h0.15c0.15,0,0,0,0-0.07h0.15c-0.05,0-0.13,0.07,0,0.05
		c-0.08,0.05-0.16,0.09-0.25,0.11c0,0,0.07-0.05,0,0c-0.07,0.05,0,0.05-0.14,0.11C9.56,8.81,9.83,8.61,9.86,8.53L9.79,8.55z
		 M10.79,8.44c-0.14,0.09-0.3,0.14-0.47,0.14c0.2-0.07,0.42-0.11,0.63-0.12L10.79,8.44z M8.04,8.84c0.17-0.09,0.36-0.11,0.53-0.2
		C8.43,8.73,8.28,8.8,8.12,8.85c0,0,0.09,0,0.03,0.01L8.04,8.84z M13.92,8.13l-0.14,0.08c-0.1,0-0.2,0.03-0.29,0.09h-0.11
		c0.21-0.07,0.43-0.13,0.65-0.15L13.92,8.13z M8.83,8.61c-0.11,0-0.21,0.08-0.32,0.09C8.7,8.66,8.95,8.58,8.95,8.63L8.83,8.61z
		 M18.83,7.76c-0.19,0.07-0.39,0.08-0.58,0.14c0.22-0.09,0.46-0.14,0.7-0.12L18.83,7.76z M7.99,8.67c0,0,0.06-0.07,0.1-0.1
		c0.09-0.05,0.19-0.09,0.29-0.11v0.09C8.53,8.45,8.7,8.36,8.87,8.3c0.18-0.02,0.37-0.06,0.54-0.12C9.18,8.29,8.94,8.38,8.7,8.45
		c0.07,0,0.07,0,0,0c-0.22,0.08-0.28,0.09-0.19,0C8.25,8.59,7.98,8.68,7.69,8.73c0.14,0,0.29-0.02,0.43-0.04L7.99,8.67z M9.93,8.35
		C9.85,8.44,9.74,8.5,9.62,8.51c0.33-0.06,0.2-0.06,0.44-0.14L9.93,8.35z M8.51,8.58c0.08-0.03,0.17-0.05,0.25-0.07
		C8.79,8.6,8.54,8.68,8.64,8.6L8.51,8.58z M14.4,7.97c0.06-0.01,0.12-0.03,0.18-0.06h0.18c0.24-0.12,0.31-0.1,0.57-0.22
		c-0.07,0,0.06,0-0.06,0.08c-0.15,0.02-0.3,0.07-0.43,0.14c0.06,0,0.07,0-0.07,0.11c-0.11,0.03-0.21,0.04-0.32,0.05
		c0.1-0.06,0.21-0.07,0.32-0.14c0.06-0.02-0.21,0.09-0.24,0.06L14.4,7.97z M14.51,7.97c-0.11,0.06-0.23,0.09-0.36,0.1
		C14.31,8.02,14.47,8,14.64,8L14.51,7.97z M9.44,8.28c0.16,0-0.09,0.07,0.07,0C9.42,8.33,9.33,8.37,9.23,8.39
		c0,0,0.24-0.04,0.34-0.08L9.44,8.28z M20.44,7.59c-0.09,0.05-0.19,0.08-0.29,0.09c0.12-0.06,0.25-0.08,0.38-0.06L20.44,7.59z
		 M9.25,8.29h0.12C9.3,8.34,9.21,8.37,9.12,8.37L9.25,8.29z M12.54,7.88h0.11C12.5,7.95,12.34,8,12.18,8.02
		c0.21-0.04,0.33-0.03,0.45-0.11L12.54,7.88z M9.87,8.14c0.2,0,0.38-0.13,0.58-0.16c-0.19,0.08-0.38,0.15-0.58,0.2
		c0.14,0,0.08,0.02,0.08-0.01L9.87,8.14z M10.76,8.06l0.14-0.08h0.12c-0.02,0-0.07,0.11-0.17,0.11L10.76,8.06z M9.68,8.11
		c0,0-0.24,0.05-0.08,0c0.16-0.05,0,0,0.18,0l-0.17,0.1c0,0-0.25,0.09-0.18,0s0.26-0.03,0.34-0.07L9.68,8.11z M15.77,7.58
		c-0.16,0-0.13,0.08-0.32,0.11c0.17-0.03,0.44-0.16,0.41-0.08L15.77,7.58z M11.77,7.77c-0.13,0.06-0.26,0.1-0.4,0.14
		c0.15-0.07,0.3-0.1,0.46-0.11L11.77,7.77z M22.02,7.23c-0.08,0.04-0.16,0.07-0.25,0.08c0,0,0.18-0.06,0.31-0.05L22.02,7.23z
		 M12.87,7.6c-0.13,0.04-0.26,0.08-0.4,0.1c0.15-0.07,0.32-0.1,0.48-0.07L12.87,7.6z M16.59,7.33c0.16-0.06,0.33-0.1,0.5-0.14
		C17,7.3,16.58,7.45,16.65,7.36L16.59,7.33z M11.09,7.44c-0.14,0.08,0,0,0.08,0c0.08,0-0.17,0-0.26,0.09
		c0.13-0.01,0.25-0.02,0.37-0.06c0,0,0.18,0,0,0.07c0.07-0.05-0.14,0-0.19,0c-0.14,0.06-0.28,0.11-0.43,0.15
		c-0.13,0-0.25,0.02-0.37,0.07c-0.06,0,0.08,0,0,0c-0.33,0.05-0.15,0,0-0.16c0.15-0.16,0,0,0,0s0.12,0,0.18-0.05h-0.11
		c0.13-0.07,0.23-0.07,0.17-0.1c0.08-0.04,0.17-0.06,0.26-0.06c0,0-0.14,0.06-0.1,0.06L11.09,7.44z M12.21,7.39
		c0,0,0.12-0.06,0.21-0.1c0.09-0.04,0.28-0.08,0.44-0.11c-0.16,0.11,0.16-0.05,0.23,0c-0.16,0.07-0.32,0.08-0.48,0.15
		c-0.16,0.07-0.18,0.21-0.49,0.28c0.27-0.08,0.5-0.27,0.15-0.19L12.21,7.39z M23.21,6.87c0,0-0.18,0.09,0,0.07s0.1-0.08,0.17-0.12
		h0.19c-0.11,0.09-0.25,0.14-0.36,0.23c-0.19,0-0.39,0.02-0.58,0.06c0.21-0.09,0.44-0.16,0.67-0.21L23.21,6.87z M17.42,7.06
		c-0.1,0.07-0.2,0.11-0.32,0.13c0.13-0.05,0.27-0.08,0.41-0.1L17.42,7.06z M10.21,7.62c-0.06,0,0.1,0,0,0.05
		c-0.1,0.05-0.08,0.02,0.09-0.02L10.21,7.62z M12.88,7.28L12.6,7.44h-0.15c0,0,0.35-0.1,0.5-0.13L12.88,7.28z M17.71,6.99h0.11
		c-0.07,0-0.14,0.05-0.22,0H17.71z M15.17,7.07c0.2,0-0.13,0.11-0.25,0.12c0.17-0.03,0.26-0.03,0.34-0.09L15.17,7.07z M11.36,7.42
		h0.11c-0.11,0-0.09,0.11-0.02,0.03L11.36,7.42z M17.92,6.88L17.92,6.88c0.06-0.01,0.12-0.01,0.18,0c-0.11,0.05-0.24,0.09-0.36,0.11
		c0.08-0.04,0.18-0.07,0.27-0.08L17.92,6.88z M17.8,6.75c-0.12,0-0.24,0.09-0.36,0.1c0.18-0.04,0.51-0.12,0.45-0.07L17.8,6.75z
		 M10.1,7.28c-0.07,0.06,0.15,0,0.1,0h0.05c-0.02,0-0.13,0.06-0.37,0.12c0.1-0.05,0.2-0.08,0.31-0.09L10.1,7.28z M25.67,6.28
		c-0.09,0.03-0.19,0.05-0.29,0.06c0.12-0.05,0.26-0.05,0.38,0.01L25.67,6.28z M17.4,6.34c-0.07,0.05-0.16,0.07-0.25,0.07
		c0.11-0.04,0.23-0.04,0.34,0L17.4,6.34z M20.7,6.26c0.17,0,0,0.08-0.15,0.07c0.19,0.02,0.1,0.04,0.24,0L20.7,6.26z M18.03,6.26
		c0.17-0.08,0.36-0.12,0.55-0.11c-0.17,0.02-0.33,0.06-0.48,0.13c0.15-0.01-0.01,0.05,0.02,0.01L18.03,6.26z M27.53,6
		c-0.15,0.05-0.32,0.09-0.48,0.09c0.25-0.02,0.53-0.1,0.57-0.06L27.53,6z M13.35,6.39c-0.08,0-0.34,0.09-0.3,0
		c0.04-0.09,0.43-0.01,0.39,0.03L13.35,6.39z M16.44,5.91c0.12,0,0.24-0.06,0.36-0.07c-0.13,0.08-0.26,0.07-0.39,0.17
		c-0.13,0.1-0.15,0.05-0.22,0c0.12-0.01,0.23-0.03,0.34-0.07L16.44,5.91z M21.81,5.71c0.14,0,0.2,0,0,0.07
		c-0.11-0.01-0.22-0.01-0.33,0c0.22,0,0.32,0.02,0.47-0.04L21.81,5.71z M15.97,5.63c-0.12,0.07-0.26,0.13-0.4,0.17
		c0.15-0.09,0.32-0.13,0.49-0.14L15.97,5.63z M19.17,5.55C19.09,5.59,19,5.62,18.91,5.61c0.11-0.05,0.23-0.06,0.35-0.03L19.17,5.55z
		 M18.05,5.5c-0.13,0.07-0.27,0.1-0.41,0.11c0.16-0.05,0.33-0.07,0.5-0.08L18.05,5.5z M19.05,5.41c0.2,0,0.39-0.11,0.59-0.14
		c-0.2,0.09-0.4,0.16-0.62,0.2h-0.11c-0.11,0,0.1,0.06,0.19-0.03L19.05,5.41z M22.24,5.24c-0.18,0.07-0.36,0.12-0.55,0.16
		c0.19-0.07,0.4-0.11,0.6-0.13L22.24,5.24z M16.84,5.24c-0.09,0.05-0.19,0.09-0.29,0.11c0.06-0.05,0-0.05,0.06-0.11
		c0.06-0.06,0.14,0.09,0.28,0.07L16.84,5.24z M16.26,5.46c-0.07,0-0.15,0-0.3,0.05c0.25-0.09,0.44-0.25,0.58-0.22
		c-0.09,0.06-0.17,0.14-0.23,0.24L16.26,5.46z M16.88,5.31c-0.08,0-0.33,0.12-0.29,0.06c0.13-0.05,0.26-0.09,0.4-0.1
		c-0.07,0,0,0,0,0c-0.12,0.06-0.24,0.11-0.37,0.13c0.15,0.07,0.38-0.01,0.33-0.02L16.88,5.31z M19.49,5.14
		c-0.1,0.03-0.2,0.05-0.3,0.06c0.13,0.02,0.39-0.03,0.35,0.01L19.49,5.14z M19.05,5.25c0.1,0-0.12,0,0-0.07
		c0.12-0.07,0.19,0.12,0.05,0.14L19.05,5.25z M19.9,5.2c0.1-0.05,0.19-0.07,0.29-0.11c0.1,0.02,0.2,0.02,0.3,0
		c-0.08,0.03-0.15,0.06-0.22,0.11c-0.07,0-0.12,0-0.26,0.06c-0.14,0.06-0.06,0.03-0.06,0.01L19.9,5.2z M25.8,5.03
		c-0.1,0.05-0.26,0.07-0.26,0.11h-0.07h-0.08c0.15-0.06,0.31-0.08,0.46-0.04L25.8,5.03z M30.56,5.34c0.1,0,0.18-0.05,0.18,0
		c0,0.05-0.23,0.11-0.13,0.07L30.56,5.34z M17.2,5.17c-0.11,0.03-0.22,0.06-0.33,0.07c0.12-0.05,0.26-0.05,0.38,0L17.2,5.17z
		 M24.98,4.89C24.84,4.95,24.7,4.99,24.55,5c0.16-0.04,0.32-0.05,0.48-0.04L24.98,4.89z M18.65,4.89c-0.08,0,0,0-0.11,0.06
		c-0.11,0.06-0.17,0-0.37,0.08h0.11c-0.1,0.03-0.2,0.03-0.3,0c0.23-0.08,0.48-0.12,0.72-0.1L18.65,4.89z M23.88,4.89
		c0.16-0.05,0.32-0.09,0.48-0.12c-0.14,0.07-0.27,0.09-0.4,0.15c-0.13,0.06-0.08,0.04-0.01,0.01L23.88,4.89z M20.96,4.89
		c0.07-0.01,0.15-0.01,0.22,0c-0.05,0.04-0.23,0.05-0.17,0H20.96z M19.2,4.8c-0.05,0-0.06,0-0.07,0.06h-0.22
		c0.11-0.05,0.22-0.07,0.34-0.06L19.2,4.8z M21.69,4.72c-0.11,0-0.21,0.11-0.32,0.11c0.11-0.06,0.24-0.1,0.37-0.11H21.69z
		 M22.77,4.6c-0.15,0.07-0.2,0-0.26,0.11c-0.06,0.11-0.11,0-0.11,0c0.13-0.08,0.27-0.12,0.42-0.11H22.77z M21.96,4.78
		c0.15,0,0.29-0.11,0.44-0.09c-0.07,0.08-0.39,0.14-0.39,0.09H21.96z M19.72,4.78c-0.09,0.05-0.19,0.07-0.29,0.06
		c0.11-0.05,0.22-0.07,0.34-0.07L19.72,4.78z M22.21,4.63c-0.09,0.04-0.19,0.08-0.29,0.1c0,0,0.23-0.11,0.34-0.11L22.21,4.63z
		 M22.65,4.45c-0.19,0.09-0.27,0.11-0.29,0.16c-0.02,0.05-0.09,0-0.15,0C22.3,4.57,22.4,4.53,22.5,4.5h-0.11
		c0.15-0.06,0.32-0.08,0.48-0.08l-0.11,0.07c-0.11,0.07-0.01-0.04-0.06-0.05L22.65,4.45z M23.2,4.45c-0.24,0.09-0.48,0.15-0.73,0.2
		C22.55,4.53,23,4.43,23.25,4.4L23.2,4.45z M19.6,4.58c-0.18,0.06-0.37,0.1-0.56,0.14c0.19-0.1,0.4-0.16,0.61-0.19L19.6,4.58z
		 M20.72,4.58c0,0,0,0.08-0.18,0.09c0.05-0.08,0.14-0.14,0.23-0.14L20.72,4.58z M20.45,4.45c0.21,0-0.14,0.08,0,0.07
		s0.19-0.09,0.29-0.08c-0.19,0.08-0.39,0.14-0.59,0.17c0.07-0.08,0.27-0.15,0.35-0.23L20.45,4.45z M23.5,4.45
		c0.24-0.12,0.5-0.1,0.41,0c-0.12-0.03-0.24-0.03-0.36-0.02L23.5,4.45z M23.5,4.32l-0.18,0.09h-0.07c0.04,0,0.25-0.13,0.33-0.11
		L23.5,4.32z M22.02,4.32c0.11,0,0,0,0,0.07c0,0.07-0.09,0-0.14,0L22.02,4.32z M21.38,4.32c0.09,0,0.09,0,0,0.11
		c-0.09,0.11-0.05-0.17,0.08-0.21L21.38,4.32z M23.32,4.32c0.1-0.07,0.29-0.07,0.29,0c-0.1-0.02-0.05-0.08-0.21-0.06L23.32,4.32z
		 M22.01,4.11c0.06,0.01,0.13,0.01,0.19,0c-0.18,0.07-0.22,0-0.33,0.13s-0.19,0-0.34,0c0.24-0.11,0.42-0.11,0.56-0.19L22.01,4.11z
		 M23.01,3.94c-0.24,0-0.67,0.19-0.78,0.15c0.34-0.11,0.92-0.31,0.9-0.21L23.01,3.94z M22.78,3.94c-0.07,0,0.06,0-0.07,0.07h-0.18
		c0.28-0.04,0.21-0.05,0.42-0.08L22.78,3.94z M24.07,3.59c0.09,0,0.18-0.05,0.26,0c-0.09,0.04-0.19,0.07-0.29,0.09
		c0,0,0.12-0.08,0.15-0.1L24.07,3.59z M27.43,3.48c-0.13,0-0.51,0.14-0.41,0.05c0.1-0.09,0.54-0.1,0.53-0.06L27.43,3.48z
		 M31.19,3.66c0.17,0,0,0.08-0.15,0.08c0.23-0.05,0.13-0.05,0.27-0.09L31.19,3.66z M27.31,3.46c-0.09,0.02-0.17,0.02-0.26,0
		c0.1,0,0.09-0.09,0.19-0.1c0.1-0.01,0.18,0.07,0.19,0.09L27.31,3.46z M27.43,3.36c0.19,0,0,0.08-0.12,0.08
		c-0.12,0,0.09-0.04,0.24-0.09L27.43,3.36z M25.9,3.25c0.11,0,0.22-0.06,0.33,0c-0.18,0.06-0.37,0.1-0.56,0.13L25.9,3.25z
		 M27.43,3.25l-0.15,0.06h-0.11c0.12-0.05,0.25-0.06,0.38-0.03L27.43,3.25z M28.1,3.25c0.19-0.08,0.16,0,0.37,0
		c-0.01,0.08-0.24,0.11-0.25,0.07L28.1,3.25z M28.58,3.2h0.15c-0.08,0.05-0.35,0.11-0.3,0.06c0.04,0.08,0.14,0.1,0.22,0.06
		c0.02-0.01,0.04-0.03,0.05-0.05L28.58,3.2z M32.37,3.33c-0.09,0.01-0.17,0.01-0.26,0c0.52-0.11,1.04-0.18,1.57-0.21
		c-0.16,0.08-0.3,0-0.45,0.08h0.11h-0.26c-0.16,0-0.32,0-0.49,0.09c0.1-0.02,0.2-0.02,0.3,0c-0.07,0-0.15,0-0.22,0.07
		c-0.07,0.07,0-0.07-0.15,0c-0.15,0.07,0.11,0,0,0.07c-0.07,0.01-0.15,0.01-0.22,0c0,0,0.24-0.01,0.19-0.03L32.37,3.33z M28.1,3.13
		c0.17-0.01,0.35-0.03,0.52-0.06c-0.1,0.05,0,0.06-0.19,0.11c-0.19,0.05,0,0-0.07-0.05c-0.11,0.02-0.23,0.05-0.34,0.09
		c-0.01,0.07,0.08,0.03,0.2-0.02L28.1,3.13z M26.76,3.03c-0.12,0.06-0.25,0.1-0.38,0.1c0.16-0.04,0.33-0.05,0.5-0.03L26.76,3.03z
		 M29.54,3.19l-0.15,0.07h-0.11c0.12-0.05,0.26-0.05,0.38,0L29.54,3.19z M30.66,2.77c0.06-0.01,0.13-0.01,0.19,0
		c-0.18,0.04-0.38,0.04-0.56,0L30.1,2.85c-0.29,0.01-0.57,0.06-0.85,0.14c-0.06,0.06-0.14,0.11-0.23,0.13c0-0.06-0.13,0-0.29,0
		c0.19-0.07,0.38-0.15,0.56-0.24c0.34-0.03,0.68-0.1,1-0.2c0,0-0.24,0.08-0.15,0.08c0.09,0,0.27-0.07,0.41-0.12h-0.12
		c0.03,0,0.47-0.12,0.49-0.07c-0.19,0-0.46,0.14-0.3,0.15c0.16,0.01,0.5-0.13,0.52-0.1c-0.05,0.12-0.45,0.17-0.36,0.22L30.66,2.77z
		 M30.81,2.65c0.08-0.05,0.17-0.08,0.26-0.09h0.23c-0.11,0.06-0.23,0.12-0.35,0.16L30.81,2.65z M26.76,3.05
		c0.18-0.05,0.37-0.08,0.56-0.1c-0.14,0.07-0.29,0.13-0.44,0.17L26.76,3.05z M28.28,3.05c-0.07,0.01-0.15,0.01-0.22,0
		c0.18,0.04,0.41,0.04,0.34,0.07L28.28,3.05z M28.99,2.94c-0.09,0-0.37,0.11-0.33,0.06L28.99,2.94z M27.65,2.87
		c0,0-0.19,0.08-0.3,0.08c0.14-0.04,0.28-0.04,0.42-0.01L27.65,2.87z M34.09,3.11c0,0-0.23,0-0.19,0.09
		c-0.07,0.07,0.19-0.03,0.31-0.02L34.09,3.11z M34.5,3.05c0,0-0.19,0.05-0.31,0.11h-0.11c0.17-0.06,0.36-0.07,0.54-0.04L34.5,3.05z
		 M29.99,2.76c-0.09,0-0.36,0.11-0.33,0.05c0.03-0.06,0.34,0.02,0.45,0.02L29.99,2.76z M29.29,2.63c-0.08,0.04-0.17,0.06-0.26,0.05
		c0.12-0.04,0.26-0.04,0.38,0.02L29.29,2.63z M31.52,2.56l0.43-0.03c-0.08,0.06-0.19,0.1-0.29,0.11c0.04,0.01-0.12,0.03-0.02-0.01
		L31.52,2.56z M32.29,2.49h0.19H32.4c-0.2,0-0.05,0.05-0.15,0.08c-0.09,0.01-0.17,0.01-0.26,0c0.14,0,0.28-0.01,0.42-0.04
		L32.29,2.49z M31.95,2.53h0.1c-0.17,0.05-0.34,0.07-0.52,0.08C31.67,2.59,31.81,2.57,31.95,2.53 M42.95,3.71
		c0.13,0,0,0.05-0.08,0.08h-0.15C42.72,3.79,42.81,3.72,42.95,3.71 M36.33,2.87c0.13-0.02,0.25-0.02,0.38,0
		c-0.12,0.05-0.13,0.11-0.34,0.1c0.07-0.08,0.15-0.12-0.08-0.1H36.33z M33.33,2.47h-0.15c-0.28,0.08-0.57,0.11-0.86,0.09
		c0.3-0.02,0.61-0.07,0.9-0.15c-0.05,0,0,0,0.07,0.06c0.07,0.06,0,0,0.19-0.07c0.19-0.07,0,0,0,0s0.09,0,0.23-0.05
		c-0.11,0,0.13-0.06,0.23-0.05c0.1,0.01-0.16,0.05-0.27,0.1c-0.11,0.05-0.3,0-0.39,0.07H33.33z M30.51,2.22
		c0.15-0.03,0.31-0.08,0.45-0.14c0.16,0-0.07,0.05-0.15,0.11c-0.08,0.06-0.15,0-0.22,0.06c-0.07,0.06-0.18-0.01-0.13-0.03H30.51z
		 M33.26,2.32h0.49c-0.11,0.04-0.22,0.06-0.34,0.07c0.02-0.06-0.36,0-0.2-0.07H33.26z M31.85,2.1c0,0-0.16,0.09-0.26,0.09
		c0.07-0.04,0.14-0.07,0.21-0.09H31.85z M31.64,1.97c-0.09,0.05-0.18,0-0.27,0.09h0.11c-0.08,0-0.42,0.09-0.41,0
		c0.17-0.06,0.34-0.09,0.52-0.09H31.64z M34.15,2.29c0.07,0,0.33-0.07,0.27,0c-0.06,0.07-0.47,0.06-0.32,0H34.15z M33.38,2.07
		l-0.45,0.08c0.13-0.05,0.26-0.08,0.4-0.08H33.38z M32.01,1.96l-0.08,0.05c-0.09,0-0.37,0.07-0.33,0c0.04-0.07,0.22-0.06,0.35-0.05
		H32.01z M35.73,2.06c-0.3,0.07-0.6,0.11-0.9,0.15c0.05,0,0.14,0,0,0.06c-0.14,0.06-0.16,0-0.37,0c0.14-0.05,0.25-0.07,0.19-0.12
		c0.35,0,0.69-0.03,1.03-0.09H35.73z M45.37,3.53c-0.13,0-0.26,0.05-0.37,0h0.32H45.37z M38.95,2.53c0.07,0.03,0.16,0.03,0.23,0
		c0.14,0-0.25,0.15-0.46,0.15L38.95,2.53z M32.72,1.88l-0.68,0.11l0.11-0.05c0.18-0.04,0.37-0.06,0.56-0.08L32.72,1.88z M36.31,2.28
		c-0.17,0.02-0.35,0.02-0.52,0c0.16,0.02,0.49-0.08,0.51-0.02L36.31,2.28z M35.95,2.16c0.19,0,0.4-0.05,0.59-0.05
		c-0.23,0.06-0.47,0.09-0.71,0.09c0.05,0,0.09-0.03,0.12-0.06V2.16z M33.02,1.82C32.96,1.82,33.1,1.82,33.02,1.82h-0.3
		c0.09-0.03,0.19-0.03,0.29-0.02L33.02,1.82z M33.73,1.75c-0.12,0.04-0.24,0.07-0.37,0.07c0.12-0.04,0.24-0.07,0.36-0.09L33.73,1.75
		z M35.99,2.04C36.12,2,36.27,2,36.4,2.04c-0.07,0-0.11,0-0.11,0.06h-0.08c0.06-0.09-0.04-0.09-0.26-0.08L35.99,2.04z M33.36,1.68
		c0.2-0.04,0.41-0.06,0.61-0.06c-0.2,0-0.14,0.08-0.31,0.11s0-0.08-0.15-0.05c-0.15,0.03,0,0-0.11,0.07
		c-0.11,0.07-0.06-0.06-0.05-0.09L33.36,1.68z M34.26,1.68c0,0-0.05,0-0.15,0.07c-0.1,0.07-0.2,0-0.3,0h0.07
		c0.07-0.02,0.18-0.07,0.37-0.09L34.26,1.68z M37.26,1.89c-0.18,0-0.67,0.17-0.6,0.08c0.07-0.09,0.4-0.12,0.6-0.1V1.89z M38.37,1.89
		c-0.1,0.03-0.2,0.05-0.3,0.05c0.09-0.06,0.19-0.09,0.3-0.08V1.89z M38.37,1.79c-0.22,0-0.8,0.15-0.78,0.06
		c0.28-0.02,0.72-0.13,0.82-0.09L38.37,1.79z M39.67,1.79c-0.1,0.04-0.2,0.06-0.3,0.06c0,0,0.23-0.05,0.34-0.05L39.67,1.79z
		 M39.42,1.7c0.21,0,0.42-0.01,0.63-0.05c-0.26,0.07-0.52,0.11-0.79,0.12c0.15-0.02,0.06-0.03,0.2-0.06L39.42,1.7z M39.49,1.65
		c0.22,0,0.25-0.1,0.49-0.09c-0.2,0.06-0.1,0-0.19,0.09c-0.09,0.09-0.37,0.07-0.26,0.01L39.49,1.65z M40.77,1.53
		c-0.11,0.04-0.22,0.06-0.34,0.06c0,0,0.27-0.06,0.38-0.06H40.77z M38.31,1.18c-0.12,0.04-0.25,0.07-0.38,0.07
		c0.14-0.04,0.28-0.06,0.42-0.06L38.31,1.18z M38.24,1.18c-0.08,0-0.35,0.06-0.3,0c0.05-0.06,0.24-0.04,0.34-0.01L38.24,1.18z
		 M38.8,1.18h0.07c-0.09,0.03-0.18,0.03-0.27,0c0.16,0.06,0.04,0.02,0.24,0.01L38.8,1.18z M38.8,1c0,0-0.17,0.06-0.13,0.09
		c0.09-0.02,0.18-0.02,0.27,0c-0.18,0.07-0.38,0.11-0.57,0.12c0.31-0.08,0.09-0.19,0.45-0.2L38.8,1z M42.17,1.58h-0.26
		c0.06,0,0.2-0.05,0.28,0.01L42.17,1.58z M39.35,1.06c-0.09,0.02-0.18,0.02-0.27,0c0.1-0.03,0.2-0.03,0.29,0.01L39.35,1.06z
		 M41.74,1.42c0.18-0.04,0.38-0.04,0.56,0c0.14,0,0.39,0,0.42-0.08h0.15c-0.1,0-0.19,0-0.2,0.06c-0.21,0-0.32,0-0.38,0.06
		c-0.06,0.06,0,0-0.07,0h-0.19c-0.16,0,0.03-0.04-0.27-0.03L41.74,1.42z M43.09,1.42c0.2,0-0.26,0.11-0.38,0.08
		c0.31-0.11,0.24-0.04,0.4-0.12L43.09,1.42z M43.51,1.33c0.18,0,0,0.06-0.12,0.1c-0.12,0.04-0.13,0-0.19,0
		c0.16-0.1,0.23-0.07,0.33-0.14L43.51,1.33z M44.43,1.46c-0.11,0.02-0.23,0.02-0.34,0c0.11-0.05,0.24-0.06,0.36-0.04L44.43,1.46z
		 M54.95,3.05h0.33h-0.23C55.05,3.05,54.95,3.07,54.95,3.05 M46.53,1.13c0.21,0-0.37,0.14-0.35,0.07c0.02-0.07,0.12-0.05,0.32-0.07
		H46.53z M55.53,3.03c0.22-0.05,0.45-0.05,0.67,0c-0.26,0-0.12,0-0.24,0.06c-0.12,0.06-0.07-0.07-0.09-0.1
		c-0.02-0.03-0.36,0.09-0.36,0.04H55.53z M56.69,3.03h-0.3c-0.1,0,0.42-0.01,0.28,0.02L56.69,3.03z M46.51,0.42
		c-0.13,0.02-0.25,0.02-0.38,0c0.12-0.02,0.24-0.01,0.36,0.02L46.51,0.42z M47.2,0.32c0.11-0.08,0.18,0,0.3,0
		c-0.09,0,0.1-0.09,0.17-0.12c0.07-0.03-0.24,0.09-0.06,0.12c0.18,0.03,0,0,0.12-0.06c0.12-0.06,0.29,0,0.22,0s-1,0.21-0.83,0.06
		c-0.15,0-0.51,0.08-0.53,0c0.2-0.03,0.4-0.02,0.59,0.02L47.2,0.32z M47.44,0.22c-0.19,0.04-0.38,0.05-0.57,0.06
		c0.18-0.04,0.37-0.06,0.55-0.04L47.44,0.22z M59.17,3h0.56c-0.2,0.04-0.54,0.09-0.58,0.02L59.17,3z M48.17,0.14h0.1
		c-0.11-0.04-0.23-0.04-0.34,0c-0.17,0.05,0.02,0.04,0.18,0.02L48.17,0.14z M48.87,0.22h0.27c-0.19,0.07-0.44,0.06-0.33,0.02
		L48.87,0.22z M48.6,0.04c0.1,0,0.13,0,0.07,0.05c-0.05-0.01-0.1-0.01-0.15,0H48.4L48.6,0.04z M61.07,3.04
		c-0.04,0.01-0.08,0.01-0.12,0c-0.08-0.01-0.17-0.01-0.25,0c0.11-0.01,0.21,0.01,0.31,0.04L61.07,3.04z M50.24,0.16h0.19
		c0.02,0,0,0,0-0.05c0.21,0,0.27,0,0.11,0.08c-0.16,0.08-0.41,0-0.61,0L50.24,0.16z M61.72,3.16h-0.14
		c0.07-0.06,0.26-0.01,0.08,0.01L61.72,3.16z M51.23,0.21c0.11-0.02,0.23-0.02,0.34,0C51.45,0.23,51.34,0.23,51.23,0.21
		c-0.01,0-0.03,0.02-0.06,0.01L51.23,0.21z M63.39,3.09c0.09,0.01,0.17,0.03,0.26,0.05c-0.06,0,0,0.06-0.13,0h-0.1
		c-0.1,0,0,0,0,0.06c0,0.06-0.16,0-0.22,0c0.12-0.05-0.06-0.08,0.13-0.1L63.39,3.09z M52.39,0.09c0.19-0.02,0.38-0.02,0.57,0
		c-0.12-0.01-0.23-0.01-0.35,0c0.06-0.01,0.13-0.01,0.19,0c-0.11,0-0.28,0-0.28,0.06c0,0.06-0.19,0.01-0.2-0.03L52.39,0.09z
		 M64.15,3.14c-0.07,0,0,0-0.13,0.05c-0.13,0.05-0.07-0.06,0.06-0.02L64.15,3.14z M53.15,0.14c0.18,0,0.16,0.07,0.09,0.1h-0.15
		c0.05-0.03-0.14-0.06,0.02-0.09L53.15,0.14z M64.44,3.24c-0.09,0.02-0.18,0.02-0.27,0c0.08-0.02,0.16-0.02,0.23,0.01L64.44,3.24z
		 M53.65,0.1c-0.2,0.02-0.41,0.02-0.61,0h0.42c0.05-0.01,0.1-0.01,0.15,0.01L53.65,0.1z M53.95,0.1L53.95,0.1
		c-0.21,0.03-0.43,0.03-0.64,0c0.12,0,0,0,0.16-0.07L53.95,0.1z M65.38,3.24c-0.14,0-0.25,0-0.21,0.05s-0.22,0-0.33,0
		c0.22,0-0.1,0,0-0.06c0.17,0.03,0.33,0.04,0.5,0.05L65.38,3.24z M54.23,0h0.11c0.11,0,0,0,0,0s0.06,0-0.05,0.06
		c-0.05-0.01-0.1-0.01-0.15,0h-0.08h-0.11c0.21,0.01,0.17,0.03,0.24-0.02L54.23,0z M54.74,0.11c0.13-0.01,0.25-0.01,0.38,0
		C54.95,0.19,54.7,0.2,54.7,0.15L54.74,0.11z M55.59,0.03c0.11-0.02,0.23-0.02,0.34,0c-0.1,0.01-0.21,0.01-0.31,0c0,0,0.07,0,0,0
		s-0.07,0.05-0.07,0.04L55.59,0.03z M56.45,0.12h-0.38c0.07-0.01,0.37,0,0.34,0.04L56.45,0.12z M56.37,0.12h0.11
		c0.1,0,0.13,0,0.07,0.05h-0.19c0.01,0.02-0.07,0.01-0.03,0L56.37,0.12z M57.24,0.12c-0.2,0.03-0.41,0.03-0.61,0
		c0.17,0.06,0.32,0.1,0.57,0.09L57.24,0.12z M57.37,0.03c-0.16,0.04-0.33,0.04-0.5,0c0.16,0.01,0.31,0.04,0.46,0.09L57.37,0.03z
		 M58.29,0.18l0.11,0.05c-0.17,0.03-0.33,0.03-0.5,0c0.11,0.03,0.23,0.05,0.35,0.04L58.29,0.18z M60.56,0.18h0.15h-0.26
		c0.07,0,0,0.04,0.07,0.05L60.56,0.18z M76.14,1.67c0.1,0.02,0.19,0.05,0.29,0.08c-0.16,0.02-0.32,0.02-0.47,0h-0.1
		C76.04,1.76,76,1.76,76.1,1.72L76.14,1.67z M77.36,1.91c-0.14-0.07-0.39,0-0.32-0.1c0.07-0.1,0.33,0.11,0.28,0.15L77.36,1.91z
		 M90.83,7.42c-0.36,0,0.34,0.11,0,0.09c-0.07-0.05-0.15-0.09-0.23-0.11c0.07,0,0.13,0.03,0.19,0.07L90.83,7.42z M90.42,7.42
		c-0.04-0.03-0.09-0.05-0.14-0.05c-0.06,0,0,0.08-0.17,0c-0.17-0.08,0.08,0,0-0.06h0.4c-0.02,0.12,0.04,0.22-0.13,0.15L90.42,7.42z
		 M81.01,2.53c0.12,0.01,0.23,0.02,0.34,0.06h-0.28C80.96,2.59,81.08,2.58,81.01,2.53 M91.33,7.59c0.09,0.05,0,0.06,0,0.09
		c0,0.03-0.21,0-0.29-0.08L91.33,7.59z M81.78,2.72c-0.18-0.06-0.15,0-0.3,0c-0.15,0,0.37-0.03,0.3,0.02V2.72z M91.43,7.62
		c0.08,0,0.15,0.02,0.22,0.06c-0.05,0.01-0.11,0.01-0.16,0c0,0-0.01-0.01-0.06-0.04V7.62z M92.69,5.11
		c-0.12-0.07-0.28-0.05-0.4-0.11c0.13,0.01,0.44,0.09,0.4,0.13V5.11z M93.29,5.25c-0.19-0.04-0.37-0.09-0.55-0.16
		c0.19,0.02,0.38,0.08,0.55,0.18V5.25z M93.57,5.25H93.4L93.31,5.2c0.09,0.01,0.18,0.05,0.26,0.1V5.25z M104.47,10.37
		c0.1,0.07,0,0.06-0.12,0c-0.12-0.06-0.42-0.14-0.69-0.21c0,0-0.1-0.06-0.06-0.06c0.29,0.09,0.58,0.2,0.87,0.32V10.37z
		 M105.47,10.73c0,0,0.07,0.07,0,0.07c-0.24-0.08-0.49-0.15-0.72-0.24L105.47,10.73z M100.29,7.21c-0.16,0-0.31-0.04-0.46-0.1
		c0.14,0.04,0.28,0.09,0.41,0.15L100.29,7.21z M106.56,11.08c-0.25-0.08-0.51-0.14-0.77-0.16l-0.12-0.09
		c0.29,0.07,0.57,0.17,0.84,0.3L106.56,11.08z M102.95,7.89l0.19,0.05c0.16,0.11-0.16,0,0.08,0.16c-0.14-0.03-0.28-0.08-0.4-0.15
		C103,8.05,103.1,8.02,102.95,7.89 M109.14,12.17c0.09,0.06,0,0,0,0.06s-0.17-0.06-0.23-0.12c-0.06-0.06,0.04,0.05,0.18,0.06H109.14
		z M108.14,11.02c0.08,0.02,0.17,0.02,0.25,0c0.14,0.08,0,0,0,0.07c0.04,0.01,0.07,0.03,0.1,0.05c-0.18-0.06-0.32-0.13-0.28,0
		s-0.18-0.11-0.16-0.12H108.14z M107.14,9.76c-0.07-0.06-0.18-0.05-0.24-0.11c-0.06-0.06,0.24,0.1,0.17,0.11H107.14z M108.14,10.15
		c-0.19-0.04-0.38-0.11-0.55-0.19c0.16,0.05,0.32,0.12,0.47,0.19H108.14z M108.83,10.45c-0.1-0.02-0.2-0.06-0.28-0.12
		c0.07,0.03,0.14,0.07,0.2,0.12H108.83z M108.83,10.27c0.08,0.06,0.12,0.08,0.14,0.06c0.02-0.02-0.18,0-0.23-0.06H108.83z
		 M114.83,13.32c-0.11-0.01-0.21-0.04-0.3-0.09c0.1,0,0.19,0.03,0.27,0.09H114.83z"/>
</svg>
